<svg width="61" height="38" viewBox="0 0 61 38" fill="none" xmlns="http://www.w3.org/2000/svg">
<path d="M0.791484 31L3.86148 23.95H4.41148L7.47148 31H6.83148L6.02148 29.12H2.24148L1.44148 31H0.791484ZM4.12148 24.71L2.47148 28.59H5.79148L4.14148 24.71H4.12148ZM10.4695 31.08C9.99612 31.08 9.58945 30.9767 9.24945 30.77C8.90945 30.5567 8.64612 30.26 8.45945 29.88C8.27945 29.4933 8.18945 29.0467 8.18945 28.54C8.18945 27.7733 8.38945 27.17 8.78945 26.73C9.19612 26.2833 9.75612 26.06 10.4695 26.06C10.7628 26.06 11.0528 26.1167 11.3395 26.23C11.6261 26.3433 11.8661 26.5 12.0595 26.7L11.8195 27.16C11.6128 26.96 11.3928 26.8167 11.1595 26.73C10.9261 26.6367 10.7028 26.59 10.4895 26.59C9.94945 26.59 9.53279 26.76 9.23945 27.1C8.95279 27.44 8.80945 27.9233 8.80945 28.55C8.80945 29.1767 8.95279 29.67 9.23945 30.03C9.53279 30.3833 9.94945 30.56 10.4895 30.56C10.7028 30.56 10.9261 30.5167 11.1595 30.43C11.3928 30.3367 11.6128 30.19 11.8195 29.99L12.0595 30.45C11.8661 30.6433 11.6228 30.7967 11.3295 30.91C11.0428 31.0233 10.7561 31.08 10.4695 31.08ZM14.9616 31.08C14.4883 31.08 14.0816 30.9767 13.7416 30.77C13.4016 30.5567 13.1383 30.26 12.9516 29.88C12.7716 29.4933 12.6816 29.0467 12.6816 28.54C12.6816 27.7733 12.8816 27.17 13.2816 26.73C13.6883 26.2833 14.2483 26.06 14.9616 26.06C15.255 26.06 15.545 26.1167 15.8316 26.23C16.1183 26.3433 16.3583 26.5 16.5516 26.7L16.3116 27.16C16.105 26.96 15.885 26.8167 15.6516 26.73C15.4183 26.6367 15.195 26.59 14.9816 26.59C14.4416 26.59 14.025 26.76 13.7316 27.1C13.445 27.44 13.3016 27.9233 13.3016 28.55C13.3016 29.1767 13.445 29.67 13.7316 30.03C14.025 30.3833 14.4416 30.56 14.9816 30.56C15.195 30.56 15.4183 30.5167 15.6516 30.43C15.885 30.3367 16.105 30.19 16.3116 29.99L16.5516 30.45C16.3583 30.6433 16.115 30.7967 15.8216 30.91C15.535 31.0233 15.2483 31.08 14.9616 31.08ZM19.2815 31.08C18.1282 31.08 17.5515 30.4533 17.5515 29.2V26.15H18.1615V29.17C18.1615 29.6433 18.2582 29.9933 18.4515 30.22C18.6448 30.4467 18.9482 30.56 19.3615 30.56C19.8082 30.56 20.1715 30.41 20.4515 30.11C20.7382 29.81 20.8815 29.41 20.8815 28.91V26.15H21.4915V31H20.9015V30.14C20.7415 30.4467 20.5182 30.68 20.2315 30.84C19.9515 31 19.6348 31.08 19.2815 31.08ZM23.1188 31V26.15H23.7188V27C24.0188 26.3733 24.5288 26.06 25.2488 26.06C26.0222 26.06 26.5122 26.3967 26.7188 27.07C26.8588 26.7567 27.0722 26.51 27.3588 26.33C27.6455 26.15 27.9788 26.06 28.3588 26.06C29.4322 26.06 29.9688 26.6867 29.9688 27.94V31H29.3588V27.99C29.3588 27.51 29.2722 27.1567 29.0988 26.93C28.9322 26.7033 28.6488 26.59 28.2488 26.59C27.8222 26.59 27.4822 26.74 27.2288 27.04C26.9755 27.3333 26.8488 27.7333 26.8488 28.24V31H26.2388V27.99C26.2388 27.51 26.1522 27.1567 25.9788 26.93C25.8122 26.7033 25.5322 26.59 25.1388 26.59C24.7055 26.59 24.3622 26.74 24.1088 27.04C23.8555 27.3333 23.7288 27.7333 23.7288 28.24V31H23.1188ZM33.2756 31.08C32.1223 31.08 31.5456 30.4533 31.5456 29.2V26.15H32.1556V29.17C32.1556 29.6433 32.2523 29.9933 32.4456 30.22C32.639 30.4467 32.9423 30.56 33.3556 30.56C33.8023 30.56 34.1656 30.41 34.4456 30.11C34.7323 29.81 34.8756 29.41 34.8756 28.91V26.15H35.4856V31H34.8956V30.14C34.7356 30.4467 34.5123 30.68 34.2256 30.84C33.9456 31 33.629 31.08 33.2756 31.08ZM38.503 31.08C38.0496 31.08 37.6996 30.9433 37.453 30.67C37.213 30.39 37.093 29.99 37.093 29.47V23.95H37.703V29.4C37.703 30.1667 38.003 30.55 38.603 30.55C38.7696 30.55 38.923 30.53 39.063 30.49L39.043 31.02C38.8496 31.06 38.6696 31.08 38.503 31.08ZM41.4445 31.08C41.1179 31.08 40.8245 31.0167 40.5645 30.89C40.3112 30.7633 40.1079 30.59 39.9545 30.37C39.8079 30.15 39.7345 29.9033 39.7345 29.63C39.7345 29.27 39.8245 28.99 40.0045 28.79C40.1845 28.5833 40.4879 28.4367 40.9145 28.35C41.3412 28.2633 41.9279 28.22 42.6745 28.22H42.9845V27.86C42.9845 27.4133 42.8945 27.09 42.7145 26.89C42.5345 26.6833 42.2479 26.58 41.8545 26.58C41.5612 26.58 41.2779 26.6233 41.0045 26.71C40.7379 26.7967 40.4612 26.9333 40.1745 27.12L39.9345 26.65C40.1879 26.47 40.4879 26.3267 40.8345 26.22C41.1812 26.1133 41.5179 26.06 41.8445 26.06C42.4312 26.06 42.8645 26.21 43.1445 26.51C43.4312 26.81 43.5745 27.27 43.5745 27.89V31H42.9945V30.13C42.8612 30.43 42.6579 30.6633 42.3845 30.83C42.1179 30.9967 41.8045 31.08 41.4445 31.08ZM41.5245 30.59C41.8112 30.59 42.0612 30.5233 42.2745 30.39C42.4945 30.25 42.6679 30.06 42.7945 29.82C42.9212 29.58 42.9845 29.3067 42.9845 29V28.67H42.6845C42.0845 28.67 41.6145 28.6967 41.2745 28.75C40.9412 28.8033 40.7079 28.8967 40.5745 29.03C40.4412 29.1633 40.3745 29.3467 40.3745 29.58C40.3745 29.88 40.4779 30.1233 40.6845 30.31C40.8912 30.4967 41.1712 30.59 41.5245 30.59ZM46.9991 31.08C46.4591 31.08 46.0525 30.9333 45.7791 30.64C45.5125 30.3467 45.3791 29.9267 45.3791 29.38V26.64H44.4191V26.15H45.3791V24.65H45.9891V26.15H47.5591V26.64H45.9891V29.3C45.9891 29.7067 46.0725 30.0167 46.2391 30.23C46.4058 30.4433 46.6825 30.55 47.0691 30.55C47.1825 30.55 47.2925 30.5367 47.3991 30.51C47.5058 30.4833 47.5991 30.4533 47.6791 30.42L47.7991 30.9C47.7258 30.9467 47.6091 30.9867 47.4491 31.02C47.2891 31.06 47.1391 31.08 46.9991 31.08ZM48.4188 24.87V24.1H49.2388V24.87H48.4188ZM48.5188 31V26.15H49.1288V31H48.5188ZM52.6655 31.08C52.2122 31.08 51.8189 30.98 51.4855 30.78C51.1522 30.5733 50.8922 30.2833 50.7055 29.91C50.5255 29.53 50.4355 29.0833 50.4355 28.57C50.4355 28.0633 50.5255 27.6233 50.7055 27.25C50.8922 26.87 51.1522 26.5767 51.4855 26.37C51.8189 26.1633 52.2122 26.06 52.6655 26.06C53.1255 26.06 53.5222 26.1633 53.8555 26.37C54.1889 26.5767 54.4455 26.87 54.6255 27.25C54.8122 27.6233 54.9055 28.0633 54.9055 28.57C54.9055 29.0833 54.8122 29.53 54.6255 29.91C54.4455 30.2833 54.1889 30.5733 53.8555 30.78C53.5222 30.98 53.1255 31.08 52.6655 31.08ZM52.6655 30.57C53.1589 30.57 53.5522 30.3967 53.8455 30.05C54.1389 29.6967 54.2855 29.2033 54.2855 28.57C54.2855 27.9367 54.1389 27.4467 53.8455 27.1C53.5522 26.7533 53.1589 26.58 52.6655 26.58C52.1722 26.58 51.7789 26.7533 51.4855 27.1C51.1989 27.4467 51.0555 27.9367 51.0555 28.57C51.0555 29.2033 51.1989 29.6967 51.4855 30.05C51.7789 30.3967 52.1722 30.57 52.6655 30.57ZM56.2043 31V26.15H56.8043V27.02C56.9643 26.7 57.1943 26.46 57.4943 26.3C57.7943 26.14 58.1276 26.06 58.4943 26.06C59.6476 26.06 60.2243 26.6867 60.2243 27.94V31H59.6143V27.99C59.6143 27.51 59.5176 27.1567 59.3243 26.93C59.131 26.7033 58.8243 26.59 58.4043 26.59C57.9243 26.59 57.5376 26.74 57.2443 27.04C56.9576 27.3333 56.8143 27.73 56.8143 28.23V31H56.2043Z" fill="black"/>
<path d="M31 1L31 10" stroke="black" stroke-width="1.1" stroke-linecap="round"/>
<path d="M31 13L31 22" stroke="black" stroke-width="1.1" stroke-linecap="round"/>
</svg>
