<svg width="55" height="44" viewBox="0 0 55 44" fill="none" xmlns="http://www.w3.org/2000/svg">
<path d="M1.10008 37L4.17008 29.95H4.72008L7.78008 37H7.14008L6.33008 35.12H2.55008L1.75008 37H1.10008ZM4.43008 30.71L2.78008 34.59H6.10008L4.45008 30.71H4.43008ZM10.778 37.08C10.3047 37.08 9.89805 36.9767 9.55805 36.77C9.21805 36.5567 8.95471 36.26 8.76805 35.88C8.58805 35.4933 8.49805 35.0467 8.49805 34.54C8.49805 33.7733 8.69805 33.17 9.09805 32.73C9.50471 32.2833 10.0647 32.06 10.778 32.06C11.0714 32.06 11.3614 32.1167 11.648 32.23C11.9347 32.3433 12.1747 32.5 12.368 32.7L12.128 33.16C11.9214 32.96 11.7014 32.8167 11.468 32.73C11.2347 32.6367 11.0114 32.59 10.798 32.59C10.258 32.59 9.84138 32.76 9.54805 33.1C9.26138 33.44 9.11805 33.9233 9.11805 34.55C9.11805 35.1767 9.26138 35.67 9.54805 36.03C9.84138 36.3833 10.258 36.56 10.798 36.56C11.0114 36.56 11.2347 36.5167 11.468 36.43C11.7014 36.3367 11.9214 36.19 12.128 35.99L12.368 36.45C12.1747 36.6433 11.9314 36.7967 11.638 36.91C11.3514 37.0233 11.0647 37.08 10.778 37.08ZM15.2179 37.08C14.6779 37.08 14.2712 36.9333 13.9979 36.64C13.7312 36.3467 13.5979 35.9267 13.5979 35.38V32.64H12.6379V32.15H13.5979V30.65H14.2079V32.15H15.7779V32.64H14.2079V35.3C14.2079 35.7067 14.2912 36.0167 14.4579 36.23C14.6246 36.4433 14.9012 36.55 15.2879 36.55C15.4012 36.55 15.5112 36.5367 15.6179 36.51C15.7246 36.4833 15.8179 36.4533 15.8979 36.42L16.0179 36.9C15.9446 36.9467 15.8279 36.9867 15.6679 37.02C15.5079 37.06 15.3579 37.08 15.2179 37.08ZM16.6375 30.87V30.1H17.4575V30.87H16.6375ZM16.7375 37V32.15H17.3475V37H16.7375ZM20.8843 37.08C20.431 37.08 20.0376 36.98 19.7043 36.78C19.371 36.5733 19.111 36.2833 18.9243 35.91C18.7443 35.53 18.6543 35.0833 18.6543 34.57C18.6543 34.0633 18.7443 33.6233 18.9243 33.25C19.111 32.87 19.371 32.5767 19.7043 32.37C20.0376 32.1633 20.431 32.06 20.8843 32.06C21.3443 32.06 21.741 32.1633 22.0743 32.37C22.4076 32.5767 22.6643 32.87 22.8443 33.25C23.031 33.6233 23.1243 34.0633 23.1243 34.57C23.1243 35.0833 23.031 35.53 22.8443 35.91C22.6643 36.2833 22.4076 36.5733 22.0743 36.78C21.741 36.98 21.3443 37.08 20.8843 37.08ZM20.8843 36.57C21.3776 36.57 21.771 36.3967 22.0643 36.05C22.3576 35.6967 22.5043 35.2033 22.5043 34.57C22.5043 33.9367 22.3576 33.4467 22.0643 33.1C21.771 32.7533 21.3776 32.58 20.8843 32.58C20.391 32.58 19.9976 32.7533 19.7043 33.1C19.4176 33.4467 19.2743 33.9367 19.2743 34.57C19.2743 35.2033 19.4176 35.6967 19.7043 36.05C19.9976 36.3967 20.391 36.57 20.8843 36.57ZM24.423 37V32.15H25.023V33.02C25.183 32.7 25.413 32.46 25.713 32.3C26.013 32.14 26.3464 32.06 26.713 32.06C27.8664 32.06 28.443 32.6867 28.443 33.94V37H27.833V33.99C27.833 33.51 27.7364 33.1567 27.543 32.93C27.3497 32.7033 27.043 32.59 26.623 32.59C26.143 32.59 25.7564 32.74 25.463 33.04C25.1764 33.3333 25.033 33.73 25.033 34.23V37H24.423ZM32.6485 37V29.95H34.9185C36.0385 29.95 36.9018 30.25 37.5085 30.85C38.1218 31.45 38.4285 32.3233 38.4285 33.47C38.4285 34.6167 38.1218 35.4933 37.5085 36.1C36.9018 36.7 36.0385 37 34.9185 37H32.6485ZM33.2585 36.46H34.8685C36.8018 36.46 37.7685 35.4633 37.7685 33.47C37.7685 31.4833 36.8018 30.49 34.8685 30.49H33.2585V36.46ZM39.8625 37V32.15H40.4625V33.03C40.6025 32.7233 40.8058 32.49 41.0725 32.33C41.3392 32.17 41.6792 32.0767 42.0925 32.05L42.3425 32.03L42.4025 32.56L41.9725 32.61C41.4992 32.65 41.1325 32.8067 40.8725 33.08C40.6125 33.3467 40.4825 33.7067 40.4825 34.16V37H39.8625ZM43.1805 30.87V30.1H44.0005V30.87H43.1805ZM43.2805 37V32.15H43.8905V37H43.2805ZM46.9373 37L44.8573 32.15H45.5373L47.2473 36.33L48.9873 32.15H49.6273L47.5473 37H46.9373ZM52.6366 37.08C51.8899 37.08 51.2999 36.86 50.8666 36.42C50.4399 35.9733 50.2266 35.3633 50.2266 34.59C50.2266 34.09 50.3232 33.65 50.5166 33.27C50.7099 32.89 50.9766 32.5933 51.3166 32.38C51.6632 32.1667 52.0599 32.06 52.5066 32.06C53.1532 32.06 53.6566 32.27 54.0166 32.69C54.3766 33.11 54.5566 33.6867 54.5566 34.42V34.7H50.8266C50.8466 35.3 51.0099 35.7633 51.3166 36.09C51.6299 36.41 52.0632 36.57 52.6166 36.57C52.9166 36.57 53.1966 36.5233 53.4566 36.43C53.7232 36.3367 53.9832 36.18 54.2366 35.96L54.4766 36.42C54.2632 36.6267 53.9899 36.79 53.6566 36.91C53.3232 37.0233 52.9832 37.08 52.6366 37.08ZM52.5166 32.55C52.0099 32.55 51.6132 32.71 51.3266 33.03C51.0466 33.3433 50.8832 33.75 50.8366 34.25H54.0066C53.9932 33.7167 53.8599 33.3 53.6066 33C53.3532 32.7 52.9899 32.55 52.5166 32.55Z" fill="black"/>
<path d="M26 14L26 23" stroke="black" stroke-width="1.1" stroke-linecap="round"/>
<path d="M26 5L26 14" stroke="black" stroke-width="1.1" stroke-linecap="round"/>
<path d="M30 1L30 10" stroke="black" stroke-width="1.1" stroke-linecap="round"/>
<path d="M30 10H39" stroke="black" stroke-width="1.1" stroke-linecap="round"/>
<path d="M19 17H23" stroke="black" stroke-width="1.1" stroke-linecap="round"/>
<path d="M29 17H33" stroke="black" stroke-width="1.1" stroke-linecap="round"/>
<path d="M26 14L30 10" stroke="black" stroke-width="1.1" stroke-linecap="round"/>
</svg>
