<svg width="47" height="42" viewBox="0 0 47 42" fill="none" xmlns="http://www.w3.org/2000/svg">
<path d="M0.355938 35L3.42594 27.95H3.97594L7.03594 35H6.39594L5.58594 33.12H1.80594L1.00594 35H0.355938ZM3.68594 28.71L2.03594 32.59H5.35594L3.70594 28.71H3.68594ZM9.90391 35.08C9.46391 35.08 9.08391 34.98 8.76391 34.78C8.44391 34.5733 8.19391 34.2833 8.01391 33.91C7.84057 33.53 7.75391 33.0833 7.75391 32.57C7.75391 31.8033 7.94724 31.1933 8.33391 30.74C8.72057 30.2867 9.24391 30.06 9.90391 30.06C10.2906 30.06 10.6306 30.15 10.9239 30.33C11.2239 30.5033 11.4472 30.7433 11.5939 31.05V27.95H12.2039V35H11.6039V34.08C11.4572 34.3933 11.2339 34.64 10.9339 34.82C10.6406 34.9933 10.2972 35.08 9.90391 35.08ZM9.98391 34.57C10.4772 34.57 10.8706 34.3967 11.1639 34.05C11.4572 33.6967 11.6039 33.2033 11.6039 32.57C11.6039 31.9367 11.4572 31.4467 11.1639 31.1C10.8706 30.7533 10.4772 30.58 9.98391 30.58C9.49057 30.58 9.09724 30.7533 8.80391 31.1C8.51724 31.4467 8.37391 31.9367 8.37391 32.57C8.37391 33.2033 8.51724 33.6967 8.80391 34.05C9.09724 34.3967 9.49057 34.57 9.98391 34.57ZM15.2459 35L13.1659 30.15H13.8459L15.5559 34.33L17.2959 30.15H17.9359L15.8559 35H15.2459ZM20.2961 35.08C19.9694 35.08 19.6761 35.0167 19.4161 34.89C19.1628 34.7633 18.9594 34.59 18.8061 34.37C18.6594 34.15 18.5861 33.9033 18.5861 33.63C18.5861 33.27 18.6761 32.99 18.8561 32.79C19.0361 32.5833 19.3394 32.4367 19.7661 32.35C20.1928 32.2633 20.7794 32.22 21.5261 32.22H21.8361V31.86C21.8361 31.4133 21.7461 31.09 21.5661 30.89C21.3861 30.6833 21.0994 30.58 20.7061 30.58C20.4128 30.58 20.1294 30.6233 19.8561 30.71C19.5894 30.7967 19.3128 30.9333 19.0261 31.12L18.7861 30.65C19.0394 30.47 19.3394 30.3267 19.6861 30.22C20.0328 30.1133 20.3694 30.06 20.6961 30.06C21.2828 30.06 21.7161 30.21 21.9961 30.51C22.2828 30.81 22.4261 31.27 22.4261 31.89V35H21.8461V34.13C21.7128 34.43 21.5094 34.6633 21.2361 34.83C20.9694 34.9967 20.6561 35.08 20.2961 35.08ZM20.3761 34.59C20.6628 34.59 20.9128 34.5233 21.1261 34.39C21.3461 34.25 21.5194 34.06 21.6461 33.82C21.7728 33.58 21.8361 33.3067 21.8361 33V32.67H21.5361C20.9361 32.67 20.4661 32.6967 20.1261 32.75C19.7928 32.8033 19.5594 32.8967 19.4261 33.03C19.2928 33.1633 19.2261 33.3467 19.2261 33.58C19.2261 33.88 19.3294 34.1233 19.5361 34.31C19.7428 34.4967 20.0228 34.59 20.3761 34.59ZM24.0207 35V30.15H24.6207V31.02C24.7807 30.7 25.0107 30.46 25.3107 30.3C25.6107 30.14 25.944 30.06 26.3107 30.06C27.464 30.06 28.0407 30.6867 28.0407 31.94V35H27.4307V31.99C27.4307 31.51 27.334 31.1567 27.1407 30.93C26.9474 30.7033 26.6407 30.59 26.2207 30.59C25.7407 30.59 25.354 30.74 25.0607 31.04C24.774 31.3333 24.6307 31.73 24.6307 32.23V35H24.0207ZM31.5964 35.08C31.1231 35.08 30.7164 34.9767 30.3764 34.77C30.0364 34.5567 29.7731 34.26 29.5864 33.88C29.4064 33.4933 29.3164 33.0467 29.3164 32.54C29.3164 31.7733 29.5164 31.17 29.9164 30.73C30.3231 30.2833 30.8831 30.06 31.5964 30.06C31.8897 30.06 32.1797 30.1167 32.4664 30.23C32.7531 30.3433 32.9931 30.5 33.1864 30.7L32.9464 31.16C32.7397 30.96 32.5197 30.8167 32.2864 30.73C32.0531 30.6367 31.8297 30.59 31.6164 30.59C31.0764 30.59 30.6597 30.76 30.3664 31.1C30.0797 31.44 29.9364 31.9233 29.9364 32.55C29.9364 33.1767 30.0797 33.67 30.3664 34.03C30.6597 34.3833 31.0764 34.56 31.6164 34.56C31.8297 34.56 32.0531 34.5167 32.2864 34.43C32.5197 34.3367 32.7397 34.19 32.9464 33.99L33.1864 34.45C32.9931 34.6433 32.7497 34.7967 32.4564 34.91C32.1697 35.0233 31.8831 35.08 31.5964 35.08ZM34.1063 28.87V28.1H34.9263V28.87H34.1063ZM34.2063 35V30.15H34.8163V35H34.2063ZM36.423 35V30.15H37.023V31.02C37.183 30.7 37.413 30.46 37.713 30.3C38.013 30.14 38.3464 30.06 38.713 30.06C39.8664 30.06 40.443 30.6867 40.443 31.94V35H39.833V31.99C39.833 31.51 39.7364 31.1567 39.543 30.93C39.3497 30.7033 39.043 30.59 38.623 30.59C38.143 30.59 37.7564 30.74 37.463 31.04C37.1764 31.3333 37.033 31.73 37.033 32.23V35H36.423ZM44.1288 36.88C43.2821 36.88 42.5788 36.6567 42.0188 36.21L42.2488 35.75C42.5554 35.97 42.8521 36.1267 43.1388 36.22C43.4254 36.32 43.7488 36.37 44.1088 36.37C44.5954 36.37 44.9654 36.2367 45.2188 35.97C45.4721 35.7033 45.5988 35.3167 45.5988 34.81V33.87C45.4588 34.19 45.2354 34.44 44.9288 34.62C44.6288 34.8 44.2854 34.89 43.8988 34.89C43.4454 34.89 43.0554 34.79 42.7288 34.59C42.4088 34.3833 42.1588 34.1 41.9788 33.74C41.8054 33.3733 41.7188 32.95 41.7188 32.47C41.7188 31.99 41.8054 31.57 41.9788 31.21C42.1588 30.85 42.4088 30.57 42.7288 30.37C43.0554 30.1633 43.4454 30.06 43.8988 30.06C44.2854 30.06 44.6288 30.15 44.9288 30.33C45.2288 30.51 45.4488 30.7567 45.5888 31.07V30.15H46.1888V34.72C46.1888 36.16 45.5021 36.88 44.1288 36.88ZM43.9688 34.37C44.4688 34.37 44.8654 34.2 45.1588 33.86C45.4521 33.5133 45.5988 33.05 45.5988 32.47C45.5988 31.89 45.4521 31.43 45.1588 31.09C44.8654 30.75 44.4688 30.58 43.9688 30.58C43.4621 30.58 43.0621 30.75 42.7688 31.09C42.4821 31.43 42.3388 31.89 42.3388 32.47C42.3388 33.05 42.4821 33.5133 42.7688 33.86C43.0621 34.2 43.4621 34.37 43.9688 34.37Z" fill="black"/>
<path d="M16 17H20" stroke="black" stroke-width="1.1" stroke-linecap="round"/>
<path d="M25 14L29 10" stroke="black" stroke-width="1.1" stroke-linecap="round"/>
<path d="M23 14L27 10" stroke="black" stroke-width="1.1" stroke-linecap="round"/>
</svg>
