<svg width="34" height="44" viewBox="0 0 34 44" fill="none" xmlns="http://www.w3.org/2000/svg">
<path d="M0.67625 37L3.74625 29.95H4.29625L7.35625 37H6.71625L5.90625 35.12H2.12625L1.32625 37H0.67625ZM4.00625 30.71L2.35625 34.59H5.67625L4.02625 30.71H4.00625ZM8.42305 37V32.15H9.02305V33.02C9.18305 32.7 9.41305 32.46 9.71305 32.3C10.013 32.14 10.3464 32.06 10.713 32.06C11.8664 32.06 12.443 32.6867 12.443 33.94V37H11.833V33.99C11.833 33.51 11.7364 33.1567 11.543 32.93C11.3497 32.7033 11.043 32.59 10.623 32.59C10.143 32.59 9.75638 32.74 9.46305 33.04C9.17638 33.3333 9.03305 33.73 9.03305 34.23V37H8.42305ZM14.0188 37V29.95H14.6288V34.35H14.6488L17.0388 32.15H17.8488L15.2988 34.49L18.0888 37H17.2788L14.6488 34.67H14.6288V37H14.0188ZM20.2725 37.08C19.8192 37.08 19.4692 36.9433 19.2225 36.67C18.9825 36.39 18.8625 35.99 18.8625 35.47V29.95H19.4725V35.4C19.4725 36.1667 19.7725 36.55 20.3725 36.55C20.5392 36.55 20.6925 36.53 20.8325 36.49L20.8125 37.02C20.6192 37.06 20.4392 37.08 20.2725 37.08ZM23.7752 37.08C23.0286 37.08 22.4386 36.86 22.0052 36.42C21.5786 35.9733 21.3652 35.3633 21.3652 34.59C21.3652 34.09 21.4619 33.65 21.6552 33.27C21.8486 32.89 22.1152 32.5933 22.4552 32.38C22.8019 32.1667 23.1986 32.06 23.6452 32.06C24.2919 32.06 24.7952 32.27 25.1552 32.69C25.5152 33.11 25.6952 33.6867 25.6952 34.42V34.7H21.9652C21.9852 35.3 22.1486 35.7633 22.4552 36.09C22.7686 36.41 23.2019 36.57 23.7552 36.57C24.0552 36.57 24.3352 36.5233 24.5952 36.43C24.8619 36.3367 25.1219 36.18 25.3752 35.96L25.6152 36.42C25.4019 36.6267 25.1286 36.79 24.7952 36.91C24.4619 37.0233 24.1219 37.08 23.7752 37.08ZM23.6552 32.55C23.1486 32.55 22.7519 32.71 22.4652 33.03C22.1852 33.3433 22.0219 33.75 21.9752 34.25H25.1452C25.1319 33.7167 24.9986 33.3 24.7452 33C24.4919 32.7 24.1286 32.55 23.6552 32.55ZM29.5684 37V29.95H30.1784V36.45H33.8584V37H29.5684Z" fill="black"/>
<path d="M20 4.5L20 19.5" stroke="black" stroke-width="1.1" stroke-linecap="round" stroke-linejoin="round"/>
<path d="M14 12L20 12" stroke="black" stroke-width="1.1" stroke-linecap="round" stroke-linejoin="round"/>
<path d="M14 8L20 8" stroke="black" stroke-width="1.1" stroke-linecap="round" stroke-linejoin="round"/>
<path d="M14 16L20 16" stroke="black" stroke-width="1.1" stroke-linecap="round" stroke-linejoin="round"/>
</svg>
