<svg width="35" height="44" viewBox="0 0 35 44" fill="none" xmlns="http://www.w3.org/2000/svg">
<path d="M0.416484 37L3.48648 29.95H4.03648L7.09648 37H6.45648L5.64648 35.12H1.86648L1.06648 37H0.416484ZM3.74648 30.71L2.09648 34.59H5.41648L3.76648 30.71H3.74648ZM8.16328 37V32.15H8.76328V33.02C8.92328 32.7 9.15328 32.46 9.45328 32.3C9.75328 32.14 10.0866 32.06 10.4533 32.06C11.6066 32.06 12.1833 32.6867 12.1833 33.94V37H11.5733V33.99C11.5733 33.51 11.4766 33.1567 11.2833 32.93C11.0899 32.7033 10.7833 32.59 10.3633 32.59C9.88328 32.59 9.49661 32.74 9.20328 33.04C8.91661 33.3333 8.77328 33.73 8.77328 34.23V37H8.16328ZM13.759 37V29.95H14.369V34.35H14.389L16.779 32.15H17.589L15.039 34.49L17.829 37H17.019L14.389 34.67H14.369V37H13.759ZM20.0127 37.08C19.5594 37.08 19.2094 36.9433 18.9627 36.67C18.7227 36.39 18.6027 35.99 18.6027 35.47V29.95H19.2127V35.4C19.2127 36.1667 19.5127 36.55 20.1127 36.55C20.2794 36.55 20.4327 36.53 20.5727 36.49L20.5527 37.02C20.3594 37.06 20.1794 37.08 20.0127 37.08ZM23.5155 37.08C22.7688 37.08 22.1788 36.86 21.7455 36.42C21.3188 35.9733 21.1055 35.3633 21.1055 34.59C21.1055 34.09 21.2021 33.65 21.3955 33.27C21.5888 32.89 21.8555 32.5933 22.1955 32.38C22.5421 32.1667 22.9388 32.06 23.3855 32.06C24.0321 32.06 24.5355 32.27 24.8955 32.69C25.2555 33.11 25.4355 33.6867 25.4355 34.42V34.7H21.7055C21.7255 35.3 21.8888 35.7633 22.1955 36.09C22.5088 36.41 22.9421 36.57 23.4955 36.57C23.7955 36.57 24.0755 36.5233 24.3355 36.43C24.6021 36.3367 24.8621 36.18 25.1155 35.96L25.3555 36.42C25.1421 36.6267 24.8688 36.79 24.5355 36.91C24.2021 37.0233 23.8621 37.08 23.5155 37.08ZM23.3955 32.55C22.8888 32.55 22.4921 32.71 22.2055 33.03C21.9255 33.3433 21.7621 33.75 21.7155 34.25H24.8855C24.8721 33.7167 24.7388 33.3 24.4855 33C24.2321 32.7 23.8688 32.55 23.3955 32.55ZM29.3087 37V29.95H31.9687C32.722 29.95 33.2953 30.1233 33.6887 30.47C34.0887 30.8167 34.2887 31.31 34.2887 31.95C34.2887 32.4767 34.1453 32.9033 33.8587 33.23C33.572 33.5567 33.1653 33.7667 32.6387 33.86C32.9253 33.9667 33.1787 34.2267 33.3987 34.64L34.6787 37H34.0087L32.7887 34.74C32.6153 34.4267 32.422 34.2167 32.2087 34.11C31.9953 34.0033 31.7087 33.95 31.3487 33.95H29.9187V37H29.3087ZM29.9187 33.43H31.8887C33.0753 33.43 33.6687 32.9367 33.6687 31.95C33.6687 30.97 33.0753 30.48 31.8887 30.48H29.9187V33.43Z" fill="black"/>
<path d="M14 4.5L14 19.5" stroke="black" stroke-width="1.1" stroke-linecap="round" stroke-linejoin="round"/>
<path d="M20 12L14 12" stroke="black" stroke-width="1.1" stroke-linecap="round" stroke-linejoin="round"/>
<path d="M20 8L14 8" stroke="black" stroke-width="1.1" stroke-linecap="round" stroke-linejoin="round"/>
<path d="M20 16L14 16" stroke="black" stroke-width="1.1" stroke-linecap="round" stroke-linejoin="round"/>
</svg>
