<svg width="35" height="43" viewBox="0 0 35 43" fill="none" xmlns="http://www.w3.org/2000/svg">
<path d="M0.953594 36L4.02359 28.95H4.57359L7.63359 36H6.99359L6.18359 34.12H2.40359L1.60359 36H0.953594ZM4.28359 29.71L2.63359 33.59H5.95359L4.30359 29.71H4.28359ZM8.70039 36V31.15H9.30039V32.03C9.44039 31.7233 9.64372 31.49 9.91039 31.33C10.1771 31.17 10.5171 31.0767 10.9304 31.05L11.1804 31.03L11.2404 31.56L10.8104 31.61C10.3371 31.65 9.97039 31.8067 9.71039 32.08C9.45039 32.3467 9.32039 32.7067 9.32039 33.16V36H8.70039ZM14.0398 36.08C13.5664 36.08 13.1598 35.9767 12.8198 35.77C12.4798 35.5567 12.2164 35.26 12.0298 34.88C11.8498 34.4933 11.7598 34.0467 11.7598 33.54C11.7598 32.7733 11.9598 32.17 12.3598 31.73C12.7664 31.2833 13.3264 31.06 14.0398 31.06C14.3331 31.06 14.6231 31.1167 14.9098 31.23C15.1964 31.3433 15.4364 31.5 15.6298 31.7L15.3898 32.16C15.1831 31.96 14.9631 31.8167 14.7298 31.73C14.4964 31.6367 14.2731 31.59 14.0598 31.59C13.5198 31.59 13.1031 31.76 12.8098 32.1C12.5231 32.44 12.3798 32.9233 12.3798 33.55C12.3798 34.1767 12.5231 34.67 12.8098 35.03C13.1031 35.3833 13.5198 35.56 14.0598 35.56C14.2731 35.56 14.4964 35.5167 14.7298 35.43C14.9631 35.3367 15.1831 35.19 15.3898 34.99L15.6298 35.45C15.4364 35.6433 15.1931 35.7967 14.8998 35.91C14.6131 36.0233 14.3264 36.08 14.0398 36.08ZM16.492 33.6V33.08H19.212V33.6H16.492ZM22.1612 36.08C21.7078 36.08 21.3578 35.9433 21.1112 35.67C20.8712 35.39 20.7512 34.99 20.7512 34.47V28.95H21.3612V34.4C21.3612 35.1667 21.6612 35.55 22.2612 35.55C22.4278 35.55 22.5812 35.53 22.7212 35.49L22.7012 36.02C22.5078 36.06 22.3278 36.08 22.1612 36.08ZM23.5027 29.87V29.1H24.3227V29.87H23.5027ZM23.6027 36V31.15H24.2127V36H23.6027ZM25.8195 36V28.95H26.4295V33.35H26.4495L28.8395 31.15H29.6495L27.0995 33.49L29.8895 36H29.0795L26.4495 33.67H26.4295V36H25.8195ZM32.6366 36.08C31.8899 36.08 31.2999 35.86 30.8666 35.42C30.4399 34.9733 30.2266 34.3633 30.2266 33.59C30.2266 33.09 30.3232 32.65 30.5166 32.27C30.7099 31.89 30.9766 31.5933 31.3166 31.38C31.6632 31.1667 32.0599 31.06 32.5066 31.06C33.1532 31.06 33.6566 31.27 34.0166 31.69C34.3766 32.11 34.5566 32.6867 34.5566 33.42V33.7H30.8266C30.8466 34.3 31.0099 34.7633 31.3166 35.09C31.6299 35.41 32.0632 35.57 32.6166 35.57C32.9166 35.57 33.1966 35.5233 33.4566 35.43C33.7232 35.3367 33.9832 35.18 34.2366 34.96L34.4766 35.42C34.2632 35.6267 33.9899 35.79 33.6566 35.91C33.3232 36.0233 32.9832 36.08 32.6366 36.08ZM32.5166 31.55C32.0099 31.55 31.6132 31.71 31.3266 32.03C31.0466 32.3433 30.8832 32.75 30.8366 33.25H34.0066C33.9932 32.7167 33.8599 32.3 33.6066 32C33.3532 31.7 32.9899 31.55 32.5166 31.55Z" fill="black"/>
<path d="M20.71 7.30154C17.9738 14.8191 17.2898 16.6985 17.2898 16.6985" stroke="black" stroke-width="1.1" stroke-linecap="round" stroke-linejoin="round"/>
<path d="M16.71 7.30154C13.9738 14.8191 13.2898 16.6985 13.2898 16.6985" stroke="black" stroke-width="1.1" stroke-linecap="round" stroke-linejoin="round"/>
<path d="M7.5 12L26.5 12C26.7761 12 27.0022 11.7757 26.9791 11.5005C26.8263 9.67687 25.8332 7.95831 24 7.5" stroke="black" stroke-width="1.1" stroke-linecap="round" stroke-linejoin="round"/>
</svg>
