<svg width="31" height="39" viewBox="0 0 31 39" fill="none" xmlns="http://www.w3.org/2000/svg">
<path d="M0.859844 32L3.92984 24.95H4.47984L7.53984 32H6.89984L6.08984 30.12H2.30984L1.50984 32H0.859844ZM4.18984 25.71L2.53984 29.59H5.85984L4.20984 25.71H4.18984ZM9.62297 32L7.86297 27.15H8.51297L9.94297 31.28L11.433 27.15H12.033L13.493 31.29L14.953 27.15H15.583L13.813 32H13.183L11.723 27.94L10.253 32H9.62297ZM18.0949 32.08C17.7683 32.08 17.4749 32.0167 17.2149 31.89C16.9616 31.7633 16.7583 31.59 16.6049 31.37C16.4583 31.15 16.3849 30.9033 16.3849 30.63C16.3849 30.27 16.4749 29.99 16.6549 29.79C16.8349 29.5833 17.1383 29.4367 17.5649 29.35C17.9916 29.2633 18.5783 29.22 19.3249 29.22H19.6349V28.86C19.6349 28.4133 19.5449 28.09 19.3649 27.89C19.1849 27.6833 18.8983 27.58 18.5049 27.58C18.2116 27.58 17.9283 27.6233 17.6549 27.71C17.3883 27.7967 17.1116 27.9333 16.8249 28.12L16.5849 27.65C16.8383 27.47 17.1383 27.3267 17.4849 27.22C17.8316 27.1133 18.1683 27.06 18.4949 27.06C19.0816 27.06 19.5149 27.21 19.7949 27.51C20.0816 27.81 20.2249 28.27 20.2249 28.89V32H19.6449V31.13C19.5116 31.43 19.3083 31.6633 19.0349 31.83C18.7683 31.9967 18.4549 32.08 18.0949 32.08ZM18.1749 31.59C18.4616 31.59 18.7116 31.5233 18.9249 31.39C19.1449 31.25 19.3183 31.06 19.4449 30.82C19.5716 30.58 19.6349 30.3067 19.6349 30V29.67H19.3349C18.7349 29.67 18.2649 29.6967 17.9249 29.75C17.5916 29.8033 17.3583 29.8967 17.2249 30.03C17.0916 30.1633 17.0249 30.3467 17.0249 30.58C17.0249 30.88 17.1283 31.1233 17.3349 31.31C17.5416 31.4967 17.8216 31.59 18.1749 31.59ZM21.8195 32V24.95H22.4295V29.35H22.4495L24.8395 27.15H25.6495L23.0995 29.49L25.8895 32H25.0795L22.4495 29.67H22.4295V32H21.8195ZM28.6366 32.08C27.8899 32.08 27.2999 31.86 26.8666 31.42C26.4399 30.9733 26.2266 30.3633 26.2266 29.59C26.2266 29.09 26.3232 28.65 26.5166 28.27C26.7099 27.89 26.9766 27.5933 27.3166 27.38C27.6632 27.1667 28.0599 27.06 28.5066 27.06C29.1532 27.06 29.6566 27.27 30.0166 27.69C30.3766 28.11 30.5566 28.6867 30.5566 29.42V29.7H26.8266C26.8466 30.3 27.0099 30.7633 27.3166 31.09C27.6299 31.41 28.0632 31.57 28.6166 31.57C28.9166 31.57 29.1966 31.5233 29.4566 31.43C29.7232 31.3367 29.9832 31.18 30.2366 30.96L30.4766 31.42C30.2632 31.6267 29.9899 31.79 29.6566 31.91C29.3232 32.0233 28.9832 32.08 28.6366 32.08ZM28.5166 27.55C28.0099 27.55 27.6132 27.71 27.3266 28.03C27.0466 28.3433 26.8832 28.75 26.8366 29.25H30.0066C29.9932 28.7167 29.8599 28.3 29.6066 28C29.3532 27.7 28.9899 27.55 28.5166 27.55Z" fill="black"/>
<path d="M19 1L19 10" stroke="black" stroke-width="1.1" stroke-linecap="round"/>
<path d="M19 10H28" stroke="black" stroke-width="1.1" stroke-linecap="round"/>
<path d="M8 17H12" stroke="black" stroke-width="1.1" stroke-linecap="round"/>
<path d="M18 17H22" stroke="black" stroke-width="1.1" stroke-linecap="round"/>
<path d="M15 14L19 10" stroke="black" stroke-width="1.1" stroke-linecap="round"/>
</svg>
