<svg width="56" height="42" viewBox="0 0 56 42" fill="none" xmlns="http://www.w3.org/2000/svg">
<circle cx="31" cy="12" r="0.75" fill="black"/>
<path d="M35.5 2H26.5C26.2239 2 26 2.22386 26 2.5V11.887C26 11.9614 26.0166 12.0348 26.0486 12.102L30.5486 21.552C30.7295 21.932 31.2705 21.932 31.4514 21.552L35.9514 12.102C35.9834 12.0348 36 11.9614 36 11.887V2.5C36 2.22386 35.7761 2 35.5 2Z" stroke="black" stroke-width="1.1" stroke-linecap="round" stroke-linejoin="round"/>
<path d="M1.39266 35V27.95H4.08266C4.80266 27.95 5.35932 28.11 5.75266 28.43C6.15266 28.75 6.35266 29.2067 6.35266 29.8C6.35266 30.1867 6.24932 30.5167 6.04266 30.79C5.83599 31.0633 5.55599 31.2633 5.20266 31.39C5.60932 31.49 5.92932 31.6867 6.16266 31.98C6.39599 32.2667 6.51266 32.6333 6.51266 33.08C6.51266 33.7067 6.31266 34.1833 5.91266 34.51C5.51266 34.8367 4.94599 35 4.21266 35H1.39266ZM1.99266 31.17H4.01266C4.57266 31.17 4.99932 31.0567 5.29266 30.83C5.58599 30.5967 5.73266 30.26 5.73266 29.82C5.73266 29.38 5.58599 29.0467 5.29266 28.82C4.99932 28.5867 4.57266 28.47 4.01266 28.47H1.99266V31.17ZM1.99266 34.48H4.16266C5.31599 34.48 5.89266 34.0167 5.89266 33.09C5.89266 32.61 5.74932 32.2567 5.46266 32.03C5.17599 31.8033 4.74266 31.69 4.16266 31.69H1.99266V34.48ZM9.48164 35.08C9.15497 35.08 8.86164 35.0167 8.60164 34.89C8.34831 34.7633 8.14497 34.59 7.99164 34.37C7.84497 34.15 7.77164 33.9033 7.77164 33.63C7.77164 33.27 7.86164 32.99 8.04164 32.79C8.22164 32.5833 8.52497 32.4367 8.95164 32.35C9.37831 32.2633 9.96497 32.22 10.7116 32.22H11.0216V31.86C11.0216 31.4133 10.9316 31.09 10.7516 30.89C10.5716 30.6833 10.285 30.58 9.89164 30.58C9.59831 30.58 9.31497 30.6233 9.04164 30.71C8.77497 30.7967 8.49831 30.9333 8.21164 31.12L7.97164 30.65C8.22497 30.47 8.52497 30.3267 8.87164 30.22C9.21831 30.1133 9.55497 30.06 9.88164 30.06C10.4683 30.06 10.9016 30.21 11.1816 30.51C11.4683 30.81 11.6116 31.27 11.6116 31.89V35H11.0316V34.13C10.8983 34.43 10.695 34.6633 10.4216 34.83C10.155 34.9967 9.84164 35.08 9.48164 35.08ZM9.56164 34.59C9.84831 34.59 10.0983 34.5233 10.3116 34.39C10.5316 34.25 10.705 34.06 10.8316 33.82C10.9583 33.58 11.0216 33.3067 11.0216 33V32.67H10.7216C10.1216 32.67 9.65164 32.6967 9.31164 32.75C8.97831 32.8033 8.74497 32.8967 8.61164 33.03C8.47831 33.1633 8.41164 33.3467 8.41164 33.58C8.41164 33.88 8.51497 34.1233 8.72164 34.31C8.92831 34.4967 9.20831 34.59 9.56164 34.59ZM15.1863 35.08C14.7129 35.08 14.3063 34.9767 13.9663 34.77C13.6263 34.5567 13.3629 34.26 13.1763 33.88C12.9963 33.4933 12.9063 33.0467 12.9063 32.54C12.9063 31.7733 13.1063 31.17 13.5063 30.73C13.9129 30.2833 14.4729 30.06 15.1863 30.06C15.4796 30.06 15.7696 30.1167 16.0563 30.23C16.3429 30.3433 16.5829 30.5 16.7763 30.7L16.5363 31.16C16.3296 30.96 16.1096 30.8167 15.8763 30.73C15.6429 30.6367 15.4196 30.59 15.2063 30.59C14.6663 30.59 14.2496 30.76 13.9563 31.1C13.6696 31.44 13.5263 31.9233 13.5263 32.55C13.5263 33.1767 13.6696 33.67 13.9563 34.03C14.2496 34.3833 14.6663 34.56 15.2063 34.56C15.4196 34.56 15.6429 34.5167 15.8763 34.43C16.1096 34.3367 16.3296 34.19 16.5363 33.99L16.7763 34.45C16.5829 34.6433 16.3396 34.7967 16.0463 34.91C15.7596 35.0233 15.4729 35.08 15.1863 35.08ZM17.7961 35V27.95H18.4061V32.35H18.4261L20.8161 30.15H21.6261L19.0761 32.49L21.8661 35H21.0561L18.4261 32.67H18.4061V35H17.7961ZM22.2771 32.6V32.08H24.9971V32.6H22.2771ZM26.5563 35V30.15H27.1563V31C27.4563 30.3733 27.9663 30.06 28.6863 30.06C29.4597 30.06 29.9497 30.3967 30.1563 31.07C30.2963 30.7567 30.5097 30.51 30.7963 30.33C31.083 30.15 31.4163 30.06 31.7963 30.06C32.8697 30.06 33.4063 30.6867 33.4063 31.94V35H32.7963V31.99C32.7963 31.51 32.7097 31.1567 32.5363 30.93C32.3697 30.7033 32.0863 30.59 31.6863 30.59C31.2597 30.59 30.9197 30.74 30.6663 31.04C30.413 31.3333 30.2863 31.7333 30.2863 32.24V35H29.6763V31.99C29.6763 31.51 29.5897 31.1567 29.4163 30.93C29.2497 30.7033 28.9697 30.59 28.5763 30.59C28.143 30.59 27.7997 30.74 27.5463 31.04C27.293 31.3333 27.1663 31.7333 27.1663 32.24V35H26.5563ZM34.9031 28.87V28.1H35.7231V28.87H34.9031ZM35.0031 35V30.15H35.6131V35H35.0031ZM39.0699 35.08C38.6299 35.08 38.2499 34.98 37.9299 34.78C37.6099 34.5733 37.3599 34.2833 37.1799 33.91C37.0066 33.53 36.9199 33.0833 36.9199 32.57C36.9199 31.8033 37.1133 31.1933 37.4999 30.74C37.8866 30.2867 38.4099 30.06 39.0699 30.06C39.4566 30.06 39.7966 30.15 40.0899 30.33C40.3899 30.5033 40.6133 30.7433 40.7599 31.05V27.95H41.3699V35H40.7699V34.08C40.6233 34.3933 40.3999 34.64 40.0999 34.82C39.8066 34.9933 39.4633 35.08 39.0699 35.08ZM39.1499 34.57C39.6433 34.57 40.0366 34.3967 40.3299 34.05C40.6233 33.6967 40.7699 33.2033 40.7699 32.57C40.7699 31.9367 40.6233 31.4467 40.3299 31.1C40.0366 30.7533 39.6433 30.58 39.1499 30.58C38.6566 30.58 38.2633 30.7533 37.9699 31.1C37.6833 31.4467 37.5399 31.9367 37.5399 32.57C37.5399 33.2033 37.6833 33.6967 37.9699 34.05C38.2633 34.3967 38.6566 34.57 39.1499 34.57ZM44.8219 35.08C44.3819 35.08 44.0019 34.98 43.6819 34.78C43.3619 34.5733 43.1119 34.2833 42.9319 33.91C42.7585 33.53 42.6719 33.0833 42.6719 32.57C42.6719 31.8033 42.8652 31.1933 43.2519 30.74C43.6385 30.2867 44.1619 30.06 44.8219 30.06C45.2085 30.06 45.5485 30.15 45.8419 30.33C46.1419 30.5033 46.3652 30.7433 46.5119 31.05V27.95H47.1219V35H46.5219V34.08C46.3752 34.3933 46.1519 34.64 45.8519 34.82C45.5585 34.9933 45.2152 35.08 44.8219 35.08ZM44.9019 34.57C45.3952 34.57 45.7885 34.3967 46.0819 34.05C46.3752 33.6967 46.5219 33.2033 46.5219 32.57C46.5219 31.9367 46.3752 31.4467 46.0819 31.1C45.7885 30.7533 45.3952 30.58 44.9019 30.58C44.4085 30.58 44.0152 30.7533 43.7219 31.1C43.4352 31.4467 43.2919 31.9367 43.2919 32.57C43.2919 33.2033 43.4352 33.6967 43.7219 34.05C44.0152 34.3967 44.4085 34.57 44.9019 34.57ZM50.1338 35.08C49.6805 35.08 49.3305 34.9433 49.0838 34.67C48.8438 34.39 48.7238 33.99 48.7238 33.47V27.95H49.3338V33.4C49.3338 34.1667 49.6338 34.55 50.2338 34.55C50.4005 34.55 50.5538 34.53 50.6938 34.49L50.6738 35.02C50.4805 35.06 50.3005 35.08 50.1338 35.08ZM53.6366 35.08C52.8899 35.08 52.2999 34.86 51.8666 34.42C51.4399 33.9733 51.2266 33.3633 51.2266 32.59C51.2266 32.09 51.3232 31.65 51.5166 31.27C51.7099 30.89 51.9766 30.5933 52.3166 30.38C52.6632 30.1667 53.0599 30.06 53.5066 30.06C54.1532 30.06 54.6566 30.27 55.0166 30.69C55.3766 31.11 55.5566 31.6867 55.5566 32.42V32.7H51.8266C51.8466 33.3 52.0099 33.7633 52.3166 34.09C52.6299 34.41 53.0632 34.57 53.6166 34.57C53.9166 34.57 54.1966 34.5233 54.4566 34.43C54.7232 34.3367 54.9832 34.18 55.2366 33.96L55.4766 34.42C55.2632 34.6267 54.9899 34.79 54.6566 34.91C54.3232 35.0233 53.9832 35.08 53.6366 35.08ZM53.5166 30.55C53.0099 30.55 52.6132 30.71 52.3266 31.03C52.0466 31.3433 51.8832 31.75 51.8366 32.25H55.0066C54.9932 31.7167 54.8599 31.3 54.6066 31C54.3532 30.7 53.9899 30.55 53.5166 30.55Z" fill="black"/>
</svg>
