<svg width="42" height="42" viewBox="0 0 42 42" fill="none" xmlns="http://www.w3.org/2000/svg">
<path d="M25.5 2H16.5C16.2239 2 16 2.22386 16 2.5V11.887C16 11.9614 16.0166 12.0348 16.0486 12.102L20.5486 21.552C20.7295 21.932 21.2705 21.932 21.4514 21.552L25.9514 12.102C25.9834 12.0348 26 11.9614 26 11.887V2.5C26 2.22386 25.7761 2 25.5 2Z" fill="black" stroke="black" stroke-width="1.1" stroke-linecap="round" stroke-linejoin="round"/>
<path d="M1.09383 35V27.95H3.78383C4.50383 27.95 5.06049 28.11 5.45383 28.43C5.85383 28.75 6.05383 29.2067 6.05383 29.8C6.05383 30.1867 5.95049 30.5167 5.74383 30.79C5.53716 31.0633 5.25716 31.2633 4.90383 31.39C5.3105 31.49 5.6305 31.6867 5.86383 31.98C6.09716 32.2667 6.21383 32.6333 6.21383 33.08C6.21383 33.7067 6.01383 34.1833 5.61383 34.51C5.21383 34.8367 4.64716 35 3.91383 35H1.09383ZM1.69383 31.17H3.71383C4.27383 31.17 4.7005 31.0567 4.99383 30.83C5.28716 30.5967 5.43383 30.26 5.43383 29.82C5.43383 29.38 5.28716 29.0467 4.99383 28.82C4.7005 28.5867 4.27383 28.47 3.71383 28.47H1.69383V31.17ZM1.69383 34.48H3.86383C5.01716 34.48 5.59383 34.0167 5.59383 33.09C5.59383 32.61 5.4505 32.2567 5.16383 32.03C4.87716 31.8033 4.44383 31.69 3.86383 31.69H1.69383V34.48ZM9.18281 35.08C8.85615 35.08 8.56281 35.0167 8.30281 34.89C8.04948 34.7633 7.84615 34.59 7.69281 34.37C7.54615 34.15 7.47281 33.9033 7.47281 33.63C7.47281 33.27 7.56281 32.99 7.74281 32.79C7.92281 32.5833 8.22615 32.4367 8.65281 32.35C9.07948 32.2633 9.66615 32.22 10.4128 32.22H10.7228V31.86C10.7228 31.4133 10.6328 31.09 10.4528 30.89C10.2728 30.6833 9.98615 30.58 9.59281 30.58C9.29948 30.58 9.01615 30.6233 8.74281 30.71C8.47615 30.7967 8.19948 30.9333 7.91281 31.12L7.67281 30.65C7.92615 30.47 8.22615 30.3267 8.57281 30.22C8.91948 30.1133 9.25615 30.06 9.58281 30.06C10.1695 30.06 10.6028 30.21 10.8828 30.51C11.1695 30.81 11.3128 31.27 11.3128 31.89V35H10.7328V34.13C10.5995 34.43 10.3961 34.6633 10.1228 34.83C9.85615 34.9967 9.54281 35.08 9.18281 35.08ZM9.26281 34.59C9.54948 34.59 9.79948 34.5233 10.0128 34.39C10.2328 34.25 10.4061 34.06 10.5328 33.82C10.6595 33.58 10.7228 33.3067 10.7228 33V32.67H10.4228C9.82281 32.67 9.35281 32.6967 9.01281 32.75C8.67948 32.8033 8.44615 32.8967 8.31281 33.03C8.17948 33.1633 8.11281 33.3467 8.11281 33.58C8.11281 33.88 8.21615 34.1233 8.42281 34.31C8.62948 34.4967 8.90948 34.59 9.26281 34.59ZM14.8874 35.08C14.4141 35.08 14.0074 34.9767 13.6674 34.77C13.3274 34.5567 13.0641 34.26 12.8774 33.88C12.6974 33.4933 12.6074 33.0467 12.6074 32.54C12.6074 31.7733 12.8074 31.17 13.2074 30.73C13.6141 30.2833 14.1741 30.06 14.8874 30.06C15.1808 30.06 15.4708 30.1167 15.7574 30.23C16.0441 30.3433 16.2841 30.5 16.4774 30.7L16.2374 31.16C16.0308 30.96 15.8108 30.8167 15.5774 30.73C15.3441 30.6367 15.1208 30.59 14.9074 30.59C14.3674 30.59 13.9508 30.76 13.6574 31.1C13.3708 31.44 13.2274 31.9233 13.2274 32.55C13.2274 33.1767 13.3708 33.67 13.6574 34.03C13.9508 34.3833 14.3674 34.56 14.9074 34.56C15.1208 34.56 15.3441 34.5167 15.5774 34.43C15.8108 34.3367 16.0308 34.19 16.2374 33.99L16.4774 34.45C16.2841 34.6433 16.0408 34.7967 15.7474 34.91C15.4608 35.0233 15.1741 35.08 14.8874 35.08ZM17.4973 35V27.95H18.1073V32.35H18.1273L20.5173 30.15H21.3273L18.7773 32.49L21.5673 35H20.7573L18.1273 32.67H18.1073V35H17.4973ZM21.9783 32.6V32.08H24.6983V32.6H21.9783ZM27.6475 35.08C27.1942 35.08 26.8442 34.9433 26.5975 34.67C26.3575 34.39 26.2375 33.99 26.2375 33.47V27.95H26.8475V33.4C26.8475 34.1667 27.1475 34.55 27.7475 34.55C27.9142 34.55 28.0675 34.53 28.2075 34.49L28.1875 35.02C27.9942 35.06 27.8142 35.08 27.6475 35.08ZM30.9702 35.08C30.5169 35.08 30.1236 34.98 29.7902 34.78C29.4569 34.5733 29.1969 34.2833 29.0102 33.91C28.8302 33.53 28.7402 33.0833 28.7402 32.57C28.7402 32.0633 28.8302 31.6233 29.0102 31.25C29.1969 30.87 29.4569 30.5767 29.7902 30.37C30.1236 30.1633 30.5169 30.06 30.9702 30.06C31.4302 30.06 31.8269 30.1633 32.1602 30.37C32.4936 30.5767 32.7502 30.87 32.9302 31.25C33.1169 31.6233 33.2102 32.0633 33.2102 32.57C33.2102 33.0833 33.1169 33.53 32.9302 33.91C32.7502 34.2833 32.4936 34.5733 32.1602 34.78C31.8269 34.98 31.4302 35.08 30.9702 35.08ZM30.9702 34.57C31.4636 34.57 31.8569 34.3967 32.1502 34.05C32.4436 33.6967 32.5902 33.2033 32.5902 32.57C32.5902 31.9367 32.4436 31.4467 32.1502 31.1C31.8569 30.7533 31.4636 30.58 30.9702 30.58C30.4769 30.58 30.0836 30.7533 29.7902 31.1C29.5036 31.4467 29.3602 31.9367 29.3602 32.57C29.3602 33.2033 29.5036 33.6967 29.7902 34.05C30.0836 34.3967 30.4769 34.57 30.9702 34.57ZM35.7304 35L33.9704 30.15H34.6204L36.0504 34.28L37.5404 30.15H38.1404L39.6004 34.29L41.0604 30.15H41.6904L39.9204 35H39.2904L37.8304 30.94L36.3604 35H35.7304Z" fill="black"/>
</svg>
