<svg width="33" height="44" viewBox="0 0 33 44" fill="none" xmlns="http://www.w3.org/2000/svg">
<path d="M4.84828 37.08C4.17495 37.08 3.59828 36.9367 3.11828 36.65C2.63828 36.3567 2.26828 35.94 2.00828 35.4C1.75495 34.86 1.62828 34.2167 1.62828 33.47C1.62828 32.73 1.75495 32.09 2.00828 31.55C2.26828 31.01 2.63828 30.5967 3.11828 30.31C3.59828 30.0167 4.17495 29.87 4.84828 29.87C5.33495 29.87 5.78161 29.95 6.18828 30.11C6.60161 30.2633 6.95161 30.49 7.23828 30.79L6.96828 31.3C6.65495 30.9933 6.32828 30.7733 5.98828 30.64C5.65495 30.5067 5.27828 30.44 4.85828 30.44C4.03161 30.44 3.39495 30.7067 2.94828 31.24C2.50828 31.7667 2.28828 32.51 2.28828 33.47C2.28828 34.4367 2.50828 35.1867 2.94828 35.72C3.39495 36.2467 4.03161 36.51 4.85828 36.51C5.27828 36.51 5.65495 36.4433 5.98828 36.31C6.32828 36.1767 6.65495 35.9567 6.96828 35.65L7.23828 36.16C6.95161 36.46 6.60161 36.69 6.18828 36.85C5.78161 37.0033 5.33495 37.08 4.84828 37.08ZM10.2459 37.08C9.49927 37.08 8.90927 36.86 8.47594 36.42C8.04927 35.9733 7.83594 35.3633 7.83594 34.59C7.83594 34.09 7.9326 33.65 8.12594 33.27C8.31927 32.89 8.58594 32.5933 8.92594 32.38C9.2726 32.1667 9.66927 32.06 10.1159 32.06C10.7626 32.06 11.2659 32.27 11.6259 32.69C11.9859 33.11 12.1659 33.6867 12.1659 34.42V34.7H8.43594C8.45594 35.3 8.61927 35.7633 8.92594 36.09C9.23927 36.41 9.6726 36.57 10.2259 36.57C10.5259 36.57 10.8059 36.5233 11.0659 36.43C11.3326 36.3367 11.5926 36.18 11.8459 35.96L12.0859 36.42C11.8726 36.6267 11.5993 36.79 11.2659 36.91C10.9326 37.0233 10.5926 37.08 10.2459 37.08ZM10.1259 32.55C9.61927 32.55 9.2226 32.71 8.93594 33.03C8.65594 33.3433 8.4926 33.75 8.44594 34.25H11.6159C11.6026 33.7167 11.4693 33.3 11.2159 33C10.9626 32.7 10.5993 32.55 10.1259 32.55ZM13.4094 37V32.15H14.0094V33.02C14.1694 32.7 14.3994 32.46 14.6994 32.3C14.9994 32.14 15.3327 32.06 15.6994 32.06C16.8527 32.06 17.4294 32.6867 17.4294 33.94V37H16.8194V33.99C16.8194 33.51 16.7227 33.1567 16.5294 32.93C16.336 32.7033 16.0294 32.59 15.6094 32.59C15.1294 32.59 14.7427 32.74 14.4494 33.04C14.1627 33.3333 14.0194 33.73 14.0194 34.23V37H13.4094ZM20.8351 37.08C20.2951 37.08 19.8884 36.9333 19.6151 36.64C19.3484 36.3467 19.2151 35.9267 19.2151 35.38V32.64H18.2551V32.15H19.2151V30.65H19.8251V32.15H21.3951V32.64H19.8251V35.3C19.8251 35.7067 19.9084 36.0167 20.0751 36.23C20.2417 36.4433 20.5184 36.55 20.9051 36.55C21.0184 36.55 21.1284 36.5367 21.2351 36.51C21.3417 36.4833 21.4351 36.4533 21.5151 36.42L21.6351 36.9C21.5617 36.9467 21.4451 36.9867 21.2851 37.02C21.1251 37.06 20.9751 37.08 20.8351 37.08ZM22.3547 37V32.15H22.9547V33.03C23.0947 32.7233 23.298 32.49 23.5647 32.33C23.8314 32.17 24.1714 32.0767 24.5847 32.05L24.8347 32.03L24.8947 32.56L24.4647 32.61C23.9914 32.65 23.6247 32.8067 23.3647 33.08C23.1047 33.3467 22.9747 33.7067 22.9747 34.16V37H22.3547ZM27.2238 37.08C26.8972 37.08 26.6038 37.0167 26.3438 36.89C26.0905 36.7633 25.8872 36.59 25.7338 36.37C25.5872 36.15 25.5138 35.9033 25.5138 35.63C25.5138 35.27 25.6038 34.99 25.7838 34.79C25.9638 34.5833 26.2672 34.4367 26.6938 34.35C27.1205 34.2633 27.7072 34.22 28.4538 34.22H28.7638V33.86C28.7638 33.4133 28.6738 33.09 28.4938 32.89C28.3138 32.6833 28.0272 32.58 27.6338 32.58C27.3405 32.58 27.0572 32.6233 26.7838 32.71C26.5172 32.7967 26.2405 32.9333 25.9538 33.12L25.7138 32.65C25.9672 32.47 26.2672 32.3267 26.6138 32.22C26.9605 32.1133 27.2972 32.06 27.6238 32.06C28.2105 32.06 28.6438 32.21 28.9238 32.51C29.2105 32.81 29.3538 33.27 29.3538 33.89V37H28.7738V36.13C28.6405 36.43 28.4372 36.6633 28.1638 36.83C27.8972 36.9967 27.5838 37.08 27.2238 37.08ZM27.3038 36.59C27.5905 36.59 27.8405 36.5233 28.0538 36.39C28.2738 36.25 28.4472 36.06 28.5738 35.82C28.7005 35.58 28.7638 35.3067 28.7638 35V34.67H28.4638C27.8638 34.67 27.3938 34.6967 27.0538 34.75C26.7205 34.8033 26.4872 34.8967 26.3538 35.03C26.2205 35.1633 26.1538 35.3467 26.1538 35.58C26.1538 35.88 26.2572 36.1233 26.4638 36.31C26.6705 36.4967 26.9505 36.59 27.3038 36.59ZM32.3584 37.08C31.9051 37.08 31.5551 36.9433 31.3084 36.67C31.0684 36.39 30.9484 35.99 30.9484 35.47V29.95H31.5584V35.4C31.5584 36.1667 31.8584 36.55 32.4584 36.55C32.6251 36.55 32.7784 36.53 32.9184 36.49L32.8984 37.02C32.7051 37.06 32.5251 37.08 32.3584 37.08Z" fill="black"/>
<path d="M23 9V6H20" stroke="black" stroke-width="1.1" stroke-linecap="round" stroke-linejoin="round"/>
<path d="M17 12L23 6" stroke="black" stroke-width="1.1" stroke-linecap="round" stroke-linejoin="round"/>
<circle cx="17" cy="12" r="9" stroke="black" stroke-width="1.1"/>
</svg>
