<svg width="24" height="39" viewBox="0 0 24 39" fill="none" xmlns="http://www.w3.org/2000/svg">
<path d="M6.71352 32.08C6.04018 32.08 5.46352 31.9367 4.98352 31.65C4.50352 31.3567 4.13352 30.94 3.87352 30.4C3.62018 29.86 3.49352 29.2167 3.49352 28.47C3.49352 27.73 3.62018 27.09 3.87352 26.55C4.13352 26.01 4.50352 25.5967 4.98352 25.31C5.46352 25.0167 6.04018 24.87 6.71352 24.87C7.20018 24.87 7.64685 24.95 8.05352 25.11C8.46685 25.2633 8.81685 25.49 9.10352 25.79L8.83352 26.3C8.52018 25.9933 8.19352 25.7733 7.85352 25.64C7.52018 25.5067 7.14352 25.44 6.72352 25.44C5.89685 25.44 5.26018 25.7067 4.81352 26.24C4.37352 26.7667 4.15352 27.51 4.15352 28.47C4.15352 29.4367 4.37352 30.1867 4.81352 30.72C5.26018 31.2467 5.89685 31.51 6.72352 31.51C7.14352 31.51 7.52018 31.4433 7.85352 31.31C8.19352 31.1767 8.52018 30.9567 8.83352 30.65L9.10352 31.16C8.81685 31.46 8.46685 31.69 8.05352 31.85C7.64685 32.0033 7.20018 32.08 6.71352 32.08ZM13.1279 32.08C12.4812 32.08 11.9212 31.9333 11.4479 31.64C10.9812 31.3467 10.6179 30.93 10.3579 30.39C10.1046 29.85 9.97789 29.21 9.97789 28.47C9.97789 27.73 10.1046 27.09 10.3579 26.55C10.6112 26.01 10.9746 25.5967 11.4479 25.31C11.9212 25.0167 12.4812 24.87 13.1279 24.87C13.7812 24.87 14.3412 25.0167 14.8079 25.31C15.2812 25.5967 15.6446 26.01 15.8979 26.55C16.1579 27.0833 16.2879 27.72 16.2879 28.46C16.2879 29.2067 16.1579 29.85 15.8979 30.39C15.6446 30.93 15.2812 31.3467 14.8079 31.64C14.3346 31.9333 13.7746 32.08 13.1279 32.08ZM13.1279 31.52C13.9212 31.52 14.5379 31.2533 14.9779 30.72C15.4179 30.1867 15.6379 29.4367 15.6379 28.47C15.6379 27.5033 15.4179 26.7567 14.9779 26.23C14.5446 25.6967 13.9279 25.43 13.1279 25.43C12.3346 25.43 11.7179 25.6967 11.2779 26.23C10.8446 26.7633 10.6279 27.51 10.6279 28.47C10.6279 29.43 10.8446 30.18 11.2779 30.72C11.7179 31.2533 12.3346 31.52 13.1279 31.52ZM20.0458 32.08C19.4991 32.08 19.0058 32.01 18.5658 31.87C18.1324 31.7233 17.7558 31.51 17.4358 31.23L17.6758 30.72C18.0224 30.9933 18.3758 31.1967 18.7358 31.33C19.1024 31.4567 19.5391 31.52 20.0458 31.52C20.6791 31.52 21.1524 31.3967 21.4658 31.15C21.7858 30.9033 21.9458 30.58 21.9458 30.18C21.9458 29.8467 21.8291 29.5867 21.5958 29.4C21.3691 29.2133 20.9924 29.0667 20.4658 28.96L19.4558 28.75C18.8291 28.6233 18.3591 28.41 18.0458 28.11C17.7391 27.81 17.5858 27.41 17.5858 26.91C17.5858 26.5033 17.6891 26.1467 17.8958 25.84C18.1091 25.5333 18.4024 25.2967 18.7758 25.13C19.1491 24.9567 19.5791 24.87 20.0658 24.87C21.0391 24.87 21.8158 25.1633 22.3958 25.75L22.1558 26.25C21.8491 25.9633 21.5291 25.7567 21.1958 25.63C20.8624 25.4967 20.4858 25.43 20.0658 25.43C19.5058 25.43 19.0558 25.5633 18.7158 25.83C18.3824 26.0967 18.2158 26.4533 18.2158 26.9C18.2158 27.2533 18.3224 27.5333 18.5358 27.74C18.7491 27.94 19.0924 28.0867 19.5658 28.18L20.5858 28.39C21.2591 28.53 21.7591 28.74 22.0858 29.02C22.4124 29.2933 22.5758 29.67 22.5758 30.15C22.5758 30.53 22.4724 30.8667 22.2658 31.16C22.0658 31.4467 21.7758 31.6733 21.3958 31.84C21.0158 32 20.5658 32.08 20.0458 32.08Z" fill="black"/>
<path d="M15.0769 12L8.9231 12" stroke="black" stroke-width="1.1" stroke-linecap="round" stroke-linejoin="round"/>
<path d="M8.9231 12L7.00002 15" stroke="black" stroke-width="1.1" stroke-linecap="round" stroke-linejoin="round"/>
<path d="M17 9L15.0769 12" stroke="black" stroke-width="1.1" stroke-linecap="round" stroke-linejoin="round"/>
</svg>
