<svg width="40" height="44" viewBox="0 0 40 44" fill="none" xmlns="http://www.w3.org/2000/svg">
<path d="M6.42836 37.08C5.75503 37.08 5.17836 36.9367 4.69836 36.65C4.21836 36.3567 3.84836 35.94 3.58836 35.4C3.33503 34.86 3.20836 34.2167 3.20836 33.47C3.20836 32.73 3.33503 32.09 3.58836 31.55C3.84836 31.01 4.21836 30.5967 4.69836 30.31C5.17836 30.0167 5.75503 29.87 6.42836 29.87C6.91503 29.87 7.36169 29.95 7.76836 30.11C8.18169 30.2633 8.53169 30.49 8.81836 30.79L8.54836 31.3C8.23503 30.9933 7.90836 30.7733 7.56836 30.64C7.23503 30.5067 6.85836 30.44 6.43836 30.44C5.61169 30.44 4.97503 30.7067 4.52836 31.24C4.08836 31.7667 3.86836 32.51 3.86836 33.47C3.86836 34.4367 4.08836 35.1867 4.52836 35.72C4.97503 36.2467 5.61169 36.51 6.43836 36.51C6.85836 36.51 7.23503 36.4433 7.56836 36.31C7.90836 36.1767 8.23503 35.9567 8.54836 35.65L8.81836 36.16C8.53169 36.46 8.18169 36.69 7.76836 36.85C7.36169 37.0033 6.91503 37.08 6.42836 37.08ZM11.646 37.08C11.1927 37.08 10.7993 36.98 10.466 36.78C10.1327 36.5733 9.87268 36.2833 9.68602 35.91C9.50602 35.53 9.41602 35.0833 9.41602 34.57C9.41602 34.0633 9.50602 33.6233 9.68602 33.25C9.87268 32.87 10.1327 32.5767 10.466 32.37C10.7993 32.1633 11.1927 32.06 11.646 32.06C12.106 32.06 12.5027 32.1633 12.836 32.37C13.1693 32.5767 13.426 32.87 13.606 33.25C13.7927 33.6233 13.886 34.0633 13.886 34.57C13.886 35.0833 13.7927 35.53 13.606 35.91C13.426 36.2833 13.1693 36.5733 12.836 36.78C12.5027 36.98 12.106 37.08 11.646 37.08ZM11.646 36.57C12.1393 36.57 12.5327 36.3967 12.826 36.05C13.1193 35.6967 13.266 35.2033 13.266 34.57C13.266 33.9367 13.1193 33.4467 12.826 33.1C12.5327 32.7533 12.1393 32.58 11.646 32.58C11.1527 32.58 10.7593 32.7533 10.466 33.1C10.1793 33.4467 10.036 33.9367 10.036 34.57C10.036 35.2033 10.1793 35.6967 10.466 36.05C10.7593 36.3967 11.1527 36.57 11.646 36.57ZM15.1848 37V32.15H15.7848V33.02C15.9448 32.7 16.1748 32.46 16.4748 32.3C16.7748 32.14 17.1081 32.06 17.4748 32.06C18.6281 32.06 19.2048 32.6867 19.2048 33.94V37H18.5948V33.99C18.5948 33.51 18.4981 33.1567 18.3048 32.93C18.1114 32.7033 17.8048 32.59 17.3848 32.59C16.9048 32.59 16.5181 32.74 16.2248 33.04C15.9381 33.3333 15.7948 33.73 15.7948 34.23V37H15.1848ZM22.7605 37.08C22.2871 37.08 21.8805 36.9767 21.5405 36.77C21.2005 36.5567 20.9371 36.26 20.7505 35.88C20.5705 35.4933 20.4805 35.0467 20.4805 34.54C20.4805 33.7733 20.6805 33.17 21.0805 32.73C21.4871 32.2833 22.0471 32.06 22.7605 32.06C23.0538 32.06 23.3438 32.1167 23.6305 32.23C23.9171 32.3433 24.1571 32.5 24.3505 32.7L24.1105 33.16C23.9038 32.96 23.6838 32.8167 23.4505 32.73C23.2171 32.6367 22.9938 32.59 22.7805 32.59C22.2405 32.59 21.8238 32.76 21.5305 33.1C21.2438 33.44 21.1005 33.9233 21.1005 34.55C21.1005 35.1767 21.2438 35.67 21.5305 36.03C21.8238 36.3833 22.2405 36.56 22.7805 36.56C22.9938 36.56 23.2171 36.5167 23.4505 36.43C23.6838 36.3367 23.9038 36.19 24.1105 35.99L24.3505 36.45C24.1571 36.6433 23.9138 36.7967 23.6205 36.91C23.3338 37.0233 23.0471 37.08 22.7605 37.08ZM26.8215 37.08C26.4948 37.08 26.2015 37.0167 25.9415 36.89C25.6882 36.7633 25.4848 36.59 25.3315 36.37C25.1848 36.15 25.1115 35.9033 25.1115 35.63C25.1115 35.27 25.2015 34.99 25.3815 34.79C25.5615 34.5833 25.8648 34.4367 26.2915 34.35C26.7182 34.2633 27.3048 34.22 28.0515 34.22H28.3615V33.86C28.3615 33.4133 28.2715 33.09 28.0915 32.89C27.9115 32.6833 27.6248 32.58 27.2315 32.58C26.9382 32.58 26.6548 32.6233 26.3815 32.71C26.1148 32.7967 25.8382 32.9333 25.5515 33.12L25.3115 32.65C25.5648 32.47 25.8648 32.3267 26.2115 32.22C26.5582 32.1133 26.8948 32.06 27.2215 32.06C27.8082 32.06 28.2415 32.21 28.5215 32.51C28.8082 32.81 28.9515 33.27 28.9515 33.89V37H28.3715V36.13C28.2382 36.43 28.0348 36.6633 27.7615 36.83C27.4948 36.9967 27.1815 37.08 26.8215 37.08ZM26.9015 36.59C27.1882 36.59 27.4382 36.5233 27.6515 36.39C27.8715 36.25 28.0448 36.06 28.1715 35.82C28.2982 35.58 28.3615 35.3067 28.3615 35V34.67H28.0615C27.4615 34.67 26.9915 34.6967 26.6515 34.75C26.3182 34.8033 26.0848 34.8967 25.9515 35.03C25.8182 35.1633 25.7515 35.3467 25.7515 35.58C25.7515 35.88 25.8548 36.1233 26.0615 36.31C26.2682 36.4967 26.5482 36.59 26.9015 36.59ZM31.9373 37L29.8573 32.15H30.5373L32.2473 36.33L33.9873 32.15H34.6273L32.5473 37H31.9373ZM37.6366 37.08C36.8899 37.08 36.2999 36.86 35.8666 36.42C35.4399 35.9733 35.2266 35.3633 35.2266 34.59C35.2266 34.09 35.3232 33.65 35.5166 33.27C35.7099 32.89 35.9766 32.5933 36.3166 32.38C36.6632 32.1667 37.0599 32.06 37.5066 32.06C38.1532 32.06 38.6566 32.27 39.0166 32.69C39.3766 33.11 39.5566 33.6867 39.5566 34.42V34.7H35.8266C35.8466 35.3 36.0099 35.7633 36.3166 36.09C36.6299 36.41 37.0632 36.57 37.6166 36.57C37.9166 36.57 38.1966 36.5233 38.4566 36.43C38.7232 36.3367 38.9832 36.18 39.2366 35.96L39.4766 36.42C39.2632 36.6267 38.9899 36.79 38.6566 36.91C38.3232 37.0233 37.9832 37.08 37.6366 37.08ZM37.5166 32.55C37.0099 32.55 36.6132 32.71 36.3266 33.03C36.0466 33.3433 35.8832 33.75 35.8366 34.25H39.0066C38.9932 33.7167 38.8599 33.3 38.6066 33C38.3532 32.7 37.9899 32.55 37.5166 32.55Z" fill="black"/>
<path d="M14.6301 17C16.0834 15.7784 16.9999 13.9911 16.9999 12C16.9999 10.0088 16.0834 8.22157 14.6301 7" stroke="black" stroke-width="1.1" stroke-linecap="round"/>
<path d="M26.3698 7C24.9166 8.22157 24 10.0088 24 12C24 13.9912 24.9166 15.7784 26.3698 17" stroke="black" stroke-width="1.1" stroke-linecap="round"/>
</svg>
