<svg width="33" height="41" viewBox="0 0 33 41" fill="none" xmlns="http://www.w3.org/2000/svg">
<path d="M4.09633 34.08C3.42299 34.08 2.84633 33.9367 2.36633 33.65C1.88633 33.3567 1.51633 32.94 1.25633 32.4C1.00299 31.86 0.876328 31.2167 0.876328 30.47C0.876328 29.73 1.00299 29.09 1.25633 28.55C1.51633 28.01 1.88633 27.5967 2.36633 27.31C2.84633 27.0167 3.42299 26.87 4.09633 26.87C4.58299 26.87 5.02966 26.95 5.43633 27.11C5.84966 27.2633 6.19966 27.49 6.48633 27.79L6.21633 28.3C5.90299 27.9933 5.57633 27.7733 5.23633 27.64C4.90299 27.5067 4.52633 27.44 4.10633 27.44C3.27966 27.44 2.64299 27.7067 2.19633 28.24C1.75633 28.7667 1.53633 29.51 1.53633 30.47C1.53633 31.4367 1.75633 32.1867 2.19633 32.72C2.64299 33.2467 3.27966 33.51 4.10633 33.51C4.52633 33.51 4.90299 33.4433 5.23633 33.31C5.57633 33.1767 5.90299 32.9567 6.21633 32.65L6.48633 33.16C6.19966 33.46 5.84966 33.69 5.43633 33.85C5.02966 34.0033 4.58299 34.08 4.09633 34.08ZM9.31398 34.08C8.86065 34.08 8.46732 33.98 8.13398 33.78C7.80065 33.5733 7.54065 33.2833 7.35398 32.91C7.17398 32.53 7.08398 32.0833 7.08398 31.57C7.08398 31.0633 7.17398 30.6233 7.35398 30.25C7.54065 29.87 7.80065 29.5767 8.13398 29.37C8.46732 29.1633 8.86065 29.06 9.31398 29.06C9.77398 29.06 10.1707 29.1633 10.504 29.37C10.8373 29.5767 11.094 29.87 11.274 30.25C11.4607 30.6233 11.554 31.0633 11.554 31.57C11.554 32.0833 11.4607 32.53 11.274 32.91C11.094 33.2833 10.8373 33.5733 10.504 33.78C10.1707 33.98 9.77398 34.08 9.31398 34.08ZM9.31398 33.57C9.80732 33.57 10.2007 33.3967 10.494 33.05C10.7873 32.6967 10.934 32.2033 10.934 31.57C10.934 30.9367 10.7873 30.4467 10.494 30.1C10.2007 29.7533 9.80732 29.58 9.31398 29.58C8.82065 29.58 8.42732 29.7533 8.13398 30.1C7.84732 30.4467 7.70398 30.9367 7.70398 31.57C7.70398 32.2033 7.84732 32.6967 8.13398 33.05C8.42732 33.3967 8.82065 33.57 9.31398 33.57ZM12.8527 34V29.15H13.4527V30.02C13.6127 29.7 13.8427 29.46 14.1427 29.3C14.4427 29.14 14.7761 29.06 15.1427 29.06C16.2961 29.06 16.8727 29.6867 16.8727 30.94V34H16.2627V30.99C16.2627 30.51 16.1661 30.1567 15.9727 29.93C15.7794 29.7033 15.4727 29.59 15.0527 29.59C14.5727 29.59 14.1861 29.74 13.8927 30.04C13.6061 30.3333 13.4627 30.73 13.4627 31.23V34H12.8527ZM19.8396 34L17.7596 29.15H18.4396L20.1496 33.33L21.8896 29.15H22.5296L20.4496 34H19.8396ZM25.5389 34.08C24.7922 34.08 24.2022 33.86 23.7689 33.42C23.3422 32.9733 23.1289 32.3633 23.1289 31.59C23.1289 31.09 23.2256 30.65 23.4189 30.27C23.6122 29.89 23.8789 29.5933 24.2189 29.38C24.5656 29.1667 24.9622 29.06 25.4089 29.06C26.0556 29.06 26.5589 29.27 26.9189 29.69C27.2789 30.11 27.4589 30.6867 27.4589 31.42V31.7H23.7289C23.7489 32.3 23.9122 32.7633 24.2189 33.09C24.5322 33.41 24.9656 33.57 25.5189 33.57C25.8189 33.57 26.0989 33.5233 26.3589 33.43C26.6256 33.3367 26.8856 33.18 27.1389 32.96L27.3789 33.42C27.1656 33.6267 26.8922 33.79 26.5589 33.91C26.2256 34.0233 25.8856 34.08 25.5389 34.08ZM25.4189 29.55C24.9122 29.55 24.5156 29.71 24.2289 30.03C23.9489 30.3433 23.7856 30.75 23.7389 31.25H26.9089C26.8956 30.7167 26.7622 30.3 26.5089 30C26.2556 29.7 25.8922 29.55 25.4189 29.55ZM28.0735 34L30.0735 31.49L28.1835 29.15H28.9135L30.4335 31.07L31.9635 29.15H32.6835L30.7935 31.5L32.8035 34H32.0635L30.4335 31.95L28.7935 34H28.0735Z" fill="black"/>
<path d="M14.3698 7C12.9166 8.22157 12 10.0088 12 12C12 13.9912 12.9166 15.7784 14.3698 17" stroke="black" stroke-width="1.1" stroke-linecap="round"/>
<path d="M19.6301 17C21.0834 15.7784 21.9999 13.9911 21.9999 12C21.9999 10.0088 21.0834 8.22157 19.6301 7" stroke="black" stroke-width="1.1" stroke-linecap="round"/>
</svg>
