<svg width="49" height="45" viewBox="0 0 49 45" fill="none" xmlns="http://www.w3.org/2000/svg">
<path d="M4.01234 38.08C3.33901 38.08 2.76234 37.9367 2.28234 37.65C1.80234 37.3567 1.43234 36.94 1.17234 36.4C0.91901 35.86 0.792344 35.2167 0.792344 34.47C0.792344 33.73 0.91901 33.09 1.17234 32.55C1.43234 32.01 1.80234 31.5967 2.28234 31.31C2.76234 31.0167 3.33901 30.87 4.01234 30.87C4.49901 30.87 4.94568 30.95 5.35234 31.11C5.76568 31.2633 6.11568 31.49 6.40234 31.79L6.13234 32.3C5.81901 31.9933 5.49234 31.7733 5.15234 31.64C4.81901 31.5067 4.44234 31.44 4.02234 31.44C3.19568 31.44 2.55901 31.7067 2.11234 32.24C1.67234 32.7667 1.45234 33.51 1.45234 34.47C1.45234 35.4367 1.67234 36.1867 2.11234 36.72C2.55901 37.2467 3.19568 37.51 4.02234 37.51C4.44234 37.51 4.81901 37.4433 5.15234 37.31C5.49234 37.1767 5.81901 36.9567 6.13234 36.65L6.40234 37.16C6.11568 37.46 5.76568 37.69 5.35234 37.85C4.94568 38.0033 4.49901 38.08 4.01234 38.08ZM9.23 38.08C8.77667 38.08 8.38333 37.98 8.05 37.78C7.71667 37.5733 7.45667 37.2833 7.27 36.91C7.09 36.53 7 36.0833 7 35.57C7 35.0633 7.09 34.6233 7.27 34.25C7.45667 33.87 7.71667 33.5767 8.05 33.37C8.38333 33.1633 8.77667 33.06 9.23 33.06C9.69 33.06 10.0867 33.1633 10.42 33.37C10.7533 33.5767 11.01 33.87 11.19 34.25C11.3767 34.6233 11.47 35.0633 11.47 35.57C11.47 36.0833 11.3767 36.53 11.19 36.91C11.01 37.2833 10.7533 37.5733 10.42 37.78C10.0867 37.98 9.69 38.08 9.23 38.08ZM9.23 37.57C9.72333 37.57 10.1167 37.3967 10.41 37.05C10.7033 36.6967 10.85 36.2033 10.85 35.57C10.85 34.9367 10.7033 34.4467 10.41 34.1C10.1167 33.7533 9.72333 33.58 9.23 33.58C8.73667 33.58 8.34333 33.7533 8.05 34.1C7.76333 34.4467 7.62 34.9367 7.62 35.57C7.62 36.2033 7.76333 36.6967 8.05 37.05C8.34333 37.3967 8.73667 37.57 9.23 37.57ZM12.7688 38V33.15H13.3688V34.03C13.5088 33.7233 13.7121 33.49 13.9788 33.33C14.2454 33.17 14.5854 33.0767 14.9988 33.05L15.2488 33.03L15.3088 33.56L14.8788 33.61C14.4054 33.65 14.0388 33.8067 13.7788 34.08C13.5188 34.3467 13.3888 34.7067 13.3888 35.16V38H12.7688ZM18.2381 38.08C17.4915 38.08 16.9015 37.86 16.4681 37.42C16.0415 36.9733 15.8281 36.3633 15.8281 35.59C15.8281 35.09 15.9248 34.65 16.1181 34.27C16.3115 33.89 16.5781 33.5933 16.9181 33.38C17.2648 33.1667 17.6615 33.06 18.1081 33.06C18.7548 33.06 19.2581 33.27 19.6181 33.69C19.9781 34.11 20.1581 34.6867 20.1581 35.42V35.7H16.4281C16.4481 36.3 16.6115 36.7633 16.9181 37.09C17.2315 37.41 17.6648 37.57 18.2181 37.57C18.5181 37.57 18.7981 37.5233 19.0581 37.43C19.3248 37.3367 19.5848 37.18 19.8381 36.96L20.0781 37.42C19.8648 37.6267 19.5915 37.79 19.2581 37.91C18.9248 38.0233 18.5848 38.08 18.2381 38.08ZM18.1181 33.55C17.6115 33.55 17.2148 33.71 16.9281 34.03C16.6481 34.3433 16.4848 34.75 16.4381 35.25H19.6081C19.5948 34.7167 19.4615 34.3 19.2081 34C18.9548 33.7 18.5915 33.55 18.1181 33.55ZM20.9313 38.59L20.4313 38.44L22.9813 30.52L23.4913 30.67L20.9313 38.59ZM24.2169 38V30.95H26.4869C27.6069 30.95 28.4702 31.25 29.0769 31.85C29.6902 32.45 29.9969 33.3233 29.9969 34.47C29.9969 35.6167 29.6902 36.4933 29.0769 37.1C28.4702 37.7 27.6069 38 26.4869 38H24.2169ZM24.8269 37.46H26.4369C28.3702 37.46 29.3369 36.4633 29.3369 34.47C29.3369 32.4833 28.3702 31.49 26.4369 31.49H24.8269V37.46ZM31.3309 31.87V31.1H32.1509V31.87H31.3309ZM31.4309 38V33.15H32.0409V38H31.4309ZM35.2277 38.08C34.8677 38.08 34.521 38.0267 34.1877 37.92C33.861 37.8133 33.591 37.66 33.3777 37.46L33.5977 37.01C33.8443 37.21 34.1077 37.3567 34.3877 37.45C34.6677 37.5367 34.9543 37.58 35.2477 37.58C35.661 37.58 35.971 37.5067 36.1777 37.36C36.391 37.2067 36.4977 36.9967 36.4977 36.73C36.4977 36.5233 36.4277 36.36 36.2877 36.24C36.1477 36.12 35.9277 36.0233 35.6277 35.95L34.7577 35.75C33.9377 35.5633 33.5277 35.14 33.5277 34.48C33.5277 34.0533 33.6943 33.71 34.0277 33.45C34.361 33.19 34.801 33.06 35.3477 33.06C35.681 33.06 35.9943 33.1167 36.2877 33.23C36.581 33.3367 36.821 33.4933 37.0077 33.7L36.7677 34.15C36.5743 33.9567 36.3543 33.8133 36.1077 33.72C35.861 33.62 35.6043 33.57 35.3377 33.57C34.951 33.57 34.651 33.65 34.4377 33.81C34.231 33.97 34.1277 34.1867 34.1277 34.46C34.1277 34.6667 34.191 34.8333 34.3177 34.96C34.4443 35.0867 34.651 35.1833 34.9377 35.25L35.8077 35.45C36.241 35.55 36.5643 35.7 36.7777 35.9C36.991 36.0933 37.0977 36.3567 37.0977 36.69C37.0977 37.1233 36.9277 37.4633 36.5877 37.71C36.2477 37.9567 35.7943 38.08 35.2277 38.08ZM40.2042 38.08C39.6642 38.08 39.2576 37.9333 38.9842 37.64C38.7176 37.3467 38.5842 36.9267 38.5842 36.38V33.64H37.6242V33.15H38.5842V31.65H39.1942V33.15H40.7642V33.64H39.1942V36.3C39.1942 36.7067 39.2776 37.0167 39.4442 37.23C39.6109 37.4433 39.8876 37.55 40.2742 37.55C40.3876 37.55 40.4976 37.5367 40.6042 37.51C40.7109 37.4833 40.8042 37.4533 40.8842 37.42L41.0042 37.9C40.9309 37.9467 40.8142 37.9867 40.6542 38.02C40.4942 38.06 40.3442 38.08 40.2042 38.08ZM43.2238 38.08C42.8972 38.08 42.6038 38.0167 42.3438 37.89C42.0905 37.7633 41.8872 37.59 41.7338 37.37C41.5872 37.15 41.5138 36.9033 41.5138 36.63C41.5138 36.27 41.6038 35.99 41.7838 35.79C41.9638 35.5833 42.2672 35.4367 42.6938 35.35C43.1205 35.2633 43.7072 35.22 44.4538 35.22H44.7638V34.86C44.7638 34.4133 44.6738 34.09 44.4938 33.89C44.3138 33.6833 44.0272 33.58 43.6338 33.58C43.3405 33.58 43.0572 33.6233 42.7838 33.71C42.5172 33.7967 42.2405 33.9333 41.9538 34.12L41.7138 33.65C41.9672 33.47 42.2672 33.3267 42.6138 33.22C42.9605 33.1133 43.2972 33.06 43.6238 33.06C44.2105 33.06 44.6438 33.21 44.9238 33.51C45.2105 33.81 45.3538 34.27 45.3538 34.89V38H44.7738V37.13C44.6405 37.43 44.4372 37.6633 44.1638 37.83C43.8972 37.9967 43.5838 38.08 43.2238 38.08ZM43.3038 37.59C43.5905 37.59 43.8405 37.5233 44.0538 37.39C44.2738 37.25 44.4472 37.06 44.5738 36.82C44.7005 36.58 44.7638 36.3067 44.7638 36V35.67H44.4638C43.8638 35.67 43.3938 35.6967 43.0538 35.75C42.7205 35.8033 42.4872 35.8967 42.3538 36.03C42.2205 36.1633 42.1538 36.3467 42.1538 36.58C42.1538 36.88 42.2572 37.1233 42.4638 37.31C42.6705 37.4967 42.9505 37.59 43.3038 37.59ZM48.3584 38.08C47.9051 38.08 47.5551 37.9433 47.3084 37.67C47.0684 37.39 46.9484 36.99 46.9484 36.47V30.95H47.5584V36.4C47.5584 37.1667 47.8584 37.55 48.4584 37.55C48.6251 37.55 48.7784 37.53 48.9184 37.49L48.8984 38.02C48.7051 38.06 48.5251 38.08 48.3584 38.08Z" fill="black"/>
<path d="M25 2V22" stroke="black" stroke-width="1.1" stroke-linecap="round" stroke-linejoin="round"/>
<path d="M18 7L32 17M32 7L18 17" stroke="black" stroke-width="1.1" stroke-linecap="round" stroke-linejoin="round"/>
<path d="M29 7.55556C29 9.51923 27 10.6667 25 12C23 10.6667 21 9.51923 21 7.55556C21 5.59188 22.7909 4 25 4C27.2091 4 29 5.59188 29 7.55556Z" stroke="black" stroke-width="1.1"/>
<path d="M29 16.4444C29 14.4808 27 13.3333 25 12C23 13.3333 21 14.4808 21 16.4444C21 18.4081 22.7909 20 25 20C27.2091 20 29 18.4081 29 16.4444Z" stroke="black" stroke-width="1.1"/>
</svg>
