<svg width="58" height="42" viewBox="0 0 58 42" fill="none" xmlns="http://www.w3.org/2000/svg">
<path d="M4.48695 35.08C3.81362 35.08 3.23695 34.9367 2.75695 34.65C2.27695 34.3567 1.90695 33.94 1.64695 33.4C1.39362 32.86 1.26695 32.2167 1.26695 31.47C1.26695 30.73 1.39362 30.09 1.64695 29.55C1.90695 29.01 2.27695 28.5967 2.75695 28.31C3.23695 28.0167 3.81362 27.87 4.48695 27.87C4.97362 27.87 5.42029 27.95 5.82695 28.11C6.24029 28.2633 6.59029 28.49 6.87695 28.79L6.60695 29.3C6.29362 28.9933 5.96695 28.7733 5.62695 28.64C5.29362 28.5067 4.91695 28.44 4.49695 28.44C3.67029 28.44 3.03362 28.7067 2.58695 29.24C2.14695 29.7667 1.92695 30.51 1.92695 31.47C1.92695 32.4367 2.14695 33.1867 2.58695 33.72C3.03362 34.2467 3.67029 34.51 4.49695 34.51C4.91695 34.51 5.29362 34.4433 5.62695 34.31C5.96695 34.1767 6.29362 33.9567 6.60695 33.65L6.87695 34.16C6.59029 34.46 6.24029 34.69 5.82695 34.85C5.42029 35.0033 4.97362 35.08 4.48695 35.08ZM8.12617 35V30.15H8.72617V31.03C8.86617 30.7233 9.06951 30.49 9.33617 30.33C9.60284 30.17 9.94284 30.0767 10.3562 30.05L10.6062 30.03L10.6662 30.56L10.2362 30.61C9.76284 30.65 9.39617 30.8067 9.13617 31.08C8.87617 31.3467 8.74617 31.7067 8.74617 32.16V35H8.12617ZM13.4155 35.08C12.9622 35.08 12.5689 34.98 12.2355 34.78C11.9022 34.5733 11.6422 34.2833 11.4555 33.91C11.2755 33.53 11.1855 33.0833 11.1855 32.57C11.1855 32.0633 11.2755 31.6233 11.4555 31.25C11.6422 30.87 11.9022 30.5767 12.2355 30.37C12.5689 30.1633 12.9622 30.06 13.4155 30.06C13.8755 30.06 14.2722 30.1633 14.6055 30.37C14.9389 30.5767 15.1955 30.87 15.3755 31.25C15.5622 31.6233 15.6555 32.0633 15.6555 32.57C15.6555 33.0833 15.5622 33.53 15.3755 33.91C15.1955 34.2833 14.9389 34.5733 14.6055 34.78C14.2722 34.98 13.8755 35.08 13.4155 35.08ZM13.4155 34.57C13.9089 34.57 14.3022 34.3967 14.5955 34.05C14.8889 33.6967 15.0355 33.2033 15.0355 32.57C15.0355 31.9367 14.8889 31.4467 14.5955 31.1C14.3022 30.7533 13.9089 30.58 13.4155 30.58C12.9222 30.58 12.5289 30.7533 12.2355 31.1C11.9489 31.4467 11.8055 31.9367 11.8055 32.57C11.8055 33.2033 11.9489 33.6967 12.2355 34.05C12.5289 34.3967 12.9222 34.57 13.4155 34.57ZM18.5343 35.08C18.1743 35.08 17.8276 35.0267 17.4943 34.92C17.1676 34.8133 16.8976 34.66 16.6843 34.46L16.9043 34.01C17.151 34.21 17.4143 34.3567 17.6943 34.45C17.9743 34.5367 18.261 34.58 18.5543 34.58C18.9676 34.58 19.2776 34.5067 19.4843 34.36C19.6976 34.2067 19.8043 33.9967 19.8043 33.73C19.8043 33.5233 19.7343 33.36 19.5943 33.24C19.4543 33.12 19.2343 33.0233 18.9343 32.95L18.0643 32.75C17.2443 32.5633 16.8343 32.14 16.8343 31.48C16.8343 31.0533 17.001 30.71 17.3343 30.45C17.6676 30.19 18.1076 30.06 18.6543 30.06C18.9876 30.06 19.301 30.1167 19.5943 30.23C19.8876 30.3367 20.1276 30.4933 20.3143 30.7L20.0743 31.15C19.881 30.9567 19.661 30.8133 19.4143 30.72C19.1676 30.62 18.911 30.57 18.6443 30.57C18.2576 30.57 17.9576 30.65 17.7443 30.81C17.5376 30.97 17.4343 31.1867 17.4343 31.46C17.4343 31.6667 17.4976 31.8333 17.6243 31.96C17.751 32.0867 17.9576 32.1833 18.2443 32.25L19.1143 32.45C19.5476 32.55 19.871 32.7 20.0843 32.9C20.2976 33.0933 20.4043 33.3567 20.4043 33.69C20.4043 34.1233 20.2343 34.4633 19.8943 34.71C19.5543 34.9567 19.101 35.08 18.5343 35.08ZM23.3097 35.08C22.9497 35.08 22.603 35.0267 22.2697 34.92C21.943 34.8133 21.673 34.66 21.4597 34.46L21.6797 34.01C21.9264 34.21 22.1897 34.3567 22.4697 34.45C22.7497 34.5367 23.0364 34.58 23.3297 34.58C23.743 34.58 24.053 34.5067 24.2597 34.36C24.473 34.2067 24.5797 33.9967 24.5797 33.73C24.5797 33.5233 24.5097 33.36 24.3697 33.24C24.2297 33.12 24.0097 33.0233 23.7097 32.95L22.8397 32.75C22.0197 32.5633 21.6097 32.14 21.6097 31.48C21.6097 31.0533 21.7764 30.71 22.1097 30.45C22.443 30.19 22.883 30.06 23.4297 30.06C23.763 30.06 24.0764 30.1167 24.3697 30.23C24.663 30.3367 24.903 30.4933 25.0897 30.7L24.8497 31.15C24.6564 30.9567 24.4364 30.8133 24.1897 30.72C23.943 30.62 23.6864 30.57 23.4197 30.57C23.033 30.57 22.733 30.65 22.5197 30.81C22.313 30.97 22.2097 31.1867 22.2097 31.46C22.2097 31.6667 22.273 31.8333 22.3997 31.96C22.5264 32.0867 22.733 32.1833 23.0197 32.25L23.8897 32.45C24.323 32.55 24.6464 32.7 24.8597 32.9C25.073 33.0933 25.1797 33.3567 25.1797 33.69C25.1797 34.1233 25.0097 34.4633 24.6697 34.71C24.3297 34.9567 23.8764 35.08 23.3097 35.08ZM26.4451 32.6V32.08H29.1651V32.6H26.4451ZM32.1143 35.08C31.661 35.08 31.311 34.9433 31.0643 34.67C30.8243 34.39 30.7043 33.99 30.7043 33.47V27.95H31.3143V33.4C31.3143 34.1667 31.6143 34.55 32.2143 34.55C32.381 34.55 32.5343 34.53 32.6743 34.49L32.6543 35.02C32.461 35.06 32.281 35.08 32.1143 35.08ZM35.0559 35.08C34.7292 35.08 34.4359 35.0167 34.1759 34.89C33.9225 34.7633 33.7192 34.59 33.5659 34.37C33.4192 34.15 33.3459 33.9033 33.3459 33.63C33.3459 33.27 33.4359 32.99 33.6159 32.79C33.7959 32.5833 34.0992 32.4367 34.5259 32.35C34.9525 32.2633 35.5392 32.22 36.2859 32.22H36.5959V31.86C36.5959 31.4133 36.5059 31.09 36.3259 30.89C36.1459 30.6833 35.8592 30.58 35.4659 30.58C35.1725 30.58 34.8892 30.6233 34.6159 30.71C34.3492 30.7967 34.0725 30.9333 33.7859 31.12L33.5459 30.65C33.7992 30.47 34.0992 30.3267 34.4459 30.22C34.7925 30.1133 35.1292 30.06 35.4559 30.06C36.0425 30.06 36.4759 30.21 36.7559 30.51C37.0425 30.81 37.1859 31.27 37.1859 31.89V35H36.6059V34.13C36.4725 34.43 36.2692 34.6633 35.9959 34.83C35.7292 34.9967 35.4159 35.08 35.0559 35.08ZM35.1359 34.59C35.4225 34.59 35.6725 34.5233 35.8859 34.39C36.1059 34.25 36.2792 34.06 36.4059 33.82C36.5325 33.58 36.5959 33.3067 36.5959 33V32.67H36.2959C35.6959 32.67 35.2259 32.6967 34.8859 32.75C34.5525 32.8033 34.3192 32.8967 34.1859 33.03C34.0525 33.1633 33.9859 33.3467 33.9859 33.58C33.9859 33.88 34.0892 34.1233 34.2959 34.31C34.5025 34.4967 34.7825 34.59 35.1359 34.59ZM40.6105 35.08C40.0705 35.08 39.6638 34.9333 39.3905 34.64C39.1238 34.3467 38.9905 33.9267 38.9905 33.38V30.64H38.0305V30.15H38.9905V28.65H39.6005V30.15H41.1705V30.64H39.6005V33.3C39.6005 33.7067 39.6838 34.0167 39.8505 34.23C40.0171 34.4433 40.2938 34.55 40.6805 34.55C40.7938 34.55 40.9038 34.5367 41.0105 34.51C41.1171 34.4833 41.2105 34.4533 41.2905 34.42L41.4105 34.9C41.3371 34.9467 41.2205 34.9867 41.0605 35.02C40.9005 35.06 40.7505 35.08 40.6105 35.08ZM44.1913 35.08C43.4446 35.08 42.8546 34.86 42.4213 34.42C41.9946 33.9733 41.7813 33.3633 41.7813 32.59C41.7813 32.09 41.8779 31.65 42.0713 31.27C42.2646 30.89 42.5313 30.5933 42.8713 30.38C43.2179 30.1667 43.6146 30.06 44.0613 30.06C44.7079 30.06 45.2113 30.27 45.5713 30.69C45.9313 31.11 46.1113 31.6867 46.1113 32.42V32.7H42.3813C42.4013 33.3 42.5646 33.7633 42.8713 34.09C43.1846 34.41 43.6179 34.57 44.1713 34.57C44.4713 34.57 44.7513 34.5233 45.0113 34.43C45.2779 34.3367 45.5379 34.18 45.7913 33.96L46.0313 34.42C45.8179 34.6267 45.5446 34.79 45.2113 34.91C44.8779 35.0233 44.5379 35.08 44.1913 35.08ZM44.0713 30.55C43.5646 30.55 43.1679 30.71 42.8813 31.03C42.6013 31.3433 42.4379 31.75 42.3913 32.25H45.5613C45.5479 31.7167 45.4146 31.3 45.1613 31C44.9079 30.7 44.5446 30.55 44.0713 30.55ZM47.3547 35V30.15H47.9547V31.03C48.0947 30.7233 48.298 30.49 48.5647 30.33C48.8314 30.17 49.1714 30.0767 49.5847 30.05L49.8347 30.03L49.8947 30.56L49.4647 30.61C48.9914 30.65 48.6247 30.8067 48.3647 31.08C48.1047 31.3467 47.9747 31.7067 47.9747 32.16V35H47.3547ZM52.2238 35.08C51.8972 35.08 51.6038 35.0167 51.3438 34.89C51.0905 34.7633 50.8872 34.59 50.7338 34.37C50.5872 34.15 50.5138 33.9033 50.5138 33.63C50.5138 33.27 50.6038 32.99 50.7838 32.79C50.9638 32.5833 51.2672 32.4367 51.6938 32.35C52.1205 32.2633 52.7072 32.22 53.4538 32.22H53.7638V31.86C53.7638 31.4133 53.6738 31.09 53.4938 30.89C53.3138 30.6833 53.0272 30.58 52.6338 30.58C52.3405 30.58 52.0572 30.6233 51.7838 30.71C51.5172 30.7967 51.2405 30.9333 50.9538 31.12L50.7138 30.65C50.9672 30.47 51.2672 30.3267 51.6138 30.22C51.9605 30.1133 52.2972 30.06 52.6238 30.06C53.2105 30.06 53.6438 30.21 53.9238 30.51C54.2105 30.81 54.3538 31.27 54.3538 31.89V35H53.7738V34.13C53.6405 34.43 53.4372 34.6633 53.1638 34.83C52.8972 34.9967 52.5838 35.08 52.2238 35.08ZM52.3038 34.59C52.5905 34.59 52.8405 34.5233 53.0538 34.39C53.2738 34.25 53.4472 34.06 53.5738 33.82C53.7005 33.58 53.7638 33.3067 53.7638 33V32.67H53.4638C52.8638 32.67 52.3938 32.6967 52.0538 32.75C51.7205 32.8033 51.4872 32.8967 51.3538 33.03C51.2205 33.1633 51.1538 33.3467 51.1538 33.58C51.1538 33.88 51.2572 34.1233 51.4638 34.31C51.6705 34.4967 51.9505 34.59 52.3038 34.59ZM57.3584 35.08C56.9051 35.08 56.5551 34.9433 56.3084 34.67C56.0684 34.39 55.9484 33.99 55.9484 33.47V27.95H56.5584V33.4C56.5584 34.1667 56.8584 34.55 57.4584 34.55C57.6251 34.55 57.7784 34.53 57.9184 34.49L57.8984 35.02C57.7051 35.06 57.5251 35.08 57.3584 35.08Z" fill="black"/>
<path d="M21 7L35 17M35 7L21 17" stroke="black" stroke-width="1.1" stroke-linecap="round" stroke-linejoin="round"/>
<path d="M32 7.55556C32 9.51923 30 10.6667 28 12C26 10.6667 24 9.51923 24 7.55556C24 5.59188 25.7909 4 28 4C30.2091 4 32 5.59188 32 7.55556Z" stroke="black" stroke-width="1.1"/>
<path d="M32 16.4444C32 14.4808 30 13.3333 28 12C26 13.3333 24 14.4808 24 16.4444C24 18.4081 25.7909 20 28 20C30.2091 20 32 18.4081 32 16.4444Z" stroke="black" stroke-width="1.1"/>
</svg>
