<svg width="28" height="40" viewBox="0 0 28 40" fill="none" xmlns="http://www.w3.org/2000/svg">
<path d="M1.79695 33V25.95H4.06695C5.18695 25.95 6.05029 26.25 6.65695 26.85C7.27029 27.45 7.57695 28.3233 7.57695 29.47C7.57695 30.6167 7.27029 31.4933 6.65695 32.1C6.05029 32.7 5.18695 33 4.06695 33H1.79695ZM2.40695 32.46H4.01695C5.95029 32.46 6.91695 31.4633 6.91695 29.47C6.91695 27.4833 5.95029 26.49 4.01695 26.49H2.40695V32.46ZM8.91094 26.87V26.1H9.73094V26.87H8.91094ZM9.01094 33V28.15H9.62094V33H9.01094ZM11.2277 33V28.15H11.8277V29.03C11.9677 28.7233 12.1711 28.49 12.4377 28.33C12.7044 28.17 13.0444 28.0767 13.4577 28.05L13.7077 28.03L13.7677 28.56L13.3377 28.61C12.8644 28.65 12.4977 28.8067 12.2377 29.08C11.9777 29.3467 11.8477 29.7067 11.8477 30.16V33H11.2277ZM16.6971 33.08C15.9504 33.08 15.3604 32.86 14.9271 32.42C14.5004 31.9733 14.2871 31.3633 14.2871 30.59C14.2871 30.09 14.3838 29.65 14.5771 29.27C14.7704 28.89 15.0371 28.5933 15.3771 28.38C15.7238 28.1667 16.1204 28.06 16.5671 28.06C17.2138 28.06 17.7171 28.27 18.0771 28.69C18.4371 29.11 18.6171 29.6867 18.6171 30.42V30.7H14.8871C14.9071 31.3 15.0704 31.7633 15.3771 32.09C15.6904 32.41 16.1238 32.57 16.6771 32.57C16.9771 32.57 17.2571 32.5233 17.5171 32.43C17.7838 32.3367 18.0438 32.18 18.2971 31.96L18.5371 32.42C18.3238 32.6267 18.0504 32.79 17.7171 32.91C17.3838 33.0233 17.0438 33.08 16.6971 33.08ZM16.5771 28.55C16.0704 28.55 15.6738 28.71 15.3871 29.03C15.1071 29.3433 14.9438 29.75 14.8971 30.25H18.0671C18.0538 29.7167 17.9204 29.3 17.6671 29C17.4138 28.7 17.0504 28.55 16.5771 28.55ZM21.8405 33.08C21.3672 33.08 20.9605 32.9767 20.6205 32.77C20.2805 32.5567 20.0172 32.26 19.8305 31.88C19.6505 31.4933 19.5605 31.0467 19.5605 30.54C19.5605 29.7733 19.7605 29.17 20.1605 28.73C20.5672 28.2833 21.1272 28.06 21.8405 28.06C22.1339 28.06 22.4239 28.1167 22.7105 28.23C22.9972 28.3433 23.2372 28.5 23.4305 28.7L23.1905 29.16C22.9839 28.96 22.7639 28.8167 22.5305 28.73C22.2972 28.6367 22.0739 28.59 21.8605 28.59C21.3205 28.59 20.9039 28.76 20.6105 29.1C20.3239 29.44 20.1805 29.9233 20.1805 30.55C20.1805 31.1767 20.3239 31.67 20.6105 32.03C20.9039 32.3833 21.3205 32.56 21.8605 32.56C22.0739 32.56 22.2972 32.5167 22.5305 32.43C22.7639 32.3367 22.9839 32.19 23.1905 31.99L23.4305 32.45C23.2372 32.6433 22.9939 32.7967 22.7005 32.91C22.4139 33.0233 22.1272 33.08 21.8405 33.08ZM26.2804 33.08C25.7404 33.08 25.3337 32.9333 25.0604 32.64C24.7937 32.3467 24.6604 31.9267 24.6604 31.38V28.64H23.7004V28.15H24.6604V26.65H25.2704V28.15H26.8404V28.64H25.2704V31.3C25.2704 31.7067 25.3537 32.0167 25.5204 32.23C25.6871 32.4433 25.9637 32.55 26.3504 32.55C26.4637 32.55 26.5737 32.5367 26.6804 32.51C26.7871 32.4833 26.8804 32.4533 26.9604 32.42L27.0804 32.9C27.0071 32.9467 26.8904 32.9867 26.7304 33.02C26.5704 33.06 26.4204 33.08 26.2804 33.08Z" fill="black"/>
<path d="M17 10H26" stroke="black" stroke-width="1.1" stroke-linecap="round"/>
<path d="M13 14L17 10" stroke="black" stroke-width="1.1" stroke-linecap="round"/>
</svg>
