<svg width="48" height="43" viewBox="0 0 48 43" fill="none" xmlns="http://www.w3.org/2000/svg">
<path d="M1.43953 36V28.95H3.70953C4.82953 28.95 5.69286 29.25 6.29953 29.85C6.91286 30.45 7.21953 31.3233 7.21953 32.47C7.21953 33.6167 6.91286 34.4933 6.29953 35.1C5.69286 35.7 4.82953 36 3.70953 36H1.43953ZM2.04953 35.46H3.65953C5.59286 35.46 6.55953 34.4633 6.55953 32.47C6.55953 30.4833 5.59286 29.49 3.65953 29.49H2.04953V35.46ZM8.55352 29.87V29.1H9.37352V29.87H8.55352ZM8.65352 36V31.15H9.26352V36H8.65352ZM10.8703 36V31.15H11.4703V32.03C11.6103 31.7233 11.8136 31.49 12.0803 31.33C12.347 31.17 12.687 31.0767 13.1003 31.05L13.3503 31.03L13.4103 31.56L12.9803 31.61C12.507 31.65 12.1403 31.8067 11.8803 32.08C11.6203 32.3467 11.4903 32.7067 11.4903 33.16V36H10.8703ZM16.3397 36.08C15.593 36.08 15.003 35.86 14.5697 35.42C14.143 34.9733 13.9297 34.3633 13.9297 33.59C13.9297 33.09 14.0264 32.65 14.2197 32.27C14.413 31.89 14.6797 31.5933 15.0197 31.38C15.3664 31.1667 15.763 31.06 16.2097 31.06C16.8564 31.06 17.3597 31.27 17.7197 31.69C18.0797 32.11 18.2597 32.6867 18.2597 33.42V33.7H14.5297C14.5497 34.3 14.713 34.7633 15.0197 35.09C15.333 35.41 15.7664 35.57 16.3197 35.57C16.6197 35.57 16.8997 35.5233 17.1597 35.43C17.4264 35.3367 17.6864 35.18 17.9397 34.96L18.1797 35.42C17.9664 35.6267 17.693 35.79 17.3597 35.91C17.0264 36.0233 16.6864 36.08 16.3397 36.08ZM16.2197 31.55C15.713 31.55 15.3164 31.71 15.0297 32.03C14.7497 32.3433 14.5864 32.75 14.5397 33.25H17.7097C17.6964 32.7167 17.563 32.3 17.3097 32C17.0564 31.7 16.693 31.55 16.2197 31.55ZM21.4831 36.08C21.0098 36.08 20.6031 35.9767 20.2631 35.77C19.9231 35.5567 19.6598 35.26 19.4731 34.88C19.2931 34.4933 19.2031 34.0467 19.2031 33.54C19.2031 32.7733 19.4031 32.17 19.8031 31.73C20.2098 31.2833 20.7698 31.06 21.4831 31.06C21.7765 31.06 22.0665 31.1167 22.3531 31.23C22.6398 31.3433 22.8798 31.5 23.0731 31.7L22.8331 32.16C22.6265 31.96 22.4065 31.8167 22.1731 31.73C21.9398 31.6367 21.7165 31.59 21.5031 31.59C20.9631 31.59 20.5465 31.76 20.2531 32.1C19.9665 32.44 19.8231 32.9233 19.8231 33.55C19.8231 34.1767 19.9665 34.67 20.2531 35.03C20.5465 35.3833 20.9631 35.56 21.5031 35.56C21.7165 35.56 21.9398 35.5167 22.1731 35.43C22.4065 35.3367 22.6265 35.19 22.8331 34.99L23.0731 35.45C22.8798 35.6433 22.6365 35.7967 22.3431 35.91C22.0565 36.0233 21.7698 36.08 21.4831 36.08ZM25.923 36.08C25.383 36.08 24.9763 35.9333 24.703 35.64C24.4363 35.3467 24.303 34.9267 24.303 34.38V31.64H23.343V31.15H24.303V29.65H24.913V31.15H26.483V31.64H24.913V34.3C24.913 34.7067 24.9963 35.0167 25.163 35.23C25.3296 35.4433 25.6063 35.55 25.993 35.55C26.1063 35.55 26.2163 35.5367 26.323 35.51C26.4296 35.4833 26.523 35.4533 26.603 35.42L26.723 35.9C26.6496 35.9467 26.533 35.9867 26.373 36.02C26.213 36.06 26.063 36.08 25.923 36.08ZM27.3426 29.87V29.1H28.1626V29.87H27.3426ZM27.4426 36V31.15H28.0526V36H27.4426ZM31.5894 36.08C31.136 36.08 30.7427 35.98 30.4094 35.78C30.076 35.5733 29.816 35.2833 29.6294 34.91C29.4494 34.53 29.3594 34.0833 29.3594 33.57C29.3594 33.0633 29.4494 32.6233 29.6294 32.25C29.816 31.87 30.076 31.5767 30.4094 31.37C30.7427 31.1633 31.136 31.06 31.5894 31.06C32.0494 31.06 32.446 31.1633 32.7794 31.37C33.1127 31.5767 33.3694 31.87 33.5494 32.25C33.736 32.6233 33.8294 33.0633 33.8294 33.57C33.8294 34.0833 33.736 34.53 33.5494 34.91C33.3694 35.2833 33.1127 35.5733 32.7794 35.78C32.446 35.98 32.0494 36.08 31.5894 36.08ZM31.5894 35.57C32.0827 35.57 32.476 35.3967 32.7694 35.05C33.0627 34.6967 33.2094 34.2033 33.2094 33.57C33.2094 32.9367 33.0627 32.4467 32.7694 32.1C32.476 31.7533 32.0827 31.58 31.5894 31.58C31.096 31.58 30.7027 31.7533 30.4094 32.1C30.1227 32.4467 29.9794 32.9367 29.9794 33.57C29.9794 34.2033 30.1227 34.6967 30.4094 35.05C30.7027 35.3967 31.096 35.57 31.5894 35.57ZM35.1281 36V31.15H35.7281V32.02C35.8881 31.7 36.1181 31.46 36.4181 31.3C36.7181 31.14 37.0515 31.06 37.4181 31.06C38.5715 31.06 39.1481 31.6867 39.1481 32.94V36H38.5381V32.99C38.5381 32.51 38.4415 32.1567 38.2481 31.93C38.0548 31.7033 37.7481 31.59 37.3281 31.59C36.8481 31.59 36.4615 31.74 36.1681 32.04C35.8815 32.3333 35.7381 32.73 35.7381 33.23V36H35.1281ZM42.2238 36.08C41.8972 36.08 41.6038 36.0167 41.3438 35.89C41.0905 35.7633 40.8872 35.59 40.7338 35.37C40.5872 35.15 40.5138 34.9033 40.5138 34.63C40.5138 34.27 40.6038 33.99 40.7838 33.79C40.9638 33.5833 41.2672 33.4367 41.6938 33.35C42.1205 33.2633 42.7072 33.22 43.4538 33.22H43.7638V32.86C43.7638 32.4133 43.6738 32.09 43.4938 31.89C43.3138 31.6833 43.0272 31.58 42.6338 31.58C42.3405 31.58 42.0572 31.6233 41.7838 31.71C41.5172 31.7967 41.2405 31.9333 40.9538 32.12L40.7138 31.65C40.9672 31.47 41.2672 31.3267 41.6138 31.22C41.9605 31.1133 42.2972 31.06 42.6238 31.06C43.2105 31.06 43.6438 31.21 43.9238 31.51C44.2105 31.81 44.3538 32.27 44.3538 32.89V36H43.7738V35.13C43.6405 35.43 43.4372 35.6633 43.1638 35.83C42.8972 35.9967 42.5838 36.08 42.2238 36.08ZM42.3038 35.59C42.5905 35.59 42.8405 35.5233 43.0538 35.39C43.2738 35.25 43.4472 35.06 43.5738 34.82C43.7005 34.58 43.7638 34.3067 43.7638 34V33.67H43.4638C42.8638 33.67 42.3938 33.6967 42.0538 33.75C41.7205 33.8033 41.4872 33.8967 41.3538 34.03C41.2205 34.1633 41.1538 34.3467 41.1538 34.58C41.1538 34.88 41.2572 35.1233 41.4638 35.31C41.6705 35.4967 41.9505 35.59 42.3038 35.59ZM47.3584 36.08C46.9051 36.08 46.5551 35.9433 46.3084 35.67C46.0684 35.39 45.9484 34.99 45.9484 34.47V28.95H46.5584V34.4C46.5584 35.1667 46.8584 35.55 47.4584 35.55C47.6251 35.55 47.7784 35.53 47.9184 35.49L47.8984 36.02C47.7051 36.06 47.5251 36.08 47.3584 36.08Z" fill="black"/>
<path d="M27.71 7.30154C24.9738 14.8191 24.2898 16.6985 24.2898 16.6985" stroke="black" stroke-width="1.1" stroke-linecap="round" stroke-linejoin="round"/>
<path d="M23.71 7.30154C20.9738 14.8191 20.2898 16.6985 20.2898 16.6985" stroke="black" stroke-width="1.1" stroke-linecap="round" stroke-linejoin="round"/>
<path d="M14.5 12L33.5 12C33.7761 12 34.0022 11.7757 33.9791 11.5005C33.8263 9.67687 32.8332 7.95831 31 7.5" stroke="black" stroke-width="1.1" stroke-linecap="round" stroke-linejoin="round"/>
<path d="M14.5 12L34 12L30 15" stroke="black" stroke-width="1.1" stroke-linecap="round" stroke-linejoin="round"/>
</svg>
