<svg width="26" height="43" viewBox="0 0 26 43" fill="none" xmlns="http://www.w3.org/2000/svg">
<path d="M17 7.55556C17 9.51923 15 10.6667 13 12C11 10.6667 9 9.51923 9 7.55556C9 5.59188 10.7909 4 13 4C15.2091 4 17 5.59188 17 7.55556Z" stroke="black" stroke-width="1.1"/>
<path d="M17 16.4444C17 14.4808 15 13.3333 13 12C11 13.3333 9 14.4808 9 16.4444C9 18.4081 10.7909 20 13 20C15.2091 20 17 18.4081 17 16.4444Z" stroke="black" stroke-width="1.1"/>
<circle cx="13" cy="12" r="2" fill="black"/>
<circle cx="13" cy="12" r="8" stroke="black"/>
<path d="M1.21688 36V28.95H3.48688C4.60688 28.95 5.47021 29.25 6.07688 29.85C6.69021 30.45 6.99688 31.3233 6.99688 32.47C6.99688 33.6167 6.69021 34.4933 6.07688 35.1C5.47021 35.7 4.60688 36 3.48688 36H1.21688ZM1.82688 35.46H3.43688C5.37021 35.46 6.33688 34.4633 6.33688 32.47C6.33688 30.4833 5.37021 29.49 3.43688 29.49H1.82688V35.46ZM8.33086 29.87V29.1H9.15086V29.87H8.33086ZM8.43086 36V31.15H9.04086V36H8.43086ZM12.2277 36.08C11.8677 36.08 11.521 36.0267 11.1877 35.92C10.861 35.8133 10.591 35.66 10.3777 35.46L10.5977 35.01C10.8443 35.21 11.1077 35.3567 11.3877 35.45C11.6677 35.5367 11.9543 35.58 12.2477 35.58C12.661 35.58 12.971 35.5067 13.1777 35.36C13.391 35.2067 13.4977 34.9967 13.4977 34.73C13.4977 34.5233 13.4277 34.36 13.2877 34.24C13.1477 34.12 12.9277 34.0233 12.6277 33.95L11.7577 33.75C10.9377 33.5633 10.5277 33.14 10.5277 32.48C10.5277 32.0533 10.6943 31.71 11.0277 31.45C11.361 31.19 11.801 31.06 12.3477 31.06C12.681 31.06 12.9943 31.1167 13.2877 31.23C13.581 31.3367 13.821 31.4933 14.0077 31.7L13.7677 32.15C13.5743 31.9567 13.3543 31.8133 13.1077 31.72C12.861 31.62 12.6043 31.57 12.3377 31.57C11.951 31.57 11.651 31.65 11.4377 31.81C11.231 31.97 11.1277 32.1867 11.1277 32.46C11.1277 32.6667 11.191 32.8333 11.3177 32.96C11.4443 33.0867 11.651 33.1833 11.9377 33.25L12.8077 33.45C13.241 33.55 13.5643 33.7 13.7777 33.9C13.991 34.0933 14.0977 34.3567 14.0977 34.69C14.0977 35.1233 13.9277 35.4633 13.5877 35.71C13.2477 35.9567 12.7943 36.08 12.2277 36.08ZM17.2042 36.08C16.6642 36.08 16.2576 35.9333 15.9842 35.64C15.7176 35.3467 15.5842 34.9267 15.5842 34.38V31.64H14.6242V31.15H15.5842V29.65H16.1942V31.15H17.7642V31.64H16.1942V34.3C16.1942 34.7067 16.2776 35.0167 16.4442 35.23C16.6109 35.4433 16.8876 35.55 17.2742 35.55C17.3876 35.55 17.4976 35.5367 17.6042 35.51C17.7109 35.4833 17.8042 35.4533 17.8842 35.42L18.0042 35.9C17.9309 35.9467 17.8142 35.9867 17.6542 36.02C17.4942 36.06 17.3442 36.08 17.2042 36.08ZM20.2238 36.08C19.8972 36.08 19.6038 36.0167 19.3438 35.89C19.0905 35.7633 18.8872 35.59 18.7338 35.37C18.5872 35.15 18.5138 34.9033 18.5138 34.63C18.5138 34.27 18.6038 33.99 18.7838 33.79C18.9638 33.5833 19.2672 33.4367 19.6938 33.35C20.1205 33.2633 20.7072 33.22 21.4538 33.22H21.7638V32.86C21.7638 32.4133 21.6738 32.09 21.4938 31.89C21.3138 31.6833 21.0272 31.58 20.6338 31.58C20.3405 31.58 20.0572 31.6233 19.7838 31.71C19.5172 31.7967 19.2405 31.9333 18.9538 32.12L18.7138 31.65C18.9672 31.47 19.2672 31.3267 19.6138 31.22C19.9605 31.1133 20.2972 31.06 20.6238 31.06C21.2105 31.06 21.6438 31.21 21.9238 31.51C22.2105 31.81 22.3538 32.27 22.3538 32.89V36H21.7738V35.13C21.6405 35.43 21.4372 35.6633 21.1638 35.83C20.8972 35.9967 20.5838 36.08 20.2238 36.08ZM20.3038 35.59C20.5905 35.59 20.8405 35.5233 21.0538 35.39C21.2738 35.25 21.4472 35.06 21.5738 34.82C21.7005 34.58 21.7638 34.3067 21.7638 34V33.67H21.4638C20.8638 33.67 20.3938 33.6967 20.0538 33.75C19.7205 33.8033 19.4872 33.8967 19.3538 34.03C19.2205 34.1633 19.1538 34.3467 19.1538 34.58C19.1538 34.88 19.2572 35.1233 19.4638 35.31C19.6705 35.4967 19.9505 35.59 20.3038 35.59ZM25.3584 36.08C24.9051 36.08 24.5551 35.9433 24.3084 35.67C24.0684 35.39 23.9484 34.99 23.9484 34.47V28.95H24.5584V34.4C24.5584 35.1667 24.8584 35.55 25.4584 35.55C25.6251 35.55 25.7784 35.53 25.9184 35.49L25.8984 36.02C25.7051 36.06 25.5251 36.08 25.3584 36.08Z" fill="black"/>
</svg>
