<svg width="35" height="43" viewBox="0 0 35 43" fill="none" xmlns="http://www.w3.org/2000/svg">
<path d="M0.959063 36V28.95H5.29906V29.48H1.55906V32.16H5.08906V32.69H1.55906V35.47H5.29906V36H0.959063ZM8.53195 36.08C8.05862 36.08 7.65195 35.9767 7.31195 35.77C6.97195 35.5567 6.70862 35.26 6.52195 34.88C6.34195 34.4933 6.25195 34.0467 6.25195 33.54C6.25195 32.7733 6.45195 32.17 6.85195 31.73C7.25862 31.2833 7.81862 31.06 8.53195 31.06C8.82529 31.06 9.11529 31.1167 9.40195 31.23C9.68862 31.3433 9.92862 31.5 10.122 31.7L9.88195 32.16C9.67529 31.96 9.45529 31.8167 9.22195 31.73C8.98862 31.6367 8.76529 31.59 8.55195 31.59C8.01195 31.59 7.59529 31.76 7.30195 32.1C7.01529 32.44 6.87195 32.9233 6.87195 33.55C6.87195 34.1767 7.01529 34.67 7.30195 35.03C7.59529 35.3833 8.01195 35.56 8.55195 35.56C8.76529 35.56 8.98862 35.5167 9.22195 35.43C9.45529 35.3367 9.67529 35.19 9.88195 34.99L10.122 35.45C9.92862 35.6433 9.68529 35.7967 9.39195 35.91C9.10529 36.0233 8.81862 36.08 8.53195 36.08ZM11.1418 36V28.95H11.7518V31.99C11.9185 31.6833 12.1485 31.4533 12.4418 31.3C12.7418 31.14 13.0718 31.06 13.4318 31.06C14.5851 31.06 15.1618 31.6867 15.1618 32.94V36H14.5518V32.99C14.5518 32.51 14.4551 32.1567 14.2618 31.93C14.0685 31.7033 13.7618 31.59 13.3418 31.59C12.8618 31.59 12.4751 31.74 12.1818 32.04C11.8951 32.3333 11.7518 32.73 11.7518 33.23V36H11.1418ZM18.6675 36.08C18.2142 36.08 17.8208 35.98 17.4875 35.78C17.1542 35.5733 16.8942 35.2833 16.7075 34.91C16.5275 34.53 16.4375 34.0833 16.4375 33.57C16.4375 33.0633 16.5275 32.6233 16.7075 32.25C16.8942 31.87 17.1542 31.5767 17.4875 31.37C17.8208 31.1633 18.2142 31.06 18.6675 31.06C19.1275 31.06 19.5242 31.1633 19.8575 31.37C20.1908 31.5767 20.4475 31.87 20.6275 32.25C20.8142 32.6233 20.9075 33.0633 20.9075 33.57C20.9075 34.0833 20.8142 34.53 20.6275 34.91C20.4475 35.2833 20.1908 35.5733 19.8575 35.78C19.5242 35.98 19.1275 36.08 18.6675 36.08ZM18.6675 35.57C19.1608 35.57 19.5542 35.3967 19.8475 35.05C20.1408 34.6967 20.2875 34.2033 20.2875 33.57C20.2875 32.9367 20.1408 32.4467 19.8475 32.1C19.5542 31.7533 19.1608 31.58 18.6675 31.58C18.1742 31.58 17.7808 31.7533 17.4875 32.1C17.2008 32.4467 17.0575 32.9367 17.0575 33.57C17.0575 34.2033 17.2008 34.6967 17.4875 35.05C17.7808 35.3967 18.1742 35.57 18.6675 35.57ZM22.1063 29.87V29.1H22.9263V29.87H22.1063ZM22.2063 36V31.15H22.8163V36H22.2063ZM24.423 36V31.15H25.023V32.02C25.183 31.7 25.413 31.46 25.713 31.3C26.013 31.14 26.3464 31.06 26.713 31.06C27.8664 31.06 28.443 31.6867 28.443 32.94V36H27.833V32.99C27.833 32.51 27.7364 32.1567 27.543 31.93C27.3497 31.7033 27.043 31.59 26.623 31.59C26.143 31.59 25.7564 31.74 25.463 32.04C25.1764 32.3333 25.033 32.73 25.033 33.23V36H24.423ZM32.1288 37.88C31.2821 37.88 30.5788 37.6567 30.0188 37.21L30.2488 36.75C30.5554 36.97 30.8521 37.1267 31.1388 37.22C31.4254 37.32 31.7488 37.37 32.1088 37.37C32.5954 37.37 32.9654 37.2367 33.2188 36.97C33.4721 36.7033 33.5988 36.3167 33.5988 35.81V34.87C33.4588 35.19 33.2354 35.44 32.9288 35.62C32.6288 35.8 32.2854 35.89 31.8988 35.89C31.4454 35.89 31.0554 35.79 30.7288 35.59C30.4088 35.3833 30.1588 35.1 29.9788 34.74C29.8054 34.3733 29.7188 33.95 29.7188 33.47C29.7188 32.99 29.8054 32.57 29.9788 32.21C30.1588 31.85 30.4088 31.57 30.7288 31.37C31.0554 31.1633 31.4454 31.06 31.8988 31.06C32.2854 31.06 32.6288 31.15 32.9288 31.33C33.2288 31.51 33.4488 31.7567 33.5888 32.07V31.15H34.1888V35.72C34.1888 37.16 33.5021 37.88 32.1288 37.88ZM31.9688 35.37C32.4688 35.37 32.8654 35.2 33.1588 34.86C33.4521 34.5133 33.5988 34.05 33.5988 33.47C33.5988 32.89 33.4521 32.43 33.1588 32.09C32.8654 31.75 32.4688 31.58 31.9688 31.58C31.4621 31.58 31.0621 31.75 30.7688 32.09C30.4821 32.43 30.3388 32.89 30.3388 33.47C30.3388 34.05 30.4821 34.5133 30.7688 34.86C31.0621 35.2 31.4621 35.37 31.9688 35.37Z" fill="black"/>
<path d="M17 1L17 10" stroke="black" stroke-width="1.1" stroke-linecap="round"/>
<path d="M17 13L17 22" stroke="black" stroke-width="1.1" stroke-linecap="round"/>
</svg>
