<svg width="38" height="44" viewBox="0 0 38 44" fill="none" xmlns="http://www.w3.org/2000/svg">
<path d="M1.67391 37V29.95H6.01391V30.48H2.27391V33.16H5.80391V33.69H2.27391V36.47H6.01391V37H1.67391ZM8.72563 37.08C8.27229 37.08 7.92229 36.9433 7.67563 36.67C7.43563 36.39 7.31563 35.99 7.31563 35.47V29.95H7.92563V35.4C7.92563 36.1667 8.22563 36.55 8.82563 36.55C8.99229 36.55 9.14563 36.53 9.28563 36.49L9.26563 37.02C9.07229 37.06 8.89229 37.08 8.72563 37.08ZM12.4772 37.08C12.0839 37.08 11.7372 36.9933 11.4372 36.82C11.1439 36.64 10.9239 36.3933 10.7772 36.08V37H10.1672V29.95H10.7772V33.05C10.9239 32.7433 11.1439 32.5033 11.4372 32.33C11.7372 32.15 12.0839 32.06 12.4772 32.06C13.1305 32.06 13.6505 32.2867 14.0372 32.74C14.4305 33.1933 14.6272 33.8033 14.6272 34.57C14.6272 35.0833 14.5372 35.53 14.3572 35.91C14.1839 36.2833 13.9339 36.5733 13.6072 36.78C13.2872 36.98 12.9105 37.08 12.4772 37.08ZM12.3872 36.57C12.8805 36.57 13.2739 36.3967 13.5672 36.05C13.8605 35.6967 14.0072 35.2033 14.0072 34.57C14.0072 33.9367 13.8605 33.4467 13.5672 33.1C13.2739 32.7533 12.8805 32.58 12.3872 32.58C11.8939 32.58 11.5005 32.7533 11.2072 33.1C10.9139 33.4467 10.7672 33.9367 10.7672 34.57C10.7672 35.2033 10.9139 35.6967 11.2072 36.05C11.5005 36.3967 11.8939 36.57 12.3872 36.57ZM17.8491 37.08C17.3958 37.08 17.0025 36.98 16.6691 36.78C16.3358 36.5733 16.0758 36.2833 15.8891 35.91C15.7091 35.53 15.6191 35.0833 15.6191 34.57C15.6191 34.0633 15.7091 33.6233 15.8891 33.25C16.0758 32.87 16.3358 32.5767 16.6691 32.37C17.0025 32.1633 17.3958 32.06 17.8491 32.06C18.3091 32.06 18.7058 32.1633 19.0391 32.37C19.3725 32.5767 19.6291 32.87 19.8091 33.25C19.9958 33.6233 20.0891 34.0633 20.0891 34.57C20.0891 35.0833 19.9958 35.53 19.8091 35.91C19.6291 36.2833 19.3725 36.5733 19.0391 36.78C18.7058 36.98 18.3091 37.08 17.8491 37.08ZM17.8491 36.57C18.3425 36.57 18.7358 36.3967 19.0291 36.05C19.3225 35.6967 19.4691 35.2033 19.4691 34.57C19.4691 33.9367 19.3225 33.4467 19.0291 33.1C18.7358 32.7533 18.3425 32.58 17.8491 32.58C17.3558 32.58 16.9625 32.7533 16.6691 33.1C16.3825 33.4467 16.2391 33.9367 16.2391 34.57C16.2391 35.2033 16.3825 35.6967 16.6691 36.05C16.9625 36.3967 17.3558 36.57 17.8491 36.57ZM22.6093 37L20.8493 32.15H21.4993L22.9293 36.28L24.4193 32.15H25.0193L26.4793 36.29L27.9393 32.15H28.5693L26.7993 37H26.1693L24.7093 32.94L23.2393 37H22.6093ZM32.3087 37V29.95H34.9687C35.722 29.95 36.2953 30.1233 36.6887 30.47C37.0887 30.8167 37.2887 31.31 37.2887 31.95C37.2887 32.4767 37.1453 32.9033 36.8587 33.23C36.572 33.5567 36.1653 33.7667 35.6387 33.86C35.9253 33.9667 36.1787 34.2267 36.3987 34.64L37.6787 37H37.0087L35.7887 34.74C35.6153 34.4267 35.422 34.2167 35.2087 34.11C34.9953 34.0033 34.7087 33.95 34.3487 33.95H32.9187V37H32.3087ZM32.9187 33.43H34.8887C36.0753 33.43 36.6687 32.9367 36.6687 31.95C36.6687 30.97 36.0753 30.48 34.8887 30.48H32.9187V33.43Z" fill="black"/>
<path d="M16 2L16 17" stroke="black" stroke-width="1.1" stroke-linecap="round" stroke-linejoin="round"/>
<path d="M21 7L16 2" stroke="black" stroke-width="1.1" stroke-linecap="round" stroke-linejoin="round"/>
<path d="M21 22L16 17" stroke="black" stroke-width="1.1" stroke-linecap="round" stroke-linejoin="round"/>
</svg>
