<svg width="43" height="39" viewBox="0 0 43 39" fill="none" xmlns="http://www.w3.org/2000/svg">
<path d="M1.35164 32V24.95H5.69164V25.48H1.95164V28.16H5.48164V28.69H1.95164V31.47H5.69164V32H1.35164ZM7.01336 32V27.15H7.61336V28C7.91336 27.3733 8.42336 27.06 9.14336 27.06C9.91669 27.06 10.4067 27.3967 10.6134 28.07C10.7534 27.7567 10.9667 27.51 11.2534 27.33C11.54 27.15 11.8734 27.06 12.2534 27.06C13.3267 27.06 13.8634 27.6867 13.8634 28.94V32H13.2534V28.99C13.2534 28.51 13.1667 28.1567 12.9934 27.93C12.8267 27.7033 12.5434 27.59 12.1434 27.59C11.7167 27.59 11.3767 27.74 11.1234 28.04C10.87 28.3333 10.7434 28.7333 10.7434 29.24V32H10.1334V28.99C10.1334 28.51 10.0467 28.1567 9.87336 27.93C9.70669 27.7033 9.42669 27.59 9.03336 27.59C8.60003 27.59 8.25669 27.74 8.00336 28.04C7.75003 28.3333 7.62336 28.7333 7.62336 29.24V32H7.01336ZM15.4602 33.8V27.15H16.0702V28.06C16.2168 27.7533 16.4368 27.51 16.7302 27.33C17.0302 27.15 17.3768 27.06 17.7702 27.06C18.2035 27.06 18.5802 27.1633 18.9002 27.37C19.2268 27.5767 19.4768 27.8667 19.6502 28.24C19.8302 28.6133 19.9202 29.0567 19.9202 29.57C19.9202 30.0833 19.8302 30.53 19.6502 30.91C19.4768 31.2833 19.2268 31.5733 18.9002 31.78C18.5802 31.98 18.2035 32.08 17.7702 32.08C17.3768 32.08 17.0302 31.9933 16.7302 31.82C16.4368 31.6467 16.2168 31.4067 16.0702 31.1V33.8H15.4602ZM17.6802 31.57C18.1735 31.57 18.5668 31.3967 18.8602 31.05C19.1535 30.6967 19.3002 30.2033 19.3002 29.57C19.3002 28.9367 19.1535 28.4467 18.8602 28.1C18.5668 27.7533 18.1735 27.58 17.6802 27.58C17.1868 27.58 16.7935 27.7533 16.5002 28.1C16.2068 28.4467 16.0602 28.9367 16.0602 29.57C16.0602 30.2033 16.2068 30.6967 16.5002 31.05C16.7935 31.3967 17.1868 31.57 17.6802 31.57ZM21.2121 32V24.95H21.8221V27.99C21.9888 27.6833 22.2188 27.4533 22.5121 27.3C22.8121 27.14 23.1421 27.06 23.5021 27.06C24.6554 27.06 25.2321 27.6867 25.2321 28.94V32H24.6221V28.99C24.6221 28.51 24.5254 28.1567 24.3321 27.93C24.1388 27.7033 23.8321 27.59 23.4121 27.59C22.9321 27.59 22.5454 27.74 22.2521 28.04C21.9654 28.3333 21.8221 28.73 21.8221 29.23V32H21.2121ZM28.3078 32.08C27.9811 32.08 27.6878 32.0167 27.4278 31.89C27.1745 31.7633 26.9711 31.59 26.8178 31.37C26.6711 31.15 26.5978 30.9033 26.5978 30.63C26.5978 30.27 26.6878 29.99 26.8678 29.79C27.0478 29.5833 27.3511 29.4367 27.7778 29.35C28.2045 29.2633 28.7911 29.22 29.5378 29.22H29.8478V28.86C29.8478 28.4133 29.7578 28.09 29.5778 27.89C29.3978 27.6833 29.1111 27.58 28.7178 27.58C28.4245 27.58 28.1411 27.6233 27.8678 27.71C27.6011 27.7967 27.3245 27.9333 27.0378 28.12L26.7978 27.65C27.0511 27.47 27.3511 27.3267 27.6978 27.22C28.0445 27.1133 28.3811 27.06 28.7078 27.06C29.2945 27.06 29.7278 27.21 30.0078 27.51C30.2945 27.81 30.4378 28.27 30.4378 28.89V32H29.8578V31.13C29.7245 31.43 29.5211 31.6633 29.2478 31.83C28.9811 31.9967 28.6678 32.08 28.3078 32.08ZM28.3878 31.59C28.6745 31.59 28.9245 31.5233 29.1378 31.39C29.3578 31.25 29.5311 31.06 29.6578 30.82C29.7845 30.58 29.8478 30.3067 29.8478 30V29.67H29.5478C28.9478 29.67 28.4778 29.6967 28.1378 29.75C27.8045 29.8033 27.5711 29.8967 27.4378 30.03C27.3045 30.1633 27.2378 30.3467 27.2378 30.58C27.2378 30.88 27.3411 31.1233 27.5478 31.31C27.7545 31.4967 28.0345 31.59 28.3878 31.59ZM33.6124 32.08C33.2524 32.08 32.9058 32.0267 32.5724 31.92C32.2458 31.8133 31.9758 31.66 31.7624 31.46L31.9824 31.01C32.2291 31.21 32.4924 31.3567 32.7724 31.45C33.0524 31.5367 33.3391 31.58 33.6324 31.58C34.0458 31.58 34.3558 31.5067 34.5624 31.36C34.7758 31.2067 34.8824 30.9967 34.8824 30.73C34.8824 30.5233 34.8124 30.36 34.6724 30.24C34.5324 30.12 34.3124 30.0233 34.0124 29.95L33.1424 29.75C32.3224 29.5633 31.9124 29.14 31.9124 28.48C31.9124 28.0533 32.0791 27.71 32.4124 27.45C32.7458 27.19 33.1858 27.06 33.7324 27.06C34.0658 27.06 34.3791 27.1167 34.6724 27.23C34.9658 27.3367 35.2058 27.4933 35.3924 27.7L35.1524 28.15C34.9591 27.9567 34.7391 27.8133 34.4924 27.72C34.2458 27.62 33.9891 27.57 33.7224 27.57C33.3358 27.57 33.0358 27.65 32.8224 27.81C32.6158 27.97 32.5124 28.1867 32.5124 28.46C32.5124 28.6667 32.5758 28.8333 32.7024 28.96C32.8291 29.0867 33.0358 29.1833 33.3224 29.25L34.1924 29.45C34.6258 29.55 34.9491 29.7 35.1624 29.9C35.3758 30.0933 35.4824 30.3567 35.4824 30.69C35.4824 31.1233 35.3124 31.4633 34.9724 31.71C34.6324 31.9567 34.1791 32.08 33.6124 32.08ZM36.7078 25.87V25.1H37.5278V25.87H36.7078ZM36.8078 32V27.15H37.4178V32H36.8078ZM40.6046 32.08C40.2446 32.08 39.8979 32.0267 39.5646 31.92C39.2379 31.8133 38.9679 31.66 38.7546 31.46L38.9746 31.01C39.2213 31.21 39.4846 31.3567 39.7646 31.45C40.0446 31.5367 40.3313 31.58 40.6246 31.58C41.0379 31.58 41.3479 31.5067 41.5546 31.36C41.7679 31.2067 41.8746 30.9967 41.8746 30.73C41.8746 30.5233 41.8046 30.36 41.6646 30.24C41.5246 30.12 41.3046 30.0233 41.0046 29.95L40.1346 29.75C39.3146 29.5633 38.9046 29.14 38.9046 28.48C38.9046 28.0533 39.0713 27.71 39.4046 27.45C39.7379 27.19 40.1779 27.06 40.7246 27.06C41.0579 27.06 41.3713 27.1167 41.6646 27.23C41.9579 27.3367 42.1979 27.4933 42.3846 27.7L42.1446 28.15C41.9513 27.9567 41.7313 27.8133 41.4846 27.72C41.2379 27.62 40.9813 27.57 40.7146 27.57C40.3279 27.57 40.0279 27.65 39.8146 27.81C39.6079 27.97 39.5046 28.1867 39.5046 28.46C39.5046 28.6667 39.5679 28.8333 39.6946 28.96C39.8213 29.0867 40.0279 29.1833 40.3146 29.25L41.1846 29.45C41.6179 29.55 41.9413 29.7 42.1546 29.9C42.3679 30.0933 42.4746 30.3567 42.4746 30.69C42.4746 31.1233 42.3046 31.4633 41.9646 31.71C41.6246 31.9567 41.1713 32.08 40.6046 32.08Z" fill="black"/>
<path d="M24.1213 14L22 16.1213L24.1213 18.2426" stroke="black" stroke-width="1.1" stroke-linecap="round" stroke-linejoin="round"/>
</svg>
