<svg width="30" height="44" viewBox="0 0 30 44" fill="none" xmlns="http://www.w3.org/2000/svg">
<g clip-path="url(#clip0_1863_18295)">
<circle cx="15" cy="12" r="7" stroke="black" stroke-width="1.1"/>
<circle cx="15" cy="12" r="10" transform="rotate(30 15 12)" stroke="black" stroke-width="1.1" stroke-linecap="round" stroke-dasharray="1 4"/>
</g>
<path d="M1.11531 37V29.95H5.45531V30.48H1.71531V33.16H5.24531V33.69H1.71531V36.47H5.45531V37H1.11531ZM6.17703 37L8.17703 34.49L6.28703 32.15H7.01703L8.53703 34.07L10.067 32.15H10.787L8.89703 34.5L10.907 37H10.167L8.53703 34.95L6.89703 37H6.17703ZM11.9035 37V29.95H12.5135V32.99C12.6802 32.6833 12.9102 32.4533 13.2035 32.3C13.5035 32.14 13.8335 32.06 14.1935 32.06C15.3468 32.06 15.9235 32.6867 15.9235 33.94V37H15.3135V33.99C15.3135 33.51 15.2168 33.1567 15.0235 32.93C14.8302 32.7033 14.5235 32.59 14.1035 32.59C13.6235 32.59 13.2368 32.74 12.9435 33.04C12.6568 33.3333 12.5135 33.73 12.5135 34.23V37H11.9035ZM18.9992 37.08C18.6726 37.08 18.3792 37.0167 18.1192 36.89C17.8659 36.7633 17.6626 36.59 17.5092 36.37C17.3626 36.15 17.2892 35.9033 17.2892 35.63C17.2892 35.27 17.3792 34.99 17.5592 34.79C17.7392 34.5833 18.0426 34.4367 18.4692 34.35C18.8959 34.2633 19.4826 34.22 20.2292 34.22H20.5392V33.86C20.5392 33.4133 20.4492 33.09 20.2692 32.89C20.0892 32.6833 19.8026 32.58 19.4092 32.58C19.1159 32.58 18.8326 32.6233 18.5592 32.71C18.2926 32.7967 18.0159 32.9333 17.7292 33.12L17.4892 32.65C17.7426 32.47 18.0426 32.3267 18.3892 32.22C18.7359 32.1133 19.0726 32.06 19.3992 32.06C19.9859 32.06 20.4192 32.21 20.6992 32.51C20.9859 32.81 21.1292 33.27 21.1292 33.89V37H20.5492V36.13C20.4159 36.43 20.2126 36.6633 19.9392 36.83C19.6726 36.9967 19.3592 37.08 18.9992 37.08ZM19.0792 36.59C19.3659 36.59 19.6159 36.5233 19.8292 36.39C20.0492 36.25 20.2226 36.06 20.3492 35.82C20.4759 35.58 20.5392 35.3067 20.5392 35V34.67H20.2392C19.6392 34.67 19.1692 34.6967 18.8292 34.75C18.4959 34.8033 18.2626 34.8967 18.1292 35.03C17.9959 35.1633 17.9292 35.3467 17.9292 35.58C17.9292 35.88 18.0326 36.1233 18.2392 36.31C18.4459 36.4967 18.7259 36.59 19.0792 36.59ZM24.1338 37.08C23.6805 37.08 23.3305 36.9433 23.0838 36.67C22.8438 36.39 22.7238 35.99 22.7238 35.47V29.95H23.3338V35.4C23.3338 36.1667 23.6338 36.55 24.2338 36.55C24.4005 36.55 24.5538 36.53 24.6938 36.49L24.6738 37.02C24.4805 37.06 24.3005 37.08 24.1338 37.08ZM27.6366 37.08C26.8899 37.08 26.2999 36.86 25.8666 36.42C25.4399 35.9733 25.2266 35.3633 25.2266 34.59C25.2266 34.09 25.3232 33.65 25.5166 33.27C25.7099 32.89 25.9766 32.5933 26.3166 32.38C26.6632 32.1667 27.0599 32.06 27.5066 32.06C28.1532 32.06 28.6566 32.27 29.0166 32.69C29.3766 33.11 29.5566 33.6867 29.5566 34.42V34.7H25.8266C25.8466 35.3 26.0099 35.7633 26.3166 36.09C26.6299 36.41 27.0632 36.57 27.6166 36.57C27.9166 36.57 28.1966 36.5233 28.4566 36.43C28.7232 36.3367 28.9832 36.18 29.2366 35.96L29.4766 36.42C29.2632 36.6267 28.9899 36.79 28.6566 36.91C28.3232 37.0233 27.9832 37.08 27.6366 37.08ZM27.5166 32.55C27.0099 32.55 26.6132 32.71 26.3266 33.03C26.0466 33.3433 25.8832 33.75 25.8366 34.25H29.0066C28.9932 33.7167 28.8599 33.3 28.6066 33C28.3532 32.7 27.9899 32.55 27.5166 32.55Z" fill="black"/>
<defs>
<clipPath id="clip0_1863_18295">
<rect width="24" height="24" fill="white" transform="translate(3)"/>
</clipPath>
</defs>
</svg>
