<svg width="34" height="39" viewBox="0 0 34 39" fill="none" xmlns="http://www.w3.org/2000/svg">
<path d="M1.68758 32V24.95H6.02758V25.48H2.28758V28.16H5.81758V28.69H2.28758V31.47H6.02758V32H1.68758ZM6.7493 32L8.7493 29.49L6.8593 27.15H7.5893L9.1093 29.07L10.6393 27.15H11.3593L9.4693 29.5L11.4793 32H10.7393L9.1093 29.95L7.4693 32H6.7493ZM12.4758 33.8V27.15H13.0858V28.06C13.2324 27.7533 13.4524 27.51 13.7458 27.33C14.0458 27.15 14.3924 27.06 14.7858 27.06C15.2191 27.06 15.5958 27.1633 15.9158 27.37C16.2424 27.5767 16.4924 27.8667 16.6658 28.24C16.8458 28.6133 16.9358 29.0567 16.9358 29.57C16.9358 30.0833 16.8458 30.53 16.6658 30.91C16.4924 31.2833 16.2424 31.5733 15.9158 31.78C15.5958 31.98 15.2191 32.08 14.7858 32.08C14.3924 32.08 14.0458 31.9933 13.7458 31.82C13.4524 31.6467 13.2324 31.4067 13.0858 31.1V33.8H12.4758ZM14.6958 31.57C15.1891 31.57 15.5824 31.3967 15.8758 31.05C16.1691 30.6967 16.3158 30.2033 16.3158 29.57C16.3158 28.9367 16.1691 28.4467 15.8758 28.1C15.5824 27.7533 15.1891 27.58 14.6958 27.58C14.2024 27.58 13.8091 27.7533 13.5158 28.1C13.2224 28.4467 13.0758 28.9367 13.0758 29.57C13.0758 30.2033 13.2224 30.6967 13.5158 31.05C13.8091 31.3967 14.2024 31.57 14.6958 31.57ZM19.7277 32.08C19.4011 32.08 19.1077 32.0167 18.8477 31.89C18.5944 31.7633 18.3911 31.59 18.2377 31.37C18.0911 31.15 18.0177 30.9033 18.0177 30.63C18.0177 30.27 18.1077 29.99 18.2877 29.79C18.4677 29.5833 18.7711 29.4367 19.1977 29.35C19.6244 29.2633 20.2111 29.22 20.9577 29.22H21.2677V28.86C21.2677 28.4133 21.1777 28.09 20.9977 27.89C20.8177 27.6833 20.5311 27.58 20.1377 27.58C19.8444 27.58 19.5611 27.6233 19.2877 27.71C19.0211 27.7967 18.7444 27.9333 18.4577 28.12L18.2177 27.65C18.4711 27.47 18.7711 27.3267 19.1177 27.22C19.4644 27.1133 19.8011 27.06 20.1277 27.06C20.7144 27.06 21.1477 27.21 21.4277 27.51C21.7144 27.81 21.8577 28.27 21.8577 28.89V32H21.2777V31.13C21.1444 31.43 20.9411 31.6633 20.6677 31.83C20.4011 31.9967 20.0877 32.08 19.7277 32.08ZM19.8077 31.59C20.0944 31.59 20.3444 31.5233 20.5577 31.39C20.7777 31.25 20.9511 31.06 21.0777 30.82C21.2044 30.58 21.2677 30.3067 21.2677 30V29.67H20.9677C20.3677 29.67 19.8977 29.6967 19.5577 29.75C19.2244 29.8033 18.9911 29.8967 18.8577 30.03C18.7244 30.1633 18.6577 30.3467 18.6577 30.58C18.6577 30.88 18.7611 31.1233 18.9677 31.31C19.1744 31.4967 19.4544 31.59 19.8077 31.59ZM23.4523 32V27.15H24.0523V28.02C24.2123 27.7 24.4423 27.46 24.7423 27.3C25.0423 27.14 25.3757 27.06 25.7423 27.06C26.8957 27.06 27.4723 27.6867 27.4723 28.94V32H26.8623V28.99C26.8623 28.51 26.7657 28.1567 26.5723 27.93C26.379 27.7033 26.0723 27.59 25.6523 27.59C25.1723 27.59 24.7857 27.74 24.4923 28.04C24.2057 28.3333 24.0623 28.73 24.0623 29.23V32H23.4523ZM30.898 32.08C30.458 32.08 30.078 31.98 29.758 31.78C29.438 31.5733 29.188 31.2833 29.008 30.91C28.8347 30.53 28.748 30.0833 28.748 29.57C28.748 28.8033 28.9414 28.1933 29.328 27.74C29.7147 27.2867 30.238 27.06 30.898 27.06C31.2847 27.06 31.6247 27.15 31.918 27.33C32.218 27.5033 32.4414 27.7433 32.588 28.05V24.95H33.198V32H32.598V31.08C32.4514 31.3933 32.228 31.64 31.928 31.82C31.6347 31.9933 31.2914 32.08 30.898 32.08ZM30.978 31.57C31.4714 31.57 31.8647 31.3967 32.158 31.05C32.4514 30.6967 32.598 30.2033 32.598 29.57C32.598 28.9367 32.4514 28.4467 32.158 28.1C31.8647 27.7533 31.4714 27.58 30.978 27.58C30.4847 27.58 30.0914 27.7533 29.798 28.1C29.5114 28.4467 29.368 28.9367 29.368 29.57C29.368 30.2033 29.5114 30.6967 29.798 31.05C30.0914 31.3967 30.4847 31.57 30.978 31.57Z" fill="black"/>
<g style="mix-blend-mode:multiply">
<path d="M11 5.5C11 9.54128 11 15.3194 11 17.797C11 18.2424 11.5386 18.4614 11.8536 18.1464L24.1464 5.85355C24.4614 5.53857 25 5.76165 25 6.20711V18.5" stroke="black" stroke-width="1.1" stroke-linecap="round" stroke-linejoin="round"/>
</g>
</svg>
