<svg width="42" height="44" viewBox="0 0 42 44" fill="none" xmlns="http://www.w3.org/2000/svg">
<path d="M1.36727 37V29.95H5.60727V30.48H1.97727V33.17H5.40727V33.7H1.97727V37H1.36727ZM6.56719 30.87V30.1H7.38719V30.87H6.56719ZM6.66719 37V32.15H7.27719V37H6.66719ZM8.88398 37V32.15H9.48398V33.02C9.64398 32.7 9.87398 32.46 10.174 32.3C10.474 32.14 10.8073 32.06 11.174 32.06C12.3273 32.06 12.904 32.6867 12.904 33.94V37H12.294V33.99C12.294 33.51 12.1973 33.1567 12.004 32.93C11.8107 32.7033 11.504 32.59 11.084 32.59C10.604 32.59 10.2173 32.74 9.92398 33.04C9.63732 33.3333 9.49398 33.73 9.49398 34.23V37H8.88398ZM16.5897 38.88C15.743 38.88 15.0397 38.6567 14.4797 38.21L14.7097 37.75C15.0164 37.97 15.313 38.1267 15.5997 38.22C15.8864 38.32 16.2097 38.37 16.5697 38.37C17.0564 38.37 17.4264 38.2367 17.6797 37.97C17.933 37.7033 18.0597 37.3167 18.0597 36.81V35.87C17.9197 36.19 17.6964 36.44 17.3897 36.62C17.0897 36.8 16.7464 36.89 16.3597 36.89C15.9064 36.89 15.5164 36.79 15.1897 36.59C14.8697 36.3833 14.6197 36.1 14.4397 35.74C14.2664 35.3733 14.1797 34.95 14.1797 34.47C14.1797 33.99 14.2664 33.57 14.4397 33.21C14.6197 32.85 14.8697 32.57 15.1897 32.37C15.5164 32.1633 15.9064 32.06 16.3597 32.06C16.7464 32.06 17.0897 32.15 17.3897 32.33C17.6897 32.51 17.9097 32.7567 18.0497 33.07V32.15H18.6497V36.72C18.6497 38.16 17.963 38.88 16.5897 38.88ZM16.4297 36.37C16.9297 36.37 17.3264 36.2 17.6197 35.86C17.913 35.5133 18.0597 35.05 18.0597 34.47C18.0597 33.89 17.913 33.43 17.6197 33.09C17.3264 32.75 16.9297 32.58 16.4297 32.58C15.923 32.58 15.523 32.75 15.2297 33.09C14.943 33.43 14.7997 33.89 14.7997 34.47C14.7997 35.05 14.943 35.5133 15.2297 35.86C15.523 36.2 15.923 36.37 16.4297 36.37ZM22.3709 37.08C21.6243 37.08 21.0343 36.86 20.6009 36.42C20.1743 35.9733 19.9609 35.3633 19.9609 34.59C19.9609 34.09 20.0576 33.65 20.2509 33.27C20.4443 32.89 20.7109 32.5933 21.0509 32.38C21.3976 32.1667 21.7943 32.06 22.2409 32.06C22.8876 32.06 23.3909 32.27 23.7509 32.69C24.1109 33.11 24.2909 33.6867 24.2909 34.42V34.7H20.5609C20.5809 35.3 20.7443 35.7633 21.0509 36.09C21.3643 36.41 21.7976 36.57 22.3509 36.57C22.6509 36.57 22.9309 36.5233 23.1909 36.43C23.4576 36.3367 23.7176 36.18 23.9709 35.96L24.2109 36.42C23.9976 36.6267 23.7243 36.79 23.3909 36.91C23.0576 37.0233 22.7176 37.08 22.3709 37.08ZM22.2509 32.55C21.7443 32.55 21.3476 32.71 21.0609 33.03C20.7809 33.3433 20.6176 33.75 20.5709 34.25H23.7409C23.7276 33.7167 23.5943 33.3 23.3409 33C23.0876 32.7 22.7243 32.55 22.2509 32.55ZM25.5344 37V32.15H26.1344V33.03C26.2744 32.7233 26.4777 32.49 26.7444 32.33C27.011 32.17 27.351 32.0767 27.7644 32.05L28.0144 32.03L28.0744 32.56L27.6444 32.61C27.171 32.65 26.8044 32.8067 26.5444 33.08C26.2844 33.3467 26.1544 33.7067 26.1544 34.16V37H25.5344ZM30.4835 37.08C30.1235 37.08 29.7768 37.0267 29.4435 36.92C29.1168 36.8133 28.8468 36.66 28.6335 36.46L28.8535 36.01C29.1002 36.21 29.3635 36.3567 29.6435 36.45C29.9235 36.5367 30.2102 36.58 30.5035 36.58C30.9168 36.58 31.2268 36.5067 31.4335 36.36C31.6468 36.2067 31.7535 35.9967 31.7535 35.73C31.7535 35.5233 31.6835 35.36 31.5435 35.24C31.4035 35.12 31.1835 35.0233 30.8835 34.95L30.0135 34.75C29.1935 34.5633 28.7835 34.14 28.7835 33.48C28.7835 33.0533 28.9502 32.71 29.2835 32.45C29.6168 32.19 30.0568 32.06 30.6035 32.06C30.9368 32.06 31.2502 32.1167 31.5435 32.23C31.8368 32.3367 32.0768 32.4933 32.2635 32.7L32.0235 33.15C31.8302 32.9567 31.6102 32.8133 31.3635 32.72C31.1168 32.62 30.8602 32.57 30.5935 32.57C30.2068 32.57 29.9068 32.65 29.6935 32.81C29.4868 32.97 29.3835 33.1867 29.3835 33.46C29.3835 33.6667 29.4468 33.8333 29.5735 33.96C29.7002 34.0867 29.9068 34.1833 30.1935 34.25L31.0635 34.45C31.4968 34.55 31.8202 34.7 32.0335 34.9C32.2468 35.0933 32.3535 35.3567 32.3535 35.69C32.3535 36.1233 32.1835 36.4633 31.8435 36.71C31.5035 36.9567 31.0502 37.08 30.4835 37.08ZM36.3087 37V29.95H38.9687C39.722 29.95 40.2953 30.1233 40.6887 30.47C41.0887 30.8167 41.2887 31.31 41.2887 31.95C41.2887 32.4767 41.1453 32.9033 40.8587 33.23C40.572 33.5567 40.1653 33.7667 39.6387 33.86C39.9253 33.9667 40.1787 34.2267 40.3987 34.64L41.6787 37H41.0087L39.7887 34.74C39.6153 34.4267 39.422 34.2167 39.2087 34.11C38.9953 34.0033 38.7087 33.95 38.3487 33.95H36.9187V37H36.3087ZM36.9187 33.43H38.8887C40.0753 33.43 40.6687 32.9367 40.6687 31.95C40.6687 30.97 40.0753 30.48 38.8887 30.48H36.9187V33.43Z" fill="black"/>
<path d="M19 2L19 17" stroke="black" stroke-width="1.1" stroke-linecap="round" stroke-linejoin="round"/>
<path d="M24 7L19 2" stroke="black" stroke-width="1.1" stroke-linecap="round" stroke-linejoin="round"/>
<path d="M24 12L19 7" stroke="black" stroke-width="1.1" stroke-linecap="round" stroke-linejoin="round"/>
<path d="M24 17L19 12" stroke="black" stroke-width="1.1" stroke-linecap="round" stroke-linejoin="round"/>
<path d="M24 22L19 17" stroke="black" stroke-width="1.1" stroke-linecap="round" stroke-linejoin="round"/>
</svg>
