<svg width="26" height="41" viewBox="0 0 26 41" fill="none" xmlns="http://www.w3.org/2000/svg">
<path d="M1.33406 34V26.95H5.57406V27.48H1.94406V30.17H5.37406V30.7H1.94406V34H1.33406ZM8.36867 34.08C7.91534 34.08 7.52201 33.98 7.18867 33.78C6.85534 33.5733 6.59534 33.2833 6.40867 32.91C6.22867 32.53 6.13867 32.0833 6.13867 31.57C6.13867 31.0633 6.22867 30.6233 6.40867 30.25C6.59534 29.87 6.85534 29.5767 7.18867 29.37C7.52201 29.1633 7.91534 29.06 8.36867 29.06C8.82867 29.06 9.22534 29.1633 9.55867 29.37C9.89201 29.5767 10.1487 29.87 10.3287 30.25C10.5153 30.6233 10.6087 31.0633 10.6087 31.57C10.6087 32.0833 10.5153 32.53 10.3287 32.91C10.1487 33.2833 9.89201 33.5733 9.55867 33.78C9.22534 33.98 8.82867 34.08 8.36867 34.08ZM8.36867 33.57C8.86201 33.57 9.25534 33.3967 9.54867 33.05C9.84201 32.6967 9.98867 32.2033 9.98867 31.57C9.98867 30.9367 9.84201 30.4467 9.54867 30.1C9.25534 29.7533 8.86201 29.58 8.36867 29.58C7.87534 29.58 7.48201 29.7533 7.18867 30.1C6.90201 30.4467 6.75867 30.9367 6.75867 31.57C6.75867 32.2033 6.90201 32.6967 7.18867 33.05C7.48201 33.3967 7.87534 33.57 8.36867 33.57ZM13.8874 34.08C13.4141 34.08 13.0074 33.9767 12.6674 33.77C12.3274 33.5567 12.0641 33.26 11.8774 32.88C11.6974 32.4933 11.6074 32.0467 11.6074 31.54C11.6074 30.7733 11.8074 30.17 12.2074 29.73C12.6141 29.2833 13.1741 29.06 13.8874 29.06C14.1808 29.06 14.4708 29.1167 14.7574 29.23C15.0441 29.3433 15.2841 29.5 15.4774 29.7L15.2374 30.16C15.0308 29.96 14.8108 29.8167 14.5774 29.73C14.3441 29.6367 14.1208 29.59 13.9074 29.59C13.3674 29.59 12.9508 29.76 12.6574 30.1C12.3708 30.44 12.2274 30.9233 12.2274 31.55C12.2274 32.1767 12.3708 32.67 12.6574 33.03C12.9508 33.3833 13.3674 33.56 13.9074 33.56C14.1208 33.56 14.3441 33.5167 14.5774 33.43C14.8108 33.3367 15.0308 33.19 15.2374 32.99L15.4774 33.45C15.2841 33.6433 15.0408 33.7967 14.7474 33.91C14.4608 34.0233 14.1741 34.08 13.8874 34.08ZM18.2073 34.08C17.0539 34.08 16.4773 33.4533 16.4773 32.2V29.15H17.0873V32.17C17.0873 32.6433 17.1839 32.9933 17.3773 33.22C17.5706 33.4467 17.8739 33.56 18.2873 33.56C18.7339 33.56 19.0973 33.41 19.3773 33.11C19.6639 32.81 19.8073 32.41 19.8073 31.91V29.15H20.4173V34H19.8273V33.14C19.6673 33.4467 19.4439 33.68 19.1573 33.84C18.8773 34 18.5606 34.08 18.2073 34.08ZM23.6046 34.08C23.2446 34.08 22.8979 34.0267 22.5646 33.92C22.2379 33.8133 21.9679 33.66 21.7546 33.46L21.9746 33.01C22.2213 33.21 22.4846 33.3567 22.7646 33.45C23.0446 33.5367 23.3313 33.58 23.6246 33.58C24.0379 33.58 24.3479 33.5067 24.5546 33.36C24.7679 33.2067 24.8746 32.9967 24.8746 32.73C24.8746 32.5233 24.8046 32.36 24.6646 32.24C24.5246 32.12 24.3046 32.0233 24.0046 31.95L23.1346 31.75C22.3146 31.5633 21.9046 31.14 21.9046 30.48C21.9046 30.0533 22.0713 29.71 22.4046 29.45C22.7379 29.19 23.1779 29.06 23.7246 29.06C24.0579 29.06 24.3713 29.1167 24.6646 29.23C24.9579 29.3367 25.1979 29.4933 25.3846 29.7L25.1446 30.15C24.9513 29.9567 24.7313 29.8133 24.4846 29.72C24.2379 29.62 23.9813 29.57 23.7146 29.57C23.3279 29.57 23.0279 29.65 22.8146 29.81C22.6079 29.97 22.5046 30.1867 22.5046 30.46C22.5046 30.6667 22.5679 30.8333 22.6946 30.96C22.8213 31.0867 23.0279 31.1833 23.3146 31.25L24.1846 31.45C24.6179 31.55 24.9413 31.7 25.1546 31.9C25.3679 32.0933 25.4746 32.3567 25.4746 32.69C25.4746 33.1233 25.3046 33.4633 24.9646 33.71C24.6246 33.9567 24.1713 34.08 23.6046 34.08Z" fill="black"/>
<circle cx="13" cy="7" r="4" stroke="black" stroke-width="1.1"/>
<path d="M14.5 8.5L11.5 5.5" stroke="black" stroke-width="1.1" stroke-linecap="round" stroke-linejoin="round"/>
<path d="M11.5 8.5L14.5 5.5" stroke="black" stroke-width="1.1" stroke-linecap="round" stroke-linejoin="round"/>
<path d="M4.5 3.5L12.5436 21.4798C12.72 21.8742 13.28 21.8742 13.4564 21.4798L21.5 3.5" stroke="black" stroke-width="1.1" stroke-linecap="round" stroke-linejoin="round"/>
</svg>
