<svg width="61" height="44" viewBox="0 0 61 44" fill="none" xmlns="http://www.w3.org/2000/svg">
<g clip-path="url(#clip0_1862_18204)">
<mask id="mask0_1862_18204" style="mask-type:alpha" maskUnits="userSpaceOnUse" x="18" y="-1" width="26" height="26">
<g clip-path="url(#clip1_1862_18204)">
<line x1="19.1921" y1="17.7086" x2="37.7999" y2="-2.24585" stroke="black" stroke-linecap="round"/>
<line x1="19.0874" y1="14.7104" x2="37.6952" y2="-5.24401" stroke="black" stroke-linecap="round"/>
<line x1="18.9826" y1="11.7123" x2="37.5905" y2="-8.24218" stroke="black" stroke-linecap="round"/>
<line x1="18.8779" y1="8.7141" x2="37.4857" y2="-11.2404" stroke="black" stroke-linecap="round"/>
<line x1="18.7732" y1="5.71593" x2="37.381" y2="-14.2385" stroke="black" stroke-linecap="round"/>
<line x1="19.4016" y1="23.7049" x2="39.9384" y2="1.68191" stroke="black" stroke-linecap="round"/>
<line x1="19.5061" y1="26.7031" x2="42.9364" y2="1.57721" stroke="black" stroke-linecap="round"/>
<line x1="19.6108" y1="29.7013" x2="44.0056" y2="3.54109" stroke="black" stroke-linecap="round"/>
<line x1="19.7156" y1="32.6995" x2="44.1103" y2="6.53926" stroke="black" stroke-linecap="round"/>
<line x1="19.8203" y1="35.6976" x2="45.1796" y2="8.50314" stroke="black" stroke-linecap="round"/>
<line x1="19.925" y1="38.6958" x2="44.3198" y2="12.5356" stroke="black" stroke-linecap="round"/>
<line x1="20.0298" y1="41.694" x2="45.389" y2="14.4995" stroke="black" stroke-linecap="round"/>
<line x1="20.1343" y1="44.6921" x2="45.4935" y2="17.4976" stroke="black" stroke-linecap="round"/>
<line x1="20.239" y1="47.6903" x2="45.5983" y2="20.4958" stroke="black" stroke-linecap="round"/>
<line x1="20.3437" y1="50.6885" x2="45.703" y2="23.494" stroke="black" stroke-linecap="round"/>
<line x1="19.2969" y1="20.7068" x2="37.9047" y2="0.752323" stroke="black" stroke-linecap="round"/>
<line x1="19.2969" y1="20.7068" x2="37.9047" y2="0.752323" stroke="black" stroke-linecap="round"/>
<line x1="15.7751" y1="5.82055" x2="34.383" y2="-14.1339" stroke="black" stroke-linecap="round"/>
</g>
</mask>
<g mask="url(#mask0_1862_18204)">
<path d="M35.5 22H26.5C26.2239 22 26 21.7761 26 21.5V12.113C26 12.0386 26.0166 11.9652 26.0486 11.898L30.5486 2.448C30.7295 2.06796 31.2705 2.06796 31.4514 2.448L35.9514 11.898C35.9834 11.9652 36 12.0386 36 12.113V21.5C36 21.7761 35.7761 22 35.5 22Z" fill="black"/>
</g>
<path d="M35.5 22H26.5C26.2239 22 26 21.7761 26 21.5V12.113C26 12.0386 26.0166 11.9652 26.0486 11.898L30.5486 2.448C30.7295 2.06796 31.2705 2.06796 31.4514 2.448L35.9514 11.898C35.9834 11.9652 36 12.0386 36 12.113V21.5C36 21.7761 35.7761 22 35.5 22Z" stroke="black" stroke-width="1.1" stroke-linecap="round" stroke-linejoin="round"/>
</g>
<path d="M1.52938 37V29.95H5.76938V30.48H2.13938V33.17H5.56938V33.7H2.13938V37H1.52938ZM8.56398 37.08C8.11065 37.08 7.71732 36.98 7.38398 36.78C7.05065 36.5733 6.79065 36.2833 6.60398 35.91C6.42398 35.53 6.33398 35.0833 6.33398 34.57C6.33398 34.0633 6.42398 33.6233 6.60398 33.25C6.79065 32.87 7.05065 32.5767 7.38398 32.37C7.71732 32.1633 8.11065 32.06 8.56398 32.06C9.02398 32.06 9.42065 32.1633 9.75398 32.37C10.0873 32.5767 10.344 32.87 10.524 33.25C10.7107 33.6233 10.804 34.0633 10.804 34.57C10.804 35.0833 10.7107 35.53 10.524 35.91C10.344 36.2833 10.0873 36.5733 9.75398 36.78C9.42065 36.98 9.02398 37.08 8.56398 37.08ZM8.56398 36.57C9.05732 36.57 9.45065 36.3967 9.74398 36.05C10.0373 35.6967 10.184 35.2033 10.184 34.57C10.184 33.9367 10.0373 33.4467 9.74398 33.1C9.45065 32.7533 9.05732 32.58 8.56398 32.58C8.07065 32.58 7.67732 32.7533 7.38398 33.1C7.09732 33.4467 6.95398 33.9367 6.95398 34.57C6.95398 35.2033 7.09732 35.6967 7.38398 36.05C7.67732 36.3967 8.07065 36.57 8.56398 36.57ZM12.1027 37V32.15H12.7027V33.03C12.8427 32.7233 13.0461 32.49 13.3127 32.33C13.5794 32.17 13.9194 32.0767 14.3327 32.05L14.5827 32.03L14.6427 32.56L14.2127 32.61C13.7394 32.65 13.3727 32.8067 13.1127 33.08C12.8527 33.3467 12.7227 33.7067 12.7227 34.16V37H12.1027ZM17.1034 37L15.3434 32.15H15.9934L17.4234 36.28L18.9134 32.15H19.5134L20.9734 36.29L22.4334 32.15H23.0634L21.2934 37H20.6634L19.2034 32.94L17.7334 37H17.1034ZM25.5754 37.08C25.2487 37.08 24.9554 37.0167 24.6954 36.89C24.4421 36.7633 24.2387 36.59 24.0854 36.37C23.9387 36.15 23.8654 35.9033 23.8654 35.63C23.8654 35.27 23.9554 34.99 24.1354 34.79C24.3154 34.5833 24.6187 34.4367 25.0454 34.35C25.4721 34.2633 26.0587 34.22 26.8054 34.22H27.1154V33.86C27.1154 33.4133 27.0254 33.09 26.8454 32.89C26.6654 32.6833 26.3787 32.58 25.9854 32.58C25.6921 32.58 25.4087 32.6233 25.1354 32.71C24.8687 32.7967 24.5921 32.9333 24.3054 33.12L24.0654 32.65C24.3187 32.47 24.6187 32.3267 24.9654 32.22C25.3121 32.1133 25.6487 32.06 25.9754 32.06C26.5621 32.06 26.9954 32.21 27.2754 32.51C27.5621 32.81 27.7054 33.27 27.7054 33.89V37H27.1254V36.13C26.9921 36.43 26.7887 36.6633 26.5154 36.83C26.2487 36.9967 25.9354 37.08 25.5754 37.08ZM25.6554 36.59C25.9421 36.59 26.1921 36.5233 26.4054 36.39C26.6254 36.25 26.7987 36.06 26.9254 35.82C27.0521 35.58 27.1154 35.3067 27.1154 35V34.67H26.8154C26.2154 34.67 25.7454 34.6967 25.4054 34.75C25.0721 34.8033 24.8387 34.8967 24.7054 35.03C24.5721 35.1633 24.5054 35.3467 24.5054 35.58C24.5054 35.88 24.6087 36.1233 24.8154 36.31C25.0221 36.4967 25.3021 36.59 25.6554 36.59ZM29.3 37V32.15H29.9V33.03C30.04 32.7233 30.2433 32.49 30.51 32.33C30.7767 32.17 31.1167 32.0767 31.53 32.05L31.78 32.03L31.84 32.56L31.41 32.61C30.9367 32.65 30.57 32.8067 30.31 33.08C30.05 33.3467 29.92 33.7067 29.92 34.16V37H29.3ZM34.5094 37.08C34.0694 37.08 33.6894 36.98 33.3694 36.78C33.0494 36.5733 32.7994 36.2833 32.6194 35.91C32.446 35.53 32.3594 35.0833 32.3594 34.57C32.3594 33.8033 32.5527 33.1933 32.9394 32.74C33.326 32.2867 33.8494 32.06 34.5094 32.06C34.896 32.06 35.236 32.15 35.5294 32.33C35.8294 32.5033 36.0527 32.7433 36.1994 33.05V29.95H36.8094V37H36.2094V36.08C36.0627 36.3933 35.8394 36.64 35.5394 36.82C35.246 36.9933 34.9027 37.08 34.5094 37.08ZM34.5894 36.57C35.0827 36.57 35.476 36.3967 35.7694 36.05C36.0627 35.6967 36.2094 35.2033 36.2094 34.57C36.2094 33.9367 36.0627 33.4467 35.7694 33.1C35.476 32.7533 35.0827 32.58 34.5894 32.58C34.096 32.58 33.7027 32.7533 33.4094 33.1C33.1227 33.4467 32.9794 33.9367 32.9794 34.57C32.9794 35.2033 33.1227 35.6967 33.4094 36.05C33.7027 36.3967 34.096 36.57 34.5894 36.57ZM38.3513 34.6V34.08H41.0713V34.6H38.3513ZM42.6105 37V29.95H43.2205V32.99C43.3872 32.6833 43.6172 32.4533 43.9105 32.3C44.2105 32.14 44.5405 32.06 44.9005 32.06C46.0539 32.06 46.6305 32.6867 46.6305 33.94V37H46.0205V33.99C46.0205 33.51 45.9239 33.1567 45.7305 32.93C45.5372 32.7033 45.2305 32.59 44.8105 32.59C44.3305 32.59 43.9439 32.74 43.6505 33.04C43.3639 33.3333 43.2205 33.73 43.2205 34.23V37H42.6105ZM48.1063 30.87V30.1H48.9263V30.87H48.1063ZM48.2063 37V32.15H48.8163V37H48.2063ZM52.533 38.88C51.6864 38.88 50.983 38.6567 50.423 38.21L50.653 37.75C50.9597 37.97 51.2564 38.1267 51.543 38.22C51.8297 38.32 52.153 38.37 52.513 38.37C52.9997 38.37 53.3697 38.2367 53.623 37.97C53.8764 37.7033 54.003 37.3167 54.003 36.81V35.87C53.863 36.19 53.6397 36.44 53.333 36.62C53.033 36.8 52.6897 36.89 52.303 36.89C51.8497 36.89 51.4597 36.79 51.133 36.59C50.813 36.3833 50.563 36.1 50.383 35.74C50.2097 35.3733 50.123 34.95 50.123 34.47C50.123 33.99 50.2097 33.57 50.383 33.21C50.563 32.85 50.813 32.57 51.133 32.37C51.4597 32.1633 51.8497 32.06 52.303 32.06C52.6897 32.06 53.033 32.15 53.333 32.33C53.633 32.51 53.853 32.7567 53.993 33.07V32.15H54.593V36.72C54.593 38.16 53.9064 38.88 52.533 38.88ZM52.373 36.37C52.873 36.37 53.2697 36.2 53.563 35.86C53.8564 35.5133 54.003 35.05 54.003 34.47C54.003 33.89 53.8564 33.43 53.563 33.09C53.2697 32.75 52.873 32.58 52.373 32.58C51.8664 32.58 51.4664 32.75 51.173 33.09C50.8864 33.43 50.743 33.89 50.743 34.47C50.743 35.05 50.8864 35.5133 51.173 35.86C51.4664 36.2 51.8664 36.37 52.373 36.37ZM56.2043 37V29.95H56.8143V32.99C56.981 32.6833 57.211 32.4533 57.5043 32.3C57.8043 32.14 58.1343 32.06 58.4943 32.06C59.6476 32.06 60.2243 32.6867 60.2243 33.94V37H59.6143V33.99C59.6143 33.51 59.5176 33.1567 59.3243 32.93C59.131 32.7033 58.8243 32.59 58.4043 32.59C57.9243 32.59 57.5376 32.74 57.2443 33.04C56.9576 33.3333 56.8143 33.73 56.8143 34.23V37H56.2043Z" fill="black"/>
<defs>
<clipPath id="clip0_1862_18204">
<rect width="24" height="24" fill="white" transform="translate(19)"/>
</clipPath>
<clipPath id="clip1_1862_18204">
<rect width="24" height="24" fill="white" transform="translate(18.5886 0.426147) rotate(-2)"/>
</clipPath>
</defs>
</svg>
