<svg width="58" height="46" viewBox="0 0 58 46" fill="none" xmlns="http://www.w3.org/2000/svg">
<path d="M34.5 22H25.5C25.2239 22 25 21.7761 25 21.5V12.113C25 12.0386 25.0166 11.9652 25.0486 11.898L29.5486 2.448C29.7295 2.06796 30.2705 2.06796 30.4514 2.448L34.9514 11.898C34.9834 11.9652 35 12.0386 35 12.113V21.5C35 21.7761 34.7761 22 34.5 22Z" fill="black" stroke="black" stroke-width="1.1" stroke-linecap="round" stroke-linejoin="round"/>
<path d="M1.15633 39V31.95H5.39633V32.48H1.76633V35.17H5.19633V35.7H1.76633V39H1.15633ZM8.19094 39.08C7.7376 39.08 7.34427 38.98 7.01094 38.78C6.6776 38.5733 6.4176 38.2833 6.23094 37.91C6.05094 37.53 5.96094 37.0833 5.96094 36.57C5.96094 36.0633 6.05094 35.6233 6.23094 35.25C6.4176 34.87 6.6776 34.5767 7.01094 34.37C7.34427 34.1633 7.7376 34.06 8.19094 34.06C8.65094 34.06 9.0476 34.1633 9.38094 34.37C9.71427 34.5767 9.97094 34.87 10.1509 35.25C10.3376 35.6233 10.4309 36.0633 10.4309 36.57C10.4309 37.0833 10.3376 37.53 10.1509 37.91C9.97094 38.2833 9.71427 38.5733 9.38094 38.78C9.0476 38.98 8.65094 39.08 8.19094 39.08ZM8.19094 38.57C8.68427 38.57 9.0776 38.3967 9.37094 38.05C9.66427 37.6967 9.81094 37.2033 9.81094 36.57C9.81094 35.9367 9.66427 35.4467 9.37094 35.1C9.0776 34.7533 8.68427 34.58 8.19094 34.58C7.6976 34.58 7.30427 34.7533 7.01094 35.1C6.72427 35.4467 6.58094 35.9367 6.58094 36.57C6.58094 37.2033 6.72427 37.6967 7.01094 38.05C7.30427 38.3967 7.6976 38.57 8.19094 38.57ZM11.7297 39V34.15H12.3297V35.03C12.4697 34.7233 12.673 34.49 12.9397 34.33C13.2064 34.17 13.5464 34.0767 13.9597 34.05L14.2097 34.03L14.2697 34.56L13.8397 34.61C13.3664 34.65 12.9997 34.8067 12.7397 35.08C12.4797 35.3467 12.3497 35.7067 12.3497 36.16V39H11.7297ZM16.7304 39L14.9704 34.15H15.6204L17.0504 38.28L18.5404 34.15H19.1404L20.6004 38.29L22.0604 34.15H22.6904L20.9204 39H20.2904L18.8304 34.94L17.3604 39H16.7304ZM25.2023 39.08C24.8757 39.08 24.5823 39.0167 24.3223 38.89C24.069 38.7633 23.8657 38.59 23.7123 38.37C23.5657 38.15 23.4923 37.9033 23.4923 37.63C23.4923 37.27 23.5823 36.99 23.7623 36.79C23.9423 36.5833 24.2457 36.4367 24.6723 36.35C25.099 36.2633 25.6857 36.22 26.4323 36.22H26.7423V35.86C26.7423 35.4133 26.6523 35.09 26.4723 34.89C26.2923 34.6833 26.0057 34.58 25.6123 34.58C25.319 34.58 25.0357 34.6233 24.7623 34.71C24.4957 34.7967 24.219 34.9333 23.9323 35.12L23.6923 34.65C23.9457 34.47 24.2457 34.3267 24.5923 34.22C24.939 34.1133 25.2757 34.06 25.6023 34.06C26.189 34.06 26.6223 34.21 26.9023 34.51C27.189 34.81 27.3323 35.27 27.3323 35.89V39H26.7523V38.13C26.619 38.43 26.4157 38.6633 26.1423 38.83C25.8757 38.9967 25.5623 39.08 25.2023 39.08ZM25.2823 38.59C25.569 38.59 25.819 38.5233 26.0323 38.39C26.2523 38.25 26.4257 38.06 26.5523 37.82C26.679 37.58 26.7423 37.3067 26.7423 37V36.67H26.4423C25.8423 36.67 25.3723 36.6967 25.0323 36.75C24.699 36.8033 24.4657 36.8967 24.3323 37.03C24.199 37.1633 24.1323 37.3467 24.1323 37.58C24.1323 37.88 24.2357 38.1233 24.4423 38.31C24.649 38.4967 24.929 38.59 25.2823 38.59ZM28.927 39V34.15H29.527V35.03C29.667 34.7233 29.8703 34.49 30.137 34.33C30.4036 34.17 30.7436 34.0767 31.157 34.05L31.407 34.03L31.467 34.56L31.037 34.61C30.5636 34.65 30.197 34.8067 29.937 35.08C29.677 35.3467 29.547 35.7067 29.547 36.16V39H28.927ZM34.1363 39.08C33.6963 39.08 33.3163 38.98 32.9963 38.78C32.6763 38.5733 32.4263 38.2833 32.2463 37.91C32.073 37.53 31.9863 37.0833 31.9863 36.57C31.9863 35.8033 32.1797 35.1933 32.5663 34.74C32.953 34.2867 33.4763 34.06 34.1363 34.06C34.523 34.06 34.863 34.15 35.1563 34.33C35.4563 34.5033 35.6797 34.7433 35.8263 35.05V31.95H36.4363V39H35.8363V38.08C35.6897 38.3933 35.4663 38.64 35.1663 38.82C34.873 38.9933 34.5297 39.08 34.1363 39.08ZM34.2163 38.57C34.7097 38.57 35.103 38.3967 35.3963 38.05C35.6897 37.6967 35.8363 37.2033 35.8363 36.57C35.8363 35.9367 35.6897 35.4467 35.3963 35.1C35.103 34.7533 34.7097 34.58 34.2163 34.58C33.723 34.58 33.3297 34.7533 33.0363 35.1C32.7497 35.4467 32.6063 35.9367 32.6063 36.57C32.6063 37.2033 32.7497 37.6967 33.0363 38.05C33.3297 38.3967 33.723 38.57 34.2163 38.57ZM37.9783 36.6V36.08H40.6983V36.6H37.9783ZM43.6475 39.08C43.1942 39.08 42.8442 38.9433 42.5975 38.67C42.3575 38.39 42.2375 37.99 42.2375 37.47V31.95H42.8475V37.4C42.8475 38.1667 43.1475 38.55 43.7475 38.55C43.9142 38.55 44.0675 38.53 44.2075 38.49L44.1875 39.02C43.9942 39.06 43.8142 39.08 43.6475 39.08ZM46.9702 39.08C46.5169 39.08 46.1236 38.98 45.7902 38.78C45.4569 38.5733 45.1969 38.2833 45.0102 37.91C44.8302 37.53 44.7402 37.0833 44.7402 36.57C44.7402 36.0633 44.8302 35.6233 45.0102 35.25C45.1969 34.87 45.4569 34.5767 45.7902 34.37C46.1236 34.1633 46.5169 34.06 46.9702 34.06C47.4302 34.06 47.8269 34.1633 48.1602 34.37C48.4936 34.5767 48.7502 34.87 48.9302 35.25C49.1169 35.6233 49.2102 36.0633 49.2102 36.57C49.2102 37.0833 49.1169 37.53 48.9302 37.91C48.7502 38.2833 48.4936 38.5733 48.1602 38.78C47.8269 38.98 47.4302 39.08 46.9702 39.08ZM46.9702 38.57C47.4636 38.57 47.8569 38.3967 48.1502 38.05C48.4436 37.6967 48.5902 37.2033 48.5902 36.57C48.5902 35.9367 48.4436 35.4467 48.1502 35.1C47.8569 34.7533 47.4636 34.58 46.9702 34.58C46.4769 34.58 46.0836 34.7533 45.7902 35.1C45.5036 35.4467 45.3602 35.9367 45.3602 36.57C45.3602 37.2033 45.5036 37.6967 45.7902 38.05C46.0836 38.3967 46.4769 38.57 46.9702 38.57ZM51.7304 39L49.9704 34.15H50.6204L52.0504 38.28L53.5404 34.15H54.1404L55.6004 38.29L57.0604 34.15H57.6904L55.9204 39H55.2904L53.8304 34.94L52.3604 39H51.7304Z" fill="black"/>
</svg>
