<svg width="43" height="44" viewBox="0 0 43 44" fill="none" xmlns="http://www.w3.org/2000/svg">
<path d="M1.55672 37V29.95H2.16672V33.15H6.66672V29.95H7.27672V37H6.66672V33.7H2.16672V37H1.55672ZM11.1053 37.08C10.3586 37.08 9.76865 36.86 9.33531 36.42C8.90865 35.9733 8.69531 35.3633 8.69531 34.59C8.69531 34.09 8.79198 33.65 8.98531 33.27C9.17865 32.89 9.44531 32.5933 9.78531 32.38C10.132 32.1667 10.5286 32.06 10.9753 32.06C11.622 32.06 12.1253 32.27 12.4853 32.69C12.8453 33.11 13.0253 33.6867 13.0253 34.42V34.7H9.29531C9.31531 35.3 9.47865 35.7633 9.78531 36.09C10.0986 36.41 10.532 36.57 11.0853 36.57C11.3853 36.57 11.6653 36.5233 11.9253 36.43C12.192 36.3367 12.452 36.18 12.7053 35.96L12.9453 36.42C12.732 36.6267 12.4586 36.79 12.1253 36.91C11.792 37.0233 11.452 37.08 11.1053 37.08ZM10.9853 32.55C10.4786 32.55 10.082 32.71 9.79531 33.03C9.51531 33.3433 9.35198 33.75 9.30531 34.25H12.4753C12.462 33.7167 12.3286 33.3 12.0753 33C11.822 32.7 11.4586 32.55 10.9853 32.55ZM15.7688 37.08C15.4421 37.08 15.1488 37.0167 14.8888 36.89C14.6354 36.7633 14.4321 36.59 14.2788 36.37C14.1321 36.15 14.0588 35.9033 14.0588 35.63C14.0588 35.27 14.1488 34.99 14.3288 34.79C14.5088 34.5833 14.8121 34.4367 15.2388 34.35C15.6654 34.2633 16.2521 34.22 16.9988 34.22H17.3088V33.86C17.3088 33.4133 17.2188 33.09 17.0388 32.89C16.8588 32.6833 16.5721 32.58 16.1788 32.58C15.8854 32.58 15.6021 32.6233 15.3288 32.71C15.0621 32.7967 14.7854 32.9333 14.4988 33.12L14.2588 32.65C14.5121 32.47 14.8121 32.3267 15.1588 32.22C15.5054 32.1133 15.8421 32.06 16.1688 32.06C16.7554 32.06 17.1888 32.21 17.4688 32.51C17.7554 32.81 17.8988 33.27 17.8988 33.89V37H17.3188V36.13C17.1854 36.43 16.9821 36.6633 16.7088 36.83C16.4421 36.9967 16.1288 37.08 15.7688 37.08ZM15.8488 36.59C16.1354 36.59 16.3854 36.5233 16.5988 36.39C16.8188 36.25 16.9921 36.06 17.1188 35.82C17.2454 35.58 17.3088 35.3067 17.3088 35V34.67H17.0088C16.4087 34.67 15.9388 34.6967 15.5988 34.75C15.2654 34.8033 15.0321 34.8967 14.8988 35.03C14.7654 35.1633 14.6988 35.3467 14.6988 35.58C14.6988 35.88 14.8021 36.1233 15.0088 36.31C15.2154 36.4967 15.4954 36.59 15.8488 36.59ZM21.3434 37.08C20.9034 37.08 20.5234 36.98 20.2034 36.78C19.8834 36.5733 19.6334 36.2833 19.4534 35.91C19.28 35.53 19.1934 35.0833 19.1934 34.57C19.1934 33.8033 19.3867 33.1933 19.7734 32.74C20.16 32.2867 20.6834 32.06 21.3434 32.06C21.73 32.06 22.07 32.15 22.3634 32.33C22.6634 32.5033 22.8867 32.7433 23.0334 33.05V29.95H23.6434V37H23.0434V36.08C22.8967 36.3933 22.6734 36.64 22.3734 36.82C22.08 36.9933 21.7367 37.08 21.3434 37.08ZM21.4234 36.57C21.9167 36.57 22.31 36.3967 22.6034 36.05C22.8967 35.6967 23.0434 35.2033 23.0434 34.57C23.0434 33.9367 22.8967 33.4467 22.6034 33.1C22.31 32.7533 21.9167 32.58 21.4234 32.58C20.93 32.58 20.5367 32.7533 20.2434 33.1C19.9567 33.4467 19.8134 33.9367 19.8134 34.57C19.8134 35.2033 19.9567 35.6967 20.2434 36.05C20.5367 36.3967 20.93 36.57 21.4234 36.57ZM24.7653 37.59L24.2653 37.44L26.8153 29.52L27.3253 29.67L24.7653 37.59ZM30.1913 37V30.5H27.5613V29.95H33.4413V30.5H30.8113V37H30.1913ZM35.007 37.08C34.6804 37.08 34.387 37.0167 34.127 36.89C33.8737 36.7633 33.6704 36.59 33.517 36.37C33.3704 36.15 33.297 35.9033 33.297 35.63C33.297 35.27 33.387 34.99 33.567 34.79C33.747 34.5833 34.0504 34.4367 34.477 34.35C34.9037 34.2633 35.4904 34.22 36.237 34.22H36.547V33.86C36.547 33.4133 36.457 33.09 36.277 32.89C36.097 32.6833 35.8104 32.58 35.417 32.58C35.1237 32.58 34.8404 32.6233 34.567 32.71C34.3004 32.7967 34.0237 32.9333 33.737 33.12L33.497 32.65C33.7504 32.47 34.0504 32.3267 34.397 32.22C34.7437 32.1133 35.0804 32.06 35.407 32.06C35.9937 32.06 36.427 32.21 36.707 32.51C36.9937 32.81 37.137 33.27 37.137 33.89V37H36.557V36.13C36.4237 36.43 36.2204 36.6633 35.947 36.83C35.6804 36.9967 35.367 37.08 35.007 37.08ZM35.087 36.59C35.3737 36.59 35.6237 36.5233 35.837 36.39C36.057 36.25 36.2304 36.06 36.357 35.82C36.4837 35.58 36.547 35.3067 36.547 35V34.67H36.247C35.647 34.67 35.177 34.6967 34.837 34.75C34.5037 34.8033 34.2704 34.8967 34.137 35.03C34.0037 35.1633 33.937 35.3467 33.937 35.58C33.937 35.88 34.0404 36.1233 34.247 36.31C34.4537 36.4967 34.7337 36.59 35.087 36.59ZM38.6316 30.87V30.1H39.4516V30.87H38.6316ZM38.7316 37V32.15H39.3416V37H38.7316ZM42.3584 37.08C41.9051 37.08 41.5551 36.9433 41.3084 36.67C41.0684 36.39 40.9484 35.99 40.9484 35.47V29.95H41.5584V35.4C41.5584 36.1667 41.8584 36.55 42.4584 36.55C42.6251 36.55 42.7784 36.53 42.9184 36.49L42.8984 37.02C42.7051 37.06 42.5251 37.08 42.3584 37.08Z" fill="black"/>
<path d="M26 7.55556C26 9.51923 24 10.6667 22 12C20 10.6667 18 9.51923 18 7.55556C18 5.59188 19.7909 4 22 4C24.2091 4 26 5.59188 26 7.55556Z" stroke="black" stroke-width="1.1"/>
<path d="M26 16.4444C26 14.4808 24 13.3333 22 12C20 13.3333 18 14.4808 18 16.4444C18 18.4081 19.7909 20 22 20C24.2091 20 26 18.4081 26 16.4444Z" stroke="black" stroke-width="1.1"/>
<path d="M22 2V3.5" stroke="black" stroke-width="1.1" stroke-linecap="round" stroke-linejoin="round"/>
<path d="M22 20.5L22 22" stroke="black" stroke-width="1.1" stroke-linecap="round" stroke-linejoin="round"/>
</svg>
