<svg width="25" height="44" viewBox="0 0 25 44" fill="none" xmlns="http://www.w3.org/2000/svg">
<path d="M1.27156 37V29.95H1.88156V33.15H6.38156V29.95H6.99156V37H6.38156V33.7H1.88156V37H1.27156ZM8.61016 30.87V30.1H9.43016V30.87H8.61016ZM8.71016 37V32.15H9.32016V37H8.71016ZM10.927 38.8V32.15H11.537V33.06C11.6836 32.7533 11.9036 32.51 12.197 32.33C12.497 32.15 12.8436 32.06 13.237 32.06C13.6703 32.06 14.047 32.1633 14.367 32.37C14.6936 32.5767 14.9436 32.8667 15.117 33.24C15.297 33.6133 15.387 34.0567 15.387 34.57C15.387 35.0833 15.297 35.53 15.117 35.91C14.9436 36.2833 14.6936 36.5733 14.367 36.78C14.047 36.98 13.6703 37.08 13.237 37.08C12.8436 37.08 12.497 36.9933 12.197 36.82C11.9036 36.6467 11.6836 36.4067 11.537 36.1V38.8H10.927ZM13.147 36.57C13.6403 36.57 14.0336 36.3967 14.327 36.05C14.6203 35.6967 14.767 35.2033 14.767 34.57C14.767 33.9367 14.6203 33.4467 14.327 33.1C14.0336 32.7533 13.6403 32.58 13.147 32.58C12.6536 32.58 12.2603 32.7533 11.967 33.1C11.6736 33.4467 11.527 33.9367 11.527 34.57C11.527 35.2033 11.6736 35.6967 11.967 36.05C12.2603 36.3967 12.6536 36.57 13.147 36.57ZM19.3087 37V29.95H21.9687C22.722 29.95 23.2953 30.1233 23.6887 30.47C24.0887 30.8167 24.2887 31.31 24.2887 31.95C24.2887 32.4767 24.1453 32.9033 23.8587 33.23C23.572 33.5567 23.1653 33.7667 22.6387 33.86C22.9253 33.9667 23.1787 34.2267 23.3987 34.64L24.6787 37H24.0087L22.7887 34.74C22.6153 34.4267 22.422 34.2167 22.2087 34.11C21.9953 34.0033 21.7087 33.95 21.3487 33.95H19.9187V37H19.3087ZM19.9187 33.43H21.8887C23.0753 33.43 23.6687 32.9367 23.6687 31.95C23.6687 30.97 23.0753 30.48 21.8887 30.48H19.9187V33.43Z" fill="black"/>
<path d="M9 4.5L9 19.5" stroke="black" stroke-width="1.1" stroke-linecap="round" stroke-linejoin="round"/>
<path d="M15 9.5L9 9.5" stroke="black" stroke-width="1.1" stroke-linecap="round" stroke-linejoin="round"/>
</svg>
