<svg width="24" height="40" viewBox="0 0 24 40" fill="none" xmlns="http://www.w3.org/2000/svg">
<path d="M1.53133 33V25.95H2.14133V29.15H6.64133V25.95H7.25133V33H6.64133V29.7H2.14133V33H1.53133ZM8.86992 26.87V26.1H9.68992V26.87H8.86992ZM8.96992 33V28.15H9.57992V33H8.96992ZM11.1867 34.8V28.15H11.7967V29.06C11.9434 28.7533 12.1634 28.51 12.4567 28.33C12.7567 28.15 13.1034 28.06 13.4967 28.06C13.9301 28.06 14.3067 28.1633 14.6267 28.37C14.9534 28.5767 15.2034 28.8667 15.3767 29.24C15.5567 29.6133 15.6467 30.0567 15.6467 30.57C15.6467 31.0833 15.5567 31.53 15.3767 31.91C15.2034 32.2833 14.9534 32.5733 14.6267 32.78C14.3067 32.98 13.9301 33.08 13.4967 33.08C13.1034 33.08 12.7567 32.9933 12.4567 32.82C12.1634 32.6467 11.9434 32.4067 11.7967 32.1V34.8H11.1867ZM13.4067 32.57C13.9001 32.57 14.2934 32.3967 14.5867 32.05C14.8801 31.6967 15.0267 31.2033 15.0267 30.57C15.0267 29.9367 14.8801 29.4467 14.5867 29.1C14.2934 28.7533 13.9001 28.58 13.4067 28.58C12.9134 28.58 12.5201 28.7533 12.2267 29.1C11.9334 29.4467 11.7867 29.9367 11.7867 30.57C11.7867 31.2033 11.9334 31.6967 12.2267 32.05C12.5201 32.3967 12.9134 32.57 13.4067 32.57ZM19.5684 33V25.95H20.1784V32.45H23.8584V33H19.5684Z" fill="black"/>
<path d="M15 4.5L15 19.5" stroke="black" stroke-width="1.1" stroke-linecap="round" stroke-linejoin="round"/>
<path d="M9 9.5L15 9.5" stroke="black" stroke-width="1.1" stroke-linecap="round" stroke-linejoin="round"/>
</svg>
