<svg width="46" height="44" viewBox="0 0 46 44" fill="none" xmlns="http://www.w3.org/2000/svg">
<path d="M1.27547 37V29.95H1.88547V33.15H6.38547V29.95H6.99547V37H6.38547V33.7H1.88547V37H1.27547ZM10.6441 37.08C10.1907 37.08 9.7974 36.98 9.46406 36.78C9.13073 36.5733 8.87073 36.2833 8.68406 35.91C8.50406 35.53 8.41406 35.0833 8.41406 34.57C8.41406 34.0633 8.50406 33.6233 8.68406 33.25C8.87073 32.87 9.13073 32.5767 9.46406 32.37C9.7974 32.1633 10.1907 32.06 10.6441 32.06C11.1041 32.06 11.5007 32.1633 11.8341 32.37C12.1674 32.5767 12.4241 32.87 12.6041 33.25C12.7907 33.6233 12.8841 34.0633 12.8841 34.57C12.8841 35.0833 12.7907 35.53 12.6041 35.91C12.4241 36.2833 12.1674 36.5733 11.8341 36.78C11.5007 36.98 11.1041 37.08 10.6441 37.08ZM10.6441 36.57C11.1374 36.57 11.5307 36.3967 11.8241 36.05C12.1174 35.6967 12.2641 35.2033 12.2641 34.57C12.2641 33.9367 12.1174 33.4467 11.8241 33.1C11.5307 32.7533 11.1374 32.58 10.6441 32.58C10.1507 32.58 9.7574 32.7533 9.46406 33.1C9.1774 33.4467 9.03406 33.9367 9.03406 34.57C9.03406 35.2033 9.1774 35.6967 9.46406 36.05C9.7574 36.3967 10.1507 36.57 10.6441 36.57ZM14.1828 37V32.15H14.7828V33.03C14.9228 32.7233 15.1261 32.49 15.3928 32.33C15.6595 32.17 15.9995 32.0767 16.4128 32.05L16.6628 32.03L16.7228 32.56L16.2928 32.61C15.8195 32.65 15.4528 32.8067 15.1928 33.08C14.9328 33.3467 14.8028 33.7067 14.8028 34.16V37H14.1828ZM17.5008 30.87V30.1H18.3208V30.87H17.5008ZM17.6008 37V32.15H18.2108V37H17.6008ZM19.5876 37V36.58L22.4876 32.64H19.5876V32.15H23.1776V32.57L20.2876 36.51H23.2876V37H19.5876ZM26.2398 37.08C25.7864 37.08 25.3931 36.98 25.0598 36.78C24.7264 36.5733 24.4664 36.2833 24.2798 35.91C24.0998 35.53 24.0098 35.0833 24.0098 34.57C24.0098 34.0633 24.0998 33.6233 24.2798 33.25C24.4664 32.87 24.7264 32.5767 25.0598 32.37C25.3931 32.1633 25.7864 32.06 26.2398 32.06C26.6998 32.06 27.0964 32.1633 27.4298 32.37C27.7631 32.5767 28.0198 32.87 28.1998 33.25C28.3864 33.6233 28.4798 34.0633 28.4798 34.57C28.4798 35.0833 28.3864 35.53 28.1998 35.91C28.0198 36.2833 27.7631 36.5733 27.4298 36.78C27.0964 36.98 26.6998 37.08 26.2398 37.08ZM26.2398 36.57C26.7331 36.57 27.1264 36.3967 27.4198 36.05C27.7131 35.6967 27.8598 35.2033 27.8598 34.57C27.8598 33.9367 27.7131 33.4467 27.4198 33.1C27.1264 32.7533 26.7331 32.58 26.2398 32.58C25.7464 32.58 25.3531 32.7533 25.0598 33.1C24.7731 33.4467 24.6298 33.9367 24.6298 34.57C24.6298 35.2033 24.7731 35.6967 25.0598 36.05C25.3531 36.3967 25.7464 36.57 26.2398 36.57ZM29.7785 37V32.15H30.3785V33.02C30.5385 32.7 30.7685 32.46 31.0685 32.3C31.3685 32.14 31.7018 32.06 32.0685 32.06C33.2218 32.06 33.7985 32.6867 33.7985 33.94V37H33.1885V33.99C33.1885 33.51 33.0918 33.1567 32.8985 32.93C32.7052 32.7033 32.3985 32.59 31.9785 32.59C31.4985 32.59 31.1118 32.74 30.8185 33.04C30.5318 33.3333 30.3885 33.73 30.3885 34.23V37H29.7785ZM37.2042 37.08C36.6642 37.08 36.2576 36.9333 35.9842 36.64C35.7176 36.3467 35.5842 35.9267 35.5842 35.38V32.64H34.6242V32.15H35.5842V30.65H36.1942V32.15H37.7642V32.64H36.1942V35.3C36.1942 35.7067 36.2776 36.0167 36.4442 36.23C36.6109 36.4433 36.8876 36.55 37.2742 36.55C37.3876 36.55 37.4976 36.5367 37.6042 36.51C37.7109 36.4833 37.8042 36.4533 37.8842 36.42L38.0042 36.9C37.9309 36.9467 37.8142 36.9867 37.6542 37.02C37.4942 37.06 37.3442 37.08 37.2042 37.08ZM40.2238 37.08C39.8972 37.08 39.6038 37.0167 39.3438 36.89C39.0905 36.7633 38.8872 36.59 38.7338 36.37C38.5872 36.15 38.5138 35.9033 38.5138 35.63C38.5138 35.27 38.6038 34.99 38.7838 34.79C38.9638 34.5833 39.2672 34.4367 39.6938 34.35C40.1205 34.2633 40.7072 34.22 41.4538 34.22H41.7638V33.86C41.7638 33.4133 41.6738 33.09 41.4938 32.89C41.3138 32.6833 41.0272 32.58 40.6338 32.58C40.3405 32.58 40.0572 32.6233 39.7838 32.71C39.5172 32.7967 39.2405 32.9333 38.9538 33.12L38.7138 32.65C38.9672 32.47 39.2672 32.3267 39.6138 32.22C39.9605 32.1133 40.2972 32.06 40.6238 32.06C41.2105 32.06 41.6438 32.21 41.9238 32.51C42.2105 32.81 42.3538 33.27 42.3538 33.89V37H41.7738V36.13C41.6405 36.43 41.4372 36.6633 41.1638 36.83C40.8972 36.9967 40.5838 37.08 40.2238 37.08ZM40.3038 36.59C40.5905 36.59 40.8405 36.5233 41.0538 36.39C41.2738 36.25 41.4472 36.06 41.5738 35.82C41.7005 35.58 41.7638 35.3067 41.7638 35V34.67H41.4638C40.8638 34.67 40.3938 34.6967 40.0538 34.75C39.7205 34.8033 39.4872 34.8967 39.3538 35.03C39.2205 35.1633 39.1538 35.3467 39.1538 35.58C39.1538 35.88 39.2572 36.1233 39.4638 36.31C39.6705 36.4967 39.9505 36.59 40.3038 36.59ZM45.3584 37.08C44.9051 37.08 44.5551 36.9433 44.3084 36.67C44.0684 36.39 43.9484 35.99 43.9484 35.47V29.95H44.5584V35.4C44.5584 36.1667 44.8584 36.55 45.4584 36.55C45.6251 36.55 45.7784 36.53 45.9184 36.49L45.8984 37.02C45.7051 37.06 45.5251 37.08 45.3584 37.08Z" fill="black"/>
<path d="M22.832 14V9.065H23.728V11.123H26.269V9.065H27.165V14H26.269V11.872H23.728V14H22.832Z" fill="black"/>
<path d="M20 19.9167V4.08335C20 3.85324 20.1865 3.66669 20.4167 3.66669H29.5833C29.8135 3.66669 30 3.85323 30 4.08335V19.9167C30 20.1468 29.8135 20.3334 29.5833 20.3334H20.4167C20.1865 20.3334 20 20.1468 20 19.9167Z" stroke="black" stroke-width="0.916667" stroke-linecap="round" stroke-linejoin="round"/>
</svg>
