<svg width="43" height="46" viewBox="0 0 43 46" fill="none" xmlns="http://www.w3.org/2000/svg">
<path d="M1.56648 39V31.95H2.17648V39H1.56648ZM3.91766 39V34.15H4.51766V35C4.81766 34.3733 5.32766 34.06 6.04766 34.06C6.82099 34.06 7.31099 34.3967 7.51766 35.07C7.65766 34.7567 7.87099 34.51 8.15766 34.33C8.44432 34.15 8.77766 34.06 9.15766 34.06C10.231 34.06 10.7677 34.6867 10.7677 35.94V39H10.1577V35.99C10.1577 35.51 10.071 35.1567 9.89766 34.93C9.73099 34.7033 9.44766 34.59 9.04766 34.59C8.62099 34.59 8.28099 34.74 8.02766 35.04C7.77432 35.3333 7.64766 35.7333 7.64766 36.24V39H7.03766V35.99C7.03766 35.51 6.95099 35.1567 6.77766 34.93C6.61099 34.7033 6.33099 34.59 5.93766 34.59C5.50432 34.59 5.16099 34.74 4.90766 35.04C4.65432 35.3333 4.52766 35.7333 4.52766 36.24V39H3.91766ZM12.3645 40.8V34.15H12.9745V35.06C13.1211 34.7533 13.3411 34.51 13.6345 34.33C13.9345 34.15 14.2811 34.06 14.6745 34.06C15.1078 34.06 15.4845 34.1633 15.8045 34.37C16.1311 34.5767 16.3811 34.8667 16.5545 35.24C16.7345 35.6133 16.8245 36.0567 16.8245 36.57C16.8245 37.0833 16.7345 37.53 16.5545 37.91C16.3811 38.2833 16.1311 38.5733 15.8045 38.78C15.4845 38.98 15.1078 39.08 14.6745 39.08C14.2811 39.08 13.9345 38.9933 13.6345 38.82C13.3411 38.6467 13.1211 38.4067 12.9745 38.1V40.8H12.3645ZM14.5845 38.57C15.0778 38.57 15.4711 38.3967 15.7645 38.05C16.0578 37.6967 16.2045 37.2033 16.2045 36.57C16.2045 35.9367 16.0578 35.4467 15.7645 35.1C15.4711 34.7533 15.0778 34.58 14.5845 34.58C14.0911 34.58 13.6978 34.7533 13.4045 35.1C13.1111 35.4467 12.9645 35.9367 12.9645 36.57C12.9645 37.2033 13.1111 37.6967 13.4045 38.05C13.6978 38.3967 14.0911 38.57 14.5845 38.57ZM19.6164 39.08C19.2897 39.08 18.9964 39.0167 18.7364 38.89C18.4831 38.7633 18.2797 38.59 18.1264 38.37C17.9797 38.15 17.9064 37.9033 17.9064 37.63C17.9064 37.27 17.9964 36.99 18.1764 36.79C18.3564 36.5833 18.6597 36.4367 19.0864 36.35C19.5131 36.2633 20.0997 36.22 20.8464 36.22H21.1564V35.86C21.1564 35.4133 21.0664 35.09 20.8864 34.89C20.7064 34.6833 20.4197 34.58 20.0264 34.58C19.7331 34.58 19.4497 34.6233 19.1764 34.71C18.9097 34.7967 18.6331 34.9333 18.3464 35.12L18.1064 34.65C18.3597 34.47 18.6597 34.3267 19.0064 34.22C19.3531 34.1133 19.6897 34.06 20.0164 34.06C20.6031 34.06 21.0364 34.21 21.3164 34.51C21.6031 34.81 21.7464 35.27 21.7464 35.89V39H21.1664V38.13C21.0331 38.43 20.8297 38.6633 20.5564 38.83C20.2897 38.9967 19.9764 39.08 19.6164 39.08ZM19.6964 38.59C19.9831 38.59 20.2331 38.5233 20.4464 38.39C20.6664 38.25 20.8397 38.06 20.9664 37.82C21.0931 37.58 21.1564 37.3067 21.1564 37V36.67H20.8564C20.2564 36.67 19.7864 36.6967 19.4464 36.75C19.1131 36.8033 18.8797 36.8967 18.7464 37.03C18.6131 37.1633 18.5464 37.3467 18.5464 37.58C18.5464 37.88 18.6497 38.1233 18.8564 38.31C19.0631 38.4967 19.3431 38.59 19.6964 38.59ZM25.321 39.08C24.8477 39.08 24.441 38.9767 24.101 38.77C23.761 38.5567 23.4977 38.26 23.311 37.88C23.131 37.4933 23.041 37.0467 23.041 36.54C23.041 35.7733 23.241 35.17 23.641 34.73C24.0477 34.2833 24.6077 34.06 25.321 34.06C25.6143 34.06 25.9043 34.1167 26.191 34.23C26.4777 34.3433 26.7177 34.5 26.911 34.7L26.671 35.16C26.4643 34.96 26.2443 34.8167 26.011 34.73C25.7777 34.6367 25.5543 34.59 25.341 34.59C24.801 34.59 24.3843 34.76 24.091 35.1C23.8043 35.44 23.661 35.9233 23.661 36.55C23.661 37.1767 23.8043 37.67 24.091 38.03C24.3843 38.3833 24.801 38.56 25.341 38.56C25.5543 38.56 25.7777 38.5167 26.011 38.43C26.2443 38.3367 26.4643 38.19 26.671 37.99L26.911 38.45C26.7177 38.6433 26.4743 38.7967 26.181 38.91C25.8943 39.0233 25.6077 39.08 25.321 39.08ZM29.7609 39.08C29.2209 39.08 28.8142 38.9333 28.5409 38.64C28.2742 38.3467 28.1409 37.9267 28.1409 37.38V34.64H27.1809V34.15H28.1409V32.65H28.7509V34.15H30.3209V34.64H28.7509V37.3C28.7509 37.7067 28.8342 38.0167 29.0009 38.23C29.1675 38.4433 29.4442 38.55 29.8309 38.55C29.9442 38.55 30.0542 38.5367 30.1609 38.51C30.2675 38.4833 30.3609 38.4533 30.4409 38.42L30.5609 38.9C30.4875 38.9467 30.3709 38.9867 30.2109 39.02C30.0509 39.06 29.9009 39.08 29.7609 39.08ZM31.1805 32.87V32.1H32.0005V32.87H31.1805ZM31.2805 39V34.15H31.8905V39H31.2805ZM34.9373 39L32.8573 34.15H33.5373L35.2473 38.33L36.9873 34.15H37.6273L35.5473 39H34.9373ZM40.6366 39.08C39.8899 39.08 39.2999 38.86 38.8666 38.42C38.4399 37.9733 38.2266 37.3633 38.2266 36.59C38.2266 36.09 38.3232 35.65 38.5166 35.27C38.7099 34.89 38.9766 34.5933 39.3166 34.38C39.6632 34.1667 40.0599 34.06 40.5066 34.06C41.1532 34.06 41.6566 34.27 42.0166 34.69C42.3766 35.11 42.5566 35.6867 42.5566 36.42V36.7H38.8266C38.8466 37.3 39.0099 37.7633 39.3166 38.09C39.6299 38.41 40.0632 38.57 40.6166 38.57C40.9166 38.57 41.1966 38.5233 41.4566 38.43C41.7232 38.3367 41.9832 38.18 42.2366 37.96L42.4766 38.42C42.2632 38.6267 41.9899 38.79 41.6566 38.91C41.3232 39.0233 40.9832 39.08 40.6366 39.08ZM40.5166 34.55C40.0099 34.55 39.6132 34.71 39.3266 35.03C39.0466 35.3433 38.8832 35.75 38.8366 36.25H42.0066C41.9932 35.7167 41.8599 35.3 41.6066 35C41.3532 34.7 40.9899 34.55 40.5166 34.55Z" fill="black"/>
<path d="M18 2C18 2 24 7 24 16C24 25 18 30 18 30" stroke="black" stroke-width="1.1" stroke-linecap="round" stroke-linejoin="round"/>
<path d="M22.2729 2.49629L22.0114 5.48487L25 5.74634" stroke="black" stroke-width="1.1" stroke-linecap="round" stroke-linejoin="round"/>
</svg>
