<svg width="43" height="46" viewBox="0 0 43 46" fill="none" xmlns="http://www.w3.org/2000/svg">
<path d="M1.62508 39V31.95H2.23508V39H1.62508ZM3.97625 39V34.15H4.57625V35C4.87625 34.3733 5.38625 34.06 6.10625 34.06C6.87958 34.06 7.36958 34.3967 7.57625 35.07C7.71625 34.7567 7.92958 34.51 8.21625 34.33C8.50292 34.15 8.83625 34.06 9.21625 34.06C10.2896 34.06 10.8263 34.6867 10.8263 35.94V39H10.2163V35.99C10.2163 35.51 10.1296 35.1567 9.95625 34.93C9.78958 34.7033 9.50625 34.59 9.10625 34.59C8.67958 34.59 8.33958 34.74 8.08625 35.04C7.83292 35.3333 7.70625 35.7333 7.70625 36.24V39H7.09625V35.99C7.09625 35.51 7.00958 35.1567 6.83625 34.93C6.66958 34.7033 6.38958 34.59 5.99625 34.59C5.56292 34.59 5.21958 34.74 4.96625 35.04C4.71292 35.3333 4.58625 35.7333 4.58625 36.24V39H3.97625ZM12.423 40.8V34.15H13.033V35.06C13.1797 34.7533 13.3997 34.51 13.693 34.33C13.993 34.15 14.3397 34.06 14.733 34.06C15.1664 34.06 15.543 34.1633 15.863 34.37C16.1897 34.5767 16.4397 34.8667 16.613 35.24C16.793 35.6133 16.883 36.0567 16.883 36.57C16.883 37.0833 16.793 37.53 16.613 37.91C16.4397 38.2833 16.1897 38.5733 15.863 38.78C15.543 38.98 15.1664 39.08 14.733 39.08C14.3397 39.08 13.993 38.9933 13.693 38.82C13.3997 38.6467 13.1797 38.4067 13.033 38.1V40.8H12.423ZM14.643 38.57C15.1364 38.57 15.5297 38.3967 15.823 38.05C16.1164 37.6967 16.263 37.2033 16.263 36.57C16.263 35.9367 16.1164 35.4467 15.823 35.1C15.5297 34.7533 15.1364 34.58 14.643 34.58C14.1497 34.58 13.7564 34.7533 13.463 35.1C13.1697 35.4467 13.023 35.9367 13.023 36.57C13.023 37.2033 13.1697 37.6967 13.463 38.05C13.7564 38.3967 14.1497 38.57 14.643 38.57ZM19.885 39.08C18.7317 39.08 18.155 38.4533 18.155 37.2V34.15H18.765V37.17C18.765 37.6433 18.8617 37.9933 19.055 38.22C19.2483 38.4467 19.5517 38.56 19.965 38.56C20.4117 38.56 20.775 38.41 21.055 38.11C21.3417 37.81 21.485 37.41 21.485 36.91V34.15H22.095V39H21.505V38.14C21.345 38.4467 21.1217 38.68 20.835 38.84C20.555 39 20.2383 39.08 19.885 39.08ZM25.1123 39.08C24.659 39.08 24.309 38.9433 24.0623 38.67C23.8223 38.39 23.7023 37.99 23.7023 37.47V31.95H24.3123V37.4C24.3123 38.1667 24.6123 38.55 25.2123 38.55C25.379 38.55 25.5323 38.53 25.6723 38.49L25.6523 39.02C25.459 39.06 25.279 39.08 25.1123 39.08ZM28.0851 39.08C27.7251 39.08 27.3784 39.0267 27.0451 38.92C26.7184 38.8133 26.4484 38.66 26.2351 38.46L26.4551 38.01C26.7017 38.21 26.9651 38.3567 27.2451 38.45C27.5251 38.5367 27.8117 38.58 28.1051 38.58C28.5184 38.58 28.8284 38.5067 29.0351 38.36C29.2484 38.2067 29.3551 37.9967 29.3551 37.73C29.3551 37.5233 29.2851 37.36 29.1451 37.24C29.0051 37.12 28.7851 37.0233 28.4851 36.95L27.6151 36.75C26.7951 36.5633 26.3851 36.14 26.3851 35.48C26.3851 35.0533 26.5517 34.71 26.8851 34.45C27.2184 34.19 27.6584 34.06 28.2051 34.06C28.5384 34.06 28.8517 34.1167 29.1451 34.23C29.4384 34.3367 29.6784 34.4933 29.8651 34.7L29.6251 35.15C29.4317 34.9567 29.2117 34.8133 28.9651 34.72C28.7184 34.62 28.4617 34.57 28.1951 34.57C27.8084 34.57 27.5084 34.65 27.2951 34.81C27.0884 34.97 26.9851 35.1867 26.9851 35.46C26.9851 35.6667 27.0484 35.8333 27.1751 35.96C27.3017 36.0867 27.5084 36.1833 27.7951 36.25L28.6651 36.45C29.0984 36.55 29.4217 36.7 29.6351 36.9C29.8484 37.0933 29.9551 37.3567 29.9551 37.69C29.9551 38.1233 29.7851 38.4633 29.4451 38.71C29.1051 38.9567 28.6517 39.08 28.0851 39.08ZM31.1805 32.87V32.1H32.0005V32.87H31.1805ZM31.2805 39V34.15H31.8905V39H31.2805ZM34.9373 39L32.8573 34.15H33.5373L35.2473 38.33L36.9873 34.15H37.6273L35.5473 39H34.9373ZM40.6366 39.08C39.8899 39.08 39.2999 38.86 38.8666 38.42C38.4399 37.9733 38.2266 37.3633 38.2266 36.59C38.2266 36.09 38.3232 35.65 38.5166 35.27C38.7099 34.89 38.9766 34.5933 39.3166 34.38C39.6632 34.1667 40.0599 34.06 40.5066 34.06C41.1532 34.06 41.6566 34.27 42.0166 34.69C42.3766 35.11 42.5566 35.6867 42.5566 36.42V36.7H38.8266C38.8466 37.3 39.0099 37.7633 39.3166 38.09C39.6299 38.41 40.0632 38.57 40.6166 38.57C40.9166 38.57 41.1966 38.5233 41.4566 38.43C41.7232 38.3367 41.9832 38.18 42.2366 37.96L42.4766 38.42C42.2632 38.6267 41.9899 38.79 41.6566 38.91C41.3232 39.0233 40.9832 39.08 40.6366 39.08ZM40.5166 34.55C40.0099 34.55 39.6132 34.71 39.3266 35.03C39.0466 35.3433 38.8832 35.75 38.8366 36.25H42.0066C41.9932 35.7167 41.8599 35.3 41.6066 35C41.3532 34.7 40.9899 34.55 40.5166 34.55Z" fill="black"/>
<path d="M18 2C18 2 24 7 24 16C24 25 18 30 18 30" stroke="black" stroke-width="1.1" stroke-linecap="round" stroke-linejoin="round"/>
<path d="M24.7271 26.4963L21.7385 26.7578L22 29.7464" stroke="black" stroke-width="1.1" stroke-linecap="round" stroke-linejoin="round"/>
</svg>
