<svg width="24" height="40" viewBox="0 0 24 40" fill="none" xmlns="http://www.w3.org/2000/svg">
<path d="M0.108203 33.07L0.0582031 32.53L0.618203 32.49C0.971537 32.4633 1.24487 32.3333 1.4382 32.1C1.63154 31.8667 1.7282 31.5567 1.7282 31.17V25.95H2.3482V31.18C2.3482 31.7333 2.20487 32.17 1.9182 32.49C1.63154 32.81 1.2182 32.99 0.678203 33.03L0.108203 33.07ZM5.76391 33.08C4.61057 33.08 4.03391 32.4533 4.03391 31.2V28.15H4.64391V31.17C4.64391 31.6433 4.74057 31.9933 4.93391 32.22C5.12724 32.4467 5.43057 32.56 5.84391 32.56C6.29057 32.56 6.65391 32.41 6.93391 32.11C7.22057 31.81 7.36391 31.41 7.36391 30.91V28.15H7.97391V33H7.38391V32.14C7.22391 32.4467 7.00057 32.68 6.71391 32.84C6.43391 33 6.11724 33.08 5.76391 33.08ZM9.60125 33V28.15H10.2013V29C10.5013 28.3733 11.0113 28.06 11.7313 28.06C12.5046 28.06 12.9946 28.3967 13.2013 29.07C13.3413 28.7567 13.5546 28.51 13.8413 28.33C14.1279 28.15 14.4613 28.06 14.8413 28.06C15.9146 28.06 16.4513 28.6867 16.4513 29.94V33H15.8413V29.99C15.8413 29.51 15.7546 29.1567 15.5813 28.93C15.4146 28.7033 15.1313 28.59 14.7313 28.59C14.3046 28.59 13.9646 28.74 13.7113 29.04C13.4579 29.3333 13.3313 29.7333 13.3313 30.24V33H12.7213V29.99C12.7213 29.51 12.6346 29.1567 12.4613 28.93C12.2946 28.7033 12.0146 28.59 11.6213 28.59C11.1879 28.59 10.8446 28.74 10.5913 29.04C10.3379 29.3333 10.2113 29.7333 10.2113 30.24V33H9.60125ZM18.048 34.8V28.15H18.658V29.06C18.8047 28.7533 19.0247 28.51 19.318 28.33C19.618 28.15 19.9647 28.06 20.358 28.06C20.7914 28.06 21.168 28.1633 21.488 28.37C21.8147 28.5767 22.0647 28.8667 22.238 29.24C22.418 29.6133 22.508 30.0567 22.508 30.57C22.508 31.0833 22.418 31.53 22.238 31.91C22.0647 32.2833 21.8147 32.5733 21.488 32.78C21.168 32.98 20.7914 33.08 20.358 33.08C19.9647 33.08 19.618 32.9933 19.318 32.82C19.0247 32.6467 18.8047 32.4067 18.658 32.1V34.8H18.048ZM20.268 32.57C20.7614 32.57 21.1547 32.3967 21.448 32.05C21.7414 31.6967 21.888 31.2033 21.888 30.57C21.888 29.9367 21.7414 29.4467 21.448 29.1C21.1547 28.7533 20.7614 28.58 20.268 28.58C19.7747 28.58 19.3814 28.7533 19.088 29.1C18.7947 29.4467 18.648 29.9367 18.648 30.57C18.648 31.2033 18.7947 31.6967 19.088 32.05C19.3814 32.3967 19.7747 32.57 20.268 32.57Z" fill="black"/>
<path d="M9.36982 7C7.91657 8.22157 7 10.0088 7 12C7 13.9912 7.91657 15.7784 9.3698 17M14.6302 17C16.0834 15.7784 17 13.9912 17 12C17 10.0089 16.0834 8.22159 14.6302 7.00002" stroke="black" stroke-width="1.1" stroke-linecap="round"/>
<path d="M12 5L12 8" stroke="black" stroke-width="1.1" stroke-linecap="round" stroke-linejoin="round"/>
<path d="M12 16L12 19" stroke="black" stroke-width="1.1" stroke-linecap="round" stroke-linejoin="round"/>
</svg>
