<svg width="32" height="44" viewBox="0 0 32 44" fill="none" xmlns="http://www.w3.org/2000/svg">
<path d="M1.58211 37V29.95H2.19211V33.19H2.21211L5.77211 29.95H6.58211L2.79211 33.39L6.82211 37H5.98211L2.21211 33.65H2.19211V37H1.58211ZM7.53633 37V32.15H8.13633V33.02C8.29633 32.7 8.52633 32.46 8.82633 32.3C9.12633 32.14 9.45966 32.06 9.82633 32.06C10.9797 32.06 11.5563 32.6867 11.5563 33.94V37H10.9463V33.99C10.9463 33.51 10.8497 33.1567 10.6563 32.93C10.463 32.7033 10.1563 32.59 9.73633 32.59C9.25633 32.59 8.86966 32.74 8.57633 33.04C8.28966 33.3333 8.14633 33.73 8.14633 34.23V37H7.53633ZM15.242 37.08C14.4954 37.08 13.9054 36.86 13.472 36.42C13.0454 35.9733 12.832 35.3633 12.832 34.59C12.832 34.09 12.9287 33.65 13.122 33.27C13.3154 32.89 13.582 32.5933 13.922 32.38C14.2687 32.1667 14.6654 32.06 15.112 32.06C15.7587 32.06 16.262 32.27 16.622 32.69C16.982 33.11 17.162 33.6867 17.162 34.42V34.7H13.432C13.452 35.3 13.6154 35.7633 13.922 36.09C14.2354 36.41 14.6687 36.57 15.222 36.57C15.522 36.57 15.802 36.5233 16.062 36.43C16.3287 36.3367 16.5887 36.18 16.842 35.96L17.082 36.42C16.8687 36.6267 16.5954 36.79 16.262 36.91C15.9287 37.0233 15.5887 37.08 15.242 37.08ZM15.122 32.55C14.6154 32.55 14.2187 32.71 13.932 33.03C13.652 33.3433 13.4887 33.75 13.442 34.25H16.612C16.5987 33.7167 16.4654 33.3 16.212 33C15.9587 32.7 15.5954 32.55 15.122 32.55ZM20.5155 37.08C19.7688 37.08 19.1788 36.86 18.7455 36.42C18.3188 35.9733 18.1055 35.3633 18.1055 34.59C18.1055 34.09 18.2021 33.65 18.3955 33.27C18.5888 32.89 18.8555 32.5933 19.1955 32.38C19.5421 32.1667 19.9388 32.06 20.3855 32.06C21.0321 32.06 21.5355 32.27 21.8955 32.69C22.2555 33.11 22.4355 33.6867 22.4355 34.42V34.7H18.7055C18.7255 35.3 18.8888 35.7633 19.1955 36.09C19.5088 36.41 19.9421 36.57 20.4955 36.57C20.7955 36.57 21.0755 36.5233 21.3355 36.43C21.6021 36.3367 21.8621 36.18 22.1155 35.96L22.3555 36.42C22.1421 36.6267 21.8688 36.79 21.5355 36.91C21.2021 37.0233 20.8621 37.08 20.5155 37.08ZM20.3955 32.55C19.8888 32.55 19.4921 32.71 19.2055 33.03C18.9255 33.3433 18.7621 33.75 18.7155 34.25H21.8855C21.8721 33.7167 21.7388 33.3 21.4855 33C21.2321 32.7 20.8688 32.55 20.3955 32.55ZM26.3087 37V29.95H28.9687C29.722 29.95 30.2953 30.1233 30.6887 30.47C31.0887 30.8167 31.2887 31.31 31.2887 31.95C31.2887 32.4767 31.1453 32.9033 30.8587 33.23C30.572 33.5567 30.1653 33.7667 29.6387 33.86C29.9253 33.9667 30.1787 34.2267 30.3987 34.64L31.6787 37H31.0087L29.7887 34.74C29.6153 34.4267 29.422 34.2167 29.2087 34.11C28.9953 34.0033 28.7087 33.95 28.3487 33.95H26.9187V37H26.3087ZM26.9187 33.43H28.8887C30.0753 33.43 30.6687 32.9367 30.6687 31.95C30.6687 30.97 30.0753 30.48 28.8887 30.48H26.9187V33.43Z" fill="black"/>
<path d="M13 4.5L13 19.5" stroke="black" stroke-width="1.1" stroke-linecap="round" stroke-linejoin="round"/>
<path d="M19 10L13 10" stroke="black" stroke-width="1.1" stroke-linecap="round" stroke-linejoin="round"/>
<path d="M19 14L13 14" stroke="black" stroke-width="1.1" stroke-linecap="round" stroke-linejoin="round"/>
</svg>
