<svg width="24" height="44" viewBox="0 0 24 44" fill="none" xmlns="http://www.w3.org/2000/svg">
<circle cx="12" cy="12" r="0.75" fill="black"/>
<path d="M7 2.5V21.4784C7 21.9326 7.55673 22.1515 7.86609 21.8189L16.8661 12.1439C16.9522 12.0514 17 11.9298 17 11.8034V2.5C17 2.22386 16.7761 2 16.5 2H7.5C7.22386 2 7 2.22386 7 2.5Z" stroke="black" stroke-width="1.1" stroke-linecap="round" stroke-linejoin="round"/>
<path d="M1.37313 37V29.95H1.98313V36.45H5.66313V37H1.37313ZM6.72469 37V29.95H9.41469C10.1347 29.95 10.6914 30.11 11.0847 30.43C11.4847 30.75 11.6847 31.2067 11.6847 31.8C11.6847 32.1867 11.5814 32.5167 11.3747 32.79C11.168 33.0633 10.888 33.2633 10.5347 33.39C10.9414 33.49 11.2614 33.6867 11.4947 33.98C11.728 34.2667 11.8447 34.6333 11.8447 35.08C11.8447 35.7067 11.6447 36.1833 11.2447 36.51C10.8447 36.8367 10.278 37 9.54469 37H6.72469ZM7.32469 33.17H9.34469C9.90469 33.17 10.3314 33.0567 10.6247 32.83C10.918 32.5967 11.0647 32.26 11.0647 31.82C11.0647 31.38 10.918 31.0467 10.6247 30.82C10.3314 30.5867 9.90469 30.47 9.34469 30.47H7.32469V33.17ZM7.32469 36.48H9.49469C10.648 36.48 11.2247 36.0167 11.2247 35.09C11.2247 34.61 11.0814 34.2567 10.7947 34.03C10.508 33.8033 10.0747 33.69 9.49469 33.69H7.32469V36.48ZM13.4537 37V29.95H13.9737L16.7737 35.26L19.5537 29.95H20.0737V37H19.5037V31.14L16.9937 35.91H16.5537L14.0137 31.15V37H13.4537Z" fill="black"/>
</svg>
