<svg width="24" height="44" viewBox="0 0 24 44" fill="none" xmlns="http://www.w3.org/2000/svg">
<path d="M7.5 22H16.5C16.7761 22 17 21.7761 17 21.5V12.1966C17 12.0702 16.9522 11.9486 16.8661 11.8561L7.86609 2.18105C7.55673 1.84848 7 2.06739 7 2.5216V11.5V21.5C7 21.7761 7.22386 22 7.5 22Z" fill="black" stroke="black" stroke-width="1.1" stroke-linecap="round" stroke-linejoin="round"/>
<path d="M4.79695 37V29.95H5.40695V36.45H9.08695V37H4.79695ZM10.1485 37V29.95H14.3885V30.48H10.7585V33.17H14.1885V33.7H10.7585V37H10.1485ZM15.5684 37V29.95H16.1784V36.45H19.8584V37H15.5684Z" fill="black"/>
</svg>
