<svg width="24" height="44" viewBox="0 0 24 44" fill="none" xmlns="http://www.w3.org/2000/svg">
<g clip-path="url(#clip0_1862_18208)">
<mask id="mask0_1862_18208" style="mask-type:alpha" maskUnits="userSpaceOnUse" x="-1" y="0" width="26" height="26">
<g clip-path="url(#clip1_1862_18208)">
<line x1="0.192119" y1="18.5325" x2="18.7999" y2="-1.42199" stroke="black" stroke-linecap="round"/>
<line x1="0.0873829" y1="15.5343" x2="18.6952" y2="-4.42016" stroke="black" stroke-linecap="round"/>
<line x1="-0.0173534" y1="12.5361" x2="18.5905" y2="-7.41833" stroke="black" stroke-linecap="round"/>
<line x1="-0.12209" y1="9.53795" x2="18.4857" y2="-10.4165" stroke="black" stroke-linecap="round"/>
<line x1="-0.226826" y1="6.53978" x2="18.381" y2="-13.4147" stroke="black" stroke-linecap="round"/>
<line x1="0.401592" y1="24.5288" x2="20.9384" y2="2.50576" stroke="black" stroke-linecap="round"/>
<line x1="0.506084" y1="27.527" x2="23.9364" y2="2.40106" stroke="black" stroke-linecap="round"/>
<line x1="0.61082" y1="30.5251" x2="25.0056" y2="4.36494" stroke="black" stroke-linecap="round"/>
<line x1="0.715557" y1="33.5233" x2="25.1103" y2="7.36311" stroke="black" stroke-linecap="round"/>
<line x1="0.820293" y1="36.5215" x2="26.1796" y2="9.32699" stroke="black" stroke-linecap="round"/>
<line x1="0.925029" y1="39.5196" x2="25.3198" y2="13.3594" stroke="black" stroke-linecap="round"/>
<line x1="1.02977" y1="42.5178" x2="26.389" y2="15.3233" stroke="black" stroke-linecap="round"/>
<line x1="1.13426" y1="45.516" x2="26.4935" y2="18.3215" stroke="black" stroke-linecap="round"/>
<line x1="1.23899" y1="48.5141" x2="26.5983" y2="21.3197" stroke="black" stroke-linecap="round"/>
<line x1="1.34373" y1="51.5123" x2="26.703" y2="24.3178" stroke="black" stroke-linecap="round"/>
<line x1="0.296856" y1="21.5306" x2="18.9047" y2="1.57618" stroke="black" stroke-linecap="round"/>
<line x1="0.296856" y1="21.5306" x2="18.9047" y2="1.57618" stroke="black" stroke-linecap="round"/>
<line x1="-3.22487" y1="6.6444" x2="15.383" y2="-13.3101" stroke="black" stroke-linecap="round"/>
</g>
</mask>
<g mask="url(#mask0_1862_18208)">
<path d="M7.5 22H16.5C16.7761 22 17 21.7761 17 21.5V12.1966C17 12.0702 16.9522 11.9486 16.8661 11.8561L7.86609 2.18105C7.55673 1.84848 7 2.06739 7 2.5216V11.5V21.5C7 21.7761 7.22386 22 7.5 22Z" fill="black"/>
</g>
<path d="M7.5 22H16.5C16.7761 22 17 21.7761 17 21.5V12.1966C17 12.0702 16.9522 11.9486 16.8661 11.8561L7.86609 2.18105C7.55673 1.84848 7 2.06739 7 2.5216V11.5V21.5C7 21.7761 7.22386 22 7.5 22Z" stroke="black" stroke-width="1.1" stroke-linecap="round" stroke-linejoin="round"/>
</g>
<path d="M3.58992 37V29.95H4.19992V36.45H7.87992V37H3.58992ZM8.94148 37V29.95H13.1815V30.48H9.55148V33.17H12.9815V33.7H9.55148V37H8.94148ZM14.3614 37V29.95H14.9714V33.15H19.4714V29.95H20.0814V37H19.4714V33.7H14.9714V37H14.3614Z" fill="black"/>
<defs>
<clipPath id="clip0_1862_18208">
<rect width="24" height="24" fill="white"/>
</clipPath>
<clipPath id="clip1_1862_18208">
<rect width="24" height="24" fill="white" transform="translate(-0.411377 1.25) rotate(-2)"/>
</clipPath>
</defs>
</svg>
