<svg width="24" height="40" viewBox="0 0 24 40" fill="none" xmlns="http://www.w3.org/2000/svg">
<path d="M1.62508 33V25.95H2.23508V32.45H5.91508V33H1.62508ZM6.75664 26.87V26.1H7.57664V26.87H6.75664ZM6.85664 33V28.15H7.46664V33H6.85664ZM11.1834 34.88C10.3368 34.88 9.63344 34.6567 9.07344 34.21L9.30344 33.75C9.6101 33.97 9.90677 34.1267 10.1934 34.22C10.4801 34.32 10.8034 34.37 11.1634 34.37C11.6501 34.37 12.0201 34.2367 12.2734 33.97C12.5268 33.7033 12.6534 33.3167 12.6534 32.81V31.87C12.5134 32.19 12.2901 32.44 11.9834 32.62C11.6834 32.8 11.3401 32.89 10.9534 32.89C10.5001 32.89 10.1101 32.79 9.78344 32.59C9.46344 32.3833 9.21344 32.1 9.03344 31.74C8.8601 31.3733 8.77344 30.95 8.77344 30.47C8.77344 29.99 8.8601 29.57 9.03344 29.21C9.21344 28.85 9.46344 28.57 9.78344 28.37C10.1101 28.1633 10.5001 28.06 10.9534 28.06C11.3401 28.06 11.6834 28.15 11.9834 28.33C12.2834 28.51 12.5034 28.7567 12.6434 29.07V28.15H13.2434V32.72C13.2434 34.16 12.5568 34.88 11.1834 34.88ZM11.0234 32.37C11.5234 32.37 11.9201 32.2 12.2134 31.86C12.5068 31.5133 12.6534 31.05 12.6534 30.47C12.6534 29.89 12.5068 29.43 12.2134 29.09C11.9201 28.75 11.5234 28.58 11.0234 28.58C10.5168 28.58 10.1168 28.75 9.82344 29.09C9.53677 29.43 9.39344 29.89 9.39344 30.47C9.39344 31.05 9.53677 31.5133 9.82344 31.86C10.1168 32.2 10.5168 32.37 11.0234 32.37ZM14.8547 33V25.95H15.4647V28.99C15.6314 28.6833 15.8614 28.4533 16.1547 28.3C16.4547 28.14 16.7847 28.06 17.1447 28.06C18.298 28.06 18.8747 28.6867 18.8747 29.94V33H18.2647V29.99C18.2647 29.51 18.168 29.1567 17.9747 28.93C17.7814 28.7033 17.4747 28.59 17.0547 28.59C16.5747 28.59 16.188 28.74 15.8947 29.04C15.608 29.3333 15.4647 29.73 15.4647 30.23V33H14.8547ZM22.2804 33.08C21.7404 33.08 21.3337 32.9333 21.0604 32.64C20.7937 32.3467 20.6604 31.9267 20.6604 31.38V28.64H19.7004V28.15H20.6604V26.65H21.2704V28.15H22.8404V28.64H21.2704V31.3C21.2704 31.7067 21.3537 32.0167 21.5204 32.23C21.6871 32.4433 21.9637 32.55 22.3504 32.55C22.4637 32.55 22.5737 32.5367 22.6804 32.51C22.7871 32.4833 22.8804 32.4533 22.9604 32.42L23.0804 32.9C23.0071 32.9467 22.8904 32.9867 22.7304 33.02C22.5704 33.06 22.4204 33.08 22.2804 33.08Z" fill="black"/>
<path d="M10 5L10 14" stroke="black" stroke-width="1.1" stroke-linecap="round"/>
<path d="M10 14L14 10" stroke="black" stroke-width="1.1" stroke-linecap="round"/>
</svg>
