<svg width="28" height="42" viewBox="0 0 28 42" fill="none" xmlns="http://www.w3.org/2000/svg">
<path d="M14 1V17M14 17L12.5 15.5M14 17L15.5 15.5" stroke="black" stroke-width="1.1" stroke-linecap="round" stroke-linejoin="round"/>
<path d="M18 7.55556C18 9.51923 16 10.6667 14 12C12 10.6667 10 9.51923 10 7.55556C10 5.59188 11.7909 4 14 4C16.2091 4 18 5.59188 18 7.55556Z" stroke="black" stroke-width="1.1"/>
<path d="M18 16.4444C18 14.4808 16 13.3333 14 12C12 13.3333 10 14.4808 10 16.4444C10 18.4081 11.7909 20 14 20C16.2091 20 18 18.4081 18 16.4444Z" stroke="black" stroke-width="1.1"/>
<path d="M1.22469 35V27.95H1.83469V34.45H5.51469V35H1.22469ZM8.33742 35.08C7.88409 35.08 7.49076 34.98 7.15742 34.78C6.82409 34.5733 6.56409 34.2833 6.37742 33.91C6.19742 33.53 6.10742 33.0833 6.10742 32.57C6.10742 32.0633 6.19742 31.6233 6.37742 31.25C6.56409 30.87 6.82409 30.5767 7.15742 30.37C7.49076 30.1633 7.88409 30.06 8.33742 30.06C8.79742 30.06 9.19409 30.1633 9.52742 30.37C9.86076 30.5767 10.1174 30.87 10.2974 31.25C10.4841 31.6233 10.5774 32.0633 10.5774 32.57C10.5774 33.0833 10.4841 33.53 10.2974 33.91C10.1174 34.2833 9.86076 34.5733 9.52742 34.78C9.19409 34.98 8.79742 35.08 8.33742 35.08ZM8.33742 34.57C8.83076 34.57 9.22409 34.3967 9.51742 34.05C9.81076 33.6967 9.95742 33.2033 9.95742 32.57C9.95742 31.9367 9.81076 31.4467 9.51742 31.1C9.22409 30.7533 8.83076 30.58 8.33742 30.58C7.84409 30.58 7.45076 30.7533 7.15742 31.1C6.87076 31.4467 6.72742 31.9367 6.72742 32.57C6.72742 33.2033 6.87076 33.6967 7.15742 34.05C7.45076 34.3967 7.84409 34.57 8.33742 34.57ZM13.0976 35L11.3376 30.15H11.9876L13.4176 34.28L14.9076 30.15H15.5076L16.9676 34.29L18.4276 30.15H19.0576L17.2876 35H16.6576L15.1976 30.94L13.7276 35H13.0976ZM22.2186 35.08C21.4719 35.08 20.8819 34.86 20.4486 34.42C20.0219 33.9733 19.8086 33.3633 19.8086 32.59C19.8086 32.09 19.9053 31.65 20.0986 31.27C20.2919 30.89 20.5586 30.5933 20.8986 30.38C21.2453 30.1667 21.6419 30.06 22.0886 30.06C22.7353 30.06 23.2386 30.27 23.5986 30.69C23.9586 31.11 24.1386 31.6867 24.1386 32.42V32.7H20.4086C20.4286 33.3 20.5919 33.7633 20.8986 34.09C21.2119 34.41 21.6453 34.57 22.1986 34.57C22.4986 34.57 22.7786 34.5233 23.0386 34.43C23.3053 34.3367 23.5653 34.18 23.8186 33.96L24.0586 34.42C23.8453 34.6267 23.5719 34.79 23.2386 34.91C22.9053 35.0233 22.5653 35.08 22.2186 35.08ZM22.0986 30.55C21.5919 30.55 21.1953 30.71 20.9086 31.03C20.6286 31.3433 20.4653 31.75 20.4186 32.25H23.5886C23.5753 31.7167 23.4419 31.3 23.1886 31C22.9353 30.7 22.5719 30.55 22.0986 30.55ZM25.382 35V30.15H25.982V31.03C26.122 30.7233 26.3254 30.49 26.592 30.33C26.8587 30.17 27.1987 30.0767 27.612 30.05L27.862 30.03L27.922 30.56L27.492 30.61C27.0187 30.65 26.652 30.8067 26.392 31.08C26.132 31.3467 26.002 31.7067 26.002 32.16V35H25.382Z" fill="black"/>
</svg>
