<svg width="49" height="42" viewBox="0 0 49 42" fill="none" xmlns="http://www.w3.org/2000/svg">
<path d="M1.58016 35V27.95H4.24016C4.99349 27.95 5.56682 28.13 5.96016 28.49C6.36016 28.85 6.56016 29.3633 6.56016 30.03C6.56016 30.69 6.36016 31.2033 5.96016 31.57C5.56682 31.93 4.99349 32.11 4.24016 32.11H2.19016V35H1.58016ZM2.19016 31.57H4.19016C5.35682 31.57 5.94016 31.0567 5.94016 30.03C5.94016 28.9967 5.35682 28.48 4.19016 28.48H2.19016V31.57ZM8.94648 35.08C8.61982 35.08 8.32648 35.0167 8.06648 34.89C7.81315 34.7633 7.60982 34.59 7.45648 34.37C7.30982 34.15 7.23648 33.9033 7.23648 33.63C7.23648 33.27 7.32648 32.99 7.50648 32.79C7.68648 32.5833 7.98982 32.4367 8.41648 32.35C8.84315 32.2633 9.42982 32.22 10.1765 32.22H10.4865V31.86C10.4865 31.4133 10.3965 31.09 10.2165 30.89C10.0365 30.6833 9.74982 30.58 9.35648 30.58C9.06315 30.58 8.77982 30.6233 8.50648 30.71C8.23982 30.7967 7.96315 30.9333 7.67648 31.12L7.43648 30.65C7.68982 30.47 7.98982 30.3267 8.33648 30.22C8.68315 30.1133 9.01982 30.06 9.34648 30.06C9.93315 30.06 10.3665 30.21 10.6465 30.51C10.9332 30.81 11.0765 31.27 11.0765 31.89V35H10.4965V34.13C10.3632 34.43 10.1598 34.6633 9.88648 34.83C9.61982 34.9967 9.30648 35.08 8.94648 35.08ZM9.02648 34.59C9.31315 34.59 9.56315 34.5233 9.77648 34.39C9.99648 34.25 10.1698 34.06 10.2965 33.82C10.4232 33.58 10.4865 33.3067 10.4865 33V32.67H10.1865C9.58648 32.67 9.11648 32.6967 8.77648 32.75C8.44315 32.8033 8.20982 32.8967 8.07648 33.03C7.94315 33.1633 7.87648 33.3467 7.87648 33.58C7.87648 33.88 7.97982 34.1233 8.18648 34.31C8.39315 34.4967 8.67315 34.59 9.02648 34.59ZM14.2511 35.08C13.8911 35.08 13.5444 35.0267 13.2111 34.92C12.8844 34.8133 12.6144 34.66 12.4011 34.46L12.6211 34.01C12.8678 34.21 13.1311 34.3567 13.4111 34.45C13.6911 34.5367 13.9778 34.58 14.2711 34.58C14.6844 34.58 14.9944 34.5067 15.2011 34.36C15.4144 34.2067 15.5211 33.9967 15.5211 33.73C15.5211 33.5233 15.4511 33.36 15.3111 33.24C15.1711 33.12 14.9511 33.0233 14.6511 32.95L13.7811 32.75C12.9611 32.5633 12.5511 32.14 12.5511 31.48C12.5511 31.0533 12.7178 30.71 13.0511 30.45C13.3844 30.19 13.8244 30.06 14.3711 30.06C14.7044 30.06 15.0178 30.1167 15.3111 30.23C15.6044 30.3367 15.8444 30.4933 16.0311 30.7L15.7911 31.15C15.5978 30.9567 15.3778 30.8133 15.1311 30.72C14.8844 30.62 14.6278 30.57 14.3611 30.57C13.9744 30.57 13.6744 30.65 13.4611 30.81C13.2544 30.97 13.1511 31.1867 13.1511 31.46C13.1511 31.6667 13.2144 31.8333 13.3411 31.96C13.4678 32.0867 13.6744 32.1833 13.9611 32.25L14.8311 32.45C15.2644 32.55 15.5878 32.7 15.8011 32.9C16.0144 33.0933 16.1211 33.3567 16.1211 33.69C16.1211 34.1233 15.9511 34.4633 15.6111 34.71C15.2711 34.9567 14.8178 35.08 14.2511 35.08ZM19.0265 35.08C18.6665 35.08 18.3198 35.0267 17.9865 34.92C17.6598 34.8133 17.3898 34.66 17.1765 34.46L17.3965 34.01C17.6432 34.21 17.9065 34.3567 18.1865 34.45C18.4665 34.5367 18.7532 34.58 19.0465 34.58C19.4598 34.58 19.7698 34.5067 19.9765 34.36C20.1898 34.2067 20.2965 33.9967 20.2965 33.73C20.2965 33.5233 20.2265 33.36 20.0865 33.24C19.9465 33.12 19.7265 33.0233 19.4265 32.95L18.5565 32.75C17.7365 32.5633 17.3265 32.14 17.3265 31.48C17.3265 31.0533 17.4932 30.71 17.8265 30.45C18.1598 30.19 18.5998 30.06 19.1465 30.06C19.4798 30.06 19.7932 30.1167 20.0865 30.23C20.3798 30.3367 20.6198 30.4933 20.8065 30.7L20.5665 31.15C20.3732 30.9567 20.1532 30.8133 19.9065 30.72C19.6598 30.62 19.4032 30.57 19.1365 30.57C18.7498 30.57 18.4498 30.65 18.2365 30.81C18.0298 30.97 17.9265 31.1867 17.9265 31.46C17.9265 31.6667 17.9898 31.8333 18.1165 31.96C18.2432 32.0867 18.4498 32.1833 18.7365 32.25L19.6065 32.45C20.0398 32.55 20.3632 32.7 20.5765 32.9C20.7898 33.0933 20.8965 33.3567 20.8965 33.69C20.8965 34.1233 20.7265 34.4633 20.3865 34.71C20.0465 34.9567 19.5932 35.08 19.0265 35.08ZM22.1219 28.87V28.1H22.9419V28.87H22.1219ZM22.2219 35V30.15H22.8319V35H22.2219ZM25.8787 35L23.7987 30.15H24.4787L26.1887 34.33L27.9287 30.15H28.5687L26.4887 35H25.8787ZM31.578 35.08C30.8313 35.08 30.2413 34.86 29.808 34.42C29.3813 33.9733 29.168 33.3633 29.168 32.59C29.168 32.09 29.2646 31.65 29.458 31.27C29.6513 30.89 29.918 30.5933 30.258 30.38C30.6046 30.1667 31.0013 30.06 31.448 30.06C32.0946 30.06 32.598 30.27 32.958 30.69C33.318 31.11 33.498 31.6867 33.498 32.42V32.7H29.768C29.788 33.3 29.9513 33.7633 30.258 34.09C30.5713 34.41 31.0046 34.57 31.558 34.57C31.858 34.57 32.138 34.5233 32.398 34.43C32.6646 34.3367 32.9246 34.18 33.178 33.96L33.418 34.42C33.2046 34.6267 32.9313 34.79 32.598 34.91C32.2646 35.0233 31.9246 35.08 31.578 35.08ZM31.458 30.55C30.9513 30.55 30.5546 30.71 30.268 31.03C29.988 31.3433 29.8246 31.75 29.778 32.25H32.948C32.9346 31.7167 32.8013 31.3 32.548 31C32.2946 30.7 31.9313 30.55 31.458 30.55ZM41.0409 35L39.2809 30.15H39.9309L41.3609 34.28L42.8509 30.15H43.4509L44.9109 34.29L46.3709 30.15H47.0009L45.2309 35H44.6009L43.1409 30.94L41.6709 35H41.0409ZM47.4825 35V34.14H48.3325V35H47.4825Z" fill="black"/>
<path d="M25 9L25 18" stroke="black" stroke-width="1.1" stroke-linecap="round"/>
<path d="M25 9L29 5" stroke="black" stroke-width="1.1" stroke-linecap="round"/>
<path d="M29 4.55556C29 6.51923 27 7.66667 25 9C23 7.66667 21 6.51923 21 4.55556C21 2.59188 22.7909 1 25 1C27.2091 1 29 2.59188 29 4.55556Z" stroke="black" stroke-width="1.1"/>
<path d="M29 13.4444C29 11.4808 27 10.3333 25 9C23 10.3333 21 11.4808 21 13.4444C21 15.4081 22.7909 17 25 17C27.2091 17 29 15.4081 29 13.4444Z" stroke="black" stroke-width="1.1"/>
<circle cx="25" cy="21" r="0.75" fill="black"/>
</svg>
