<svg width="45" height="44" viewBox="0 0 45 44" fill="none" xmlns="http://www.w3.org/2000/svg">
<path d="M0.92 37V29.95H3.58C4.33333 29.95 4.90667 30.13 5.3 30.49C5.7 30.85 5.9 31.3633 5.9 32.03C5.9 32.69 5.7 33.2033 5.3 33.57C4.90667 33.93 4.33333 34.11 3.58 34.11H1.53V37H0.92ZM1.53 33.57H3.53C4.69667 33.57 5.28 33.0567 5.28 32.03C5.28 30.9967 4.69667 30.48 3.53 30.48H1.53V33.57ZM8.93539 37.08C8.18872 37.08 7.59872 36.86 7.16539 36.42C6.73872 35.9733 6.52539 35.3633 6.52539 34.59C6.52539 34.09 6.62206 33.65 6.81539 33.27C7.00872 32.89 7.27539 32.5933 7.61539 32.38C7.96206 32.1667 8.35872 32.06 8.80539 32.06C9.45206 32.06 9.95539 32.27 10.3154 32.69C10.6754 33.11 10.8554 33.6867 10.8554 34.42V34.7H7.12539C7.14539 35.3 7.30872 35.7633 7.61539 36.09C7.92872 36.41 8.36206 36.57 8.91539 36.57C9.21539 36.57 9.49539 36.5233 9.75539 36.43C10.0221 36.3367 10.2821 36.18 10.5354 35.96L10.7754 36.42C10.5621 36.6267 10.2887 36.79 9.95539 36.91C9.62206 37.0233 9.28206 37.08 8.93539 37.08ZM8.81539 32.55C8.30872 32.55 7.91206 32.71 7.62539 33.03C7.34539 33.3433 7.18206 33.75 7.13539 34.25H10.3054C10.2921 33.7167 10.1587 33.3 9.90539 33C9.65206 32.7 9.28872 32.55 8.81539 32.55ZM12.0988 37V32.15H12.6988V33.03C12.8388 32.7233 13.0422 32.49 13.3088 32.33C13.5755 32.17 13.9155 32.0767 14.3288 32.05L14.5788 32.03L14.6388 32.56L14.2088 32.61C13.7355 32.65 13.3688 32.8067 13.1088 33.08C12.8488 33.3467 12.7188 33.7067 12.7188 34.16V37H12.0988ZM15.4168 30.87V30.1H16.2368V30.87H15.4168ZM15.5168 37V32.15H16.1268V37H15.5168ZM17.7336 38.8V32.15H18.3436V33.06C18.4903 32.7533 18.7103 32.51 19.0036 32.33C19.3036 32.15 19.6503 32.06 20.0436 32.06C20.4769 32.06 20.8536 32.1633 21.1736 32.37C21.5003 32.5767 21.7503 32.8667 21.9236 33.24C22.1036 33.6133 22.1936 34.0567 22.1936 34.57C22.1936 35.0833 22.1036 35.53 21.9236 35.91C21.7503 36.2833 21.5003 36.5733 21.1736 36.78C20.8536 36.98 20.4769 37.08 20.0436 37.08C19.6503 37.08 19.3036 36.9933 19.0036 36.82C18.7103 36.6467 18.4903 36.4067 18.3436 36.1V38.8H17.7336ZM19.9536 36.57C20.4469 36.57 20.8403 36.3967 21.1336 36.05C21.4269 35.6967 21.5736 35.2033 21.5736 34.57C21.5736 33.9367 21.4269 33.4467 21.1336 33.1C20.8403 32.7533 20.4469 32.58 19.9536 32.58C19.4603 32.58 19.0669 32.7533 18.7736 33.1C18.4803 33.4467 18.3336 33.9367 18.3336 34.57C18.3336 35.2033 18.4803 35.6967 18.7736 36.05C19.0669 36.3967 19.4603 36.57 19.9536 36.57ZM23.4855 37V29.95H24.0955V32.99C24.2622 32.6833 24.4922 32.4533 24.7855 32.3C25.0855 32.14 25.4155 32.06 25.7755 32.06C26.9289 32.06 27.5055 32.6867 27.5055 33.94V37H26.8955V33.99C26.8955 33.51 26.7989 33.1567 26.6055 32.93C26.4122 32.7033 26.1055 32.59 25.6855 32.59C25.2055 32.59 24.8189 32.74 24.5255 33.04C24.2389 33.3333 24.0955 33.73 24.0955 34.23V37H23.4855ZM31.1913 37.08C30.4446 37.08 29.8546 36.86 29.4213 36.42C28.9946 35.9733 28.7813 35.3633 28.7813 34.59C28.7813 34.09 28.8779 33.65 29.0713 33.27C29.2646 32.89 29.5313 32.5933 29.8713 32.38C30.2179 32.1667 30.6146 32.06 31.0613 32.06C31.7079 32.06 32.2113 32.27 32.5713 32.69C32.9313 33.11 33.1113 33.6867 33.1113 34.42V34.7H29.3813C29.4013 35.3 29.5646 35.7633 29.8713 36.09C30.1846 36.41 30.6179 36.57 31.1713 36.57C31.4713 36.57 31.7513 36.5233 32.0113 36.43C32.2779 36.3367 32.5379 36.18 32.7913 35.96L33.0313 36.42C32.8179 36.6267 32.5446 36.79 32.2113 36.91C31.8779 37.0233 31.5379 37.08 31.1913 37.08ZM31.0713 32.55C30.5646 32.55 30.1679 32.71 29.8813 33.03C29.6013 33.3433 29.4379 33.75 29.3913 34.25H32.5613C32.5479 33.7167 32.4146 33.3 32.1613 33C31.9079 32.7 31.5446 32.55 31.0713 32.55ZM34.3547 37V32.15H34.9547V33.03C35.0947 32.7233 35.298 32.49 35.5647 32.33C35.8314 32.17 36.1714 32.0767 36.5847 32.05L36.8347 32.03L36.8947 32.56L36.4647 32.61C35.9914 32.65 35.6247 32.8067 35.3647 33.08C35.1047 33.3467 34.9747 33.7067 34.9747 34.16V37H34.3547ZM39.2238 37.08C38.8972 37.08 38.6038 37.0167 38.3438 36.89C38.0905 36.7633 37.8872 36.59 37.7338 36.37C37.5872 36.15 37.5138 35.9033 37.5138 35.63C37.5138 35.27 37.6038 34.99 37.7838 34.79C37.9638 34.5833 38.2672 34.4367 38.6938 34.35C39.1205 34.2633 39.7072 34.22 40.4538 34.22H40.7638V33.86C40.7638 33.4133 40.6738 33.09 40.4938 32.89C40.3138 32.6833 40.0272 32.58 39.6338 32.58C39.3405 32.58 39.0572 32.6233 38.7838 32.71C38.5172 32.7967 38.2405 32.9333 37.9538 33.12L37.7138 32.65C37.9672 32.47 38.2672 32.3267 38.6138 32.22C38.9605 32.1133 39.2972 32.06 39.6238 32.06C40.2105 32.06 40.6438 32.21 40.9238 32.51C41.2105 32.81 41.3538 33.27 41.3538 33.89V37H40.7738V36.13C40.6405 36.43 40.4372 36.6633 40.1638 36.83C39.8972 36.9967 39.5838 37.08 39.2238 37.08ZM39.3038 36.59C39.5905 36.59 39.8405 36.5233 40.0538 36.39C40.2738 36.25 40.4472 36.06 40.5738 35.82C40.7005 35.58 40.7638 35.3067 40.7638 35V34.67H40.4638C39.8638 34.67 39.3938 34.6967 39.0538 34.75C38.7205 34.8033 38.4872 34.8967 38.3538 35.03C38.2205 35.1633 38.1538 35.3467 38.1538 35.58C38.1538 35.88 38.2572 36.1233 38.4638 36.31C38.6705 36.4967 38.9505 36.59 39.3038 36.59ZM44.3584 37.08C43.9051 37.08 43.5551 36.9433 43.3084 36.67C43.0684 36.39 42.9484 35.99 42.9484 35.47V29.95H43.5584V35.4C43.5584 36.1667 43.8584 36.55 44.4584 36.55C44.6251 36.55 44.7784 36.53 44.9184 36.49L44.8984 37.02C44.7051 37.06 44.5251 37.08 44.3584 37.08Z" fill="black"/>
<path d="M24 5L22 3L24 1" stroke="black" stroke-width="1.1" stroke-linecap="round" stroke-linejoin="round"/>
<circle cx="23" cy="12" r="9" stroke="black" stroke-width="1.1"/>
</svg>
