<svg width="34" height="43" viewBox="0 0 34 43" fill="none" xmlns="http://www.w3.org/2000/svg">
<path d="M1.18953 36V28.95H3.84953C4.60286 28.95 5.1762 29.13 5.56953 29.49C5.96953 29.85 6.16953 30.3633 6.16953 31.03C6.16953 31.69 5.96953 32.2033 5.56953 32.57C5.1762 32.93 4.60286 33.11 3.84953 33.11H1.79953V36H1.18953ZM1.79953 32.57H3.79953C4.9662 32.57 5.54953 32.0567 5.54953 31.03C5.54953 29.9967 4.9662 29.48 3.79953 29.48H1.79953V32.57ZM9.02492 36.08C8.57159 36.08 8.17826 35.98 7.84492 35.78C7.51159 35.5733 7.25159 35.2833 7.06492 34.91C6.88492 34.53 6.79492 34.0833 6.79492 33.57C6.79492 33.0633 6.88492 32.6233 7.06492 32.25C7.25159 31.87 7.51159 31.5767 7.84492 31.37C8.17826 31.1633 8.57159 31.06 9.02492 31.06C9.48492 31.06 9.88159 31.1633 10.2149 31.37C10.5483 31.5767 10.8049 31.87 10.9849 32.25C11.1716 32.6233 11.2649 33.0633 11.2649 33.57C11.2649 34.0833 11.1716 34.53 10.9849 34.91C10.8049 35.2833 10.5483 35.5733 10.2149 35.78C9.88159 35.98 9.48492 36.08 9.02492 36.08ZM9.02492 35.57C9.51826 35.57 9.91159 35.3967 10.2049 35.05C10.4983 34.6967 10.6449 34.2033 10.6449 33.57C10.6449 32.9367 10.4983 32.4467 10.2049 32.1C9.91159 31.7533 9.51826 31.58 9.02492 31.58C8.53159 31.58 8.13826 31.7533 7.84492 32.1C7.55826 32.4467 7.41492 32.9367 7.41492 33.57C7.41492 34.2033 7.55826 34.6967 7.84492 35.05C8.13826 35.3967 8.53159 35.57 9.02492 35.57ZM14.1437 36.08C13.7837 36.08 13.437 36.0267 13.1037 35.92C12.777 35.8133 12.507 35.66 12.2937 35.46L12.5137 35.01C12.7603 35.21 13.0237 35.3567 13.3037 35.45C13.5837 35.5367 13.8703 35.58 14.1637 35.58C14.577 35.58 14.887 35.5067 15.0937 35.36C15.307 35.2067 15.4137 34.9967 15.4137 34.73C15.4137 34.5233 15.3437 34.36 15.2037 34.24C15.0637 34.12 14.8437 34.0233 14.5437 33.95L13.6737 33.75C12.8537 33.5633 12.4437 33.14 12.4437 32.48C12.4437 32.0533 12.6103 31.71 12.9437 31.45C13.277 31.19 13.717 31.06 14.2637 31.06C14.597 31.06 14.9103 31.1167 15.2037 31.23C15.497 31.3367 15.737 31.4933 15.9237 31.7L15.6837 32.15C15.4903 31.9567 15.2703 31.8133 15.0237 31.72C14.777 31.62 14.5203 31.57 14.2537 31.57C13.867 31.57 13.567 31.65 13.3537 31.81C13.147 31.97 13.0437 32.1867 13.0437 32.46C13.0437 32.6667 13.107 32.8333 13.2337 32.96C13.3603 33.0867 13.567 33.1833 13.8537 33.25L14.7237 33.45C15.157 33.55 15.4803 33.7 15.6937 33.9C15.907 34.0933 16.0137 34.3567 16.0137 34.69C16.0137 35.1233 15.8437 35.4633 15.5037 35.71C15.1637 35.9567 14.7103 36.08 14.1437 36.08ZM19.1202 36.08C18.5802 36.08 18.1736 35.9333 17.9002 35.64C17.6336 35.3467 17.5002 34.9267 17.5002 34.38V31.64H16.5402V31.15H17.5002V29.65H18.1102V31.15H19.6802V31.64H18.1102V34.3C18.1102 34.7067 18.1936 35.0167 18.3602 35.23C18.5269 35.4433 18.8036 35.55 19.1902 35.55C19.3036 35.55 19.4136 35.5367 19.5202 35.51C19.6269 35.4833 19.7202 35.4533 19.8002 35.42L19.9202 35.9C19.8469 35.9467 19.7302 35.9867 19.5702 36.02C19.4102 36.06 19.2602 36.08 19.1202 36.08ZM22.3498 36.08C21.1965 36.08 20.6198 35.4533 20.6198 34.2V31.15H21.2298V34.17C21.2298 34.6433 21.3265 34.9933 21.5198 35.22C21.7132 35.4467 22.0165 35.56 22.4298 35.56C22.8765 35.56 23.2398 35.41 23.5198 35.11C23.8065 34.81 23.9498 34.41 23.9498 33.91V31.15H24.5598V36H23.9698V35.14C23.8098 35.4467 23.5865 35.68 23.2998 35.84C23.0198 36 22.7032 36.08 22.3498 36.08ZM26.1672 36V31.15H26.7672V32.03C26.9072 31.7233 27.1105 31.49 27.3772 31.33C27.6439 31.17 27.9839 31.0767 28.3972 31.05L28.6472 31.03L28.7072 31.56L28.2772 31.61C27.8039 31.65 27.4372 31.8067 27.1772 32.08C26.9172 32.3467 26.7872 32.7067 26.7872 33.16V36H26.1672ZM31.6366 36.08C30.8899 36.08 30.2999 35.86 29.8666 35.42C29.4399 34.9733 29.2266 34.3633 29.2266 33.59C29.2266 33.09 29.3232 32.65 29.5166 32.27C29.7099 31.89 29.9766 31.5933 30.3166 31.38C30.6632 31.1667 31.0599 31.06 31.5066 31.06C32.1532 31.06 32.6566 31.27 33.0166 31.69C33.3766 32.11 33.5566 32.6867 33.5566 33.42V33.7H29.8266C29.8466 34.3 30.0099 34.7633 30.3166 35.09C30.6299 35.41 31.0632 35.57 31.6166 35.57C31.9166 35.57 32.1966 35.5233 32.4566 35.43C32.7232 35.3367 32.9832 35.18 33.2366 34.96L33.4766 35.42C33.2632 35.6267 32.9899 35.79 32.6566 35.91C32.3232 36.0233 31.9832 36.08 31.6366 36.08ZM31.5166 31.55C31.0099 31.55 30.6132 31.71 30.3266 32.03C30.0466 32.3433 29.8832 32.75 29.8366 33.25H33.0066C32.9932 32.7167 32.8599 32.3 32.6066 32C32.3532 31.7 31.9899 31.55 31.5166 31.55Z" fill="black"/>
<path d="M17 2V22" stroke="black" stroke-width="1.1" stroke-linecap="round" stroke-linejoin="round"/>
<path d="M20 11.1667C20 12.6394 18.5 13.5 17 14.5C15.5 13.5 14 12.6394 14 11.1667C14 9.69391 15.3431 8.5 17 8.5C18.6569 8.5 20 9.69391 20 11.1667Z" stroke="black" stroke-width="1.1"/>
<path d="M20 17.8333C20 16.3606 18.5 15.5 17 14.5C15.5 15.5 14 16.3606 14 17.8333C14 19.3061 15.3431 20.5 17 20.5C18.6569 20.5 20 19.3061 20 17.8333Z" stroke="black" stroke-width="1.1"/>
</svg>
