<svg width="39" height="42" viewBox="0 0 39 42" fill="none" xmlns="http://www.w3.org/2000/svg">
<path d="M1.67781 35V27.95H4.33781C5.09115 27.95 5.66448 28.1233 6.05781 28.47C6.45781 28.8167 6.65781 29.31 6.65781 29.95C6.65781 30.4767 6.51448 30.9033 6.22781 31.23C5.94115 31.5567 5.53448 31.7667 5.00781 31.86C5.29448 31.9667 5.54781 32.2267 5.76781 32.64L7.04781 35H6.37781L5.15781 32.74C4.98448 32.4267 4.79115 32.2167 4.57781 32.11C4.36448 32.0033 4.07781 31.95 3.71781 31.95H2.28781V35H1.67781ZM2.28781 31.43H4.25781C5.44448 31.43 6.03781 30.9367 6.03781 29.95C6.03781 28.97 5.44448 28.48 4.25781 28.48H2.28781V31.43ZM10.1717 35.08C9.42505 35.08 8.83505 34.86 8.40172 34.42C7.97505 33.9733 7.76172 33.3633 7.76172 32.59C7.76172 32.09 7.85839 31.65 8.05172 31.27C8.24505 30.89 8.51172 30.5933 8.85172 30.38C9.19839 30.1667 9.59505 30.06 10.0417 30.06C10.6884 30.06 11.1917 30.27 11.5517 30.69C11.9117 31.11 12.0917 31.6867 12.0917 32.42V32.7H8.36172C8.38172 33.3 8.54505 33.7633 8.85172 34.09C9.16505 34.41 9.59839 34.57 10.1517 34.57C10.4517 34.57 10.7317 34.5233 10.9917 34.43C11.2584 34.3367 11.5184 34.18 11.7717 33.96L12.0117 34.42C11.7984 34.6267 11.5251 34.79 11.1917 34.91C10.8584 35.0233 10.5184 35.08 10.1717 35.08ZM10.0517 30.55C9.54505 30.55 9.14839 30.71 8.86172 31.03C8.58172 31.3433 8.41839 31.75 8.37172 32.25H11.5417C11.5284 31.7167 11.3951 31.3 11.1417 31C10.8884 30.7 10.5251 30.55 10.0517 30.55ZM14.7166 35L12.6366 30.15H13.3166L15.0266 34.33L16.7666 30.15H17.4066L15.3266 35H14.7166ZM20.4159 35.08C19.6692 35.08 19.0792 34.86 18.6459 34.42C18.2192 33.9733 18.0059 33.3633 18.0059 32.59C18.0059 32.09 18.1025 31.65 18.2959 31.27C18.4892 30.89 18.7559 30.5933 19.0959 30.38C19.4425 30.1667 19.8392 30.06 20.2859 30.06C20.9325 30.06 21.4359 30.27 21.7959 30.69C22.1559 31.11 22.3359 31.6867 22.3359 32.42V32.7H18.6059C18.6259 33.3 18.7892 33.7633 19.0959 34.09C19.4092 34.41 19.8425 34.57 20.3959 34.57C20.6959 34.57 20.9759 34.5233 21.2359 34.43C21.5025 34.3367 21.7625 34.18 22.0159 33.96L22.2559 34.42C22.0425 34.6267 21.7692 34.79 21.4359 34.91C21.1025 35.0233 20.7625 35.08 20.4159 35.08ZM20.2959 30.55C19.7892 30.55 19.3925 30.71 19.1059 31.03C18.8259 31.3433 18.6625 31.75 18.6159 32.25H21.7859C21.7725 31.7167 21.6392 31.3 21.3859 31C21.1325 30.7 20.7692 30.55 20.2959 30.55ZM23.5793 35V30.15H24.1793V31.03C24.3193 30.7233 24.5226 30.49 24.7893 30.33C25.056 30.17 25.396 30.0767 25.8093 30.05L26.0593 30.03L26.1193 30.56L25.6893 30.61C25.216 30.65 24.8493 30.8067 24.5893 31.08C24.3293 31.3467 24.1993 31.7067 24.1993 32.16V35H23.5793ZM28.5284 35.08C28.1684 35.08 27.8218 35.0267 27.4884 34.92C27.1618 34.8133 26.8918 34.66 26.6784 34.46L26.8984 34.01C27.1451 34.21 27.4084 34.3567 27.6884 34.45C27.9684 34.5367 28.2551 34.58 28.5484 34.58C28.9618 34.58 29.2718 34.5067 29.4784 34.36C29.6918 34.2067 29.7984 33.9967 29.7984 33.73C29.7984 33.5233 29.7284 33.36 29.5884 33.24C29.4484 33.12 29.2284 33.0233 28.9284 32.95L28.0584 32.75C27.2384 32.5633 26.8284 32.14 26.8284 31.48C26.8284 31.0533 26.9951 30.71 27.3284 30.45C27.6618 30.19 28.1018 30.06 28.6484 30.06C28.9818 30.06 29.2951 30.1167 29.5884 30.23C29.8818 30.3367 30.1218 30.4933 30.3084 30.7L30.0684 31.15C29.8751 30.9567 29.6551 30.8133 29.4084 30.72C29.1618 30.62 28.9051 30.57 28.6384 30.57C28.2518 30.57 27.9518 30.65 27.7384 30.81C27.5318 30.97 27.4284 31.1867 27.4284 31.46C27.4284 31.6667 27.4918 31.8333 27.6184 31.96C27.7451 32.0867 27.9518 32.1833 28.2384 32.25L29.1084 32.45C29.5418 32.55 29.8651 32.7 30.0784 32.9C30.2918 33.0933 30.3984 33.3567 30.3984 33.69C30.3984 34.1233 30.2284 34.4633 29.8884 34.71C29.5484 34.9567 29.0951 35.08 28.5284 35.08ZM33.2238 35.08C32.8972 35.08 32.6038 35.0167 32.3438 34.89C32.0905 34.7633 31.8872 34.59 31.7338 34.37C31.5872 34.15 31.5138 33.9033 31.5138 33.63C31.5138 33.27 31.6038 32.99 31.7838 32.79C31.9638 32.5833 32.2672 32.4367 32.6938 32.35C33.1205 32.2633 33.7072 32.22 34.4538 32.22H34.7638V31.86C34.7638 31.4133 34.6738 31.09 34.4938 30.89C34.3138 30.6833 34.0272 30.58 33.6338 30.58C33.3405 30.58 33.0572 30.6233 32.7838 30.71C32.5172 30.7967 32.2405 30.9333 31.9538 31.12L31.7138 30.65C31.9672 30.47 32.2672 30.3267 32.6138 30.22C32.9605 30.1133 33.2972 30.06 33.6238 30.06C34.2105 30.06 34.6438 30.21 34.9238 30.51C35.2105 30.81 35.3538 31.27 35.3538 31.89V35H34.7738V34.13C34.6405 34.43 34.4372 34.6633 34.1638 34.83C33.8972 34.9967 33.5838 35.08 33.2238 35.08ZM33.3038 34.59C33.5905 34.59 33.8405 34.5233 34.0538 34.39C34.2738 34.25 34.4472 34.06 34.5738 33.82C34.7005 33.58 34.7638 33.3067 34.7638 33V32.67H34.4638C33.8638 32.67 33.3938 32.6967 33.0538 32.75C32.7205 32.8033 32.4872 32.8967 32.3538 33.03C32.2205 33.1633 32.1538 33.3467 32.1538 33.58C32.1538 33.88 32.2572 34.1233 32.4638 34.31C32.6705 34.4967 32.9505 34.59 33.3038 34.59ZM38.3584 35.08C37.9051 35.08 37.5551 34.9433 37.3084 34.67C37.0684 34.39 36.9484 33.99 36.9484 33.47V27.95H37.5584V33.4C37.5584 34.1667 37.8584 34.55 38.4584 34.55C38.6251 34.55 38.7784 34.53 38.9184 34.49L38.8984 35.02C38.7051 35.06 38.5251 35.08 38.3584 35.08Z" fill="black"/>
<path d="M20 1L20 10" stroke="black" stroke-width="1.1" stroke-linecap="round"/>
<path d="M20 13L20 22" stroke="black" stroke-width="1.1" stroke-linecap="round"/>
</svg>
