<svg width="45" height="44" viewBox="0 0 45 44" fill="none" xmlns="http://www.w3.org/2000/svg">
<path d="M1.28719 37V29.95H3.94719C4.70052 29.95 5.27385 30.1233 5.66719 30.47C6.06719 30.8167 6.26719 31.31 6.26719 31.95C6.26719 32.4767 6.12385 32.9033 5.83719 33.23C5.55052 33.5567 5.14385 33.7667 4.61719 33.86C4.90385 33.9667 5.15719 34.2267 5.37719 34.64L6.65719 37H5.98719L4.76719 34.74C4.59385 34.4267 4.40052 34.2167 4.18719 34.11C3.97385 34.0033 3.68719 33.95 3.32719 33.95H1.89719V37H1.28719ZM1.89719 33.43H3.86719C5.05385 33.43 5.64719 32.9367 5.64719 31.95C5.64719 30.97 5.05385 30.48 3.86719 30.48H1.89719V33.43ZM7.67852 30.87V30.1H8.49852V30.87H7.67852ZM7.77852 37V32.15H8.38852V37H7.77852ZM12.1053 38.88C11.2586 38.88 10.5553 38.6567 9.99531 38.21L10.2253 37.75C10.532 37.97 10.8286 38.1267 11.1153 38.22C11.402 38.32 11.7253 38.37 12.0853 38.37C12.572 38.37 12.942 38.2367 13.1953 37.97C13.4486 37.7033 13.5753 37.3167 13.5753 36.81V35.87C13.4353 36.19 13.212 36.44 12.9053 36.62C12.6053 36.8 12.262 36.89 11.8753 36.89C11.422 36.89 11.032 36.79 10.7053 36.59C10.3853 36.3833 10.1353 36.1 9.95531 35.74C9.78198 35.3733 9.69531 34.95 9.69531 34.47C9.69531 33.99 9.78198 33.57 9.95531 33.21C10.1353 32.85 10.3853 32.57 10.7053 32.37C11.032 32.1633 11.422 32.06 11.8753 32.06C12.262 32.06 12.6053 32.15 12.9053 32.33C13.2053 32.51 13.4253 32.7567 13.5653 33.07V32.15H14.1653V36.72C14.1653 38.16 13.4786 38.88 12.1053 38.88ZM11.9453 36.37C12.4453 36.37 12.842 36.2 13.1353 35.86C13.4286 35.5133 13.5753 35.05 13.5753 34.47C13.5753 33.89 13.4286 33.43 13.1353 33.09C12.842 32.75 12.4453 32.58 11.9453 32.58C11.4386 32.58 11.0386 32.75 10.7453 33.09C10.4586 33.43 10.3153 33.89 10.3153 34.47C10.3153 35.05 10.4586 35.5133 10.7453 35.86C11.0386 36.2 11.4386 36.37 11.9453 36.37ZM15.7766 37V29.95H16.3866V32.99C16.5532 32.6833 16.7832 32.4533 17.0766 32.3C17.3766 32.14 17.7066 32.06 18.0666 32.06C19.2199 32.06 19.7966 32.6867 19.7966 33.94V37H19.1866V33.99C19.1866 33.51 19.0899 33.1567 18.8966 32.93C18.7032 32.7033 18.3966 32.59 17.9766 32.59C17.4966 32.59 17.1099 32.74 16.8166 33.04C16.5299 33.3333 16.3866 33.73 16.3866 34.23V37H15.7766ZM23.2023 37.08C22.6623 37.08 22.2556 36.9333 21.9823 36.64C21.7156 36.3467 21.5823 35.9267 21.5823 35.38V32.64H20.6223V32.15H21.5823V30.65H22.1923V32.15H23.7623V32.64H22.1923V35.3C22.1923 35.7067 22.2756 36.0167 22.4423 36.23C22.6089 36.4433 22.8856 36.55 23.2723 36.55C23.3856 36.55 23.4956 36.5367 23.6023 36.51C23.7089 36.4833 23.8023 36.4533 23.8823 36.42L24.0023 36.9C23.9289 36.9467 23.8123 36.9867 23.6523 37.02C23.4923 37.06 23.3423 37.08 23.2023 37.08ZM24.7399 37.59L24.2399 37.44L26.7899 29.52L27.2999 29.67L24.7399 37.59ZM28.0255 37V29.95H28.6355V36.45H32.3155V37H28.0255ZM35.3182 37.08C34.5715 37.08 33.9815 36.86 33.5482 36.42C33.1215 35.9733 32.9082 35.3633 32.9082 34.59C32.9082 34.09 33.0049 33.65 33.1982 33.27C33.3915 32.89 33.6582 32.5933 33.9982 32.38C34.3449 32.1667 34.7415 32.06 35.1882 32.06C35.8349 32.06 36.3382 32.27 36.6982 32.69C37.0582 33.11 37.2382 33.6867 37.2382 34.42V34.7H33.5082C33.5282 35.3 33.6915 35.7633 33.9982 36.09C34.3115 36.41 34.7449 36.57 35.2982 36.57C35.5982 36.57 35.8782 36.5233 36.1382 36.43C36.4049 36.3367 36.6649 36.18 36.9182 35.96L37.1582 36.42C36.9449 36.6267 36.6715 36.79 36.3382 36.91C36.0049 37.0233 35.6649 37.08 35.3182 37.08ZM35.1982 32.55C34.6915 32.55 34.2949 32.71 34.0082 33.03C33.7282 33.3433 33.5649 33.75 33.5182 34.25H36.6882C36.6749 33.7167 36.5415 33.3 36.2882 33C36.0349 32.7 35.6715 32.55 35.1982 32.55ZM38.7116 37V32.64H37.7516V32.15H38.7116V31.91C38.7116 30.6767 39.335 30.0233 40.5816 29.95L40.9316 29.92L40.9816 30.42L40.5216 30.45C40.1083 30.4767 39.805 30.6067 39.6116 30.84C39.4183 31.0733 39.3216 31.4133 39.3216 31.86V32.15H40.7516V32.64H39.3216V37H38.7116ZM43.2804 37.08C42.7404 37.08 42.3337 36.9333 42.0604 36.64C41.7937 36.3467 41.6604 35.9267 41.6604 35.38V32.64H40.7004V32.15H41.6604V30.65H42.2704V32.15H43.8404V32.64H42.2704V35.3C42.2704 35.7067 42.3537 36.0167 42.5204 36.23C42.6871 36.4433 42.9637 36.55 43.3504 36.55C43.4637 36.55 43.5737 36.5367 43.6804 36.51C43.7871 36.4833 43.8804 36.4533 43.9604 36.42L44.0804 36.9C44.0071 36.9467 43.8904 36.9867 43.7304 37.02C43.5704 37.06 43.4204 37.08 43.2804 37.08Z" fill="black"/>
<path d="M22 2V22" stroke="black" stroke-width="1.1" stroke-linecap="round" stroke-linejoin="round"/>
<path d="M26 7.55556C26 9.51923 24 10.6667 22 12C20 10.6667 18 9.51923 18 7.55556C18 5.59188 19.7909 4 22 4C24.2091 4 26 5.59188 26 7.55556Z" stroke="black" stroke-width="1.1"/>
<path d="M26 16.4444C26 14.4808 24 13.3333 22 12C20 13.3333 18 14.4808 18 16.4444C18 18.4081 19.7909 20 22 20C24.2091 20 26 18.4081 26 16.4444Z" stroke="black" stroke-width="1.1"/>
</svg>
