<svg width="24" height="44" viewBox="0 0 24 44" fill="none" xmlns="http://www.w3.org/2000/svg">
<circle cx="12" cy="12" r="0.75" fill="black"/>
<path d="M17 2.5V21.4784C17 21.9326 16.4433 22.1515 16.1339 21.8189L7.13391 12.1439C7.04784 12.0514 7 11.9298 7 11.8034V2.5C7 2.22386 7.22386 2 7.5 2H16.5C16.7761 2 17 2.22386 17 2.5Z" stroke="black" stroke-width="1.1" stroke-linecap="round" stroke-linejoin="round"/>
<path d="M2.11336 37V29.95H4.77336C5.52669 29.95 6.10003 30.1233 6.49336 30.47C6.89336 30.8167 7.09336 31.31 7.09336 31.95C7.09336 32.4767 6.95003 32.9033 6.66336 33.23C6.37669 33.5567 5.97003 33.7667 5.44336 33.86C5.73003 33.9667 5.98336 34.2267 6.20336 34.64L7.48336 37H6.81336L5.59336 34.74C5.42003 34.4267 5.22669 34.2167 5.01336 34.11C4.80003 34.0033 4.51336 33.95 4.15336 33.95H2.72336V37H2.11336ZM2.72336 33.43H4.69336C5.88003 33.43 6.47336 32.9367 6.47336 31.95C6.47336 30.97 5.88003 30.48 4.69336 30.48H2.72336V33.43ZM8.72469 37V29.95H11.4147C12.1347 29.95 12.6914 30.11 13.0847 30.43C13.4847 30.75 13.6847 31.2067 13.6847 31.8C13.6847 32.1867 13.5814 32.5167 13.3747 32.79C13.168 33.0633 12.888 33.2633 12.5347 33.39C12.9414 33.49 13.2614 33.6867 13.4947 33.98C13.728 34.2667 13.8447 34.6333 13.8447 35.08C13.8447 35.7067 13.6447 36.1833 13.2447 36.51C12.8447 36.8367 12.278 37 11.5447 37H8.72469ZM9.32469 33.17H11.3447C11.9047 33.17 12.3314 33.0567 12.6247 32.83C12.918 32.5967 13.0647 32.26 13.0647 31.82C13.0647 31.38 12.918 31.0467 12.6247 30.82C12.3314 30.5867 11.9047 30.47 11.3447 30.47H9.32469V33.17ZM9.32469 36.48H11.4947C12.648 36.48 13.2247 36.0167 13.2247 35.09C13.2247 34.61 13.0814 34.2567 12.7947 34.03C12.508 33.8033 12.0747 33.69 11.4947 33.69H9.32469V36.48ZM15.4537 37V29.95H15.9737L18.7737 35.26L21.5537 29.95H22.0737V37H21.5037V31.14L18.9937 35.91H18.5537L16.0137 31.15V37H15.4537Z" fill="black"/>
</svg>
