<svg width="58" height="44" viewBox="0 0 58 44" fill="none" xmlns="http://www.w3.org/2000/svg">
<circle cx="30" cy="12" r="0.75" fill="black"/>
<path d="M25 21.4784V2.5216C25 2.06739 25.5567 1.84848 25.8661 2.18105L34.6832 11.6594C34.8617 11.8514 34.8617 12.1486 34.6832 12.3406L25.8661 21.8189C25.5567 22.1515 25 21.9326 25 21.4784Z" stroke="black" stroke-width="1.1" stroke-linecap="round" stroke-linejoin="round"/>
<path d="M1.02938 37V29.95H3.68938C4.44271 29.95 5.01604 30.1233 5.40938 30.47C5.80938 30.8167 6.00938 31.31 6.00938 31.95C6.00938 32.4767 5.86604 32.9033 5.57938 33.23C5.29271 33.5567 4.88604 33.7667 4.35938 33.86C4.64604 33.9667 4.89938 34.2267 5.11938 34.64L6.39938 37H5.72938L4.50938 34.74C4.33604 34.4267 4.14271 34.2167 3.92938 34.11C3.71604 34.0033 3.42938 33.95 3.06938 33.95H1.63938V37H1.02938ZM1.63938 33.43H3.60938C4.79604 33.43 5.38937 32.9367 5.38937 31.95C5.38937 30.97 4.79604 30.48 3.60938 30.48H1.63938V33.43ZM7.4207 30.87V30.1H8.2407V30.87H7.4207ZM7.5207 37V32.15H8.1307V37H7.5207ZM11.8475 38.88C11.0008 38.88 10.2975 38.6567 9.7375 38.21L9.9675 37.75C10.2742 37.97 10.5708 38.1267 10.8575 38.22C11.1442 38.32 11.4675 38.37 11.8275 38.37C12.3142 38.37 12.6842 38.2367 12.9375 37.97C13.1908 37.7033 13.3175 37.3167 13.3175 36.81V35.87C13.1775 36.19 12.9542 36.44 12.6475 36.62C12.3475 36.8 12.0042 36.89 11.6175 36.89C11.1642 36.89 10.7742 36.79 10.4475 36.59C10.1275 36.3833 9.8775 36.1 9.6975 35.74C9.52417 35.3733 9.4375 34.95 9.4375 34.47C9.4375 33.99 9.52417 33.57 9.6975 33.21C9.8775 32.85 10.1275 32.57 10.4475 32.37C10.7742 32.1633 11.1642 32.06 11.6175 32.06C12.0042 32.06 12.3475 32.15 12.6475 32.33C12.9475 32.51 13.1675 32.7567 13.3075 33.07V32.15H13.9075V36.72C13.9075 38.16 13.2208 38.88 11.8475 38.88ZM11.6875 36.37C12.1875 36.37 12.5842 36.2 12.8775 35.86C13.1708 35.5133 13.3175 35.05 13.3175 34.47C13.3175 33.89 13.1708 33.43 12.8775 33.09C12.5842 32.75 12.1875 32.58 11.6875 32.58C11.1808 32.58 10.7808 32.75 10.4875 33.09C10.2008 33.43 10.0575 33.89 10.0575 34.47C10.0575 35.05 10.2008 35.5133 10.4875 35.86C10.7808 36.2 11.1808 36.37 11.6875 36.37ZM15.5188 37V29.95H16.1288V32.99C16.2954 32.6833 16.5254 32.4533 16.8188 32.3C17.1188 32.14 17.4488 32.06 17.8088 32.06C18.9621 32.06 19.5388 32.6867 19.5388 33.94V37H18.9288V33.99C18.9288 33.51 18.8321 33.1567 18.6388 32.93C18.4454 32.7033 18.1388 32.59 17.7188 32.59C17.2388 32.59 16.8521 32.74 16.5588 33.04C16.2721 33.3333 16.1288 33.73 16.1288 34.23V37H15.5188ZM22.9445 37.08C22.4045 37.08 21.9978 36.9333 21.7245 36.64C21.4578 36.3467 21.3245 35.9267 21.3245 35.38V32.64H20.3645V32.15H21.3245V30.65H21.9345V32.15H23.5045V32.64H21.9345V35.3C21.9345 35.7067 22.0178 36.0167 22.1845 36.23C22.3511 36.4433 22.6278 36.55 23.0145 36.55C23.1278 36.55 23.2378 36.5367 23.3445 36.51C23.4511 36.4833 23.5445 36.4533 23.6245 36.42L23.7445 36.9C23.6711 36.9467 23.5545 36.9867 23.3945 37.02C23.2345 37.06 23.0845 37.08 22.9445 37.08ZM24.2771 34.6V34.08H26.9971V34.6H24.2771ZM28.5563 37V32.15H29.1563V33C29.4563 32.3733 29.9663 32.06 30.6863 32.06C31.4597 32.06 31.9497 32.3967 32.1563 33.07C32.2963 32.7567 32.5097 32.51 32.7963 32.33C33.083 32.15 33.4163 32.06 33.7963 32.06C34.8697 32.06 35.4063 32.6867 35.4063 33.94V37H34.7963V33.99C34.7963 33.51 34.7097 33.1567 34.5363 32.93C34.3697 32.7033 34.0863 32.59 33.6863 32.59C33.2597 32.59 32.9197 32.74 32.6663 33.04C32.413 33.3333 32.2863 33.7333 32.2863 34.24V37H31.6763V33.99C31.6763 33.51 31.5897 33.1567 31.4163 32.93C31.2497 32.7033 30.9697 32.59 30.5763 32.59C30.143 32.59 29.7997 32.74 29.5463 33.04C29.293 33.3333 29.1663 33.7333 29.1663 34.24V37H28.5563ZM36.9031 30.87V30.1H37.7231V30.87H36.9031ZM37.0031 37V32.15H37.6131V37H37.0031ZM41.0699 37.08C40.6299 37.08 40.2499 36.98 39.9299 36.78C39.6099 36.5733 39.3599 36.2833 39.1799 35.91C39.0066 35.53 38.9199 35.0833 38.9199 34.57C38.9199 33.8033 39.1133 33.1933 39.4999 32.74C39.8866 32.2867 40.4099 32.06 41.0699 32.06C41.4566 32.06 41.7966 32.15 42.0899 32.33C42.3899 32.5033 42.6133 32.7433 42.7599 33.05V29.95H43.3699V37H42.7699V36.08C42.6233 36.3933 42.3999 36.64 42.0999 36.82C41.8066 36.9933 41.4633 37.08 41.0699 37.08ZM41.1499 36.57C41.6433 36.57 42.0366 36.3967 42.3299 36.05C42.6233 35.6967 42.7699 35.2033 42.7699 34.57C42.7699 33.9367 42.6233 33.4467 42.3299 33.1C42.0366 32.7533 41.6433 32.58 41.1499 32.58C40.6566 32.58 40.2633 32.7533 39.9699 33.1C39.6833 33.4467 39.5399 33.9367 39.5399 34.57C39.5399 35.2033 39.6833 35.6967 39.9699 36.05C40.2633 36.3967 40.6566 36.57 41.1499 36.57ZM46.8219 37.08C46.3819 37.08 46.0019 36.98 45.6819 36.78C45.3619 36.5733 45.1119 36.2833 44.9319 35.91C44.7585 35.53 44.6719 35.0833 44.6719 34.57C44.6719 33.8033 44.8652 33.1933 45.2519 32.74C45.6385 32.2867 46.1619 32.06 46.8219 32.06C47.2085 32.06 47.5485 32.15 47.8419 32.33C48.1419 32.5033 48.3652 32.7433 48.5119 33.05V29.95H49.1219V37H48.5219V36.08C48.3752 36.3933 48.1519 36.64 47.8519 36.82C47.5585 36.9933 47.2152 37.08 46.8219 37.08ZM46.9019 36.57C47.3952 36.57 47.7885 36.3967 48.0819 36.05C48.3752 35.6967 48.5219 35.2033 48.5219 34.57C48.5219 33.9367 48.3752 33.4467 48.0819 33.1C47.7885 32.7533 47.3952 32.58 46.9019 32.58C46.4085 32.58 46.0152 32.7533 45.7219 33.1C45.4352 33.4467 45.2919 33.9367 45.2919 34.57C45.2919 35.2033 45.4352 35.6967 45.7219 36.05C46.0152 36.3967 46.4085 36.57 46.9019 36.57ZM52.1338 37.08C51.6805 37.08 51.3305 36.9433 51.0838 36.67C50.8438 36.39 50.7238 35.99 50.7238 35.47V29.95H51.3338V35.4C51.3338 36.1667 51.6338 36.55 52.2338 36.55C52.4005 36.55 52.5538 36.53 52.6938 36.49L52.6738 37.02C52.4805 37.06 52.3005 37.08 52.1338 37.08ZM55.6366 37.08C54.8899 37.08 54.2999 36.86 53.8666 36.42C53.4399 35.9733 53.2266 35.3633 53.2266 34.59C53.2266 34.09 53.3232 33.65 53.5166 33.27C53.7099 32.89 53.9766 32.5933 54.3166 32.38C54.6632 32.1667 55.0599 32.06 55.5066 32.06C56.1532 32.06 56.6566 32.27 57.0166 32.69C57.3766 33.11 57.5566 33.6867 57.5566 34.42V34.7H53.8266C53.8466 35.3 54.0099 35.7633 54.3166 36.09C54.6299 36.41 55.0632 36.57 55.6166 36.57C55.9166 36.57 56.1966 36.5233 56.4566 36.43C56.7232 36.3367 56.9832 36.18 57.2366 35.96L57.4766 36.42C57.2632 36.6267 56.9899 36.79 56.6566 36.91C56.3232 37.0233 55.9832 37.08 55.6366 37.08ZM55.5166 32.55C55.0099 32.55 54.6132 32.71 54.3266 33.03C54.0466 33.3433 53.8832 33.75 53.8366 34.25H57.0066C56.9932 33.7167 56.8599 33.3 56.6066 33C56.3532 32.7 55.9899 32.55 55.5166 32.55Z" fill="black"/>
</svg>
