<svg width="25" height="41" viewBox="0 0 25 41" fill="none" xmlns="http://www.w3.org/2000/svg">
<path d="M1.36531 34V26.95H4.02531C4.77865 26.95 5.35198 27.1233 5.74531 27.47C6.14531 27.8167 6.34531 28.31 6.34531 28.95C6.34531 29.4767 6.20198 29.9033 5.91531 30.23C5.62865 30.5567 5.22198 30.7667 4.69531 30.86C4.98198 30.9667 5.23531 31.2267 5.45531 31.64L6.73531 34H6.06531L4.84531 31.74C4.67198 31.4267 4.47865 31.2167 4.26531 31.11C4.05198 31.0033 3.76531 30.95 3.40531 30.95H1.97531V34H1.36531ZM1.97531 30.43H3.94531C5.13198 30.43 5.72531 29.9367 5.72531 28.95C5.72531 27.97 5.13198 27.48 3.94531 27.48H1.97531V30.43ZM7.75664 27.87V27.1H8.57664V27.87H7.75664ZM7.85664 34V29.15H8.46664V34H7.85664ZM12.1834 35.88C11.3368 35.88 10.6334 35.6567 10.0734 35.21L10.3034 34.75C10.6101 34.97 10.9068 35.1267 11.1934 35.22C11.4801 35.32 11.8034 35.37 12.1634 35.37C12.6501 35.37 13.0201 35.2367 13.2734 34.97C13.5268 34.7033 13.6534 34.3167 13.6534 33.81V32.87C13.5134 33.19 13.2901 33.44 12.9834 33.62C12.6834 33.8 12.3401 33.89 11.9534 33.89C11.5001 33.89 11.1101 33.79 10.7834 33.59C10.4634 33.3833 10.2134 33.1 10.0334 32.74C9.8601 32.3733 9.77344 31.95 9.77344 31.47C9.77344 30.99 9.8601 30.57 10.0334 30.21C10.2134 29.85 10.4634 29.57 10.7834 29.37C11.1101 29.1633 11.5001 29.06 11.9534 29.06C12.3401 29.06 12.6834 29.15 12.9834 29.33C13.2834 29.51 13.5034 29.7567 13.6434 30.07V29.15H14.2434V33.72C14.2434 35.16 13.5568 35.88 12.1834 35.88ZM12.0234 33.37C12.5234 33.37 12.9201 33.2 13.2134 32.86C13.5068 32.5133 13.6534 32.05 13.6534 31.47C13.6534 30.89 13.5068 30.43 13.2134 30.09C12.9201 29.75 12.5234 29.58 12.0234 29.58C11.5168 29.58 11.1168 29.75 10.8234 30.09C10.5368 30.43 10.3934 30.89 10.3934 31.47C10.3934 32.05 10.5368 32.5133 10.8234 32.86C11.1168 33.2 11.5168 33.37 12.0234 33.37ZM15.8547 34V26.95H16.4647V29.99C16.6314 29.6833 16.8614 29.4533 17.1547 29.3C17.4547 29.14 17.7847 29.06 18.1447 29.06C19.298 29.06 19.8747 29.6867 19.8747 30.94V34H19.2647V30.99C19.2647 30.51 19.168 30.1567 18.9747 29.93C18.7814 29.7033 18.4747 29.59 18.0547 29.59C17.5747 29.59 17.188 29.74 16.8947 30.04C16.608 30.3333 16.4647 30.73 16.4647 31.23V34H15.8547ZM23.2804 34.08C22.7404 34.08 22.3337 33.9333 22.0604 33.64C21.7937 33.3467 21.6604 32.9267 21.6604 32.38V29.64H20.7004V29.15H21.6604V27.65H22.2704V29.15H23.8404V29.64H22.2704V32.3C22.2704 32.7067 22.3537 33.0167 22.5204 33.23C22.6871 33.4433 22.9637 33.55 23.3504 33.55C23.4637 33.55 23.5737 33.5367 23.6804 33.51C23.7871 33.4833 23.8804 33.4533 23.9604 33.42L24.0804 33.9C24.0071 33.9467 23.8904 33.9867 23.7304 34.02C23.5704 34.06 23.4204 34.08 23.2804 34.08Z" fill="black"/>
<path d="M2 7.5C2 7.22386 2.22386 7 2.5 7H17.7597C17.9116 7 18.0552 7.06904 18.1501 7.18765L21.7501 11.6877C21.8962 11.8703 21.8962 12.1297 21.7501 12.3123L18.1501 16.8123C18.0552 16.931 17.9116 17 17.7597 17H2.5C2.22386 17 2 16.7761 2 16.5V7.5Z" stroke="black" stroke-width="1.1"/>
<g clip-path="url(#clip0_1863_18235)">
<path d="M9 10H13L9 14H13" stroke="black" stroke-width="1.1" stroke-linecap="round" stroke-linejoin="round"/>
</g>
<defs>
<clipPath id="clip0_1863_18235">
<rect width="6" height="6" fill="white" transform="translate(8 9)"/>
</clipPath>
</defs>
</svg>
