<svg width="24" height="42" viewBox="0 0 24 42" fill="none" xmlns="http://www.w3.org/2000/svg">
<g clip-path="url(#clip0_1865_18677)">
<mask id="mask0_1865_18677" style="mask-type:alpha" maskUnits="userSpaceOnUse" x="-1" y="0" width="26" height="26">
<g clip-path="url(#clip1_1865_18677)">
<line x1="0.192119" y1="19.0325" x2="18.7999" y2="-0.921993" stroke="black" stroke-linecap="round"/>
<line x1="0.0873829" y1="16.0343" x2="18.6952" y2="-3.92016" stroke="black" stroke-linecap="round"/>
<line x1="-0.0173534" y1="13.0361" x2="18.5905" y2="-6.91833" stroke="black" stroke-linecap="round"/>
<line x1="-0.12209" y1="10.038" x2="18.4857" y2="-9.9165" stroke="black" stroke-linecap="round"/>
<line x1="-0.226826" y1="7.03978" x2="18.381" y2="-12.9147" stroke="black" stroke-linecap="round"/>
<line x1="0.401592" y1="25.0288" x2="20.9384" y2="3.00576" stroke="black" stroke-linecap="round"/>
<line x1="0.506084" y1="28.027" x2="23.9364" y2="2.90106" stroke="black" stroke-linecap="round"/>
<line x1="0.61082" y1="31.0251" x2="25.0056" y2="4.86494" stroke="black" stroke-linecap="round"/>
<line x1="0.715557" y1="34.0233" x2="25.1103" y2="7.86311" stroke="black" stroke-linecap="round"/>
<line x1="0.820293" y1="37.0215" x2="26.1796" y2="9.82699" stroke="black" stroke-linecap="round"/>
<line x1="0.925029" y1="40.0196" x2="25.3198" y2="13.8594" stroke="black" stroke-linecap="round"/>
<line x1="1.02977" y1="43.0178" x2="26.389" y2="15.8233" stroke="black" stroke-linecap="round"/>
<line x1="1.13426" y1="46.016" x2="26.4935" y2="18.8215" stroke="black" stroke-linecap="round"/>
<line x1="1.23899" y1="49.0141" x2="26.5983" y2="21.8197" stroke="black" stroke-linecap="round"/>
<line x1="0.296856" y1="22.0306" x2="18.9047" y2="2.07618" stroke="black" stroke-linecap="round"/>
<line x1="0.296856" y1="22.0306" x2="18.9047" y2="2.07618" stroke="black" stroke-linecap="round"/>
<line x1="-3.22487" y1="7.1444" x2="15.383" y2="-12.8101" stroke="black" stroke-linecap="round"/>
</g>
</mask>
<g mask="url(#mask0_1865_18677)">
<path d="M16.5 22H7.5C7.22386 22 7 21.7761 7 21.5V12.1966C7 12.0702 7.04784 11.9486 7.13391 11.8561L16.1339 2.18105C16.4433 1.84848 17 2.06739 17 2.5216V11.5V21.5C17 21.7761 16.7761 22 16.5 22Z" fill="black"/>
</g>
<path d="M16.5 22H7.5C7.22386 22 7 21.7761 7 21.5V12.1966C7 12.0702 7.04784 11.9486 7.13391 11.8561L16.1339 2.18105C16.4433 1.84848 17 2.06739 17 2.5216V11.5V21.5C17 21.7761 16.7761 22 16.5 22Z" stroke="black" stroke-width="1.1" stroke-linecap="round" stroke-linejoin="round"/>
</g>
<path d="M3.33016 35V27.95H5.99016C6.74349 27.95 7.31682 28.1233 7.71016 28.47C8.11016 28.8167 8.31016 29.31 8.31016 29.95C8.31016 30.4767 8.16682 30.9033 7.88016 31.23C7.59349 31.5567 7.18682 31.7667 6.66016 31.86C6.94682 31.9667 7.20016 32.2267 7.42016 32.64L8.70016 35H8.03016L6.81016 32.74C6.63682 32.4267 6.44349 32.2167 6.23016 32.11C6.01682 32.0033 5.73016 31.95 5.37016 31.95H3.94016V35H3.33016ZM3.94016 31.43H5.91016C7.09682 31.43 7.69016 30.9367 7.69016 29.95C7.69016 28.97 7.09682 28.48 5.91016 28.48H3.94016V31.43ZM9.94148 35V27.95H14.1815V28.48H10.5515V31.17H13.9815V31.7H10.5515V35H9.94148ZM15.3614 35V27.95H15.9714V31.15H20.4714V27.95H21.0814V35H20.4714V31.7H15.9714V35H15.3614Z" fill="black"/>
<defs>
<clipPath id="clip0_1865_18677">
<rect width="24" height="24" fill="white"/>
</clipPath>
<clipPath id="clip1_1865_18677">
<rect width="24" height="24" fill="white" transform="translate(-0.411377 1.75) rotate(-2)"/>
</clipPath>
</defs>
</svg>
