<svg width="47" height="44" viewBox="0 0 47 44" fill="none" xmlns="http://www.w3.org/2000/svg">
<g clip-path="url(#clip0_1862_18206)">
<mask id="mask0_1862_18206" style="mask-type:alpha" maskUnits="userSpaceOnUse" x="11" y="-4" width="26" height="26">
<g clip-path="url(#clip1_1862_18206)">
<line x1="12.1921" y1="14.7086" x2="30.7999" y2="-5.24585" stroke="black" stroke-linecap="round"/>
<line x1="12.0874" y1="11.7104" x2="30.6952" y2="-8.24401" stroke="black" stroke-linecap="round"/>
<line x1="11.9826" y1="8.71227" x2="30.5905" y2="-11.2422" stroke="black" stroke-linecap="round"/>
<line x1="11.8779" y1="5.7141" x2="30.4857" y2="-14.2404" stroke="black" stroke-linecap="round"/>
<line x1="11.7732" y1="2.71593" x2="30.381" y2="-17.2385" stroke="black" stroke-linecap="round"/>
<line x1="12.4016" y1="20.7049" x2="32.9384" y2="-1.31809" stroke="black" stroke-linecap="round"/>
<line x1="12.5061" y1="23.7031" x2="35.9364" y2="-1.42279" stroke="black" stroke-linecap="round"/>
<line x1="12.6108" y1="26.7013" x2="37.0056" y2="0.541087" stroke="black" stroke-linecap="round"/>
<line x1="12.7156" y1="29.6995" x2="37.1103" y2="3.53926" stroke="black" stroke-linecap="round"/>
<line x1="12.8203" y1="32.6976" x2="38.1796" y2="5.50314" stroke="black" stroke-linecap="round"/>
<line x1="12.925" y1="35.6958" x2="37.3198" y2="9.53559" stroke="black" stroke-linecap="round"/>
<line x1="13.0298" y1="38.694" x2="38.389" y2="11.4995" stroke="black" stroke-linecap="round"/>
<line x1="13.1343" y1="41.6921" x2="38.4935" y2="14.4976" stroke="black" stroke-linecap="round"/>
<line x1="13.239" y1="44.6903" x2="38.5983" y2="17.4958" stroke="black" stroke-linecap="round"/>
<line x1="13.3437" y1="47.6885" x2="38.703" y2="20.494" stroke="black" stroke-linecap="round"/>
<line x1="12.2969" y1="17.7068" x2="30.9047" y2="-2.24768" stroke="black" stroke-linecap="round"/>
<line x1="12.2969" y1="17.7068" x2="30.9047" y2="-2.24768" stroke="black" stroke-linecap="round"/>
<line x1="8.77513" y1="2.82055" x2="27.383" y2="-17.1339" stroke="black" stroke-linecap="round"/>
</g>
</mask>
<g mask="url(#mask0_1862_18206)">
<path d="M19 21.4784V2.5216C19 2.06739 19.5567 1.84848 19.8661 2.18105L28.6832 11.6594C28.8617 11.8514 28.8617 12.1486 28.6832 12.3406L19.8661 21.8189C19.5567 22.1515 19 21.9326 19 21.4784Z" fill="black"/>
</g>
<path d="M19 21.4784V2.5216C19 2.06739 19.5567 1.84848 19.8661 2.18105L28.6832 11.6594C28.8617 11.8514 28.8617 12.1486 28.6832 12.3406L19.8661 21.8189C19.5567 22.1515 19 21.9326 19 21.4784Z" stroke="black" stroke-width="1.1" stroke-linecap="round" stroke-linejoin="round"/>
</g>
<path d="M1.10359 37V29.95H3.76359C4.51693 29.95 5.09026 30.1233 5.48359 30.47C5.88359 30.8167 6.08359 31.31 6.08359 31.95C6.08359 32.4767 5.94026 32.9033 5.65359 33.23C5.36693 33.5567 4.96026 33.7667 4.43359 33.86C4.72026 33.9667 4.97359 34.2267 5.19359 34.64L6.47359 37H5.80359L4.58359 34.74C4.41026 34.4267 4.21693 34.2167 4.00359 34.11C3.79026 34.0033 3.50359 33.95 3.14359 33.95H1.71359V37H1.10359ZM1.71359 33.43H3.68359C4.87026 33.43 5.46359 32.9367 5.46359 31.95C5.46359 30.97 4.87026 30.48 3.68359 30.48H1.71359V33.43ZM7.49492 30.87V30.1H8.31492V30.87H7.49492ZM7.59492 37V32.15H8.20492V37H7.59492ZM11.9217 38.88C11.0751 38.88 10.3717 38.6567 9.81172 38.21L10.0417 37.75C10.3484 37.97 10.6451 38.1267 10.9317 38.22C11.2184 38.32 11.5417 38.37 11.9017 38.37C12.3884 38.37 12.7584 38.2367 13.0117 37.97C13.2651 37.7033 13.3917 37.3167 13.3917 36.81V35.87C13.2517 36.19 13.0284 36.44 12.7217 36.62C12.4217 36.8 12.0784 36.89 11.6917 36.89C11.2384 36.89 10.8484 36.79 10.5217 36.59C10.2017 36.3833 9.95172 36.1 9.77172 35.74C9.59839 35.3733 9.51172 34.95 9.51172 34.47C9.51172 33.99 9.59839 33.57 9.77172 33.21C9.95172 32.85 10.2017 32.57 10.5217 32.37C10.8484 32.1633 11.2384 32.06 11.6917 32.06C12.0784 32.06 12.4217 32.15 12.7217 32.33C13.0217 32.51 13.2417 32.7567 13.3817 33.07V32.15H13.9817V36.72C13.9817 38.16 13.2951 38.88 11.9217 38.88ZM11.7617 36.37C12.2617 36.37 12.6584 36.2 12.9517 35.86C13.2451 35.5133 13.3917 35.05 13.3917 34.47C13.3917 33.89 13.2451 33.43 12.9517 33.09C12.6584 32.75 12.2617 32.58 11.7617 32.58C11.2551 32.58 10.8551 32.75 10.5617 33.09C10.2751 33.43 10.1317 33.89 10.1317 34.47C10.1317 35.05 10.2751 35.5133 10.5617 35.86C10.8551 36.2 11.2551 36.37 11.7617 36.37ZM15.593 37V29.95H16.203V32.99C16.3696 32.6833 16.5996 32.4533 16.893 32.3C17.193 32.14 17.523 32.06 17.883 32.06C19.0363 32.06 19.613 32.6867 19.613 33.94V37H19.003V33.99C19.003 33.51 18.9063 33.1567 18.713 32.93C18.5196 32.7033 18.213 32.59 17.793 32.59C17.313 32.59 16.9263 32.74 16.633 33.04C16.3463 33.3333 16.203 33.73 16.203 34.23V37H15.593ZM23.0187 37.08C22.4787 37.08 22.072 36.9333 21.7987 36.64C21.532 36.3467 21.3987 35.9267 21.3987 35.38V32.64H20.4387V32.15H21.3987V30.65H22.0087V32.15H23.5787V32.64H22.0087V35.3C22.0087 35.7067 22.092 36.0167 22.2587 36.23C22.4253 36.4433 22.702 36.55 23.0887 36.55C23.202 36.55 23.312 36.5367 23.4187 36.51C23.5253 36.4833 23.6187 36.4533 23.6987 36.42L23.8187 36.9C23.7453 36.9467 23.6287 36.9867 23.4687 37.02C23.3087 37.06 23.1587 37.08 23.0187 37.08ZM24.3513 34.6V34.08H27.0713V34.6H24.3513ZM28.6105 37V29.95H29.2205V32.99C29.3872 32.6833 29.6172 32.4533 29.9105 32.3C30.2105 32.14 30.5405 32.06 30.9005 32.06C32.0539 32.06 32.6305 32.6867 32.6305 33.94V37H32.0205V33.99C32.0205 33.51 31.9239 33.1567 31.7305 32.93C31.5372 32.7033 31.2305 32.59 30.8105 32.59C30.3305 32.59 29.9439 32.74 29.6505 33.04C29.3639 33.3333 29.2205 33.73 29.2205 34.23V37H28.6105ZM34.1063 30.87V30.1H34.9263V30.87H34.1063ZM34.2063 37V32.15H34.8163V37H34.2063ZM38.533 38.88C37.6864 38.88 36.983 38.6567 36.423 38.21L36.653 37.75C36.9597 37.97 37.2564 38.1267 37.543 38.22C37.8297 38.32 38.153 38.37 38.513 38.37C38.9997 38.37 39.3697 38.2367 39.623 37.97C39.8764 37.7033 40.003 37.3167 40.003 36.81V35.87C39.863 36.19 39.6397 36.44 39.333 36.62C39.033 36.8 38.6897 36.89 38.303 36.89C37.8497 36.89 37.4597 36.79 37.133 36.59C36.813 36.3833 36.563 36.1 36.383 35.74C36.2097 35.3733 36.123 34.95 36.123 34.47C36.123 33.99 36.2097 33.57 36.383 33.21C36.563 32.85 36.813 32.57 37.133 32.37C37.4597 32.1633 37.8497 32.06 38.303 32.06C38.6897 32.06 39.033 32.15 39.333 32.33C39.633 32.51 39.853 32.7567 39.993 33.07V32.15H40.593V36.72C40.593 38.16 39.9064 38.88 38.533 38.88ZM38.373 36.37C38.873 36.37 39.2697 36.2 39.563 35.86C39.8564 35.5133 40.003 35.05 40.003 34.47C40.003 33.89 39.8564 33.43 39.563 33.09C39.2697 32.75 38.873 32.58 38.373 32.58C37.8664 32.58 37.4664 32.75 37.173 33.09C36.8864 33.43 36.743 33.89 36.743 34.47C36.743 35.05 36.8864 35.5133 37.173 35.86C37.4664 36.2 37.8664 36.37 38.373 36.37ZM42.2043 37V29.95H42.8143V32.99C42.981 32.6833 43.211 32.4533 43.5043 32.3C43.8043 32.14 44.1343 32.06 44.4943 32.06C45.6476 32.06 46.2243 32.6867 46.2243 33.94V37H45.6143V33.99C45.6143 33.51 45.5176 33.1567 45.3243 32.93C45.131 32.7033 44.8243 32.59 44.4043 32.59C43.9243 32.59 43.5376 32.74 43.2443 33.04C42.9576 33.3333 42.8143 33.73 42.8143 34.23V37H42.2043Z" fill="black"/>
<defs>
<clipPath id="clip0_1862_18206">
<rect width="24" height="24" fill="white" transform="translate(12)"/>
</clipPath>
<clipPath id="clip1_1862_18206">
<rect width="24" height="24" fill="white" transform="translate(11.5886 -2.57385) rotate(-2)"/>
</clipPath>
</defs>
</svg>
