<svg width="24" height="44" viewBox="0 0 24 44" fill="none" xmlns="http://www.w3.org/2000/svg">
<path d="M16.5 22H7.5C7.22386 22 7 21.7761 7 21.5V12.1966C7 12.0702 7.04784 11.9486 7.13391 11.8561L16.1339 2.18105C16.4433 1.84848 17 2.06739 17 2.5216V11.5V21.5C17 21.7761 16.7761 22 16.5 22Z" fill="black" stroke="black" stroke-width="1.1" stroke-linecap="round" stroke-linejoin="round"/>
<path d="M4.53719 37V29.95H7.19719C7.95052 29.95 8.52385 30.1233 8.91719 30.47C9.31719 30.8167 9.51719 31.31 9.51719 31.95C9.51719 32.4767 9.37385 32.9033 9.08719 33.23C8.80052 33.5567 8.39385 33.7667 7.86719 33.86C8.15385 33.9667 8.40719 34.2267 8.62719 34.64L9.90719 37H9.23719L8.01719 34.74C7.84385 34.4267 7.65052 34.2167 7.43719 34.11C7.22385 34.0033 6.93719 33.95 6.57719 33.95H5.14719V37H4.53719ZM5.14719 33.43H7.11719C8.30385 33.43 8.89719 32.9367 8.89719 31.95C8.89719 30.97 8.30385 30.48 7.11719 30.48H5.14719V33.43ZM11.1485 37V29.95H15.3885V30.48H11.7585V33.17H15.1885V33.7H11.7585V37H11.1485ZM16.5684 37V29.95H17.1784V36.45H20.8584V37H16.5684Z" fill="black"/>
</svg>
