<svg width="24" height="46" viewBox="0 0 24 46" fill="none" xmlns="http://www.w3.org/2000/svg">
<path d="M17 2.5V21.4784C17 21.9326 16.4433 22.1515 16.1339 21.8189L7.13391 12.1439C7.04784 12.0514 7 11.9298 7 11.8034V2.5C7 2.22386 7.22386 2 7.5 2H16.5C16.7761 2 17 2.22386 17 2.5Z" fill="black" stroke="black" stroke-width="1.1" stroke-linecap="round" stroke-linejoin="round"/>
<path d="M4.24813 39V31.95H6.90813C7.66146 31.95 8.23479 32.1233 8.62813 32.47C9.02813 32.8167 9.22813 33.31 9.22813 33.95C9.22813 34.4767 9.08479 34.9033 8.79813 35.23C8.51146 35.5567 8.10479 35.7667 7.57813 35.86C7.86479 35.9667 8.11813 36.2267 8.33813 36.64L9.61813 39H8.94813L7.72813 36.74C7.55479 36.4267 7.36146 36.2167 7.14813 36.11C6.93479 36.0033 6.64813 35.95 6.28813 35.95H4.85813V39H4.24813ZM4.85813 35.43H6.82813C8.01479 35.43 8.60812 34.9367 8.60812 33.95C8.60812 32.97 8.01479 32.48 6.82813 32.48H4.85813V35.43ZM10.8595 39V31.95H13.5495C14.2695 31.95 14.8261 32.11 15.2195 32.43C15.6195 32.75 15.8195 33.2067 15.8195 33.8C15.8195 34.1867 15.7161 34.5167 15.5095 34.79C15.3028 35.0633 15.0228 35.2633 14.6695 35.39C15.0761 35.49 15.3961 35.6867 15.6295 35.98C15.8628 36.2667 15.9795 36.6333 15.9795 37.08C15.9795 37.7067 15.7795 38.1833 15.3795 38.51C14.9795 38.8367 14.4128 39 13.6795 39H10.8595ZM11.4595 35.17H13.4795C14.0395 35.17 14.4661 35.0567 14.7595 34.83C15.0528 34.5967 15.1995 34.26 15.1995 33.82C15.1995 33.38 15.0528 33.0467 14.7595 32.82C14.4661 32.5867 14.0395 32.47 13.4795 32.47H11.4595V35.17ZM11.4595 38.48H13.6295C14.7828 38.48 15.3595 38.0167 15.3595 37.09C15.3595 36.61 15.2161 36.2567 14.9295 36.03C14.6428 35.8033 14.2095 35.69 13.6295 35.69H11.4595V38.48ZM17.5684 39V31.95H18.1784V38.45H21.8584V39H17.5684Z" fill="black"/>
</svg>
