<svg width="24" height="44" viewBox="0 0 24 44" fill="none" xmlns="http://www.w3.org/2000/svg">
<path d="M4.24422 37V29.95H6.90422C7.65755 29.95 8.23089 30.1233 8.62422 30.47C9.02422 30.8167 9.22422 31.31 9.22422 31.95C9.22422 32.4767 9.08089 32.9033 8.79422 33.23C8.50755 33.5567 8.10089 33.7667 7.57422 33.86C7.86089 33.9667 8.11422 34.2267 8.33422 34.64L9.61422 37H8.94422L7.72422 34.74C7.55089 34.4267 7.35755 34.2167 7.14422 34.11C6.93089 34.0033 6.64422 33.95 6.28422 33.95H4.85422V37H4.24422ZM4.85422 33.43H6.82422C8.01089 33.43 8.60422 32.9367 8.60422 31.95C8.60422 30.97 8.01089 30.48 6.82422 30.48H4.85422V33.43ZM12.5581 37.08C12.1048 37.08 11.7115 36.98 11.3781 36.78C11.0448 36.5733 10.7848 36.2833 10.5981 35.91C10.4181 35.53 10.3281 35.0833 10.3281 34.57C10.3281 34.0633 10.4181 33.6233 10.5981 33.25C10.7848 32.87 11.0448 32.5767 11.3781 32.37C11.7115 32.1633 12.1048 32.06 12.5581 32.06C13.0181 32.06 13.4148 32.1633 13.7481 32.37C14.0815 32.5767 14.3381 32.87 14.5181 33.25C14.7048 33.6233 14.7981 34.0633 14.7981 34.57C14.7981 35.0833 14.7048 35.53 14.5181 35.91C14.3381 36.2833 14.0815 36.5733 13.7481 36.78C13.4148 36.98 13.0181 37.08 12.5581 37.08ZM12.5581 36.57C13.0515 36.57 13.4448 36.3967 13.7381 36.05C14.0315 35.6967 14.1781 35.2033 14.1781 34.57C14.1781 33.9367 14.0315 33.4467 13.7381 33.1C13.4448 32.7533 13.0515 32.58 12.5581 32.58C12.0648 32.58 11.6715 32.7533 11.3781 33.1C11.0915 33.4467 10.9481 33.9367 10.9481 34.57C10.9481 35.2033 11.0915 35.6967 11.3781 36.05C11.6715 36.3967 12.0648 36.57 12.5581 36.57ZM17.5069 37.08C17.0535 37.08 16.7035 36.9433 16.4569 36.67C16.2169 36.39 16.0969 35.99 16.0969 35.47V29.95H16.7069V35.4C16.7069 36.1667 17.0069 36.55 17.6069 36.55C17.7735 36.55 17.9269 36.53 18.0669 36.49L18.0469 37.02C17.8535 37.06 17.6735 37.08 17.5069 37.08ZM20.3584 37.08C19.9051 37.08 19.5551 36.9433 19.3084 36.67C19.0684 36.39 18.9484 35.99 18.9484 35.47V29.95H19.5584V35.4C19.5584 36.1667 19.8584 36.55 20.4584 36.55C20.6251 36.55 20.7784 36.53 20.9184 36.49L20.8984 37.02C20.7051 37.06 20.5251 37.08 20.3584 37.08Z" fill="black"/>
<path d="M13.5 20.25C12.6667 20.9167 10.5 22.25 8.5 22.25" stroke="black" stroke-linecap="round"/>
<path d="M10.5 20.25C11.3333 20.9167 13.5 22.25 15.5 22.25" stroke="black" stroke-linecap="round"/>
<path d="M12 17C13.1046 17 14 17.8954 14 19C14 20.1046 13.1046 21 12 21" stroke="black" stroke-width="1.1" stroke-linecap="round"/>
<path d="M12 17C10.8954 17 10 17.8954 10 19C10 20.1046 10.8954 21 12 21" stroke="black" stroke-width="1.1" stroke-linecap="round"/>
<path d="M13.5 3.75C12.6667 3.08333 10.5 1.75 8.5 1.75" stroke="black" stroke-linecap="round"/>
<path d="M10.5 3.75C11.3333 3.08333 13.5 1.75 15.5 1.75" stroke="black" stroke-linecap="round"/>
<path d="M12 7C13.1046 7 14 6.10457 14 5C14 3.89543 13.1046 3 12 3" stroke="black" stroke-width="1.1" stroke-linecap="round"/>
<path d="M12 7C10.8954 7 10 6.10457 10 5C10 3.89543 10.8954 3 12 3" stroke="black" stroke-width="1.1" stroke-linecap="round"/>
<path d="M12 7L12 17" stroke="black" stroke-width="1.1" stroke-linecap="round" stroke-linejoin="round"/>
</svg>
