<svg width="30" height="44" viewBox="0 0 30 44" fill="none" xmlns="http://www.w3.org/2000/svg">
<path d="M1.84773 37V29.95H4.50773C5.26107 29.95 5.8344 30.1233 6.22773 30.47C6.62773 30.8167 6.82773 31.31 6.82773 31.95C6.82773 32.4767 6.6844 32.9033 6.39773 33.23C6.11107 33.5567 5.7044 33.7667 5.17773 33.86C5.4644 33.9667 5.71773 34.2267 5.93773 34.64L7.21773 37H6.54773L5.32773 34.74C5.1544 34.4267 4.96107 34.2167 4.74773 34.11C4.5344 34.0033 4.24773 33.95 3.88773 33.95H2.45773V37H1.84773ZM2.45773 33.43H4.42773C5.6144 33.43 6.20773 32.9367 6.20773 31.95C6.20773 30.97 5.6144 30.48 4.42773 30.48H2.45773V33.43ZM10.1616 37.08C9.70831 37.08 9.31497 36.98 8.98164 36.78C8.64831 36.5733 8.38831 36.2833 8.20164 35.91C8.02164 35.53 7.93164 35.0833 7.93164 34.57C7.93164 34.0633 8.02164 33.6233 8.20164 33.25C8.38831 32.87 8.64831 32.5767 8.98164 32.37C9.31497 32.1633 9.70831 32.06 10.1616 32.06C10.6216 32.06 11.0183 32.1633 11.3516 32.37C11.685 32.5767 11.9416 32.87 12.1216 33.25C12.3083 33.6233 12.4016 34.0633 12.4016 34.57C12.4016 35.0833 12.3083 35.53 12.1216 35.91C11.9416 36.2833 11.685 36.5733 11.3516 36.78C11.0183 36.98 10.6216 37.08 10.1616 37.08ZM10.1616 36.57C10.655 36.57 11.0483 36.3967 11.3416 36.05C11.635 35.6967 11.7816 35.2033 11.7816 34.57C11.7816 33.9367 11.635 33.4467 11.3416 33.1C11.0483 32.7533 10.655 32.58 10.1616 32.58C9.66831 32.58 9.27497 32.7533 8.98164 33.1C8.69497 33.4467 8.55164 33.9367 8.55164 34.57C8.55164 35.2033 8.69497 35.6967 8.98164 36.05C9.27497 36.3967 9.66831 36.57 10.1616 36.57ZM15.4816 37.08C14.9416 37.08 14.5349 36.9333 14.2616 36.64C13.9949 36.3467 13.8616 35.9267 13.8616 35.38V32.64H12.9016V32.15H13.8616V30.65H14.4716V32.15H16.0416V32.64H14.4716V35.3C14.4716 35.7067 14.5549 36.0167 14.7216 36.23C14.8882 36.4433 15.1649 36.55 15.5516 36.55C15.6649 36.55 15.7749 36.5367 15.8816 36.51C15.9882 36.4833 16.0816 36.4533 16.1616 36.42L16.2816 36.9C16.2082 36.9467 16.0916 36.9867 15.9316 37.02C15.7716 37.06 15.6216 37.08 15.4816 37.08ZM18.5012 37.08C18.1745 37.08 17.8812 37.0167 17.6212 36.89C17.3678 36.7633 17.1645 36.59 17.0112 36.37C16.8645 36.15 16.7912 35.9033 16.7912 35.63C16.7912 35.27 16.8812 34.99 17.0612 34.79C17.2412 34.5833 17.5445 34.4367 17.9712 34.35C18.3978 34.2633 18.9845 34.22 19.7312 34.22H20.0412V33.86C20.0412 33.4133 19.9512 33.09 19.7712 32.89C19.5912 32.6833 19.3045 32.58 18.9112 32.58C18.6178 32.58 18.3345 32.6233 18.0612 32.71C17.7945 32.7967 17.5178 32.9333 17.2312 33.12L16.9912 32.65C17.2445 32.47 17.5445 32.3267 17.8912 32.22C18.2378 32.1133 18.5745 32.06 18.9012 32.06C19.4878 32.06 19.9212 32.21 20.2012 32.51C20.4878 32.81 20.6312 33.27 20.6312 33.89V37H20.0512V36.13C19.9178 36.43 19.7145 36.6633 19.4412 36.83C19.1745 36.9967 18.8612 37.08 18.5012 37.08ZM18.5812 36.59C18.8678 36.59 19.1178 36.5233 19.3312 36.39C19.5512 36.25 19.7245 36.06 19.8512 35.82C19.9778 35.58 20.0412 35.3067 20.0412 35V34.67H19.7412C19.1412 34.67 18.6712 34.6967 18.3312 34.75C17.9978 34.8033 17.7645 34.8967 17.6312 35.03C17.4978 35.1633 17.4312 35.3467 17.4312 35.58C17.4312 35.88 17.5345 36.1233 17.7412 36.31C17.9478 36.4967 18.2278 36.59 18.5812 36.59ZM24.0558 37.08C23.5158 37.08 23.1091 36.9333 22.8358 36.64C22.5691 36.3467 22.4358 35.9267 22.4358 35.38V32.64H21.4758V32.15H22.4358V30.65H23.0458V32.15H24.6158V32.64H23.0458V35.3C23.0458 35.7067 23.1291 36.0167 23.2958 36.23C23.4624 36.4433 23.7391 36.55 24.1258 36.55C24.2391 36.55 24.3491 36.5367 24.4558 36.51C24.5624 36.4833 24.6558 36.4533 24.7358 36.42L24.8558 36.9C24.7824 36.9467 24.6658 36.9867 24.5058 37.02C24.3458 37.06 24.1958 37.08 24.0558 37.08ZM27.6366 37.08C26.8899 37.08 26.2999 36.86 25.8666 36.42C25.4399 35.9733 25.2266 35.3633 25.2266 34.59C25.2266 34.09 25.3232 33.65 25.5166 33.27C25.7099 32.89 25.9766 32.5933 26.3166 32.38C26.6632 32.1667 27.0599 32.06 27.5066 32.06C28.1532 32.06 28.6566 32.27 29.0166 32.69C29.3766 33.11 29.5566 33.6867 29.5566 34.42V34.7H25.8266C25.8466 35.3 26.0099 35.7633 26.3166 36.09C26.6299 36.41 27.0632 36.57 27.6166 36.57C27.9166 36.57 28.1966 36.5233 28.4566 36.43C28.7232 36.3367 28.9832 36.18 29.2366 35.96L29.4766 36.42C29.2632 36.6267 28.9899 36.79 28.6566 36.91C28.3232 37.0233 27.9832 37.08 27.6366 37.08ZM27.5166 32.55C27.0099 32.55 26.6132 32.71 26.3266 33.03C26.0466 33.3433 25.8832 33.75 25.8366 34.25H29.0066C28.9932 33.7167 28.8599 33.3 28.6066 33C28.3532 32.7 27.9899 32.55 27.5166 32.55Z" fill="black"/>
<g style="mix-blend-mode:multiply">
<path d="M11 21.1172V2.88278C11 2.37005 11.6797 2.18954 11.9341 2.63471L14.5659 7.24029C14.7578 7.57619 15.2422 7.57619 15.4341 7.24029L18.0659 2.63471C18.3203 2.18954 19 2.37005 19 2.88278V21.1172C19 21.6299 18.3203 21.8105 18.0659 21.3653L15.4341 16.7597C15.2422 16.4238 14.7578 16.4238 14.5659 16.7597L11.9341 21.3653C11.6797 21.8105 11 21.6299 11 21.1172Z" stroke="black" stroke-width="1.1" stroke-linecap="round" stroke-linejoin="round"/>
</g>
</svg>
