<svg width="24" height="44" viewBox="0 0 24 44" fill="none" xmlns="http://www.w3.org/2000/svg">
<path d="M4.18563 37V29.95H6.84563C7.59896 29.95 8.17229 30.1233 8.56563 30.47C8.96563 30.8167 9.16563 31.31 9.16563 31.95C9.16563 32.4767 9.02229 32.9033 8.73563 33.23C8.44896 33.5567 8.04229 33.7667 7.51563 33.86C7.80229 33.9667 8.05563 34.2267 8.27563 34.64L9.55563 37H8.88563L7.66563 34.74C7.49229 34.4267 7.29896 34.2167 7.08563 34.11C6.87229 34.0033 6.58563 33.95 6.22563 33.95H4.79563V37H4.18563ZM4.79563 33.43H6.76563C7.95229 33.43 8.54562 32.9367 8.54562 31.95C8.54562 30.97 7.95229 30.48 6.76563 30.48H4.79563V33.43ZM12.387 37.08C11.2336 37.08 10.657 36.4533 10.657 35.2V32.15H11.267V35.17C11.267 35.6433 11.3636 35.9933 11.557 36.22C11.7503 36.4467 12.0536 36.56 12.467 36.56C12.9136 36.56 13.277 36.41 13.557 36.11C13.8436 35.81 13.987 35.41 13.987 34.91V32.15H14.597V37H14.007V36.14C13.847 36.4467 13.6236 36.68 13.337 36.84C13.057 37 12.7403 37.08 12.387 37.08ZM16.2043 37V32.15H16.8043V33.02C16.9643 32.7 17.1943 32.46 17.4943 32.3C17.7943 32.14 18.1276 32.06 18.4943 32.06C19.6476 32.06 20.2243 32.6867 20.2243 33.94V37H19.6143V33.99C19.6143 33.51 19.5176 33.1567 19.3243 32.93C19.131 32.7033 18.8243 32.59 18.4043 32.59C17.9243 32.59 17.5376 32.74 17.2443 33.04C16.9576 33.3333 16.8143 33.73 16.8143 34.23V37H16.2043Z" fill="black"/>
<path d="M12 3L12 21" stroke="black" stroke-width="1.1" stroke-linecap="round" stroke-linejoin="round"/>
<path d="M3 3L5 3" stroke="black" stroke-width="1.1" stroke-linecap="round" stroke-linejoin="round"/>
<path d="M3 21L5 21" stroke="black" stroke-width="1.1" stroke-linecap="round" stroke-linejoin="round"/>
<path d="M7 3L9 3" stroke="black" stroke-width="1.1" stroke-linecap="round" stroke-linejoin="round"/>
<path d="M7 21L9 21" stroke="black" stroke-width="1.1" stroke-linecap="round" stroke-linejoin="round"/>
<path d="M11 3L13 3" stroke="black" stroke-width="1.1" stroke-linecap="round" stroke-linejoin="round"/>
<path d="M11 21L13 21" stroke="black" stroke-width="1.1" stroke-linecap="round" stroke-linejoin="round"/>
<path d="M15 3L17 3" stroke="black" stroke-width="1.1" stroke-linecap="round" stroke-linejoin="round"/>
<path d="M15 21L17 21" stroke="black" stroke-width="1.1" stroke-linecap="round" stroke-linejoin="round"/>
<path d="M19 3L21 3" stroke="black" stroke-width="1.1" stroke-linecap="round" stroke-linejoin="round"/>
<path d="M19 21L21 21" stroke="black" stroke-width="1.1" stroke-linecap="round" stroke-linejoin="round"/>
</svg>
