<svg width="64" height="42" viewBox="0 0 64 42" fill="none" xmlns="http://www.w3.org/2000/svg">
<path d="M32 1V17M32 1L30.5 2.5M32 1L33.5 2.5M32 17L30.5 15.5M32 17L33.5 15.5" stroke="black" stroke-width="1.1" stroke-linecap="round" stroke-linejoin="round"/>
<path d="M36 7.55556C36 9.51923 34 10.6667 32 12C30 10.6667 28 9.51923 28 7.55556C28 5.59188 29.7909 4 32 4C34.2091 4 36 5.59188 36 7.55556Z" stroke="black" stroke-width="1.1"/>
<path d="M36 16.4444C36 14.4808 34 13.3333 32 12C30 13.3333 28 14.4808 28 16.4444C28 18.4081 29.7909 20 32 20C34.2091 20 36 18.4081 36 16.4444Z" stroke="black" stroke-width="1.1"/>
<path d="M0.598125 35L3.66813 27.95H4.21813L7.27813 35H6.63813L5.82813 33.12H2.04813L1.24813 35H0.598125ZM3.92813 28.71L2.27813 32.59H5.59813L3.94813 28.71H3.92813ZM7.55008 35L9.55008 32.49L7.66008 30.15H8.39008L9.91008 32.07L11.4401 30.15H12.1601L10.2701 32.5L12.2801 35H11.5401L9.91008 32.95L8.27008 35H7.55008ZM13.1766 28.87V28.1H13.9966V28.87H13.1766ZM13.2766 35V30.15H13.8866V35H13.2766ZM17.0734 35.08C16.7134 35.08 16.3667 35.0267 16.0334 34.92C15.7067 34.8133 15.4367 34.66 15.2234 34.46L15.4434 34.01C15.69 34.21 15.9534 34.3567 16.2334 34.45C16.5134 34.5367 16.8 34.58 17.0934 34.58C17.5067 34.58 17.8167 34.5067 18.0234 34.36C18.2367 34.2067 18.3434 33.9967 18.3434 33.73C18.3434 33.5233 18.2734 33.36 18.1334 33.24C17.9934 33.12 17.7734 33.0233 17.4734 32.95L16.6034 32.75C15.7834 32.5633 15.3734 32.14 15.3734 31.48C15.3734 31.0533 15.54 30.71 15.8734 30.45C16.2067 30.19 16.6467 30.06 17.1934 30.06C17.5267 30.06 17.84 30.1167 18.1334 30.23C18.4267 30.3367 18.6667 30.4933 18.8534 30.7L18.6134 31.15C18.42 30.9567 18.2 30.8133 17.9534 30.72C17.7067 30.62 17.45 30.57 17.1834 30.57C16.7967 30.57 16.4967 30.65 16.2834 30.81C16.0767 30.97 15.9734 31.1867 15.9734 31.46C15.9734 31.6667 16.0367 31.8333 16.1634 31.96C16.29 32.0867 16.4967 32.1833 16.7834 32.25L17.6534 32.45C18.0867 32.55 18.41 32.7 18.6234 32.9C18.8367 33.0933 18.9434 33.3567 18.9434 33.69C18.9434 34.1233 18.7734 34.4633 18.4334 34.71C18.0934 34.9567 17.64 35.08 17.0734 35.08ZM24.7085 35.08C24.2552 35.08 23.8618 34.98 23.5285 34.78C23.1952 34.5733 22.9352 34.2833 22.7485 33.91C22.5685 33.53 22.4785 33.0833 22.4785 32.57C22.4785 32.0633 22.5685 31.6233 22.7485 31.25C22.9352 30.87 23.1952 30.5767 23.5285 30.37C23.8618 30.1633 24.2552 30.06 24.7085 30.06C25.1685 30.06 25.5652 30.1633 25.8985 30.37C26.2318 30.5767 26.4885 30.87 26.6685 31.25C26.8552 31.6233 26.9485 32.0633 26.9485 32.57C26.9485 33.0833 26.8552 33.53 26.6685 33.91C26.4885 34.2833 26.2318 34.5733 25.8985 34.78C25.5652 34.98 25.1685 35.08 24.7085 35.08ZM24.7085 34.57C25.2018 34.57 25.5952 34.3967 25.8885 34.05C26.1818 33.6967 26.3285 33.2033 26.3285 32.57C26.3285 31.9367 26.1818 31.4467 25.8885 31.1C25.5952 30.7533 25.2018 30.58 24.7085 30.58C24.2152 30.58 23.8218 30.7533 23.5285 31.1C23.2418 31.4467 23.0985 31.9367 23.0985 32.57C23.0985 33.2033 23.2418 33.6967 23.5285 34.05C23.8218 34.3967 24.2152 34.57 24.7085 34.57ZM28.4284 35V30.64H27.4684V30.15H28.4284V29.91C28.4284 28.6767 29.0518 28.0233 30.2984 27.95L30.6484 27.92L30.6984 28.42L30.2384 28.45C29.8251 28.4767 29.5218 28.6067 29.3284 28.84C29.1351 29.0733 29.0384 29.4133 29.0384 29.86V30.15H30.4684V30.64H29.0384V35H28.4284ZM34.0216 35V27.95H34.6316V34.45H38.3116V35H34.0216ZM41.3143 35.08C40.5676 35.08 39.9776 34.86 39.5443 34.42C39.1176 33.9733 38.9043 33.3633 38.9043 32.59C38.9043 32.09 39.001 31.65 39.1943 31.27C39.3876 30.89 39.6543 30.5933 39.9943 30.38C40.341 30.1667 40.7376 30.06 41.1843 30.06C41.831 30.06 42.3343 30.27 42.6943 30.69C43.0543 31.11 43.2343 31.6867 43.2343 32.42V32.7H39.5043C39.5243 33.3 39.6876 33.7633 39.9943 34.09C40.3076 34.41 40.741 34.57 41.2943 34.57C41.5943 34.57 41.8743 34.5233 42.1343 34.43C42.401 34.3367 42.661 34.18 42.9143 33.96L43.1543 34.42C42.941 34.6267 42.6676 34.79 42.3343 34.91C42.001 35.0233 41.661 35.08 41.3143 35.08ZM41.1943 30.55C40.6876 30.55 40.291 30.71 40.0043 31.03C39.7243 31.3433 39.561 31.75 39.5143 32.25H42.6843C42.671 31.7167 42.5376 31.3 42.2843 31C42.031 30.7 41.6676 30.55 41.1943 30.55ZM44.4777 35V30.15H45.0777V31.02C45.2377 30.7 45.4677 30.46 45.7677 30.3C46.0677 30.14 46.4011 30.06 46.7677 30.06C47.9211 30.06 48.4977 30.6867 48.4977 31.94V35H47.8877V31.99C47.8877 31.51 47.7911 31.1567 47.5977 30.93C47.4044 30.7033 47.0977 30.59 46.6777 30.59C46.1977 30.59 45.8111 30.74 45.5177 31.04C45.2311 31.3333 45.0877 31.73 45.0877 32.23V35H44.4777ZM52.1834 36.88C51.3368 36.88 50.6334 36.6567 50.0734 36.21L50.3034 35.75C50.6101 35.97 50.9068 36.1267 51.1934 36.22C51.4801 36.32 51.8034 36.37 52.1634 36.37C52.6501 36.37 53.0201 36.2367 53.2734 35.97C53.5268 35.7033 53.6534 35.3167 53.6534 34.81V33.87C53.5134 34.19 53.2901 34.44 52.9834 34.62C52.6834 34.8 52.3401 34.89 51.9534 34.89C51.5001 34.89 51.1101 34.79 50.7834 34.59C50.4634 34.3833 50.2134 34.1 50.0334 33.74C49.8601 33.3733 49.7734 32.95 49.7734 32.47C49.7734 31.99 49.8601 31.57 50.0334 31.21C50.2134 30.85 50.4634 30.57 50.7834 30.37C51.1101 30.1633 51.5001 30.06 51.9534 30.06C52.3401 30.06 52.6834 30.15 52.9834 30.33C53.2834 30.51 53.5034 30.7567 53.6434 31.07V30.15H54.2434V34.72C54.2434 36.16 53.5568 36.88 52.1834 36.88ZM52.0234 34.37C52.5234 34.37 52.9201 34.2 53.2134 33.86C53.5068 33.5133 53.6534 33.05 53.6534 32.47C53.6534 31.89 53.5068 31.43 53.2134 31.09C52.9201 30.75 52.5234 30.58 52.0234 30.58C51.5168 30.58 51.1168 30.75 50.8234 31.09C50.5368 31.43 50.3934 31.89 50.3934 32.47C50.3934 33.05 50.5368 33.5133 50.8234 33.86C51.1168 34.2 51.5168 34.37 52.0234 34.37ZM57.6847 35.08C57.1447 35.08 56.738 34.9333 56.4647 34.64C56.198 34.3467 56.0647 33.9267 56.0647 33.38V30.64H55.1047V30.15H56.0647V28.65H56.6747V30.15H58.2447V30.64H56.6747V33.3C56.6747 33.7067 56.758 34.0167 56.9247 34.23C57.0914 34.4433 57.368 34.55 57.7547 34.55C57.868 34.55 57.978 34.5367 58.0847 34.51C58.1914 34.4833 58.2847 34.4533 58.3647 34.42L58.4847 34.9C58.4114 34.9467 58.2947 34.9867 58.1347 35.02C57.9747 35.06 57.8247 35.08 57.6847 35.08ZM59.2043 35V27.95H59.8143V30.99C59.981 30.6833 60.211 30.4533 60.5043 30.3C60.8043 30.14 61.1343 30.06 61.4943 30.06C62.6476 30.06 63.2243 30.6867 63.2243 31.94V35H62.6143V31.99C62.6143 31.51 62.5176 31.1567 62.3243 30.93C62.131 30.7033 61.8243 30.59 61.4043 30.59C60.9243 30.59 60.5376 30.74 60.2443 31.04C59.9576 31.3333 59.8143 31.73 59.8143 32.23V35H59.2043Z" fill="black"/>
</svg>
