<svg width="45" height="44" viewBox="0 0 45 44" fill="none" xmlns="http://www.w3.org/2000/svg">
<g clip-path="url(#clip0_1862_18207)">
<mask id="mask0_1862_18207" style="mask-type:alpha" maskUnits="userSpaceOnUse" x="10" y="-2" width="26" height="26">
<g clip-path="url(#clip1_1862_18207)">
<line x1="11.1921" y1="16.7826" x2="29.7999" y2="-3.17187" stroke="black" stroke-linecap="round"/>
<line x1="11.0874" y1="13.7844" x2="29.6952" y2="-6.17004" stroke="black" stroke-linecap="round"/>
<line x1="10.9826" y1="10.7862" x2="29.5905" y2="-9.16821" stroke="black" stroke-linecap="round"/>
<line x1="10.8779" y1="7.78807" x2="29.4857" y2="-12.1664" stroke="black" stroke-linecap="round"/>
<line x1="10.7732" y1="4.78991" x2="29.381" y2="-15.1645" stroke="black" stroke-linecap="round"/>
<line x1="11.4016" y1="22.7789" x2="31.9384" y2="0.755885" stroke="black" stroke-linecap="round"/>
<line x1="11.5061" y1="25.7771" x2="34.9364" y2="0.651184" stroke="black" stroke-linecap="round"/>
<line x1="11.6108" y1="28.7753" x2="36.0056" y2="2.61506" stroke="black" stroke-linecap="round"/>
<line x1="11.7156" y1="31.7734" x2="36.1103" y2="5.61323" stroke="black" stroke-linecap="round"/>
<line x1="11.8203" y1="34.7716" x2="37.1796" y2="7.57711" stroke="black" stroke-linecap="round"/>
<line x1="11.925" y1="37.7698" x2="36.3198" y2="11.6096" stroke="black" stroke-linecap="round"/>
<line x1="12.0298" y1="40.7679" x2="37.389" y2="13.5734" stroke="black" stroke-linecap="round"/>
<line x1="12.1343" y1="43.7661" x2="37.4935" y2="16.5716" stroke="black" stroke-linecap="round"/>
<line x1="12.239" y1="46.7643" x2="37.5983" y2="19.5698" stroke="black" stroke-linecap="round"/>
<line x1="12.3437" y1="49.7624" x2="37.703" y2="22.568" stroke="black" stroke-linecap="round"/>
<line x1="11.2969" y1="19.7808" x2="29.9047" y2="-0.173702" stroke="black" stroke-linecap="round"/>
<line x1="11.2969" y1="19.7808" x2="29.9047" y2="-0.173702" stroke="black" stroke-linecap="round"/>
<line x1="7.77513" y1="4.89452" x2="26.383" y2="-15.0599" stroke="black" stroke-linecap="round"/>
</g>
</mask>
<g mask="url(#mask0_1862_18207)">
<path d="M27.5 2H18.5C18.2239 2 18 2.22386 18 2.5V11.8894C18 11.9623 18.0159 12.0342 18.0466 12.1003L22.5466 21.7753C22.7259 22.1608 23.2741 22.1608 23.4534 21.7753L27.9534 12.1003C27.9841 12.0342 28 11.9623 28 11.8894V2.5C28 2.22386 27.7761 2 27.5 2Z" fill="black"/>
</g>
<path d="M27.5 2H18.5C18.2239 2 18 2.22386 18 2.5V11.887C18 11.9614 18.0166 12.0348 18.0486 12.102L22.5486 21.552C22.7295 21.932 23.2705 21.932 23.4514 21.552L27.9514 12.102C27.9834 12.0348 28 11.9614 28 11.887V2.5C28 2.22386 27.7761 2 27.5 2Z" stroke="black" stroke-width="1.1" stroke-linecap="round" stroke-linejoin="round"/>
</g>
<path d="M1.46688 37V29.95H4.15688C4.87688 29.95 5.43354 30.11 5.82687 30.43C6.22687 30.75 6.42687 31.2067 6.42687 31.8C6.42687 32.1867 6.32354 32.5167 6.11688 32.79C5.91021 33.0633 5.63021 33.2633 5.27688 33.39C5.68354 33.49 6.00354 33.6867 6.23688 33.98C6.47021 34.2667 6.58688 34.6333 6.58688 35.08C6.58688 35.7067 6.38688 36.1833 5.98688 36.51C5.58688 36.8367 5.02021 37 4.28688 37H1.46688ZM2.06688 33.17H4.08688C4.64688 33.17 5.07354 33.0567 5.36688 32.83C5.66021 32.5967 5.80688 32.26 5.80688 31.82C5.80688 31.38 5.66021 31.0467 5.36688 30.82C5.07354 30.5867 4.64688 30.47 4.08688 30.47H2.06688V33.17ZM2.06688 36.48H4.23688C5.39021 36.48 5.96688 36.0167 5.96688 35.09C5.96688 34.61 5.82354 34.2567 5.53688 34.03C5.25021 33.8033 4.81688 33.69 4.23688 33.69H2.06688V36.48ZM9.55586 37.08C9.22919 37.08 8.93586 37.0167 8.67586 36.89C8.42253 36.7633 8.21919 36.59 8.06586 36.37C7.91919 36.15 7.84586 35.9033 7.84586 35.63C7.84586 35.27 7.93586 34.99 8.11586 34.79C8.29586 34.5833 8.59919 34.4367 9.02586 34.35C9.45253 34.2633 10.0392 34.22 10.7859 34.22H11.0959V33.86C11.0959 33.4133 11.0059 33.09 10.8259 32.89C10.6459 32.6833 10.3592 32.58 9.96586 32.58C9.67253 32.58 9.38919 32.6233 9.11586 32.71C8.84919 32.7967 8.57253 32.9333 8.28586 33.12L8.04586 32.65C8.29919 32.47 8.59919 32.3267 8.94586 32.22C9.29253 32.1133 9.62919 32.06 9.95586 32.06C10.5425 32.06 10.9759 32.21 11.2559 32.51C11.5425 32.81 11.6859 33.27 11.6859 33.89V37H11.1059V36.13C10.9725 36.43 10.7692 36.6633 10.4959 36.83C10.2292 36.9967 9.91586 37.08 9.55586 37.08ZM9.63586 36.59C9.92253 36.59 10.1725 36.5233 10.3859 36.39C10.6059 36.25 10.7792 36.06 10.9059 35.82C11.0325 35.58 11.0959 35.3067 11.0959 35V34.67H10.7959C10.1959 34.67 9.72586 34.6967 9.38586 34.75C9.05253 34.8033 8.81919 34.8967 8.68586 35.03C8.55253 35.1633 8.48586 35.3467 8.48586 35.58C8.48586 35.88 8.58919 36.1233 8.79586 36.31C9.00253 36.4967 9.28253 36.59 9.63586 36.59ZM15.2605 37.08C14.7871 37.08 14.3805 36.9767 14.0405 36.77C13.7005 36.5567 13.4371 36.26 13.2505 35.88C13.0705 35.4933 12.9805 35.0467 12.9805 34.54C12.9805 33.7733 13.1805 33.17 13.5805 32.73C13.9871 32.2833 14.5471 32.06 15.2605 32.06C15.5538 32.06 15.8438 32.1167 16.1305 32.23C16.4171 32.3433 16.6571 32.5 16.8505 32.7L16.6105 33.16C16.4038 32.96 16.1838 32.8167 15.9505 32.73C15.7171 32.6367 15.4938 32.59 15.2805 32.59C14.7405 32.59 14.3238 32.76 14.0305 33.1C13.7438 33.44 13.6005 33.9233 13.6005 34.55C13.6005 35.1767 13.7438 35.67 14.0305 36.03C14.3238 36.3833 14.7405 36.56 15.2805 36.56C15.4938 36.56 15.7171 36.5167 15.9505 36.43C16.1838 36.3367 16.4038 36.19 16.6105 35.99L16.8505 36.45C16.6571 36.6433 16.4138 36.7967 16.1205 36.91C15.8338 37.0233 15.5471 37.08 15.2605 37.08ZM17.8703 37V29.95H18.4803V34.35H18.5003L20.8903 32.15H21.7003L19.1503 34.49L21.9403 37H21.1303L18.5003 34.67H18.4803V37H17.8703ZM22.3513 34.6V34.08H25.0713V34.6H22.3513ZM26.6105 37V29.95H27.2205V32.99C27.3872 32.6833 27.6172 32.4533 27.9105 32.3C28.2105 32.14 28.5405 32.06 28.9005 32.06C30.0539 32.06 30.6305 32.6867 30.6305 33.94V37H30.0205V33.99C30.0205 33.51 29.9239 33.1567 29.7305 32.93C29.5372 32.7033 29.2305 32.59 28.8105 32.59C28.3305 32.59 27.9439 32.74 27.6505 33.04C27.3639 33.3333 27.2205 33.73 27.2205 34.23V37H26.6105ZM32.1063 30.87V30.1H32.9263V30.87H32.1063ZM32.2063 37V32.15H32.8163V37H32.2063ZM36.533 38.88C35.6864 38.88 34.983 38.6567 34.423 38.21L34.653 37.75C34.9597 37.97 35.2564 38.1267 35.543 38.22C35.8297 38.32 36.153 38.37 36.513 38.37C36.9997 38.37 37.3697 38.2367 37.623 37.97C37.8764 37.7033 38.003 37.3167 38.003 36.81V35.87C37.863 36.19 37.6397 36.44 37.333 36.62C37.033 36.8 36.6897 36.89 36.303 36.89C35.8497 36.89 35.4597 36.79 35.133 36.59C34.813 36.3833 34.563 36.1 34.383 35.74C34.2097 35.3733 34.123 34.95 34.123 34.47C34.123 33.99 34.2097 33.57 34.383 33.21C34.563 32.85 34.813 32.57 35.133 32.37C35.4597 32.1633 35.8497 32.06 36.303 32.06C36.6897 32.06 37.033 32.15 37.333 32.33C37.633 32.51 37.853 32.7567 37.993 33.07V32.15H38.593V36.72C38.593 38.16 37.9064 38.88 36.533 38.88ZM36.373 36.37C36.873 36.37 37.2697 36.2 37.563 35.86C37.8564 35.5133 38.003 35.05 38.003 34.47C38.003 33.89 37.8564 33.43 37.563 33.09C37.2697 32.75 36.873 32.58 36.373 32.58C35.8664 32.58 35.4664 32.75 35.173 33.09C34.8864 33.43 34.743 33.89 34.743 34.47C34.743 35.05 34.8864 35.5133 35.173 35.86C35.4664 36.2 35.8664 36.37 36.373 36.37ZM40.2043 37V29.95H40.8143V32.99C40.981 32.6833 41.211 32.4533 41.5043 32.3C41.8043 32.14 42.1343 32.06 42.4943 32.06C43.6476 32.06 44.2243 32.6867 44.2243 33.94V37H43.6143V33.99C43.6143 33.51 43.5176 33.1567 43.3243 32.93C43.131 32.7033 42.8243 32.59 42.4043 32.59C41.9243 32.59 41.5376 32.74 41.2443 33.04C40.9576 33.3333 40.8143 33.73 40.8143 34.23V37H40.2043Z" fill="black"/>
<defs>
<clipPath id="clip0_1862_18207">
<rect width="24" height="24" fill="white" transform="translate(11)"/>
</clipPath>
<clipPath id="clip1_1862_18207">
<rect width="24" height="24" fill="white" transform="translate(10.5886 -0.499878) rotate(-2)"/>
</clipPath>
</defs>
</svg>
