<svg width="24" height="44" viewBox="0 0 24 44" fill="none" xmlns="http://www.w3.org/2000/svg">
<path d="M1.55281 37V29.95H4.24281C4.96281 29.95 5.51948 30.11 5.91281 30.43C6.31281 30.75 6.51281 31.2067 6.51281 31.8C6.51281 32.1867 6.40948 32.5167 6.20281 32.79C5.99615 33.0633 5.71615 33.2633 5.36281 33.39C5.76948 33.49 6.08948 33.6867 6.32281 33.98C6.55615 34.2667 6.67281 34.6333 6.67281 35.08C6.67281 35.7067 6.47281 36.1833 6.07281 36.51C5.67281 36.8367 5.10615 37 4.37281 37H1.55281ZM2.15281 33.17H4.17281C4.73281 33.17 5.15948 33.0567 5.45281 32.83C5.74615 32.5967 5.89281 32.26 5.89281 31.82C5.89281 31.38 5.74615 31.0467 5.45281 30.82C5.15948 30.5867 4.73281 30.47 4.17281 30.47H2.15281V33.17ZM2.15281 36.48H4.32281C5.47615 36.48 6.05281 36.0167 6.05281 35.09C6.05281 34.61 5.90948 34.2567 5.62281 34.03C5.33615 33.8033 4.90281 33.69 4.32281 33.69H2.15281V36.48ZM9.6418 37.08C9.31513 37.08 9.0218 37.0167 8.7618 36.89C8.50846 36.7633 8.30513 36.59 8.1518 36.37C8.00513 36.15 7.9318 35.9033 7.9318 35.63C7.9318 35.27 8.0218 34.99 8.2018 34.79C8.3818 34.5833 8.68513 34.4367 9.1118 34.35C9.53846 34.2633 10.1251 34.22 10.8718 34.22H11.1818V33.86C11.1818 33.4133 11.0918 33.09 10.9118 32.89C10.7318 32.6833 10.4451 32.58 10.0518 32.58C9.75846 32.58 9.47513 32.6233 9.2018 32.71C8.93513 32.7967 8.65846 32.9333 8.3718 33.12L8.1318 32.65C8.38513 32.47 8.68513 32.3267 9.0318 32.22C9.37846 32.1133 9.71513 32.06 10.0418 32.06C10.6285 32.06 11.0618 32.21 11.3418 32.51C11.6285 32.81 11.7718 33.27 11.7718 33.89V37H11.1918V36.13C11.0585 36.43 10.8551 36.6633 10.5818 36.83C10.3151 36.9967 10.0018 37.08 9.6418 37.08ZM9.7218 36.59C10.0085 36.59 10.2585 36.5233 10.4718 36.39C10.6918 36.25 10.8651 36.06 10.9918 35.82C11.1185 35.58 11.1818 35.3067 11.1818 35V34.67H10.8818C10.2818 34.67 9.8118 34.6967 9.4718 34.75C9.13846 34.8033 8.90513 34.8967 8.7718 35.03C8.63846 35.1633 8.5718 35.3467 8.5718 35.58C8.5718 35.88 8.67513 36.1233 8.8818 36.31C9.08846 36.4967 9.36846 36.59 9.7218 36.59ZM15.3464 37.08C14.8731 37.08 14.4664 36.9767 14.1264 36.77C13.7864 36.5567 13.5231 36.26 13.3364 35.88C13.1564 35.4933 13.0664 35.0467 13.0664 34.54C13.0664 33.7733 13.2664 33.17 13.6664 32.73C14.0731 32.2833 14.6331 32.06 15.3464 32.06C15.6397 32.06 15.9297 32.1167 16.2164 32.23C16.5031 32.3433 16.7431 32.5 16.9364 32.7L16.6964 33.16C16.4897 32.96 16.2697 32.8167 16.0364 32.73C15.8031 32.6367 15.5797 32.59 15.3664 32.59C14.8264 32.59 14.4097 32.76 14.1164 33.1C13.8297 33.44 13.6864 33.9233 13.6864 34.55C13.6864 35.1767 13.8297 35.67 14.1164 36.03C14.4097 36.3833 14.8264 36.56 15.3664 36.56C15.5797 36.56 15.8031 36.5167 16.0364 36.43C16.2697 36.3367 16.4897 36.19 16.6964 35.99L16.9364 36.45C16.7431 36.6433 16.4997 36.7967 16.2064 36.91C15.9197 37.0233 15.6331 37.08 15.3464 37.08ZM17.9563 37V29.95H18.5663V34.35H18.5863L20.9763 32.15H21.7863L19.2363 34.49L22.0263 37H21.2163L18.5863 34.67H18.5663V37H17.9563Z" fill="black"/>
<path d="M7 2.5C7 2.22386 7.22352 2 7.49966 2C8.445 2 10.5319 2 12 2C13.4681 2 15.555 2 16.5003 2C16.7765 2 17 2.22386 17 2.5V17.7597C17 17.9116 16.931 18.0552 16.8123 18.1501L12.3123 21.7501C12.1297 21.8962 11.8703 21.8962 11.6877 21.7501L7.18765 18.1501C7.06905 18.0552 7 17.9116 7 17.7597V2.5Z" stroke="black" stroke-width="1.1"/>
<g clip-path="url(#clip0_1863_18238)">
<path d="M10 9H14L10 13H14" stroke="black" stroke-width="1.1" stroke-linecap="round" stroke-linejoin="round"/>
</g>
<defs>
<clipPath id="clip0_1863_18238">
<rect width="6" height="6" fill="white" transform="translate(9 8)"/>
</clipPath>
</defs>
</svg>
