<svg width="24" height="41" viewBox="0 0 24 41" fill="none" xmlns="http://www.w3.org/2000/svg">
<path d="M4.28328 34V26.95H6.97328C7.69328 26.95 8.24995 27.11 8.64328 27.43C9.04328 27.75 9.24328 28.2067 9.24328 28.8C9.24328 29.1867 9.13995 29.5167 8.93328 29.79C8.72661 30.0633 8.44661 30.2633 8.09328 30.39C8.49995 30.49 8.81995 30.6867 9.05328 30.98C9.28661 31.2667 9.40328 31.6333 9.40328 32.08C9.40328 32.7067 9.20328 33.1833 8.80328 33.51C8.40328 33.8367 7.83661 34 7.10328 34H4.28328ZM4.88328 30.17H6.90328C7.46328 30.17 7.88995 30.0567 8.18328 29.83C8.47661 29.5967 8.62328 29.26 8.62328 28.82C8.62328 28.38 8.47661 28.0467 8.18328 27.82C7.88995 27.5867 7.46328 27.47 6.90328 27.47H4.88328V30.17ZM4.88328 33.48H7.05328C8.20662 33.48 8.78328 33.0167 8.78328 32.09C8.78328 31.61 8.63995 31.2567 8.35328 31.03C8.06661 30.8033 7.63328 30.69 7.05328 30.69H4.88328V33.48ZM12.3723 34.08C12.0456 34.08 11.7523 34.0167 11.4923 33.89C11.2389 33.7633 11.0356 33.59 10.8823 33.37C10.7356 33.15 10.6623 32.9033 10.6623 32.63C10.6623 32.27 10.7523 31.99 10.9323 31.79C11.1123 31.5833 11.4156 31.4367 11.8423 31.35C12.2689 31.2633 12.8556 31.22 13.6023 31.22H13.9123V30.86C13.9123 30.4133 13.8223 30.09 13.6423 29.89C13.4623 29.6833 13.1756 29.58 12.7823 29.58C12.4889 29.58 12.2056 29.6233 11.9323 29.71C11.6656 29.7967 11.3889 29.9333 11.1023 30.12L10.8623 29.65C11.1156 29.47 11.4156 29.3267 11.7623 29.22C12.1089 29.1133 12.4456 29.06 12.7723 29.06C13.3589 29.06 13.7923 29.21 14.0723 29.51C14.3589 29.81 14.5023 30.27 14.5023 30.89V34H13.9223V33.13C13.7889 33.43 13.5856 33.6633 13.3123 33.83C13.0456 33.9967 12.7323 34.08 12.3723 34.08ZM12.4523 33.59C12.7389 33.59 12.9889 33.5233 13.2023 33.39C13.4223 33.25 13.5956 33.06 13.7223 32.82C13.8489 32.58 13.9123 32.3067 13.9123 32V31.67H13.6123C13.0123 31.67 12.5423 31.6967 12.2023 31.75C11.8689 31.8033 11.6356 31.8967 11.5023 32.03C11.3689 32.1633 11.3023 32.3467 11.3023 32.58C11.3023 32.88 11.4056 33.1233 11.6123 33.31C11.8189 33.4967 12.0989 33.59 12.4523 33.59ZM17.5069 34.08C17.0535 34.08 16.7035 33.9433 16.4569 33.67C16.2169 33.39 16.0969 32.99 16.0969 32.47V26.95H16.7069V32.4C16.7069 33.1667 17.0069 33.55 17.6069 33.55C17.7735 33.55 17.9269 33.53 18.0669 33.49L18.0469 34.02C17.8535 34.06 17.6735 34.08 17.5069 34.08ZM20.3584 34.08C19.9051 34.08 19.5551 33.9433 19.3084 33.67C19.0684 33.39 18.9484 32.99 18.9484 32.47V26.95H19.5584V32.4C19.5584 33.1667 19.8584 33.55 20.4584 33.55C20.6251 33.55 20.7784 33.53 20.9184 33.49L20.8984 34.02C20.7051 34.06 20.5251 34.08 20.3584 34.08Z" fill="black"/>
<circle cx="12" cy="12" r="9" stroke="black" stroke-width="1.1"/>
<path d="M12.328 14.6985C12.328 14.6985 12.7592 13.5138 14.4021 9" stroke="black" stroke-width="1.1" stroke-linecap="round" stroke-linejoin="round"/>
<path d="M9.24991 14.6985C9.24991 14.6985 9.68109 13.5138 11.324 9" stroke="black" stroke-width="1.1" stroke-linecap="round" stroke-linejoin="round"/>
</svg>
