<svg width="45" height="46" viewBox="0 0 45 46" fill="none" xmlns="http://www.w3.org/2000/svg">
<path d="M1.91609 39V31.95H4.60609C5.32609 31.95 5.88276 32.11 6.27609 32.43C6.67609 32.75 6.87609 33.2067 6.87609 33.8C6.87609 34.1867 6.77276 34.5167 6.56609 34.79C6.35943 35.0633 6.07943 35.2633 5.72609 35.39C6.13276 35.49 6.45276 35.6867 6.68609 35.98C6.91943 36.2667 7.03609 36.6333 7.03609 37.08C7.03609 37.7067 6.83609 38.1833 6.43609 38.51C6.03609 38.8367 5.46943 39 4.73609 39H1.91609ZM2.51609 35.17H4.53609C5.09609 35.17 5.52276 35.0567 5.81609 34.83C6.10943 34.5967 6.25609 34.26 6.25609 33.82C6.25609 33.38 6.10943 33.0467 5.81609 32.82C5.52276 32.5867 5.09609 32.47 4.53609 32.47H2.51609V35.17ZM2.51609 38.48H4.68609C5.83943 38.48 6.41609 38.0167 6.41609 37.09C6.41609 36.61 6.27276 36.2567 5.98609 36.03C5.69943 35.8033 5.26609 35.69 4.68609 35.69H2.51609V38.48ZM10.6151 39.08C9.86841 39.08 9.27841 38.86 8.84508 38.42C8.41841 37.9733 8.20508 37.3633 8.20508 36.59C8.20508 36.09 8.30174 35.65 8.49508 35.27C8.68841 34.89 8.95508 34.5933 9.29508 34.38C9.64174 34.1667 10.0384 34.06 10.4851 34.06C11.1317 34.06 11.6351 34.27 11.9951 34.69C12.3551 35.11 12.5351 35.6867 12.5351 36.42V36.7H8.80508C8.82508 37.3 8.98841 37.7633 9.29508 38.09C9.60841 38.41 10.0417 38.57 10.5951 38.57C10.8951 38.57 11.1751 38.5233 11.4351 38.43C11.7017 38.3367 11.9617 38.18 12.2151 37.96L12.4551 38.42C12.2417 38.6267 11.9684 38.79 11.6351 38.91C11.3017 39.0233 10.9617 39.08 10.6151 39.08ZM10.4951 34.55C9.98841 34.55 9.59174 34.71 9.30508 35.03C9.02508 35.3433 8.86174 35.75 8.81508 36.25H11.9851C11.9717 35.7167 11.8384 35.3 11.5851 35C11.3317 34.7 10.9684 34.55 10.4951 34.55ZM15.7585 39.08C15.2852 39.08 14.8785 38.9767 14.5385 38.77C14.1985 38.5567 13.9352 38.26 13.7485 37.88C13.5685 37.4933 13.4785 37.0467 13.4785 36.54C13.4785 35.7733 13.6785 35.17 14.0785 34.73C14.4852 34.2833 15.0452 34.06 15.7585 34.06C16.0518 34.06 16.3418 34.1167 16.6285 34.23C16.9152 34.3433 17.1552 34.5 17.3485 34.7L17.1085 35.16C16.9018 34.96 16.6818 34.8167 16.4485 34.73C16.2152 34.6367 15.9918 34.59 15.7785 34.59C15.2385 34.59 14.8218 34.76 14.5285 35.1C14.2418 35.44 14.0985 35.9233 14.0985 36.55C14.0985 37.1767 14.2418 37.67 14.5285 38.03C14.8218 38.3833 15.2385 38.56 15.7785 38.56C15.9918 38.56 16.2152 38.5167 16.4485 38.43C16.6818 38.3367 16.9018 38.19 17.1085 37.99L17.3485 38.45C17.1552 38.6433 16.9118 38.7967 16.6185 38.91C16.3318 39.0233 16.0452 39.08 15.7585 39.08ZM20.2007 39.08C19.7474 39.08 19.354 38.98 19.0207 38.78C18.6874 38.5733 18.4274 38.2833 18.2407 37.91C18.0607 37.53 17.9707 37.0833 17.9707 36.57C17.9707 36.0633 18.0607 35.6233 18.2407 35.25C18.4274 34.87 18.6874 34.5767 19.0207 34.37C19.354 34.1633 19.7474 34.06 20.2007 34.06C20.6607 34.06 21.0574 34.1633 21.3907 34.37C21.724 34.5767 21.9807 34.87 22.1607 35.25C22.3474 35.6233 22.4407 36.0633 22.4407 36.57C22.4407 37.0833 22.3474 37.53 22.1607 37.91C21.9807 38.2833 21.724 38.5733 21.3907 38.78C21.0574 38.98 20.6607 39.08 20.2007 39.08ZM20.2007 38.57C20.694 38.57 21.0874 38.3967 21.3807 38.05C21.674 37.6967 21.8207 37.2033 21.8207 36.57C21.8207 35.9367 21.674 35.4467 21.3807 35.1C21.0874 34.7533 20.694 34.58 20.2007 34.58C19.7074 34.58 19.314 34.7533 19.0207 35.1C18.734 35.4467 18.5907 35.9367 18.5907 36.57C18.5907 37.2033 18.734 37.6967 19.0207 38.05C19.314 38.3967 19.7074 38.57 20.2007 38.57ZM23.7595 39V34.15H24.3595V35C24.6595 34.3733 25.1695 34.06 25.8895 34.06C26.6628 34.06 27.1528 34.3967 27.3595 35.07C27.4995 34.7567 27.7128 34.51 27.9995 34.33C28.2861 34.15 28.6195 34.06 28.9995 34.06C30.0728 34.06 30.6095 34.6867 30.6095 35.94V39H29.9995V35.99C29.9995 35.51 29.9128 35.1567 29.7395 34.93C29.5728 34.7033 29.2895 34.59 28.8895 34.59C28.4628 34.59 28.1228 34.74 27.8695 35.04C27.6161 35.3333 27.4895 35.7333 27.4895 36.24V39H26.8795V35.99C26.8795 35.51 26.7928 35.1567 26.6195 34.93C26.4528 34.7033 26.1728 34.59 25.7795 34.59C25.3461 34.59 25.0028 34.74 24.7495 35.04C24.4961 35.3333 24.3695 35.7333 24.3695 36.24V39H23.7595ZM32.1063 32.87V32.1H32.9263V32.87H32.1063ZM32.2063 39V34.15H32.8163V39H32.2063ZM34.423 39V34.15H35.023V35.02C35.183 34.7 35.413 34.46 35.713 34.3C36.013 34.14 36.3464 34.06 36.713 34.06C37.8664 34.06 38.443 34.6867 38.443 35.94V39H37.833V35.99C37.833 35.51 37.7364 35.1567 37.543 34.93C37.3497 34.7033 37.043 34.59 36.623 34.59C36.143 34.59 35.7564 34.74 35.463 35.04C35.1764 35.3333 35.033 35.73 35.033 36.23V39H34.423ZM42.1288 40.88C41.2821 40.88 40.5788 40.6567 40.0188 40.21L40.2488 39.75C40.5554 39.97 40.8521 40.1267 41.1388 40.22C41.4254 40.32 41.7488 40.37 42.1088 40.37C42.5954 40.37 42.9654 40.2367 43.2188 39.97C43.4721 39.7033 43.5988 39.3167 43.5988 38.81V37.87C43.4588 38.19 43.2354 38.44 42.9288 38.62C42.6288 38.8 42.2854 38.89 41.8988 38.89C41.4454 38.89 41.0554 38.79 40.7288 38.59C40.4088 38.3833 40.1588 38.1 39.9788 37.74C39.8054 37.3733 39.7188 36.95 39.7188 36.47C39.7188 35.99 39.8054 35.57 39.9788 35.21C40.1588 34.85 40.4088 34.57 40.7288 34.37C41.0554 34.1633 41.4454 34.06 41.8988 34.06C42.2854 34.06 42.6288 34.15 42.9288 34.33C43.2288 34.51 43.4488 34.7567 43.5888 35.07V34.15H44.1888V38.72C44.1888 40.16 43.5021 40.88 42.1288 40.88ZM41.9688 38.37C42.4688 38.37 42.8654 38.2 43.1588 37.86C43.4521 37.5133 43.5988 37.05 43.5988 36.47C43.5988 35.89 43.4521 35.43 43.1588 35.09C42.8654 34.75 42.4688 34.58 41.9688 34.58C41.4621 34.58 41.0621 34.75 40.7688 35.09C40.4821 35.43 40.3388 35.89 40.3388 36.47C40.3388 37.05 40.4821 37.5133 40.7688 37.86C41.0621 38.2 41.4621 38.37 41.9688 38.37Z" fill="black"/>
<path d="M18 2L23 30L28 2" stroke="black" stroke-width="1.1" stroke-linecap="round" stroke-linejoin="round"/>
</svg>
