<svg width="30" height="38" viewBox="0 0 30 38" fill="none" xmlns="http://www.w3.org/2000/svg">
<path d="M1.86727 31V23.95H4.55727C5.27727 23.95 5.83393 24.11 6.22727 24.43C6.62727 24.75 6.82727 25.2067 6.82727 25.8C6.82727 26.1867 6.72393 26.5167 6.51727 26.79C6.3106 27.0633 6.0306 27.2633 5.67727 27.39C6.08393 27.49 6.40393 27.6867 6.63727 27.98C6.8706 28.2667 6.98727 28.6333 6.98727 29.08C6.98727 29.7067 6.78727 30.1833 6.38727 30.51C5.98727 30.8367 5.4206 31 4.68727 31H1.86727ZM2.46727 27.17H4.48727C5.04727 27.17 5.47393 27.0567 5.76727 26.83C6.0606 26.5967 6.20727 26.26 6.20727 25.82C6.20727 25.38 6.0606 25.0467 5.76727 24.82C5.47393 24.5867 5.04727 24.47 4.48727 24.47H2.46727V27.17ZM2.46727 30.48H4.63727C5.7906 30.48 6.36727 30.0167 6.36727 29.09C6.36727 28.61 6.22393 28.2567 5.93727 28.03C5.6506 27.8033 5.21727 27.69 4.63727 27.69H2.46727V30.48ZM10.3863 31.08C9.93292 31.08 9.53958 30.98 9.20625 30.78C8.87292 30.5733 8.61292 30.2833 8.42625 29.91C8.24625 29.53 8.15625 29.0833 8.15625 28.57C8.15625 28.0633 8.24625 27.6233 8.42625 27.25C8.61292 26.87 8.87292 26.5767 9.20625 26.37C9.53958 26.1633 9.93292 26.06 10.3863 26.06C10.8463 26.06 11.2429 26.1633 11.5763 26.37C11.9096 26.5767 12.1663 26.87 12.3463 27.25C12.5329 27.6233 12.6263 28.0633 12.6263 28.57C12.6263 29.0833 12.5329 29.53 12.3463 29.91C12.1663 30.2833 11.9096 30.5733 11.5763 30.78C11.2429 30.98 10.8463 31.08 10.3863 31.08ZM10.3863 30.57C10.8796 30.57 11.2729 30.3967 11.5663 30.05C11.8596 29.6967 12.0063 29.2033 12.0063 28.57C12.0063 27.9367 11.8596 27.4467 11.5663 27.1C11.2729 26.7533 10.8796 26.58 10.3863 26.58C9.89292 26.58 9.49958 26.7533 9.20625 27.1C8.91958 27.4467 8.77625 27.9367 8.77625 28.57C8.77625 29.2033 8.91958 29.6967 9.20625 30.05C9.49958 30.3967 9.89292 30.57 10.3863 30.57ZM15.635 31.08C14.4817 31.08 13.905 30.4533 13.905 29.2V26.15H14.515V29.17C14.515 29.6433 14.6117 29.9933 14.805 30.22C14.9983 30.4467 15.3017 30.56 15.715 30.56C16.1617 30.56 16.525 30.41 16.805 30.11C17.0917 29.81 17.235 29.41 17.235 28.91V26.15H17.845V31H17.255V30.14C17.095 30.4467 16.8717 30.68 16.585 30.84C16.305 31 15.9883 31.08 15.635 31.08ZM19.4523 31V26.15H20.0523V27.02C20.2123 26.7 20.4423 26.46 20.7423 26.3C21.0423 26.14 21.3757 26.06 21.7423 26.06C22.8957 26.06 23.4723 26.6867 23.4723 27.94V31H22.8623V27.99C22.8623 27.51 22.7657 27.1567 22.5723 26.93C22.379 26.7033 22.0723 26.59 21.6523 26.59C21.1723 26.59 20.7857 26.74 20.4923 27.04C20.2057 27.3333 20.0623 27.73 20.0623 28.23V31H19.4523ZM26.898 31.08C26.458 31.08 26.078 30.98 25.758 30.78C25.438 30.5733 25.188 30.2833 25.008 29.91C24.8347 29.53 24.748 29.0833 24.748 28.57C24.748 27.8033 24.9414 27.1933 25.328 26.74C25.7147 26.2867 26.238 26.06 26.898 26.06C27.2847 26.06 27.6247 26.15 27.918 26.33C28.218 26.5033 28.4414 26.7433 28.588 27.05V23.95H29.198V31H28.598V30.08C28.4514 30.3933 28.228 30.64 27.928 30.82C27.6347 30.9933 27.2914 31.08 26.898 31.08ZM26.978 30.57C27.4714 30.57 27.8647 30.3967 28.158 30.05C28.4514 29.6967 28.598 29.2033 28.598 28.57C28.598 27.9367 28.4514 27.4467 28.158 27.1C27.8647 26.7533 27.4714 26.58 26.978 26.58C26.4847 26.58 26.0914 26.7533 25.798 27.1C25.5114 27.4467 25.368 27.9367 25.368 28.57C25.368 29.2033 25.5114 29.6967 25.798 30.05C26.0914 30.3967 26.4847 30.57 26.978 30.57Z" fill="black"/>
<path d="M16 14H25" stroke="black" stroke-width="1.1" stroke-linecap="round"/>
<path d="M16 14L20 10" stroke="black" stroke-width="1.1" stroke-linecap="round"/>
</svg>
