<svg width="30" height="45" viewBox="0 0 30 45" fill="none" xmlns="http://www.w3.org/2000/svg">
<g clip-path="url(#clip0_1863_18293)">
<circle cx="15" cy="12" r="7" stroke="black" stroke-width="1.1"/>
<circle cx="15" cy="12" r="10" transform="rotate(30 15 12)" stroke="black" stroke-width="1.1" stroke-linecap="round" stroke-dasharray="1 4"/>
<circle cx="15" cy="12" r="4" transform="rotate(30 15 12)" stroke="black" stroke-width="1.1" stroke-linecap="round" stroke-dasharray="1 3"/>
</g>
<path d="M1.40828 38V30.95H4.09828C4.81828 30.95 5.37495 31.11 5.76828 31.43C6.16828 31.75 6.36828 32.2067 6.36828 32.8C6.36828 33.1867 6.26495 33.5167 6.05828 33.79C5.85161 34.0633 5.57161 34.2633 5.21828 34.39C5.62495 34.49 5.94495 34.6867 6.17828 34.98C6.41161 35.2667 6.52828 35.6333 6.52828 36.08C6.52828 36.7067 6.32828 37.1833 5.92828 37.51C5.52828 37.8367 4.96161 38 4.22828 38H1.40828ZM2.00828 34.17H4.02828C4.58828 34.17 5.01495 34.0567 5.30828 33.83C5.60161 33.5967 5.74828 33.26 5.74828 32.82C5.74828 32.38 5.60161 32.0467 5.30828 31.82C5.01495 31.5867 4.58828 31.47 4.02828 31.47H2.00828V34.17ZM2.00828 37.48H4.17828C5.33162 37.48 5.90828 37.0167 5.90828 36.09C5.90828 35.61 5.76495 35.2567 5.47828 35.03C5.19161 34.8033 4.75828 34.69 4.17828 34.69H2.00828V37.48ZM7.99727 38V33.15H8.59727V34.03C8.73727 33.7233 8.9406 33.49 9.20727 33.33C9.47393 33.17 9.81393 33.0767 10.2273 33.05L10.4773 33.03L10.5373 33.56L10.1073 33.61C9.63393 33.65 9.26727 33.8067 9.00727 34.08C8.74727 34.3467 8.61727 34.7067 8.61727 35.16V38H7.99727ZM13.4666 38.08C12.72 38.08 12.13 37.86 11.6966 37.42C11.27 36.9733 11.0566 36.3633 11.0566 35.59C11.0566 35.09 11.1533 34.65 11.3466 34.27C11.54 33.89 11.8066 33.5933 12.1466 33.38C12.4933 33.1667 12.89 33.06 13.3366 33.06C13.9833 33.06 14.4866 33.27 14.8466 33.69C15.2066 34.11 15.3866 34.6867 15.3866 35.42V35.7H11.6566C11.6766 36.3 11.84 36.7633 12.1466 37.09C12.46 37.41 12.8933 37.57 13.4466 37.57C13.7466 37.57 14.0266 37.5233 14.2866 37.43C14.5533 37.3367 14.8133 37.18 15.0666 36.96L15.3066 37.42C15.0933 37.6267 14.82 37.79 14.4866 37.91C14.1533 38.0233 13.8133 38.08 13.4666 38.08ZM13.3466 33.55C12.84 33.55 12.4433 33.71 12.1566 34.03C11.8766 34.3433 11.7133 34.75 11.6666 35.25H14.8366C14.8233 34.7167 14.69 34.3 14.4366 34C14.1833 33.7 13.82 33.55 13.3466 33.55ZM18.1301 38.08C17.8034 38.08 17.5101 38.0167 17.2501 37.89C16.9967 37.7633 16.7934 37.59 16.6401 37.37C16.4934 37.15 16.4201 36.9033 16.4201 36.63C16.4201 36.27 16.5101 35.99 16.6901 35.79C16.8701 35.5833 17.1734 35.4367 17.6001 35.35C18.0267 35.2633 18.6134 35.22 19.3601 35.22H19.6701V34.86C19.6701 34.4133 19.5801 34.09 19.4001 33.89C19.2201 33.6833 18.9334 33.58 18.5401 33.58C18.2467 33.58 17.9634 33.6233 17.6901 33.71C17.4234 33.7967 17.1467 33.9333 16.8601 34.12L16.6201 33.65C16.8734 33.47 17.1734 33.3267 17.5201 33.22C17.8667 33.1133 18.2034 33.06 18.5301 33.06C19.1167 33.06 19.5501 33.21 19.8301 33.51C20.1167 33.81 20.2601 34.27 20.2601 34.89V38H19.6801V37.13C19.5467 37.43 19.3434 37.6633 19.0701 37.83C18.8034 37.9967 18.4901 38.08 18.1301 38.08ZM18.2101 37.59C18.4967 37.59 18.7467 37.5233 18.9601 37.39C19.1801 37.25 19.3534 37.06 19.4801 36.82C19.6067 36.58 19.6701 36.3067 19.6701 36V35.67H19.3701C18.7701 35.67 18.3001 35.6967 17.9601 35.75C17.6267 35.8033 17.3934 35.8967 17.2601 36.03C17.1267 36.1633 17.0601 36.3467 17.0601 36.58C17.0601 36.88 17.1634 37.1233 17.3701 37.31C17.5767 37.4967 17.8567 37.59 18.2101 37.59ZM23.6847 38.08C23.1447 38.08 22.738 37.9333 22.4647 37.64C22.198 37.3467 22.0647 36.9267 22.0647 36.38V33.64H21.1047V33.15H22.0647V31.65H22.6747V33.15H24.2447V33.64H22.6747V36.3C22.6747 36.7067 22.758 37.0167 22.9247 37.23C23.0914 37.4433 23.368 37.55 23.7547 37.55C23.868 37.55 23.978 37.5367 24.0847 37.51C24.1914 37.4833 24.2847 37.4533 24.3647 37.42L24.4847 37.9C24.4114 37.9467 24.2947 37.9867 24.1347 38.02C23.9747 38.06 23.8247 38.08 23.6847 38.08ZM25.2043 38V30.95H25.8143V33.99C25.981 33.6833 26.211 33.4533 26.5043 33.3C26.8043 33.14 27.1343 33.06 27.4943 33.06C28.6476 33.06 29.2243 33.6867 29.2243 34.94V38H28.6143V34.99C28.6143 34.51 28.5176 34.1567 28.3243 33.93C28.131 33.7033 27.8243 33.59 27.4043 33.59C26.9243 33.59 26.5376 33.74 26.2443 34.04C25.9576 34.3333 25.8143 34.73 25.8143 35.23V38H25.2043Z" fill="black"/>
<defs>
<clipPath id="clip0_1863_18293">
<rect width="24" height="24" fill="white" transform="translate(3)"/>
</clipPath>
</defs>
</svg>
