<svg width="30" height="39" viewBox="0 0 30 39" fill="none" xmlns="http://www.w3.org/2000/svg">
<path d="M5.43227 32.08C4.75893 32.08 4.18227 31.9367 3.70227 31.65C3.22227 31.3567 2.85227 30.94 2.59227 30.4C2.33893 29.86 2.21227 29.2167 2.21227 28.47C2.21227 27.73 2.33893 27.09 2.59227 26.55C2.85227 26.01 3.22227 25.5967 3.70227 25.31C4.18227 25.0167 4.75893 24.87 5.43227 24.87C5.91893 24.87 6.3656 24.95 6.77227 25.11C7.1856 25.2633 7.5356 25.49 7.82227 25.79L7.55227 26.3C7.23893 25.9933 6.91227 25.7733 6.57227 25.64C6.23893 25.5067 5.86227 25.44 5.44227 25.44C4.6156 25.44 3.97893 25.7067 3.53227 26.24C3.09227 26.7667 2.87227 27.51 2.87227 28.47C2.87227 29.4367 3.09227 30.1867 3.53227 30.72C3.97893 31.2467 4.6156 31.51 5.44227 31.51C5.86227 31.51 6.23893 31.4433 6.57227 31.31C6.91227 31.1767 7.23893 30.9567 7.55227 30.65L7.82227 31.16C7.5356 31.46 7.1856 31.69 6.77227 31.85C6.3656 32.0033 5.91893 32.08 5.43227 32.08ZM10.4152 32.08C10.0886 32.08 9.79523 32.0167 9.53523 31.89C9.2819 31.7633 9.07857 31.59 8.92523 31.37C8.77857 31.15 8.70523 30.9033 8.70523 30.63C8.70523 30.27 8.79523 29.99 8.97523 29.79C9.15523 29.5833 9.45857 29.4367 9.88523 29.35C10.3119 29.2633 10.8986 29.22 11.6452 29.22H11.9552V28.86C11.9552 28.4133 11.8652 28.09 11.6852 27.89C11.5052 27.6833 11.2186 27.58 10.8252 27.58C10.5319 27.58 10.2486 27.6233 9.97523 27.71C9.70857 27.7967 9.4319 27.9333 9.14523 28.12L8.90523 27.65C9.15857 27.47 9.45857 27.3267 9.80523 27.22C10.1519 27.1133 10.4886 27.06 10.8152 27.06C11.4019 27.06 11.8352 27.21 12.1152 27.51C12.4019 27.81 12.5452 28.27 12.5452 28.89V32H11.9652V31.13C11.8319 31.43 11.6286 31.6633 11.3552 31.83C11.0886 31.9967 10.7752 32.08 10.4152 32.08ZM10.4952 31.59C10.7819 31.59 11.0319 31.5233 11.2452 31.39C11.4652 31.25 11.6386 31.06 11.7652 30.82C11.8919 30.58 11.9552 30.3067 11.9552 30V29.67H11.6552C11.0552 29.67 10.5852 29.6967 10.2452 29.75C9.9119 29.8033 9.67857 29.8967 9.54523 30.03C9.4119 30.1633 9.34523 30.3467 9.34523 30.58C9.34523 30.88 9.44857 31.1233 9.65523 31.31C9.8619 31.4967 10.1419 31.59 10.4952 31.59ZM14.1398 32V27.15H14.7398V28.02C14.8998 27.7 15.1298 27.46 15.4298 27.3C15.7298 27.14 16.0632 27.06 16.4298 27.06C17.5832 27.06 18.1598 27.6867 18.1598 28.94V32H17.5498V28.99C17.5498 28.51 17.4532 28.1567 17.2598 27.93C17.0665 27.7033 16.7598 27.59 16.3398 27.59C15.8598 27.59 15.4732 27.74 15.1798 28.04C14.8932 28.3333 14.7498 28.73 14.7498 29.23V32H14.1398ZM21.6655 32.08C21.2122 32.08 20.8189 31.98 20.4855 31.78C20.1522 31.5733 19.8922 31.2833 19.7055 30.91C19.5255 30.53 19.4355 30.0833 19.4355 29.57C19.4355 29.0633 19.5255 28.6233 19.7055 28.25C19.8922 27.87 20.1522 27.5767 20.4855 27.37C20.8189 27.1633 21.2122 27.06 21.6655 27.06C22.1255 27.06 22.5222 27.1633 22.8555 27.37C23.1889 27.5767 23.4455 27.87 23.6255 28.25C23.8122 28.6233 23.9055 29.0633 23.9055 29.57C23.9055 30.0833 23.8122 30.53 23.6255 30.91C23.4455 31.2833 23.1889 31.5733 22.8555 31.78C22.5222 31.98 22.1255 32.08 21.6655 32.08ZM21.6655 31.57C22.1589 31.57 22.5522 31.3967 22.8455 31.05C23.1389 30.6967 23.2855 30.2033 23.2855 29.57C23.2855 28.9367 23.1389 28.4467 22.8455 28.1C22.5522 27.7533 22.1589 27.58 21.6655 27.58C21.1722 27.58 20.7789 27.7533 20.4855 28.1C20.1989 28.4467 20.0555 28.9367 20.0555 29.57C20.0555 30.2033 20.1989 30.6967 20.4855 31.05C20.7789 31.3967 21.1722 31.57 21.6655 31.57ZM25.2043 32V27.15H25.8043V28.02C25.9643 27.7 26.1943 27.46 26.4943 27.3C26.7943 27.14 27.1276 27.06 27.4943 27.06C28.6476 27.06 29.2243 27.6867 29.2243 28.94V32H28.6143V28.99C28.6143 28.51 28.5176 28.1567 28.3243 27.93C28.131 27.7033 27.8243 27.59 27.4043 27.59C26.9243 27.59 26.5376 27.74 26.2443 28.04C25.9576 28.3333 25.8143 28.73 25.8143 29.23V32H25.2043Z" fill="black"/>
<path d="M14 1L14 10" stroke="black" stroke-width="1.1" stroke-linecap="round"/>
<path d="M14 13L14 22" stroke="black" stroke-width="1.1" stroke-linecap="round"/>
</svg>
