<svg width="70" height="45" viewBox="0 0 70 45" fill="none" xmlns="http://www.w3.org/2000/svg">
<path d="M4.69984 38.08C4.02651 38.08 3.44984 37.9367 2.96984 37.65C2.48984 37.3567 2.11984 36.94 1.85984 36.4C1.60651 35.86 1.47984 35.2167 1.47984 34.47C1.47984 33.73 1.60651 33.09 1.85984 32.55C2.11984 32.01 2.48984 31.5967 2.96984 31.31C3.44984 31.0167 4.02651 30.87 4.69984 30.87C5.18651 30.87 5.63318 30.95 6.03984 31.11C6.45318 31.2633 6.80318 31.49 7.08984 31.79L6.81984 32.3C6.50651 31.9933 6.17984 31.7733 5.83984 31.64C5.50651 31.5067 5.12984 31.44 4.70984 31.44C3.88318 31.44 3.24651 31.7067 2.79984 32.24C2.35984 32.7667 2.13984 33.51 2.13984 34.47C2.13984 35.4367 2.35984 36.1867 2.79984 36.72C3.24651 37.2467 3.88318 37.51 4.70984 37.51C5.12984 37.51 5.50651 37.4433 5.83984 37.31C6.17984 37.1767 6.50651 36.9567 6.81984 36.65L7.08984 37.16C6.80318 37.46 6.45318 37.69 6.03984 37.85C5.63318 38.0033 5.18651 38.08 4.69984 38.08ZM10.0975 38.08C9.35083 38.08 8.76083 37.86 8.3275 37.42C7.90083 36.9733 7.6875 36.3633 7.6875 35.59C7.6875 35.09 7.78417 34.65 7.9775 34.27C8.17083 33.89 8.4375 33.5933 8.7775 33.38C9.12417 33.1667 9.52083 33.06 9.9675 33.06C10.6142 33.06 11.1175 33.27 11.4775 33.69C11.8375 34.11 12.0175 34.6867 12.0175 35.42V35.7H8.2875C8.3075 36.3 8.47083 36.7633 8.7775 37.09C9.09083 37.41 9.52417 37.57 10.0775 37.57C10.3775 37.57 10.6575 37.5233 10.9175 37.43C11.1842 37.3367 11.4442 37.18 11.6975 36.96L11.9375 37.42C11.7242 37.6267 11.4508 37.79 11.1175 37.91C10.7842 38.0233 10.4442 38.08 10.0975 38.08ZM9.9775 33.55C9.47083 33.55 9.07417 33.71 8.7875 34.03C8.5075 34.3433 8.34417 34.75 8.2975 35.25H11.4675C11.4542 34.7167 11.3208 34.3 11.0675 34C10.8142 33.7 10.4508 33.55 9.9775 33.55ZM13.2609 38V33.15H13.8609V34.02C14.0209 33.7 14.2509 33.46 14.5509 33.3C14.8509 33.14 15.1843 33.06 15.5509 33.06C16.7043 33.06 17.2809 33.6867 17.2809 34.94V38H16.6709V34.99C16.6709 34.51 16.5743 34.1567 16.3809 33.93C16.1876 33.7033 15.8809 33.59 15.4609 33.59C14.9809 33.59 14.5943 33.74 14.3009 34.04C14.0143 34.3333 13.8709 34.73 13.8709 35.23V38H13.2609ZM20.6866 38.08C20.1466 38.08 19.74 37.9333 19.4666 37.64C19.2 37.3467 19.0666 36.9267 19.0666 36.38V33.64H18.1066V33.15H19.0666V31.65H19.6766V33.15H21.2466V33.64H19.6766V36.3C19.6766 36.7067 19.76 37.0167 19.9266 37.23C20.0933 37.4433 20.37 37.55 20.7566 37.55C20.87 37.55 20.98 37.5367 21.0866 37.51C21.1933 37.4833 21.2866 37.4533 21.3666 37.42L21.4866 37.9C21.4133 37.9467 21.2966 37.9867 21.1366 38.02C20.9766 38.06 20.8266 38.08 20.6866 38.08ZM24.2674 38.08C23.5208 38.08 22.9308 37.86 22.4974 37.42C22.0708 36.9733 21.8574 36.3633 21.8574 35.59C21.8574 35.09 21.9541 34.65 22.1474 34.27C22.3408 33.89 22.6074 33.5933 22.9474 33.38C23.2941 33.1667 23.6908 33.06 24.1374 33.06C24.7841 33.06 25.2874 33.27 25.6474 33.69C26.0074 34.11 26.1874 34.6867 26.1874 35.42V35.7H22.4574C22.4774 36.3 22.6408 36.7633 22.9474 37.09C23.2608 37.41 23.6941 37.57 24.2474 37.57C24.5474 37.57 24.8274 37.5233 25.0874 37.43C25.3541 37.3367 25.6141 37.18 25.8674 36.96L26.1074 37.42C25.8941 37.6267 25.6208 37.79 25.2874 37.91C24.9541 38.0233 24.6141 38.08 24.2674 38.08ZM24.1474 33.55C23.6408 33.55 23.2441 33.71 22.9574 34.03C22.6774 34.3433 22.5141 34.75 22.4674 35.25H25.6374C25.6241 34.7167 25.4908 34.3 25.2374 34C24.9841 33.7 24.6208 33.55 24.1474 33.55ZM27.4309 38V33.15H28.0309V34.03C28.1709 33.7233 28.3742 33.49 28.6409 33.33C28.9075 33.17 29.2475 33.0767 29.6609 33.05L29.9109 33.03L29.9709 33.56L29.5409 33.61C29.0675 33.65 28.7009 33.8067 28.4409 34.08C28.1809 34.3467 28.0509 34.7067 28.0509 35.16V38H27.4309ZM35.2886 38.08C34.8353 38.08 34.4419 37.98 34.1086 37.78C33.7753 37.5733 33.5153 37.2833 33.3286 36.91C33.1486 36.53 33.0586 36.0833 33.0586 35.57C33.0586 35.0633 33.1486 34.6233 33.3286 34.25C33.5153 33.87 33.7753 33.5767 34.1086 33.37C34.4419 33.1633 34.8353 33.06 35.2886 33.06C35.7486 33.06 36.1453 33.1633 36.4786 33.37C36.8119 33.5767 37.0686 33.87 37.2486 34.25C37.4353 34.6233 37.5286 35.0633 37.5286 35.57C37.5286 36.0833 37.4353 36.53 37.2486 36.91C37.0686 37.2833 36.8119 37.5733 36.4786 37.78C36.1453 37.98 35.7486 38.08 35.2886 38.08ZM35.2886 37.57C35.7819 37.57 36.1753 37.3967 36.4686 37.05C36.7619 36.6967 36.9086 36.2033 36.9086 35.57C36.9086 34.9367 36.7619 34.4467 36.4686 34.1C36.1753 33.7533 35.7819 33.58 35.2886 33.58C34.7953 33.58 34.4019 33.7533 34.1086 34.1C33.8219 34.4467 33.6786 34.9367 33.6786 35.57C33.6786 36.2033 33.8219 36.6967 34.1086 37.05C34.4019 37.3967 34.7953 37.57 35.2886 37.57ZM39.0085 38V33.64H38.0485V33.15H39.0085V32.91C39.0085 31.6767 39.6318 31.0233 40.8785 30.95L41.2285 30.92L41.2785 31.42L40.8185 31.45C40.4052 31.4767 40.1018 31.6067 39.9085 31.84C39.7152 32.0733 39.6185 32.4133 39.6185 32.86V33.15H41.0485V33.64H39.6185V38H39.0085ZM44.6016 38V30.95H45.2116V37.45H48.8916V38H44.6016ZM51.8944 38.08C51.1477 38.08 50.5577 37.86 50.1244 37.42C49.6977 36.9733 49.4844 36.3633 49.4844 35.59C49.4844 35.09 49.581 34.65 49.7744 34.27C49.9677 33.89 50.2344 33.5933 50.5744 33.38C50.921 33.1667 51.3177 33.06 51.7644 33.06C52.411 33.06 52.9144 33.27 53.2744 33.69C53.6344 34.11 53.8144 34.6867 53.8144 35.42V35.7H50.0844C50.1044 36.3 50.2677 36.7633 50.5744 37.09C50.8877 37.41 51.321 37.57 51.8744 37.57C52.1744 37.57 52.4544 37.5233 52.7144 37.43C52.981 37.3367 53.241 37.18 53.4944 36.96L53.7344 37.42C53.521 37.6267 53.2477 37.79 52.9144 37.91C52.581 38.0233 52.241 38.08 51.8944 38.08ZM51.7744 33.55C51.2677 33.55 50.871 33.71 50.5844 34.03C50.3044 34.3433 50.141 34.75 50.0944 35.25H53.2644C53.251 34.7167 53.1177 34.3 52.8644 34C52.611 33.7 52.2477 33.55 51.7744 33.55ZM56.4392 38L54.3592 33.15H55.0392L56.7492 37.33L58.4892 33.15H59.1292L57.0492 38H56.4392ZM59.9871 31.87V31.1H60.8071V31.87H59.9871ZM60.0871 38V33.15H60.6971V38H60.0871ZM64.1339 38.08C63.5939 38.08 63.1872 37.9333 62.9139 37.64C62.6472 37.3467 62.5139 36.9267 62.5139 36.38V33.64H61.5539V33.15H62.5139V31.65H63.1239V33.15H64.6939V33.64H63.1239V36.3C63.1239 36.7067 63.2072 37.0167 63.3739 37.23C63.5406 37.4433 63.8172 37.55 64.2039 37.55C64.3172 37.55 64.4272 37.5367 64.5339 37.51C64.6406 37.4833 64.7339 37.4533 64.8139 37.42L64.9339 37.9C64.8606 37.9467 64.7439 37.9867 64.5839 38.02C64.4239 38.06 64.2739 38.08 64.1339 38.08ZM66.3321 39.8L67.1321 37.98L65.0721 33.15H65.7521L67.4621 37.33L69.1921 33.15H69.8521L66.9921 39.8H66.3321Z" fill="black"/>
<circle cx="35" cy="12" r="4" stroke="black" stroke-width="1.1"/>
<rect x="26" y="3" width="18" height="18" rx="0.5" stroke="black" stroke-width="1.1"/>
</svg>
