<svg width="75" height="45" viewBox="0 0 75 45" fill="none" xmlns="http://www.w3.org/2000/svg">
<path d="M4.4557 38.08C3.78237 38.08 3.2057 37.9367 2.7257 37.65C2.2457 37.3567 1.8757 36.94 1.6157 36.4C1.36237 35.86 1.2357 35.2167 1.2357 34.47C1.2357 33.73 1.36237 33.09 1.6157 32.55C1.8757 32.01 2.2457 31.5967 2.7257 31.31C3.2057 31.0167 3.78237 30.87 4.4557 30.87C4.94237 30.87 5.38904 30.95 5.7957 31.11C6.20904 31.2633 6.55904 31.49 6.8457 31.79L6.5757 32.3C6.26237 31.9933 5.9357 31.7733 5.5957 31.64C5.26237 31.5067 4.8857 31.44 4.4657 31.44C3.63904 31.44 3.00237 31.7067 2.5557 32.24C2.1157 32.7667 1.8957 33.51 1.8957 34.47C1.8957 35.4367 2.1157 36.1867 2.5557 36.72C3.00237 37.2467 3.63904 37.51 4.4657 37.51C4.8857 37.51 5.26237 37.4433 5.5957 37.31C5.9357 37.1767 6.26237 36.9567 6.5757 36.65L6.8457 37.16C6.55904 37.46 6.20904 37.69 5.7957 37.85C5.38904 38.0033 4.94237 38.08 4.4557 38.08ZM9.85336 38.08C9.10669 38.08 8.51669 37.86 8.08336 37.42C7.65669 36.9733 7.44336 36.3633 7.44336 35.59C7.44336 35.09 7.54003 34.65 7.73336 34.27C7.92669 33.89 8.19336 33.5933 8.53336 33.38C8.88003 33.1667 9.27669 33.06 9.72336 33.06C10.37 33.06 10.8734 33.27 11.2334 33.69C11.5934 34.11 11.7734 34.6867 11.7734 35.42V35.7H8.04336C8.06336 36.3 8.22669 36.7633 8.53336 37.09C8.84669 37.41 9.28003 37.57 9.83336 37.57C10.1334 37.57 10.4134 37.5233 10.6734 37.43C10.94 37.3367 11.2 37.18 11.4534 36.96L11.6934 37.42C11.48 37.6267 11.2067 37.79 10.8734 37.91C10.54 38.0233 10.2 38.08 9.85336 38.08ZM9.73336 33.55C9.22669 33.55 8.83003 33.71 8.54336 34.03C8.26336 34.3433 8.10003 34.75 8.05336 35.25H11.2234C11.21 34.7167 11.0767 34.3 10.8234 34C10.57 33.7 10.2067 33.55 9.73336 33.55ZM13.0168 38V33.15H13.6168V34.02C13.7768 33.7 14.0068 33.46 14.3068 33.3C14.6068 33.14 14.9401 33.06 15.3068 33.06C16.4601 33.06 17.0368 33.6867 17.0368 34.94V38H16.4268V34.99C16.4268 34.51 16.3301 34.1567 16.1368 33.93C15.9435 33.7033 15.6368 33.59 15.2168 33.59C14.7368 33.59 14.3501 33.74 14.0568 34.04C13.7701 34.3333 13.6268 34.73 13.6268 35.23V38H13.0168ZM20.4425 38.08C19.9025 38.08 19.4958 37.9333 19.2225 37.64C18.9558 37.3467 18.8225 36.9267 18.8225 36.38V33.64H17.8625V33.15H18.8225V31.65H19.4325V33.15H21.0025V33.64H19.4325V36.3C19.4325 36.7067 19.5158 37.0167 19.6825 37.23C19.8492 37.4433 20.1258 37.55 20.5125 37.55C20.6258 37.55 20.7358 37.5367 20.8425 37.51C20.9492 37.4833 21.0425 37.4533 21.1225 37.42L21.2425 37.9C21.1692 37.9467 21.0525 37.9867 20.8925 38.02C20.7325 38.06 20.5825 38.08 20.4425 38.08ZM24.0233 38.08C23.2766 38.08 22.6866 37.86 22.2533 37.42C21.8266 36.9733 21.6133 36.3633 21.6133 35.59C21.6133 35.09 21.7099 34.65 21.9033 34.27C22.0966 33.89 22.3633 33.5933 22.7033 33.38C23.0499 33.1667 23.4466 33.06 23.8933 33.06C24.5399 33.06 25.0433 33.27 25.4033 33.69C25.7633 34.11 25.9433 34.6867 25.9433 35.42V35.7H22.2133C22.2333 36.3 22.3966 36.7633 22.7033 37.09C23.0166 37.41 23.4499 37.57 24.0033 37.57C24.3033 37.57 24.5833 37.5233 24.8433 37.43C25.1099 37.3367 25.3699 37.18 25.6233 36.96L25.8633 37.42C25.6499 37.6267 25.3766 37.79 25.0433 37.91C24.7099 38.0233 24.3699 38.08 24.0233 38.08ZM23.9033 33.55C23.3966 33.55 22.9999 33.71 22.7133 34.03C22.4333 34.3433 22.2699 34.75 22.2233 35.25H25.3933C25.3799 34.7167 25.2466 34.3 24.9933 34C24.7399 33.7 24.3766 33.55 23.9033 33.55ZM27.1867 38V33.15H27.7867V34.03C27.9267 33.7233 28.1301 33.49 28.3967 33.33C28.6634 33.17 29.0034 33.0767 29.4167 33.05L29.6667 33.03L29.7267 33.56L29.2967 33.61C28.8234 33.65 28.4567 33.8067 28.1967 34.08C27.9367 34.3467 27.8067 34.7067 27.8067 35.16V38H27.1867ZM35.0445 38.08C34.5911 38.08 34.1978 37.98 33.8645 37.78C33.5311 37.5733 33.2711 37.2833 33.0845 36.91C32.9045 36.53 32.8145 36.0833 32.8145 35.57C32.8145 35.0633 32.9045 34.6233 33.0845 34.25C33.2711 33.87 33.5311 33.5767 33.8645 33.37C34.1978 33.1633 34.5911 33.06 35.0445 33.06C35.5045 33.06 35.9011 33.1633 36.2345 33.37C36.5678 33.5767 36.8245 33.87 37.0045 34.25C37.1911 34.6233 37.2845 35.0633 37.2845 35.57C37.2845 36.0833 37.1911 36.53 37.0045 36.91C36.8245 37.2833 36.5678 37.5733 36.2345 37.78C35.9011 37.98 35.5045 38.08 35.0445 38.08ZM35.0445 37.57C35.5378 37.57 35.9311 37.3967 36.2245 37.05C36.5178 36.6967 36.6645 36.2033 36.6645 35.57C36.6645 34.9367 36.5178 34.4467 36.2245 34.1C35.9311 33.7533 35.5378 33.58 35.0445 33.58C34.5511 33.58 34.1578 33.7533 33.8645 34.1C33.5778 34.4467 33.4345 34.9367 33.4345 35.57C33.4345 36.2033 33.5778 36.6967 33.8645 37.05C34.1578 37.3967 34.5511 37.57 35.0445 37.57ZM38.7644 38V33.64H37.8044V33.15H38.7644V32.91C38.7644 31.6767 39.3877 31.0233 40.6344 30.95L40.9844 30.92L41.0344 31.42L40.5744 31.45C40.161 31.4767 39.8577 31.6067 39.6644 31.84C39.471 32.0733 39.3744 32.4133 39.3744 32.86V33.15H40.8044V33.64H39.3744V38H38.7644ZM47.4875 38.08C46.3742 38.08 45.5275 37.7633 44.9475 37.13C44.3675 36.4967 44.0775 35.61 44.0775 34.47C44.0775 33.73 44.2042 33.09 44.4575 32.55C44.7175 32.01 45.0875 31.5967 45.5675 31.31C46.0542 31.0167 46.6408 30.87 47.3275 30.87C48.3475 30.87 49.1608 31.1733 49.7675 31.78L49.4975 32.28C49.1708 31.98 48.8342 31.7667 48.4875 31.64C48.1408 31.5067 47.7508 31.44 47.3175 31.44C46.4842 31.44 45.8442 31.7067 45.3975 32.24C44.9508 32.7667 44.7275 33.51 44.7275 34.47C44.7275 35.4633 44.9575 36.22 45.4175 36.74C45.8842 37.26 46.5775 37.52 47.4975 37.52C48.1242 37.52 48.7075 37.4133 49.2475 37.2V34.91H47.3775V34.39H49.7975V37.6C49.6242 37.6933 49.4075 37.7767 49.1475 37.85C48.8942 37.9233 48.6208 37.98 48.3275 38.02C48.0408 38.06 47.7608 38.08 47.4875 38.08ZM51.4543 38V33.15H52.0543V34.03C52.1943 33.7233 52.3976 33.49 52.6643 33.33C52.931 33.17 53.271 33.0767 53.6843 33.05L53.9343 33.03L53.9943 33.56L53.5643 33.61C53.091 33.65 52.7243 33.8067 52.4643 34.08C52.2043 34.3467 52.0743 34.7067 52.0743 35.16V38H51.4543ZM56.3234 38.08C55.9968 38.08 55.7034 38.0167 55.4434 37.89C55.1901 37.7633 54.9868 37.59 54.8334 37.37C54.6868 37.15 54.6134 36.9033 54.6134 36.63C54.6134 36.27 54.7034 35.99 54.8834 35.79C55.0634 35.5833 55.3668 35.4367 55.7934 35.35C56.2201 35.2633 56.8068 35.22 57.5534 35.22H57.8634V34.86C57.8634 34.4133 57.7734 34.09 57.5934 33.89C57.4134 33.6833 57.1268 33.58 56.7334 33.58C56.4401 33.58 56.1568 33.6233 55.8834 33.71C55.6168 33.7967 55.3401 33.9333 55.0534 34.12L54.8134 33.65C55.0668 33.47 55.3668 33.3267 55.7134 33.22C56.0601 33.1133 56.3968 33.06 56.7234 33.06C57.3101 33.06 57.7434 33.21 58.0234 33.51C58.3101 33.81 58.4534 34.27 58.4534 34.89V38H57.8734V37.13C57.7401 37.43 57.5368 37.6633 57.2634 37.83C56.9968 37.9967 56.6834 38.08 56.3234 38.08ZM56.4034 37.59C56.6901 37.59 56.9401 37.5233 57.1534 37.39C57.3734 37.25 57.5468 37.06 57.6734 36.82C57.8001 36.58 57.8634 36.3067 57.8634 36V35.67H57.5634C56.9634 35.67 56.4934 35.6967 56.1534 35.75C55.8201 35.8033 55.5868 35.8967 55.4534 36.03C55.3201 36.1633 55.2534 36.3467 55.2534 36.58C55.2534 36.88 55.3568 37.1233 55.5634 37.31C55.7701 37.4967 56.0501 37.59 56.4034 37.59ZM61.4392 38L59.3592 33.15H60.0392L61.7492 37.33L63.4892 33.15H64.1292L62.0492 38H61.4392ZM64.9871 31.87V31.1H65.8071V31.87H64.9871ZM65.0871 38V33.15H65.6971V38H65.0871ZM69.1339 38.08C68.5939 38.08 68.1872 37.9333 67.9139 37.64C67.6472 37.3467 67.5139 36.9267 67.5139 36.38V33.64H66.5539V33.15H67.5139V31.65H68.1239V33.15H69.6939V33.64H68.1239V36.3C68.1239 36.7067 68.2072 37.0167 68.3739 37.23C68.5406 37.4433 68.8172 37.55 69.2039 37.55C69.3172 37.55 69.4272 37.5367 69.5339 37.51C69.6406 37.4833 69.7339 37.4533 69.8139 37.42L69.9339 37.9C69.8606 37.9467 69.7439 37.9867 69.5839 38.02C69.4239 38.06 69.2739 38.08 69.1339 38.08ZM71.3321 39.8L72.1321 37.98L70.0721 33.15H70.7521L72.4621 37.33L74.1921 33.15H74.8521L71.9921 39.8H71.3321Z" fill="black"/>
<circle cx="37" cy="12" r="4" fill="black" stroke="black" stroke-width="1.1"/>
<rect x="28" y="3" width="18" height="18" rx="0.5" stroke="black" stroke-width="1.1"/>
</svg>
