<svg width="55" height="59" viewBox="0 0 55 59" fill="none" xmlns="http://www.w3.org/2000/svg">
<path d="M4.49477 52.08C3.82143 52.08 3.24477 51.9367 2.76477 51.65C2.28477 51.3567 1.91477 50.94 1.65477 50.4C1.40143 49.86 1.27477 49.2167 1.27477 48.47C1.27477 47.73 1.40143 47.09 1.65477 46.55C1.91477 46.01 2.28477 45.5967 2.76477 45.31C3.24477 45.0167 3.82143 44.87 4.49477 44.87C4.98143 44.87 5.4281 44.95 5.83477 45.11C6.2481 45.2633 6.5981 45.49 6.88477 45.79L6.61477 46.3C6.30143 45.9933 5.97477 45.7733 5.63477 45.64C5.30143 45.5067 4.92477 45.44 4.50477 45.44C3.6781 45.44 3.04143 45.7067 2.59477 46.24C2.15477 46.7667 1.93477 47.51 1.93477 48.47C1.93477 49.4367 2.15477 50.1867 2.59477 50.72C3.04143 51.2467 3.6781 51.51 4.50477 51.51C4.92477 51.51 5.30143 51.4433 5.63477 51.31C5.97477 51.1767 6.30143 50.9567 6.61477 50.65L6.88477 51.16C6.5981 51.46 6.2481 51.69 5.83477 51.85C5.4281 52.0033 4.98143 52.08 4.49477 52.08ZM10.9091 52.08C10.2625 52.08 9.70247 51.9333 9.22914 51.64C8.76247 51.3467 8.39914 50.93 8.13914 50.39C7.88581 49.85 7.75914 49.21 7.75914 48.47C7.75914 47.73 7.88581 47.09 8.13914 46.55C8.39247 46.01 8.75581 45.5967 9.22914 45.31C9.70247 45.0167 10.2625 44.87 10.9091 44.87C11.5625 44.87 12.1225 45.0167 12.5891 45.31C13.0625 45.5967 13.4258 46.01 13.6791 46.55C13.9391 47.0833 14.0691 47.72 14.0691 48.46C14.0691 49.2067 13.9391 49.85 13.6791 50.39C13.4258 50.93 13.0625 51.3467 12.5891 51.64C12.1158 51.9333 11.5558 52.08 10.9091 52.08ZM10.9091 51.52C11.7025 51.52 12.3191 51.2533 12.7591 50.72C13.1991 50.1867 13.4191 49.4367 13.4191 48.47C13.4191 47.5033 13.1991 46.7567 12.7591 46.23C12.3258 45.6967 11.7091 45.43 10.9091 45.43C10.1158 45.43 9.49914 45.6967 9.05914 46.23C8.62581 46.7633 8.40914 47.51 8.40914 48.47C8.40914 49.43 8.62581 50.18 9.05914 50.72C9.49914 51.2533 10.1158 51.52 10.9091 51.52ZM17.827 52.08C17.2804 52.08 16.787 52.01 16.347 51.87C15.9137 51.7233 15.537 51.51 15.217 51.23L15.457 50.72C15.8037 50.9933 16.157 51.1967 16.517 51.33C16.8837 51.4567 17.3204 51.52 17.827 51.52C18.4604 51.52 18.9337 51.3967 19.247 51.15C19.567 50.9033 19.727 50.58 19.727 50.18C19.727 49.8467 19.6104 49.5867 19.377 49.4C19.1504 49.2133 18.7737 49.0667 18.247 48.96L17.237 48.75C16.6104 48.6233 16.1404 48.41 15.827 48.11C15.5204 47.81 15.367 47.41 15.367 46.91C15.367 46.5033 15.4704 46.1467 15.677 45.84C15.8904 45.5333 16.1837 45.2967 16.557 45.13C16.9304 44.9567 17.3604 44.87 17.847 44.87C18.8204 44.87 19.597 45.1633 20.177 45.75L19.937 46.25C19.6304 45.9633 19.3104 45.7567 18.977 45.63C18.6437 45.4967 18.267 45.43 17.847 45.43C17.287 45.43 16.837 45.5633 16.497 45.83C16.1637 46.0967 15.997 46.4533 15.997 46.9C15.997 47.2533 16.1037 47.5333 16.317 47.74C16.5304 47.94 16.8737 48.0867 17.347 48.18L18.367 48.39C19.0404 48.53 19.5404 48.74 19.867 49.02C20.1937 49.2933 20.357 49.67 20.357 50.15C20.357 50.53 20.2537 50.8667 20.047 51.16C19.847 51.4467 19.557 51.6733 19.177 51.84C18.797 52 18.347 52.08 17.827 52.08ZM25.461 53.91C25.0743 53.17 24.7877 52.4267 24.601 51.68C24.4143 50.9267 24.321 50.1567 24.321 49.37C24.321 48.5833 24.4143 47.8167 24.601 47.07C24.7877 46.3233 25.0743 45.5767 25.461 44.83L25.931 45C25.291 46.4533 24.971 47.91 24.971 49.37C24.971 50.83 25.291 52.2867 25.931 53.74L25.461 53.91ZM28.6593 52.08C28.2993 52.08 27.9526 52.0267 27.6193 51.92C27.2926 51.8133 27.0226 51.66 26.8093 51.46L27.0293 51.01C27.276 51.21 27.5393 51.3567 27.8193 51.45C28.0993 51.5367 28.386 51.58 28.6793 51.58C29.0926 51.58 29.4026 51.5067 29.6093 51.36C29.8226 51.2067 29.9293 50.9967 29.9293 50.73C29.9293 50.5233 29.8593 50.36 29.7193 50.24C29.5793 50.12 29.3593 50.0233 29.0593 49.95L28.1893 49.75C27.3693 49.5633 26.9593 49.14 26.9593 48.48C26.9593 48.0533 27.126 47.71 27.4593 47.45C27.7926 47.19 28.2326 47.06 28.7793 47.06C29.1126 47.06 29.426 47.1167 29.7193 47.23C30.0126 47.3367 30.2526 47.4933 30.4393 47.7L30.1993 48.15C30.006 47.9567 29.786 47.8133 29.5393 47.72C29.2926 47.62 29.036 47.57 28.7693 47.57C28.3826 47.57 28.0826 47.65 27.8693 47.81C27.6626 47.97 27.5593 48.1867 27.5593 48.46C27.5593 48.6667 27.6226 48.8333 27.7493 48.96C27.876 49.0867 28.0826 49.1833 28.3693 49.25L29.2393 49.45C29.6726 49.55 29.996 49.7 30.2093 49.9C30.4226 50.0933 30.5293 50.3567 30.5293 50.69C30.5293 51.1233 30.3593 51.4633 30.0193 51.71C29.6793 51.9567 29.226 52.08 28.6593 52.08ZM33.9647 52.08C33.218 52.08 32.628 51.86 32.1947 51.42C31.768 50.9733 31.5547 50.3633 31.5547 49.59C31.5547 49.09 31.6514 48.65 31.8447 48.27C32.038 47.89 32.3047 47.5933 32.6447 47.38C32.9914 47.1667 33.388 47.06 33.8347 47.06C34.4814 47.06 34.9847 47.27 35.3447 47.69C35.7047 48.11 35.8847 48.6867 35.8847 49.42V49.7H32.1547C32.1747 50.3 32.338 50.7633 32.6447 51.09C32.958 51.41 33.3914 51.57 33.9447 51.57C34.2447 51.57 34.5247 51.5233 34.7847 51.43C35.0514 51.3367 35.3114 51.18 35.5647 50.96L35.8047 51.42C35.5914 51.6267 35.318 51.79 34.9847 51.91C34.6514 52.0233 34.3114 52.08 33.9647 52.08ZM33.8447 47.55C33.338 47.55 32.9414 47.71 32.6547 48.03C32.3747 48.3433 32.2114 48.75 32.1647 49.25H35.3347C35.3214 48.7167 35.188 48.3 34.9347 48C34.6814 47.7 34.318 47.55 33.8447 47.55ZM37.1281 52V47.15H37.7281V48.03C37.8681 47.7233 38.0715 47.49 38.3381 47.33C38.6048 47.17 38.9448 47.0767 39.3581 47.05L39.6081 47.03L39.6681 47.56L39.2381 47.61C38.7648 47.65 38.3981 47.8067 38.1381 48.08C37.8781 48.3467 37.7481 48.7067 37.7481 49.16V52H37.1281ZM40.4461 45.87V45.1H41.2661V45.87H40.4461ZM40.5461 52V47.15H41.1561V52H40.5461ZM44.8729 52.08C44.1262 52.08 43.5362 51.86 43.1029 51.42C42.6762 50.9733 42.4629 50.3633 42.4629 49.59C42.4629 49.09 42.5596 48.65 42.7529 48.27C42.9462 47.89 43.2129 47.5933 43.5529 47.38C43.8996 47.1667 44.2962 47.06 44.7429 47.06C45.3896 47.06 45.8929 47.27 46.2529 47.69C46.6129 48.11 46.7929 48.6867 46.7929 49.42V49.7H43.0629C43.0829 50.3 43.2462 50.7633 43.5529 51.09C43.8662 51.41 44.2996 51.57 44.8529 51.57C45.1529 51.57 45.4329 51.5233 45.6929 51.43C45.9596 51.3367 46.2196 51.18 46.4729 50.96L46.7129 51.42C46.4996 51.6267 46.2262 51.79 45.8929 51.91C45.5596 52.0233 45.2196 52.08 44.8729 52.08ZM44.7529 47.55C44.2462 47.55 43.8496 47.71 43.5629 48.03C43.2829 48.3433 43.1196 48.75 43.0729 49.25H46.2429C46.2296 48.7167 46.0962 48.3 45.8429 48C45.5896 47.7 45.2262 47.55 44.7529 47.55ZM49.6163 52.08C49.2563 52.08 48.9097 52.0267 48.5763 51.92C48.2497 51.8133 47.9797 51.66 47.7663 51.46L47.9863 51.01C48.233 51.21 48.4963 51.3567 48.7763 51.45C49.0563 51.5367 49.343 51.58 49.6363 51.58C50.0497 51.58 50.3597 51.5067 50.5663 51.36C50.7797 51.2067 50.8863 50.9967 50.8863 50.73C50.8863 50.5233 50.8163 50.36 50.6763 50.24C50.5363 50.12 50.3163 50.0233 50.0163 49.95L49.1463 49.75C48.3263 49.5633 47.9163 49.14 47.9163 48.48C47.9163 48.0533 48.083 47.71 48.4163 47.45C48.7497 47.19 49.1897 47.06 49.7363 47.06C50.0697 47.06 50.383 47.1167 50.6763 47.23C50.9697 47.3367 51.2097 47.4933 51.3963 47.7L51.1563 48.15C50.963 47.9567 50.743 47.8133 50.4963 47.72C50.2497 47.62 49.993 47.57 49.7263 47.57C49.3397 47.57 49.0397 47.65 48.8263 47.81C48.6197 47.97 48.5163 48.1867 48.5163 48.46C48.5163 48.6667 48.5797 48.8333 48.7063 48.96C48.833 49.0867 49.0397 49.1833 49.3263 49.25L50.1963 49.45C50.6297 49.55 50.953 49.7 51.1663 49.9C51.3797 50.0933 51.4863 50.3567 51.4863 50.69C51.4863 51.1233 51.3163 51.4633 50.9763 51.71C50.6363 51.9567 50.183 52.08 49.6163 52.08ZM52.8217 53.91L52.3617 53.74C52.9951 52.2667 53.3117 50.81 53.3117 49.37C53.3117 47.93 52.9951 46.4733 52.3617 45L52.8217 44.83C53.2151 45.5767 53.5051 46.3267 53.6917 47.08C53.8784 47.8267 53.9717 48.59 53.9717 49.37C53.9717 50.1567 53.8784 50.9267 53.6917 51.68C53.5051 52.4267 53.2151 53.17 52.8217 53.91Z" fill="black"/>
<path d="M30.0769 27L23.9231 27" stroke="black" stroke-width="1.1" stroke-linecap="round" stroke-linejoin="round"/>
<path d="M23.9231 27L22 30" stroke="black" stroke-width="1.1" stroke-linecap="round" stroke-linejoin="round"/>
<path d="M32 24L30.0769 27" stroke="black" stroke-width="1.1" stroke-linecap="round" stroke-linejoin="round"/>
<path d="M23.9231 15L30.0769 15" stroke="black" stroke-width="1.1" stroke-linecap="round" stroke-linejoin="round"/>
<path d="M30.0769 15L32 18" stroke="black" stroke-width="1.1" stroke-linecap="round" stroke-linejoin="round"/>
<path d="M22 12L23.9231 15" stroke="black" stroke-width="1.1" stroke-linecap="round" stroke-linejoin="round"/>
<path d="M34 17L34 23" stroke="black" stroke-width="1.1" stroke-linecap="round" stroke-linejoin="round"/>
<path d="M34 19L37 21" stroke="black" stroke-width="1.1" stroke-linecap="round" stroke-linejoin="round"/>
<path d="M34 17L37 19" stroke="black" stroke-width="1.1" stroke-linecap="round" stroke-linejoin="round"/>
<path d="M34 21L37 23" stroke="black" stroke-width="1.1" stroke-linecap="round" stroke-linejoin="round"/>
<path d="M34 23L37 25" stroke="black" stroke-width="1.1" stroke-linecap="round" stroke-linejoin="round"/>
<path d="M18.5 3L18.5 11" stroke="black" stroke-width="1.1" stroke-linecap="round" stroke-linejoin="round"/>
<path d="M16 6L21 6" stroke="black" stroke-width="1.1" stroke-linecap="round" stroke-linejoin="round"/>
<path d="M16 8L21 8" stroke="black" stroke-width="1.1" stroke-linecap="round" stroke-linejoin="round"/>
<path d="M20 31L20 39" stroke="black" stroke-width="1.1" stroke-linecap="round" stroke-linejoin="round"/>
<path d="M17 34L20 34" stroke="black" stroke-width="1.1" stroke-linecap="round" stroke-linejoin="round"/>
<path d="M17 36L20 36" stroke="black" stroke-width="1.1" stroke-linecap="round" stroke-linejoin="round"/>
</svg>
