<svg width="45" height="38" viewBox="0 0 45 38" fill="none" xmlns="http://www.w3.org/2000/svg">
<path d="M4.77797 31.08C4.10464 31.08 3.52797 30.9367 3.04797 30.65C2.56797 30.3567 2.19797 29.94 1.93797 29.4C1.68464 28.86 1.55797 28.2167 1.55797 27.47C1.55797 26.73 1.68464 26.09 1.93797 25.55C2.19797 25.01 2.56797 24.5967 3.04797 24.31C3.52797 24.0167 4.10464 23.87 4.77797 23.87C5.26464 23.87 5.7113 23.95 6.11797 24.11C6.5313 24.2633 6.8813 24.49 7.16797 24.79L6.89797 25.3C6.58464 24.9933 6.25797 24.7733 5.91797 24.64C5.58464 24.5067 5.20797 24.44 4.78797 24.44C3.9613 24.44 3.32464 24.7067 2.87797 25.24C2.43797 25.7667 2.21797 26.51 2.21797 27.47C2.21797 28.4367 2.43797 29.1867 2.87797 29.72C3.32464 30.2467 3.9613 30.51 4.78797 30.51C5.20797 30.51 5.58464 30.4433 5.91797 30.31C6.25797 30.1767 6.58464 29.9567 6.89797 29.65L7.16797 30.16C6.8813 30.46 6.5313 30.69 6.11797 30.85C5.7113 31.0033 5.26464 31.08 4.77797 31.08ZM9.99563 31.08C9.54229 31.08 9.14896 30.98 8.81563 30.78C8.48229 30.5733 8.22229 30.2833 8.03563 29.91C7.85563 29.53 7.76563 29.0833 7.76563 28.57C7.76563 28.0633 7.85563 27.6233 8.03563 27.25C8.22229 26.87 8.48229 26.5767 8.81563 26.37C9.14896 26.1633 9.54229 26.06 9.99563 26.06C10.4556 26.06 10.8523 26.1633 11.1856 26.37C11.519 26.5767 11.7756 26.87 11.9556 27.25C12.1423 27.6233 12.2356 28.0633 12.2356 28.57C12.2356 29.0833 12.1423 29.53 11.9556 29.91C11.7756 30.2833 11.519 30.5733 11.1856 30.78C10.8523 30.98 10.4556 31.08 9.99563 31.08ZM9.99563 30.57C10.489 30.57 10.8823 30.3967 11.1756 30.05C11.469 29.6967 11.6156 29.2033 11.6156 28.57C11.6156 27.9367 11.469 27.4467 11.1756 27.1C10.8823 26.7533 10.489 26.58 9.99563 26.58C9.50229 26.58 9.10896 26.7533 8.81563 27.1C8.52896 27.4467 8.38563 27.9367 8.38563 28.57C8.38563 29.2033 8.52896 29.6967 8.81563 30.05C9.10896 30.3967 9.50229 30.57 9.99563 30.57ZM13.5344 31V26.15H14.1344V27.02C14.2944 26.7 14.5244 26.46 14.8244 26.3C15.1244 26.14 15.4577 26.06 15.8244 26.06C16.9777 26.06 17.5544 26.6867 17.5544 27.94V31H16.9444V27.99C16.9444 27.51 16.8477 27.1567 16.6544 26.93C16.461 26.7033 16.1544 26.59 15.7344 26.59C15.2544 26.59 14.8677 26.74 14.5744 27.04C14.2877 27.3333 14.1444 27.73 14.1444 28.23V31H13.5344ZM20.9801 31.08C20.5401 31.08 20.1601 30.98 19.8401 30.78C19.5201 30.5733 19.2701 30.2833 19.0901 29.91C18.9167 29.53 18.8301 29.0833 18.8301 28.57C18.8301 27.8033 19.0234 27.1933 19.4101 26.74C19.7967 26.2867 20.3201 26.06 20.9801 26.06C21.3667 26.06 21.7067 26.15 22.0001 26.33C22.3001 26.5033 22.5234 26.7433 22.6701 27.05V23.95H23.2801V31H22.6801V30.08C22.5334 30.3933 22.3101 30.64 22.0101 30.82C21.7167 30.9933 21.3734 31.08 20.9801 31.08ZM21.0601 30.57C21.5534 30.57 21.9467 30.3967 22.2401 30.05C22.5334 29.6967 22.6801 29.2033 22.6801 28.57C22.6801 27.9367 22.5334 27.4467 22.2401 27.1C21.9467 26.7533 21.5534 26.58 21.0601 26.58C20.5667 26.58 20.1734 26.7533 19.8801 27.1C19.5934 27.4467 19.4501 27.9367 19.4501 28.57C19.4501 29.2033 19.5934 29.6967 19.8801 30.05C20.1734 30.3967 20.5667 30.57 21.0601 30.57ZM26.992 31.08C26.2454 31.08 25.6554 30.86 25.222 30.42C24.7954 29.9733 24.582 29.3633 24.582 28.59C24.582 28.09 24.6787 27.65 24.872 27.27C25.0654 26.89 25.332 26.5933 25.672 26.38C26.0187 26.1667 26.4154 26.06 26.862 26.06C27.5087 26.06 28.012 26.27 28.372 26.69C28.732 27.11 28.912 27.6867 28.912 28.42V28.7H25.182C25.202 29.3 25.3654 29.7633 25.672 30.09C25.9854 30.41 26.4187 30.57 26.972 30.57C27.272 30.57 27.552 30.5233 27.812 30.43C28.0787 30.3367 28.3387 30.18 28.592 29.96L28.832 30.42C28.6187 30.6267 28.3454 30.79 28.012 30.91C27.6787 31.0233 27.3387 31.08 26.992 31.08ZM26.872 26.55C26.3654 26.55 25.9687 26.71 25.682 27.03C25.402 27.3433 25.2387 27.75 25.192 28.25H28.362C28.3487 27.7167 28.2154 27.3 27.962 27C27.7087 26.7 27.3454 26.55 26.872 26.55ZM30.1555 31V26.15H30.7555V27.02C30.9155 26.7 31.1455 26.46 31.4455 26.3C31.7455 26.14 32.0788 26.06 32.4455 26.06C33.5988 26.06 34.1755 26.6867 34.1755 27.94V31H33.5655V27.99C33.5655 27.51 33.4688 27.1567 33.2755 26.93C33.0821 26.7033 32.7755 26.59 32.3555 26.59C31.8755 26.59 31.4888 26.74 31.1955 27.04C30.9088 27.3333 30.7655 27.73 30.7655 28.23V31H30.1555ZM37.3312 31.08C36.9712 31.08 36.6245 31.0267 36.2912 30.92C35.9645 30.8133 35.6945 30.66 35.4812 30.46L35.7012 30.01C35.9478 30.21 36.2112 30.3567 36.4912 30.45C36.7712 30.5367 37.0578 30.58 37.3512 30.58C37.7645 30.58 38.0745 30.5067 38.2812 30.36C38.4945 30.2067 38.6012 29.9967 38.6012 29.73C38.6012 29.5233 38.5312 29.36 38.3912 29.24C38.2512 29.12 38.0312 29.0233 37.7312 28.95L36.8612 28.75C36.0412 28.5633 35.6312 28.14 35.6312 27.48C35.6312 27.0533 35.7978 26.71 36.1312 26.45C36.4645 26.19 36.9045 26.06 37.4512 26.06C37.7845 26.06 38.0978 26.1167 38.3912 26.23C38.6845 26.3367 38.9245 26.4933 39.1112 26.7L38.8712 27.15C38.6778 26.9567 38.4578 26.8133 38.2112 26.72C37.9645 26.62 37.7078 26.57 37.4412 26.57C37.0545 26.57 36.7545 26.65 36.5412 26.81C36.3345 26.97 36.2312 27.1867 36.2312 27.46C36.2312 27.6667 36.2945 27.8333 36.4212 27.96C36.5478 28.0867 36.7545 28.1833 37.0412 28.25L37.9112 28.45C38.3445 28.55 38.6678 28.7 38.8812 28.9C39.0945 29.0933 39.2012 29.3567 39.2012 29.69C39.2012 30.1233 39.0312 30.4633 38.6912 30.71C38.3512 30.9567 37.8978 31.08 37.3312 31.08ZM42.6366 31.08C41.8899 31.08 41.2999 30.86 40.8666 30.42C40.4399 29.9733 40.2266 29.3633 40.2266 28.59C40.2266 28.09 40.3232 27.65 40.5166 27.27C40.7099 26.89 40.9766 26.5933 41.3166 26.38C41.6632 26.1667 42.0599 26.06 42.5066 26.06C43.1532 26.06 43.6566 26.27 44.0166 26.69C44.3766 27.11 44.5566 27.6867 44.5566 28.42V28.7H40.8266C40.8466 29.3 41.0099 29.7633 41.3166 30.09C41.6299 30.41 42.0632 30.57 42.6166 30.57C42.9166 30.57 43.1966 30.5233 43.4566 30.43C43.7232 30.3367 43.9832 30.18 44.2366 29.96L44.4766 30.42C44.2632 30.6267 43.9899 30.79 43.6566 30.91C43.3232 31.0233 42.9832 31.08 42.6366 31.08ZM42.5166 26.55C42.0099 26.55 41.6132 26.71 41.3266 27.03C41.0466 27.3433 40.8832 27.75 40.8366 28.25H44.0066C43.9932 27.7167 43.8599 27.3 43.6066 27C43.3532 26.7 42.9899 26.55 42.5166 26.55Z" fill="black"/>
<path d="M16 5L30 19M30 5L16 19" stroke="black" stroke-width="1.1" stroke-linecap="round" stroke-linejoin="round"/>
</svg>
