<svg width="24" height="42" viewBox="0 0 24 42" fill="none" xmlns="http://www.w3.org/2000/svg">
<path d="M16 7.55556C16 9.51923 14 10.6667 12 12C10 10.6667 8 9.51923 8 7.55556C8 5.59188 9.79086 4 12 4C14.2091 4 16 5.59188 16 7.55556Z" stroke="black" stroke-width="1.1"/>
<path d="M16 16.4444C16 14.4808 14 13.3333 12 12C10 13.3333 8 14.4808 8 16.4444C8 18.4081 9.79086 20 12 20C14.2091 20 16 18.4081 16 16.4444Z" stroke="black" stroke-width="1.1"/>
<circle cx="12" cy="12" r="2" fill="black"/>
<circle cx="12" cy="12" r="3.5" stroke="black"/>
<path d="M5.41078 35.08C4.73745 35.08 4.16078 34.9367 3.68078 34.65C3.20078 34.3567 2.83078 33.94 2.57078 33.4C2.31745 32.86 2.19078 32.2167 2.19078 31.47C2.19078 30.73 2.31745 30.09 2.57078 29.55C2.83078 29.01 3.20078 28.5967 3.68078 28.31C4.16078 28.0167 4.73745 27.87 5.41078 27.87C5.89745 27.87 6.34411 27.95 6.75078 28.11C7.16411 28.2633 7.51411 28.49 7.80078 28.79L7.53078 29.3C7.21745 28.9933 6.89078 28.7733 6.55078 28.64C6.21745 28.5067 5.84078 28.44 5.42078 28.44C4.59411 28.44 3.95745 28.7067 3.51078 29.24C3.07078 29.7667 2.85078 30.51 2.85078 31.47C2.85078 32.4367 3.07078 33.1867 3.51078 33.72C3.95745 34.2467 4.59411 34.51 5.42078 34.51C5.84078 34.51 6.21745 34.4433 6.55078 34.31C6.89078 34.1767 7.21745 33.9567 7.53078 33.65L7.80078 34.16C7.51411 34.46 7.16411 34.69 6.75078 34.85C6.34411 35.0033 5.89745 35.08 5.41078 35.08ZM10.6284 35.08C10.1751 35.08 9.78177 34.98 9.44844 34.78C9.1151 34.5733 8.8551 34.2833 8.66844 33.91C8.48844 33.53 8.39844 33.0833 8.39844 32.57C8.39844 32.0633 8.48844 31.6233 8.66844 31.25C8.8551 30.87 9.1151 30.5767 9.44844 30.37C9.78177 30.1633 10.1751 30.06 10.6284 30.06C11.0884 30.06 11.4851 30.1633 11.8184 30.37C12.1518 30.5767 12.4084 30.87 12.5884 31.25C12.7751 31.6233 12.8684 32.0633 12.8684 32.57C12.8684 33.0833 12.7751 33.53 12.5884 33.91C12.4084 34.2833 12.1518 34.5733 11.8184 34.78C11.4851 34.98 11.0884 35.08 10.6284 35.08ZM10.6284 34.57C11.1218 34.57 11.5151 34.3967 11.8084 34.05C12.1018 33.6967 12.2484 33.2033 12.2484 32.57C12.2484 31.9367 12.1018 31.4467 11.8084 31.1C11.5151 30.7533 11.1218 30.58 10.6284 30.58C10.1351 30.58 9.74177 30.7533 9.44844 31.1C9.16177 31.4467 9.01844 31.9367 9.01844 32.57C9.01844 33.2033 9.16177 33.6967 9.44844 34.05C9.74177 34.3967 10.1351 34.57 10.6284 34.57ZM14.1672 35V30.15H14.7672V31.03C14.9072 30.7233 15.1105 30.49 15.3772 30.33C15.6439 30.17 15.9839 30.0767 16.3972 30.05L16.6472 30.03L16.7072 30.56L16.2772 30.61C15.8039 30.65 15.4372 30.8067 15.1772 31.08C14.9172 31.3467 14.7872 31.7067 14.7872 32.16V35H14.1672ZM19.6366 35.08C18.8899 35.08 18.2999 34.86 17.8666 34.42C17.4399 33.9733 17.2266 33.3633 17.2266 32.59C17.2266 32.09 17.3232 31.65 17.5166 31.27C17.7099 30.89 17.9766 30.5933 18.3166 30.38C18.6632 30.1667 19.0599 30.06 19.5066 30.06C20.1532 30.06 20.6566 30.27 21.0166 30.69C21.3766 31.11 21.5566 31.6867 21.5566 32.42V32.7H17.8266C17.8466 33.3 18.0099 33.7633 18.3166 34.09C18.6299 34.41 19.0632 34.57 19.6166 34.57C19.9166 34.57 20.1966 34.5233 20.4566 34.43C20.7232 34.3367 20.9832 34.18 21.2366 33.96L21.4766 34.42C21.2632 34.6267 20.9899 34.79 20.6566 34.91C20.3232 35.0233 19.9832 35.08 19.6366 35.08ZM19.5166 30.55C19.0099 30.55 18.6132 30.71 18.3266 31.03C18.0466 31.3433 17.8832 31.75 17.8366 32.25H21.0066C20.9932 31.7167 20.8599 31.3 20.6066 31C20.3532 30.7 19.9899 30.55 19.5166 30.55Z" fill="black"/>
</svg>
