<svg width="53" height="47" viewBox="0 0 53 47" fill="none" xmlns="http://www.w3.org/2000/svg">
<path d="M1.90828 40V32.95H4.17828C5.29828 32.95 6.16161 33.25 6.76828 33.85C7.38161 34.45 7.68828 35.3233 7.68828 36.47C7.68828 37.6167 7.38161 38.4933 6.76828 39.1C6.16161 39.7 5.29828 40 4.17828 40H1.90828ZM2.51828 39.46H4.12828C6.06161 39.46 7.02828 38.4633 7.02828 36.47C7.02828 34.4833 6.06161 33.49 4.12828 33.49H2.51828V39.46ZM9.02227 33.87V33.1H9.84227V33.87H9.02227ZM9.12227 40V35.15H9.73227V40H9.12227ZM11.3591 40V35.15H11.9591V36C12.2591 35.3733 12.7691 35.06 13.4891 35.06C14.2624 35.06 14.7524 35.3967 14.9591 36.07C15.0991 35.7567 15.3124 35.51 15.5991 35.33C15.8857 35.15 16.2191 35.06 16.5991 35.06C17.6724 35.06 18.2091 35.6867 18.2091 36.94V40H17.5991V36.99C17.5991 36.51 17.5124 36.1567 17.3391 35.93C17.1724 35.7033 16.8891 35.59 16.4891 35.59C16.0624 35.59 15.7224 35.74 15.4691 36.04C15.2157 36.3333 15.0891 36.7333 15.0891 37.24V40H14.4791V36.99C14.4791 36.51 14.3924 36.1567 14.2191 35.93C14.0524 35.7033 13.7724 35.59 13.3791 35.59C12.9457 35.59 12.6024 35.74 12.3491 36.04C12.0957 36.3333 11.9691 36.7333 11.9691 37.24V40H11.3591ZM19.7059 33.87V33.1H20.5259V33.87H19.7059ZM19.8059 40V35.15H20.4159V40H19.8059ZM22.0227 40V35.15H22.6227V36.02C22.7827 35.7 23.0127 35.46 23.3127 35.3C23.6127 35.14 23.946 35.06 24.3127 35.06C25.466 35.06 26.0427 35.6867 26.0427 36.94V40H25.4327V36.99C25.4327 36.51 25.336 36.1567 25.1427 35.93C24.9493 35.7033 24.6427 35.59 24.2227 35.59C23.7427 35.59 23.356 35.74 23.0627 36.04C22.776 36.3333 22.6327 36.73 22.6327 37.23V40H22.0227ZM27.5184 33.87V33.1H28.3384V33.87H27.5184ZM27.6184 40V35.15H28.2284V40H27.6184ZM31.4152 40.08C31.0552 40.08 30.7085 40.0267 30.3752 39.92C30.0485 39.8133 29.7785 39.66 29.5652 39.46L29.7852 39.01C30.0318 39.21 30.2952 39.3567 30.5752 39.45C30.8552 39.5367 31.1418 39.58 31.4352 39.58C31.8485 39.58 32.1585 39.5067 32.3652 39.36C32.5785 39.2067 32.6852 38.9967 32.6852 38.73C32.6852 38.5233 32.6152 38.36 32.4752 38.24C32.3352 38.12 32.1152 38.0233 31.8152 37.95L30.9452 37.75C30.1252 37.5633 29.7152 37.14 29.7152 36.48C29.7152 36.0533 29.8818 35.71 30.2152 35.45C30.5485 35.19 30.9885 35.06 31.5352 35.06C31.8685 35.06 32.1818 35.1167 32.4752 35.23C32.7685 35.3367 33.0085 35.4933 33.1952 35.7L32.9552 36.15C32.7618 35.9567 32.5418 35.8133 32.2952 35.72C32.0485 35.62 31.7918 35.57 31.5252 35.57C31.1385 35.57 30.8385 35.65 30.6252 35.81C30.4185 35.97 30.3152 36.1867 30.3152 36.46C30.3152 36.6667 30.3785 36.8333 30.5052 36.96C30.6318 37.0867 30.8385 37.1833 31.1252 37.25L31.9952 37.45C32.4285 37.55 32.7518 37.7 32.9652 37.9C33.1785 38.0933 33.2852 38.3567 33.2852 38.69C33.2852 39.1233 33.1152 39.4633 32.7752 39.71C32.4352 39.9567 31.9818 40.08 31.4152 40.08ZM34.6105 40V32.95H35.2205V35.99C35.3872 35.6833 35.6172 35.4533 35.9105 35.3C36.2105 35.14 36.5405 35.06 36.9005 35.06C38.0539 35.06 38.6305 35.6867 38.6305 36.94V40H38.0205V36.99C38.0205 36.51 37.9239 36.1567 37.7305 35.93C37.5372 35.7033 37.2305 35.59 36.8105 35.59C36.3305 35.59 35.9439 35.74 35.6505 36.04C35.3639 36.3333 35.2205 36.73 35.2205 37.23V40H34.6105ZM40.1063 33.87V33.1H40.9263V33.87H40.1063ZM40.2063 40V35.15H40.8163V40H40.2063ZM42.423 40V35.15H43.023V36.02C43.183 35.7 43.413 35.46 43.713 35.3C44.013 35.14 44.3464 35.06 44.713 35.06C45.8664 35.06 46.443 35.6867 46.443 36.94V40H45.833V36.99C45.833 36.51 45.7364 36.1567 45.543 35.93C45.3497 35.7033 45.043 35.59 44.623 35.59C44.143 35.59 43.7564 35.74 43.463 36.04C43.1764 36.3333 43.033 36.73 43.033 37.23V40H42.423ZM50.1288 41.88C49.2821 41.88 48.5788 41.6567 48.0188 41.21L48.2488 40.75C48.5554 40.97 48.8521 41.1267 49.1388 41.22C49.4254 41.32 49.7488 41.37 50.1088 41.37C50.5954 41.37 50.9654 41.2367 51.2188 40.97C51.4721 40.7033 51.5988 40.3167 51.5988 39.81V38.87C51.4588 39.19 51.2354 39.44 50.9288 39.62C50.6288 39.8 50.2854 39.89 49.8988 39.89C49.4454 39.89 49.0554 39.79 48.7288 39.59C48.4088 39.3833 48.1588 39.1 47.9788 38.74C47.8054 38.3733 47.7188 37.95 47.7188 37.47C47.7188 36.99 47.8054 36.57 47.9788 36.21C48.1588 35.85 48.4088 35.57 48.7288 35.37C49.0554 35.1633 49.4454 35.06 49.8988 35.06C50.2854 35.06 50.6288 35.15 50.9288 35.33C51.2288 35.51 51.4488 35.7567 51.5888 36.07V35.15H52.1888V39.72C52.1888 41.16 51.5021 41.88 50.1288 41.88ZM49.9688 39.37C50.4688 39.37 50.8654 39.2 51.1588 38.86C51.4521 38.5133 51.5988 38.05 51.5988 37.47C51.5988 36.89 51.4521 36.43 51.1588 36.09C50.8654 35.75 50.4688 35.58 49.9688 35.58C49.4621 35.58 49.0621 35.75 48.7688 36.09C48.4821 36.43 48.3388 36.89 48.3388 37.47C48.3388 38.05 48.4821 38.5133 48.7688 38.86C49.0621 39.2 49.4621 39.37 49.9688 39.37Z" fill="black"/>
<path d="M22 30L27 2L32 30" stroke="black" stroke-width="1.1" stroke-linecap="round" stroke-linejoin="round"/>
</svg>
