<svg width="30" height="47" viewBox="0 0 30 47" fill="none" xmlns="http://www.w3.org/2000/svg">
<path d="M1.2618 40V32.95H3.5318C4.6518 32.95 5.51513 33.25 6.1218 33.85C6.73513 34.45 7.0418 35.3233 7.0418 36.47C7.0418 37.6167 6.73513 38.4933 6.1218 39.1C5.51513 39.7 4.6518 40 3.5318 40H1.2618ZM1.8718 39.46H3.4818C5.41513 39.46 6.3818 38.4633 6.3818 36.47C6.3818 34.4833 5.41513 33.49 3.4818 33.49H1.8718V39.46ZM8.47578 40V35.15H9.07578V36.03C9.21578 35.7233 9.41911 35.49 9.68578 35.33C9.95245 35.17 10.2924 35.0767 10.7058 35.05L10.9558 35.03L11.0158 35.56L10.5858 35.61C10.1124 35.65 9.74578 35.8067 9.48578 36.08C9.22578 36.3467 9.09578 36.7067 9.09578 37.16V40H8.47578ZM13.9452 40.08C13.1985 40.08 12.6085 39.86 12.1752 39.42C11.7485 38.9733 11.5352 38.3633 11.5352 37.59C11.5352 37.09 11.6318 36.65 11.8252 36.27C12.0185 35.89 12.2852 35.5933 12.6252 35.38C12.9718 35.1667 13.3685 35.06 13.8152 35.06C14.4618 35.06 14.9652 35.27 15.3252 35.69C15.6852 36.11 15.8652 36.6867 15.8652 37.42V37.7H12.1352C12.1552 38.3 12.3185 38.7633 12.6252 39.09C12.9385 39.41 13.3718 39.57 13.9252 39.57C14.2252 39.57 14.5052 39.5233 14.7652 39.43C15.0318 39.3367 15.2918 39.18 15.5452 38.96L15.7852 39.42C15.5718 39.6267 15.2985 39.79 14.9652 39.91C14.6318 40.0233 14.2918 40.08 13.9452 40.08ZM13.8252 35.55C13.3185 35.55 12.9218 35.71 12.6352 36.03C12.3552 36.3433 12.1918 36.75 12.1452 37.25H15.3152C15.3018 36.7167 15.1685 36.3 14.9152 36C14.6618 35.7 14.2985 35.55 13.8252 35.55ZM18.6086 40.08C18.2819 40.08 17.9886 40.0167 17.7286 39.89C17.4753 39.7633 17.2719 39.59 17.1186 39.37C16.9719 39.15 16.8986 38.9033 16.8986 38.63C16.8986 38.27 16.9886 37.99 17.1686 37.79C17.3486 37.5833 17.6519 37.4367 18.0786 37.35C18.5053 37.2633 19.0919 37.22 19.8386 37.22H20.1486V36.86C20.1486 36.4133 20.0586 36.09 19.8786 35.89C19.6986 35.6833 19.4119 35.58 19.0186 35.58C18.7253 35.58 18.4419 35.6233 18.1686 35.71C17.9019 35.7967 17.6253 35.9333 17.3386 36.12L17.0986 35.65C17.3519 35.47 17.6519 35.3267 17.9986 35.22C18.3453 35.1133 18.6819 35.06 19.0086 35.06C19.5953 35.06 20.0286 35.21 20.3086 35.51C20.5953 35.81 20.7386 36.27 20.7386 36.89V40H20.1586V39.13C20.0253 39.43 19.8219 39.6633 19.5486 39.83C19.2819 39.9967 18.9686 40.08 18.6086 40.08ZM18.6886 39.59C18.9753 39.59 19.2253 39.5233 19.4386 39.39C19.6586 39.25 19.8319 39.06 19.9586 38.82C20.0853 38.58 20.1486 38.3067 20.1486 38V37.67H19.8486C19.2486 37.67 18.7786 37.6967 18.4386 37.75C18.1053 37.8033 17.8719 37.8967 17.7386 38.03C17.6053 38.1633 17.5386 38.3467 17.5386 38.58C17.5386 38.88 17.6419 39.1233 17.8486 39.31C18.0553 39.4967 18.3353 39.59 18.6886 39.59ZM22.3532 40V35.15H22.9532V36C23.2532 35.3733 23.7632 35.06 24.4832 35.06C25.2565 35.06 25.7465 35.3967 25.9532 36.07C26.0932 35.7567 26.3065 35.51 26.5932 35.33C26.8799 35.15 27.2132 35.06 27.5932 35.06C28.6665 35.06 29.2032 35.6867 29.2032 36.94V40H28.5932V36.99C28.5932 36.51 28.5065 36.1567 28.3332 35.93C28.1665 35.7033 27.8832 35.59 27.4832 35.59C27.0565 35.59 26.7165 35.74 26.4632 36.04C26.2099 36.3333 26.0832 36.7333 26.0832 37.24V40H25.4732V36.99C25.4732 36.51 25.3865 36.1567 25.2132 35.93C25.0465 35.7033 24.7665 35.59 24.3732 35.59C23.9399 35.59 23.5965 35.74 23.3432 36.04C23.0899 36.3333 22.9632 36.7333 22.9632 37.24V40H22.3532Z" fill="black"/>
<path d="M14 14L14 23" stroke="black" stroke-width="1.1" stroke-linecap="round"/>
<path d="M14 5L14 14" stroke="black" stroke-width="1.1" stroke-linecap="round"/>
<path d="M14 14H23" stroke="black" stroke-width="1.1" stroke-linecap="round"/>
<path d="M5 14H14" stroke="black" stroke-width="1.1" stroke-linecap="round"/>
<path d="M14 14L18 10" stroke="black" stroke-width="1.1" stroke-linecap="round"/>
</svg>
