<svg width="36" height="42" viewBox="0 0 36 42" fill="none" xmlns="http://www.w3.org/2000/svg">
<path d="M0.933672 35V27.95H5.27367V28.48H1.53367V31.16H5.06367V31.69H1.53367V34.47H5.27367V35H0.933672ZM7.98539 35.08C7.53206 35.08 7.18206 34.9433 6.93539 34.67C6.69539 34.39 6.57539 33.99 6.57539 33.47V27.95H7.18539V33.4C7.18539 34.1667 7.48539 34.55 8.08539 34.55C8.25206 34.55 8.40539 34.53 8.54539 34.49L8.52539 35.02C8.33206 35.06 8.15206 35.08 7.98539 35.08ZM11.737 35.08C11.3436 35.08 10.997 34.9933 10.697 34.82C10.4036 34.64 10.1836 34.3933 10.037 34.08V35H9.42695V27.95H10.037V31.05C10.1836 30.7433 10.4036 30.5033 10.697 30.33C10.997 30.15 11.3436 30.06 11.737 30.06C12.3903 30.06 12.9103 30.2867 13.297 30.74C13.6903 31.1933 13.887 31.8033 13.887 32.57C13.887 33.0833 13.797 33.53 13.617 33.91C13.4436 34.2833 13.1936 34.5733 12.867 34.78C12.547 34.98 12.1703 35.08 11.737 35.08ZM11.647 34.57C12.1403 34.57 12.5336 34.3967 12.827 34.05C13.1203 33.6967 13.267 33.2033 13.267 32.57C13.267 31.9367 13.1203 31.4467 12.827 31.1C12.5336 30.7533 12.1403 30.58 11.647 30.58C11.1536 30.58 10.7603 30.7533 10.467 31.1C10.1736 31.4467 10.027 31.9367 10.027 32.57C10.027 33.2033 10.1736 33.6967 10.467 34.05C10.7603 34.3967 11.1536 34.57 11.647 34.57ZM17.1089 35.08C16.6556 35.08 16.2622 34.98 15.9289 34.78C15.5956 34.5733 15.3356 34.2833 15.1489 33.91C14.9689 33.53 14.8789 33.0833 14.8789 32.57C14.8789 32.0633 14.9689 31.6233 15.1489 31.25C15.3356 30.87 15.5956 30.5767 15.9289 30.37C16.2622 30.1633 16.6556 30.06 17.1089 30.06C17.5689 30.06 17.9656 30.1633 18.2989 30.37C18.6322 30.5767 18.8889 30.87 19.0689 31.25C19.2556 31.6233 19.3489 32.0633 19.3489 32.57C19.3489 33.0833 19.2556 33.53 19.0689 33.91C18.8889 34.2833 18.6322 34.5733 18.2989 34.78C17.9656 34.98 17.5689 35.08 17.1089 35.08ZM17.1089 34.57C17.6022 34.57 17.9956 34.3967 18.2889 34.05C18.5822 33.6967 18.7289 33.2033 18.7289 32.57C18.7289 31.9367 18.5822 31.4467 18.2889 31.1C17.9956 30.7533 17.6022 30.58 17.1089 30.58C16.6156 30.58 16.2222 30.7533 15.9289 31.1C15.6422 31.4467 15.4989 31.9367 15.4989 32.57C15.4989 33.2033 15.6422 33.6967 15.9289 34.05C16.2222 34.3967 16.6156 34.57 17.1089 34.57ZM21.8691 35L20.1091 30.15H20.7591L22.1891 34.28L23.6791 30.15H24.2791L25.7391 34.29L27.1991 30.15H27.8291L26.0591 35H25.4291L23.9691 30.94L22.4991 35H21.8691ZM31.5684 35V27.95H32.1784V34.45H35.8584V35H31.5684Z" fill="black"/>
<path d="M20 2L20 17" stroke="black" stroke-width="1.1" stroke-linecap="round" stroke-linejoin="round"/>
<path d="M15 7L20 2" stroke="black" stroke-width="1.1" stroke-linecap="round" stroke-linejoin="round"/>
<path d="M15 22L20 17" stroke="black" stroke-width="1.1" stroke-linecap="round" stroke-linejoin="round"/>
</svg>
