<svg width="43" height="41" viewBox="0 0 43 41" fill="none" xmlns="http://www.w3.org/2000/svg">
<path d="M1.33211 34V26.95H5.67211V27.48H1.93211V30.16H5.46211V30.69H1.93211V33.47H5.67211V34H1.33211ZM6.97383 34V29.15H7.57383V30.02C7.73383 29.7 7.96383 29.46 8.26383 29.3C8.56383 29.14 8.89716 29.06 9.26383 29.06C10.4172 29.06 10.9938 29.6867 10.9938 30.94V34H10.3838V30.99C10.3838 30.51 10.2872 30.1567 10.0938 29.93C9.90049 29.7033 9.59383 29.59 9.17383 29.59C8.69383 29.59 8.30716 29.74 8.01383 30.04C7.72716 30.3333 7.58383 30.73 7.58383 31.23V34H6.97383ZM14.5495 34.08C14.0762 34.08 13.6695 33.9767 13.3295 33.77C12.9895 33.5567 12.7262 33.26 12.5395 32.88C12.3595 32.4933 12.2695 32.0467 12.2695 31.54C12.2695 30.7733 12.4695 30.17 12.8695 29.73C13.2762 29.2833 13.8362 29.06 14.5495 29.06C14.8429 29.06 15.1329 29.1167 15.4195 29.23C15.7062 29.3433 15.9462 29.5 16.1395 29.7L15.8995 30.16C15.6929 29.96 15.4729 29.8167 15.2395 29.73C15.0062 29.6367 14.7829 29.59 14.5695 29.59C14.0295 29.59 13.6129 29.76 13.3195 30.1C13.0329 30.44 12.8895 30.9233 12.8895 31.55C12.8895 32.1767 13.0329 32.67 13.3195 33.03C13.6129 33.3833 14.0295 33.56 14.5695 33.56C14.7829 33.56 15.0062 33.5167 15.2395 33.43C15.4729 33.3367 15.6929 33.19 15.8995 32.99L16.1395 33.45C15.9462 33.6433 15.7029 33.7967 15.4095 33.91C15.1229 34.0233 14.8362 34.08 14.5495 34.08ZM18.5694 34.08C18.116 34.08 17.766 33.9433 17.5194 33.67C17.2794 33.39 17.1594 32.99 17.1594 32.47V26.95H17.7694V32.4C17.7694 33.1667 18.0694 33.55 18.6694 33.55C18.836 33.55 18.9894 33.53 19.1294 33.49L19.1094 34.02C18.916 34.06 18.736 34.08 18.5694 34.08ZM21.8921 34.08C21.4388 34.08 21.0454 33.98 20.7121 33.78C20.3788 33.5733 20.1188 33.2833 19.9321 32.91C19.7521 32.53 19.6621 32.0833 19.6621 31.57C19.6621 31.0633 19.7521 30.6233 19.9321 30.25C20.1188 29.87 20.3788 29.5767 20.7121 29.37C21.0454 29.1633 21.4388 29.06 21.8921 29.06C22.3521 29.06 22.7488 29.1633 23.0821 29.37C23.4154 29.5767 23.6721 29.87 23.8521 30.25C24.0388 30.6233 24.1321 31.0633 24.1321 31.57C24.1321 32.0833 24.0388 32.53 23.8521 32.91C23.6721 33.2833 23.4154 33.5733 23.0821 33.78C22.7488 33.98 22.3521 34.08 21.8921 34.08ZM21.8921 33.57C22.3854 33.57 22.7788 33.3967 23.0721 33.05C23.3654 32.6967 23.5121 32.2033 23.5121 31.57C23.5121 30.9367 23.3654 30.4467 23.0721 30.1C22.7788 29.7533 22.3854 29.58 21.8921 29.58C21.3988 29.58 21.0054 29.7533 20.7121 30.1C20.4254 30.4467 20.2821 30.9367 20.2821 31.57C20.2821 32.2033 20.4254 32.6967 20.7121 33.05C21.0054 33.3967 21.3988 33.57 21.8921 33.57ZM27.0109 34.08C26.6509 34.08 26.3042 34.0267 25.9709 33.92C25.6442 33.8133 25.3742 33.66 25.1609 33.46L25.3809 33.01C25.6275 33.21 25.8909 33.3567 26.1709 33.45C26.4509 33.5367 26.7375 33.58 27.0309 33.58C27.4442 33.58 27.7542 33.5067 27.9609 33.36C28.1742 33.2067 28.2809 32.9967 28.2809 32.73C28.2809 32.5233 28.2109 32.36 28.0709 32.24C27.9309 32.12 27.7109 32.0233 27.4109 31.95L26.5409 31.75C25.7209 31.5633 25.3109 31.14 25.3109 30.48C25.3109 30.0533 25.4775 29.71 25.8109 29.45C26.1442 29.19 26.5842 29.06 27.1309 29.06C27.4642 29.06 27.7775 29.1167 28.0709 29.23C28.3642 29.3367 28.6042 29.4933 28.7909 29.7L28.5509 30.15C28.3575 29.9567 28.1375 29.8133 27.8909 29.72C27.6442 29.62 27.3875 29.57 27.1209 29.57C26.7342 29.57 26.4342 29.65 26.2209 29.81C26.0142 29.97 25.9109 30.1867 25.9109 30.46C25.9109 30.6667 25.9742 30.8333 26.1009 30.96C26.2275 31.0867 26.4342 31.1833 26.7209 31.25L27.5909 31.45C28.0242 31.55 28.3475 31.7 28.5609 31.9C28.7742 32.0933 28.8809 32.3567 28.8809 32.69C28.8809 33.1233 28.7109 33.4633 28.3709 33.71C28.0309 33.9567 27.5775 34.08 27.0109 34.08ZM30.1063 27.87V27.1H30.9263V27.87H30.1063ZM30.2063 34V29.15H30.8163V34H30.2063ZM32.423 34V29.15H33.023V30.02C33.183 29.7 33.413 29.46 33.713 29.3C34.013 29.14 34.3464 29.06 34.713 29.06C35.8664 29.06 36.443 29.6867 36.443 30.94V34H35.833V30.99C35.833 30.51 35.7364 30.1567 35.543 29.93C35.3497 29.7033 35.043 29.59 34.623 29.59C34.143 29.59 33.7564 29.74 33.463 30.04C33.1764 30.3333 33.033 30.73 33.033 31.23V34H32.423ZM40.1288 35.88C39.2821 35.88 38.5788 35.6567 38.0188 35.21L38.2488 34.75C38.5554 34.97 38.8521 35.1267 39.1388 35.22C39.4254 35.32 39.7488 35.37 40.1088 35.37C40.5954 35.37 40.9654 35.2367 41.2188 34.97C41.4721 34.7033 41.5988 34.3167 41.5988 33.81V32.87C41.4588 33.19 41.2354 33.44 40.9288 33.62C40.6288 33.8 40.2854 33.89 39.8988 33.89C39.4454 33.89 39.0554 33.79 38.7288 33.59C38.4088 33.3833 38.1588 33.1 37.9788 32.74C37.8054 32.3733 37.7188 31.95 37.7188 31.47C37.7188 30.99 37.8054 30.57 37.9788 30.21C38.1588 29.85 38.4088 29.57 38.7288 29.37C39.0554 29.1633 39.4454 29.06 39.8988 29.06C40.2854 29.06 40.6288 29.15 40.9288 29.33C41.2288 29.51 41.4488 29.7567 41.5888 30.07V29.15H42.1888V33.72C42.1888 35.16 41.5021 35.88 40.1288 35.88ZM39.9688 33.37C40.4688 33.37 40.8654 33.2 41.1588 32.86C41.4521 32.5133 41.5988 32.05 41.5988 31.47C41.5988 30.89 41.4521 30.43 41.1588 30.09C40.8654 29.75 40.4688 29.58 39.9688 29.58C39.4621 29.58 39.0621 29.75 38.7688 30.09C38.4821 30.43 38.3388 30.89 38.3388 31.47C38.3388 32.05 38.4821 32.5133 38.7688 32.86C39.0621 33.2 39.4621 33.37 39.9688 33.37Z" fill="black"/>
<path d="M21 14L25 10" stroke="black" stroke-width="1.1" stroke-linecap="round"/>
<path d="M19 14L23 10" stroke="black" stroke-width="1.1" stroke-linecap="round"/>
<path d="M23 10H32" stroke="black" stroke-width="1.1" stroke-linecap="round"/>
</svg>
