<svg width="24" height="49" viewBox="0 0 24 49" fill="none" xmlns="http://www.w3.org/2000/svg">
<path d="M2.3575 42V34.95H6.6975V35.48H2.9575V38.16H6.4875V38.69H2.9575V41.47H6.6975V42H2.3575ZM9.34156 42L7.26156 37.15H7.94156L9.65156 41.33L11.3916 37.15H12.0316L9.95156 42H9.34156ZM15.0409 42.08C14.2942 42.08 13.7042 41.86 13.2709 41.42C12.8442 40.9733 12.6309 40.3633 12.6309 39.59C12.6309 39.09 12.7275 38.65 12.9209 38.27C13.1142 37.89 13.3809 37.5933 13.7209 37.38C14.0675 37.1667 14.4642 37.06 14.9109 37.06C15.5575 37.06 16.0609 37.27 16.4209 37.69C16.7809 38.11 16.9609 38.6867 16.9609 39.42V39.7H13.2309C13.2509 40.3 13.4142 40.7633 13.7209 41.09C14.0342 41.41 14.4675 41.57 15.0209 41.57C15.3209 41.57 15.6009 41.5233 15.8609 41.43C16.1275 41.3367 16.3875 41.18 16.6409 40.96L16.8809 41.42C16.6675 41.6267 16.3942 41.79 16.0609 41.91C15.7275 42.0233 15.3875 42.08 15.0409 42.08ZM14.9209 37.55C14.4142 37.55 14.0175 37.71 13.7309 38.03C13.4509 38.3433 13.2875 38.75 13.2409 39.25H16.4109C16.3975 38.7167 16.2642 38.3 16.0109 38C15.7575 37.7 15.3942 37.55 14.9209 37.55ZM18.2043 42V37.15H18.8043V38.02C18.9643 37.7 19.1943 37.46 19.4943 37.3C19.7943 37.14 20.1276 37.06 20.4943 37.06C21.6476 37.06 22.2243 37.6867 22.2243 38.94V42H21.6143V38.99C21.6143 38.51 21.5176 38.1567 21.3243 37.93C21.131 37.7033 20.8243 37.59 20.4043 37.59C19.9243 37.59 19.5376 37.74 19.2443 38.04C18.9576 38.3333 18.8143 38.73 18.8143 39.23V42H18.2043Z" fill="black"/>
<path d="M7 2H16.5C16.7761 2 17 2.22386 17 2.5V29.5C17 29.7761 16.7761 30 16.5 30H7" stroke="black" stroke-width="1.1" stroke-linecap="round" stroke-linejoin="round"/>
</svg>
