<svg width="24" height="44" viewBox="0 0 24 44" fill="none" xmlns="http://www.w3.org/2000/svg">
<path d="M6.05281 37V29.95H10.2928V30.48H6.66281V33.17H10.0928V33.7H6.66281V37H6.05281ZM12.6574 37.08C12.3308 37.08 12.0374 37.0167 11.7774 36.89C11.5241 36.7633 11.3208 36.59 11.1674 36.37C11.0208 36.15 10.9474 35.9033 10.9474 35.63C10.9474 35.27 11.0374 34.99 11.2174 34.79C11.3974 34.5833 11.7008 34.4367 12.1274 34.35C12.5541 34.2633 13.1408 34.22 13.8874 34.22H14.1974V33.86C14.1974 33.4133 14.1074 33.09 13.9274 32.89C13.7474 32.6833 13.4608 32.58 13.0674 32.58C12.7741 32.58 12.4908 32.6233 12.2174 32.71C11.9508 32.7967 11.6741 32.9333 11.3874 33.12L11.1474 32.65C11.4008 32.47 11.7008 32.3267 12.0474 32.22C12.3941 32.1133 12.7308 32.06 13.0574 32.06C13.6441 32.06 14.0774 32.21 14.3574 32.51C14.6441 32.81 14.7874 33.27 14.7874 33.89V37H14.2074V36.13C14.0741 36.43 13.8708 36.6633 13.5974 36.83C13.3308 36.9967 13.0174 37.08 12.6574 37.08ZM12.7374 36.59C13.0241 36.59 13.2741 36.5233 13.4874 36.39C13.7074 36.25 13.8808 36.06 14.0074 35.82C14.1341 35.58 14.1974 35.3067 14.1974 35V34.67H13.8974C13.2974 34.67 12.8274 34.6967 12.4874 34.75C12.1541 34.8033 11.9208 34.8967 11.7874 35.03C11.6541 35.1633 11.5874 35.3467 11.5874 35.58C11.5874 35.88 11.6908 36.1233 11.8974 36.31C12.1041 36.4967 12.3841 36.59 12.7374 36.59ZM16.382 37V32.15H16.982V33.03C17.122 32.7233 17.3254 32.49 17.592 32.33C17.8587 32.17 18.1987 32.0767 18.612 32.05L18.862 32.03L18.922 32.56L18.492 32.61C18.0187 32.65 17.652 32.8067 17.392 33.08C17.132 33.3467 17.002 33.7067 17.002 34.16V37H16.382Z" fill="black"/>
<g clip-path="url(#clip0_1863_18232)">
<path d="M10.5 6.5V10.5" stroke="black" stroke-width="1.1" stroke-linecap="round"/>
<path d="M11.5 8.5L13.5 6.5" stroke="black" stroke-width="1.1" stroke-linecap="round"/>
<path d="M13.5 10.5L11.5 8.5" stroke="black" stroke-width="1.1" stroke-linecap="round"/>
</g>
<g clip-path="url(#clip1_1863_18232)">
<path d="M14 17.5L14 13.5L10 17.5L10 13.5" stroke="black" stroke-width="1.1" stroke-linecap="round" stroke-linejoin="round"/>
</g>
<circle cx="12" cy="12" r="9" stroke="black" stroke-width="1.1"/>
<defs>
<clipPath id="clip0_1863_18232">
<rect width="6" height="6" fill="white" transform="translate(9 5.5)"/>
</clipPath>
<clipPath id="clip1_1863_18232">
<rect width="6" height="6" fill="white" transform="translate(9 12.5)"/>
</clipPath>
</defs>
</svg>
