<svg width="41" height="44" viewBox="0 0 41 44" fill="none" xmlns="http://www.w3.org/2000/svg">
<path d="M1.62703 37V29.95H5.86703V30.48H2.23703V33.17H5.66703V33.7H2.23703V37H1.62703ZM6.82695 30.87V30.1H7.64695V30.87H6.82695ZM6.92695 37V32.15H7.53695V37H6.92695ZM9.14375 37V32.15H9.74375V33.02C9.90375 32.7 10.1338 32.46 10.4338 32.3C10.7338 32.14 11.0671 32.06 11.4338 32.06C12.5871 32.06 13.1638 32.6867 13.1638 33.94V37H12.5538V33.99C12.5538 33.51 12.4571 33.1567 12.2638 32.93C12.0704 32.7033 11.7638 32.59 11.3438 32.59C10.8638 32.59 10.4771 32.74 10.1838 33.04C9.89708 33.3333 9.75375 33.73 9.75375 34.23V37H9.14375ZM16.8495 38.88C16.0028 38.88 15.2995 38.6567 14.7395 38.21L14.9695 37.75C15.2761 37.97 15.5728 38.1267 15.8595 38.22C16.1461 38.32 16.4695 38.37 16.8295 38.37C17.3161 38.37 17.6861 38.2367 17.9395 37.97C18.1928 37.7033 18.3195 37.3167 18.3195 36.81V35.87C18.1795 36.19 17.9561 36.44 17.6495 36.62C17.3495 36.8 17.0061 36.89 16.6195 36.89C16.1661 36.89 15.7761 36.79 15.4495 36.59C15.1295 36.3833 14.8795 36.1 14.6995 35.74C14.5261 35.3733 14.4395 34.95 14.4395 34.47C14.4395 33.99 14.5261 33.57 14.6995 33.21C14.8795 32.85 15.1295 32.57 15.4495 32.37C15.7761 32.1633 16.1661 32.06 16.6195 32.06C17.0061 32.06 17.3495 32.15 17.6495 32.33C17.9495 32.51 18.1695 32.7567 18.3095 33.07V32.15H18.9095V36.72C18.9095 38.16 18.2228 38.88 16.8495 38.88ZM16.6895 36.37C17.1895 36.37 17.5861 36.2 17.8795 35.86C18.1728 35.5133 18.3195 35.05 18.3195 34.47C18.3195 33.89 18.1728 33.43 17.8795 33.09C17.5861 32.75 17.1895 32.58 16.6895 32.58C16.1828 32.58 15.7828 32.75 15.4895 33.09C15.2028 33.43 15.0595 33.89 15.0595 34.47C15.0595 35.05 15.2028 35.5133 15.4895 35.86C15.7828 36.2 16.1828 36.37 16.6895 36.37ZM22.6307 37.08C21.884 37.08 21.294 36.86 20.8607 36.42C20.434 35.9733 20.2207 35.3633 20.2207 34.59C20.2207 34.09 20.3174 33.65 20.5107 33.27C20.704 32.89 20.9707 32.5933 21.3107 32.38C21.6574 32.1667 22.054 32.06 22.5007 32.06C23.1474 32.06 23.6507 32.27 24.0107 32.69C24.3707 33.11 24.5507 33.6867 24.5507 34.42V34.7H20.8207C20.8407 35.3 21.004 35.7633 21.3107 36.09C21.624 36.41 22.0574 36.57 22.6107 36.57C22.9107 36.57 23.1907 36.5233 23.4507 36.43C23.7174 36.3367 23.9774 36.18 24.2307 35.96L24.4707 36.42C24.2574 36.6267 23.984 36.79 23.6507 36.91C23.3174 37.0233 22.9774 37.08 22.6307 37.08ZM22.5107 32.55C22.004 32.55 21.6074 32.71 21.3207 33.03C21.0407 33.3433 20.8774 33.75 20.8307 34.25H24.0007C23.9874 33.7167 23.854 33.3 23.6007 33C23.3474 32.7 22.984 32.55 22.5107 32.55ZM25.7941 37V32.15H26.3941V33.03C26.5341 32.7233 26.7375 32.49 27.0041 32.33C27.2708 32.17 27.6108 32.0767 28.0241 32.05L28.2741 32.03L28.3341 32.56L27.9041 32.61C27.4308 32.65 27.0641 32.8067 26.8041 33.08C26.5441 33.3467 26.4141 33.7067 26.4141 34.16V37H25.7941ZM30.7433 37.08C30.3833 37.08 30.0366 37.0267 29.7033 36.92C29.3766 36.8133 29.1066 36.66 28.8933 36.46L29.1133 36.01C29.3599 36.21 29.6233 36.3567 29.9033 36.45C30.1833 36.5367 30.4699 36.58 30.7633 36.58C31.1766 36.58 31.4866 36.5067 31.6933 36.36C31.9066 36.2067 32.0133 35.9967 32.0133 35.73C32.0133 35.5233 31.9433 35.36 31.8033 35.24C31.6633 35.12 31.4433 35.0233 31.1433 34.95L30.2733 34.75C29.4533 34.5633 29.0433 34.14 29.0433 33.48C29.0433 33.0533 29.2099 32.71 29.5433 32.45C29.8766 32.19 30.3166 32.06 30.8633 32.06C31.1966 32.06 31.5099 32.1167 31.8033 32.23C32.0966 32.3367 32.3366 32.4933 32.5233 32.7L32.2833 33.15C32.0899 32.9567 31.8699 32.8133 31.6233 32.72C31.3766 32.62 31.1199 32.57 30.8533 32.57C30.4666 32.57 30.1666 32.65 29.9533 32.81C29.7466 32.97 29.6433 33.1867 29.6433 33.46C29.6433 33.6667 29.7066 33.8333 29.8333 33.96C29.9599 34.0867 30.1666 34.1833 30.4533 34.25L31.3233 34.45C31.7566 34.55 32.0799 34.7 32.2933 34.9C32.5066 35.0933 32.6133 35.3567 32.6133 35.69C32.6133 36.1233 32.4433 36.4633 32.1033 36.71C31.7633 36.9567 31.3099 37.08 30.7433 37.08ZM36.5684 37V29.95H37.1784V36.45H40.8584V37H36.5684Z" fill="black"/>
<path d="M22 2L22 17" stroke="black" stroke-width="1.1" stroke-linecap="round" stroke-linejoin="round"/>
<path d="M17 7L22 2" stroke="black" stroke-width="1.1" stroke-linecap="round" stroke-linejoin="round"/>
<path d="M17 12L22 7" stroke="black" stroke-width="1.1" stroke-linecap="round" stroke-linejoin="round"/>
<path d="M17 17L22 12" stroke="black" stroke-width="1.1" stroke-linecap="round" stroke-linejoin="round"/>
<path d="M17 22L22 17" stroke="black" stroke-width="1.1" stroke-linecap="round" stroke-linejoin="round"/>
</svg>
