<svg width="49" height="44" viewBox="0 0 49 44" fill="none" xmlns="http://www.w3.org/2000/svg">
<path d="M1.37508 37V29.95H5.61508V30.48H1.98508V33.17H5.41508V33.7H1.98508V37H1.37508ZM8.085 37.08C7.63167 37.08 7.28167 36.9433 7.035 36.67C6.795 36.39 6.675 35.99 6.675 35.47V29.95H7.285V35.4C7.285 36.1667 7.585 36.55 8.185 36.55C8.35167 36.55 8.505 36.53 8.645 36.49L8.625 37.02C8.43167 37.06 8.25167 37.08 8.085 37.08ZM11.4077 37.08C10.9544 37.08 10.5611 36.98 10.2277 36.78C9.8944 36.5733 9.6344 36.2833 9.44773 35.91C9.26773 35.53 9.17773 35.0833 9.17773 34.57C9.17773 34.0633 9.26773 33.6233 9.44773 33.25C9.6344 32.87 9.8944 32.5767 10.2277 32.37C10.5611 32.1633 10.9544 32.06 11.4077 32.06C11.8677 32.06 12.2644 32.1633 12.5977 32.37C12.9311 32.5767 13.1877 32.87 13.3677 33.25C13.5544 33.6233 13.6477 34.0633 13.6477 34.57C13.6477 35.0833 13.5544 35.53 13.3677 35.91C13.1877 36.2833 12.9311 36.5733 12.5977 36.78C12.2644 36.98 11.8677 37.08 11.4077 37.08ZM11.4077 36.57C11.9011 36.57 12.2944 36.3967 12.5877 36.05C12.8811 35.6967 13.0277 35.2033 13.0277 34.57C13.0277 33.9367 12.8811 33.4467 12.5877 33.1C12.2944 32.7533 11.9011 32.58 11.4077 32.58C10.9144 32.58 10.5211 32.7533 10.2277 33.1C9.94107 33.4467 9.79773 33.9367 9.79773 34.57C9.79773 35.2033 9.94107 35.6967 10.2277 36.05C10.5211 36.3967 10.9144 36.57 11.4077 36.57ZM16.1679 37L14.4079 32.15H15.0579L16.4879 36.28L17.9779 32.15H18.5779L20.0379 36.29L21.4979 32.15H22.1279L20.3579 37H19.7279L18.2679 32.94L16.7979 37H16.1679ZM22.9822 34.6V34.08H25.7022V34.6H22.9822ZM28.8214 37.08C28.4614 37.08 28.1147 37.0267 27.7814 36.92C27.4547 36.8133 27.1847 36.66 26.9714 36.46L27.1914 36.01C27.4381 36.21 27.7014 36.3567 27.9814 36.45C28.2614 36.5367 28.5481 36.58 28.8414 36.58C29.2547 36.58 29.5647 36.5067 29.7714 36.36C29.9847 36.2067 30.0914 35.9967 30.0914 35.73C30.0914 35.5233 30.0214 35.36 29.8814 35.24C29.7414 35.12 29.5214 35.0233 29.2214 34.95L28.3514 34.75C27.5314 34.5633 27.1214 34.14 27.1214 33.48C27.1214 33.0533 27.2881 32.71 27.6214 32.45C27.9547 32.19 28.3947 32.06 28.9414 32.06C29.2747 32.06 29.5881 32.1167 29.8814 32.23C30.1747 32.3367 30.4147 32.4933 30.6014 32.7L30.3614 33.15C30.1681 32.9567 29.9481 32.8133 29.7014 32.72C29.4547 32.62 29.1981 32.57 28.9314 32.57C28.5447 32.57 28.2447 32.65 28.0314 32.81C27.8247 32.97 27.7214 33.1867 27.7214 33.46C27.7214 33.6667 27.7847 33.8333 27.9114 33.96C28.0381 34.0867 28.2447 34.1833 28.5314 34.25L29.4014 34.45C29.8347 34.55 30.1581 34.7 30.3714 34.9C30.5847 35.0933 30.6914 35.3567 30.6914 35.69C30.6914 36.1233 30.5214 36.4633 30.1814 36.71C29.8414 36.9567 29.3881 37.08 28.8214 37.08ZM34.1268 37.08C33.3801 37.08 32.7901 36.86 32.3568 36.42C31.9301 35.9733 31.7168 35.3633 31.7168 34.59C31.7168 34.09 31.8135 33.65 32.0068 33.27C32.2001 32.89 32.4668 32.5933 32.8068 32.38C33.1535 32.1667 33.5501 32.06 33.9968 32.06C34.6435 32.06 35.1468 32.27 35.5068 32.69C35.8668 33.11 36.0468 33.6867 36.0468 34.42V34.7H32.3168C32.3368 35.3 32.5001 35.7633 32.8068 36.09C33.1201 36.41 33.5535 36.57 34.1068 36.57C34.4068 36.57 34.6868 36.5233 34.9468 36.43C35.2135 36.3367 35.4735 36.18 35.7268 35.96L35.9668 36.42C35.7535 36.6267 35.4801 36.79 35.1468 36.91C34.8135 37.0233 34.4735 37.08 34.1268 37.08ZM34.0068 32.55C33.5001 32.55 33.1035 32.71 32.8168 33.03C32.5368 33.3433 32.3735 33.75 32.3268 34.25H35.4968C35.4835 33.7167 35.3501 33.3 35.0968 33C34.8435 32.7 34.4801 32.55 34.0068 32.55ZM37.2902 37V32.15H37.8902V33.02C38.0502 32.7 38.2802 32.46 38.5802 32.3C38.8802 32.14 39.2136 32.06 39.5802 32.06C40.7336 32.06 41.3102 32.6867 41.3102 33.94V37H40.7002V33.99C40.7002 33.51 40.6036 33.1567 40.4102 32.93C40.2169 32.7033 39.9102 32.59 39.4902 32.59C39.0102 32.59 38.6236 32.74 38.3302 33.04C38.0436 33.3333 37.9002 33.73 37.9002 34.23V37H37.2902ZM44.4659 37.08C44.1059 37.08 43.7593 37.0267 43.4259 36.92C43.0993 36.8133 42.8293 36.66 42.6159 36.46L42.8359 36.01C43.0826 36.21 43.3459 36.3567 43.6259 36.45C43.9059 36.5367 44.1926 36.58 44.4859 36.58C44.8993 36.58 45.2093 36.5067 45.4159 36.36C45.6293 36.2067 45.7359 35.9967 45.7359 35.73C45.7359 35.5233 45.6659 35.36 45.5259 35.24C45.3859 35.12 45.1659 35.0233 44.8659 34.95L43.9959 34.75C43.1759 34.5633 42.7659 34.14 42.7659 33.48C42.7659 33.0533 42.9326 32.71 43.2659 32.45C43.5993 32.19 44.0393 32.06 44.5859 32.06C44.9193 32.06 45.2326 32.1167 45.5259 32.23C45.8193 32.3367 46.0593 32.4933 46.2459 32.7L46.0059 33.15C45.8126 32.9567 45.5926 32.8133 45.3459 32.72C45.0993 32.62 44.8426 32.57 44.5759 32.57C44.1893 32.57 43.8893 32.65 43.6759 32.81C43.4693 32.97 43.3659 33.1867 43.3659 33.46C43.3659 33.6667 43.4293 33.8333 43.5559 33.96C43.6826 34.0867 43.8893 34.1833 44.1759 34.25L45.0459 34.45C45.4793 34.55 45.8026 34.7 46.0159 34.9C46.2293 35.0933 46.3359 35.3567 46.3359 35.69C46.3359 36.1233 46.1659 36.4633 45.8259 36.71C45.4859 36.9567 45.0326 37.08 44.4659 37.08ZM47.4825 37V36.14H48.3325V37H47.4825Z" fill="black"/>
<path d="M29 7.55556C29 9.51923 27 10.6667 25 12C23 10.6667 21 9.51923 21 7.55556C21 5.59188 22.7909 4 25 4C27.2091 4 29 5.59188 29 7.55556Z" stroke="black" stroke-width="1.1"/>
<path d="M29 16.4444C29 14.4808 27 13.3333 25 12C23 13.3333 21 14.4808 21 16.4444C21 18.4081 22.7909 20 25 20C27.2091 20 29 18.4081 29 16.4444Z" stroke="black" stroke-width="1.1"/>
<path d="M38.75 13.5L36.9019 10.9126C36.5913 10.4779 35.9387 10.498 35.6556 10.9511L34.386 12.9824C34.0922 13.4524 33.4078 13.4524 33.114 12.9824L31.886 11.0176C31.5922 10.5476 30.9078 10.5476 30.614 11.0176L29.386 12.9824C29.0922 13.4524 28.4078 13.4524 28.114 12.9824L26.886 11.0176C26.5922 10.5476 25.9078 10.5476 25.614 11.0176L24.386 12.9824C24.0922 13.4524 23.4078 13.4524 23.114 12.9824L21.9588 11.134C21.6483 10.6373 20.9139 10.6722 20.6519 11.1961L19.7927 12.9146C19.5434 13.4133 18.8564 13.4752 18.5219 13.0292L16.9063 10.875C16.5902 10.4536 15.9495 10.4808 15.6703 10.9275L14.3444 13.0489C14.0613 13.502 13.4087 13.5221 13.0981 13.0874L11.25 10.5" stroke="black" stroke-width="1.1" stroke-linecap="round" stroke-linejoin="round"/>
</svg>
