<svg width="72" height="44" viewBox="0 0 72 44" fill="none" xmlns="http://www.w3.org/2000/svg">
<circle cx="37" cy="12" r="0.75" fill="black"/>
<path d="M41.5 22H32.5C32.2239 22 32 21.7761 32 21.5V12.113C32 12.0386 32.0166 11.9652 32.0486 11.898L36.5486 2.448C36.7295 2.06796 37.2705 2.06796 37.4514 2.448L41.9514 11.898C41.9834 11.9652 42 12.0386 42 12.113V21.5C42 21.7761 41.7761 22 41.5 22Z" stroke="black" stroke-width="1.1" stroke-linecap="round" stroke-linejoin="round"/>
<path d="M1.45516 37V29.95H5.69516V30.48H2.06516V33.17H5.49516V33.7H2.06516V37H1.45516ZM8.48977 37.08C8.03643 37.08 7.6431 36.98 7.30977 36.78C6.97643 36.5733 6.71643 36.2833 6.52977 35.91C6.34977 35.53 6.25977 35.0833 6.25977 34.57C6.25977 34.0633 6.34977 33.6233 6.52977 33.25C6.71643 32.87 6.97643 32.5767 7.30977 32.37C7.6431 32.1633 8.03643 32.06 8.48977 32.06C8.94977 32.06 9.34643 32.1633 9.67977 32.37C10.0131 32.5767 10.2698 32.87 10.4498 33.25C10.6364 33.6233 10.7298 34.0633 10.7298 34.57C10.7298 35.0833 10.6364 35.53 10.4498 35.91C10.2698 36.2833 10.0131 36.5733 9.67977 36.78C9.34643 36.98 8.94977 37.08 8.48977 37.08ZM8.48977 36.57C8.9831 36.57 9.37643 36.3967 9.66977 36.05C9.9631 35.6967 10.1098 35.2033 10.1098 34.57C10.1098 33.9367 9.9631 33.4467 9.66977 33.1C9.37643 32.7533 8.9831 32.58 8.48977 32.58C7.99643 32.58 7.6031 32.7533 7.30977 33.1C7.0231 33.4467 6.87977 33.9367 6.87977 34.57C6.87977 35.2033 7.0231 35.6967 7.30977 36.05C7.6031 36.3967 7.99643 36.57 8.48977 36.57ZM12.0285 37V32.15H12.6285V33.03C12.7685 32.7233 12.9718 32.49 13.2385 32.33C13.5052 32.17 13.8452 32.0767 14.2585 32.05L14.5085 32.03L14.5685 32.56L14.1385 32.61C13.6652 32.65 13.2985 32.8067 13.0385 33.08C12.7785 33.3467 12.6485 33.7067 12.6485 34.16V37H12.0285ZM17.0292 37L15.2692 32.15H15.9192L17.3492 36.28L18.8392 32.15H19.4392L20.8992 36.29L22.3592 32.15H22.9892L21.2192 37H20.5892L19.1292 32.94L17.6592 37H17.0292ZM25.5012 37.08C25.1745 37.08 24.8812 37.0167 24.6212 36.89C24.3678 36.7633 24.1645 36.59 24.0112 36.37C23.8645 36.15 23.7912 35.9033 23.7912 35.63C23.7912 35.27 23.8812 34.99 24.0612 34.79C24.2412 34.5833 24.5445 34.4367 24.9712 34.35C25.3978 34.2633 25.9845 34.22 26.7312 34.22H27.0412V33.86C27.0412 33.4133 26.9512 33.09 26.7712 32.89C26.5912 32.6833 26.3045 32.58 25.9112 32.58C25.6178 32.58 25.3345 32.6233 25.0612 32.71C24.7945 32.7967 24.5178 32.9333 24.2312 33.12L23.9912 32.65C24.2445 32.47 24.5445 32.3267 24.8912 32.22C25.2378 32.1133 25.5745 32.06 25.9012 32.06C26.4878 32.06 26.9212 32.21 27.2012 32.51C27.4878 32.81 27.6312 33.27 27.6312 33.89V37H27.0512V36.13C26.9178 36.43 26.7145 36.6633 26.4412 36.83C26.1745 36.9967 25.8612 37.08 25.5012 37.08ZM25.5812 36.59C25.8678 36.59 26.1178 36.5233 26.3312 36.39C26.5512 36.25 26.7245 36.06 26.8512 35.82C26.9778 35.58 27.0412 35.3067 27.0412 35V34.67H26.7412C26.1412 34.67 25.6712 34.6967 25.3312 34.75C24.9978 34.8033 24.7645 34.8967 24.6312 35.03C24.4978 35.1633 24.4312 35.3467 24.4312 35.58C24.4312 35.88 24.5345 36.1233 24.7412 36.31C24.9478 36.4967 25.2278 36.59 25.5812 36.59ZM29.2258 37V32.15H29.8258V33.03C29.9658 32.7233 30.1691 32.49 30.4358 32.33C30.7024 32.17 31.0424 32.0767 31.4558 32.05L31.7058 32.03L31.7658 32.56L31.3358 32.61C30.8624 32.65 30.4958 32.8067 30.2358 33.08C29.9758 33.3467 29.8458 33.7067 29.8458 34.16V37H29.2258ZM34.4352 37.08C33.9952 37.08 33.6152 36.98 33.2952 36.78C32.9752 36.5733 32.7252 36.2833 32.5452 35.91C32.3718 35.53 32.2852 35.0833 32.2852 34.57C32.2852 33.8033 32.4785 33.1933 32.8652 32.74C33.2518 32.2867 33.7752 32.06 34.4352 32.06C34.8218 32.06 35.1618 32.15 35.4552 32.33C35.7552 32.5033 35.9785 32.7433 36.1252 33.05V29.95H36.7352V37H36.1352V36.08C35.9885 36.3933 35.7652 36.64 35.4652 36.82C35.1718 36.9933 34.8285 37.08 34.4352 37.08ZM34.5152 36.57C35.0085 36.57 35.4018 36.3967 35.6952 36.05C35.9885 35.6967 36.1352 35.2033 36.1352 34.57C36.1352 33.9367 35.9885 33.4467 35.6952 33.1C35.4018 32.7533 35.0085 32.58 34.5152 32.58C34.0218 32.58 33.6285 32.7533 33.3352 33.1C33.0485 33.4467 32.9052 33.9367 32.9052 34.57C32.9052 35.2033 33.0485 35.6967 33.3352 36.05C33.6285 36.3967 34.0218 36.57 34.5152 36.57ZM38.2771 34.6V34.08H40.9971V34.6H38.2771ZM42.5563 37V32.15H43.1563V33C43.4563 32.3733 43.9663 32.06 44.6863 32.06C45.4597 32.06 45.9497 32.3967 46.1563 33.07C46.2963 32.7567 46.5097 32.51 46.7963 32.33C47.083 32.15 47.4163 32.06 47.7963 32.06C48.8697 32.06 49.4063 32.6867 49.4063 33.94V37H48.7963V33.99C48.7963 33.51 48.7097 33.1567 48.5363 32.93C48.3697 32.7033 48.0863 32.59 47.6863 32.59C47.2597 32.59 46.9197 32.74 46.6663 33.04C46.413 33.3333 46.2863 33.7333 46.2863 34.24V37H45.6763V33.99C45.6763 33.51 45.5897 33.1567 45.4163 32.93C45.2497 32.7033 44.9697 32.59 44.5763 32.59C44.143 32.59 43.7997 32.74 43.5463 33.04C43.293 33.3333 43.1663 33.7333 43.1663 34.24V37H42.5563ZM50.9031 30.87V30.1H51.7231V30.87H50.9031ZM51.0031 37V32.15H51.6131V37H51.0031ZM55.0699 37.08C54.6299 37.08 54.2499 36.98 53.9299 36.78C53.6099 36.5733 53.3599 36.2833 53.1799 35.91C53.0066 35.53 52.9199 35.0833 52.9199 34.57C52.9199 33.8033 53.1133 33.1933 53.4999 32.74C53.8866 32.2867 54.4099 32.06 55.0699 32.06C55.4566 32.06 55.7966 32.15 56.0899 32.33C56.3899 32.5033 56.6133 32.7433 56.7599 33.05V29.95H57.3699V37H56.7699V36.08C56.6233 36.3933 56.3999 36.64 56.0999 36.82C55.8066 36.9933 55.4633 37.08 55.0699 37.08ZM55.1499 36.57C55.6433 36.57 56.0366 36.3967 56.3299 36.05C56.6233 35.6967 56.7699 35.2033 56.7699 34.57C56.7699 33.9367 56.6233 33.4467 56.3299 33.1C56.0366 32.7533 55.6433 32.58 55.1499 32.58C54.6566 32.58 54.2633 32.7533 53.9699 33.1C53.6833 33.4467 53.5399 33.9367 53.5399 34.57C53.5399 35.2033 53.6833 35.6967 53.9699 36.05C54.2633 36.3967 54.6566 36.57 55.1499 36.57ZM60.8219 37.08C60.3819 37.08 60.0019 36.98 59.6819 36.78C59.3619 36.5733 59.1119 36.2833 58.9319 35.91C58.7585 35.53 58.6719 35.0833 58.6719 34.57C58.6719 33.8033 58.8652 33.1933 59.2519 32.74C59.6385 32.2867 60.1619 32.06 60.8219 32.06C61.2085 32.06 61.5485 32.15 61.8419 32.33C62.1419 32.5033 62.3652 32.7433 62.5119 33.05V29.95H63.1219V37H62.5219V36.08C62.3752 36.3933 62.1519 36.64 61.8519 36.82C61.5585 36.9933 61.2152 37.08 60.8219 37.08ZM60.9019 36.57C61.3952 36.57 61.7885 36.3967 62.0819 36.05C62.3752 35.6967 62.5219 35.2033 62.5219 34.57C62.5219 33.9367 62.3752 33.4467 62.0819 33.1C61.7885 32.7533 61.3952 32.58 60.9019 32.58C60.4085 32.58 60.0152 32.7533 59.7219 33.1C59.4352 33.4467 59.2919 33.9367 59.2919 34.57C59.2919 35.2033 59.4352 35.6967 59.7219 36.05C60.0152 36.3967 60.4085 36.57 60.9019 36.57ZM66.1338 37.08C65.6805 37.08 65.3305 36.9433 65.0838 36.67C64.8438 36.39 64.7238 35.99 64.7238 35.47V29.95H65.3338V35.4C65.3338 36.1667 65.6338 36.55 66.2338 36.55C66.4005 36.55 66.5538 36.53 66.6938 36.49L66.6738 37.02C66.4805 37.06 66.3005 37.08 66.1338 37.08ZM69.6366 37.08C68.8899 37.08 68.2999 36.86 67.8666 36.42C67.4399 35.9733 67.2266 35.3633 67.2266 34.59C67.2266 34.09 67.3232 33.65 67.5166 33.27C67.7099 32.89 67.9766 32.5933 68.3166 32.38C68.6632 32.1667 69.0599 32.06 69.5066 32.06C70.1532 32.06 70.6566 32.27 71.0166 32.69C71.3766 33.11 71.5566 33.6867 71.5566 34.42V34.7H67.8266C67.8466 35.3 68.0099 35.7633 68.3166 36.09C68.6299 36.41 69.0632 36.57 69.6166 36.57C69.9166 36.57 70.1966 36.5233 70.4566 36.43C70.7232 36.3367 70.9832 36.18 71.2366 35.96L71.4766 36.42C71.2632 36.6267 70.9899 36.79 70.6566 36.91C70.3232 37.0233 69.9832 37.08 69.6366 37.08ZM69.5166 32.55C69.0099 32.55 68.6132 32.71 68.3266 33.03C68.0466 33.3433 67.8832 33.75 67.8366 34.25H71.0066C70.9932 33.7167 70.8599 33.3 70.6066 33C70.3532 32.7 69.9899 32.55 69.5166 32.55Z" fill="black"/>
</svg>
