<svg width="24" height="41" viewBox="0 0 24 41" fill="none" xmlns="http://www.w3.org/2000/svg">
<path d="M3.69148 34V26.95H7.93148V27.48H4.30148V30.17H7.73148V30.7H4.30148V34H3.69148ZM8.89375 34V29.15H9.49375V30.03C9.63375 29.7233 9.83708 29.49 10.1038 29.33C10.3704 29.17 10.7104 29.0767 11.1238 29.05L11.3738 29.03L11.4338 29.56L11.0038 29.61C10.5304 29.65 10.1638 29.8067 9.90375 30.08C9.64375 30.3467 9.51375 30.7067 9.51375 31.16V34H8.89375ZM14.3631 34.08C13.6165 34.08 13.0265 33.86 12.5931 33.42C12.1665 32.9733 11.9531 32.3633 11.9531 31.59C11.9531 31.09 12.0498 30.65 12.2431 30.27C12.4365 29.89 12.7031 29.5933 13.0431 29.38C13.3898 29.1667 13.7865 29.06 14.2331 29.06C14.8798 29.06 15.3831 29.27 15.7431 29.69C16.1031 30.11 16.2831 30.6867 16.2831 31.42V31.7H12.5531C12.5731 32.3 12.7365 32.7633 13.0431 33.09C13.3565 33.41 13.7898 33.57 14.3431 33.57C14.6431 33.57 14.9231 33.5233 15.1831 33.43C15.4498 33.3367 15.7098 33.18 15.9631 32.96L16.2031 33.42C15.9898 33.6267 15.7165 33.79 15.3831 33.91C15.0498 34.0233 14.7098 34.08 14.3631 34.08ZM14.2431 29.55C13.7365 29.55 13.3398 29.71 13.0531 30.03C12.7731 30.3433 12.6098 30.75 12.5631 31.25H15.7331C15.7198 30.7167 15.5865 30.3 15.3331 30C15.0798 29.7 14.7165 29.55 14.2431 29.55ZM19.6366 34.08C18.8899 34.08 18.2999 33.86 17.8666 33.42C17.4399 32.9733 17.2266 32.3633 17.2266 31.59C17.2266 31.09 17.3232 30.65 17.5166 30.27C17.7099 29.89 17.9766 29.5933 18.3166 29.38C18.6632 29.1667 19.0599 29.06 19.5066 29.06C20.1532 29.06 20.6566 29.27 21.0166 29.69C21.3766 30.11 21.5566 30.6867 21.5566 31.42V31.7H17.8266C17.8466 32.3 18.0099 32.7633 18.3166 33.09C18.6299 33.41 19.0632 33.57 19.6166 33.57C19.9166 33.57 20.1966 33.5233 20.4566 33.43C20.7232 33.3367 20.9832 33.18 21.2366 32.96L21.4766 33.42C21.2632 33.6267 20.9899 33.79 20.6566 33.91C20.3232 34.0233 19.9832 34.08 19.6366 34.08ZM19.5166 29.55C19.0099 29.55 18.6132 29.71 18.3266 30.03C18.0466 30.3433 17.8832 30.75 17.8366 31.25H21.0066C20.9932 30.7167 20.8599 30.3 20.6066 30C20.3532 29.7 19.9899 29.55 19.5166 29.55Z" fill="black"/>
<path d="M1 14H10" stroke="black" stroke-width="1.1" stroke-linecap="round"/>
<path d="M10 14L14 10" stroke="black" stroke-width="1.1" stroke-linecap="round"/>
</svg>
