<svg width="26" height="44" viewBox="0 0 26 44" fill="none" xmlns="http://www.w3.org/2000/svg">
<path d="M1.8243 37V29.95H6.0643V30.48H2.4343V33.17H5.8643V33.7H2.4343V37H1.8243ZM7.02656 37V32.15H7.62656V33.03C7.76656 32.7233 7.9699 32.49 8.23656 32.33C8.50323 32.17 8.84323 32.0767 9.25656 32.05L9.50656 32.03L9.56656 32.56L9.13656 32.61C8.66323 32.65 8.29656 32.8067 8.03656 33.08C7.77656 33.3467 7.64656 33.7067 7.64656 34.16V37H7.02656ZM12.3159 37.08C11.8626 37.08 11.4693 36.98 11.1359 36.78C10.8026 36.5733 10.5426 36.2833 10.3559 35.91C10.1759 35.53 10.0859 35.0833 10.0859 34.57C10.0859 34.0633 10.1759 33.6233 10.3559 33.25C10.5426 32.87 10.8026 32.5767 11.1359 32.37C11.4693 32.1633 11.8626 32.06 12.3159 32.06C12.7759 32.06 13.1726 32.1633 13.5059 32.37C13.8393 32.5767 14.0959 32.87 14.2759 33.25C14.4626 33.6233 14.5559 34.0633 14.5559 34.57C14.5559 35.0833 14.4626 35.53 14.2759 35.91C14.0959 36.2833 13.8393 36.5733 13.5059 36.78C13.1726 36.98 12.7759 37.08 12.3159 37.08ZM12.3159 36.57C12.8093 36.57 13.2026 36.3967 13.4959 36.05C13.7893 35.6967 13.9359 35.2033 13.9359 34.57C13.9359 33.9367 13.7893 33.4467 13.4959 33.1C13.2026 32.7533 12.8093 32.58 12.3159 32.58C11.8226 32.58 11.4293 32.7533 11.1359 33.1C10.8493 33.4467 10.7059 33.9367 10.7059 34.57C10.7059 35.2033 10.8493 35.6967 11.1359 36.05C11.4293 36.3967 11.8226 36.57 12.3159 36.57ZM15.8547 37V32.15H16.4547V33.02C16.6147 32.7 16.8447 32.46 17.1447 32.3C17.4447 32.14 17.778 32.06 18.1447 32.06C19.298 32.06 19.8747 32.6867 19.8747 33.94V37H19.2647V33.99C19.2647 33.51 19.168 33.1567 18.9747 32.93C18.7814 32.7033 18.4747 32.59 18.0547 32.59C17.5747 32.59 17.188 32.74 16.8947 33.04C16.608 33.3333 16.4647 33.73 16.4647 34.23V37H15.8547ZM23.2804 37.08C22.7404 37.08 22.3337 36.9333 22.0604 36.64C21.7937 36.3467 21.6604 35.9267 21.6604 35.38V32.64H20.7004V32.15H21.6604V30.65H22.2704V32.15H23.8404V32.64H22.2704V35.3C22.2704 35.7067 22.3537 36.0167 22.5204 36.23C22.6871 36.4433 22.9637 36.55 23.3504 36.55C23.4637 36.55 23.5737 36.5367 23.6804 36.51C23.7871 36.4833 23.8804 36.4533 23.9604 36.42L24.0804 36.9C24.0071 36.9467 23.8904 36.9867 23.7304 37.02C23.5704 37.06 23.4204 37.08 23.2804 37.08Z" fill="black"/>
<path d="M9 6.24031C9 6.08842 9.06904 5.94476 9.18765 5.84988L13.6877 2.24988C13.8703 2.10379 14.1297 2.10379 14.3123 2.24988L18.8123 5.84988C18.931 5.94476 19 6.08842 19 6.24031V21.5C19 21.7761 18.7761 22 18.5 22H9.5C9.22386 22 9 21.7761 9 21.5V6.24031Z" stroke="black" stroke-width="1.1"/>
<g clip-path="url(#clip0_1863_18237)">
<path d="M12 11H16L12 15H16" stroke="black" stroke-width="1.1" stroke-linecap="round" stroke-linejoin="round"/>
</g>
<defs>
<clipPath id="clip0_1863_18237">
<rect width="6" height="6" fill="white" transform="translate(11 10)"/>
</clipPath>
</defs>
</svg>
