<svg width="31" height="43" viewBox="0 0 31 43" fill="none" xmlns="http://www.w3.org/2000/svg">
<path d="M4.97188 36.08C3.85854 36.08 3.01188 35.7633 2.43188 35.13C1.85188 34.4967 1.56188 33.61 1.56188 32.47C1.56188 31.73 1.68854 31.09 1.94188 30.55C2.20188 30.01 2.57188 29.5967 3.05188 29.31C3.53854 29.0167 4.12521 28.87 4.81188 28.87C5.83188 28.87 6.64521 29.1733 7.25188 29.78L6.98188 30.28C6.65521 29.98 6.31854 29.7667 5.97187 29.64C5.62521 29.5067 5.23521 29.44 4.80188 29.44C3.96854 29.44 3.32854 29.7067 2.88188 30.24C2.43521 30.7667 2.21188 31.51 2.21188 32.47C2.21188 33.4633 2.44188 34.22 2.90188 34.74C3.36854 35.26 4.06188 35.52 4.98188 35.52C5.60854 35.52 6.19188 35.4133 6.73188 35.2V32.91H4.86188V32.39H7.28188V35.6C7.10854 35.6933 6.89188 35.7767 6.63188 35.85C6.37854 35.9233 6.10521 35.98 5.81188 36.02C5.52521 36.06 5.24521 36.08 4.97188 36.08ZM10.4387 36.08C10.112 36.08 9.81867 36.0167 9.55867 35.89C9.30534 35.7633 9.10201 35.59 8.94867 35.37C8.80201 35.15 8.72867 34.9033 8.72867 34.63C8.72867 34.27 8.81867 33.99 8.99867 33.79C9.17867 33.5833 9.48201 33.4367 9.90867 33.35C10.3353 33.2633 10.922 33.22 11.6687 33.22H11.9787V32.86C11.9787 32.4133 11.8887 32.09 11.7087 31.89C11.5287 31.6833 11.242 31.58 10.8487 31.58C10.5553 31.58 10.272 31.6233 9.99867 31.71C9.73201 31.7967 9.45534 31.9333 9.16867 32.12L8.92867 31.65C9.18201 31.47 9.48201 31.3267 9.82867 31.22C10.1753 31.1133 10.512 31.06 10.8387 31.06C11.4253 31.06 11.8587 31.21 12.1387 31.51C12.4253 31.81 12.5687 32.27 12.5687 32.89V36H11.9887V35.13C11.8553 35.43 11.652 35.6633 11.3787 35.83C11.112 35.9967 10.7987 36.08 10.4387 36.08ZM10.5187 35.59C10.8053 35.59 11.0553 35.5233 11.2687 35.39C11.4887 35.25 11.662 35.06 11.7887 34.82C11.9153 34.58 11.9787 34.3067 11.9787 34V33.67H11.6787C11.0787 33.67 10.6087 33.6967 10.2687 33.75C9.93534 33.8033 9.70201 33.8967 9.56867 34.03C9.43534 34.1633 9.36867 34.3467 9.36867 34.58C9.36867 34.88 9.47201 35.1233 9.67867 35.31C9.88534 35.4967 10.1653 35.59 10.5187 35.59ZM15.9933 36.08C15.4533 36.08 15.0466 35.9333 14.7733 35.64C14.5066 35.3467 14.3733 34.9267 14.3733 34.38V31.64H13.4133V31.15H14.3733V29.65H14.9833V31.15H16.5533V31.64H14.9833V34.3C14.9833 34.7067 15.0666 35.0167 15.2333 35.23C15.3999 35.4433 15.6766 35.55 16.0633 35.55C16.1766 35.55 16.2866 35.5367 16.3933 35.51C16.4999 35.4833 16.5933 35.4533 16.6733 35.42L16.7933 35.9C16.7199 35.9467 16.6033 35.9867 16.4433 36.02C16.2833 36.06 16.1333 36.08 15.9933 36.08ZM17.5129 36V28.95H18.1229V31.99C18.2896 31.6833 18.5196 31.4533 18.8129 31.3C19.1129 31.14 19.4429 31.06 19.8029 31.06C20.9562 31.06 21.5329 31.6867 21.5329 32.94V36H20.9229V32.99C20.9229 32.51 20.8262 32.1567 20.6329 31.93C20.4396 31.7033 20.1329 31.59 19.7129 31.59C19.2329 31.59 18.8462 31.74 18.5529 32.04C18.2662 32.3333 18.1229 32.73 18.1229 33.23V36H17.5129ZM25.2186 36.08C24.4719 36.08 23.8819 35.86 23.4486 35.42C23.0219 34.9733 22.8086 34.3633 22.8086 33.59C22.8086 33.09 22.9053 32.65 23.0986 32.27C23.2919 31.89 23.5586 31.5933 23.8986 31.38C24.2453 31.1667 24.6419 31.06 25.0886 31.06C25.7353 31.06 26.2386 31.27 26.5986 31.69C26.9586 32.11 27.1386 32.6867 27.1386 33.42V33.7H23.4086C23.4286 34.3 23.5919 34.7633 23.8986 35.09C24.2119 35.41 24.6453 35.57 25.1986 35.57C25.4986 35.57 25.7786 35.5233 26.0386 35.43C26.3053 35.3367 26.5653 35.18 26.8186 34.96L27.0586 35.42C26.8453 35.6267 26.5719 35.79 26.2386 35.91C25.9053 36.0233 25.5653 36.08 25.2186 36.08ZM25.0986 31.55C24.5919 31.55 24.1953 31.71 23.9086 32.03C23.6286 32.3433 23.4653 32.75 23.4186 33.25H26.5886C26.5753 32.7167 26.4419 32.3 26.1886 32C25.9353 31.7 25.5719 31.55 25.0986 31.55ZM28.382 36V31.15H28.982V32.03C29.122 31.7233 29.3254 31.49 29.592 31.33C29.8587 31.17 30.1987 31.0767 30.612 31.05L30.862 31.03L30.922 31.56L30.492 31.61C30.0187 31.65 29.652 31.8067 29.392 32.08C29.132 32.3467 29.002 32.7067 29.002 33.16V36H28.382Z" fill="black"/>
<path d="M17.0002 1L17.0002 12.5C17.0002 21.2265 22.5 16.7265 23 14.7265" stroke="black" stroke-width="1.1" stroke-linecap="round" stroke-linejoin="round"/>
<path d="M12.9998 1L12.9998 12.5C12.9998 21.2265 7.5 16.7265 7 14.7265" stroke="black" stroke-width="1.1" stroke-linecap="round" stroke-linejoin="round"/>
</svg>
