<svg width="35" height="44" viewBox="0 0 35 44" fill="none" xmlns="http://www.w3.org/2000/svg">
<path d="M4.32344 37.08C3.2101 37.08 2.36344 36.7633 1.78344 36.13C1.20344 35.4967 0.913438 34.61 0.913438 33.47C0.913438 32.73 1.0401 32.09 1.29344 31.55C1.55344 31.01 1.92344 30.5967 2.40344 30.31C2.8901 30.0167 3.47677 29.87 4.16344 29.87C5.18344 29.87 5.99677 30.1733 6.60344 30.78L6.33344 31.28C6.00677 30.98 5.6701 30.7667 5.32344 30.64C4.97677 30.5067 4.58677 30.44 4.15344 30.44C3.3201 30.44 2.6801 30.7067 2.23344 31.24C1.78677 31.7667 1.56344 32.51 1.56344 33.47C1.56344 34.4633 1.79344 35.22 2.25344 35.74C2.7201 36.26 3.41344 36.52 4.33344 36.52C4.9601 36.52 5.54344 36.4133 6.08344 36.2V33.91H4.21344V33.39H6.63344V36.6C6.4601 36.6933 6.24344 36.7767 5.98344 36.85C5.7301 36.9233 5.45677 36.98 5.16344 37.02C4.87677 37.06 4.59677 37.08 4.32344 37.08ZM10.4002 37.08C9.65357 37.08 9.06357 36.86 8.63023 36.42C8.20357 35.9733 7.99023 35.3633 7.99023 34.59C7.99023 34.09 8.0869 33.65 8.28023 33.27C8.47357 32.89 8.74023 32.5933 9.08023 32.38C9.4269 32.1667 9.82357 32.06 10.2702 32.06C10.9169 32.06 11.4202 32.27 11.7802 32.69C12.1402 33.11 12.3202 33.6867 12.3202 34.42V34.7H8.59023C8.61023 35.3 8.77357 35.7633 9.08023 36.09C9.39357 36.41 9.8269 36.57 10.3802 36.57C10.6802 36.57 10.9602 36.5233 11.2202 36.43C11.4869 36.3367 11.7469 36.18 12.0002 35.96L12.2402 36.42C12.0269 36.6267 11.7536 36.79 11.4202 36.91C11.0869 37.0233 10.7469 37.08 10.4002 37.08ZM10.2802 32.55C9.77357 32.55 9.3769 32.71 9.09023 33.03C8.81023 33.3433 8.6469 33.75 8.60023 34.25H11.7702C11.7569 33.7167 11.6236 33.3 11.3702 33C11.1169 32.7 10.7536 32.55 10.2802 32.55ZM15.1437 37.08C14.7837 37.08 14.437 37.0267 14.1037 36.92C13.777 36.8133 13.507 36.66 13.2937 36.46L13.5137 36.01C13.7603 36.21 14.0237 36.3567 14.3037 36.45C14.5837 36.5367 14.8703 36.58 15.1637 36.58C15.577 36.58 15.887 36.5067 16.0937 36.36C16.307 36.2067 16.4137 35.9967 16.4137 35.73C16.4137 35.5233 16.3437 35.36 16.2037 35.24C16.0637 35.12 15.8437 35.0233 15.5437 34.95L14.6737 34.75C13.8537 34.5633 13.4437 34.14 13.4437 33.48C13.4437 33.0533 13.6103 32.71 13.9437 32.45C14.277 32.19 14.717 32.06 15.2637 32.06C15.597 32.06 15.9103 32.1167 16.2037 32.23C16.497 32.3367 16.737 32.4933 16.9237 32.7L16.6837 33.15C16.4903 32.9567 16.2703 32.8133 16.0237 32.72C15.777 32.62 15.5203 32.57 15.2537 32.57C14.867 32.57 14.567 32.65 14.3537 32.81C14.147 32.97 14.0437 33.1867 14.0437 33.46C14.0437 33.6667 14.107 33.8333 14.2337 33.96C14.3603 34.0867 14.567 34.1833 14.8537 34.25L15.7237 34.45C16.157 34.55 16.4803 34.7 16.6937 34.9C16.907 35.0933 17.0137 35.3567 17.0137 35.69C17.0137 36.1233 16.8437 36.4633 16.5037 36.71C16.1637 36.9567 15.7103 37.08 15.1437 37.08ZM20.1202 37.08C19.5802 37.08 19.1736 36.9333 18.9002 36.64C18.6336 36.3467 18.5002 35.9267 18.5002 35.38V32.64H17.5402V32.15H18.5002V30.65H19.1102V32.15H20.6802V32.64H19.1102V35.3C19.1102 35.7067 19.1936 36.0167 19.3602 36.23C19.5269 36.4433 19.8036 36.55 20.1902 36.55C20.3036 36.55 20.4136 36.5367 20.5202 36.51C20.6269 36.4833 20.7202 36.4533 20.8002 36.42L20.9202 36.9C20.8469 36.9467 20.7302 36.9867 20.5702 37.02C20.4102 37.06 20.2602 37.08 20.1202 37.08ZM23.3498 37.08C22.1965 37.08 21.6198 36.4533 21.6198 35.2V32.15H22.2298V35.17C22.2298 35.6433 22.3265 35.9933 22.5198 36.22C22.7132 36.4467 23.0165 36.56 23.4298 36.56C23.8765 36.56 24.2398 36.41 24.5198 36.11C24.8065 35.81 24.9498 35.41 24.9498 34.91V32.15H25.5598V37H24.9698V36.14C24.8098 36.4467 24.5865 36.68 24.2998 36.84C24.0198 37 23.7032 37.08 23.3498 37.08ZM27.1672 37V32.15H27.7672V33.03C27.9072 32.7233 28.1105 32.49 28.3772 32.33C28.6439 32.17 28.9839 32.0767 29.3972 32.05L29.6472 32.03L29.7072 32.56L29.2772 32.61C28.8039 32.65 28.4372 32.8067 28.1772 33.08C27.9172 33.3467 27.7872 33.7067 27.7872 34.16V37H27.1672ZM32.6366 37.08C31.8899 37.08 31.2999 36.86 30.8666 36.42C30.4399 35.9733 30.2266 35.3633 30.2266 34.59C30.2266 34.09 30.3232 33.65 30.5166 33.27C30.7099 32.89 30.9766 32.5933 31.3166 32.38C31.6632 32.1667 32.0599 32.06 32.5066 32.06C33.1532 32.06 33.6566 32.27 34.0166 32.69C34.3766 33.11 34.5566 33.6867 34.5566 34.42V34.7H30.8266C30.8466 35.3 31.0099 35.7633 31.3166 36.09C31.6299 36.41 32.0632 36.57 32.6166 36.57C32.9166 36.57 33.1966 36.5233 33.4566 36.43C33.7232 36.3367 33.9832 36.18 34.2366 35.96L34.4766 36.42C34.2632 36.6267 33.9899 36.79 33.6566 36.91C33.3232 37.0233 32.9832 37.08 32.6366 37.08ZM32.5166 32.55C32.0099 32.55 31.6132 32.71 31.3266 33.03C31.0466 33.3433 30.8832 33.75 30.8366 34.25H34.0066C33.9932 33.7167 33.8599 33.3 33.6066 33C33.3532 32.7 32.9899 32.55 32.5166 32.55Z" fill="black"/>
<path d="M18 2V22" stroke="black" stroke-width="1.1" stroke-linecap="round" stroke-linejoin="round"/>
<path d="M21 17.8333C21 16.3606 19.5 15.5 18 14.5C16.5 15.5 15 16.3606 15 17.8333C15 19.3061 16.3431 20.5 18 20.5C19.6569 20.5 21 19.3061 21 17.8333Z" stroke="black" stroke-width="1.1"/>
</svg>
