<svg width="24" height="45" viewBox="0 0 24 45" fill="none" xmlns="http://www.w3.org/2000/svg">
<path d="M1.11141 38V30.95H1.72141V34.15H6.22141V30.95H6.83141V38H6.22141V34.7H1.72141V38H1.11141ZM10.66 38.08C9.91333 38.08 9.32333 37.86 8.89 37.42C8.46333 36.9733 8.25 36.3633 8.25 35.59C8.25 35.09 8.34667 34.65 8.54 34.27C8.73333 33.89 9 33.5933 9.34 33.38C9.68667 33.1667 10.0833 33.06 10.53 33.06C11.1767 33.06 11.68 33.27 12.04 33.69C12.4 34.11 12.58 34.6867 12.58 35.42V35.7H8.85C8.87 36.3 9.03333 36.7633 9.34 37.09C9.65333 37.41 10.0867 37.57 10.64 37.57C10.94 37.57 11.22 37.5233 11.48 37.43C11.7467 37.3367 12.0067 37.18 12.26 36.96L12.5 37.42C12.2867 37.6267 12.0133 37.79 11.68 37.91C11.3467 38.0233 11.0067 38.08 10.66 38.08ZM10.54 33.55C10.0333 33.55 9.63667 33.71 9.35 34.03C9.07 34.3433 8.90667 34.75 8.86 35.25H12.03C12.0167 34.7167 11.8833 34.3 11.63 34C11.3767 33.7 11.0133 33.55 10.54 33.55ZM15.3234 38.08C14.9968 38.08 14.7034 38.0167 14.4434 37.89C14.1901 37.7633 13.9868 37.59 13.8334 37.37C13.6868 37.15 13.6134 36.9033 13.6134 36.63C13.6134 36.27 13.7034 35.99 13.8834 35.79C14.0634 35.5833 14.3668 35.4367 14.7934 35.35C15.2201 35.2633 15.8068 35.22 16.5534 35.22H16.8634V34.86C16.8634 34.4133 16.7734 34.09 16.5934 33.89C16.4134 33.6833 16.1268 33.58 15.7334 33.58C15.4401 33.58 15.1568 33.6233 14.8834 33.71C14.6168 33.7967 14.3401 33.9333 14.0534 34.12L13.8134 33.65C14.0668 33.47 14.3668 33.3267 14.7134 33.22C15.0601 33.1133 15.3968 33.06 15.7234 33.06C16.3101 33.06 16.7434 33.21 17.0234 33.51C17.3101 33.81 17.4534 34.27 17.4534 34.89V38H16.8734V37.13C16.7401 37.43 16.5368 37.6633 16.2634 37.83C15.9968 37.9967 15.6834 38.08 15.3234 38.08ZM15.4034 37.59C15.6901 37.59 15.9401 37.5233 16.1534 37.39C16.3734 37.25 16.5468 37.06 16.6734 36.82C16.8001 36.58 16.8634 36.3067 16.8634 36V35.67H16.5634C15.9634 35.67 15.4934 35.6967 15.1534 35.75C14.8201 35.8033 14.5868 35.8967 14.4534 36.03C14.3201 36.1633 14.2534 36.3467 14.2534 36.58C14.2534 36.88 14.3568 37.1233 14.5634 37.31C14.7701 37.4967 15.0501 37.59 15.4034 37.59ZM20.898 38.08C20.458 38.08 20.078 37.98 19.758 37.78C19.438 37.5733 19.188 37.2833 19.008 36.91C18.8347 36.53 18.748 36.0833 18.748 35.57C18.748 34.8033 18.9414 34.1933 19.328 33.74C19.7147 33.2867 20.238 33.06 20.898 33.06C21.2847 33.06 21.6247 33.15 21.918 33.33C22.218 33.5033 22.4414 33.7433 22.588 34.05V30.95H23.198V38H22.598V37.08C22.4514 37.3933 22.228 37.64 21.928 37.82C21.6347 37.9933 21.2914 38.08 20.898 38.08ZM20.978 37.57C21.4714 37.57 21.8647 37.3967 22.158 37.05C22.4514 36.6967 22.598 36.2033 22.598 35.57C22.598 34.9367 22.4514 34.4467 22.158 34.1C21.8647 33.7533 21.4714 33.58 20.978 33.58C20.4847 33.58 20.0914 33.7533 19.798 34.1C19.5114 34.4467 19.368 34.9367 19.368 35.57C19.368 36.2033 19.5114 36.6967 19.798 37.05C20.0914 37.3967 20.4847 37.57 20.978 37.57Z" fill="black"/>
<path d="M16.5 19.7942C15.1318 20.5841 13.5798 21 12 21C10.4202 21 8.86817 20.5841 7.5 19.7942C6.13183 19.0043 4.99569 17.8682 4.20577 16.5C3.41586 15.1318 3 13.5798 3 12C3 10.4202 3.41586 8.86817 4.20577 7.5C4.99569 6.13183 6.13183 4.99569 7.5 4.20577C8.86817 3.41586 10.4202 3 12 3C13.5798 3 15.1318 3.41586 16.5 4.20577" stroke="black" stroke-width="1.1" stroke-linecap="round"/>
</svg>
