<svg width="24" height="44" viewBox="0 0 24 44" fill="none" xmlns="http://www.w3.org/2000/svg">
<g clip-path="url(#clip0_1833_18144)">
<mask id="mask0_1833_18144" style="mask-type:alpha" maskUnits="userSpaceOnUse" x="-1" y="0" width="26" height="25">
<g clip-path="url(#clip1_1833_18144)">
<line x1="0.192119" y1="18.2825" x2="18.7999" y2="-1.67199" stroke="black" stroke-linecap="round"/>
<line x1="0.0873829" y1="15.2843" x2="18.6952" y2="-4.67016" stroke="black" stroke-linecap="round"/>
<line x1="-0.0173534" y1="12.2861" x2="18.5905" y2="-7.66833" stroke="black" stroke-linecap="round"/>
<line x1="-0.12209" y1="9.28795" x2="18.4857" y2="-10.6665" stroke="black" stroke-linecap="round"/>
<line x1="-0.226826" y1="6.28978" x2="18.381" y2="-13.6647" stroke="black" stroke-linecap="round"/>
<line x1="0.401592" y1="24.2788" x2="20.9384" y2="2.25576" stroke="black" stroke-linecap="round"/>
<line x1="0.506084" y1="27.277" x2="23.9364" y2="2.15106" stroke="black" stroke-linecap="round"/>
<line x1="0.61082" y1="30.2751" x2="25.0056" y2="4.11494" stroke="black" stroke-linecap="round"/>
<line x1="0.715557" y1="33.2733" x2="25.1103" y2="7.11311" stroke="black" stroke-linecap="round"/>
<line x1="0.820293" y1="36.2715" x2="26.1796" y2="9.07699" stroke="black" stroke-linecap="round"/>
<line x1="0.925029" y1="39.2696" x2="25.3198" y2="13.1094" stroke="black" stroke-linecap="round"/>
<line x1="1.02977" y1="42.2678" x2="26.389" y2="15.0733" stroke="black" stroke-linecap="round"/>
<line x1="1.13426" y1="45.266" x2="26.4935" y2="18.0715" stroke="black" stroke-linecap="round"/>
<line x1="1.23899" y1="48.2641" x2="26.5983" y2="21.0697" stroke="black" stroke-linecap="round"/>
<line x1="1.34373" y1="51.2623" x2="26.703" y2="24.0678" stroke="black" stroke-linecap="round"/>
<line x1="0.296856" y1="21.2806" x2="18.9047" y2="1.32618" stroke="black" stroke-linecap="round"/>
<line x1="0.296856" y1="21.2806" x2="18.9047" y2="1.32618" stroke="black" stroke-linecap="round"/>
<line x1="-3.22487" y1="6.3944" x2="15.383" y2="-13.5601" stroke="black" stroke-linecap="round"/>
</g>
</mask>
<g mask="url(#mask0_1833_18144)">
<path d="M7 21.5V2.5C7 2.22386 7.22386 2 7.5 2H16.5C16.7761 2 17 2.22386 17 2.5V21.5C17 21.7761 16.7761 22 16.5 22H7.5C7.22386 22 7 21.7761 7 21.5Z" fill="black"/>
</g>
<path d="M7 21.5V2.5C7 2.22386 7.22386 2 7.5 2H16.5C16.7761 2 17 2.22386 17 2.5V21.5C17 21.7761 16.7761 22 16.5 22H7.5C7.22386 22 7 21.7761 7 21.5Z" stroke="black" stroke-width="1.1" stroke-linecap="round" stroke-linejoin="round"/>
</g>
<path d="M8.63172 37.08C7.73172 37.08 7.04839 36.84 6.58172 36.36C6.11505 35.8733 5.88172 35.17 5.88172 34.25V29.95H6.49172V34.2C6.49172 35.7467 7.20505 36.52 8.63172 36.52C10.0584 36.52 10.7717 35.7467 10.7717 34.2V29.95H11.3817V34.25C11.3817 35.17 11.1484 35.8733 10.6817 36.36C10.2151 36.84 9.53172 37.08 8.63172 37.08ZM13.048 38.8V32.15H13.658V33.06C13.8047 32.7533 14.0247 32.51 14.318 32.33C14.618 32.15 14.9647 32.06 15.358 32.06C15.7914 32.06 16.168 32.1633 16.488 32.37C16.8147 32.5767 17.0647 32.8667 17.238 33.24C17.418 33.6133 17.508 34.0567 17.508 34.57C17.508 35.0833 17.418 35.53 17.238 35.91C17.0647 36.2833 16.8147 36.5733 16.488 36.78C16.168 36.98 15.7914 37.08 15.358 37.08C14.9647 37.08 14.618 36.9933 14.318 36.82C14.0247 36.6467 13.8047 36.4067 13.658 36.1V38.8H13.048ZM15.268 36.57C15.7614 36.57 16.1547 36.3967 16.448 36.05C16.7414 35.6967 16.888 35.2033 16.888 34.57C16.888 33.9367 16.7414 33.4467 16.448 33.1C16.1547 32.7533 15.7614 32.58 15.268 32.58C14.7747 32.58 14.3814 32.7533 14.088 33.1C13.7947 33.4467 13.648 33.9367 13.648 34.57C13.648 35.2033 13.7947 35.6967 14.088 36.05C14.3814 36.3967 14.7747 36.57 15.268 36.57Z" fill="black"/>
<defs>
<clipPath id="clip0_1833_18144">
<rect width="24" height="24" fill="white"/>
</clipPath>
<clipPath id="clip1_1833_18144">
<rect width="24" height="24" fill="white" transform="translate(-0.411377 1) rotate(-2)"/>
</clipPath>
</defs>
</svg>
