<svg width="34" height="37" viewBox="0 0 34 37" fill="none" xmlns="http://www.w3.org/2000/svg">
<path d="M1.33211 30V22.95H1.94211V30H1.33211ZM3.66328 30V25.15H4.26328V26.02C4.42328 25.7 4.65328 25.46 4.95328 25.3C5.25328 25.14 5.58661 25.06 5.95328 25.06C7.10661 25.06 7.68328 25.6867 7.68328 26.94V30H7.07328V26.99C7.07328 26.51 6.97661 26.1567 6.78328 25.93C6.58995 25.7033 6.28328 25.59 5.86328 25.59C5.38328 25.59 4.99661 25.74 4.70328 26.04C4.41661 26.3333 4.27328 26.73 4.27328 27.23V30H3.66328ZM11.109 30.08C10.669 30.08 10.289 29.98 9.96898 29.78C9.64898 29.5733 9.39898 29.2833 9.21898 28.91C9.04565 28.53 8.95898 28.0833 8.95898 27.57C8.95898 26.8033 9.15232 26.1933 9.53898 25.74C9.92565 25.2867 10.449 25.06 11.109 25.06C11.4957 25.06 11.8357 25.15 12.129 25.33C12.429 25.5033 12.6523 25.7433 12.799 26.05V22.95H13.409V30H12.809V29.08C12.6623 29.3933 12.439 29.64 12.139 29.82C11.8457 29.9933 11.5023 30.08 11.109 30.08ZM11.189 29.57C11.6823 29.57 12.0757 29.3967 12.369 29.05C12.6623 28.6967 12.809 28.2033 12.809 27.57C12.809 26.9367 12.6623 26.4467 12.369 26.1C12.0757 25.7533 11.6823 25.58 11.189 25.58C10.6957 25.58 10.3023 25.7533 10.009 26.1C9.72232 26.4467 9.57898 26.9367 9.57898 27.57C9.57898 28.2033 9.72232 28.6967 10.009 29.05C10.3023 29.3967 10.6957 29.57 11.189 29.57ZM14.9109 23.87V23.1H15.7309V23.87H14.9109ZM15.0109 30V25.15H15.6209V30H15.0109ZM17.2277 30V25.15H17.8277V26.03C17.9677 25.7233 18.1711 25.49 18.4377 25.33C18.7044 25.17 19.0444 25.0767 19.4577 25.05L19.7077 25.03L19.7677 25.56L19.3377 25.61C18.8644 25.65 18.4977 25.8067 18.2377 26.08C17.9777 26.3467 17.8477 26.7067 17.8477 27.16V30H17.2277ZM22.6971 30.08C21.9504 30.08 21.3604 29.86 20.9271 29.42C20.5004 28.9733 20.2871 28.3633 20.2871 27.59C20.2871 27.09 20.3838 26.65 20.5771 26.27C20.7704 25.89 21.0371 25.5933 21.3771 25.38C21.7238 25.1667 22.1204 25.06 22.5671 25.06C23.2138 25.06 23.7171 25.27 24.0771 25.69C24.4371 26.11 24.6171 26.6867 24.6171 27.42V27.7H20.8871C20.9071 28.3 21.0704 28.7633 21.3771 29.09C21.6904 29.41 22.1238 29.57 22.6771 29.57C22.9771 29.57 23.2571 29.5233 23.5171 29.43C23.7838 29.3367 24.0438 29.18 24.2971 28.96L24.5371 29.42C24.3238 29.6267 24.0504 29.79 23.7171 29.91C23.3838 30.0233 23.0438 30.08 22.6971 30.08ZM22.5771 25.55C22.0704 25.55 21.6738 25.71 21.3871 26.03C21.1071 26.3433 20.9438 26.75 20.8971 27.25H24.0671C24.0538 26.7167 23.9204 26.3 23.6671 26C23.4138 25.7 23.0504 25.55 22.5771 25.55ZM27.8405 30.08C27.3672 30.08 26.9605 29.9767 26.6205 29.77C26.2805 29.5567 26.0172 29.26 25.8305 28.88C25.6505 28.4933 25.5605 28.0467 25.5605 27.54C25.5605 26.7733 25.7605 26.17 26.1605 25.73C26.5672 25.2833 27.1272 25.06 27.8405 25.06C28.1339 25.06 28.4239 25.1167 28.7105 25.23C28.9972 25.3433 29.2372 25.5 29.4305 25.7L29.1905 26.16C28.9839 25.96 28.7639 25.8167 28.5305 25.73C28.2972 25.6367 28.0739 25.59 27.8605 25.59C27.3205 25.59 26.9039 25.76 26.6105 26.1C26.3239 26.44 26.1805 26.9233 26.1805 27.55C26.1805 28.1767 26.3239 28.67 26.6105 29.03C26.9039 29.3833 27.3205 29.56 27.8605 29.56C28.0739 29.56 28.2972 29.5167 28.5305 29.43C28.7639 29.3367 28.9839 29.19 29.1905 28.99L29.4305 29.45C29.2372 29.6433 28.9939 29.7967 28.7005 29.91C28.4139 30.0233 28.1272 30.08 27.8405 30.08ZM32.2804 30.08C31.7404 30.08 31.3337 29.9333 31.0604 29.64C30.7937 29.3467 30.6604 28.9267 30.6604 28.38V25.64H29.7004V25.15H30.6604V23.65H31.2704V25.15H32.8404V25.64H31.2704V28.3C31.2704 28.7067 31.3537 29.0167 31.5204 29.23C31.6871 29.4433 31.9637 29.55 32.3504 29.55C32.4637 29.55 32.5737 29.5367 32.6804 29.51C32.7871 29.4833 32.8804 29.4533 32.9604 29.42L33.0804 29.9C33.0071 29.9467 32.8904 29.9867 32.7304 30.02C32.5704 30.06 32.4204 30.08 32.2804 30.08Z" fill="black"/>
<path d="M20 1L20 10" stroke="black" stroke-width="1.1" stroke-linecap="round"/>
<path d="M16 14L20 10" stroke="black" stroke-width="1.1" stroke-linecap="round"/>
</svg>
