<svg width="35" height="41" viewBox="0 0 35 41" fill="none" xmlns="http://www.w3.org/2000/svg">
<g filter="url(#filter0_d_1863_18294)">
<circle cx="19" cy="12" r="7" stroke="black" stroke-width="1.1"/>
<circle cx="19" cy="12" r="4" transform="rotate(30 19 12)" stroke="black" stroke-width="1.1" stroke-linecap="round" stroke-dasharray="1 3"/>
<path d="M4.97664 32V24.95H5.58664V32H4.97664ZM7.30781 32V27.15H7.90781V28.02C8.06781 27.7 8.29781 27.46 8.59781 27.3C8.89781 27.14 9.23115 27.06 9.59781 27.06C10.7511 27.06 11.3278 27.6867 11.3278 28.94V32H10.7178V28.99C10.7178 28.51 10.6211 28.1567 10.4278 27.93C10.2345 27.7033 9.92781 27.59 9.50781 27.59C9.02781 27.59 8.64115 27.74 8.34781 28.04C8.06115 28.3333 7.91781 28.73 7.91781 29.23V32H7.30781ZM12.9035 32V24.95H13.5135V27.99C13.6802 27.6833 13.9102 27.4533 14.2035 27.3C14.5035 27.14 14.8335 27.06 15.1935 27.06C16.3468 27.06 16.9235 27.6867 16.9235 28.94V32H16.3135V28.99C16.3135 28.51 16.2168 28.1567 16.0235 27.93C15.8302 27.7033 15.5235 27.59 15.1035 27.59C14.6235 27.59 14.2368 27.74 13.9435 28.04C13.6568 28.3333 13.5135 28.73 13.5135 29.23V32H12.9035ZM19.9992 32.08C19.6726 32.08 19.3792 32.0167 19.1192 31.89C18.8659 31.7633 18.6626 31.59 18.5092 31.37C18.3626 31.15 18.2892 30.9033 18.2892 30.63C18.2892 30.27 18.3792 29.99 18.5592 29.79C18.7392 29.5833 19.0426 29.4367 19.4692 29.35C19.8959 29.2633 20.4826 29.22 21.2292 29.22H21.5392V28.86C21.5392 28.4133 21.4492 28.09 21.2692 27.89C21.0892 27.6833 20.8026 27.58 20.4092 27.58C20.1159 27.58 19.8326 27.6233 19.5592 27.71C19.2926 27.7967 19.0159 27.9333 18.7292 28.12L18.4892 27.65C18.7426 27.47 19.0426 27.3267 19.3892 27.22C19.7359 27.1133 20.0726 27.06 20.3992 27.06C20.9859 27.06 21.4192 27.21 21.6992 27.51C21.9859 27.81 22.1292 28.27 22.1292 28.89V32H21.5492V31.13C21.4159 31.43 21.2126 31.6633 20.9392 31.83C20.6726 31.9967 20.3592 32.08 19.9992 32.08ZM20.0792 31.59C20.3659 31.59 20.6159 31.5233 20.8292 31.39C21.0492 31.25 21.2226 31.06 21.3492 30.82C21.4759 30.58 21.5392 30.3067 21.5392 30V29.67H21.2392C20.6392 29.67 20.1692 29.6967 19.8292 29.75C19.4959 29.8033 19.2626 29.8967 19.1292 30.03C18.9959 30.1633 18.9292 30.3467 18.9292 30.58C18.9292 30.88 19.0326 31.1233 19.2392 31.31C19.4459 31.4967 19.7259 31.59 20.0792 31.59ZM25.1338 32.08C24.6805 32.08 24.3305 31.9433 24.0838 31.67C23.8438 31.39 23.7238 30.99 23.7238 30.47V24.95H24.3338V30.4C24.3338 31.1667 24.6338 31.55 25.2338 31.55C25.4005 31.55 25.5538 31.53 25.6938 31.49L25.6738 32.02C25.4805 32.06 25.3005 32.08 25.1338 32.08ZM28.6366 32.08C27.8899 32.08 27.2999 31.86 26.8666 31.42C26.4399 30.9733 26.2266 30.3633 26.2266 29.59C26.2266 29.09 26.3232 28.65 26.5166 28.27C26.7099 27.89 26.9766 27.5933 27.3166 27.38C27.6632 27.1667 28.0599 27.06 28.5066 27.06C29.1532 27.06 29.6566 27.27 30.0166 27.69C30.3766 28.11 30.5566 28.6867 30.5566 29.42V29.7H26.8266C26.8466 30.3 27.0099 30.7633 27.3166 31.09C27.6299 31.41 28.0632 31.57 28.6166 31.57C28.9166 31.57 29.1966 31.5233 29.4566 31.43C29.7232 31.3367 29.9832 31.18 30.2366 30.96L30.4766 31.42C30.2632 31.6267 29.9899 31.79 29.6566 31.91C29.3232 32.0233 28.9832 32.08 28.6366 32.08ZM28.5166 27.55C28.0099 27.55 27.6132 27.71 27.3266 28.03C27.0466 28.3433 26.8832 28.75 26.8366 29.25H30.0066C29.9932 28.7167 29.8599 28.3 29.6066 28C29.3532 27.7 28.9899 27.55 28.5166 27.55Z" fill="black"/>
</g>
<defs>
<filter id="filter0_d_1863_18294" x="0.976654" y="0" width="34.0233" height="40.08" filterUnits="userSpaceOnUse" color-interpolation-filters="sRGB">
<feFlood flood-opacity="0" result="BackgroundImageFix"/>
<feColorMatrix in="SourceAlpha" type="matrix" values="0 0 0 0 0 0 0 0 0 0 0 0 0 0 0 0 0 0 127 0" result="hardAlpha"/>
<feOffset dy="4"/>
<feGaussianBlur stdDeviation="2"/>
<feComposite in2="hardAlpha" operator="out"/>
<feColorMatrix type="matrix" values="0 0 0 0 0 0 0 0 0 0 0 0 0 0 0 0 0 0 0.25 0"/>
<feBlend mode="normal" in2="BackgroundImageFix" result="effect1_dropShadow_1863_18294"/>
<feBlend mode="normal" in="SourceGraphic" in2="effect1_dropShadow_1863_18294" result="shape"/>
</filter>
</defs>
</svg>
