<svg width="60" height="48" viewBox="0 0 60 48" fill="none" xmlns="http://www.w3.org/2000/svg">
<path d="M1.13484 41V33.95H1.74484V41H1.13484ZM3.46602 41V36.15H4.06602V37.02C4.22602 36.7 4.45602 36.46 4.75602 36.3C5.05602 36.14 5.38935 36.06 5.75602 36.06C6.90935 36.06 7.48602 36.6867 7.48602 37.94V41H6.87602V37.99C6.87602 37.51 6.77935 37.1567 6.58602 36.93C6.39268 36.7033 6.08602 36.59 5.66602 36.59C5.18602 36.59 4.79935 36.74 4.50602 37.04C4.21935 37.3333 4.07602 37.73 4.07602 38.23V41H3.46602ZM9.06172 41V36.15H9.66172V37.02C9.82172 36.7 10.0517 36.46 10.3517 36.3C10.6517 36.14 10.9851 36.06 11.3517 36.06C12.5051 36.06 13.0817 36.6867 13.0817 37.94V41H12.4717V37.99C12.4717 37.51 12.3751 37.1567 12.1817 36.93C11.9884 36.7033 11.6817 36.59 11.2617 36.59C10.7817 36.59 10.3951 36.74 10.1017 37.04C9.81505 37.3333 9.67172 37.73 9.67172 38.23V41H9.06172ZM16.7674 41.08C16.0208 41.08 15.4308 40.86 14.9974 40.42C14.5708 39.9733 14.3574 39.3633 14.3574 38.59C14.3574 38.09 14.4541 37.65 14.6474 37.27C14.8408 36.89 15.1074 36.5933 15.4474 36.38C15.7941 36.1667 16.1908 36.06 16.6374 36.06C17.2841 36.06 17.7874 36.27 18.1474 36.69C18.5074 37.11 18.6874 37.6867 18.6874 38.42V38.7H14.9574C14.9774 39.3 15.1408 39.7633 15.4474 40.09C15.7608 40.41 16.1941 40.57 16.7474 40.57C17.0474 40.57 17.3274 40.5233 17.5874 40.43C17.8541 40.3367 18.1141 40.18 18.3674 39.96L18.6074 40.42C18.3941 40.6267 18.1208 40.79 17.7874 40.91C17.4541 41.0233 17.1141 41.08 16.7674 41.08ZM16.6474 36.55C16.1408 36.55 15.7441 36.71 15.4574 37.03C15.1774 37.3433 15.0141 37.75 14.9674 38.25H18.1374C18.1241 37.7167 17.9908 37.3 17.7374 37C17.4841 36.7 17.1208 36.55 16.6474 36.55ZM19.9309 41V36.15H20.5309V37.03C20.6709 36.7233 20.8742 36.49 21.1409 36.33C21.4075 36.17 21.7475 36.0767 22.1609 36.05L22.4109 36.03L22.4709 36.56L22.0409 36.61C21.5675 36.65 21.2009 36.8067 20.9409 37.08C20.6809 37.3467 20.5509 37.7067 20.5509 38.16V41H19.9309ZM27.4386 41.08C27.0786 41.08 26.7319 41.0267 26.3986 40.92C26.0719 40.8133 25.8019 40.66 25.5886 40.46L25.8086 40.01C26.0553 40.21 26.3186 40.3567 26.5986 40.45C26.8786 40.5367 27.1653 40.58 27.4586 40.58C27.8719 40.58 28.1819 40.5067 28.3886 40.36C28.6019 40.2067 28.7086 39.9967 28.7086 39.73C28.7086 39.5233 28.6386 39.36 28.4986 39.24C28.3586 39.12 28.1386 39.0233 27.8386 38.95L26.9686 38.75C26.1486 38.5633 25.7386 38.14 25.7386 37.48C25.7386 37.0533 25.9053 36.71 26.2386 36.45C26.5719 36.19 27.0119 36.06 27.5586 36.06C27.8919 36.06 28.2053 36.1167 28.4986 36.23C28.7919 36.3367 29.0319 36.4933 29.2186 36.7L28.9786 37.15C28.7853 36.9567 28.5653 36.8133 28.3186 36.72C28.0719 36.62 27.8153 36.57 27.5486 36.57C27.1619 36.57 26.8619 36.65 26.6486 36.81C26.4419 36.97 26.3386 37.1867 26.3386 37.46C26.3386 37.6667 26.4019 37.8333 26.5286 37.96C26.6553 38.0867 26.8619 38.1833 27.1486 38.25L28.0186 38.45C28.4519 38.55 28.7753 38.7 28.9886 38.9C29.2019 39.0933 29.3086 39.3567 29.3086 39.69C29.3086 40.1233 29.1386 40.4633 28.7986 40.71C28.4586 40.9567 28.0053 41.08 27.4386 41.08ZM30.634 41V33.95H31.244V36.99C31.4107 36.6833 31.6407 36.4533 31.934 36.3C32.234 36.14 32.564 36.06 32.924 36.06C34.0773 36.06 34.654 36.6867 34.654 37.94V41H34.044V37.99C34.044 37.51 33.9473 37.1567 33.754 36.93C33.5607 36.7033 33.254 36.59 32.834 36.59C32.354 36.59 31.9673 36.74 31.674 37.04C31.3873 37.3333 31.244 37.73 31.244 38.23V41H30.634ZM37.7297 41.08C37.403 41.08 37.1097 41.0167 36.8497 40.89C36.5964 40.7633 36.393 40.59 36.2397 40.37C36.093 40.15 36.0197 39.9033 36.0197 39.63C36.0197 39.27 36.1097 38.99 36.2897 38.79C36.4697 38.5833 36.773 38.4367 37.1997 38.35C37.6264 38.2633 38.213 38.22 38.9597 38.22H39.2697V37.86C39.2697 37.4133 39.1797 37.09 38.9997 36.89C38.8197 36.6833 38.533 36.58 38.1397 36.58C37.8464 36.58 37.563 36.6233 37.2897 36.71C37.023 36.7967 36.7464 36.9333 36.4597 37.12L36.2197 36.65C36.473 36.47 36.773 36.3267 37.1197 36.22C37.4664 36.1133 37.803 36.06 38.1297 36.06C38.7164 36.06 39.1497 36.21 39.4297 36.51C39.7164 36.81 39.8597 37.27 39.8597 37.89V41H39.2797V40.13C39.1464 40.43 38.943 40.6633 38.6697 40.83C38.403 40.9967 38.0897 41.08 37.7297 41.08ZM37.8097 40.59C38.0964 40.59 38.3464 40.5233 38.5597 40.39C38.7797 40.25 38.953 40.06 39.0797 39.82C39.2064 39.58 39.2697 39.3067 39.2697 39V38.67H38.9697C38.3697 38.67 37.8997 38.6967 37.5597 38.75C37.2264 38.8033 36.993 38.8967 36.8597 39.03C36.7264 39.1633 36.6597 39.3467 36.6597 39.58C36.6597 39.88 36.763 40.1233 36.9697 40.31C37.1764 40.4967 37.4564 40.59 37.8097 40.59ZM41.4543 42.8V36.15H42.0643V37.06C42.211 36.7533 42.431 36.51 42.7243 36.33C43.0243 36.15 43.371 36.06 43.7643 36.06C44.1976 36.06 44.5743 36.1633 44.8943 36.37C45.221 36.5767 45.471 36.8667 45.6443 37.24C45.8243 37.6133 45.9143 38.0567 45.9143 38.57C45.9143 39.0833 45.8243 39.53 45.6443 39.91C45.471 40.2833 45.221 40.5733 44.8943 40.78C44.5743 40.98 44.1976 41.08 43.7643 41.08C43.371 41.08 43.0243 40.9933 42.7243 40.82C42.431 40.6467 42.211 40.4067 42.0643 40.1V42.8H41.4543ZM43.6743 40.57C44.1676 40.57 44.561 40.3967 44.8543 40.05C45.1476 39.6967 45.2943 39.2033 45.2943 38.57C45.2943 37.9367 45.1476 37.4467 44.8543 37.1C44.561 36.7533 44.1676 36.58 43.6743 36.58C43.181 36.58 42.7876 36.7533 42.4943 37.1C42.201 37.4467 42.0543 37.9367 42.0543 38.57C42.0543 39.2033 42.201 39.6967 42.4943 40.05C42.7876 40.3967 43.181 40.57 43.6743 40.57ZM47.1063 34.87V34.1H47.9263V34.87H47.1063ZM47.2063 41V36.15H47.8163V41H47.2063ZM49.423 41V36.15H50.023V37.02C50.183 36.7 50.413 36.46 50.713 36.3C51.013 36.14 51.3464 36.06 51.713 36.06C52.8664 36.06 53.443 36.6867 53.443 37.94V41H52.833V37.99C52.833 37.51 52.7364 37.1567 52.543 36.93C52.3497 36.7033 52.043 36.59 51.623 36.59C51.143 36.59 50.7564 36.74 50.463 37.04C50.1764 37.3333 50.033 37.73 50.033 38.23V41H49.423ZM57.1288 42.88C56.2821 42.88 55.5788 42.6567 55.0188 42.21L55.2488 41.75C55.5554 41.97 55.8521 42.1267 56.1388 42.22C56.4254 42.32 56.7488 42.37 57.1088 42.37C57.5954 42.37 57.9654 42.2367 58.2188 41.97C58.4721 41.7033 58.5988 41.3167 58.5988 40.81V39.87C58.4588 40.19 58.2354 40.44 57.9288 40.62C57.6288 40.8 57.2854 40.89 56.8988 40.89C56.4454 40.89 56.0554 40.79 55.7288 40.59C55.4088 40.3833 55.1588 40.1 54.9788 39.74C54.8054 39.3733 54.7188 38.95 54.7188 38.47C54.7188 37.99 54.8054 37.57 54.9788 37.21C55.1588 36.85 55.4088 36.57 55.7288 36.37C56.0554 36.1633 56.4454 36.06 56.8988 36.06C57.2854 36.06 57.6288 36.15 57.9288 36.33C58.2288 36.51 58.4488 36.7567 58.5888 37.07V36.15H59.1888V40.72C59.1888 42.16 58.5021 42.88 57.1288 42.88ZM56.9688 40.37C57.4688 40.37 57.8654 40.2 58.1588 39.86C58.4521 39.5133 58.5988 39.05 58.5988 38.47C58.5988 37.89 58.4521 37.43 58.1588 37.09C57.8654 36.75 57.4688 36.58 56.9688 36.58C56.4621 36.58 56.0621 36.75 55.7688 37.09C55.4821 37.43 55.3388 37.89 55.3388 38.47C55.3388 39.05 55.4821 39.5133 55.7688 39.86C56.0621 40.2 56.4621 40.37 56.9688 40.37Z" fill="black"/>
<g clip-path="url(#clip0_1863_18331)">
<path d="M38.4393 20.423C37.4849 22.3284 35.8853 23.8333 33.9253 24.6699C31.9653 25.5064 29.772 25.6204 27.7359 24.9914C25.6998 24.3624 23.9529 23.0313 22.8062 21.235C21.6596 19.4388 21.1875 17.2939 21.474 15.1822C21.7606 13.0705 22.7871 11.1289 24.371 9.70319C25.9549 8.27745 27.9933 7.45999 30.1234 7.39633C32.2536 7.33267 34.3371 8.02693 36.0033 9.35554C37.6695 10.6842 38.8102 12.5609 39.2224 14.6517" stroke="black" stroke-width="1.1"/>
<path d="M21.5536 18.1601L24.2052 15.5084V15.5084C25.6697 14.044 28.044 14.044 29.5085 15.5084L30.3924 16.3923L31.0995 17.0994C32.6616 18.6615 35.1943 18.6615 36.7564 17.0994L36.9331 16.9226L39.2312 14.6245" stroke="black" stroke-width="1.1" stroke-linecap="round" stroke-linejoin="round"/>
<path d="M29.8398 12.9711C28.6822 19.5365 28.3928 21.1779 28.3928 21.1779" stroke="black" stroke-width="0.916667" stroke-linecap="round" stroke-linejoin="round"/>
<path d="M33.1221 12.3923C31.9644 18.9577 31.675 20.599 31.675 20.599" stroke="black" stroke-width="0.916667" stroke-linecap="round" stroke-linejoin="round"/>
<path d="M38.3926 20.3923H38.3926" stroke="black" stroke-width="1.1" stroke-linecap="round" stroke-linejoin="round"/>
</g>
<defs>
<clipPath id="clip0_1863_18331">
<rect width="24" height="24" fill="white" transform="matrix(-0.866025 0.5 0.5 0.866025 34.7847 0)"/>
</clipPath>
</defs>
</svg>
