<svg width="31" height="41" viewBox="0 0 31 41" fill="none" xmlns="http://www.w3.org/2000/svg">
<path d="M1.84188 34V26.95H2.45188V30.19H2.47188L6.03188 26.95H6.84188L3.05188 30.39L7.08188 34H6.24188L2.47188 30.65H2.45188V34H1.84188ZM7.79609 34V29.15H8.39609V30.02C8.55609 29.7 8.78609 29.46 9.08609 29.3C9.38609 29.14 9.71943 29.06 10.0861 29.06C11.2394 29.06 11.8161 29.6867 11.8161 30.94V34H11.2061V30.99C11.2061 30.51 11.1094 30.1567 10.9161 29.93C10.7228 29.7033 10.4161 29.59 9.99609 29.59C9.51609 29.59 9.12943 29.74 8.83609 30.04C8.54943 30.3333 8.40609 30.73 8.40609 31.23V34H7.79609ZM15.5018 34.08C14.7551 34.08 14.1651 33.86 13.7318 33.42C13.3051 32.9733 13.0918 32.3633 13.0918 31.59C13.0918 31.09 13.1885 30.65 13.3818 30.27C13.5751 29.89 13.8418 29.5933 14.1818 29.38C14.5285 29.1667 14.9251 29.06 15.3718 29.06C16.0185 29.06 16.5218 29.27 16.8818 29.69C17.2418 30.11 17.4218 30.6867 17.4218 31.42V31.7H13.6918C13.7118 32.3 13.8751 32.7633 14.1818 33.09C14.4951 33.41 14.9285 33.57 15.4818 33.57C15.7818 33.57 16.0618 33.5233 16.3218 33.43C16.5885 33.3367 16.8485 33.18 17.1018 32.96L17.3418 33.42C17.1285 33.6267 16.8551 33.79 16.5218 33.91C16.1885 34.0233 15.8485 34.08 15.5018 34.08ZM15.3818 29.55C14.8751 29.55 14.4785 29.71 14.1918 30.03C13.9118 30.3433 13.7485 30.75 13.7018 31.25H16.8718C16.8585 30.7167 16.7251 30.3 16.4718 30C16.2185 29.7 15.8551 29.55 15.3818 29.55ZM20.7752 34.08C20.0286 34.08 19.4386 33.86 19.0052 33.42C18.5786 32.9733 18.3652 32.3633 18.3652 31.59C18.3652 31.09 18.4619 30.65 18.6552 30.27C18.8486 29.89 19.1152 29.5933 19.4552 29.38C19.8019 29.1667 20.1986 29.06 20.6452 29.06C21.2919 29.06 21.7952 29.27 22.1552 29.69C22.5152 30.11 22.6952 30.6867 22.6952 31.42V31.7H18.9652C18.9852 32.3 19.1486 32.7633 19.4552 33.09C19.7686 33.41 20.2019 33.57 20.7552 33.57C21.0552 33.57 21.3352 33.5233 21.5952 33.43C21.8619 33.3367 22.1219 33.18 22.3752 32.96L22.6152 33.42C22.4019 33.6267 22.1286 33.79 21.7952 33.91C21.4619 34.0233 21.1219 34.08 20.7752 34.08ZM20.6552 29.55C20.1486 29.55 19.7519 29.71 19.4652 30.03C19.1852 30.3433 19.0219 30.75 18.9752 31.25H22.1452C22.1319 30.7167 21.9986 30.3 21.7452 30C21.4919 29.7 21.1286 29.55 20.6552 29.55ZM26.5684 34V26.95H27.1784V33.45H30.8584V34H26.5684Z" fill="black"/>
<path d="M18 4.5L18 19.5" stroke="black" stroke-width="1.1" stroke-linecap="round" stroke-linejoin="round"/>
<path d="M12 10L18 10" stroke="black" stroke-width="1.1" stroke-linecap="round" stroke-linejoin="round"/>
<path d="M12 14L18 14" stroke="black" stroke-width="1.1" stroke-linecap="round" stroke-linejoin="round"/>
</svg>
