<svg width="24" height="41" viewBox="0 0 24 41" fill="none" xmlns="http://www.w3.org/2000/svg">
<path d="M4.02547 34V26.95H4.63547V33.45H8.31547V34H4.02547ZM11.3182 34.08C10.5715 34.08 9.98154 33.86 9.5482 33.42C9.12154 32.9733 8.9082 32.3633 8.9082 31.59C8.9082 31.09 9.00487 30.65 9.1982 30.27C9.39154 29.89 9.6582 29.5933 9.9982 29.38C10.3449 29.1667 10.7415 29.06 11.1882 29.06C11.8349 29.06 12.3382 29.27 12.6982 29.69C13.0582 30.11 13.2382 30.6867 13.2382 31.42V31.7H9.5082C9.5282 32.3 9.69154 32.7633 9.9982 33.09C10.3115 33.41 10.7449 33.57 11.2982 33.57C11.5982 33.57 11.8782 33.5233 12.1382 33.43C12.4049 33.3367 12.6649 33.18 12.9182 32.96L13.1582 33.42C12.9449 33.6267 12.6715 33.79 12.3382 33.91C12.0049 34.0233 11.6649 34.08 11.3182 34.08ZM11.1982 29.55C10.6915 29.55 10.2949 29.71 10.0082 30.03C9.7282 30.3433 9.56487 30.75 9.5182 31.25H12.6882C12.6749 30.7167 12.5415 30.3 12.2882 30C12.0349 29.7 11.6715 29.55 11.1982 29.55ZM14.7116 34V29.64H13.7516V29.15H14.7116V28.91C14.7116 27.6767 15.335 27.0233 16.5816 26.95L16.9316 26.92L16.9816 27.42L16.5216 27.45C16.1083 27.4767 15.805 27.6067 15.6116 27.84C15.4183 28.0733 15.3216 28.4133 15.3216 28.86V29.15H16.7516V29.64H15.3216V34H14.7116ZM19.2804 34.08C18.7404 34.08 18.3337 33.9333 18.0604 33.64C17.7937 33.3467 17.6604 32.9267 17.6604 32.38V29.64H16.7004V29.15H17.6604V27.65H18.2704V29.15H19.8404V29.64H18.2704V32.3C18.2704 32.7067 18.3537 33.0167 18.5204 33.23C18.6871 33.4433 18.9637 33.55 19.3504 33.55C19.4637 33.55 19.5737 33.5367 19.6804 33.51C19.7871 33.4833 19.8804 33.4533 19.9604 33.42L20.0804 33.9C20.0071 33.9467 19.8904 33.9867 19.7304 34.02C19.5704 34.06 19.4204 34.08 19.2804 34.08Z" fill="black"/>
<path d="M5.84988 7.18765C5.94476 7.06905 6.08842 7 6.24031 7H21.5C21.7761 7 22 7.22386 22 7.5V16.5C22 16.7761 21.7761 17 21.5 17H6.24031C6.08842 17 5.94476 16.931 5.84988 16.8123L2.24988 12.3123C2.10379 12.1297 2.10379 11.8703 2.24988 11.6877L5.84988 7.18765Z" stroke="black" stroke-width="1.1"/>
<g clip-path="url(#clip0_1863_18236)">
<path d="M11 10H15L11 14H15" stroke="black" stroke-width="1.1" stroke-linecap="round" stroke-linejoin="round"/>
</g>
<defs>
<clipPath id="clip0_1863_18236">
<rect width="6" height="6" fill="white" transform="translate(10 9)"/>
</clipPath>
</defs>
</svg>
