<svg width="52" height="44" viewBox="0 0 52 44" fill="none" xmlns="http://www.w3.org/2000/svg">
<circle cx="29" cy="12" r="0.75" fill="black"/>
<path d="M34 21.4784V2.5216C34 2.06739 33.4433 1.84848 33.1339 2.18105L24.3168 11.6594C24.1383 11.8514 24.1383 12.1486 24.3168 12.3406L33.1339 21.8189C33.4433 22.1515 34 21.9326 34 21.4784Z" stroke="black" stroke-width="1.1" stroke-linecap="round" stroke-linejoin="round"/>
<path d="M1.68953 37V29.95H2.29953V36.45H5.97953V37H1.68953ZM8.98227 37.08C8.2356 37.08 7.6456 36.86 7.21227 36.42C6.7856 35.9733 6.57227 35.3633 6.57227 34.59C6.57227 34.09 6.66893 33.65 6.86227 33.27C7.0556 32.89 7.32227 32.5933 7.66227 32.38C8.00893 32.1667 8.4056 32.06 8.85227 32.06C9.49893 32.06 10.0023 32.27 10.3623 32.69C10.7223 33.11 10.9023 33.6867 10.9023 34.42V34.7H7.17227C7.19227 35.3 7.3556 35.7633 7.66227 36.09C7.9756 36.41 8.40893 36.57 8.96227 36.57C9.26227 36.57 9.54227 36.5233 9.80227 36.43C10.0689 36.3367 10.3289 36.18 10.5823 35.96L10.8223 36.42C10.6089 36.6267 10.3356 36.79 10.0023 36.91C9.66893 37.0233 9.32893 37.08 8.98227 37.08ZM8.86227 32.55C8.3556 32.55 7.95893 32.71 7.67227 33.03C7.39227 33.3433 7.22893 33.75 7.18227 34.25H10.3523C10.3389 33.7167 10.2056 33.3 9.95227 33C9.69893 32.7 9.3356 32.55 8.86227 32.55ZM12.3757 37V32.64H11.4157V32.15H12.3757V31.91C12.3757 30.6767 12.999 30.0233 14.2457 29.95L14.5957 29.92L14.6457 30.42L14.1857 30.45C13.7724 30.4767 13.469 30.6067 13.2757 30.84C13.0824 31.0733 12.9857 31.4133 12.9857 31.86V32.15H14.4157V32.64H12.9857V37H12.3757ZM16.9445 37.08C16.4045 37.08 15.9978 36.9333 15.7245 36.64C15.4578 36.3467 15.3245 35.9267 15.3245 35.38V32.64H14.3645V32.15H15.3245V30.65H15.9345V32.15H17.5045V32.64H15.9345V35.3C15.9345 35.7067 16.0178 36.0167 16.1845 36.23C16.3511 36.4433 16.6278 36.55 17.0145 36.55C17.1278 36.55 17.2378 36.5367 17.3445 36.51C17.4511 36.4833 17.5445 36.4533 17.6245 36.42L17.7445 36.9C17.6711 36.9467 17.5545 36.9867 17.3945 37.02C17.2345 37.06 17.0845 37.08 16.9445 37.08ZM18.2771 34.6V34.08H20.9971V34.6H18.2771ZM22.5563 37V32.15H23.1563V33C23.4563 32.3733 23.9663 32.06 24.6863 32.06C25.4597 32.06 25.9497 32.3967 26.1563 33.07C26.2963 32.7567 26.5097 32.51 26.7963 32.33C27.083 32.15 27.4163 32.06 27.7963 32.06C28.8697 32.06 29.4063 32.6867 29.4063 33.94V37H28.7963V33.99C28.7963 33.51 28.7097 33.1567 28.5363 32.93C28.3697 32.7033 28.0863 32.59 27.6863 32.59C27.2597 32.59 26.9197 32.74 26.6663 33.04C26.413 33.3333 26.2863 33.7333 26.2863 34.24V37H25.6763V33.99C25.6763 33.51 25.5897 33.1567 25.4163 32.93C25.2497 32.7033 24.9697 32.59 24.5763 32.59C24.143 32.59 23.7997 32.74 23.5463 33.04C23.293 33.3333 23.1663 33.7333 23.1663 34.24V37H22.5563ZM30.9031 30.87V30.1H31.7231V30.87H30.9031ZM31.0031 37V32.15H31.6131V37H31.0031ZM35.0699 37.08C34.6299 37.08 34.2499 36.98 33.9299 36.78C33.6099 36.5733 33.3599 36.2833 33.1799 35.91C33.0066 35.53 32.9199 35.0833 32.9199 34.57C32.9199 33.8033 33.1133 33.1933 33.4999 32.74C33.8866 32.2867 34.4099 32.06 35.0699 32.06C35.4566 32.06 35.7966 32.15 36.0899 32.33C36.3899 32.5033 36.6133 32.7433 36.7599 33.05V29.95H37.3699V37H36.7699V36.08C36.6233 36.3933 36.3999 36.64 36.0999 36.82C35.8066 36.9933 35.4633 37.08 35.0699 37.08ZM35.1499 36.57C35.6433 36.57 36.0366 36.3967 36.3299 36.05C36.6233 35.6967 36.7699 35.2033 36.7699 34.57C36.7699 33.9367 36.6233 33.4467 36.3299 33.1C36.0366 32.7533 35.6433 32.58 35.1499 32.58C34.6566 32.58 34.2633 32.7533 33.9699 33.1C33.6833 33.4467 33.5399 33.9367 33.5399 34.57C33.5399 35.2033 33.6833 35.6967 33.9699 36.05C34.2633 36.3967 34.6566 36.57 35.1499 36.57ZM40.8219 37.08C40.3819 37.08 40.0019 36.98 39.6819 36.78C39.3619 36.5733 39.1119 36.2833 38.9319 35.91C38.7585 35.53 38.6719 35.0833 38.6719 34.57C38.6719 33.8033 38.8652 33.1933 39.2519 32.74C39.6385 32.2867 40.1619 32.06 40.8219 32.06C41.2085 32.06 41.5485 32.15 41.8419 32.33C42.1419 32.5033 42.3652 32.7433 42.5119 33.05V29.95H43.1219V37H42.5219V36.08C42.3752 36.3933 42.1519 36.64 41.8519 36.82C41.5585 36.9933 41.2152 37.08 40.8219 37.08ZM40.9019 36.57C41.3952 36.57 41.7885 36.3967 42.0819 36.05C42.3752 35.6967 42.5219 35.2033 42.5219 34.57C42.5219 33.9367 42.3752 33.4467 42.0819 33.1C41.7885 32.7533 41.3952 32.58 40.9019 32.58C40.4085 32.58 40.0152 32.7533 39.7219 33.1C39.4352 33.4467 39.2919 33.9367 39.2919 34.57C39.2919 35.2033 39.4352 35.6967 39.7219 36.05C40.0152 36.3967 40.4085 36.57 40.9019 36.57ZM46.1338 37.08C45.6805 37.08 45.3305 36.9433 45.0838 36.67C44.8438 36.39 44.7238 35.99 44.7238 35.47V29.95H45.3338V35.4C45.3338 36.1667 45.6338 36.55 46.2338 36.55C46.4005 36.55 46.5538 36.53 46.6938 36.49L46.6738 37.02C46.4805 37.06 46.3005 37.08 46.1338 37.08ZM49.6366 37.08C48.8899 37.08 48.2999 36.86 47.8666 36.42C47.4399 35.9733 47.2266 35.3633 47.2266 34.59C47.2266 34.09 47.3232 33.65 47.5166 33.27C47.7099 32.89 47.9766 32.5933 48.3166 32.38C48.6632 32.1667 49.0599 32.06 49.5066 32.06C50.1532 32.06 50.6566 32.27 51.0166 32.69C51.3766 33.11 51.5566 33.6867 51.5566 34.42V34.7H47.8266C47.8466 35.3 48.0099 35.7633 48.3166 36.09C48.6299 36.41 49.0632 36.57 49.6166 36.57C49.9166 36.57 50.1966 36.5233 50.4566 36.43C50.7232 36.3367 50.9832 36.18 51.2366 35.96L51.4766 36.42C51.2632 36.6267 50.9899 36.79 50.6566 36.91C50.3232 37.0233 49.9832 37.08 49.6366 37.08ZM49.5166 32.55C49.0099 32.55 48.6132 32.71 48.3266 33.03C48.0466 33.3433 47.8832 33.75 47.8366 34.25H51.0066C50.9932 33.7167 50.8599 33.3 50.6066 33C50.3532 32.7 49.9899 32.55 49.5166 32.55Z" fill="black"/>
</svg>
