<svg width="41" height="44" viewBox="0 0 41 44" fill="none" xmlns="http://www.w3.org/2000/svg">
<g clip-path="url(#clip0_1862_18205)">
<mask id="mask0_1862_18205" style="mask-type:alpha" maskUnits="userSpaceOnUse" x="12" y="2" width="26" height="26">
<g clip-path="url(#clip1_1862_18205)">
<line x1="13.1919" y1="21.0325" x2="31.7997" y2="1.07801" stroke="black" stroke-linecap="round"/>
<line x1="13.0871" y1="18.0343" x2="31.695" y2="-1.92016" stroke="black" stroke-linecap="round"/>
<line x1="12.9824" y1="15.0361" x2="31.5902" y2="-4.91833" stroke="black" stroke-linecap="round"/>
<line x1="12.8777" y1="12.038" x2="31.4855" y2="-7.9165" stroke="black" stroke-linecap="round"/>
<line x1="12.7729" y1="9.03978" x2="31.3808" y2="-10.9147" stroke="black" stroke-linecap="round"/>
<line x1="13.4013" y1="27.0288" x2="33.9382" y2="5.00576" stroke="black" stroke-linecap="round"/>
<line x1="13.5058" y1="30.027" x2="36.9361" y2="4.90106" stroke="black" stroke-linecap="round"/>
<line x1="13.6106" y1="33.0251" x2="38.0054" y2="6.86494" stroke="black" stroke-linecap="round"/>
<line x1="13.7153" y1="36.0233" x2="38.1101" y2="9.86311" stroke="black" stroke-linecap="round"/>
<line x1="13.82" y1="39.0215" x2="39.1793" y2="11.827" stroke="black" stroke-linecap="round"/>
<line x1="13.9248" y1="42.0196" x2="38.3196" y2="15.8594" stroke="black" stroke-linecap="round"/>
<line x1="14.0295" y1="45.0178" x2="39.3888" y2="17.8233" stroke="black" stroke-linecap="round"/>
<line x1="14.134" y1="48.016" x2="39.4933" y2="20.8215" stroke="black" stroke-linecap="round"/>
<line x1="14.2388" y1="51.0141" x2="39.598" y2="23.8197" stroke="black" stroke-linecap="round"/>
<line x1="13.2966" y1="24.0306" x2="31.9044" y2="4.07618" stroke="black" stroke-linecap="round"/>
<line x1="13.2966" y1="24.0306" x2="31.9044" y2="4.07618" stroke="black" stroke-linecap="round"/>
<line x1="9.77488" y1="9.1444" x2="28.3827" y2="-10.8101" stroke="black" stroke-linecap="round"/>
</g>
</mask>
<g mask="url(#mask0_1862_18205)">
<path d="M25.9998 21.4784V2.5216C25.9998 2.06739 25.443 1.84848 25.1337 2.18105L16.3165 11.6594C16.138 11.8514 16.138 12.1486 16.3165 12.3406L25.1337 21.8189C25.443 22.1515 25.9998 21.9326 25.9998 21.4784Z" fill="black"/>
</g>
<path d="M26 21.4784V2.5216C26 2.06739 25.4433 1.84848 25.1339 2.18105L16.3168 11.6594C16.1383 11.8514 16.1383 12.1486 16.3168 12.3406L25.1339 21.8189C25.4433 22.1515 26 21.9326 26 21.4784Z" stroke="black" stroke-width="1.1" stroke-linecap="round" stroke-linejoin="round"/>
</g>
<path d="M1.76375 37V29.95H2.37375V36.45H6.05375V37H1.76375ZM9.05648 37.08C8.30982 37.08 7.71982 36.86 7.28648 36.42C6.85982 35.9733 6.64648 35.3633 6.64648 34.59C6.64648 34.09 6.74315 33.65 6.93648 33.27C7.12982 32.89 7.39648 32.5933 7.73648 32.38C8.08315 32.1667 8.47982 32.06 8.92648 32.06C9.57315 32.06 10.0765 32.27 10.4365 32.69C10.7965 33.11 10.9765 33.6867 10.9765 34.42V34.7H7.24648C7.26648 35.3 7.42982 35.7633 7.73648 36.09C8.04982 36.41 8.48315 36.57 9.03648 36.57C9.33648 36.57 9.61648 36.5233 9.87648 36.43C10.1432 36.3367 10.4032 36.18 10.6565 35.96L10.8965 36.42C10.6832 36.6267 10.4098 36.79 10.0765 36.91C9.74315 37.0233 9.40315 37.08 9.05648 37.08ZM8.93648 32.55C8.42982 32.55 8.03315 32.71 7.74648 33.03C7.46648 33.3433 7.30315 33.75 7.25648 34.25H10.4265C10.4132 33.7167 10.2798 33.3 10.0265 33C9.77315 32.7 9.40982 32.55 8.93648 32.55ZM12.4499 37V32.64H11.4899V32.15H12.4499V31.91C12.4499 30.6767 13.0733 30.0233 14.3199 29.95L14.6699 29.92L14.7199 30.42L14.2599 30.45C13.8466 30.4767 13.5433 30.6067 13.3499 30.84C13.1566 31.0733 13.0599 31.4133 13.0599 31.86V32.15H14.4899V32.64H13.0599V37H12.4499ZM17.0187 37.08C16.4787 37.08 16.072 36.9333 15.7987 36.64C15.532 36.3467 15.3987 35.9267 15.3987 35.38V32.64H14.4387V32.15H15.3987V30.65H16.0087V32.15H17.5787V32.64H16.0087V35.3C16.0087 35.7067 16.092 36.0167 16.2587 36.23C16.4253 36.4433 16.702 36.55 17.0887 36.55C17.202 36.55 17.312 36.5367 17.4187 36.51C17.5253 36.4833 17.6187 36.4533 17.6987 36.42L17.8187 36.9C17.7453 36.9467 17.6287 36.9867 17.4687 37.02C17.3087 37.06 17.1587 37.08 17.0187 37.08ZM18.3513 34.6V34.08H21.0713V34.6H18.3513ZM22.6105 37V29.95H23.2205V32.99C23.3872 32.6833 23.6172 32.4533 23.9105 32.3C24.2105 32.14 24.5405 32.06 24.9005 32.06C26.0539 32.06 26.6305 32.6867 26.6305 33.94V37H26.0205V33.99C26.0205 33.51 25.9239 33.1567 25.7305 32.93C25.5372 32.7033 25.2305 32.59 24.8105 32.59C24.3305 32.59 23.9439 32.74 23.6505 33.04C23.3639 33.3333 23.2205 33.73 23.2205 34.23V37H22.6105ZM28.1063 30.87V30.1H28.9263V30.87H28.1063ZM28.2063 37V32.15H28.8163V37H28.2063ZM32.533 38.88C31.6864 38.88 30.983 38.6567 30.423 38.21L30.653 37.75C30.9597 37.97 31.2564 38.1267 31.543 38.22C31.8297 38.32 32.153 38.37 32.513 38.37C32.9997 38.37 33.3697 38.2367 33.623 37.97C33.8764 37.7033 34.003 37.3167 34.003 36.81V35.87C33.863 36.19 33.6397 36.44 33.333 36.62C33.033 36.8 32.6897 36.89 32.303 36.89C31.8497 36.89 31.4597 36.79 31.133 36.59C30.813 36.3833 30.563 36.1 30.383 35.74C30.2097 35.3733 30.123 34.95 30.123 34.47C30.123 33.99 30.2097 33.57 30.383 33.21C30.563 32.85 30.813 32.57 31.133 32.37C31.4597 32.1633 31.8497 32.06 32.303 32.06C32.6897 32.06 33.033 32.15 33.333 32.33C33.633 32.51 33.853 32.7567 33.993 33.07V32.15H34.593V36.72C34.593 38.16 33.9064 38.88 32.533 38.88ZM32.373 36.37C32.873 36.37 33.2697 36.2 33.563 35.86C33.8564 35.5133 34.003 35.05 34.003 34.47C34.003 33.89 33.8564 33.43 33.563 33.09C33.2697 32.75 32.873 32.58 32.373 32.58C31.8664 32.58 31.4664 32.75 31.173 33.09C30.8864 33.43 30.743 33.89 30.743 34.47C30.743 35.05 30.8864 35.5133 31.173 35.86C31.4664 36.2 31.8664 36.37 32.373 36.37ZM36.2043 37V29.95H36.8143V32.99C36.981 32.6833 37.211 32.4533 37.5043 32.3C37.8043 32.14 38.1343 32.06 38.4943 32.06C39.6476 32.06 40.2243 32.6867 40.2243 33.94V37H39.6143V33.99C39.6143 33.51 39.5176 33.1567 39.3243 32.93C39.131 32.7033 38.8243 32.59 38.4043 32.59C37.9243 32.59 37.5376 32.74 37.2443 33.04C36.9576 33.3333 36.8143 33.73 36.8143 34.23V37H36.2043Z" fill="black"/>
<defs>
<clipPath id="clip0_1862_18205">
<rect width="24" height="24" fill="white" transform="translate(9)"/>
</clipPath>
<clipPath id="clip1_1862_18205">
<rect width="24" height="24" fill="white" transform="translate(12.5884 3.75) rotate(-2)"/>
</clipPath>
</defs>
</svg>
