<svg width="24" height="44" viewBox="0 0 24 44" fill="none" xmlns="http://www.w3.org/2000/svg">
<path d="M7 2.5V21.4784C7 21.9326 7.55673 22.1515 7.86609 21.8189L16.8661 12.1439C16.9522 12.0514 17 11.9298 17 11.8034V2.5C17 2.22386 16.7761 2 16.5 2H7.5C7.22386 2 7 2.22386 7 2.5Z" fill="black" stroke="black" stroke-width="1.1" stroke-linecap="round" stroke-linejoin="round"/>
<path d="M3.50789 37V29.95H4.11789V36.45H7.79789V37H3.50789ZM8.85945 37V29.95H11.5495C12.2695 29.95 12.8261 30.11 13.2195 30.43C13.6195 30.75 13.8195 31.2067 13.8195 31.8C13.8195 32.1867 13.7161 32.5167 13.5095 32.79C13.3028 33.0633 13.0228 33.2633 12.6695 33.39C13.0761 33.49 13.3961 33.6867 13.6295 33.98C13.8628 34.2667 13.9795 34.6333 13.9795 35.08C13.9795 35.7067 13.7795 36.1833 13.3795 36.51C12.9795 36.8367 12.4128 37 11.6795 37H8.85945ZM9.45945 33.17H11.4795C12.0395 33.17 12.4661 33.0567 12.7595 32.83C13.0528 32.5967 13.1995 32.26 13.1995 31.82C13.1995 31.38 13.0528 31.0467 12.7595 30.82C12.4661 30.5867 12.0395 30.47 11.4795 30.47H9.45945V33.17ZM9.45945 36.48H11.6295C12.7828 36.48 13.3595 36.0167 13.3595 35.09C13.3595 34.61 13.2161 34.2567 12.9295 34.03C12.6428 33.8033 12.2095 33.69 11.6295 33.69H9.45945V36.48ZM15.5684 37V29.95H16.1784V36.45H19.8584V37H15.5684Z" fill="black"/>
</svg>
