<svg width="24" height="42" viewBox="0 0 24 42" fill="none" xmlns="http://www.w3.org/2000/svg">
<path d="M11 1L11 23" stroke="black" stroke-width="1.1" stroke-linecap="round" stroke-linejoin="round"/>
<path d="M13 1L13 23" stroke="black" stroke-width="1.1" stroke-linecap="round" stroke-linejoin="round" stroke-dasharray="2 2"/>
<path d="M16 7.55556C16 9.51923 14 10.6667 12 12C10 10.6667 8 9.51923 8 7.55556C8 5.59188 9.79086 4 12 4C14.2091 4 16 5.59188 16 7.55556Z" stroke="black" stroke-width="1.1"/>
<path d="M16 16.4444C16 14.4808 14 13.3333 12 12C10 13.3333 8 14.4808 8 16.4444C8 18.4081 9.79086 20 12 20C14.2091 20 16 18.4081 16 16.4444Z" stroke="black" stroke-width="1.1"/>
<path d="M4.02547 35V27.95H4.63547V34.45H8.31547V35H4.02547ZM11.3182 35.08C10.5715 35.08 9.98154 34.86 9.5482 34.42C9.12154 33.9733 8.9082 33.3633 8.9082 32.59C8.9082 32.09 9.00487 31.65 9.1982 31.27C9.39154 30.89 9.6582 30.5933 9.9982 30.38C10.3449 30.1667 10.7415 30.06 11.1882 30.06C11.8349 30.06 12.3382 30.27 12.6982 30.69C13.0582 31.11 13.2382 31.6867 13.2382 32.42V32.7H9.5082C9.5282 33.3 9.69154 33.7633 9.9982 34.09C10.3115 34.41 10.7449 34.57 11.2982 34.57C11.5982 34.57 11.8782 34.5233 12.1382 34.43C12.4049 34.3367 12.6649 34.18 12.9182 33.96L13.1582 34.42C12.9449 34.6267 12.6715 34.79 12.3382 34.91C12.0049 35.0233 11.6649 35.08 11.3182 35.08ZM11.1982 30.55C10.6915 30.55 10.2949 30.71 10.0082 31.03C9.7282 31.3433 9.56487 31.75 9.5182 32.25H12.6882C12.6749 31.7167 12.5415 31.3 12.2882 31C12.0349 30.7 11.6715 30.55 11.1982 30.55ZM14.7116 35V30.64H13.7516V30.15H14.7116V29.91C14.7116 28.6767 15.335 28.0233 16.5816 27.95L16.9316 27.92L16.9816 28.42L16.5216 28.45C16.1083 28.4767 15.805 28.6067 15.6116 28.84C15.4183 29.0733 15.3216 29.4133 15.3216 29.86V30.15H16.7516V30.64H15.3216V35H14.7116ZM19.2804 35.08C18.7404 35.08 18.3337 34.9333 18.0604 34.64C17.7937 34.3467 17.6604 33.9267 17.6604 33.38V30.64H16.7004V30.15H17.6604V28.65H18.2704V30.15H19.8404V30.64H18.2704V33.3C18.2704 33.7067 18.3537 34.0167 18.5204 34.23C18.6871 34.4433 18.9637 34.55 19.3504 34.55C19.4637 34.55 19.5737 34.5367 19.6804 34.51C19.7871 34.4833 19.8804 34.4533 19.9604 34.42L20.0804 34.9C20.0071 34.9467 19.8904 34.9867 19.7304 35.02C19.5704 35.06 19.4204 35.08 19.2804 35.08Z" fill="black"/>
</svg>
