<svg width="38" height="44" viewBox="0 0 38 44" fill="none" xmlns="http://www.w3.org/2000/svg">
<circle cx="19" cy="12" r="0.75" fill="black"/>
<path d="M24 21.4784V2.5216C24 2.06739 23.4433 1.84848 23.1339 2.18105L14.3168 11.6594C14.1383 11.8514 14.1383 12.1486 14.3168 12.3406L23.1339 21.8189C23.4433 22.1515 24 21.9326 24 21.4784Z" fill="black" stroke="black" stroke-width="1.1" stroke-linecap="round" stroke-linejoin="round"/>
<path d="M1.3907 37V29.95H2.0007V36.45H5.6807V37H1.3907ZM8.68344 37.08C7.93677 37.08 7.34677 36.86 6.91344 36.42C6.48677 35.9733 6.27344 35.3633 6.27344 34.59C6.27344 34.09 6.3701 33.65 6.56344 33.27C6.75677 32.89 7.02344 32.5933 7.36344 32.38C7.7101 32.1667 8.10677 32.06 8.55344 32.06C9.2001 32.06 9.70344 32.27 10.0634 32.69C10.4234 33.11 10.6034 33.6867 10.6034 34.42V34.7H6.87344C6.89344 35.3 7.05677 35.7633 7.36344 36.09C7.67677 36.41 8.1101 36.57 8.66344 36.57C8.96344 36.57 9.24344 36.5233 9.50344 36.43C9.7701 36.3367 10.0301 36.18 10.2834 35.96L10.5234 36.42C10.3101 36.6267 10.0368 36.79 9.70344 36.91C9.3701 37.0233 9.0301 37.08 8.68344 37.08ZM8.56344 32.55C8.05677 32.55 7.6601 32.71 7.37344 33.03C7.09344 33.3433 6.9301 33.75 6.88344 34.25H10.0534C10.0401 33.7167 9.90677 33.3 9.65344 33C9.4001 32.7 9.03677 32.55 8.56344 32.55ZM12.0769 37V32.64H11.1169V32.15H12.0769V31.91C12.0769 30.6767 12.7002 30.0233 13.9469 29.95L14.2969 29.92L14.3469 30.42L13.8869 30.45C13.4735 30.4767 13.1702 30.6067 12.9769 30.84C12.7835 31.0733 12.6869 31.4133 12.6869 31.86V32.15H14.1169V32.64H12.6869V37H12.0769ZM16.6456 37.08C16.1056 37.08 15.699 36.9333 15.4256 36.64C15.159 36.3467 15.0256 35.9267 15.0256 35.38V32.64H14.0656V32.15H15.0256V30.65H15.6356V32.15H17.2056V32.64H15.6356V35.3C15.6356 35.7067 15.719 36.0167 15.8856 36.23C16.0523 36.4433 16.329 36.55 16.7156 36.55C16.829 36.55 16.939 36.5367 17.0456 36.51C17.1523 36.4833 17.2456 36.4533 17.3256 36.42L17.4456 36.9C17.3723 36.9467 17.2556 36.9867 17.0956 37.02C16.9356 37.06 16.7856 37.08 16.6456 37.08ZM17.9783 34.6V34.08H20.6983V34.6H17.9783ZM23.6475 37.08C23.1942 37.08 22.8442 36.9433 22.5975 36.67C22.3575 36.39 22.2375 35.99 22.2375 35.47V29.95H22.8475V35.4C22.8475 36.1667 23.1475 36.55 23.7475 36.55C23.9142 36.55 24.0675 36.53 24.2075 36.49L24.1875 37.02C23.9942 37.06 23.8142 37.08 23.6475 37.08ZM26.9702 37.08C26.5169 37.08 26.1236 36.98 25.7902 36.78C25.4569 36.5733 25.1969 36.2833 25.0102 35.91C24.8302 35.53 24.7402 35.0833 24.7402 34.57C24.7402 34.0633 24.8302 33.6233 25.0102 33.25C25.1969 32.87 25.4569 32.5767 25.7902 32.37C26.1236 32.1633 26.5169 32.06 26.9702 32.06C27.4302 32.06 27.8269 32.1633 28.1602 32.37C28.4936 32.5767 28.7502 32.87 28.9302 33.25C29.1169 33.6233 29.2102 34.0633 29.2102 34.57C29.2102 35.0833 29.1169 35.53 28.9302 35.91C28.7502 36.2833 28.4936 36.5733 28.1602 36.78C27.8269 36.98 27.4302 37.08 26.9702 37.08ZM26.9702 36.57C27.4636 36.57 27.8569 36.3967 28.1502 36.05C28.4436 35.6967 28.5902 35.2033 28.5902 34.57C28.5902 33.9367 28.4436 33.4467 28.1502 33.1C27.8569 32.7533 27.4636 32.58 26.9702 32.58C26.4769 32.58 26.0836 32.7533 25.7902 33.1C25.5036 33.4467 25.3602 33.9367 25.3602 34.57C25.3602 35.2033 25.5036 35.6967 25.7902 36.05C26.0836 36.3967 26.4769 36.57 26.9702 36.57ZM31.7304 37L29.9704 32.15H30.6204L32.0504 36.28L33.5404 32.15H34.1404L35.6004 36.29L37.0604 32.15H37.6904L35.9204 37H35.2904L33.8304 32.94L32.3604 37H31.7304Z" fill="black"/>
</svg>
