<svg width="24" height="44" viewBox="0 0 24 44" fill="none" xmlns="http://www.w3.org/2000/svg">
<circle cx="12" cy="12" r="0.75" fill="black"/>
<path d="M7.5 22H16.5C16.7761 22 17 21.7761 17 21.5V12.1966C17 12.0702 16.9522 11.9486 16.8661 11.8561L7.86609 2.18105C7.55673 1.84848 7 2.06739 7 2.5216V11.5V21.5C7 21.7761 7.22386 22 7.5 22Z" stroke="black" stroke-width="1.1" stroke-linecap="round" stroke-linejoin="round"/>
<path d="M2.66219 37V29.95H3.27219V36.45H6.95219V37H2.66219ZM8.01375 37V29.95H12.2538V30.48H8.62375V33.17H12.0538V33.7H8.62375V37H8.01375ZM13.4537 37V29.95H13.9737L16.7737 35.26L19.5537 29.95H20.0737V37H19.5037V31.14L16.9937 35.91H16.5537L14.0137 31.15V37H13.4537Z" fill="black"/>
</svg>
