<svg width="24" height="44" viewBox="0 0 24 44" fill="none" xmlns="http://www.w3.org/2000/svg">
<path d="M3.8575 37V29.95H4.4675V36.45H8.1475V37H3.8575ZM10.9702 37.08C10.5169 37.08 10.1236 36.98 9.79023 36.78C9.4569 36.5733 9.1969 36.2833 9.01023 35.91C8.83023 35.53 8.74023 35.0833 8.74023 34.57C8.74023 34.0633 8.83023 33.6233 9.01023 33.25C9.1969 32.87 9.4569 32.5767 9.79023 32.37C10.1236 32.1633 10.5169 32.06 10.9702 32.06C11.4302 32.06 11.8269 32.1633 12.1602 32.37C12.4936 32.5767 12.7502 32.87 12.9302 33.25C13.1169 33.6233 13.2102 34.0633 13.2102 34.57C13.2102 35.0833 13.1169 35.53 12.9302 35.91C12.7502 36.2833 12.4936 36.5733 12.1602 36.78C11.8269 36.98 11.4302 37.08 10.9702 37.08ZM10.9702 36.57C11.4636 36.57 11.8569 36.3967 12.1502 36.05C12.4436 35.6967 12.5902 35.2033 12.5902 34.57C12.5902 33.9367 12.4436 33.4467 12.1502 33.1C11.8569 32.7533 11.4636 32.58 10.9702 32.58C10.4769 32.58 10.0836 32.7533 9.79023 33.1C9.50357 33.4467 9.36023 33.9367 9.36023 34.57C9.36023 35.2033 9.50357 35.6967 9.79023 36.05C10.0836 36.3967 10.4769 36.57 10.9702 36.57ZM15.7304 37L13.9704 32.15H14.6204L16.0504 36.28L17.5404 32.15H18.1404L19.6004 36.29L21.0604 32.15H21.6904L19.9204 37H19.2904L17.8304 32.94L16.3604 37H15.7304Z" fill="black"/>
<rect x="7" y="2" width="10" height="20" rx="0.5" stroke="black" stroke-width="1.1"/>
<path d="M7 12H17V21.5C17 21.7761 16.7761 22 16.5 22H7.5C7.22386 22 7 21.7761 7 21.5V12Z" fill="black" stroke="black" stroke-width="1.1"/>
<g clip-path="url(#clip0_1863_18234)">
<path d="M10 5H14L10 9H14" stroke="black" stroke-width="1.1" stroke-linecap="round" stroke-linejoin="round"/>
</g>
<defs>
<clipPath id="clip0_1863_18234">
<rect width="6" height="6" fill="white" transform="translate(9 4)"/>
</clipPath>
</defs>
</svg>
