<svg width="24" height="44" viewBox="0 0 24 44" fill="none" xmlns="http://www.w3.org/2000/svg">
<path d="M7 21.5V2.5C7 2.22386 7.22386 2 7.5 2H16.5C16.7761 2 17 2.22386 17 2.5V21.5C17 21.7761 16.7761 22 16.5 22H7.5C7.22386 22 7 21.7761 7 21.5Z" fill="black" stroke="black" stroke-width="1.1" stroke-linecap="round" stroke-linejoin="round"/>
<path d="M2.8575 37V29.95H3.4675V36.45H7.1475V37H2.8575ZM9.97023 37.08C9.5169 37.08 9.12357 36.98 8.79023 36.78C8.4569 36.5733 8.1969 36.2833 8.01023 35.91C7.83023 35.53 7.74023 35.0833 7.74023 34.57C7.74023 34.0633 7.83023 33.6233 8.01023 33.25C8.1969 32.87 8.4569 32.5767 8.79023 32.37C9.12357 32.1633 9.5169 32.06 9.97023 32.06C10.4302 32.06 10.8269 32.1633 11.1602 32.37C11.4936 32.5767 11.7502 32.87 11.9302 33.25C12.1169 33.6233 12.2102 34.0633 12.2102 34.57C12.2102 35.0833 12.1169 35.53 11.9302 35.91C11.7502 36.2833 11.4936 36.5733 11.1602 36.78C10.8269 36.98 10.4302 37.08 9.97023 37.08ZM9.97023 36.57C10.4636 36.57 10.8569 36.3967 11.1502 36.05C11.4436 35.6967 11.5902 35.2033 11.5902 34.57C11.5902 33.9367 11.4436 33.4467 11.1502 33.1C10.8569 32.7533 10.4636 32.58 9.97023 32.58C9.4769 32.58 9.08357 32.7533 8.79023 33.1C8.50357 33.4467 8.36023 33.9367 8.36023 34.57C8.36023 35.2033 8.50357 35.6967 8.79023 36.05C9.08357 36.3967 9.4769 36.57 9.97023 36.57ZM14.7304 37L12.9704 32.15H13.6204L15.0504 36.28L16.5404 32.15H17.1404L18.6004 36.29L20.0604 32.15H20.6904L18.9204 37H18.2904L16.8304 32.94L15.3604 37H14.7304Z" fill="black"/>
</svg>
