<svg width="31" height="44" viewBox="0 0 31 44" fill="none" xmlns="http://www.w3.org/2000/svg">
<circle cx="16" cy="12" r="0.75" fill="black"/>
<g style="mix-blend-mode:multiply">
<rect x="11" y="2" width="10" height="20" rx="0.5" stroke="#FF0000" stroke-width="1.1"/>
</g>
<path d="M11 21.5V2.5C11 2.22386 11.2239 2 11.5 2H20.5C20.7761 2 21 2.22386 21 2.5V21.5C21 21.7761 20.7761 22 20.5 22H11.5C11.2239 22 11 21.7761 11 21.5Z" stroke="black" stroke-width="1.1" stroke-linecap="round" stroke-linejoin="round"/>
<path d="M1.6568 37V29.95H2.1768L4.9768 35.26L7.7568 29.95H8.2768V37H7.7068V31.14L5.1968 35.91H4.7568L2.2168 31.15V37H1.6568ZM9.90313 30.87V30.1H10.7231V30.87H9.90313ZM10.0031 37V32.15H10.6131V37H10.0031ZM14.0699 37.08C13.6299 37.08 13.2499 36.98 12.9299 36.78C12.6099 36.5733 12.3599 36.2833 12.1799 35.91C12.0066 35.53 11.9199 35.0833 11.9199 34.57C11.9199 33.8033 12.1133 33.1933 12.4999 32.74C12.8866 32.2867 13.4099 32.06 14.0699 32.06C14.4566 32.06 14.7966 32.15 15.0899 32.33C15.3899 32.5033 15.6133 32.7433 15.7599 33.05V29.95H16.3699V37H15.7699V36.08C15.6233 36.3933 15.3999 36.64 15.0999 36.82C14.8066 36.9933 14.4633 37.08 14.0699 37.08ZM14.1499 36.57C14.6433 36.57 15.0366 36.3967 15.3299 36.05C15.6233 35.6967 15.7699 35.2033 15.7699 34.57C15.7699 33.9367 15.6233 33.4467 15.3299 33.1C15.0366 32.7533 14.6433 32.58 14.1499 32.58C13.6566 32.58 13.2633 32.7533 12.9699 33.1C12.6833 33.4467 12.5399 33.9367 12.5399 34.57C12.5399 35.2033 12.6833 35.6967 12.9699 36.05C13.2633 36.3967 13.6566 36.57 14.1499 36.57ZM19.8219 37.08C19.3819 37.08 19.0019 36.98 18.6819 36.78C18.3619 36.5733 18.1119 36.2833 17.9319 35.91C17.7585 35.53 17.6719 35.0833 17.6719 34.57C17.6719 33.8033 17.8652 33.1933 18.2519 32.74C18.6385 32.2867 19.1619 32.06 19.8219 32.06C20.2085 32.06 20.5485 32.15 20.8419 32.33C21.1419 32.5033 21.3652 32.7433 21.5119 33.05V29.95H22.1219V37H21.5219V36.08C21.3752 36.3933 21.1519 36.64 20.8519 36.82C20.5585 36.9933 20.2152 37.08 19.8219 37.08ZM19.9019 36.57C20.3952 36.57 20.7885 36.3967 21.0819 36.05C21.3752 35.6967 21.5219 35.2033 21.5219 34.57C21.5219 33.9367 21.3752 33.4467 21.0819 33.1C20.7885 32.7533 20.3952 32.58 19.9019 32.58C19.4085 32.58 19.0152 32.7533 18.7219 33.1C18.4352 33.4467 18.2919 33.9367 18.2919 34.57C18.2919 35.2033 18.4352 35.6967 18.7219 36.05C19.0152 36.3967 19.4085 36.57 19.9019 36.57ZM25.1338 37.08C24.6805 37.08 24.3305 36.9433 24.0838 36.67C23.8438 36.39 23.7238 35.99 23.7238 35.47V29.95H24.3338V35.4C24.3338 36.1667 24.6338 36.55 25.2338 36.55C25.4005 36.55 25.5538 36.53 25.6938 36.49L25.6738 37.02C25.4805 37.06 25.3005 37.08 25.1338 37.08ZM28.6366 37.08C27.8899 37.08 27.2999 36.86 26.8666 36.42C26.4399 35.9733 26.2266 35.3633 26.2266 34.59C26.2266 34.09 26.3232 33.65 26.5166 33.27C26.7099 32.89 26.9766 32.5933 27.3166 32.38C27.6632 32.1667 28.0599 32.06 28.5066 32.06C29.1532 32.06 29.6566 32.27 30.0166 32.69C30.3766 33.11 30.5566 33.6867 30.5566 34.42V34.7H26.8266C26.8466 35.3 27.0099 35.7633 27.3166 36.09C27.6299 36.41 28.0632 36.57 28.6166 36.57C28.9166 36.57 29.1966 36.5233 29.4566 36.43C29.7232 36.3367 29.9832 36.18 30.2366 35.96L30.4766 36.42C30.2632 36.6267 29.9899 36.79 29.6566 36.91C29.3232 37.0233 28.9832 37.08 28.6366 37.08ZM28.5166 32.55C28.0099 32.55 27.6132 32.71 27.3266 33.03C27.0466 33.3433 26.8832 33.75 26.8366 34.25H30.0066C29.9932 33.7167 29.8599 33.3 29.6066 33C29.3532 32.7 28.9899 32.55 28.5166 32.55Z" fill="black"/>
</svg>
