<svg width="33" height="46" viewBox="0 0 33 46" fill="none" xmlns="http://www.w3.org/2000/svg">
<path d="M16 1L16 23" stroke="black" stroke-width="1.1" stroke-linecap="round" stroke-linejoin="round" stroke-dasharray="2 2"/>
<path d="M18 1L18 23" stroke="black" stroke-width="1.1" stroke-linecap="round" stroke-linejoin="round" stroke-dasharray="2 2"/>
<path d="M21 7.55556C21 9.51923 19 10.6667 17 12C15 10.6667 13 9.51923 13 7.55556C13 5.59188 14.7909 4 17 4C19.2091 4 21 5.59188 21 7.55556Z" stroke="black" stroke-width="1.1"/>
<path d="M21 16.4444C21 14.4808 19 13.3333 17 12C15 13.3333 13 14.4808 13 16.4444C13 18.4081 14.7909 20 17 20C19.2091 20 21 18.4081 21 16.4444Z" stroke="black" stroke-width="1.1"/>
<path d="M1.54742 39V31.95H2.06742L4.86742 37.26L7.64742 31.95H8.16742V39H7.59742V33.14L5.08742 37.91H4.64742L2.10742 33.15V39H1.54742ZM9.79375 32.87V32.1H10.6138V32.87H9.79375ZM9.89375 39V34.15H10.5038V39H9.89375ZM13.9605 39.08C13.5205 39.08 13.1405 38.98 12.8205 38.78C12.5005 38.5733 12.2505 38.2833 12.0705 37.91C11.8972 37.53 11.8105 37.0833 11.8105 36.57C11.8105 35.8033 12.0039 35.1933 12.3905 34.74C12.7772 34.2867 13.3005 34.06 13.9605 34.06C14.3472 34.06 14.6872 34.15 14.9805 34.33C15.2805 34.5033 15.5039 34.7433 15.6505 35.05V31.95H16.2605V39H15.6605V38.08C15.5139 38.3933 15.2905 38.64 14.9905 38.82C14.6972 38.9933 14.3539 39.08 13.9605 39.08ZM14.0405 38.57C14.5339 38.57 14.9272 38.3967 15.2205 38.05C15.5139 37.6967 15.6605 37.2033 15.6605 36.57C15.6605 35.9367 15.5139 35.4467 15.2205 35.1C14.9272 34.7533 14.5339 34.58 14.0405 34.58C13.5472 34.58 13.1539 34.7533 12.8605 35.1C12.5739 35.4467 12.4305 35.9367 12.4305 36.57C12.4305 37.2033 12.5739 37.6967 12.8605 38.05C13.1539 38.3967 13.5472 38.57 14.0405 38.57ZM19.2725 39.08C18.8192 39.08 18.4692 38.9433 18.2225 38.67C17.9825 38.39 17.8625 37.99 17.8625 37.47V31.95H18.4725V37.4C18.4725 38.1667 18.7725 38.55 19.3725 38.55C19.5392 38.55 19.6925 38.53 19.8325 38.49L19.8125 39.02C19.6192 39.06 19.4392 39.08 19.2725 39.08ZM20.6141 32.87V32.1H21.4341V32.87H20.6141ZM20.7141 39V34.15H21.3241V39H20.7141ZM22.9309 39V34.15H23.5309V35.02C23.6909 34.7 23.9209 34.46 24.2209 34.3C24.5209 34.14 24.8542 34.06 25.2209 34.06C26.3742 34.06 26.9509 34.6867 26.9509 35.94V39H26.3409V35.99C26.3409 35.51 26.2442 35.1567 26.0509 34.93C25.8575 34.7033 25.5509 34.59 25.1309 34.59C24.6509 34.59 24.2642 34.74 23.9709 35.04C23.6842 35.3333 23.5409 35.73 23.5409 36.23V39H22.9309ZM30.6366 39.08C29.8899 39.08 29.2999 38.86 28.8666 38.42C28.4399 37.9733 28.2266 37.3633 28.2266 36.59C28.2266 36.09 28.3232 35.65 28.5166 35.27C28.7099 34.89 28.9766 34.5933 29.3166 34.38C29.6632 34.1667 30.0599 34.06 30.5066 34.06C31.1532 34.06 31.6566 34.27 32.0166 34.69C32.3766 35.11 32.5566 35.6867 32.5566 36.42V36.7H28.8266C28.8466 37.3 29.0099 37.7633 29.3166 38.09C29.6299 38.41 30.0632 38.57 30.6166 38.57C30.9166 38.57 31.1966 38.5233 31.4566 38.43C31.7232 38.3367 31.9832 38.18 32.2366 37.96L32.4766 38.42C32.2632 38.6267 31.9899 38.79 31.6566 38.91C31.3232 39.0233 30.9832 39.08 30.6366 39.08ZM30.5166 34.55C30.0099 34.55 29.6132 34.71 29.3266 35.03C29.0466 35.3433 28.8832 35.75 28.8366 36.25H32.0066C31.9932 35.7167 31.8599 35.3 31.6066 35C31.3532 34.7 30.9899 34.55 30.5166 34.55Z" fill="black"/>
</svg>
