<svg width="30" height="44" viewBox="0 0 30 44" fill="none" xmlns="http://www.w3.org/2000/svg">
<path d="M0.94 37V29.95H1.46L4.26 35.26L7.04 29.95H7.56V37H6.99V31.14L4.48 35.91H4.04L1.5 31.15V37H0.94ZM11.2163 37.08C10.763 37.08 10.3697 36.98 10.0363 36.78C9.70299 36.5733 9.44299 36.2833 9.25633 35.91C9.07633 35.53 8.98633 35.0833 8.98633 34.57C8.98633 34.0633 9.07633 33.6233 9.25633 33.25C9.44299 32.87 9.70299 32.5767 10.0363 32.37C10.3697 32.1633 10.763 32.06 11.2163 32.06C11.6763 32.06 12.073 32.1633 12.4063 32.37C12.7397 32.5767 12.9963 32.87 13.1763 33.25C13.363 33.6233 13.4563 34.0633 13.4563 34.57C13.4563 35.0833 13.363 35.53 13.1763 35.91C12.9963 36.2833 12.7397 36.5733 12.4063 36.78C12.073 36.98 11.6763 37.08 11.2163 37.08ZM11.2163 36.57C11.7097 36.57 12.103 36.3967 12.3963 36.05C12.6897 35.6967 12.8363 35.2033 12.8363 34.57C12.8363 33.9367 12.6897 33.4467 12.3963 33.1C12.103 32.7533 11.7097 32.58 11.2163 32.58C10.723 32.58 10.3297 32.7533 10.0363 33.1C9.74966 33.4467 9.60633 33.9367 9.60633 34.57C9.60633 35.2033 9.74966 35.6967 10.0363 36.05C10.3297 36.3967 10.723 36.57 11.2163 36.57ZM17.0651 37.08C16.6717 37.08 16.3251 36.9933 16.0251 36.82C15.7317 36.64 15.5117 36.3933 15.3651 36.08V37H14.7551V29.95H15.3651V33.05C15.5117 32.7433 15.7317 32.5033 16.0251 32.33C16.3251 32.15 16.6717 32.06 17.0651 32.06C17.7184 32.06 18.2384 32.2867 18.6251 32.74C19.0184 33.1933 19.2151 33.8033 19.2151 34.57C19.2151 35.0833 19.1251 35.53 18.9451 35.91C18.7717 36.2833 18.5217 36.5733 18.1951 36.78C17.8751 36.98 17.4984 37.08 17.0651 37.08ZM16.9751 36.57C17.4684 36.57 17.8617 36.3967 18.1551 36.05C18.4484 35.6967 18.5951 35.2033 18.5951 34.57C18.5951 33.9367 18.4484 33.4467 18.1551 33.1C17.8617 32.7533 17.4684 32.58 16.9751 32.58C16.4817 32.58 16.0884 32.7533 15.7951 33.1C15.5017 33.4467 15.3551 33.9367 15.3551 34.57C15.3551 35.2033 15.5017 35.6967 15.7951 36.05C16.0884 36.3967 16.4817 36.57 16.9751 36.57ZM20.407 30.87V30.1H21.227V30.87H20.407ZM20.507 37V32.15H21.117V37H20.507ZM24.1338 37.08C23.6805 37.08 23.3305 36.9433 23.0838 36.67C22.8438 36.39 22.7238 35.99 22.7238 35.47V29.95H23.3338V35.4C23.3338 36.1667 23.6338 36.55 24.2338 36.55C24.4005 36.55 24.5538 36.53 24.6938 36.49L24.6738 37.02C24.4805 37.06 24.3005 37.08 24.1338 37.08ZM27.6366 37.08C26.8899 37.08 26.2999 36.86 25.8666 36.42C25.4399 35.9733 25.2266 35.3633 25.2266 34.59C25.2266 34.09 25.3232 33.65 25.5166 33.27C25.7099 32.89 25.9766 32.5933 26.3166 32.38C26.6632 32.1667 27.0599 32.06 27.5066 32.06C28.1532 32.06 28.6566 32.27 29.0166 32.69C29.3766 33.11 29.5566 33.6867 29.5566 34.42V34.7H25.8266C25.8466 35.3 26.0099 35.7633 26.3166 36.09C26.6299 36.41 27.0632 36.57 27.6166 36.57C27.9166 36.57 28.1966 36.5233 28.4566 36.43C28.7232 36.3367 28.9832 36.18 29.2366 35.96L29.4766 36.42C29.2632 36.6267 28.9899 36.79 28.6566 36.91C28.3232 37.0233 27.9832 37.08 27.6366 37.08ZM27.5166 32.55C27.0099 32.55 26.6132 32.71 26.3266 33.03C26.0466 33.3433 25.8832 33.75 25.8366 34.25H29.0066C28.9932 33.7167 28.8599 33.3 28.6066 33C28.3532 32.7 27.9899 32.55 27.5166 32.55Z" fill="black"/>
<path d="M13 14H22" stroke="black" stroke-width="1.1" stroke-linecap="round"/>
<path d="M4 14H13" stroke="black" stroke-width="1.1" stroke-linecap="round"/>
<path d="M6 17H10" stroke="black" stroke-width="1.1" stroke-linecap="round"/>
<path d="M16 17H20" stroke="black" stroke-width="1.1" stroke-linecap="round"/>
<path d="M13 14L17 10" stroke="black" stroke-width="1.1" stroke-linecap="round"/>
</svg>
