<svg width="24" height="44" viewBox="0 0 24 44" fill="none" xmlns="http://www.w3.org/2000/svg">
<path d="M2.6407 37V29.95H3.1307L7.5907 35.96V29.95H8.1607V37H7.6807L3.2107 30.98V37H2.6407ZM11.994 37.08C11.2473 37.08 10.6573 36.86 10.224 36.42C9.79732 35.9733 9.58398 35.3633 9.58398 34.59C9.58398 34.09 9.68065 33.65 9.87398 33.27C10.0673 32.89 10.334 32.5933 10.674 32.38C11.0207 32.1667 11.4173 32.06 11.864 32.06C12.5107 32.06 13.014 32.27 13.374 32.69C13.734 33.11 13.914 33.6867 13.914 34.42V34.7H10.184C10.204 35.3 10.3673 35.7633 10.674 36.09C10.9873 36.41 11.4207 36.57 11.974 36.57C12.274 36.57 12.554 36.5233 12.814 36.43C13.0807 36.3367 13.3407 36.18 13.594 35.96L13.834 36.42C13.6207 36.6267 13.3473 36.79 13.014 36.91C12.6807 37.0233 12.3407 37.08 11.994 37.08ZM11.874 32.55C11.3673 32.55 10.9707 32.71 10.684 33.03C10.404 33.3433 10.2407 33.75 10.194 34.25H13.364C13.3507 33.7167 13.2173 33.3 12.964 33C12.7107 32.7 12.3473 32.55 11.874 32.55ZM16.6574 37.08C16.3308 37.08 16.0374 37.0167 15.7774 36.89C15.5241 36.7633 15.3208 36.59 15.1674 36.37C15.0208 36.15 14.9474 35.9033 14.9474 35.63C14.9474 35.27 15.0374 34.99 15.2174 34.79C15.3974 34.5833 15.7008 34.4367 16.1274 34.35C16.5541 34.2633 17.1408 34.22 17.8874 34.22H18.1974V33.86C18.1974 33.4133 18.1074 33.09 17.9274 32.89C17.7474 32.6833 17.4608 32.58 17.0674 32.58C16.7741 32.58 16.4908 32.6233 16.2174 32.71C15.9508 32.7967 15.6741 32.9333 15.3874 33.12L15.1474 32.65C15.4008 32.47 15.7008 32.3267 16.0474 32.22C16.3941 32.1133 16.7308 32.06 17.0574 32.06C17.6441 32.06 18.0774 32.21 18.3574 32.51C18.6441 32.81 18.7874 33.27 18.7874 33.89V37H18.2074V36.13C18.0741 36.43 17.8708 36.6633 17.5974 36.83C17.3308 36.9967 17.0174 37.08 16.6574 37.08ZM16.7374 36.59C17.0241 36.59 17.2741 36.5233 17.4874 36.39C17.7074 36.25 17.8808 36.06 18.0074 35.82C18.1341 35.58 18.1974 35.3067 18.1974 35V34.67H17.8974C17.2974 34.67 16.8274 34.6967 16.4874 34.75C16.1541 34.8033 15.9208 34.8967 15.7874 35.03C15.6541 35.1633 15.5874 35.3467 15.5874 35.58C15.5874 35.88 15.6908 36.1233 15.8974 36.31C16.1041 36.4967 16.3841 36.59 16.7374 36.59ZM20.382 37V32.15H20.982V33.03C21.122 32.7233 21.3254 32.49 21.592 32.33C21.8587 32.17 22.1987 32.0767 22.612 32.05L22.862 32.03L22.922 32.56L22.492 32.61C22.0187 32.65 21.652 32.8067 21.392 33.08C21.132 33.3467 21.002 33.7067 21.002 34.16V37H20.382Z" fill="black"/>
<g clip-path="url(#clip0_1863_18230)">
<path d="M10.5 6.5V10.5" stroke="black" stroke-width="1.1" stroke-linecap="round"/>
<path d="M11.5 8.5L13.5 6.5" stroke="black" stroke-width="1.1" stroke-linecap="round"/>
<path d="M13.5 10.5L11.5 8.5" stroke="black" stroke-width="1.1" stroke-linecap="round"/>
</g>
<g clip-path="url(#clip1_1863_18230)">
<path d="M10 13.5L14 17.5" stroke="black" stroke-width="1.1" stroke-linecap="round"/>
<path d="M10 17.5L14 13.5" stroke="black" stroke-width="1.1" stroke-linecap="round"/>
</g>
<circle cx="12" cy="12" r="9" stroke="black" stroke-width="1.1"/>
<defs>
<clipPath id="clip0_1863_18230">
<rect width="6" height="6" fill="white" transform="translate(9 5.5)"/>
</clipPath>
<clipPath id="clip1_1863_18230">
<rect width="6" height="6" fill="white" transform="translate(9 12.5)"/>
</clipPath>
</defs>
</svg>
