<svg width="34" height="44" viewBox="0 0 34 44" fill="none" xmlns="http://www.w3.org/2000/svg">
<g clip-path="url(#clip0_1864_18650)">
<path d="M12 21.5V2.5C12 2.22386 12.2239 2 12.5 2H21.5C21.7761 2 22 2.22386 22 2.5V21.5C22 21.7761 21.7761 22 21.5 22H12.5C12.2239 22 12 21.7761 12 21.5Z" stroke="black" stroke-width="1.1" stroke-linecap="round" stroke-linejoin="round" stroke-dasharray="2.2 2.2"/>
</g>
<path d="M3.47742 37.08C2.93076 37.08 2.43742 37.01 1.99742 36.87C1.56409 36.7233 1.18742 36.51 0.867422 36.23L1.10742 35.72C1.45409 35.9933 1.80742 36.1967 2.16742 36.33C2.53409 36.4567 2.97076 36.52 3.47742 36.52C4.11076 36.52 4.58409 36.3967 4.89742 36.15C5.21742 35.9033 5.37742 35.58 5.37742 35.18C5.37742 34.8467 5.26076 34.5867 5.02742 34.4C4.80076 34.2133 4.42409 34.0667 3.89742 33.96L2.88742 33.75C2.26076 33.6233 1.79076 33.41 1.47742 33.11C1.17076 32.81 1.01742 32.41 1.01742 31.91C1.01742 31.5033 1.12076 31.1467 1.32742 30.84C1.54076 30.5333 1.83409 30.2967 2.20742 30.13C2.58076 29.9567 3.01076 29.87 3.49742 29.87C4.47076 29.87 5.24742 30.1633 5.82742 30.75L5.58742 31.25C5.28076 30.9633 4.96076 30.7567 4.62742 30.63C4.29409 30.4967 3.91742 30.43 3.49742 30.43C2.93742 30.43 2.48742 30.5633 2.14742 30.83C1.81409 31.0967 1.64742 31.4533 1.64742 31.9C1.64742 32.2533 1.75409 32.5333 1.96742 32.74C2.18076 32.94 2.52409 33.0867 2.99742 33.18L4.01742 33.39C4.69076 33.53 5.19076 33.74 5.51742 34.02C5.84409 34.2933 6.00742 34.67 6.00742 35.15C6.00742 35.53 5.90409 35.8667 5.69742 36.16C5.49742 36.4467 5.20742 36.6733 4.82742 36.84C4.44742 37 3.99742 37.08 3.47742 37.08ZM7.79305 38.8L8.59305 36.98L6.53305 32.15H7.21305L8.92305 36.33L10.653 32.15H11.313L8.45305 38.8H7.79305ZM12.2809 37V32.15H12.8809V33C13.1809 32.3733 13.6909 32.06 14.4109 32.06C15.1843 32.06 15.6743 32.3967 15.8809 33.07C16.0209 32.7567 16.2343 32.51 16.5209 32.33C16.8076 32.15 17.1409 32.06 17.5209 32.06C18.5943 32.06 19.1309 32.6867 19.1309 33.94V37H18.5209V33.99C18.5209 33.51 18.4343 33.1567 18.2609 32.93C18.0943 32.7033 17.8109 32.59 17.4109 32.59C16.9843 32.59 16.6443 32.74 16.3909 33.04C16.1376 33.3333 16.0109 33.7333 16.0109 34.24V37H15.4009V33.99C15.4009 33.51 15.3143 33.1567 15.1409 32.93C14.9743 32.7033 14.6943 32.59 14.3009 32.59C13.8676 32.59 13.5243 32.74 13.2709 33.04C13.0176 33.3333 12.8909 33.7333 12.8909 34.24V37H12.2809ZM23.0377 37.08C22.6444 37.08 22.2977 36.9933 21.9977 36.82C21.7044 36.64 21.4844 36.3933 21.3377 36.08V37H20.7277V29.95H21.3377V33.05C21.4844 32.7433 21.7044 32.5033 21.9977 32.33C22.2977 32.15 22.6444 32.06 23.0377 32.06C23.6911 32.06 24.2111 32.2867 24.5977 32.74C24.9911 33.1933 25.1877 33.8033 25.1877 34.57C25.1877 35.0833 25.0977 35.53 24.9177 35.91C24.7444 36.2833 24.4944 36.5733 24.1677 36.78C23.8477 36.98 23.4711 37.08 23.0377 37.08ZM22.9477 36.57C23.4411 36.57 23.8344 36.3967 24.1277 36.05C24.4211 35.6967 24.5677 35.2033 24.5677 34.57C24.5677 33.9367 24.4211 33.4467 24.1277 33.1C23.8344 32.7533 23.4411 32.58 22.9477 32.58C22.4544 32.58 22.0611 32.7533 21.7677 33.1C21.4744 33.4467 21.3277 33.9367 21.3277 34.57C21.3277 35.2033 21.4744 35.6967 21.7677 36.05C22.0611 36.3967 22.4544 36.57 22.9477 36.57ZM28.4097 37.08C27.9564 37.08 27.563 36.98 27.2297 36.78C26.8964 36.5733 26.6364 36.2833 26.4497 35.91C26.2697 35.53 26.1797 35.0833 26.1797 34.57C26.1797 34.0633 26.2697 33.6233 26.4497 33.25C26.6364 32.87 26.8964 32.5767 27.2297 32.37C27.563 32.1633 27.9564 32.06 28.4097 32.06C28.8697 32.06 29.2664 32.1633 29.5997 32.37C29.933 32.5767 30.1897 32.87 30.3697 33.25C30.5564 33.6233 30.6497 34.0633 30.6497 34.57C30.6497 35.0833 30.5564 35.53 30.3697 35.91C30.1897 36.2833 29.933 36.5733 29.5997 36.78C29.2664 36.98 28.8697 37.08 28.4097 37.08ZM28.4097 36.57C28.903 36.57 29.2964 36.3967 29.5897 36.05C29.883 35.6967 30.0297 35.2033 30.0297 34.57C30.0297 33.9367 29.883 33.4467 29.5897 33.1C29.2964 32.7533 28.903 32.58 28.4097 32.58C27.9164 32.58 27.523 32.7533 27.2297 33.1C26.943 33.4467 26.7997 33.9367 26.7997 34.57C26.7997 35.2033 26.943 35.6967 27.2297 36.05C27.523 36.3967 27.9164 36.57 28.4097 36.57ZM33.3584 37.08C32.9051 37.08 32.5551 36.9433 32.3084 36.67C32.0684 36.39 31.9484 35.99 31.9484 35.47V29.95H32.5584V35.4C32.5584 36.1667 32.8584 36.55 33.4584 36.55C33.6251 36.55 33.7784 36.53 33.9184 36.49L33.8984 37.02C33.7051 37.06 33.5251 37.08 33.3584 37.08Z" fill="black"/>
<defs>
<clipPath id="clip0_1864_18650">
<rect width="24" height="24" fill="white" transform="translate(5)"/>
</clipPath>
</defs>
</svg>
