<svg width="53" height="38" viewBox="0 0 53 38" fill="none" xmlns="http://www.w3.org/2000/svg">
<path d="M4.33883 31.08C3.69216 31.08 3.13216 30.9333 2.65883 30.64C2.19216 30.3467 1.82883 29.93 1.56883 29.39C1.31549 28.85 1.18883 28.21 1.18883 27.47C1.18883 26.73 1.31549 26.09 1.56883 25.55C1.82216 25.01 2.18549 24.5967 2.65883 24.31C3.13216 24.0167 3.69216 23.87 4.33883 23.87C4.99216 23.87 5.55216 24.0167 6.01883 24.31C6.49216 24.5967 6.8555 25.01 7.10883 25.55C7.36883 26.0833 7.49883 26.72 7.49883 27.46C7.49883 28.2067 7.36883 28.85 7.10883 29.39C6.8555 29.93 6.49216 30.3467 6.01883 30.64C5.5455 30.9333 4.98549 31.08 4.33883 31.08ZM4.33883 30.52C5.13216 30.52 5.74883 30.2533 6.18883 29.72C6.62883 29.1867 6.84883 28.4367 6.84883 27.47C6.84883 26.5033 6.62883 25.7567 6.18883 25.23C5.75549 24.6967 5.13883 24.43 4.33883 24.43C3.54549 24.43 2.92883 24.6967 2.48883 25.23C2.05549 25.7633 1.83883 26.51 1.83883 27.47C1.83883 28.43 2.05549 29.18 2.48883 29.72C2.92883 30.2533 3.54549 30.52 4.33883 30.52ZM10.6467 31.08C9.49339 31.08 8.91672 30.4533 8.91672 29.2V26.15H9.52672V29.17C9.52672 29.6433 9.62339 29.9933 9.81672 30.22C10.0101 30.4467 10.3134 30.56 10.7267 30.56C11.1734 30.56 11.5367 30.41 11.8167 30.11C12.1034 29.81 12.2467 29.41 12.2467 28.91V26.15H12.8567V31H12.2667V30.14C12.1067 30.4467 11.8834 30.68 11.5967 30.84C11.3167 31 11.0001 31.08 10.6467 31.08ZM16.2941 31.08C15.7541 31.08 15.3474 30.9333 15.0741 30.64C14.8074 30.3467 14.6741 29.9267 14.6741 29.38V26.64H13.7141V26.15H14.6741V24.65H15.2841V26.15H16.8541V26.64H15.2841V29.3C15.2841 29.7067 15.3674 30.0167 15.5341 30.23C15.7007 30.4433 15.9774 30.55 16.3641 30.55C16.4774 30.55 16.5874 30.5367 16.6941 30.51C16.8007 30.4833 16.8941 30.4533 16.9741 30.42L17.0941 30.9C17.0207 30.9467 16.9041 30.9867 16.7441 31.02C16.5841 31.06 16.4341 31.08 16.2941 31.08ZM17.6267 28.6V28.08H20.3467V28.6H17.6267ZM23.9624 31.08C23.5091 31.08 23.1158 30.98 22.7824 30.78C22.4491 30.5733 22.1891 30.2833 22.0024 29.91C21.8224 29.53 21.7324 29.0833 21.7324 28.57C21.7324 28.0633 21.8224 27.6233 22.0024 27.25C22.1891 26.87 22.4491 26.5767 22.7824 26.37C23.1158 26.1633 23.5091 26.06 23.9624 26.06C24.4224 26.06 24.8191 26.1633 25.1524 26.37C25.4858 26.5767 25.7424 26.87 25.9224 27.25C26.1091 27.6233 26.2024 28.0633 26.2024 28.57C26.2024 29.0833 26.1091 29.53 25.9224 29.91C25.7424 30.2833 25.4858 30.5733 25.1524 30.78C24.8191 30.98 24.4224 31.08 23.9624 31.08ZM23.9624 30.57C24.4558 30.57 24.8491 30.3967 25.1424 30.05C25.4358 29.6967 25.5824 29.2033 25.5824 28.57C25.5824 27.9367 25.4358 27.4467 25.1424 27.1C24.8491 26.7533 24.4558 26.58 23.9624 26.58C23.4691 26.58 23.0758 26.7533 22.7824 27.1C22.4958 27.4467 22.3524 27.9367 22.3524 28.57C22.3524 29.2033 22.4958 29.6967 22.7824 30.05C23.0758 30.3967 23.4691 30.57 23.9624 30.57ZM27.6823 31V26.64H26.7223V26.15H27.6823V25.91C27.6823 24.6767 28.3057 24.0233 29.5523 23.95L29.9023 23.92L29.9523 24.42L29.4923 24.45C29.079 24.4767 28.7757 24.6067 28.5823 24.84C28.389 25.0733 28.2923 25.4133 28.2923 25.86V26.15H29.7223V26.64H28.2923V31H27.6823ZM30.488 28.6V28.08H33.208V28.6H30.488ZM36.3273 31.08C35.9673 31.08 35.6206 31.0267 35.2873 30.92C34.9606 30.8133 34.6906 30.66 34.4773 30.46L34.6973 30.01C34.9439 30.21 35.2073 30.3567 35.4873 30.45C35.7673 30.5367 36.0539 30.58 36.3473 30.58C36.7606 30.58 37.0706 30.5067 37.2773 30.36C37.4906 30.2067 37.5973 29.9967 37.5973 29.73C37.5973 29.5233 37.5273 29.36 37.3873 29.24C37.2473 29.12 37.0273 29.0233 36.7273 28.95L35.8573 28.75C35.0373 28.5633 34.6273 28.14 34.6273 27.48C34.6273 27.0533 34.7939 26.71 35.1273 26.45C35.4606 26.19 35.9006 26.06 36.4473 26.06C36.7806 26.06 37.0939 26.1167 37.3873 26.23C37.6806 26.3367 37.9206 26.4933 38.1073 26.7L37.8673 27.15C37.6739 26.9567 37.4539 26.8133 37.2073 26.72C36.9606 26.62 36.7039 26.57 36.4373 26.57C36.0506 26.57 35.7506 26.65 35.5373 26.81C35.3306 26.97 35.2273 27.1867 35.2273 27.46C35.2273 27.6667 35.2906 27.8333 35.4173 27.96C35.5439 28.0867 35.7506 28.1833 36.0373 28.25L36.9073 28.45C37.3406 28.55 37.6639 28.7 37.8773 28.9C38.0906 29.0933 38.1973 29.3567 38.1973 29.69C38.1973 30.1233 38.0273 30.4633 37.6873 30.71C37.3473 30.9567 36.8939 31.08 36.3273 31.08ZM41.3038 31.08C40.7638 31.08 40.3572 30.9333 40.0838 30.64C39.8172 30.3467 39.6838 29.9267 39.6838 29.38V26.64H38.7238V26.15H39.6838V24.65H40.2938V26.15H41.8638V26.64H40.2938V29.3C40.2938 29.7067 40.3772 30.0167 40.5438 30.23C40.7105 30.4433 40.9872 30.55 41.3738 30.55C41.4872 30.55 41.5972 30.5367 41.7038 30.51C41.8105 30.4833 41.9038 30.4533 41.9838 30.42L42.1038 30.9C42.0305 30.9467 41.9138 30.9867 41.7538 31.02C41.5938 31.06 41.4438 31.08 41.3038 31.08ZM44.8846 31.08C44.1379 31.08 43.5479 30.86 43.1146 30.42C42.6879 29.9733 42.4746 29.3633 42.4746 28.59C42.4746 28.09 42.5713 27.65 42.7646 27.27C42.9579 26.89 43.2246 26.5933 43.5646 26.38C43.9113 26.1667 44.3079 26.06 44.7546 26.06C45.4013 26.06 45.9046 26.27 46.2646 26.69C46.6246 27.11 46.8046 27.6867 46.8046 28.42V28.7H43.0746C43.0946 29.3 43.2579 29.7633 43.5646 30.09C43.8779 30.41 44.3113 30.57 44.8646 30.57C45.1646 30.57 45.4446 30.5233 45.7046 30.43C45.9713 30.3367 46.2313 30.18 46.4846 29.96L46.7246 30.42C46.5113 30.6267 46.2379 30.79 45.9046 30.91C45.5713 31.0233 45.2313 31.08 44.8846 31.08ZM44.7646 26.55C44.2579 26.55 43.8613 26.71 43.5746 27.03C43.2946 27.3433 43.1313 27.75 43.0846 28.25H46.2546C46.2413 27.7167 46.1079 27.3 45.8546 27C45.6013 26.7 45.2379 26.55 44.7646 26.55ZM48.048 32.8V26.15H48.658V27.06C48.8047 26.7533 49.0247 26.51 49.318 26.33C49.618 26.15 49.9647 26.06 50.358 26.06C50.7914 26.06 51.168 26.1633 51.488 26.37C51.8147 26.5767 52.0647 26.8667 52.238 27.24C52.418 27.6133 52.508 28.0567 52.508 28.57C52.508 29.0833 52.418 29.53 52.238 29.91C52.0647 30.2833 51.8147 30.5733 51.488 30.78C51.168 30.98 50.7914 31.08 50.358 31.08C49.9647 31.08 49.618 30.9933 49.318 30.82C49.0247 30.6467 48.8047 30.4067 48.658 30.1V32.8H48.048ZM50.268 30.57C50.7614 30.57 51.1547 30.3967 51.448 30.05C51.7414 29.6967 51.888 29.2033 51.888 28.57C51.888 27.9367 51.7414 27.4467 51.448 27.1C51.1547 26.7533 50.7614 26.58 50.268 26.58C49.7747 26.58 49.3814 26.7533 49.088 27.1C48.7947 27.4467 48.648 27.9367 48.648 28.57C48.648 29.2033 48.7947 29.6967 49.088 30.05C49.3814 30.3967 49.7747 30.57 50.268 30.57Z" fill="black"/>
<path d="M29 1L29 10" stroke="black" stroke-width="1.1" stroke-linecap="round"/>
<path d="M29 13L29 22" stroke="black" stroke-width="1.1" stroke-linecap="round"/>
</svg>
