<svg width="60" height="44" viewBox="0 0 60 44" fill="none" xmlns="http://www.w3.org/2000/svg">
<path d="M1.09578 37V29.95H3.75578C4.50911 29.95 5.08245 30.13 5.47578 30.49C5.87578 30.85 6.07578 31.3633 6.07578 32.03C6.07578 32.69 5.87578 33.2033 5.47578 33.57C5.08245 33.93 4.50911 34.11 3.75578 34.11H1.70578V37H1.09578ZM1.70578 33.57H3.70578C4.87245 33.57 5.45578 33.0567 5.45578 32.03C5.45578 30.9967 4.87245 30.48 3.70578 30.48H1.70578V33.57ZM8.46211 37.08C8.13544 37.08 7.84211 37.0167 7.58211 36.89C7.32878 36.7633 7.12544 36.59 6.97211 36.37C6.82544 36.15 6.75211 35.9033 6.75211 35.63C6.75211 35.27 6.84211 34.99 7.02211 34.79C7.20211 34.5833 7.50544 34.4367 7.93211 34.35C8.35878 34.2633 8.94544 34.22 9.69211 34.22H10.0021V33.86C10.0021 33.4133 9.91211 33.09 9.73211 32.89C9.55211 32.6833 9.26544 32.58 8.87211 32.58C8.57878 32.58 8.29544 32.6233 8.02211 32.71C7.75544 32.7967 7.47878 32.9333 7.19211 33.12L6.95211 32.65C7.20544 32.47 7.50544 32.3267 7.85211 32.22C8.19878 32.1133 8.53544 32.06 8.86211 32.06C9.44878 32.06 9.88211 32.21 10.1621 32.51C10.4488 32.81 10.5921 33.27 10.5921 33.89V37H10.0121V36.13C9.87878 36.43 9.67544 36.6633 9.40211 36.83C9.13544 36.9967 8.82211 37.08 8.46211 37.08ZM8.54211 36.59C8.82878 36.59 9.07878 36.5233 9.29211 36.39C9.51211 36.25 9.68544 36.06 9.81211 35.82C9.93878 35.58 10.0021 35.3067 10.0021 35V34.67H9.70211C9.10211 34.67 8.63211 34.6967 8.29211 34.75C7.95878 34.8033 7.72544 34.8967 7.59211 35.03C7.45878 35.1633 7.39211 35.3467 7.39211 35.58C7.39211 35.88 7.49544 36.1233 7.70211 36.31C7.90878 36.4967 8.18878 36.59 8.54211 36.59ZM13.7667 37.08C13.4067 37.08 13.0601 37.0267 12.7267 36.92C12.4001 36.8133 12.1301 36.66 11.9167 36.46L12.1367 36.01C12.3834 36.21 12.6467 36.3567 12.9267 36.45C13.2067 36.5367 13.4934 36.58 13.7867 36.58C14.2001 36.58 14.5101 36.5067 14.7167 36.36C14.9301 36.2067 15.0367 35.9967 15.0367 35.73C15.0367 35.5233 14.9667 35.36 14.8267 35.24C14.6867 35.12 14.4667 35.0233 14.1667 34.95L13.2967 34.75C12.4767 34.5633 12.0667 34.14 12.0667 33.48C12.0667 33.0533 12.2334 32.71 12.5667 32.45C12.9001 32.19 13.3401 32.06 13.8867 32.06C14.2201 32.06 14.5334 32.1167 14.8267 32.23C15.1201 32.3367 15.3601 32.4933 15.5467 32.7L15.3067 33.15C15.1134 32.9567 14.8934 32.8133 14.6467 32.72C14.4001 32.62 14.1434 32.57 13.8767 32.57C13.4901 32.57 13.1901 32.65 12.9767 32.81C12.7701 32.97 12.6667 33.1867 12.6667 33.46C12.6667 33.6667 12.7301 33.8333 12.8567 33.96C12.9834 34.0867 13.1901 34.1833 13.4767 34.25L14.3467 34.45C14.7801 34.55 15.1034 34.7 15.3167 34.9C15.5301 35.0933 15.6367 35.3567 15.6367 35.69C15.6367 36.1233 15.4667 36.4633 15.1267 36.71C14.7867 36.9567 14.3334 37.08 13.7667 37.08ZM18.5421 37.08C18.1821 37.08 17.8354 37.0267 17.5021 36.92C17.1754 36.8133 16.9054 36.66 16.6921 36.46L16.9121 36.01C17.1588 36.21 17.4221 36.3567 17.7021 36.45C17.9821 36.5367 18.2688 36.58 18.5621 36.58C18.9754 36.58 19.2854 36.5067 19.4921 36.36C19.7054 36.2067 19.8121 35.9967 19.8121 35.73C19.8121 35.5233 19.7421 35.36 19.6021 35.24C19.4621 35.12 19.2421 35.0233 18.9421 34.95L18.0721 34.75C17.2521 34.5633 16.8421 34.14 16.8421 33.48C16.8421 33.0533 17.0088 32.71 17.3421 32.45C17.6754 32.19 18.1154 32.06 18.6621 32.06C18.9954 32.06 19.3088 32.1167 19.6021 32.23C19.8954 32.3367 20.1354 32.4933 20.3221 32.7L20.0821 33.15C19.8888 32.9567 19.6688 32.8133 19.4221 32.72C19.1754 32.62 18.9188 32.57 18.6521 32.57C18.2654 32.57 17.9654 32.65 17.7521 32.81C17.5454 32.97 17.4421 33.1867 17.4421 33.46C17.4421 33.6667 17.5054 33.8333 17.6321 33.96C17.7588 34.0867 17.9654 34.1833 18.2521 34.25L19.1221 34.45C19.5554 34.55 19.8788 34.7 20.0921 34.9C20.3054 35.0933 20.4121 35.3567 20.4121 35.69C20.4121 36.1233 20.2421 36.4633 19.9021 36.71C19.5621 36.9567 19.1088 37.08 18.5421 37.08ZM21.6375 30.87V30.1H22.4575V30.87H21.6375ZM21.7375 37V32.15H22.3475V37H21.7375ZM25.8843 37.08C25.431 37.08 25.0376 36.98 24.7043 36.78C24.371 36.5733 24.111 36.2833 23.9243 35.91C23.7443 35.53 23.6543 35.0833 23.6543 34.57C23.6543 34.0633 23.7443 33.6233 23.9243 33.25C24.111 32.87 24.371 32.5767 24.7043 32.37C25.0376 32.1633 25.431 32.06 25.8843 32.06C26.3443 32.06 26.741 32.1633 27.0743 32.37C27.4076 32.5767 27.6643 32.87 27.8443 33.25C28.031 33.6233 28.1243 34.0633 28.1243 34.57C28.1243 35.0833 28.031 35.53 27.8443 35.91C27.6643 36.2833 27.4076 36.5733 27.0743 36.78C26.741 36.98 26.3443 37.08 25.8843 37.08ZM25.8843 36.57C26.3776 36.57 26.771 36.3967 27.0643 36.05C27.3576 35.6967 27.5043 35.2033 27.5043 34.57C27.5043 33.9367 27.3576 33.4467 27.0643 33.1C26.771 32.7533 26.3776 32.58 25.8843 32.58C25.391 32.58 24.9976 32.7533 24.7043 33.1C24.4176 33.4467 24.2743 33.9367 24.2743 34.57C24.2743 35.2033 24.4176 35.6967 24.7043 36.05C24.9976 36.3967 25.391 36.57 25.8843 36.57ZM29.423 37V32.15H30.023V33.02C30.183 32.7 30.413 32.46 30.713 32.3C31.013 32.14 31.3464 32.06 31.713 32.06C32.8664 32.06 33.443 32.6867 33.443 33.94V37H32.833V33.99C32.833 33.51 32.7364 33.1567 32.543 32.93C32.3497 32.7033 32.043 32.59 31.623 32.59C31.143 32.59 30.7564 32.74 30.463 33.04C30.1764 33.3333 30.033 33.73 30.033 34.23V37H29.423ZM37.6485 37V29.95H39.9185C41.0385 29.95 41.9018 30.25 42.5085 30.85C43.1218 31.45 43.4285 32.3233 43.4285 33.47C43.4285 34.6167 43.1218 35.4933 42.5085 36.1C41.9018 36.7 41.0385 37 39.9185 37H37.6485ZM38.2585 36.46H39.8685C41.8018 36.46 42.7685 35.4633 42.7685 33.47C42.7685 31.4833 41.8018 30.49 39.8685 30.49H38.2585V36.46ZM44.8625 37V32.15H45.4625V33.03C45.6025 32.7233 45.8058 32.49 46.0725 32.33C46.3392 32.17 46.6792 32.0767 47.0925 32.05L47.3425 32.03L47.4025 32.56L46.9725 32.61C46.4992 32.65 46.1325 32.8067 45.8725 33.08C45.6125 33.3467 45.4825 33.7067 45.4825 34.16V37H44.8625ZM48.1805 30.87V30.1H49.0005V30.87H48.1805ZM48.2805 37V32.15H48.8905V37H48.2805ZM51.9373 37L49.8573 32.15H50.5373L52.2473 36.33L53.9873 32.15H54.6273L52.5473 37H51.9373ZM57.6366 37.08C56.8899 37.08 56.2999 36.86 55.8666 36.42C55.4399 35.9733 55.2266 35.3633 55.2266 34.59C55.2266 34.09 55.3232 33.65 55.5166 33.27C55.7099 32.89 55.9766 32.5933 56.3166 32.38C56.6632 32.1667 57.0599 32.06 57.5066 32.06C58.1532 32.06 58.6566 32.27 59.0166 32.69C59.3766 33.11 59.5566 33.6867 59.5566 34.42V34.7H55.8266C55.8466 35.3 56.0099 35.7633 56.3166 36.09C56.6299 36.41 57.0632 36.57 57.6166 36.57C57.9166 36.57 58.1966 36.5233 58.4566 36.43C58.7232 36.3367 58.9832 36.18 59.2366 35.96L59.4766 36.42C59.2632 36.6267 58.9899 36.79 58.6566 36.91C58.3232 37.0233 57.9832 37.08 57.6366 37.08ZM57.5166 32.55C57.0099 32.55 56.6132 32.71 56.3266 33.03C56.0466 33.3433 55.8832 33.75 55.8366 34.25H59.0066C58.9932 33.7167 58.8599 33.3 58.6066 33C58.3532 32.7 57.9899 32.55 57.5166 32.55Z" fill="black"/>
<path d="M28 14L28 23" stroke="black" stroke-width="1.1" stroke-linecap="round"/>
<path d="M28 5L28 14" stroke="black" stroke-width="1.1" stroke-linecap="round"/>
<path d="M28 14H37" stroke="black" stroke-width="1.1" stroke-linecap="round"/>
<path d="M19 14H28" stroke="black" stroke-width="1.1" stroke-linecap="round"/>
<path d="M21 17H25" stroke="black" stroke-width="1.1" stroke-linecap="round"/>
<path d="M31 17H35" stroke="black" stroke-width="1.1" stroke-linecap="round"/>
<path d="M28 14L32 10" stroke="black" stroke-width="1.1" stroke-linecap="round"/>
</svg>
