<svg width="24" height="46" viewBox="0 0 24 46" fill="none" xmlns="http://www.w3.org/2000/svg">
<path d="M5.86727 39V31.95H8.52727C9.2806 31.95 9.85393 32.13 10.2473 32.49C10.6473 32.85 10.8473 33.3633 10.8473 34.03C10.8473 34.69 10.6473 35.2033 10.2473 35.57C9.85393 35.93 9.2806 36.11 8.52727 36.11H6.47727V39H5.86727ZM6.47727 35.57H8.47727C9.64393 35.57 10.2273 35.0567 10.2273 34.03C10.2273 32.9967 9.64393 32.48 8.47727 32.48H6.47727V35.57ZM11.8875 32.87V32.1H12.7075V32.87H11.8875ZM11.9875 39V34.15H12.5975V39H11.9875ZM14.2043 39V34.15H14.8043V35.02C14.9643 34.7 15.1943 34.46 15.4943 34.3C15.7943 34.14 16.1276 34.06 16.4943 34.06C17.6476 34.06 18.2243 34.6867 18.2243 35.94V39H17.6143V35.99C17.6143 35.51 17.5176 35.1567 17.3243 34.93C17.131 34.7033 16.8243 34.59 16.4043 34.59C15.9243 34.59 15.5376 34.74 15.2443 35.04C14.9576 35.3333 14.8143 35.73 14.8143 36.23V39H14.2043Z" fill="black"/>
<path d="M9.5 16.5L14.5 11.5" stroke="black" stroke-width="1.1" stroke-linecap="round" stroke-linejoin="round"/>
<path d="M9.5 12.5L14.5 7.5" stroke="black" stroke-width="1.1" stroke-linecap="round" stroke-linejoin="round"/>
<path d="M12 2V22" stroke="black" stroke-width="1.1" stroke-linecap="round" stroke-linejoin="round"/>
</svg>
