<svg width="39" height="42" viewBox="0 0 39 42" fill="none" xmlns="http://www.w3.org/2000/svg">
<path d="M24 7.55556C24 9.51923 22 10.6667 20 12C18 10.6667 16 9.51923 16 7.55556C16 5.59188 17.7909 4 20 4C22.2091 4 24 5.59188 24 7.55556Z" stroke="black" stroke-width="1.1"/>
<path d="M24 16.4444C24 14.4808 22 13.3333 20 12C18 13.3333 16 14.4808 16 16.4444C16 18.4081 17.7909 20 20 20C22.2091 20 24 18.4081 24 16.4444Z" stroke="black" stroke-width="1.1"/>
<circle cx="20" cy="12" r="2" fill="black"/>
<circle cx="20" cy="12" r="5.5" stroke="black"/>
<path d="M1.15047 35V27.95H3.81047C4.5638 27.95 5.13714 28.13 5.53047 28.49C5.93047 28.85 6.13047 29.3633 6.13047 30.03C6.13047 30.69 5.93047 31.2033 5.53047 31.57C5.13714 31.93 4.5638 32.11 3.81047 32.11H1.76047V35H1.15047ZM1.76047 31.57H3.76047C4.92714 31.57 5.51047 31.0567 5.51047 30.03C5.51047 28.9967 4.92714 28.48 3.76047 28.48H1.76047V31.57ZM7.17305 35V30.15H7.77305V31.03C7.91305 30.7233 8.11638 30.49 8.38305 30.33C8.64971 30.17 8.98971 30.0767 9.40305 30.05L9.65305 30.03L9.71305 30.56L9.28305 30.61C8.80971 30.65 8.44305 30.8067 8.18305 31.08C7.92305 31.3467 7.79305 31.7067 7.79305 32.16V35H7.17305ZM12.4624 35.08C12.0091 35.08 11.6158 34.98 11.2824 34.78C10.9491 34.5733 10.6891 34.2833 10.5024 33.91C10.3224 33.53 10.2324 33.0833 10.2324 32.57C10.2324 32.0633 10.3224 31.6233 10.5024 31.25C10.6891 30.87 10.9491 30.5767 11.2824 30.37C11.6158 30.1633 12.0091 30.06 12.4624 30.06C12.9224 30.06 13.3191 30.1633 13.6524 30.37C13.9858 30.5767 14.2424 30.87 14.4224 31.25C14.6091 31.6233 14.7024 32.0633 14.7024 32.57C14.7024 33.0833 14.6091 33.53 14.4224 33.91C14.2424 34.2833 13.9858 34.5733 13.6524 34.78C13.3191 34.98 12.9224 35.08 12.4624 35.08ZM12.4624 34.57C12.9558 34.57 13.3491 34.3967 13.6424 34.05C13.9358 33.6967 14.0824 33.2033 14.0824 32.57C14.0824 31.9367 13.9358 31.4467 13.6424 31.1C13.3491 30.7533 12.9558 30.58 12.4624 30.58C11.9691 30.58 11.5758 30.7533 11.2824 31.1C10.9958 31.4467 10.8524 31.9367 10.8524 32.57C10.8524 33.2033 10.9958 33.6967 11.2824 34.05C11.5758 34.3967 11.9691 34.57 12.4624 34.57ZM15.3138 35L17.3138 32.49L15.4237 30.15H16.1538L17.6738 32.07L19.2038 30.15H19.9238L18.0337 32.5L20.0438 35H19.3038L17.6738 32.95L16.0338 35H15.3138ZM20.9402 28.87V28.1H21.7602V28.87H20.9402ZM21.0402 35V30.15H21.6502V35H21.0402ZM23.277 35V30.15H23.877V31C24.177 30.3733 24.687 30.06 25.407 30.06C26.1804 30.06 26.6704 30.3967 26.877 31.07C27.017 30.7567 27.2304 30.51 27.517 30.33C27.8037 30.15 28.137 30.06 28.517 30.06C29.5904 30.06 30.127 30.6867 30.127 31.94V35H29.517V31.99C29.517 31.51 29.4304 31.1567 29.257 30.93C29.0904 30.7033 28.807 30.59 28.407 30.59C27.9804 30.59 27.6404 30.74 27.387 31.04C27.1337 31.3333 27.007 31.7333 27.007 32.24V35H26.397V31.99C26.397 31.51 26.3104 31.1567 26.137 30.93C25.9704 30.7033 25.6904 30.59 25.297 30.59C24.8637 30.59 24.5204 30.74 24.267 31.04C24.0137 31.3333 23.887 31.7333 23.887 32.24V35H23.277ZM33.2238 35.08C32.8972 35.08 32.6038 35.0167 32.3438 34.89C32.0905 34.7633 31.8872 34.59 31.7338 34.37C31.5872 34.15 31.5138 33.9033 31.5138 33.63C31.5138 33.27 31.6038 32.99 31.7838 32.79C31.9638 32.5833 32.2672 32.4367 32.6938 32.35C33.1205 32.2633 33.7072 32.22 34.4538 32.22H34.7638V31.86C34.7638 31.4133 34.6738 31.09 34.4938 30.89C34.3138 30.6833 34.0272 30.58 33.6338 30.58C33.3405 30.58 33.0572 30.6233 32.7838 30.71C32.5172 30.7967 32.2405 30.9333 31.9538 31.12L31.7138 30.65C31.9672 30.47 32.2672 30.3267 32.6138 30.22C32.9605 30.1133 33.2972 30.06 33.6238 30.06C34.2105 30.06 34.6438 30.21 34.9238 30.51C35.2105 30.81 35.3538 31.27 35.3538 31.89V35H34.7738V34.13C34.6405 34.43 34.4372 34.6633 34.1638 34.83C33.8972 34.9967 33.5838 35.08 33.2238 35.08ZM33.3038 34.59C33.5905 34.59 33.8405 34.5233 34.0538 34.39C34.2738 34.25 34.4472 34.06 34.5738 33.82C34.7005 33.58 34.7638 33.3067 34.7638 33V32.67H34.4638C33.8638 32.67 33.3938 32.6967 33.0538 32.75C32.7205 32.8033 32.4872 32.8967 32.3538 33.03C32.2205 33.1633 32.1538 33.3467 32.1538 33.58C32.1538 33.88 32.2572 34.1233 32.4638 34.31C32.6705 34.4967 32.9505 34.59 33.3038 34.59ZM38.3584 35.08C37.9051 35.08 37.5551 34.9433 37.3084 34.67C37.0684 34.39 36.9484 33.99 36.9484 33.47V27.95H37.5584V33.4C37.5584 34.1667 37.8584 34.55 38.4584 34.55C38.6251 34.55 38.7784 34.53 38.9184 34.49L38.8984 35.02C38.7051 35.06 38.5251 35.08 38.3584 35.08Z" fill="black"/>
</svg>
