<svg width="76" height="44" viewBox="0 0 76 44" fill="none" xmlns="http://www.w3.org/2000/svg">
<path d="M1.06063 37V29.95H3.72063C4.47396 29.95 5.04729 30.1233 5.44063 30.47C5.84063 30.8167 6.04063 31.31 6.04063 31.95C6.04063 32.4767 5.89729 32.9033 5.61063 33.23C5.32396 33.5567 4.91729 33.7667 4.39063 33.86C4.67729 33.9667 4.93063 34.2267 5.15063 34.64L6.43063 37H5.76063L4.54063 34.74C4.36729 34.4267 4.17396 34.2167 3.96063 34.11C3.74729 34.0033 3.46063 33.95 3.10063 33.95H1.67063V37H1.06063ZM1.67063 33.43H3.64063C4.82729 33.43 5.42062 32.9367 5.42062 31.95C5.42062 30.97 4.82729 30.48 3.64063 30.48H1.67063V33.43ZM9.05195 37.08C8.72529 37.08 8.43195 37.0167 8.17195 36.89C7.91862 36.7633 7.71529 36.59 7.56195 36.37C7.41529 36.15 7.34195 35.9033 7.34195 35.63C7.34195 35.27 7.43195 34.99 7.61195 34.79C7.79195 34.5833 8.09529 34.4367 8.52195 34.35C8.94862 34.2633 9.53529 34.22 10.282 34.22H10.592V33.86C10.592 33.4133 10.502 33.09 10.322 32.89C10.142 32.6833 9.85529 32.58 9.46195 32.58C9.16862 32.58 8.88529 32.6233 8.61195 32.71C8.34529 32.7967 8.06862 32.9333 7.78195 33.12L7.54195 32.65C7.79529 32.47 8.09529 32.3267 8.44195 32.22C8.78862 32.1133 9.12529 32.06 9.45195 32.06C10.0386 32.06 10.472 32.21 10.752 32.51C11.0386 32.81 11.182 33.27 11.182 33.89V37H10.602V36.13C10.4686 36.43 10.2653 36.6633 9.99195 36.83C9.72529 36.9967 9.41195 37.08 9.05195 37.08ZM9.13195 36.59C9.41862 36.59 9.66862 36.5233 9.88195 36.39C10.102 36.25 10.2753 36.06 10.402 35.82C10.5286 35.58 10.592 35.3067 10.592 35V34.67H10.292C9.69195 34.67 9.22195 34.6967 8.88195 34.75C8.54862 34.8033 8.31529 34.8967 8.18195 35.03C8.04862 35.1633 7.98195 35.3467 7.98195 35.58C7.98195 35.88 8.08529 36.1233 8.29195 36.31C8.49862 36.4967 8.77862 36.59 9.13195 36.59ZM14.6266 37.08C14.1866 37.08 13.8066 36.98 13.4866 36.78C13.1666 36.5733 12.9166 36.2833 12.7366 35.91C12.5632 35.53 12.4766 35.0833 12.4766 34.57C12.4766 33.8033 12.6699 33.1933 13.0566 32.74C13.4432 32.2867 13.9666 32.06 14.6266 32.06C15.0132 32.06 15.3532 32.15 15.6466 32.33C15.9466 32.5033 16.1699 32.7433 16.3166 33.05V29.95H16.9266V37H16.3266V36.08C16.1799 36.3933 15.9566 36.64 15.6566 36.82C15.3632 36.9933 15.0199 37.08 14.6266 37.08ZM14.7066 36.57C15.1999 36.57 15.5932 36.3967 15.8866 36.05C16.1799 35.6967 16.3266 35.2033 16.3266 34.57C16.3266 33.9367 16.1799 33.4467 15.8866 33.1C15.5932 32.7533 15.1999 32.58 14.7066 32.58C14.2132 32.58 13.8199 32.7533 13.5266 33.1C13.2399 33.4467 13.0966 33.9367 13.0966 34.57C13.0966 35.2033 13.2399 35.6967 13.5266 36.05C13.8199 36.3967 14.2132 36.57 14.7066 36.57ZM18.4285 30.87V30.1H19.2485V30.87H18.4285ZM18.5285 37V32.15H19.1385V37H18.5285ZM22.2453 37.08C21.9186 37.08 21.6253 37.0167 21.3653 36.89C21.112 36.7633 20.9086 36.59 20.7553 36.37C20.6086 36.15 20.5353 35.9033 20.5353 35.63C20.5353 35.27 20.6253 34.99 20.8053 34.79C20.9853 34.5833 21.2886 34.4367 21.7153 34.35C22.142 34.2633 22.7286 34.22 23.4753 34.22H23.7853V33.86C23.7853 33.4133 23.6953 33.09 23.5153 32.89C23.3353 32.6833 23.0486 32.58 22.6553 32.58C22.362 32.58 22.0786 32.6233 21.8053 32.71C21.5386 32.7967 21.262 32.9333 20.9753 33.12L20.7353 32.65C20.9886 32.47 21.2886 32.3267 21.6353 32.22C21.982 32.1133 22.3186 32.06 22.6453 32.06C23.232 32.06 23.6653 32.21 23.9453 32.51C24.232 32.81 24.3753 33.27 24.3753 33.89V37H23.7953V36.13C23.662 36.43 23.4586 36.6633 23.1853 36.83C22.9186 36.9967 22.6053 37.08 22.2453 37.08ZM22.3253 36.59C22.612 36.59 22.862 36.5233 23.0753 36.39C23.2953 36.25 23.4686 36.06 23.5953 35.82C23.722 35.58 23.7853 35.3067 23.7853 35V34.67H23.4853C22.8853 34.67 22.4153 34.6967 22.0753 34.75C21.742 34.8033 21.5086 34.8967 21.3753 35.03C21.242 35.1633 21.1753 35.3467 21.1753 35.58C21.1753 35.88 21.2786 36.1233 21.4853 36.31C21.692 36.4967 21.972 36.59 22.3253 36.59ZM27.3799 37.08C26.9266 37.08 26.5766 36.9433 26.3299 36.67C26.0899 36.39 25.9699 35.99 25.9699 35.47V29.95H26.5799V35.4C26.5799 36.1667 26.8799 36.55 27.4799 36.55C27.6466 36.55 27.7999 36.53 27.9399 36.49L27.9199 37.02C27.7266 37.06 27.5466 37.08 27.3799 37.08ZM33.6513 37.08C33.1046 37.08 32.6113 37.01 32.1713 36.87C31.7379 36.7233 31.3613 36.51 31.0413 36.23L31.2813 35.72C31.6279 35.9933 31.9813 36.1967 32.3413 36.33C32.7079 36.4567 33.1446 36.52 33.6513 36.52C34.2846 36.52 34.7579 36.3967 35.0713 36.15C35.3913 35.9033 35.5513 35.58 35.5513 35.18C35.5513 34.8467 35.4346 34.5867 35.2013 34.4C34.9746 34.2133 34.5979 34.0667 34.0713 33.96L33.0613 33.75C32.4346 33.6233 31.9646 33.41 31.6513 33.11C31.3446 32.81 31.1912 32.41 31.1912 31.91C31.1912 31.5033 31.2946 31.1467 31.5013 30.84C31.7146 30.5333 32.0079 30.2967 32.3813 30.13C32.7546 29.9567 33.1846 29.87 33.6713 29.87C34.6446 29.87 35.4213 30.1633 36.0013 30.75L35.7613 31.25C35.4546 30.9633 35.1346 30.7567 34.8013 30.63C34.4679 30.4967 34.0913 30.43 33.6713 30.43C33.1113 30.43 32.6613 30.5633 32.3213 30.83C31.9879 31.0967 31.8213 31.4533 31.8213 31.9C31.8213 32.2533 31.9279 32.5333 32.1413 32.74C32.3546 32.94 32.6979 33.0867 33.1712 33.18L34.1913 33.39C34.8646 33.53 35.3646 33.74 35.6913 34.02C36.0179 34.2933 36.1812 34.67 36.1812 35.15C36.1812 35.53 36.0779 35.8667 35.8713 36.16C35.6713 36.4467 35.3813 36.6733 35.0013 36.84C34.6213 37 34.1713 37.08 33.6513 37.08ZM37.9669 38.8L38.7669 36.98L36.7069 32.15H37.3869L39.0969 36.33L40.8269 32.15H41.4869L38.6269 38.8H37.9669ZM42.4548 37V32.15H43.0548V33C43.3548 32.3733 43.8648 32.06 44.5848 32.06C45.3581 32.06 45.8481 32.3967 46.0548 33.07C46.1948 32.7567 46.4081 32.51 46.6948 32.33C46.9814 32.15 47.3148 32.06 47.6948 32.06C48.7681 32.06 49.3048 32.6867 49.3048 33.94V37H48.6948V33.99C48.6948 33.51 48.6081 33.1567 48.4348 32.93C48.2681 32.7033 47.9848 32.59 47.5848 32.59C47.1581 32.59 46.8181 32.74 46.5648 33.04C46.3114 33.3333 46.1848 33.7333 46.1848 34.24V37H45.5748V33.99C45.5748 33.51 45.4881 33.1567 45.3148 32.93C45.1481 32.7033 44.8681 32.59 44.4748 32.59C44.0414 32.59 43.6981 32.74 43.4448 33.04C43.1914 33.3333 43.0648 33.7333 43.0648 34.24V37H42.4548ZM50.9216 37V32.15H51.5216V33C51.8216 32.3733 52.3316 32.06 53.0516 32.06C53.8249 32.06 54.3149 32.3967 54.5216 33.07C54.6616 32.7567 54.8749 32.51 55.1616 32.33C55.4482 32.15 55.7816 32.06 56.1616 32.06C57.2349 32.06 57.7716 32.6867 57.7716 33.94V37H57.1616V33.99C57.1616 33.51 57.0749 33.1567 56.9016 32.93C56.7349 32.7033 56.4516 32.59 56.0516 32.59C55.6249 32.59 55.2849 32.74 55.0316 33.04C54.7782 33.3333 54.6516 33.7333 54.6516 34.24V37H54.0416V33.99C54.0416 33.51 53.9549 33.1567 53.7816 32.93C53.6149 32.7033 53.3349 32.59 52.9416 32.59C52.5082 32.59 52.1649 32.74 51.9116 33.04C51.6582 33.3333 51.5316 33.7333 51.5316 34.24V37H50.9216ZM61.4784 37.08C60.7317 37.08 60.1417 36.86 59.7084 36.42C59.2817 35.9733 59.0684 35.3633 59.0684 34.59C59.0684 34.09 59.165 33.65 59.3584 33.27C59.5517 32.89 59.8184 32.5933 60.1584 32.38C60.505 32.1667 60.9017 32.06 61.3484 32.06C61.995 32.06 62.4984 32.27 62.8584 32.69C63.2184 33.11 63.3984 33.6867 63.3984 34.42V34.7H59.6684C59.6884 35.3 59.8517 35.7633 60.1584 36.09C60.4717 36.41 60.905 36.57 61.4584 36.57C61.7584 36.57 62.0384 36.5233 62.2984 36.43C62.565 36.3367 62.825 36.18 63.0784 35.96L63.3184 36.42C63.105 36.6267 62.8317 36.79 62.4984 36.91C62.165 37.0233 61.825 37.08 61.4784 37.08ZM61.3584 32.55C60.8517 32.55 60.455 32.71 60.1684 33.03C59.8884 33.3433 59.725 33.75 59.6784 34.25H62.8484C62.835 33.7167 62.7017 33.3 62.4484 33C62.195 32.7 61.8317 32.55 61.3584 32.55ZM66.4718 37.08C65.9318 37.08 65.5251 36.9333 65.2518 36.64C64.9851 36.3467 64.8518 35.9267 64.8518 35.38V32.64H63.8918V32.15H64.8518V30.65H65.4618V32.15H67.0318V32.64H65.4618V35.3C65.4618 35.7067 65.5451 36.0167 65.7118 36.23C65.8785 36.4433 66.1551 36.55 66.5418 36.55C66.6551 36.55 66.7651 36.5367 66.8718 36.51C66.9785 36.4833 67.0718 36.4533 67.1518 36.42L67.2718 36.9C67.1985 36.9467 67.0818 36.9867 66.9218 37.02C66.7618 37.06 66.6118 37.08 66.4718 37.08ZM67.9914 37V32.15H68.5914V33.03C68.7314 32.7233 68.9347 32.49 69.2014 32.33C69.4681 32.17 69.8081 32.0767 70.2214 32.05L70.4714 32.03L70.5314 32.56L70.1014 32.61C69.6281 32.65 69.2614 32.8067 69.0014 33.08C68.7414 33.3467 68.6114 33.7067 68.6114 34.16V37H67.9914ZM72.3321 38.8L73.1321 36.98L71.0721 32.15H71.7521L73.4621 36.33L75.1921 32.15H75.8521L72.9921 38.8H72.3321Z" fill="black"/>
<path d="M42 2V22" stroke="black" stroke-width="1.1" stroke-linecap="round" stroke-linejoin="round"/>
<path d="M35 7L49 17M49 7L35 17" stroke="black" stroke-width="1.1" stroke-linecap="round" stroke-linejoin="round"/>
<path d="M46 7.55556C46 9.51923 44 10.6667 42 12C40 10.6667 38 9.51923 38 7.55556C38 5.59188 39.7909 4 42 4C44.2091 4 46 5.59188 46 7.55556Z" stroke="black" stroke-width="1.1"/>
<path d="M46 16.4444C46 14.4808 44 13.3333 42 12C40 13.3333 38 14.4808 38 16.4444C38 18.4081 39.7909 20 42 20C44.2091 20 46 18.4081 46 16.4444Z" stroke="black" stroke-width="1.1"/>
<path d="M48 12L36 12" stroke="black" stroke-width="1.1" stroke-linecap="round" stroke-linejoin="round"/>
</svg>
