<svg width="35" height="44" viewBox="0 0 35 44" fill="none" xmlns="http://www.w3.org/2000/svg">
<path d="M1.68172 37V29.95H4.34172C5.09505 29.95 5.66839 30.1233 6.06172 30.47C6.46172 30.8167 6.66172 31.31 6.66172 31.95C6.66172 32.4767 6.51839 32.9033 6.23172 33.23C5.94505 33.5567 5.53839 33.7667 5.01172 33.86C5.29839 33.9667 5.55172 34.2267 5.77172 34.64L7.05172 37H6.38172L5.16172 34.74C4.98839 34.4267 4.79505 34.2167 4.58172 34.11C4.36839 34.0033 4.08172 33.95 3.72172 33.95H2.29172V37H1.68172ZM2.29172 33.43H4.26172C5.44839 33.43 6.04172 32.9367 6.04172 31.95C6.04172 30.97 5.44839 30.48 4.26172 30.48H2.29172V33.43ZM10.1756 37.08C9.42896 37.08 8.83896 36.86 8.40563 36.42C7.97896 35.9733 7.76563 35.3633 7.76563 34.59C7.76563 34.09 7.86229 33.65 8.05563 33.27C8.24896 32.89 8.51563 32.5933 8.85563 32.38C9.20229 32.1667 9.59896 32.06 10.0456 32.06C10.6923 32.06 11.1956 32.27 11.5556 32.69C11.9156 33.11 12.0956 33.6867 12.0956 34.42V34.7H8.36563C8.38563 35.3 8.54896 35.7633 8.85563 36.09C9.16896 36.41 9.60229 36.57 10.1556 36.57C10.4556 36.57 10.7356 36.5233 10.9956 36.43C11.2623 36.3367 11.5223 36.18 11.7756 35.96L12.0156 36.42C11.8023 36.6267 11.529 36.79 11.1956 36.91C10.8623 37.0233 10.5223 37.08 10.1756 37.08ZM10.0556 32.55C9.54896 32.55 9.15229 32.71 8.86563 33.03C8.58563 33.3433 8.42229 33.75 8.37563 34.25H11.5456C11.5323 33.7167 11.399 33.3 11.1456 33C10.8923 32.7 10.529 32.55 10.0556 32.55ZM13.3591 37V32.15H13.9591V33C14.2591 32.3733 14.7691 32.06 15.4891 32.06C16.2624 32.06 16.7524 32.3967 16.9591 33.07C17.0991 32.7567 17.3124 32.51 17.5991 32.33C17.8857 32.15 18.2191 32.06 18.5991 32.06C19.6724 32.06 20.2091 32.6867 20.2091 33.94V37H19.5991V33.99C19.5991 33.51 19.5124 33.1567 19.3391 32.93C19.1724 32.7033 18.8891 32.59 18.4891 32.59C18.0624 32.59 17.7224 32.74 17.4691 33.04C17.2157 33.3333 17.0891 33.7333 17.0891 34.24V37H16.4791V33.99C16.4791 33.51 16.3924 33.1567 16.2191 32.93C16.0524 32.7033 15.7724 32.59 15.3791 32.59C14.9457 32.59 14.6024 32.74 14.3491 33.04C14.0957 33.3333 13.9691 33.7333 13.9691 34.24V37H13.3591ZM23.7359 37.08C23.2825 37.08 22.8892 36.98 22.5559 36.78C22.2225 36.5733 21.9625 36.2833 21.7759 35.91C21.5959 35.53 21.5059 35.0833 21.5059 34.57C21.5059 34.0633 21.5959 33.6233 21.7759 33.25C21.9625 32.87 22.2225 32.5767 22.5559 32.37C22.8892 32.1633 23.2825 32.06 23.7359 32.06C24.1959 32.06 24.5925 32.1633 24.9259 32.37C25.2592 32.5767 25.5159 32.87 25.6959 33.25C25.8825 33.6233 25.9759 34.0633 25.9759 34.57C25.9759 35.0833 25.8825 35.53 25.6959 35.91C25.5159 36.2833 25.2592 36.5733 24.9259 36.78C24.5925 36.98 24.1959 37.08 23.7359 37.08ZM23.7359 36.57C24.2292 36.57 24.6225 36.3967 24.9159 36.05C25.2092 35.6967 25.3559 35.2033 25.3559 34.57C25.3559 33.9367 25.2092 33.4467 24.9159 33.1C24.6225 32.7533 24.2292 32.58 23.7359 32.58C23.2425 32.58 22.8492 32.7533 22.5559 33.1C22.2692 33.4467 22.1259 33.9367 22.1259 34.57C22.1259 35.2033 22.2692 35.6967 22.5559 36.05C22.8492 36.3967 23.2425 36.57 23.7359 36.57ZM29.0558 37.08C28.5158 37.08 28.1091 36.9333 27.8358 36.64C27.5691 36.3467 27.4358 35.9267 27.4358 35.38V32.64H26.4758V32.15H27.4358V30.65H28.0458V32.15H29.6158V32.64H28.0458V35.3C28.0458 35.7067 28.1291 36.0167 28.2958 36.23C28.4624 36.4433 28.7391 36.55 29.1258 36.55C29.2391 36.55 29.3491 36.5367 29.4558 36.51C29.5624 36.4833 29.6558 36.4533 29.7358 36.42L29.8558 36.9C29.7824 36.9467 29.6658 36.9867 29.5058 37.02C29.3458 37.06 29.1958 37.08 29.0558 37.08ZM32.6366 37.08C31.8899 37.08 31.2999 36.86 30.8666 36.42C30.4399 35.9733 30.2266 35.3633 30.2266 34.59C30.2266 34.09 30.3232 33.65 30.5166 33.27C30.7099 32.89 30.9766 32.5933 31.3166 32.38C31.6632 32.1667 32.0599 32.06 32.5066 32.06C33.1532 32.06 33.6566 32.27 34.0166 32.69C34.3766 33.11 34.5566 33.6867 34.5566 34.42V34.7H30.8266C30.8466 35.3 31.0099 35.7633 31.3166 36.09C31.6299 36.41 32.0632 36.57 32.6166 36.57C32.9166 36.57 33.1966 36.5233 33.4566 36.43C33.7232 36.3367 33.9832 36.18 34.2366 35.96L34.4766 36.42C34.2632 36.6267 33.9899 36.79 33.6566 36.91C33.3232 37.0233 32.9832 37.08 32.6366 37.08ZM32.5166 32.55C32.0099 32.55 31.6132 32.71 31.3266 33.03C31.0466 33.3433 30.8832 33.75 30.8366 34.25H34.0066C33.9932 33.7167 33.8599 33.3 33.6066 33C33.3532 32.7 32.9899 32.55 32.5166 32.55Z" fill="black"/>
<path d="M17 14H26" stroke="black" stroke-width="1.1" stroke-linecap="round"/>
<path d="M8 14H17" stroke="black" stroke-width="1.1" stroke-linecap="round"/>
<path d="M21 1L21 10" stroke="black" stroke-width="1.1" stroke-linecap="round"/>
<path d="M21 10H30" stroke="black" stroke-width="1.1" stroke-linecap="round"/>
<path d="M17 14L21 10" stroke="black" stroke-width="1.1" stroke-linecap="round"/>
</svg>
