<svg width="45" height="38" viewBox="0 0 45 38" fill="none" xmlns="http://www.w3.org/2000/svg">
<path d="M0.92 31V23.95H3.58C4.33333 23.95 4.90667 24.1233 5.3 24.47C5.7 24.8167 5.9 25.31 5.9 25.95C5.9 26.4767 5.75667 26.9033 5.47 27.23C5.18333 27.5567 4.77667 27.7667 4.25 27.86C4.53667 27.9667 4.79 28.2267 5.01 28.64L6.29 31H5.62L4.4 28.74C4.22667 28.4267 4.03333 28.2167 3.82 28.11C3.60667 28.0033 3.32 27.95 2.96 27.95H1.53V31H0.92ZM1.53 27.43H3.5C4.68667 27.43 5.28 26.9367 5.28 25.95C5.28 24.97 4.68667 24.48 3.5 24.48H1.53V27.43ZM9.41391 31.08C8.66724 31.08 8.07724 30.86 7.64391 30.42C7.21724 29.9733 7.00391 29.3633 7.00391 28.59C7.00391 28.09 7.10057 27.65 7.29391 27.27C7.48724 26.89 7.75391 26.5933 8.09391 26.38C8.44057 26.1667 8.83724 26.06 9.28391 26.06C9.93057 26.06 10.4339 26.27 10.7939 26.69C11.1539 27.11 11.3339 27.6867 11.3339 28.42V28.7H7.60391C7.62391 29.3 7.78724 29.7633 8.09391 30.09C8.40724 30.41 8.84057 30.57 9.39391 30.57C9.69391 30.57 9.97391 30.5233 10.2339 30.43C10.5006 30.3367 10.7606 30.18 11.0139 29.96L11.2539 30.42C11.0406 30.6267 10.7672 30.79 10.4339 30.91C10.1006 31.0233 9.76057 31.08 9.41391 31.08ZM9.29391 26.55C8.78724 26.55 8.39057 26.71 8.10391 27.03C7.82391 27.3433 7.66057 27.75 7.61391 28.25H10.7839C10.7706 27.7167 10.6372 27.3 10.3839 27C10.1306 26.7 9.76724 26.55 9.29391 26.55ZM12.5773 32.8V26.15H13.1873V27.06C13.334 26.7533 13.554 26.51 13.8473 26.33C14.1473 26.15 14.494 26.06 14.8873 26.06C15.3207 26.06 15.6973 26.1633 16.0173 26.37C16.344 26.5767 16.594 26.8667 16.7673 27.24C16.9473 27.6133 17.0373 28.0567 17.0373 28.57C17.0373 29.0833 16.9473 29.53 16.7673 29.91C16.594 30.2833 16.344 30.5733 16.0173 30.78C15.6973 30.98 15.3207 31.08 14.8873 31.08C14.494 31.08 14.1473 30.9933 13.8473 30.82C13.554 30.6467 13.334 30.4067 13.1873 30.1V32.8H12.5773ZM14.7973 30.57C15.2907 30.57 15.684 30.3967 15.9773 30.05C16.2707 29.6967 16.4173 29.2033 16.4173 28.57C16.4173 27.9367 16.2707 27.4467 15.9773 27.1C15.684 26.7533 15.2907 26.58 14.7973 26.58C14.304 26.58 13.9107 26.7533 13.6173 27.1C13.324 27.4467 13.1773 27.9367 13.1773 28.57C13.1773 29.2033 13.324 29.6967 13.6173 30.05C13.9107 30.3967 14.304 30.57 14.7973 30.57ZM20.4393 31.08C19.6926 31.08 19.1026 30.86 18.6693 30.42C18.2426 29.9733 18.0293 29.3633 18.0293 28.59C18.0293 28.09 18.126 27.65 18.3193 27.27C18.5126 26.89 18.7793 26.5933 19.1193 26.38C19.466 26.1667 19.8626 26.06 20.3093 26.06C20.956 26.06 21.4593 26.27 21.8193 26.69C22.1793 27.11 22.3593 27.6867 22.3593 28.42V28.7H18.6293C18.6493 29.3 18.8126 29.7633 19.1193 30.09C19.4326 30.41 19.866 30.57 20.4193 30.57C20.7193 30.57 20.9993 30.5233 21.2593 30.43C21.526 30.3367 21.786 30.18 22.0393 29.96L22.2793 30.42C22.066 30.6267 21.7926 30.79 21.4593 30.91C21.126 31.0233 20.786 31.08 20.4393 31.08ZM20.3193 26.55C19.8126 26.55 19.416 26.71 19.1293 27.03C18.8493 27.3433 18.686 27.75 18.6393 28.25H21.8093C21.796 27.7167 21.6626 27.3 21.4093 27C21.156 26.7 20.7926 26.55 20.3193 26.55ZM25.4327 31.08C24.8927 31.08 24.4861 30.9333 24.2127 30.64C23.9461 30.3467 23.8127 29.9267 23.8127 29.38V26.64H22.8527V26.15H23.8127V24.65H24.4227V26.15H25.9927V26.64H24.4227V29.3C24.4227 29.7067 24.5061 30.0167 24.6727 30.23C24.8394 30.4433 25.1161 30.55 25.5027 30.55C25.6161 30.55 25.7261 30.5367 25.8327 30.51C25.9394 30.4833 26.0327 30.4533 26.1127 30.42L26.2327 30.9C26.1594 30.9467 26.0427 30.9867 25.8827 31.02C25.7227 31.06 25.5727 31.08 25.4327 31.08ZM26.8523 24.87V24.1H27.6723V24.87H26.8523ZM26.9523 31V26.15H27.5623V31H26.9523ZM30.9991 31.08C30.4591 31.08 30.0525 30.9333 29.7791 30.64C29.5125 30.3467 29.3791 29.9267 29.3791 29.38V26.64H28.4191V26.15H29.3791V24.65H29.9891V26.15H31.5591V26.64H29.9891V29.3C29.9891 29.7067 30.0725 30.0167 30.2391 30.23C30.4058 30.4433 30.6825 30.55 31.0691 30.55C31.1825 30.55 31.2925 30.5367 31.3991 30.51C31.5058 30.4833 31.5991 30.4533 31.6791 30.42L31.7991 30.9C31.7258 30.9467 31.6091 30.9867 31.4491 31.02C31.2891 31.06 31.1391 31.08 30.9991 31.08ZM32.4188 24.87V24.1H33.2388V24.87H32.4188ZM32.5188 31V26.15H33.1288V31H32.5188ZM36.6655 31.08C36.2122 31.08 35.8189 30.98 35.4855 30.78C35.1522 30.5733 34.8922 30.2833 34.7055 29.91C34.5255 29.53 34.4355 29.0833 34.4355 28.57C34.4355 28.0633 34.5255 27.6233 34.7055 27.25C34.8922 26.87 35.1522 26.5767 35.4855 26.37C35.8189 26.1633 36.2122 26.06 36.6655 26.06C37.1255 26.06 37.5222 26.1633 37.8555 26.37C38.1889 26.5767 38.4455 26.87 38.6255 27.25C38.8122 27.6233 38.9055 28.0633 38.9055 28.57C38.9055 29.0833 38.8122 29.53 38.6255 29.91C38.4455 30.2833 38.1889 30.5733 37.8555 30.78C37.5222 30.98 37.1255 31.08 36.6655 31.08ZM36.6655 30.57C37.1589 30.57 37.5522 30.3967 37.8455 30.05C38.1389 29.6967 38.2855 29.2033 38.2855 28.57C38.2855 27.9367 38.1389 27.4467 37.8455 27.1C37.5522 26.7533 37.1589 26.58 36.6655 26.58C36.1722 26.58 35.7789 26.7533 35.4855 27.1C35.1989 27.4467 35.0555 27.9367 35.0555 28.57C35.0555 29.2033 35.1989 29.6967 35.4855 30.05C35.7789 30.3967 36.1722 30.57 36.6655 30.57ZM40.2043 31V26.15H40.8043V27.02C40.9643 26.7 41.1943 26.46 41.4943 26.3C41.7943 26.14 42.1276 26.06 42.4943 26.06C43.6476 26.06 44.2243 26.6867 44.2243 27.94V31H43.6143V27.99C43.6143 27.51 43.5176 27.1567 43.3243 26.93C43.131 26.7033 42.8243 26.59 42.4043 26.59C41.9243 26.59 41.5376 26.74 41.2443 27.04C40.9576 27.3333 40.8143 27.73 40.8143 28.23V31H40.2043Z" fill="black"/>
<path d="M21 1L21 10" stroke="black" stroke-width="1.1" stroke-linecap="round"/>
<path d="M21 13L21 22" stroke="black" stroke-width="1.1" stroke-linecap="round"/>
</svg>
