<svg width="50" height="38" viewBox="0 0 50 38" fill="none" xmlns="http://www.w3.org/2000/svg">
<path d="M1.56453 31V23.95H4.22453C4.97786 23.95 5.5512 24.1233 5.94453 24.47C6.34453 24.8167 6.54453 25.31 6.54453 25.95C6.54453 26.4767 6.4012 26.9033 6.11453 27.23C5.82786 27.5567 5.4212 27.7667 4.89453 27.86C5.1812 27.9667 5.43453 28.2267 5.65453 28.64L6.93453 31H6.26453L5.04453 28.74C4.8712 28.4267 4.67786 28.2167 4.46453 28.11C4.2512 28.0033 3.96453 27.95 3.60453 27.95H2.17453V31H1.56453ZM2.17453 27.43H4.14453C5.3312 27.43 5.92453 26.9367 5.92453 25.95C5.92453 24.97 5.3312 24.48 4.14453 24.48H2.17453V27.43ZM10.0584 31.08C9.31177 31.08 8.72177 30.86 8.28844 30.42C7.86177 29.9733 7.64844 29.3633 7.64844 28.59C7.64844 28.09 7.7451 27.65 7.93844 27.27C8.13177 26.89 8.39844 26.5933 8.73844 26.38C9.0851 26.1667 9.48177 26.06 9.92844 26.06C10.5751 26.06 11.0784 26.27 11.4384 26.69C11.7984 27.11 11.9784 27.6867 11.9784 28.42V28.7H8.24844C8.26844 29.3 8.43177 29.7633 8.73844 30.09C9.05177 30.41 9.4851 30.57 10.0384 30.57C10.3384 30.57 10.6184 30.5233 10.8784 30.43C11.1451 30.3367 11.4051 30.18 11.6584 29.96L11.8984 30.42C11.6851 30.6267 11.4118 30.79 11.0784 30.91C10.7451 31.0233 10.4051 31.08 10.0584 31.08ZM9.93844 26.55C9.43177 26.55 9.0351 26.71 8.74844 27.03C8.46844 27.3433 8.3051 27.75 8.25844 28.25H11.4284C11.4151 27.7167 11.2818 27.3 11.0284 27C10.7751 26.7 10.4118 26.55 9.93844 26.55ZM15.0519 31.08C14.5119 31.08 14.1052 30.9333 13.8319 30.64C13.5652 30.3467 13.4319 29.9267 13.4319 29.38V26.64H12.4719V26.15H13.4319V24.65H14.0419V26.15H15.6119V26.64H14.0419V29.3C14.0419 29.7067 14.1252 30.0167 14.2919 30.23C14.4585 30.4433 14.7352 30.55 15.1219 30.55C15.2352 30.55 15.3452 30.5367 15.4519 30.51C15.5585 30.4833 15.6519 30.4533 15.7319 30.42L15.8519 30.9C15.7785 30.9467 15.6619 30.9867 15.5019 31.02C15.3419 31.06 15.1919 31.08 15.0519 31.08ZM16.5715 31V26.15H17.1715V27.03C17.3115 26.7233 17.5148 26.49 17.7815 26.33C18.0482 26.17 18.3882 26.0767 18.8015 26.05L19.0515 26.03L19.1115 26.56L18.6815 26.61C18.2082 26.65 17.8415 26.8067 17.5815 27.08C17.3215 27.3467 17.1915 27.7067 17.1915 28.16V31H16.5715ZM21.8609 31.08C21.4075 31.08 21.0142 30.98 20.6809 30.78C20.3475 30.5733 20.0875 30.2833 19.9009 29.91C19.7209 29.53 19.6309 29.0833 19.6309 28.57C19.6309 28.0633 19.7209 27.6233 19.9009 27.25C20.0875 26.87 20.3475 26.5767 20.6809 26.37C21.0142 26.1633 21.4075 26.06 21.8609 26.06C22.3209 26.06 22.7175 26.1633 23.0509 26.37C23.3842 26.5767 23.6409 26.87 23.8209 27.25C24.0075 27.6233 24.1009 28.0633 24.1009 28.57C24.1009 29.0833 24.0075 29.53 23.8209 29.91C23.6409 30.2833 23.3842 30.5733 23.0509 30.78C22.7175 30.98 22.3209 31.08 21.8609 31.08ZM21.8609 30.57C22.3542 30.57 22.7475 30.3967 23.0409 30.05C23.3342 29.6967 23.4809 29.2033 23.4809 28.57C23.4809 27.9367 23.3342 27.4467 23.0409 27.1C22.7475 26.7533 22.3542 26.58 21.8609 26.58C21.3675 26.58 20.9742 26.7533 20.6809 27.1C20.3942 27.4467 20.2509 27.9367 20.2509 28.57C20.2509 29.2033 20.3942 29.6967 20.6809 30.05C20.9742 30.3967 21.3675 30.57 21.8609 30.57ZM27.5096 32.88C26.6629 32.88 25.9596 32.6567 25.3996 32.21L25.6296 31.75C25.9363 31.97 26.2329 32.1267 26.5196 32.22C26.8063 32.32 27.1296 32.37 27.4896 32.37C27.9763 32.37 28.3463 32.2367 28.5996 31.97C28.8529 31.7033 28.9796 31.3167 28.9796 30.81V29.87C28.8396 30.19 28.6163 30.44 28.3096 30.62C28.0096 30.8 27.6663 30.89 27.2796 30.89C26.8263 30.89 26.4363 30.79 26.1096 30.59C25.7896 30.3833 25.5396 30.1 25.3596 29.74C25.1863 29.3733 25.0996 28.95 25.0996 28.47C25.0996 27.99 25.1863 27.57 25.3596 27.21C25.5396 26.85 25.7896 26.57 26.1096 26.37C26.4363 26.1633 26.8263 26.06 27.2796 26.06C27.6663 26.06 28.0096 26.15 28.3096 26.33C28.6096 26.51 28.8296 26.7567 28.9696 27.07V26.15H29.5696V30.72C29.5696 32.16 28.8829 32.88 27.5096 32.88ZM27.3496 30.37C27.8496 30.37 28.2463 30.2 28.5396 29.86C28.8329 29.5133 28.9796 29.05 28.9796 28.47C28.9796 27.89 28.8329 27.43 28.5396 27.09C28.2463 26.75 27.8496 26.58 27.3496 26.58C26.8429 26.58 26.4429 26.75 26.1496 27.09C25.8629 27.43 25.7196 27.89 25.7196 28.47C25.7196 29.05 25.8629 29.5133 26.1496 29.86C26.4429 30.2 26.8429 30.37 27.3496 30.37ZM31.1809 31V26.15H31.7809V27.03C31.9209 26.7233 32.1242 26.49 32.3909 26.33C32.6575 26.17 32.9975 26.0767 33.4109 26.05L33.6609 26.03L33.7209 26.56L33.2909 26.61C32.8175 26.65 32.4509 26.8067 32.1909 27.08C31.9309 27.3467 31.8009 27.7067 31.8009 28.16V31H31.1809ZM36.05 31.08C35.7233 31.08 35.43 31.0167 35.17 30.89C34.9167 30.7633 34.7133 30.59 34.56 30.37C34.4133 30.15 34.34 29.9033 34.34 29.63C34.34 29.27 34.43 28.99 34.61 28.79C34.79 28.5833 35.0933 28.4367 35.52 28.35C35.9467 28.2633 36.5333 28.22 37.28 28.22H37.59V27.86C37.59 27.4133 37.5 27.09 37.32 26.89C37.14 26.6833 36.8533 26.58 36.46 26.58C36.1667 26.58 35.8833 26.6233 35.61 26.71C35.3433 26.7967 35.0667 26.9333 34.78 27.12L34.54 26.65C34.7933 26.47 35.0933 26.3267 35.44 26.22C35.7867 26.1133 36.1233 26.06 36.45 26.06C37.0367 26.06 37.47 26.21 37.75 26.51C38.0367 26.81 38.18 27.27 38.18 27.89V31H37.6V30.13C37.4667 30.43 37.2633 30.6633 36.99 30.83C36.7233 30.9967 36.41 31.08 36.05 31.08ZM36.13 30.59C36.4167 30.59 36.6667 30.5233 36.88 30.39C37.1 30.25 37.2733 30.06 37.4 29.82C37.5267 29.58 37.59 29.3067 37.59 29V28.67H37.29C36.69 28.67 36.22 28.6967 35.88 28.75C35.5467 28.8033 35.3133 28.8967 35.18 29.03C35.0467 29.1633 34.98 29.3467 34.98 29.58C34.98 29.88 35.0833 30.1233 35.29 30.31C35.4967 30.4967 35.7767 30.59 36.13 30.59ZM41.6246 31.08C41.1846 31.08 40.8046 30.98 40.4846 30.78C40.1646 30.5733 39.9146 30.2833 39.7346 29.91C39.5613 29.53 39.4746 29.0833 39.4746 28.57C39.4746 27.8033 39.6679 27.1933 40.0546 26.74C40.4413 26.2867 40.9646 26.06 41.6246 26.06C42.0113 26.06 42.3513 26.15 42.6446 26.33C42.9446 26.5033 43.1679 26.7433 43.3146 27.05V23.95H43.9246V31H43.3246V30.08C43.1779 30.3933 42.9546 30.64 42.6546 30.82C42.3613 30.9933 42.0179 31.08 41.6246 31.08ZM41.7046 30.57C42.1979 30.57 42.5913 30.3967 42.8846 30.05C43.1779 29.6967 43.3246 29.2033 43.3246 28.57C43.3246 27.9367 43.1779 27.4467 42.8846 27.1C42.5913 26.7533 42.1979 26.58 41.7046 26.58C41.2113 26.58 40.8179 26.7533 40.5246 27.1C40.2379 27.4467 40.0946 27.9367 40.0946 28.57C40.0946 29.2033 40.2379 29.6967 40.5246 30.05C40.8179 30.3967 41.2113 30.57 41.7046 30.57ZM47.6366 31.08C46.8899 31.08 46.2999 30.86 45.8666 30.42C45.4399 29.9733 45.2266 29.3633 45.2266 28.59C45.2266 28.09 45.3232 27.65 45.5166 27.27C45.7099 26.89 45.9766 26.5933 46.3166 26.38C46.6632 26.1667 47.0599 26.06 47.5066 26.06C48.1532 26.06 48.6566 26.27 49.0166 26.69C49.3766 27.11 49.5566 27.6867 49.5566 28.42V28.7H45.8266C45.8466 29.3 46.0099 29.7633 46.3166 30.09C46.6299 30.41 47.0632 30.57 47.6166 30.57C47.9166 30.57 48.1966 30.5233 48.4566 30.43C48.7232 30.3367 48.9832 30.18 49.2366 29.96L49.4766 30.42C49.2632 30.6267 48.9899 30.79 48.6566 30.91C48.3232 31.0233 47.9832 31.08 47.6366 31.08ZM47.5166 26.55C47.0099 26.55 46.6132 26.71 46.3266 27.03C46.0466 27.3433 45.8832 27.75 45.8366 28.25H49.0066C48.9932 27.7167 48.8599 27.3 48.6066 27C48.3532 26.7 47.9899 26.55 47.5166 26.55Z" fill="black"/>
<path d="M26 1L26 10" stroke="black" stroke-width="1.1" stroke-linecap="round"/>
<path d="M26 13L26 22" stroke="black" stroke-width="1.1" stroke-linecap="round"/>
</svg>
