<svg width="46" height="45" viewBox="0 0 46 45" fill="none" xmlns="http://www.w3.org/2000/svg">
<path d="M0.992266 38V30.95H3.65227C4.4056 30.95 4.97893 31.1233 5.37227 31.47C5.77227 31.8167 5.97227 32.31 5.97227 32.95C5.97227 33.4767 5.82893 33.9033 5.54227 34.23C5.2556 34.5567 4.84893 34.7667 4.32227 34.86C4.60893 34.9667 4.86227 35.2267 5.08227 35.64L6.36227 38H5.69227L4.47227 35.74C4.29893 35.4267 4.1056 35.2167 3.89227 35.11C3.67893 35.0033 3.39227 34.95 3.03227 34.95H1.60227V38H0.992266ZM1.60227 34.43H3.57227C4.75893 34.43 5.35227 33.9367 5.35227 32.95C5.35227 31.97 4.75893 31.48 3.57227 31.48H1.60227V34.43ZM9.48617 38.08C8.73951 38.08 8.14951 37.86 7.71617 37.42C7.28951 36.9733 7.07617 36.3633 7.07617 35.59C7.07617 35.09 7.17284 34.65 7.36617 34.27C7.55951 33.89 7.82617 33.5933 8.16617 33.38C8.51284 33.1667 8.90951 33.06 9.35617 33.06C10.0028 33.06 10.5062 33.27 10.8662 33.69C11.2262 34.11 11.4062 34.6867 11.4062 35.42V35.7H7.67617C7.69617 36.3 7.85951 36.7633 8.16617 37.09C8.47951 37.41 8.91284 37.57 9.46617 37.57C9.76617 37.57 10.0462 37.5233 10.3062 37.43C10.5728 37.3367 10.8328 37.18 11.0862 36.96L11.3262 37.42C11.1128 37.6267 10.8395 37.79 10.5062 37.91C10.1728 38.0233 9.83284 38.08 9.48617 38.08ZM9.36617 33.55C8.85951 33.55 8.46284 33.71 8.17617 34.03C7.89617 34.3433 7.73284 34.75 7.68617 35.25H10.8562C10.8428 34.7167 10.7095 34.3 10.4562 34C10.2028 33.7 9.83951 33.55 9.36617 33.55ZM14.4796 38.08C13.9396 38.08 13.5329 37.9333 13.2596 37.64C12.9929 37.3467 12.8596 36.9267 12.8596 36.38V33.64H11.8996V33.15H12.8596V31.65H13.4696V33.15H15.0396V33.64H13.4696V36.3C13.4696 36.7067 13.5529 37.0167 13.7196 37.23C13.8863 37.4433 14.1629 37.55 14.5496 37.55C14.6629 37.55 14.7729 37.5367 14.8796 37.51C14.9863 37.4833 15.0796 37.4533 15.1596 37.42L15.2796 37.9C15.2063 37.9467 15.0896 37.9867 14.9296 38.02C14.7696 38.06 14.6196 38.08 14.4796 38.08ZM15.9992 38V33.15H16.5992V34.03C16.7392 33.7233 16.9426 33.49 17.2092 33.33C17.4759 33.17 17.8159 33.0767 18.2292 33.05L18.4792 33.03L18.5392 33.56L18.1092 33.61C17.6359 33.65 17.2692 33.8067 17.0092 34.08C16.7492 34.3467 16.6192 34.7067 16.6192 35.16V38H15.9992ZM21.4686 38.08C20.7219 38.08 20.1319 37.86 19.6986 37.42C19.2719 36.9733 19.0586 36.3633 19.0586 35.59C19.0586 35.09 19.1553 34.65 19.3486 34.27C19.5419 33.89 19.8086 33.5933 20.1486 33.38C20.4953 33.1667 20.8919 33.06 21.3386 33.06C21.9853 33.06 22.4886 33.27 22.8486 33.69C23.2086 34.11 23.3886 34.6867 23.3886 35.42V35.7H19.6586C19.6786 36.3 19.8419 36.7633 20.1486 37.09C20.4619 37.41 20.8953 37.57 21.4486 37.57C21.7486 37.57 22.0286 37.5233 22.2886 37.43C22.5553 37.3367 22.8153 37.18 23.0686 36.96L23.3086 37.42C23.0953 37.6267 22.8219 37.79 22.4886 37.91C22.1553 38.0233 21.8153 38.08 21.4686 38.08ZM21.3486 33.55C20.8419 33.55 20.4453 33.71 20.1586 34.03C19.8786 34.3433 19.7153 34.75 19.6686 35.25H22.8386C22.8253 34.7167 22.6919 34.3 22.4386 34C22.1853 33.7 21.8219 33.55 21.3486 33.55ZM26.132 38.08C25.8054 38.08 25.512 38.0167 25.252 37.89C24.9987 37.7633 24.7954 37.59 24.642 37.37C24.4954 37.15 24.422 36.9033 24.422 36.63C24.422 36.27 24.512 35.99 24.692 35.79C24.872 35.5833 25.1754 35.4367 25.602 35.35C26.0287 35.2633 26.6154 35.22 27.362 35.22H27.672V34.86C27.672 34.4133 27.582 34.09 27.402 33.89C27.222 33.6833 26.9354 33.58 26.542 33.58C26.2487 33.58 25.9654 33.6233 25.692 33.71C25.4254 33.7967 25.1487 33.9333 24.862 34.12L24.622 33.65C24.8754 33.47 25.1754 33.3267 25.522 33.22C25.8687 33.1133 26.2054 33.06 26.532 33.06C27.1187 33.06 27.552 33.21 27.832 33.51C28.1187 33.81 28.262 34.27 28.262 34.89V38H27.682V37.13C27.5487 37.43 27.3454 37.6633 27.072 37.83C26.8054 37.9967 26.492 38.08 26.132 38.08ZM26.212 37.59C26.4987 37.59 26.7487 37.5233 26.962 37.39C27.182 37.25 27.3554 37.06 27.482 36.82C27.6087 36.58 27.672 36.3067 27.672 36V35.67H27.372C26.772 35.67 26.302 35.6967 25.962 35.75C25.6287 35.8033 25.3954 35.8967 25.262 36.03C25.1287 36.1633 25.062 36.3467 25.062 36.58C25.062 36.88 25.1654 37.1233 25.372 37.31C25.5787 37.4967 25.8587 37.59 26.212 37.59ZM31.6866 38.08C31.1466 38.08 30.74 37.9333 30.4666 37.64C30.2 37.3467 30.0666 36.9267 30.0666 36.38V33.64H29.1066V33.15H30.0666V31.65H30.6766V33.15H32.2466V33.64H30.6766V36.3C30.6766 36.7067 30.76 37.0167 30.9266 37.23C31.0933 37.4433 31.37 37.55 31.7566 37.55C31.87 37.55 31.98 37.5367 32.0866 37.51C32.1933 37.4833 32.2866 37.4533 32.3666 37.42L32.4866 37.9C32.4133 37.9467 32.2966 37.9867 32.1366 38.02C31.9766 38.06 31.8266 38.08 31.6866 38.08ZM33.1063 31.87V31.1H33.9263V31.87H33.1063ZM33.2063 38V33.15H33.8163V38H33.2063ZM35.423 38V33.15H36.023V34.02C36.183 33.7 36.413 33.46 36.713 33.3C37.013 33.14 37.3464 33.06 37.713 33.06C38.8664 33.06 39.443 33.6867 39.443 34.94V38H38.833V34.99C38.833 34.51 38.7364 34.1567 38.543 33.93C38.3497 33.7033 38.043 33.59 37.623 33.59C37.143 33.59 36.7564 33.74 36.463 34.04C36.1764 34.3333 36.033 34.73 36.033 35.23V38H35.423ZM43.1288 39.88C42.2821 39.88 41.5788 39.6567 41.0188 39.21L41.2488 38.75C41.5554 38.97 41.8521 39.1267 42.1388 39.22C42.4254 39.32 42.7488 39.37 43.1088 39.37C43.5954 39.37 43.9654 39.2367 44.2188 38.97C44.4721 38.7033 44.5988 38.3167 44.5988 37.81V36.87C44.4588 37.19 44.2354 37.44 43.9288 37.62C43.6288 37.8 43.2854 37.89 42.8988 37.89C42.4454 37.89 42.0554 37.79 41.7288 37.59C41.4088 37.3833 41.1588 37.1 40.9788 36.74C40.8054 36.3733 40.7188 35.95 40.7188 35.47C40.7188 34.99 40.8054 34.57 40.9788 34.21C41.1588 33.85 41.4088 33.57 41.7288 33.37C42.0554 33.1633 42.4454 33.06 42.8988 33.06C43.2854 33.06 43.6288 33.15 43.9288 33.33C44.2288 33.51 44.4488 33.7567 44.5888 34.07V33.15H45.1888V37.72C45.1888 39.16 44.5021 39.88 43.1288 39.88ZM42.9688 37.37C43.4688 37.37 43.8654 37.2 44.1588 36.86C44.4521 36.5133 44.5988 36.05 44.5988 35.47C44.5988 34.89 44.4521 34.43 44.1588 34.09C43.8654 33.75 43.4688 33.58 42.9688 33.58C42.4621 33.58 42.0621 33.75 41.7688 34.09C41.4821 34.43 41.3388 34.89 41.3388 35.47C41.3388 36.05 41.4821 36.5133 41.7688 36.86C42.0621 37.2 42.4621 37.37 42.9688 37.37Z" fill="black"/>
<path d="M23 17H27" stroke="black" stroke-width="1.1" stroke-linecap="round"/>
<path d="M22 14L26 10" stroke="black" stroke-width="1.1" stroke-linecap="round"/>
<path d="M20 14L24 10" stroke="black" stroke-width="1.1" stroke-linecap="round"/>
</svg>
