<svg width="35" height="43" viewBox="0 0 35 43" fill="none" xmlns="http://www.w3.org/2000/svg">
<path d="M1.19344 36V28.95H3.85344C4.60677 28.95 5.1801 29.1233 5.57344 29.47C5.97344 29.8167 6.17344 30.31 6.17344 30.95C6.17344 31.4767 6.0301 31.9033 5.74344 32.23C5.45677 32.5567 5.0501 32.7667 4.52344 32.86C4.8101 32.9667 5.06344 33.2267 5.28344 33.64L6.56344 36H5.89344L4.67344 33.74C4.5001 33.4267 4.30677 33.2167 4.09344 33.11C3.8801 33.0033 3.59344 32.95 3.23344 32.95H1.80344V36H1.19344ZM1.80344 32.43H3.77344C4.9601 32.43 5.55344 31.9367 5.55344 30.95C5.55344 29.97 4.9601 29.48 3.77344 29.48H1.80344V32.43ZM7.68477 36V28.95H8.29477V31.99C8.46143 31.6833 8.69143 31.4533 8.98477 31.3C9.28477 31.14 9.61477 31.06 9.97477 31.06C11.1281 31.06 11.7048 31.6867 11.7048 32.94V36H11.0948V32.99C11.0948 32.51 10.9981 32.1567 10.8048 31.93C10.6114 31.7033 10.3048 31.59 9.88477 31.59C9.40477 31.59 9.0181 31.74 8.72477 32.04C8.4381 32.3333 8.29477 32.73 8.29477 33.23V36H7.68477ZM13.8516 37.8L14.6516 35.98L12.5916 31.15H13.2716L14.9816 35.33L16.7116 31.15H17.3716L14.5116 37.8H13.8516ZM20.2179 36.08C19.6779 36.08 19.2712 35.9333 18.9979 35.64C18.7312 35.3467 18.5979 34.9267 18.5979 34.38V31.64H17.6379V31.15H18.5979V29.65H19.2079V31.15H20.7779V31.64H19.2079V34.3C19.2079 34.7067 19.2912 35.0167 19.4579 35.23C19.6246 35.4433 19.9012 35.55 20.2879 35.55C20.4012 35.55 20.5112 35.5367 20.6179 35.51C20.7246 35.4833 20.8179 35.4533 20.8979 35.42L21.0179 35.9C20.9446 35.9467 20.8279 35.9867 20.6679 36.02C20.5079 36.06 20.3579 36.08 20.2179 36.08ZM21.7375 36V28.95H22.3475V31.99C22.5142 31.6833 22.7442 31.4533 23.0375 31.3C23.3375 31.14 23.6675 31.06 24.0275 31.06C25.1808 31.06 25.7575 31.6867 25.7575 32.94V36H25.1475V32.99C25.1475 32.51 25.0508 32.1567 24.8575 31.93C24.6642 31.7033 24.3575 31.59 23.9375 31.59C23.4575 31.59 23.0708 31.74 22.7775 32.04C22.4908 32.3333 22.3475 32.73 22.3475 33.23V36H21.7375ZM27.3532 36V31.15H27.9532V32C28.2532 31.3733 28.7632 31.06 29.4832 31.06C30.2565 31.06 30.7465 31.3967 30.9532 32.07C31.0932 31.7567 31.3065 31.51 31.5932 31.33C31.8799 31.15 32.2132 31.06 32.5932 31.06C33.6665 31.06 34.2032 31.6867 34.2032 32.94V36H33.5932V32.99C33.5932 32.51 33.5065 32.1567 33.3332 31.93C33.1665 31.7033 32.8832 31.59 32.4832 31.59C32.0565 31.59 31.7165 31.74 31.4632 32.04C31.2099 32.3333 31.0832 32.7333 31.0832 33.24V36H30.4732V32.99C30.4732 32.51 30.3865 32.1567 30.2132 31.93C30.0465 31.7033 29.7665 31.59 29.3732 31.59C28.9399 31.59 28.5965 31.74 28.3432 32.04C28.0899 32.3333 27.9632 32.7333 27.9632 33.24V36H27.3532Z" fill="black"/>
<path d="M17 14L17 23" stroke="black" stroke-width="1.1" stroke-linecap="round"/>
<path d="M17 5L17 14" stroke="black" stroke-width="1.1" stroke-linecap="round"/>
<path d="M10 17H14" stroke="black" stroke-width="1.1" stroke-linecap="round"/>
<path d="M20 17H24" stroke="black" stroke-width="1.1" stroke-linecap="round"/>
<path d="M17 14L21 10" stroke="black" stroke-width="1.1" stroke-linecap="round"/>
</svg>
