<svg width="24" height="44" viewBox="0 0 24 44" fill="none" xmlns="http://www.w3.org/2000/svg">
<g clip-path="url(#clip0_1865_18679)">
<mask id="mask0_1865_18679" style="mask-type:alpha" maskUnits="userSpaceOnUse" x="-1" y="0" width="26" height="25">
<g clip-path="url(#clip1_1865_18679)">
<line x1="0.192119" y1="18.2825" x2="18.7999" y2="-1.67199" stroke="black" stroke-linecap="round"/>
<line x1="0.0873829" y1="15.2843" x2="18.6952" y2="-4.67016" stroke="black" stroke-linecap="round"/>
<line x1="-0.0173534" y1="12.2861" x2="18.5905" y2="-7.66833" stroke="black" stroke-linecap="round"/>
<line x1="-0.12209" y1="9.28795" x2="18.4857" y2="-10.6665" stroke="black" stroke-linecap="round"/>
<line x1="-0.226826" y1="6.28978" x2="18.381" y2="-13.6647" stroke="black" stroke-linecap="round"/>
<line x1="0.401592" y1="24.2788" x2="20.9384" y2="2.25576" stroke="black" stroke-linecap="round"/>
<line x1="0.506084" y1="27.277" x2="23.9364" y2="2.15106" stroke="black" stroke-linecap="round"/>
<line x1="0.61082" y1="30.2751" x2="25.0056" y2="4.11494" stroke="black" stroke-linecap="round"/>
<line x1="0.715557" y1="33.2733" x2="25.1103" y2="7.11311" stroke="black" stroke-linecap="round"/>
<line x1="0.820293" y1="36.2715" x2="26.1796" y2="9.07699" stroke="black" stroke-linecap="round"/>
<line x1="0.925029" y1="39.2696" x2="25.3198" y2="13.1094" stroke="black" stroke-linecap="round"/>
<line x1="1.02977" y1="42.2678" x2="26.389" y2="15.0733" stroke="black" stroke-linecap="round"/>
<line x1="1.13426" y1="45.266" x2="26.4935" y2="18.0715" stroke="black" stroke-linecap="round"/>
<line x1="1.23899" y1="48.2641" x2="26.5983" y2="21.0697" stroke="black" stroke-linecap="round"/>
<line x1="1.34373" y1="51.2623" x2="26.703" y2="24.0678" stroke="black" stroke-linecap="round"/>
<line x1="0.296856" y1="21.2806" x2="18.9047" y2="1.32618" stroke="black" stroke-linecap="round"/>
<line x1="0.296856" y1="21.2806" x2="18.9047" y2="1.32618" stroke="black" stroke-linecap="round"/>
<line x1="-3.22487" y1="6.3944" x2="15.383" y2="-13.5601" stroke="black" stroke-linecap="round"/>
</g>
</mask>
<g mask="url(#mask0_1865_18679)">
<path d="M17 2.5V21.4784C17 21.9326 16.4433 22.1515 16.1339 21.8189L7.13391 12.1439C7.04784 12.0514 7 11.9298 7 11.8034V2.5C7 2.22386 7.22386 2 7.5 2H16.5C16.7761 2 17 2.22386 17 2.5Z" fill="black"/>
</g>
<path d="M17 2.5V21.4784C17 21.9326 16.4433 22.1515 16.1339 21.8189L7.13391 12.1439C7.04784 12.0514 7 11.9298 7 11.8034V2.5C7 2.22386 7.22386 2 7.5 2H16.5C16.7761 2 17 2.22386 17 2.5Z" stroke="black" stroke-width="1.1" stroke-linecap="round" stroke-linejoin="round"/>
</g>
<path d="M4.04109 37V29.95H6.70109C7.45443 29.95 8.02776 30.1233 8.42109 30.47C8.82109 30.8167 9.02109 31.31 9.02109 31.95C9.02109 32.4767 8.87776 32.9033 8.59109 33.23C8.30443 33.5567 7.89776 33.7667 7.37109 33.86C7.65776 33.9667 7.91109 34.2267 8.13109 34.64L9.41109 37H8.74109L7.52109 34.74C7.34776 34.4267 7.15443 34.2167 6.94109 34.11C6.72776 34.0033 6.44109 33.95 6.08109 33.95H4.65109V37H4.04109ZM4.65109 33.43H6.62109C7.80776 33.43 8.40109 32.9367 8.40109 31.95C8.40109 30.97 7.80776 30.48 6.62109 30.48H4.65109V33.43ZM10.6524 37V29.95H13.3424C14.0624 29.95 14.6191 30.11 15.0124 30.43C15.4124 30.75 15.6124 31.2067 15.6124 31.8C15.6124 32.1867 15.5091 32.5167 15.3024 32.79C15.0958 33.0633 14.8158 33.2633 14.4624 33.39C14.8691 33.49 15.1891 33.6867 15.4224 33.98C15.6558 34.2667 15.7724 34.6333 15.7724 35.08C15.7724 35.7067 15.5724 36.1833 15.1724 36.51C14.7724 36.8367 14.2058 37 13.4724 37H10.6524ZM11.2524 33.17H13.2724C13.8324 33.17 14.2591 33.0567 14.5524 32.83C14.8458 32.5967 14.9924 32.26 14.9924 31.82C14.9924 31.38 14.8458 31.0467 14.5524 30.82C14.2591 30.5867 13.8324 30.47 13.2724 30.47H11.2524V33.17ZM11.2524 36.48H13.4224C14.5758 36.48 15.1524 36.0167 15.1524 35.09C15.1524 34.61 15.0091 34.2567 14.7224 34.03C14.4358 33.8033 14.0024 33.69 13.4224 33.69H11.2524V36.48ZM17.3614 37V29.95H17.9714V33.15H22.4714V29.95H23.0814V37H22.4714V33.7H17.9714V37H17.3614Z" fill="black"/>
<defs>
<clipPath id="clip0_1865_18679">
<rect width="24" height="24" fill="white"/>
</clipPath>
<clipPath id="clip1_1865_18679">
<rect width="24" height="24" fill="white" transform="translate(-0.411377 1) rotate(-2)"/>
</clipPath>
</defs>
</svg>
