<svg width="25" height="46" viewBox="0 0 25 46" fill="none" xmlns="http://www.w3.org/2000/svg">
<path d="M11 1L11 23" stroke="black" stroke-width="1.1" stroke-linecap="round" stroke-linejoin="round" stroke-dasharray="2 2"/>
<path d="M13 1L13 23" stroke="black" stroke-width="1.1" stroke-linecap="round" stroke-linejoin="round"/>
<path d="M16 7.55556C16 9.51923 14 10.6667 12 12C10 10.6667 8 9.51923 8 7.55556C8 5.59188 9.79086 4 12 4C14.2091 4 16 5.59188 16 7.55556Z" stroke="black" stroke-width="1.1"/>
<path d="M16 16.4444C16 14.4808 14 13.3333 12 12C10 13.3333 8 14.4808 8 16.4444C8 18.4081 9.79086 20 12 20C14.2091 20 16 18.4081 16 16.4444Z" stroke="black" stroke-width="1.1"/>
<path d="M1.36531 39V31.95H4.02531C4.77865 31.95 5.35198 32.1233 5.74531 32.47C6.14531 32.8167 6.34531 33.31 6.34531 33.95C6.34531 34.4767 6.20198 34.9033 5.91531 35.23C5.62865 35.5567 5.22198 35.7667 4.69531 35.86C4.98198 35.9667 5.23531 36.2267 5.45531 36.64L6.73531 39H6.06531L4.84531 36.74C4.67198 36.4267 4.47865 36.2167 4.26531 36.11C4.05198 36.0033 3.76531 35.95 3.40531 35.95H1.97531V39H1.36531ZM1.97531 35.43H3.94531C5.13198 35.43 5.72531 34.9367 5.72531 33.95C5.72531 32.97 5.13198 32.48 3.94531 32.48H1.97531V35.43ZM7.75664 32.87V32.1H8.57664V32.87H7.75664ZM7.85664 39V34.15H8.46664V39H7.85664ZM12.1834 40.88C11.3368 40.88 10.6334 40.6567 10.0734 40.21L10.3034 39.75C10.6101 39.97 10.9068 40.1267 11.1934 40.22C11.4801 40.32 11.8034 40.37 12.1634 40.37C12.6501 40.37 13.0201 40.2367 13.2734 39.97C13.5268 39.7033 13.6534 39.3167 13.6534 38.81V37.87C13.5134 38.19 13.2901 38.44 12.9834 38.62C12.6834 38.8 12.3401 38.89 11.9534 38.89C11.5001 38.89 11.1101 38.79 10.7834 38.59C10.4634 38.3833 10.2134 38.1 10.0334 37.74C9.8601 37.3733 9.77344 36.95 9.77344 36.47C9.77344 35.99 9.8601 35.57 10.0334 35.21C10.2134 34.85 10.4634 34.57 10.7834 34.37C11.1101 34.1633 11.5001 34.06 11.9534 34.06C12.3401 34.06 12.6834 34.15 12.9834 34.33C13.2834 34.51 13.5034 34.7567 13.6434 35.07V34.15H14.2434V38.72C14.2434 40.16 13.5568 40.88 12.1834 40.88ZM12.0234 38.37C12.5234 38.37 12.9201 38.2 13.2134 37.86C13.5068 37.5133 13.6534 37.05 13.6534 36.47C13.6534 35.89 13.5068 35.43 13.2134 35.09C12.9201 34.75 12.5234 34.58 12.0234 34.58C11.5168 34.58 11.1168 34.75 10.8234 35.09C10.5368 35.43 10.3934 35.89 10.3934 36.47C10.3934 37.05 10.5368 37.5133 10.8234 37.86C11.1168 38.2 11.5168 38.37 12.0234 38.37ZM15.8547 39V31.95H16.4647V34.99C16.6314 34.6833 16.8614 34.4533 17.1547 34.3C17.4547 34.14 17.7847 34.06 18.1447 34.06C19.298 34.06 19.8747 34.6867 19.8747 35.94V39H19.2647V35.99C19.2647 35.51 19.168 35.1567 18.9747 34.93C18.7814 34.7033 18.4747 34.59 18.0547 34.59C17.5747 34.59 17.188 34.74 16.8947 35.04C16.608 35.3333 16.4647 35.73 16.4647 36.23V39H15.8547ZM23.2804 39.08C22.7404 39.08 22.3337 38.9333 22.0604 38.64C21.7937 38.3467 21.6604 37.9267 21.6604 37.38V34.64H20.7004V34.15H21.6604V32.65H22.2704V34.15H23.8404V34.64H22.2704V37.3C22.2704 37.7067 22.3537 38.0167 22.5204 38.23C22.6871 38.4433 22.9637 38.55 23.3504 38.55C23.4637 38.55 23.5737 38.5367 23.6804 38.51C23.7871 38.4833 23.8804 38.4533 23.9604 38.42L24.0804 38.9C24.0071 38.9467 23.8904 38.9867 23.7304 39.02C23.5704 39.06 23.4204 39.08 23.2804 39.08Z" fill="black"/>
</svg>
