<svg width="45" height="42" viewBox="0 0 45 42" fill="none" xmlns="http://www.w3.org/2000/svg">
<circle cx="24" cy="12" r="0.75" fill="black"/>
<path d="M19 21.4784V2.5216C19 2.06739 19.5567 1.84848 19.8661 2.18105L28.6832 11.6594C28.8617 11.8514 28.8617 12.1486 28.6832 12.3406L19.8661 21.8189C19.5567 22.1515 19 21.9326 19 21.4784Z" fill="black" stroke="black" stroke-width="1.1" stroke-linecap="round" stroke-linejoin="round"/>
<path d="M1.73055 35V27.95H4.39055C5.14388 27.95 5.71721 28.1233 6.11055 28.47C6.51055 28.8167 6.71055 29.31 6.71055 29.95C6.71055 30.4767 6.56721 30.9033 6.28055 31.23C5.99388 31.5567 5.58721 31.7667 5.06055 31.86C5.34721 31.9667 5.60055 32.2267 5.82055 32.64L7.10055 35H6.43055L5.21055 32.74C5.03721 32.4267 4.84388 32.2167 4.63055 32.11C4.41721 32.0033 4.13055 31.95 3.77055 31.95H2.34055V35H1.73055ZM2.34055 31.43H4.31055C5.49721 31.43 6.09055 30.9367 6.09055 29.95C6.09055 28.97 5.49721 28.48 4.31055 28.48H2.34055V31.43ZM8.12188 28.87V28.1H8.94188V28.87H8.12188ZM8.22188 35V30.15H8.83188V35H8.22188ZM12.5487 36.88C11.702 36.88 10.9987 36.6567 10.4387 36.21L10.6687 35.75C10.9753 35.97 11.272 36.1267 11.5587 36.22C11.8453 36.32 12.1687 36.37 12.5287 36.37C13.0153 36.37 13.3853 36.2367 13.6387 35.97C13.892 35.7033 14.0187 35.3167 14.0187 34.81V33.87C13.8787 34.19 13.6553 34.44 13.3487 34.62C13.0487 34.8 12.7053 34.89 12.3187 34.89C11.8653 34.89 11.4753 34.79 11.1487 34.59C10.8287 34.3833 10.5787 34.1 10.3987 33.74C10.2253 33.3733 10.1387 32.95 10.1387 32.47C10.1387 31.99 10.2253 31.57 10.3987 31.21C10.5787 30.85 10.8287 30.57 11.1487 30.37C11.4753 30.1633 11.8653 30.06 12.3187 30.06C12.7053 30.06 13.0487 30.15 13.3487 30.33C13.6487 30.51 13.8687 30.7567 14.0087 31.07V30.15H14.6087V34.72C14.6087 36.16 13.922 36.88 12.5487 36.88ZM12.3887 34.37C12.8887 34.37 13.2853 34.2 13.5787 33.86C13.872 33.5133 14.0187 33.05 14.0187 32.47C14.0187 31.89 13.872 31.43 13.5787 31.09C13.2853 30.75 12.8887 30.58 12.3887 30.58C11.882 30.58 11.482 30.75 11.1887 31.09C10.902 31.43 10.7587 31.89 10.7587 32.47C10.7587 33.05 10.902 33.5133 11.1887 33.86C11.482 34.2 11.882 34.37 12.3887 34.37ZM16.2199 35V27.95H16.8299V30.99C16.9966 30.6833 17.2266 30.4533 17.5199 30.3C17.8199 30.14 18.1499 30.06 18.5099 30.06C19.6633 30.06 20.2399 30.6867 20.2399 31.94V35H19.6299V31.99C19.6299 31.51 19.5333 31.1567 19.3399 30.93C19.1466 30.7033 18.8399 30.59 18.4199 30.59C17.9399 30.59 17.5533 30.74 17.2599 31.04C16.9733 31.3333 16.8299 31.73 16.8299 32.23V35H16.2199ZM23.6456 35.08C23.1056 35.08 22.699 34.9333 22.4256 34.64C22.159 34.3467 22.0256 33.9267 22.0256 33.38V30.64H21.0656V30.15H22.0256V28.65H22.6356V30.15H24.2056V30.64H22.6356V33.3C22.6356 33.7067 22.719 34.0167 22.8856 34.23C23.0523 34.4433 23.329 34.55 23.7156 34.55C23.829 34.55 23.939 34.5367 24.0456 34.51C24.1523 34.4833 24.2456 34.4533 24.3256 34.42L24.4456 34.9C24.3723 34.9467 24.2556 34.9867 24.0956 35.02C23.9356 35.06 23.7856 35.08 23.6456 35.08ZM24.9783 32.6V32.08H27.6983V32.6H24.9783ZM30.6475 35.08C30.1942 35.08 29.8442 34.9433 29.5975 34.67C29.3575 34.39 29.2375 33.99 29.2375 33.47V27.95H29.8475V33.4C29.8475 34.1667 30.1475 34.55 30.7475 34.55C30.9142 34.55 31.0675 34.53 31.2075 34.49L31.1875 35.02C30.9942 35.06 30.8142 35.08 30.6475 35.08ZM33.9702 35.08C33.5169 35.08 33.1236 34.98 32.7902 34.78C32.4569 34.5733 32.1969 34.2833 32.0102 33.91C31.8302 33.53 31.7402 33.0833 31.7402 32.57C31.7402 32.0633 31.8302 31.6233 32.0102 31.25C32.1969 30.87 32.4569 30.5767 32.7902 30.37C33.1236 30.1633 33.5169 30.06 33.9702 30.06C34.4302 30.06 34.8269 30.1633 35.1602 30.37C35.4936 30.5767 35.7502 30.87 35.9302 31.25C36.1169 31.6233 36.2102 32.0633 36.2102 32.57C36.2102 33.0833 36.1169 33.53 35.9302 33.91C35.7502 34.2833 35.4936 34.5733 35.1602 34.78C34.8269 34.98 34.4302 35.08 33.9702 35.08ZM33.9702 34.57C34.4636 34.57 34.8569 34.3967 35.1502 34.05C35.4436 33.6967 35.5902 33.2033 35.5902 32.57C35.5902 31.9367 35.4436 31.4467 35.1502 31.1C34.8569 30.7533 34.4636 30.58 33.9702 30.58C33.4769 30.58 33.0836 30.7533 32.7902 31.1C32.5036 31.4467 32.3602 31.9367 32.3602 32.57C32.3602 33.2033 32.5036 33.6967 32.7902 34.05C33.0836 34.3967 33.4769 34.57 33.9702 34.57ZM38.7304 35L36.9704 30.15H37.6204L39.0504 34.28L40.5404 30.15H41.1404L42.6004 34.29L44.0604 30.15H44.6904L42.9204 35H42.2904L40.8304 30.94L39.3604 35H38.7304Z" fill="black"/>
</svg>
