<svg width="24" height="43" viewBox="0 0 24 43" fill="none" xmlns="http://www.w3.org/2000/svg">
<circle cx="12" cy="12" r="0.75" fill="black"/>
<path d="M16.5 22H7.5C7.22386 22 7 21.7761 7 21.5V12.1966C7 12.0702 7.04784 11.9486 7.13391 11.8561L16.1339 2.18105C16.4433 1.84848 17 2.06739 17 2.5216V11.5V21.5C17 21.7761 16.7761 22 16.5 22Z" stroke="black" stroke-width="1.1" stroke-linecap="round" stroke-linejoin="round"/>
<path d="M1.40242 36V28.95H4.06242C4.81576 28.95 5.38909 29.1233 5.78242 29.47C6.18242 29.8167 6.38242 30.31 6.38242 30.95C6.38242 31.4767 6.23909 31.9033 5.95242 32.23C5.66576 32.5567 5.25909 32.7667 4.73242 32.86C5.01909 32.9667 5.27242 33.2267 5.49242 33.64L6.77242 36H6.10242L4.88242 33.74C4.70909 33.4267 4.51576 33.2167 4.30242 33.11C4.08909 33.0033 3.80242 32.95 3.44242 32.95H2.01242V36H1.40242ZM2.01242 32.43H3.98242C5.16909 32.43 5.76242 31.9367 5.76242 30.95C5.76242 29.97 5.16909 29.48 3.98242 29.48H2.01242V32.43ZM8.01375 36V28.95H12.2538V29.48H8.62375V32.17H12.0538V32.7H8.62375V36H8.01375ZM13.4537 36V28.95H13.9737L16.7737 34.26L19.5537 28.95H20.0737V36H19.5037V30.14L16.9937 34.91H16.5537L14.0137 30.15V36H13.4537Z" fill="black"/>
</svg>
