<svg width="28" height="40" viewBox="0 0 28 40" fill="none" xmlns="http://www.w3.org/2000/svg">
<path d="M1.72273 33V25.95H4.38273C5.13607 25.95 5.7094 26.1233 6.10273 26.47C6.50273 26.8167 6.70273 27.31 6.70273 27.95C6.70273 28.4767 6.5594 28.9033 6.27273 29.23C5.98607 29.5567 5.5794 29.7667 5.05273 29.86C5.3394 29.9667 5.59273 30.2267 5.81273 30.64L7.09273 33H6.42273L5.20273 30.74C5.0294 30.4267 4.83607 30.2167 4.62273 30.11C4.4094 30.0033 4.12273 29.95 3.76273 29.95H2.33273V33H1.72273ZM2.33273 29.43H4.30273C5.4894 29.43 6.08273 28.9367 6.08273 27.95C6.08273 26.97 5.4894 26.48 4.30273 26.48H2.33273V29.43ZM8.11406 26.87V26.1H8.93406V26.87H8.11406ZM8.21406 33V28.15H8.82406V33H8.21406ZM12.0109 33.08C11.6509 33.08 11.3042 33.0267 10.9709 32.92C10.6442 32.8133 10.3742 32.66 10.1609 32.46L10.3809 32.01C10.6275 32.21 10.8909 32.3567 11.1709 32.45C11.4509 32.5367 11.7375 32.58 12.0309 32.58C12.4442 32.58 12.7542 32.5067 12.9609 32.36C13.1742 32.2067 13.2809 31.9967 13.2809 31.73C13.2809 31.5233 13.2109 31.36 13.0709 31.24C12.9309 31.12 12.7109 31.0233 12.4109 30.95L11.5409 30.75C10.7209 30.5633 10.3109 30.14 10.3109 29.48C10.3109 29.0533 10.4775 28.71 10.8109 28.45C11.1442 28.19 11.5842 28.06 12.1309 28.06C12.4642 28.06 12.7775 28.1167 13.0709 28.23C13.3642 28.3367 13.6042 28.4933 13.7909 28.7L13.5509 29.15C13.3575 28.9567 13.1375 28.8133 12.8909 28.72C12.6442 28.62 12.3875 28.57 12.1209 28.57C11.7342 28.57 11.4342 28.65 11.2209 28.81C11.0142 28.97 10.9109 29.1867 10.9109 29.46C10.9109 29.6667 10.9742 29.8333 11.1009 29.96C11.2275 30.0867 11.4342 30.1833 11.7209 30.25L12.5909 30.45C13.0242 30.55 13.3475 30.7 13.5609 30.9C13.7742 31.0933 13.8809 31.3567 13.8809 31.69C13.8809 32.1233 13.7109 32.4633 13.3709 32.71C13.0309 32.9567 12.5775 33.08 12.0109 33.08ZM15.1063 26.87V26.1H15.9263V26.87H15.1063ZM15.2063 33V28.15H15.8163V33H15.2063ZM17.423 33V28.15H18.023V29.02C18.183 28.7 18.413 28.46 18.713 28.3C19.013 28.14 19.3464 28.06 19.713 28.06C20.8664 28.06 21.443 28.6867 21.443 29.94V33H20.833V29.99C20.833 29.51 20.7364 29.1567 20.543 28.93C20.3497 28.7033 20.043 28.59 19.623 28.59C19.143 28.59 18.7564 28.74 18.463 29.04C18.1764 29.3333 18.033 29.73 18.033 30.23V33H17.423ZM25.1288 34.88C24.2821 34.88 23.5788 34.6567 23.0188 34.21L23.2488 33.75C23.5554 33.97 23.8521 34.1267 24.1388 34.22C24.4254 34.32 24.7488 34.37 25.1088 34.37C25.5954 34.37 25.9654 34.2367 26.2188 33.97C26.4721 33.7033 26.5988 33.3167 26.5988 32.81V31.87C26.4588 32.19 26.2354 32.44 25.9288 32.62C25.6288 32.8 25.2854 32.89 24.8988 32.89C24.4454 32.89 24.0554 32.79 23.7288 32.59C23.4088 32.3833 23.1588 32.1 22.9788 31.74C22.8054 31.3733 22.7188 30.95 22.7188 30.47C22.7188 29.99 22.8054 29.57 22.9788 29.21C23.1588 28.85 23.4088 28.57 23.7288 28.37C24.0554 28.1633 24.4454 28.06 24.8988 28.06C25.2854 28.06 25.6288 28.15 25.9288 28.33C26.2288 28.51 26.4488 28.7567 26.5888 29.07V28.15H27.1888V32.72C27.1888 34.16 26.5021 34.88 25.1288 34.88ZM24.9688 32.37C25.4688 32.37 25.8654 32.2 26.1588 31.86C26.4521 31.5133 26.5988 31.05 26.5988 30.47C26.5988 29.89 26.4521 29.43 26.1588 29.09C25.8654 28.75 25.4688 28.58 24.9688 28.58C24.4621 28.58 24.0621 28.75 23.7688 29.09C23.4821 29.43 23.3388 29.89 23.3388 30.47C23.3388 31.05 23.4821 31.5133 23.7688 31.86C24.0621 32.2 24.4621 32.37 24.9688 32.37Z" fill="black"/>
<path d="M13 14L17 10" stroke="black" stroke-width="1.1" stroke-linecap="round"/>
<path d="M11 14L15 10" stroke="black" stroke-width="1.1" stroke-linecap="round"/>
<path d="M11 5L11 14" stroke="black" stroke-width="1.1" stroke-linecap="round"/>
</svg>
