<svg width="35" height="44" viewBox="0 0 35 44" fill="none" xmlns="http://www.w3.org/2000/svg">
<path d="M4.10633 37.08C3.55966 37.08 3.06633 37.01 2.62633 36.87C2.19299 36.7233 1.81633 36.51 1.49633 36.23L1.73633 35.72C2.08299 35.9933 2.43633 36.1967 2.79633 36.33C3.16299 36.4567 3.59966 36.52 4.10633 36.52C4.73966 36.52 5.21299 36.3967 5.52633 36.15C5.84633 35.9033 6.00633 35.58 6.00633 35.18C6.00633 34.8467 5.88966 34.5867 5.65633 34.4C5.42966 34.2133 5.05299 34.0667 4.52633 33.96L3.51633 33.75C2.88966 33.6233 2.41966 33.41 2.10633 33.11C1.79966 32.81 1.64633 32.41 1.64633 31.91C1.64633 31.5033 1.74966 31.1467 1.95633 30.84C2.16966 30.5333 2.46299 30.2967 2.83633 30.13C3.20966 29.9567 3.63966 29.87 4.12633 29.87C5.09966 29.87 5.87633 30.1633 6.45633 30.75L6.21633 31.25C5.90966 30.9633 5.58966 30.7567 5.25633 30.63C4.92299 30.4967 4.54633 30.43 4.12633 30.43C3.56633 30.43 3.11633 30.5633 2.77633 30.83C2.44299 31.0967 2.27633 31.4533 2.27633 31.9C2.27633 32.2533 2.38299 32.5333 2.59633 32.74C2.80966 32.94 3.15299 33.0867 3.62633 33.18L4.64633 33.39C5.31966 33.53 5.81966 33.74 6.14633 34.02C6.47299 34.2933 6.63633 34.67 6.63633 35.15C6.63633 35.53 6.53299 35.8667 6.32633 36.16C6.12633 36.4467 5.83633 36.6733 5.45633 36.84C5.07633 37 4.62633 37.08 4.10633 37.08ZM9.36055 37.08C9.03388 37.08 8.74055 37.0167 8.48055 36.89C8.22721 36.7633 8.02388 36.59 7.87055 36.37C7.72388 36.15 7.65055 35.9033 7.65055 35.63C7.65055 35.27 7.74055 34.99 7.92055 34.79C8.10055 34.5833 8.40388 34.4367 8.83055 34.35C9.25721 34.2633 9.84388 34.22 10.5905 34.22H10.9005V33.86C10.9005 33.4133 10.8105 33.09 10.6305 32.89C10.4505 32.6833 10.1639 32.58 9.77055 32.58C9.47721 32.58 9.19388 32.6233 8.92055 32.71C8.65388 32.7967 8.37721 32.9333 8.09055 33.12L7.85055 32.65C8.10388 32.47 8.40388 32.3267 8.75055 32.22C9.09721 32.1133 9.43388 32.06 9.76055 32.06C10.3472 32.06 10.7805 32.21 11.0605 32.51C11.3472 32.81 11.4905 33.27 11.4905 33.89V37H10.9105V36.13C10.7772 36.43 10.5739 36.6633 10.3005 36.83C10.0339 36.9967 9.72055 37.08 9.36055 37.08ZM9.44055 36.59C9.72721 36.59 9.97721 36.5233 10.1905 36.39C10.4105 36.25 10.5839 36.06 10.7105 35.82C10.8372 35.58 10.9005 35.3067 10.9005 35V34.67H10.6005C10.0005 34.67 9.53055 34.6967 9.19055 34.75C8.85721 34.8033 8.62388 34.8967 8.49055 35.03C8.35721 35.1633 8.29055 35.3467 8.29055 35.58C8.29055 35.88 8.39388 36.1233 8.60055 36.31C8.80721 36.4967 9.08721 36.59 9.44055 36.59ZM15.1952 38.88C14.3485 38.88 13.6452 38.6567 13.0852 38.21L13.3152 37.75C13.6218 37.97 13.9185 38.1267 14.2052 38.22C14.4918 38.32 14.8152 38.37 15.1752 38.37C15.6618 38.37 16.0318 38.2367 16.2852 37.97C16.5385 37.7033 16.6652 37.3167 16.6652 36.81V35.87C16.5252 36.19 16.3018 36.44 15.9952 36.62C15.6952 36.8 15.3518 36.89 14.9652 36.89C14.5118 36.89 14.1218 36.79 13.7952 36.59C13.4752 36.3833 13.2252 36.1 13.0452 35.74C12.8718 35.3733 12.7852 34.95 12.7852 34.47C12.7852 33.99 12.8718 33.57 13.0452 33.21C13.2252 32.85 13.4752 32.57 13.7952 32.37C14.1218 32.1633 14.5118 32.06 14.9652 32.06C15.3518 32.06 15.6952 32.15 15.9952 32.33C16.2952 32.51 16.5152 32.7567 16.6552 33.07V32.15H17.2552V36.72C17.2552 38.16 16.5685 38.88 15.1952 38.88ZM15.0352 36.37C15.5352 36.37 15.9318 36.2 16.2252 35.86C16.5185 35.5133 16.6652 35.05 16.6652 34.47C16.6652 33.89 16.5185 33.43 16.2252 33.09C15.9318 32.75 15.5352 32.58 15.0352 32.58C14.5285 32.58 14.1285 32.75 13.8352 33.09C13.5485 33.43 13.4052 33.89 13.4052 34.47C13.4052 35.05 13.5485 35.5133 13.8352 35.86C14.1285 36.2 14.5285 36.37 15.0352 36.37ZM18.7664 30.87V30.1H19.5864V30.87H18.7664ZM18.8664 37V32.15H19.4764V37H18.8664ZM22.9132 37.08C22.3732 37.08 21.9665 36.9333 21.6932 36.64C21.4265 36.3467 21.2932 35.9267 21.2932 35.38V32.64H20.3332V32.15H21.2932V30.65H21.9032V32.15H23.4732V32.64H21.9032V35.3C21.9032 35.7067 21.9865 36.0167 22.1532 36.23C22.3199 36.4433 22.5965 36.55 22.9832 36.55C23.0965 36.55 23.2065 36.5367 23.3132 36.51C23.4199 36.4833 23.5132 36.4533 23.5932 36.42L23.7132 36.9C23.6399 36.9467 23.5232 36.9867 23.3632 37.02C23.2032 37.06 23.0532 37.08 22.9132 37.08ZM26.2042 37.08C25.6642 37.08 25.2576 36.9333 24.9842 36.64C24.7176 36.3467 24.5842 35.9267 24.5842 35.38V32.64H23.6242V32.15H24.5842V30.65H25.1942V32.15H26.7642V32.64H25.1942V35.3C25.1942 35.7067 25.2776 36.0167 25.4442 36.23C25.6109 36.4433 25.8876 36.55 26.2742 36.55C26.3876 36.55 26.4976 36.5367 26.6042 36.51C26.7109 36.4833 26.8042 36.4533 26.8842 36.42L27.0042 36.9C26.9309 36.9467 26.8142 36.9867 26.6542 37.02C26.4942 37.06 26.3442 37.08 26.2042 37.08ZM29.2238 37.08C28.8972 37.08 28.6038 37.0167 28.3438 36.89C28.0905 36.7633 27.8872 36.59 27.7338 36.37C27.5872 36.15 27.5138 35.9033 27.5138 35.63C27.5138 35.27 27.6038 34.99 27.7838 34.79C27.9638 34.5833 28.2672 34.4367 28.6938 34.35C29.1205 34.2633 29.7072 34.22 30.4538 34.22H30.7638V33.86C30.7638 33.4133 30.6738 33.09 30.4938 32.89C30.3138 32.6833 30.0272 32.58 29.6338 32.58C29.3405 32.58 29.0572 32.6233 28.7838 32.71C28.5172 32.7967 28.2405 32.9333 27.9538 33.12L27.7138 32.65C27.9672 32.47 28.2672 32.3267 28.6138 32.22C28.9605 32.1133 29.2972 32.06 29.6238 32.06C30.2105 32.06 30.6438 32.21 30.9238 32.51C31.2105 32.81 31.3538 33.27 31.3538 33.89V37H30.7738V36.13C30.6405 36.43 30.4372 36.6633 30.1638 36.83C29.8972 36.9967 29.5838 37.08 29.2238 37.08ZM29.3038 36.59C29.5905 36.59 29.8405 36.5233 30.0538 36.39C30.2738 36.25 30.4472 36.06 30.5738 35.82C30.7005 35.58 30.7638 35.3067 30.7638 35V34.67H30.4638C29.8638 34.67 29.3938 34.6967 29.0538 34.75C28.7205 34.8033 28.4872 34.8967 28.3538 35.03C28.2205 35.1633 28.1538 35.3467 28.1538 35.58C28.1538 35.88 28.2572 36.1233 28.4638 36.31C28.6705 36.4967 28.9505 36.59 29.3038 36.59ZM34.3584 37.08C33.9051 37.08 33.5551 36.9433 33.3084 36.67C33.0684 36.39 32.9484 35.99 32.9484 35.47V29.95H33.5584V35.4C33.5584 36.1667 33.8584 36.55 34.4584 36.55C34.6251 36.55 34.7784 36.53 34.9184 36.49L34.8984 37.02C34.7051 37.06 34.5251 37.08 34.3584 37.08Z" fill="black"/>
<path d="M18.032 14.07C17.6447 14.07 17.2853 14.021 16.954 13.923C16.6227 13.8203 16.3427 13.6827 16.114 13.51L16.387 12.803C16.6157 12.9663 16.8653 13.0923 17.136 13.181C17.4113 13.2697 17.71 13.314 18.032 13.314C18.4007 13.314 18.669 13.2533 18.837 13.132C19.005 13.006 19.089 12.845 19.089 12.649C19.089 12.4857 19.0283 12.3573 18.907 12.264C18.7903 12.1707 18.5873 12.0937 18.298 12.033L17.528 11.872C16.6507 11.6853 16.212 11.235 16.212 10.521C16.212 10.213 16.2937 9.94467 16.457 9.716C16.6203 9.48733 16.8467 9.31 17.136 9.184C17.4253 9.058 17.759 8.995 18.137 8.995C18.473 8.995 18.788 9.04633 19.082 9.149C19.376 9.247 19.621 9.387 19.817 9.569L19.544 10.241C19.1567 9.91433 18.6853 9.751 18.13 9.751C17.808 9.751 17.556 9.81867 17.374 9.954C17.192 10.0893 17.101 10.2667 17.101 10.486C17.101 10.654 17.157 10.7893 17.269 10.892C17.381 10.99 17.5723 11.067 17.843 11.123L18.606 11.284C19.068 11.382 19.411 11.536 19.635 11.746C19.8637 11.956 19.978 12.236 19.978 12.586C19.978 12.88 19.8987 13.139 19.74 13.363C19.5813 13.587 19.355 13.762 19.061 13.888C18.7717 14.0093 18.4287 14.07 18.032 14.07Z" fill="black"/>
<path d="M13 19.9167V4.08335C13 3.85324 13.1865 3.66669 13.4167 3.66669H22.5833C22.8135 3.66669 23 3.85323 23 4.08335V19.9167C23 20.1468 22.8135 20.3334 22.5833 20.3334H13.4167C13.1865 20.3334 13 20.1468 13 19.9167Z" stroke="black" stroke-width="0.916667" stroke-linecap="round" stroke-linejoin="round"/>
</svg>
