<svg width="32" height="42" viewBox="0 0 32 42" fill="none" xmlns="http://www.w3.org/2000/svg">
<path d="M3.99695 35.08C3.45029 35.08 2.95695 35.01 2.51695 34.87C2.08362 34.7233 1.70695 34.51 1.38695 34.23L1.62695 33.72C1.97362 33.9933 2.32695 34.1967 2.68695 34.33C3.05362 34.4567 3.49029 34.52 3.99695 34.52C4.63029 34.52 5.10362 34.3967 5.41695 34.15C5.73695 33.9033 5.89695 33.58 5.89695 33.18C5.89695 32.8467 5.78029 32.5867 5.54695 32.4C5.32029 32.2133 4.94362 32.0667 4.41695 31.96L3.40695 31.75C2.78029 31.6233 2.31029 31.41 1.99695 31.11C1.69029 30.81 1.53695 30.41 1.53695 29.91C1.53695 29.5033 1.64029 29.1467 1.84695 28.84C2.06029 28.5333 2.35362 28.2967 2.72695 28.13C3.10029 27.9567 3.53029 27.87 4.01695 27.87C4.99029 27.87 5.76695 28.1633 6.34695 28.75L6.10695 29.25C5.80029 28.9633 5.48029 28.7567 5.14695 28.63C4.81362 28.4967 4.43695 28.43 4.01695 28.43C3.45695 28.43 3.00695 28.5633 2.66695 28.83C2.33362 29.0967 2.16695 29.4533 2.16695 29.9C2.16695 30.2533 2.27362 30.5333 2.48695 30.74C2.70029 30.94 3.04362 31.0867 3.51695 31.18L4.53695 31.39C5.21029 31.53 5.71029 31.74 6.03695 32.02C6.36362 32.2933 6.52695 32.67 6.52695 33.15C6.52695 33.53 6.42362 33.8667 6.21695 34.16C6.01695 34.4467 5.72695 34.6733 5.34695 34.84C4.96695 35 4.51695 35.08 3.99695 35.08ZM9.73117 35.08C9.25784 35.08 8.85117 34.9767 8.51117 34.77C8.17117 34.5567 7.90784 34.26 7.72117 33.88C7.54117 33.4933 7.45117 33.0467 7.45117 32.54C7.45117 31.7733 7.65117 31.17 8.05117 30.73C8.45784 30.2833 9.01784 30.06 9.73117 30.06C10.0245 30.06 10.3145 30.1167 10.6012 30.23C10.8878 30.3433 11.1278 30.5 11.3212 30.7L11.0812 31.16C10.8745 30.96 10.6545 30.8167 10.4212 30.73C10.1878 30.6367 9.96451 30.59 9.75117 30.59C9.21117 30.59 8.79451 30.76 8.50117 31.1C8.21451 31.44 8.07117 31.9233 8.07117 32.55C8.07117 33.1767 8.21451 33.67 8.50117 34.03C8.79451 34.3833 9.21117 34.56 9.75117 34.56C9.96451 34.56 10.1878 34.5167 10.4212 34.43C10.6545 34.3367 10.8745 34.19 11.0812 33.99L11.3212 34.45C11.1278 34.6433 10.8845 34.7967 10.5912 34.91C10.3045 35.0233 10.0178 35.08 9.73117 35.08ZM13.7922 35.08C13.4655 35.08 13.1722 35.0167 12.9122 34.89C12.6589 34.7633 12.4555 34.59 12.3022 34.37C12.1555 34.15 12.0822 33.9033 12.0822 33.63C12.0822 33.27 12.1722 32.99 12.3522 32.79C12.5322 32.5833 12.8355 32.4367 13.2622 32.35C13.6889 32.2633 14.2755 32.22 15.0222 32.22H15.3322V31.86C15.3322 31.4133 15.2422 31.09 15.0622 30.89C14.8822 30.6833 14.5955 30.58 14.2022 30.58C13.9089 30.58 13.6255 30.6233 13.3522 30.71C13.0855 30.7967 12.8089 30.9333 12.5222 31.12L12.2822 30.65C12.5355 30.47 12.8355 30.3267 13.1822 30.22C13.5289 30.1133 13.8655 30.06 14.1922 30.06C14.7789 30.06 15.2122 30.21 15.4922 30.51C15.7789 30.81 15.9222 31.27 15.9222 31.89V35H15.3422V34.13C15.2089 34.43 15.0055 34.6633 14.7322 34.83C14.4655 34.9967 14.1522 35.08 13.7922 35.08ZM13.8722 34.59C14.1589 34.59 14.4089 34.5233 14.6222 34.39C14.8422 34.25 15.0155 34.06 15.1422 33.82C15.2689 33.58 15.3322 33.3067 15.3322 33V32.67H15.0322C14.4322 32.67 13.9622 32.6967 13.6222 32.75C13.2889 32.8033 13.0555 32.8967 12.9222 33.03C12.7889 33.1633 12.7222 33.3467 12.7222 33.58C12.7222 33.88 12.8255 34.1233 13.0322 34.31C13.2389 34.4967 13.5189 34.59 13.8722 34.59ZM19.3468 35.08C18.8068 35.08 18.4001 34.9333 18.1268 34.64C17.8601 34.3467 17.7268 33.9267 17.7268 33.38V30.64H16.7668V30.15H17.7268V28.65H18.3368V30.15H19.9068V30.64H18.3368V33.3C18.3368 33.7067 18.4201 34.0167 18.5868 34.23C18.7535 34.4433 19.0301 34.55 19.4168 34.55C19.5301 34.55 19.6401 34.5367 19.7468 34.51C19.8535 34.4833 19.9468 34.4533 20.0268 34.42L20.1468 34.9C20.0735 34.9467 19.9568 34.9867 19.7968 35.02C19.6368 35.06 19.4868 35.08 19.3468 35.08ZM22.6378 35.08C22.0978 35.08 21.6911 34.9333 21.4178 34.64C21.1511 34.3467 21.0178 33.9267 21.0178 33.38V30.64H20.0578V30.15H21.0178V28.65H21.6278V30.15H23.1978V30.64H21.6278V33.3C21.6278 33.7067 21.7111 34.0167 21.8778 34.23C22.0445 34.4433 22.3211 34.55 22.7078 34.55C22.8211 34.55 22.9311 34.5367 23.0378 34.51C23.1445 34.4833 23.2378 34.4533 23.3178 34.42L23.4378 34.9C23.3645 34.9467 23.2478 34.9867 23.0878 35.02C22.9278 35.06 22.7778 35.08 22.6378 35.08ZM26.2186 35.08C25.4719 35.08 24.8819 34.86 24.4486 34.42C24.0219 33.9733 23.8086 33.3633 23.8086 32.59C23.8086 32.09 23.9053 31.65 24.0986 31.27C24.2919 30.89 24.5586 30.5933 24.8986 30.38C25.2453 30.1667 25.6419 30.06 26.0886 30.06C26.7353 30.06 27.2386 30.27 27.5986 30.69C27.9586 31.11 28.1386 31.6867 28.1386 32.42V32.7H24.4086C24.4286 33.3 24.5919 33.7633 24.8986 34.09C25.2119 34.41 25.6453 34.57 26.1986 34.57C26.4986 34.57 26.7786 34.5233 27.0386 34.43C27.3053 34.3367 27.5653 34.18 27.8186 33.96L28.0586 34.42C27.8453 34.6267 27.5719 34.79 27.2386 34.91C26.9053 35.0233 26.5653 35.08 26.2186 35.08ZM26.0986 30.55C25.5919 30.55 25.1953 30.71 24.9086 31.03C24.6286 31.3433 24.4653 31.75 24.4186 32.25H27.5886C27.5753 31.7167 27.4419 31.3 27.1886 31C26.9353 30.7 26.5719 30.55 26.0986 30.55ZM29.382 35V30.15H29.982V31.03C30.122 30.7233 30.3254 30.49 30.592 30.33C30.8587 30.17 31.1987 30.0767 31.612 30.05L31.862 30.03L31.922 30.56L31.492 30.61C31.0187 30.65 30.652 30.8067 30.392 31.08C30.132 31.3467 30.002 31.7067 30.002 32.16V35H29.382Z" fill="black"/>
<path d="M18.0002 17.6788L18.0002 6.17877C18.0002 -2.54773 23.5 1.95227 24 3.95227" stroke="black" stroke-width="1.1" stroke-linecap="round" stroke-linejoin="round"/>
<path d="M13.9998 17.6788L13.9998 6.17877C13.9998 -2.54773 8.5 1.95227 8 3.95227" stroke="black" stroke-width="1.1" stroke-linecap="round" stroke-linejoin="round"/>
</svg>
