<svg width="28" height="44" viewBox="0 0 28 44" fill="none" xmlns="http://www.w3.org/2000/svg">
<path d="M3.53211 37.08C2.98544 37.08 2.49211 37.01 2.05211 36.87C1.61878 36.7233 1.24211 36.51 0.922109 36.23L1.16211 35.72C1.50878 35.9933 1.86211 36.1967 2.22211 36.33C2.58878 36.4567 3.02544 36.52 3.53211 36.52C4.16544 36.52 4.63878 36.3967 4.95211 36.15C5.27211 35.9033 5.43211 35.58 5.43211 35.18C5.43211 34.8467 5.31544 34.5867 5.08211 34.4C4.85544 34.2133 4.47878 34.0667 3.95211 33.96L2.94211 33.75C2.31544 33.6233 1.84544 33.41 1.53211 33.11C1.22544 32.81 1.07211 32.41 1.07211 31.91C1.07211 31.5033 1.17544 31.1467 1.38211 30.84C1.59544 30.5333 1.88878 30.2967 2.26211 30.13C2.63544 29.9567 3.06544 29.87 3.55211 29.87C4.52544 29.87 5.30211 30.1633 5.88211 30.75L5.64211 31.25C5.33544 30.9633 5.01544 30.7567 4.68211 30.63C4.34878 30.4967 3.97211 30.43 3.55211 30.43C2.99211 30.43 2.54211 30.5633 2.20211 30.83C1.86878 31.0967 1.70211 31.4533 1.70211 31.9C1.70211 32.2533 1.80878 32.5333 2.02211 32.74C2.23544 32.94 2.57878 33.0867 3.05211 33.18L4.07211 33.39C4.74544 33.53 5.24544 33.74 5.57211 34.02C5.89878 34.2933 6.06211 34.67 6.06211 35.15C6.06211 35.53 5.95878 35.8667 5.75211 36.16C5.55211 36.4467 5.26211 36.6733 4.88211 36.84C4.50211 37 4.05211 37.08 3.53211 37.08ZM9.26633 37.08C8.79299 37.08 8.38633 36.9767 8.04633 36.77C7.70633 36.5567 7.44299 36.26 7.25633 35.88C7.07633 35.4933 6.98633 35.0467 6.98633 34.54C6.98633 33.7733 7.18633 33.17 7.58633 32.73C7.99299 32.2833 8.55299 32.06 9.26633 32.06C9.55966 32.06 9.84966 32.1167 10.1363 32.23C10.423 32.3433 10.663 32.5 10.8563 32.7L10.6163 33.16C10.4097 32.96 10.1897 32.8167 9.95633 32.73C9.72299 32.6367 9.49966 32.59 9.28633 32.59C8.74633 32.59 8.32966 32.76 8.03633 33.1C7.74966 33.44 7.60633 33.9233 7.60633 34.55C7.60633 35.1767 7.74966 35.67 8.03633 36.03C8.32966 36.3833 8.74633 36.56 9.28633 36.56C9.49966 36.56 9.72299 36.5167 9.95633 36.43C10.1897 36.3367 10.4097 36.19 10.6163 35.99L10.8563 36.45C10.663 36.6433 10.4197 36.7967 10.1263 36.91C9.83966 37.0233 9.55299 37.08 9.26633 37.08ZM11.8762 37V32.15H12.4762V33.03C12.6162 32.7233 12.8195 32.49 13.0862 32.33C13.3528 32.17 13.6928 32.0767 14.1062 32.05L14.3562 32.03L14.4162 32.56L13.9862 32.61C13.5128 32.65 13.1462 32.8067 12.8862 33.08C12.6262 33.3467 12.4962 33.7067 12.4962 34.16V37H11.8762ZM17.3455 37.08C16.5989 37.08 16.0089 36.86 15.5755 36.42C15.1489 35.9733 14.9355 35.3633 14.9355 34.59C14.9355 34.09 15.0322 33.65 15.2255 33.27C15.4189 32.89 15.6855 32.5933 16.0255 32.38C16.3722 32.1667 16.7689 32.06 17.2155 32.06C17.8622 32.06 18.3655 32.27 18.7255 32.69C19.0855 33.11 19.2655 33.6867 19.2655 34.42V34.7H15.5355C15.5555 35.3 15.7189 35.7633 16.0255 36.09C16.3389 36.41 16.7722 36.57 17.3255 36.57C17.6255 36.57 17.9055 36.5233 18.1655 36.43C18.4322 36.3367 18.6922 36.18 18.9455 35.96L19.1855 36.42C18.9722 36.6267 18.6989 36.79 18.3655 36.91C18.0322 37.0233 17.6922 37.08 17.3455 37.08ZM17.2255 32.55C16.7189 32.55 16.3222 32.71 16.0355 33.03C15.7555 33.3433 15.5922 33.75 15.5455 34.25H18.7155C18.7022 33.7167 18.5689 33.3 18.3155 33C18.0622 32.7 17.6989 32.55 17.2255 32.55ZM21.7304 37L19.9704 32.15H20.6204L22.0504 36.28L23.5404 32.15H24.1404L25.6004 36.29L27.0604 32.15H27.6904L25.9204 37H25.2904L23.8304 32.94L22.3604 37H21.7304Z" fill="black"/>
<path d="M5.97627 4.46566C3.9285 8.03174 7.78388 11.6574 10.2417 8.41068C12.6995 5.16392 10.3965 3.19282 8.14576 6.38409C5.42711 10.2388 11.629 13.2153 13.9159 10.532C16.4732 7.53143 14.5537 5.18473 12.4324 8.85897C10.311 12.5332 15.693 15.2322 17.4607 12.1704C19.2285 9.1085 17.5208 8.5308 16.1066 10.9803C15.3661 12.2628 15.4907 12.4347 15.2095 13.2912" stroke="black" stroke-width="1.1" stroke-linecap="round"/>
<path d="M16.0781 21.6985C16.0781 21.6985 16.6856 20.098 19 14" stroke="black" stroke-width="1.1" stroke-linecap="round" stroke-linejoin="round"/>
<path d="M12 21.6985L15 14" stroke="black" stroke-width="1.1" stroke-linecap="round" stroke-linejoin="round"/>
</svg>
