<svg width="37" height="39" viewBox="0 0 37 39" fill="none" xmlns="http://www.w3.org/2000/svg">
<path d="M3.87977 32.08C3.3331 32.08 2.83977 32.01 2.39977 31.87C1.96643 31.7233 1.58977 31.51 1.26977 31.23L1.50977 30.72C1.85643 30.9933 2.20977 31.1967 2.56977 31.33C2.93643 31.4567 3.3731 31.52 3.87977 31.52C4.5131 31.52 4.98643 31.3967 5.29977 31.15C5.61977 30.9033 5.77977 30.58 5.77977 30.18C5.77977 29.8467 5.6631 29.5867 5.42977 29.4C5.2031 29.2133 4.82643 29.0667 4.29977 28.96L3.28977 28.75C2.6631 28.6233 2.1931 28.41 1.87977 28.11C1.5731 27.81 1.41977 27.41 1.41977 26.91C1.41977 26.5033 1.5231 26.1467 1.72977 25.84C1.9431 25.5333 2.23643 25.2967 2.60977 25.13C2.9831 24.9567 3.4131 24.87 3.89977 24.87C4.8731 24.87 5.64977 25.1633 6.22977 25.75L5.98977 26.25C5.6831 25.9633 5.3631 25.7567 5.02977 25.63C4.69643 25.4967 4.31977 25.43 3.89977 25.43C3.33977 25.43 2.88977 25.5633 2.54977 25.83C2.21643 26.0967 2.04977 26.4533 2.04977 26.9C2.04977 27.2533 2.15643 27.5333 2.36977 27.74C2.5831 27.94 2.92643 28.0867 3.39977 28.18L4.41977 28.39C5.0931 28.53 5.5931 28.74 5.91977 29.02C6.24643 29.2933 6.40977 29.67 6.40977 30.15C6.40977 30.53 6.30643 30.8667 6.09977 31.16C5.89977 31.4467 5.60977 31.6733 5.22977 31.84C4.84977 32 4.39977 32.08 3.87977 32.08ZM7.63398 32V24.95H8.24398V27.99C8.41065 27.6833 8.64065 27.4533 8.93398 27.3C9.23398 27.14 9.56398 27.06 9.92398 27.06C11.0773 27.06 11.654 27.6867 11.654 28.94V32H11.044V28.99C11.044 28.51 10.9473 28.1567 10.754 27.93C10.5607 27.7033 10.254 27.59 9.83398 27.59C9.35398 27.59 8.96732 27.74 8.67398 28.04C8.38732 28.3333 8.24398 28.73 8.24398 29.23V32H7.63398ZM14.7297 32.08C14.403 32.08 14.1097 32.0167 13.8497 31.89C13.5964 31.7633 13.393 31.59 13.2397 31.37C13.093 31.15 13.0197 30.9033 13.0197 30.63C13.0197 30.27 13.1097 29.99 13.2897 29.79C13.4697 29.5833 13.773 29.4367 14.1997 29.35C14.6264 29.2633 15.213 29.22 15.9597 29.22H16.2697V28.86C16.2697 28.4133 16.1797 28.09 15.9997 27.89C15.8197 27.6833 15.533 27.58 15.1397 27.58C14.8464 27.58 14.563 27.6233 14.2897 27.71C14.023 27.7967 13.7464 27.9333 13.4597 28.12L13.2197 27.65C13.473 27.47 13.773 27.3267 14.1197 27.22C14.4664 27.1133 14.803 27.06 15.1297 27.06C15.7164 27.06 16.1497 27.21 16.4297 27.51C16.7164 27.81 16.8597 28.27 16.8597 28.89V32H16.2797V31.13C16.1464 31.43 15.943 31.6633 15.6697 31.83C15.403 31.9967 15.0897 32.08 14.7297 32.08ZM14.8097 31.59C15.0964 31.59 15.3464 31.5233 15.5597 31.39C15.7797 31.25 15.953 31.06 16.0797 30.82C16.2064 30.58 16.2697 30.3067 16.2697 30V29.67H15.9697C15.3697 29.67 14.8997 29.6967 14.5597 29.75C14.2264 29.8033 13.993 29.8967 13.8597 30.03C13.7264 30.1633 13.6597 30.3467 13.6597 30.58C13.6597 30.88 13.763 31.1233 13.9697 31.31C14.1764 31.4967 14.4564 31.59 14.8097 31.59ZM18.4543 33.8V27.15H19.0643V28.06C19.211 27.7533 19.431 27.51 19.7243 27.33C20.0243 27.15 20.371 27.06 20.7643 27.06C21.1976 27.06 21.5743 27.1633 21.8943 27.37C22.221 27.5767 22.471 27.8667 22.6443 28.24C22.8243 28.6133 22.9143 29.0567 22.9143 29.57C22.9143 30.0833 22.8243 30.53 22.6443 30.91C22.471 31.2833 22.221 31.5733 21.8943 31.78C21.5743 31.98 21.1976 32.08 20.7643 32.08C20.371 32.08 20.0243 31.9933 19.7243 31.82C19.431 31.6467 19.211 31.4067 19.0643 31.1V33.8H18.4543ZM20.6743 31.57C21.1676 31.57 21.561 31.3967 21.8543 31.05C22.1476 30.6967 22.2943 30.2033 22.2943 29.57C22.2943 28.9367 22.1476 28.4467 21.8543 28.1C21.561 27.7533 21.1676 27.58 20.6743 27.58C20.181 27.58 19.7876 27.7533 19.4943 28.1C19.201 28.4467 19.0543 28.9367 19.0543 29.57C19.0543 30.2033 19.201 30.6967 19.4943 31.05C19.7876 31.3967 20.181 31.57 20.6743 31.57ZM24.1063 25.87V25.1H24.9263V25.87H24.1063ZM24.2063 32V27.15H24.8163V32H24.2063ZM26.423 32V27.15H27.023V28.02C27.183 27.7 27.413 27.46 27.713 27.3C28.013 27.14 28.3464 27.06 28.713 27.06C29.8664 27.06 30.443 27.6867 30.443 28.94V32H29.833V28.99C29.833 28.51 29.7364 28.1567 29.543 27.93C29.3497 27.7033 29.043 27.59 28.623 27.59C28.143 27.59 27.7564 27.74 27.463 28.04C27.1764 28.3333 27.033 28.73 27.033 29.23V32H26.423ZM34.1288 33.88C33.2821 33.88 32.5788 33.6567 32.0188 33.21L32.2488 32.75C32.5554 32.97 32.8521 33.1267 33.1388 33.22C33.4254 33.32 33.7488 33.37 34.1088 33.37C34.5954 33.37 34.9654 33.2367 35.2188 32.97C35.4721 32.7033 35.5988 32.3167 35.5988 31.81V30.87C35.4588 31.19 35.2354 31.44 34.9288 31.62C34.6288 31.8 34.2854 31.89 33.8988 31.89C33.4454 31.89 33.0554 31.79 32.7288 31.59C32.4088 31.3833 32.1588 31.1 31.9788 30.74C31.8054 30.3733 31.7188 29.95 31.7188 29.47C31.7188 28.99 31.8054 28.57 31.9788 28.21C32.1588 27.85 32.4088 27.57 32.7288 27.37C33.0554 27.1633 33.4454 27.06 33.8988 27.06C34.2854 27.06 34.6288 27.15 34.9288 27.33C35.2288 27.51 35.4488 27.7567 35.5888 28.07V27.15H36.1888V31.72C36.1888 33.16 35.5021 33.88 34.1288 33.88ZM33.9688 31.37C34.4688 31.37 34.8654 31.2 35.1588 30.86C35.4521 30.5133 35.5988 30.05 35.5988 29.47C35.5988 28.89 35.4521 28.43 35.1588 28.09C34.8654 27.75 34.4688 27.58 33.9688 27.58C33.4621 27.58 33.0621 27.75 32.7688 28.09C32.4821 28.43 32.3388 28.89 32.3388 29.47C32.3388 30.05 32.4821 30.5133 32.7688 30.86C33.0621 31.2 33.4621 31.37 33.9688 31.37Z" fill="black"/>
<path d="M22.71 7.30157C19.9738 14.8191 19.2898 16.6985 19.2898 16.6985" stroke="black" stroke-width="1.1" stroke-linecap="round" stroke-linejoin="round"/>
<path d="M18.71 7.30157C15.9738 14.8191 15.2898 16.6985 15.2898 16.6985" stroke="black" stroke-width="1.1" stroke-linecap="round" stroke-linejoin="round"/>
<path d="M9.5 12C9.5 12 10.5 10 14.5 10C18.5 10 20.5 14 24.5 14C28.5 14 29 12 29 12" stroke="black" stroke-width="1.1" stroke-linecap="round" stroke-linejoin="round"/>
</svg>
