<svg width="51" height="44" viewBox="0 0 51 44" fill="none" xmlns="http://www.w3.org/2000/svg">
<path d="M3.94422 37.08C3.39755 37.08 2.90422 37.01 2.46422 36.87C2.03089 36.7233 1.65422 36.51 1.33422 36.23L1.57422 35.72C1.92089 35.9933 2.27422 36.1967 2.63422 36.33C3.00089 36.4567 3.43755 36.52 3.94422 36.52C4.57755 36.52 5.05089 36.3967 5.36422 36.15C5.68422 35.9033 5.84422 35.58 5.84422 35.18C5.84422 34.8467 5.72755 34.5867 5.49422 34.4C5.26755 34.2133 4.89089 34.0667 4.36422 33.96L3.35422 33.75C2.72755 33.6233 2.25755 33.41 1.94422 33.11C1.63755 32.81 1.48422 32.41 1.48422 31.91C1.48422 31.5033 1.58755 31.1467 1.79422 30.84C2.00755 30.5333 2.30089 30.2967 2.67422 30.13C3.04755 29.9567 3.47755 29.87 3.96422 29.87C4.93755 29.87 5.71422 30.1633 6.29422 30.75L6.05422 31.25C5.74755 30.9633 5.42755 30.7567 5.09422 30.63C4.76089 30.4967 4.38422 30.43 3.96422 30.43C3.40422 30.43 2.95422 30.5633 2.61422 30.83C2.28089 31.0967 2.11422 31.4533 2.11422 31.9C2.11422 32.2533 2.22089 32.5333 2.43422 32.74C2.64755 32.94 2.99089 33.0867 3.46422 33.18L4.48422 33.39C5.15755 33.53 5.65755 33.74 5.98422 34.02C6.31089 34.2933 6.47422 34.67 6.47422 35.15C6.47422 35.53 6.37089 35.8667 6.16422 36.16C5.96422 36.4467 5.67422 36.6733 5.29422 36.84C4.91422 37 4.46422 37.08 3.94422 37.08ZM7.69844 37V29.95H8.30844V32.99C8.4751 32.6833 8.7051 32.4533 8.99844 32.3C9.29844 32.14 9.62844 32.06 9.98844 32.06C11.1418 32.06 11.7184 32.6867 11.7184 33.94V37H11.1084V33.99C11.1084 33.51 11.0118 33.1567 10.8184 32.93C10.6251 32.7033 10.3184 32.59 9.89844 32.59C9.41844 32.59 9.03177 32.74 8.73844 33.04C8.45177 33.3333 8.30844 33.73 8.30844 34.23V37H7.69844ZM14.7941 37.08C14.4675 37.08 14.1741 37.0167 13.9141 36.89C13.6608 36.7633 13.4575 36.59 13.3041 36.37C13.1575 36.15 13.0841 35.9033 13.0841 35.63C13.0841 35.27 13.1741 34.99 13.3541 34.79C13.5341 34.5833 13.8375 34.4367 14.2641 34.35C14.6908 34.2633 15.2775 34.22 16.0241 34.22H16.3341V33.86C16.3341 33.4133 16.2441 33.09 16.0641 32.89C15.8841 32.6833 15.5975 32.58 15.2041 32.58C14.9108 32.58 14.6275 32.6233 14.3541 32.71C14.0875 32.7967 13.8108 32.9333 13.5241 33.12L13.2841 32.65C13.5375 32.47 13.8375 32.3267 14.1841 32.22C14.5308 32.1133 14.8675 32.06 15.1941 32.06C15.7808 32.06 16.2141 32.21 16.4941 32.51C16.7808 32.81 16.9241 33.27 16.9241 33.89V37H16.3441V36.13C16.2108 36.43 16.0075 36.6633 15.7341 36.83C15.4675 36.9967 15.1541 37.08 14.7941 37.08ZM14.8741 36.59C15.1608 36.59 15.4108 36.5233 15.6241 36.39C15.8441 36.25 16.0175 36.06 16.1441 35.82C16.2708 35.58 16.3341 35.3067 16.3341 35V34.67H16.0341C15.4341 34.67 14.9641 34.6967 14.6241 34.75C14.2908 34.8033 14.0575 34.8967 13.9241 35.03C13.7908 35.1633 13.7241 35.3467 13.7241 35.58C13.7241 35.88 13.8275 36.1233 14.0341 36.31C14.2408 36.4967 14.5208 36.59 14.8741 36.59ZM18.5188 38.8V32.15H19.1288V33.06C19.2754 32.7533 19.4954 32.51 19.7888 32.33C20.0888 32.15 20.4354 32.06 20.8288 32.06C21.2621 32.06 21.6388 32.1633 21.9588 32.37C22.2854 32.5767 22.5354 32.8667 22.7088 33.24C22.8888 33.6133 22.9788 34.0567 22.9788 34.57C22.9788 35.0833 22.8888 35.53 22.7088 35.91C22.5354 36.2833 22.2854 36.5733 21.9588 36.78C21.6388 36.98 21.2621 37.08 20.8288 37.08C20.4354 37.08 20.0888 36.9933 19.7888 36.82C19.4954 36.6467 19.2754 36.4067 19.1288 36.1V38.8H18.5188ZM20.7388 36.57C21.2321 36.57 21.6254 36.3967 21.9188 36.05C22.2121 35.6967 22.3588 35.2033 22.3588 34.57C22.3588 33.9367 22.2121 33.4467 21.9188 33.1C21.6254 32.7533 21.2321 32.58 20.7388 32.58C20.2454 32.58 19.8521 32.7533 19.5588 33.1C19.2654 33.4467 19.1188 33.9367 19.1188 34.57C19.1188 35.2033 19.2654 35.6967 19.5588 36.05C19.8521 36.3967 20.2454 36.57 20.7388 36.57ZM26.3807 37.08C25.634 37.08 25.044 36.86 24.6107 36.42C24.184 35.9733 23.9707 35.3633 23.9707 34.59C23.9707 34.09 24.0674 33.65 24.2607 33.27C24.454 32.89 24.7207 32.5933 25.0607 32.38C25.4074 32.1667 25.804 32.06 26.2507 32.06C26.8974 32.06 27.4007 32.27 27.7607 32.69C28.1207 33.11 28.3007 33.6867 28.3007 34.42V34.7H24.5707C24.5907 35.3 24.754 35.7633 25.0607 36.09C25.374 36.41 25.8074 36.57 26.3607 36.57C26.6607 36.57 26.9407 36.5233 27.2007 36.43C27.4674 36.3367 27.7274 36.18 27.9807 35.96L28.2207 36.42C28.0074 36.6267 27.734 36.79 27.4007 36.91C27.0674 37.0233 26.7274 37.08 26.3807 37.08ZM26.2607 32.55C25.754 32.55 25.3574 32.71 25.0707 33.03C24.7907 33.3433 24.6274 33.75 24.5807 34.25H27.7507C27.7374 33.7167 27.604 33.3 27.3507 33C27.0974 32.7 26.734 32.55 26.2607 32.55ZM32.2839 37V32.64H31.3239V32.15H32.2839V31.91C32.2839 30.6767 32.9072 30.0233 34.1539 29.95L34.5039 29.92L34.5539 30.42L34.0939 30.45C33.6806 30.4767 33.3772 30.6067 33.1839 30.84C32.9906 31.0733 32.8939 31.4133 32.8939 31.86V32.15H34.3239V32.64H32.8939V37H32.2839ZM36.6539 37.08C36.2006 37.08 35.8506 36.9433 35.6039 36.67C35.3639 36.39 35.2439 35.99 35.2439 35.47V29.95H35.8539V35.4C35.8539 36.1667 36.1539 36.55 36.7539 36.55C36.9206 36.55 37.0739 36.53 37.2139 36.49L37.1939 37.02C37.0006 37.06 36.8206 37.08 36.6539 37.08ZM39.9702 37.08C39.5169 37.08 39.1236 36.98 38.7902 36.78C38.4569 36.5733 38.1969 36.2833 38.0102 35.91C37.8302 35.53 37.7402 35.0833 37.7402 34.57C37.7402 34.0633 37.8302 33.6233 38.0102 33.25C38.1969 32.87 38.4569 32.5767 38.7902 32.37C39.1236 32.1633 39.5169 32.06 39.9702 32.06C40.4302 32.06 40.8269 32.1633 41.1602 32.37C41.4936 32.5767 41.7502 32.87 41.9302 33.25C42.1169 33.6233 42.2102 34.0633 42.2102 34.57C42.2102 35.0833 42.1169 35.53 41.9302 35.91C41.7502 36.2833 41.4936 36.5733 41.1602 36.78C40.8269 36.98 40.4302 37.08 39.9702 37.08ZM39.9702 36.57C40.4636 36.57 40.8569 36.3967 41.1502 36.05C41.4436 35.6967 41.5902 35.2033 41.5902 34.57C41.5902 33.9367 41.4436 33.4467 41.1502 33.1C40.8569 32.7533 40.4636 32.58 39.9702 32.58C39.4769 32.58 39.0836 32.7533 38.7902 33.1C38.5036 33.4467 38.3602 33.9367 38.3602 34.57C38.3602 35.2033 38.5036 35.6967 38.7902 36.05C39.0836 36.3967 39.4769 36.57 39.9702 36.57ZM44.7304 37L42.9704 32.15H43.6204L45.0504 36.28L46.5404 32.15H47.1404L48.6004 36.29L50.0604 32.15H50.6904L48.9204 37H48.2904L46.8304 32.94L45.3604 37H44.7304Z" fill="black"/>
<path d="M29.71 7.30153C26.9738 14.8191 26.2898 16.6985 26.2898 16.6985" stroke="black" stroke-width="1.1" stroke-linecap="round" stroke-linejoin="round"/>
<path d="M25.71 7.30153C22.9738 14.8191 22.2898 16.6985 22.2898 16.6985" stroke="black" stroke-width="1.1" stroke-linecap="round" stroke-linejoin="round"/>
<path d="M16.5 12L36 12" stroke="black" stroke-width="1.1" stroke-linecap="round" stroke-linejoin="round"/>
</svg>
