<svg width="48" height="34" viewBox="0 0 48 34" fill="none" xmlns="http://www.w3.org/2000/svg">
<path d="M3.34656 27.08C2.7999 27.08 2.30656 27.01 1.86656 26.87C1.43323 26.7233 1.05656 26.51 0.736563 26.23L0.976563 25.72C1.32323 25.9933 1.67656 26.1967 2.03656 26.33C2.40323 26.4567 2.8399 26.52 3.34656 26.52C3.9799 26.52 4.45323 26.3967 4.76656 26.15C5.08656 25.9033 5.24656 25.58 5.24656 25.18C5.24656 24.8467 5.1299 24.5867 4.89656 24.4C4.6699 24.2133 4.29323 24.0667 3.76656 23.96L2.75656 23.75C2.1299 23.6233 1.6599 23.41 1.34656 23.11C1.0399 22.81 0.886562 22.41 0.886562 21.91C0.886562 21.5033 0.989896 21.1467 1.19656 20.84C1.4099 20.5333 1.70323 20.2967 2.07656 20.13C2.4499 19.9567 2.8799 19.87 3.36656 19.87C4.3399 19.87 5.11656 20.1633 5.69656 20.75L5.45656 21.25C5.1499 20.9633 4.8299 20.7567 4.49656 20.63C4.16323 20.4967 3.78656 20.43 3.36656 20.43C2.80656 20.43 2.35656 20.5633 2.01656 20.83C1.68323 21.0967 1.51656 21.4533 1.51656 21.9C1.51656 22.2533 1.62323 22.5333 1.83656 22.74C2.0499 22.94 2.39323 23.0867 2.86656 23.18L3.88656 23.39C4.5599 23.53 5.0599 23.74 5.38656 24.02C5.71323 24.2933 5.87656 24.67 5.87656 25.15C5.87656 25.53 5.77323 25.8667 5.56656 26.16C5.36656 26.4467 5.07656 26.6733 4.69656 26.84C4.31656 27 3.86656 27.08 3.34656 27.08ZM7.10078 27V19.95H7.71078V22.99C7.87745 22.6833 8.10745 22.4533 8.40078 22.3C8.70078 22.14 9.03078 22.06 9.39078 22.06C10.5441 22.06 11.1208 22.6867 11.1208 23.94V27H10.5108V23.99C10.5108 23.51 10.4141 23.1567 10.2208 22.93C10.0274 22.7033 9.72078 22.59 9.30078 22.59C8.82078 22.59 8.43411 22.74 8.14078 23.04C7.85411 23.3333 7.71078 23.73 7.71078 24.23V27H7.10078ZM14.6265 27.08C14.1732 27.08 13.7798 26.98 13.4465 26.78C13.1132 26.5733 12.8532 26.2833 12.6665 25.91C12.4865 25.53 12.3965 25.0833 12.3965 24.57C12.3965 24.0633 12.4865 23.6233 12.6665 23.25C12.8532 22.87 13.1132 22.5767 13.4465 22.37C13.7798 22.1633 14.1732 22.06 14.6265 22.06C15.0865 22.06 15.4832 22.1633 15.8165 22.37C16.1498 22.5767 16.4065 22.87 16.5865 23.25C16.7732 23.6233 16.8665 24.0633 16.8665 24.57C16.8665 25.0833 16.7732 25.53 16.5865 25.91C16.4065 26.2833 16.1498 26.5733 15.8165 26.78C15.4832 26.98 15.0865 27.08 14.6265 27.08ZM14.6265 26.57C15.1198 26.57 15.5132 26.3967 15.8065 26.05C16.0998 25.6967 16.2465 25.2033 16.2465 24.57C16.2465 23.9367 16.0998 23.4467 15.8065 23.1C15.5132 22.7533 15.1198 22.58 14.6265 22.58C14.1332 22.58 13.7398 22.7533 13.4465 23.1C13.1598 23.4467 13.0165 23.9367 13.0165 24.57C13.0165 25.2033 13.1598 25.6967 13.4465 26.05C13.7398 26.3967 14.1332 26.57 14.6265 26.57ZM19.8752 27.08C18.7219 27.08 18.1452 26.4533 18.1452 25.2V22.15H18.7552V25.17C18.7552 25.6433 18.8519 25.9933 19.0452 26.22C19.2386 26.4467 19.5419 26.56 19.9552 26.56C20.4019 26.56 20.7652 26.41 21.0452 26.11C21.3319 25.81 21.4752 25.41 21.4752 24.91V22.15H22.0852V27H21.4952V26.14C21.3352 26.4467 21.1119 26.68 20.8252 26.84C20.5452 27 20.2286 27.08 19.8752 27.08ZM25.1026 27.08C24.6492 27.08 24.2992 26.9433 24.0526 26.67C23.8126 26.39 23.6926 25.99 23.6926 25.47V19.95H24.3026V25.4C24.3026 26.1667 24.6026 26.55 25.2026 26.55C25.3692 26.55 25.5226 26.53 25.6626 26.49L25.6426 27.02C25.4492 27.06 25.2692 27.08 25.1026 27.08ZM28.3453 27.08C27.9053 27.08 27.5253 26.98 27.2053 26.78C26.8853 26.5733 26.6353 26.2833 26.4553 25.91C26.282 25.53 26.1953 25.0833 26.1953 24.57C26.1953 23.8033 26.3886 23.1933 26.7753 22.74C27.162 22.2867 27.6853 22.06 28.3453 22.06C28.732 22.06 29.072 22.15 29.3653 22.33C29.6653 22.5033 29.8886 22.7433 30.0353 23.05V19.95H30.6453V27H30.0453V26.08C29.8986 26.3933 29.6753 26.64 29.3753 26.82C29.082 26.9933 28.7386 27.08 28.3453 27.08ZM28.4253 26.57C28.9186 26.57 29.312 26.3967 29.6053 26.05C29.8986 25.6967 30.0453 25.2033 30.0453 24.57C30.0453 23.9367 29.8986 23.4467 29.6053 23.1C29.312 22.7533 28.9186 22.58 28.4253 22.58C27.932 22.58 27.5386 22.7533 27.2453 23.1C26.9586 23.4467 26.8153 23.9367 26.8153 24.57C26.8153 25.2033 26.9586 25.6967 27.2453 26.05C27.5386 26.3967 27.932 26.57 28.4253 26.57ZM34.3573 27.08C33.6106 27.08 33.0206 26.86 32.5873 26.42C32.1606 25.9733 31.9473 25.3633 31.9473 24.59C31.9473 24.09 32.0439 23.65 32.2373 23.27C32.4306 22.89 32.6973 22.5933 33.0373 22.38C33.3839 22.1667 33.7806 22.06 34.2273 22.06C34.8739 22.06 35.3773 22.27 35.7373 22.69C36.0973 23.11 36.2773 23.6867 36.2773 24.42V24.7H32.5473C32.5673 25.3 32.7306 25.7633 33.0373 26.09C33.3506 26.41 33.7839 26.57 34.3373 26.57C34.6373 26.57 34.9173 26.5233 35.1773 26.43C35.4439 26.3367 35.7039 26.18 35.9573 25.96L36.1973 26.42C35.9839 26.6267 35.7106 26.79 35.3773 26.91C35.0439 27.0233 34.7039 27.08 34.3573 27.08ZM34.2373 22.55C33.7306 22.55 33.3339 22.71 33.0473 23.03C32.7673 23.3433 32.6039 23.75 32.5573 24.25H35.7273C35.7139 23.7167 35.5806 23.3 35.3273 23C35.0739 22.7 34.7106 22.55 34.2373 22.55ZM37.5207 27V22.15H38.1207V23.03C38.2607 22.7233 38.464 22.49 38.7307 22.33C38.9974 22.17 39.3374 22.0767 39.7507 22.05L40.0007 22.03L40.0607 22.56L39.6307 22.61C39.1574 22.65 38.7907 22.8067 38.5307 23.08C38.2707 23.3467 38.1407 23.7067 38.1407 24.16V27H37.5207ZM43.5684 27V19.95H44.1784V26.45H47.8584V27H43.5684Z" fill="black"/>
<path d="M26 2L26 17" stroke="black" stroke-width="1.1" stroke-linecap="round" stroke-linejoin="round"/>
<path d="M21 7L26 2" stroke="black" stroke-width="1.1" stroke-linecap="round" stroke-linejoin="round"/>
</svg>
