<svg width="50" height="38" viewBox="0 0 50 38" fill="none" xmlns="http://www.w3.org/2000/svg">
<path d="M4.0868 31.08C3.54013 31.08 3.0468 31.01 2.6068 30.87C2.17346 30.7233 1.7968 30.51 1.4768 30.23L1.7168 29.72C2.06346 29.9933 2.4168 30.1967 2.7768 30.33C3.14346 30.4567 3.58013 30.52 4.0868 30.52C4.72013 30.52 5.19346 30.3967 5.5068 30.15C5.8268 29.9033 5.9868 29.58 5.9868 29.18C5.9868 28.8467 5.87013 28.5867 5.6368 28.4C5.41013 28.2133 5.03346 28.0667 4.5068 27.96L3.4968 27.75C2.87013 27.6233 2.40013 27.41 2.0868 27.11C1.78013 26.81 1.6268 26.41 1.6268 25.91C1.6268 25.5033 1.73013 25.1467 1.9368 24.84C2.15013 24.5333 2.44346 24.2967 2.8168 24.13C3.19013 23.9567 3.62013 23.87 4.1068 23.87C5.08013 23.87 5.8568 24.1633 6.4368 24.75L6.1968 25.25C5.89013 24.9633 5.57013 24.7567 5.2368 24.63C4.90346 24.4967 4.5268 24.43 4.1068 24.43C3.5468 24.43 3.0968 24.5633 2.7568 24.83C2.42346 25.0967 2.2568 25.4533 2.2568 25.9C2.2568 26.2533 2.36346 26.5333 2.5768 26.74C2.79013 26.94 3.13346 27.0867 3.6068 27.18L4.6268 27.39C5.30013 27.53 5.80013 27.74 6.1268 28.02C6.45346 28.2933 6.6168 28.67 6.6168 29.15C6.6168 29.53 6.51346 29.8667 6.3068 30.16C6.1068 30.4467 5.8168 30.6733 5.4368 30.84C5.0568 31 4.6068 31.08 4.0868 31.08ZM7.84102 31V23.95H8.45102V26.99C8.61768 26.6833 8.84768 26.4533 9.14102 26.3C9.44102 26.14 9.77102 26.06 10.131 26.06C11.2843 26.06 11.861 26.6867 11.861 27.94V31H11.251V27.99C11.251 27.51 11.1543 27.1567 10.961 26.93C10.7677 26.7033 10.461 26.59 10.041 26.59C9.56102 26.59 9.17435 26.74 8.88102 27.04C8.59435 27.3333 8.45102 27.73 8.45102 28.23V31H7.84102ZM15.3667 31.08C14.9134 31.08 14.5201 30.98 14.1867 30.78C13.8534 30.5733 13.5934 30.2833 13.4067 29.91C13.2267 29.53 13.1367 29.0833 13.1367 28.57C13.1367 28.0633 13.2267 27.6233 13.4067 27.25C13.5934 26.87 13.8534 26.5767 14.1867 26.37C14.5201 26.1633 14.9134 26.06 15.3667 26.06C15.8267 26.06 16.2234 26.1633 16.5567 26.37C16.8901 26.5767 17.1467 26.87 17.3267 27.25C17.5134 27.6233 17.6067 28.0633 17.6067 28.57C17.6067 29.0833 17.5134 29.53 17.3267 29.91C17.1467 30.2833 16.8901 30.5733 16.5567 30.78C16.2234 30.98 15.8267 31.08 15.3667 31.08ZM15.3667 30.57C15.8601 30.57 16.2534 30.3967 16.5467 30.05C16.8401 29.6967 16.9867 29.2033 16.9867 28.57C16.9867 27.9367 16.8401 27.4467 16.5467 27.1C16.2534 26.7533 15.8601 26.58 15.3667 26.58C14.8734 26.58 14.4801 26.7533 14.1867 27.1C13.9001 27.4467 13.7567 27.9367 13.7567 28.57C13.7567 29.2033 13.9001 29.6967 14.1867 30.05C14.4801 30.3967 14.8734 30.57 15.3667 30.57ZM20.6155 31.08C19.4621 31.08 18.8855 30.4533 18.8855 29.2V26.15H19.4955V29.17C19.4955 29.6433 19.5921 29.9933 19.7855 30.22C19.9788 30.4467 20.2821 30.56 20.6955 30.56C21.1421 30.56 21.5055 30.41 21.7855 30.11C22.0721 29.81 22.2155 29.41 22.2155 28.91V26.15H22.8255V31H22.2355V30.14C22.0755 30.4467 21.8521 30.68 21.5655 30.84C21.2855 31 20.9688 31.08 20.6155 31.08ZM25.8428 31.08C25.3895 31.08 25.0395 30.9433 24.7928 30.67C24.5528 30.39 24.4328 29.99 24.4328 29.47V23.95H25.0428V29.4C25.0428 30.1667 25.3428 30.55 25.9428 30.55C26.1095 30.55 26.2628 30.53 26.4028 30.49L26.3828 31.02C26.1895 31.06 26.0095 31.08 25.8428 31.08ZM29.0855 31.08C28.6455 31.08 28.2655 30.98 27.9455 30.78C27.6255 30.5733 27.3755 30.2833 27.1955 29.91C27.0222 29.53 26.9355 29.0833 26.9355 28.57C26.9355 27.8033 27.1289 27.1933 27.5155 26.74C27.9022 26.2867 28.4255 26.06 29.0855 26.06C29.4722 26.06 29.8122 26.15 30.1055 26.33C30.4055 26.5033 30.6289 26.7433 30.7755 27.05V23.95H31.3855V31H30.7855V30.08C30.6389 30.3933 30.4155 30.64 30.1155 30.82C29.8222 30.9933 29.4789 31.08 29.0855 31.08ZM29.1655 30.57C29.6589 30.57 30.0522 30.3967 30.3455 30.05C30.6389 29.6967 30.7855 29.2033 30.7855 28.57C30.7855 27.9367 30.6389 27.4467 30.3455 27.1C30.0522 26.7533 29.6589 26.58 29.1655 26.58C28.6722 26.58 28.2789 26.7533 27.9855 27.1C27.6989 27.4467 27.5555 27.9367 27.5555 28.57C27.5555 29.2033 27.6989 29.6967 27.9855 30.05C28.2789 30.3967 28.6722 30.57 29.1655 30.57ZM35.0975 31.08C34.3508 31.08 33.7608 30.86 33.3275 30.42C32.9008 29.9733 32.6875 29.3633 32.6875 28.59C32.6875 28.09 32.7842 27.65 32.9775 27.27C33.1708 26.89 33.4375 26.5933 33.7775 26.38C34.1242 26.1667 34.5208 26.06 34.9675 26.06C35.6142 26.06 36.1175 26.27 36.4775 26.69C36.8375 27.11 37.0175 27.6867 37.0175 28.42V28.7H33.2875C33.3075 29.3 33.4708 29.7633 33.7775 30.09C34.0908 30.41 34.5242 30.57 35.0775 30.57C35.3775 30.57 35.6575 30.5233 35.9175 30.43C36.1842 30.3367 36.4442 30.18 36.6975 29.96L36.9375 30.42C36.7242 30.6267 36.4508 30.79 36.1175 30.91C35.7842 31.0233 35.4442 31.08 35.0975 31.08ZM34.9775 26.55C34.4708 26.55 34.0742 26.71 33.7875 27.03C33.5075 27.3433 33.3442 27.75 33.2975 28.25H36.4675C36.4542 27.7167 36.3208 27.3 36.0675 27C35.8142 26.7 35.4508 26.55 34.9775 26.55ZM38.2609 31V26.15H38.8609V27.03C39.0009 26.7233 39.2043 26.49 39.4709 26.33C39.7376 26.17 40.0776 26.0767 40.4909 26.05L40.7409 26.03L40.8009 26.56L40.3709 26.61C39.8976 26.65 39.5309 26.8067 39.2709 27.08C39.0109 27.3467 38.8809 27.7067 38.8809 28.16V31H38.2609ZM44.3087 31V23.95H46.9687C47.722 23.95 48.2953 24.1233 48.6887 24.47C49.0887 24.8167 49.2887 25.31 49.2887 25.95C49.2887 26.4767 49.1453 26.9033 48.8587 27.23C48.572 27.5567 48.1653 27.7667 47.6387 27.86C47.9253 27.9667 48.1787 28.2267 48.3987 28.64L49.6787 31H49.0087L47.7887 28.74C47.6153 28.4267 47.422 28.2167 47.2087 28.11C46.9953 28.0033 46.7087 27.95 46.3487 27.95H44.9187V31H44.3087ZM44.9187 27.43H46.8887C48.0753 27.43 48.6687 26.9367 48.6687 25.95C48.6687 24.97 48.0753 24.48 46.8887 24.48H44.9187V27.43Z" fill="black"/>
<path d="M23 2L23 17" stroke="black" stroke-width="1.1" stroke-linecap="round" stroke-linejoin="round"/>
<path d="M28 7L23 2" stroke="black" stroke-width="1.1" stroke-linecap="round" stroke-linejoin="round"/>
</svg>
