<svg width="33" height="47" viewBox="0 0 33 47" fill="none" xmlns="http://www.w3.org/2000/svg">
<path d="M3.79578 40.08C3.24911 40.08 2.75578 40.01 2.31578 39.87C1.88245 39.7233 1.50578 39.51 1.18578 39.23L1.42578 38.72C1.77245 38.9933 2.12578 39.1967 2.48578 39.33C2.85245 39.4567 3.28911 39.52 3.79578 39.52C4.42911 39.52 4.90245 39.3967 5.21578 39.15C5.53578 38.9033 5.69578 38.58 5.69578 38.18C5.69578 37.8467 5.57911 37.5867 5.34578 37.4C5.11911 37.2133 4.74245 37.0667 4.21578 36.96L3.20578 36.75C2.57911 36.6233 2.10911 36.41 1.79578 36.11C1.48911 35.81 1.33578 35.41 1.33578 34.91C1.33578 34.5033 1.43911 34.1467 1.64578 33.84C1.85911 33.5333 2.15245 33.2967 2.52578 33.13C2.89911 32.9567 3.32911 32.87 3.81578 32.87C4.78911 32.87 5.56578 33.1633 6.14578 33.75L5.90578 34.25C5.59911 33.9633 5.27911 33.7567 4.94578 33.63C4.61245 33.4967 4.23578 33.43 3.81578 33.43C3.25578 33.43 2.80578 33.5633 2.46578 33.83C2.13245 34.0967 1.96578 34.4533 1.96578 34.9C1.96578 35.2533 2.07245 35.5333 2.28578 35.74C2.49911 35.94 2.84245 36.0867 3.31578 36.18L4.33578 36.39C5.00911 36.53 5.50911 36.74 5.83578 37.02C6.16245 37.2933 6.32578 37.67 6.32578 38.15C6.32578 38.53 6.22245 38.8667 6.01578 39.16C5.81578 39.4467 5.52578 39.6733 5.14578 39.84C4.76578 40 4.31578 40.08 3.79578 40.08ZM7.45 33.87V33.1H8.27V33.87H7.45ZM7.55 40V35.15H8.16V40H7.55ZM9.7668 40V35.15H10.3668V36.02C10.5268 35.7 10.7568 35.46 11.0568 35.3C11.3568 35.14 11.6901 35.06 12.0568 35.06C13.2101 35.06 13.7868 35.6867 13.7868 36.94V40H13.1768V36.99C13.1768 36.51 13.0801 36.1567 12.8868 35.93C12.6935 35.7033 12.3868 35.59 11.9668 35.59C11.4868 35.59 11.1001 35.74 10.8068 36.04C10.5201 36.3333 10.3768 36.73 10.3768 37.23V40H9.7668ZM15.3625 40V32.95H15.9725V37.35H15.9925L18.3825 35.15H19.1925L16.6425 37.49L19.4325 40H18.6225L15.9925 37.67H15.9725V40H15.3625ZM20.1063 33.87V33.1H20.9263V33.87H20.1063ZM20.2063 40V35.15H20.8163V40H20.2063ZM22.423 40V35.15H23.023V36.02C23.183 35.7 23.413 35.46 23.713 35.3C24.013 35.14 24.3464 35.06 24.713 35.06C25.8664 35.06 26.443 35.6867 26.443 36.94V40H25.833V36.99C25.833 36.51 25.7364 36.1567 25.543 35.93C25.3497 35.7033 25.043 35.59 24.623 35.59C24.143 35.59 23.7564 35.74 23.463 36.04C23.1764 36.3333 23.033 36.73 23.033 37.23V40H22.423ZM30.1288 41.88C29.2821 41.88 28.5788 41.6567 28.0188 41.21L28.2488 40.75C28.5554 40.97 28.8521 41.1267 29.1388 41.22C29.4254 41.32 29.7488 41.37 30.1088 41.37C30.5954 41.37 30.9654 41.2367 31.2188 40.97C31.4721 40.7033 31.5988 40.3167 31.5988 39.81V38.87C31.4588 39.19 31.2354 39.44 30.9288 39.62C30.6288 39.8 30.2854 39.89 29.8988 39.89C29.4454 39.89 29.0554 39.79 28.7288 39.59C28.4088 39.3833 28.1588 39.1 27.9788 38.74C27.8054 38.3733 27.7188 37.95 27.7188 37.47C27.7188 36.99 27.8054 36.57 27.9788 36.21C28.1588 35.85 28.4088 35.57 28.7288 35.37C29.0554 35.1633 29.4454 35.06 29.8988 35.06C30.2854 35.06 30.6288 35.15 30.9288 35.33C31.2288 35.51 31.4488 35.7567 31.5888 36.07V35.15H32.1888V39.72C32.1888 41.16 31.5021 41.88 30.1288 41.88ZM29.9688 39.37C30.4688 39.37 30.8654 39.2 31.1588 38.86C31.4521 38.5133 31.5988 38.05 31.5988 37.47C31.5988 36.89 31.4521 36.43 31.1588 36.09C30.8654 35.75 30.4688 35.58 29.9688 35.58C29.4621 35.58 29.0621 35.75 28.7688 36.09C28.4821 36.43 28.3388 36.89 28.3388 37.47C28.3388 38.05 28.4821 38.5133 28.7688 38.86C29.0621 39.2 29.4621 39.37 29.9688 39.37Z" fill="black"/>
<path d="M18 14L22 10" stroke="black" stroke-width="1.1" stroke-linecap="round"/>
<path d="M16 14L20 10" stroke="black" stroke-width="1.1" stroke-linecap="round"/>
<path d="M16 14L16 23" stroke="black" stroke-width="1.1" stroke-linecap="round"/>
</svg>
