<svg width="24" height="44" viewBox="0 0 24 44" fill="none" xmlns="http://www.w3.org/2000/svg">
<path d="M3.95203 37.08C3.40536 37.08 2.91203 37.01 2.47203 36.87C2.0387 36.7233 1.66203 36.51 1.34203 36.23L1.58203 35.72C1.9287 35.9933 2.28203 36.1967 2.64203 36.33C3.0087 36.4567 3.44536 36.52 3.95203 36.52C4.58536 36.52 5.0587 36.3967 5.37203 36.15C5.69203 35.9033 5.85203 35.58 5.85203 35.18C5.85203 34.8467 5.73536 34.5867 5.50203 34.4C5.27536 34.2133 4.8987 34.0667 4.37203 33.96L3.36203 33.75C2.73536 33.6233 2.26536 33.41 1.95203 33.11C1.64536 32.81 1.49203 32.41 1.49203 31.91C1.49203 31.5033 1.59536 31.1467 1.80203 30.84C2.01536 30.5333 2.3087 30.2967 2.68203 30.13C3.05536 29.9567 3.48536 29.87 3.97203 29.87C4.94536 29.87 5.72203 30.1633 6.30203 30.75L6.06203 31.25C5.75536 30.9633 5.43536 30.7567 5.10203 30.63C4.7687 30.4967 4.39203 30.43 3.97203 30.43C3.41203 30.43 2.96203 30.5633 2.62203 30.83C2.2887 31.0967 2.12203 31.4533 2.12203 31.9C2.12203 32.2533 2.2287 32.5333 2.44203 32.74C2.65536 32.94 2.9987 33.0867 3.47203 33.18L4.49203 33.39C5.16536 33.53 5.66536 33.74 5.99203 34.02C6.3187 34.2933 6.48203 34.67 6.48203 35.15C6.48203 35.53 6.3787 35.8667 6.17203 36.16C5.97203 36.4467 5.68203 36.6733 5.30203 36.84C4.92203 37 4.47203 37.08 3.95203 37.08ZM9.11625 37.08C8.66292 37.08 8.31292 36.9433 8.06625 36.67C7.82625 36.39 7.70625 35.99 7.70625 35.47V29.95H8.31625V35.4C8.31625 36.1667 8.61625 36.55 9.21625 36.55C9.38292 36.55 9.53625 36.53 9.67625 36.49L9.65625 37.02C9.46292 37.06 9.28292 37.08 9.11625 37.08ZM10.4578 30.87V30.1H11.2778V30.87H10.4578ZM10.5578 37V32.15H11.1678V37H10.5578ZM14.6246 37.08C14.1846 37.08 13.8046 36.98 13.4846 36.78C13.1646 36.5733 12.9146 36.2833 12.7346 35.91C12.5613 35.53 12.4746 35.0833 12.4746 34.57C12.4746 33.8033 12.6679 33.1933 13.0546 32.74C13.4413 32.2867 13.9646 32.06 14.6246 32.06C15.0113 32.06 15.3513 32.15 15.6446 32.33C15.9446 32.5033 16.1679 32.7433 16.3146 33.05V29.95H16.9246V37H16.3246V36.08C16.1779 36.3933 15.9546 36.64 15.6546 36.82C15.3613 36.9933 15.0179 37.08 14.6246 37.08ZM14.7046 36.57C15.1979 36.57 15.5913 36.3967 15.8846 36.05C16.1779 35.6967 16.3246 35.2033 16.3246 34.57C16.3246 33.9367 16.1779 33.4467 15.8846 33.1C15.5913 32.7533 15.1979 32.58 14.7046 32.58C14.2113 32.58 13.8179 32.7533 13.5246 33.1C13.2379 33.4467 13.0946 33.9367 13.0946 34.57C13.0946 35.2033 13.2379 35.6967 13.5246 36.05C13.8179 36.3967 14.2113 36.57 14.7046 36.57ZM20.6366 37.08C19.8899 37.08 19.2999 36.86 18.8666 36.42C18.4399 35.9733 18.2266 35.3633 18.2266 34.59C18.2266 34.09 18.3232 33.65 18.5166 33.27C18.7099 32.89 18.9766 32.5933 19.3166 32.38C19.6632 32.1667 20.0599 32.06 20.5066 32.06C21.1532 32.06 21.6566 32.27 22.0166 32.69C22.3766 33.11 22.5566 33.6867 22.5566 34.42V34.7H18.8266C18.8466 35.3 19.0099 35.7633 19.3166 36.09C19.6299 36.41 20.0632 36.57 20.6166 36.57C20.9166 36.57 21.1966 36.5233 21.4566 36.43C21.7232 36.3367 21.9832 36.18 22.2366 35.96L22.4766 36.42C22.2632 36.6267 21.9899 36.79 21.6566 36.91C21.3232 37.0233 20.9832 37.08 20.6366 37.08ZM20.5166 32.55C20.0099 32.55 19.6132 32.71 19.3266 33.03C19.0466 33.3433 18.8832 33.75 18.8366 34.25H22.0066C21.9932 33.7167 21.8599 33.3 21.6066 33C21.3532 32.7 20.9899 32.55 20.5166 32.55Z" fill="black"/>
<path d="M12 5L12 18" stroke="black" stroke-width="1.1" stroke-linecap="round" stroke-linejoin="round"/>
<path d="M12 5L14 6" stroke="black" stroke-width="1.1" stroke-linecap="round" stroke-linejoin="round"/>
<path d="M18 2L14 6" stroke="black" stroke-width="1.1" stroke-linecap="round" stroke-linejoin="round"/>
<path d="M12 5L8 9" stroke="black" stroke-width="1.1" stroke-linecap="round" stroke-linejoin="round"/>
<path d="M18 15L14 19" stroke="black" stroke-width="1.1" stroke-linecap="round" stroke-linejoin="round"/>
<path d="M12 18L8 22" stroke="black" stroke-width="1.1" stroke-linecap="round" stroke-linejoin="round"/>
<path d="M12 18L14 19" stroke="black" stroke-width="1.1" stroke-linecap="round" stroke-linejoin="round"/>
</svg>
