<svg width="49" height="44" viewBox="0 0 49 44" fill="none" xmlns="http://www.w3.org/2000/svg">
<path d="M3.53602 37.08C2.98935 37.08 2.49602 37.01 2.05602 36.87C1.62268 36.7233 1.24602 36.51 0.926016 36.23L1.16602 35.72C1.51268 35.9933 1.86602 36.1967 2.22602 36.33C2.59268 36.4567 3.02935 36.52 3.53602 36.52C4.16935 36.52 4.64268 36.3967 4.95602 36.15C5.27602 35.9033 5.43602 35.58 5.43602 35.18C5.43602 34.8467 5.31935 34.5867 5.08602 34.4C4.85935 34.2133 4.48268 34.0667 3.95602 33.96L2.94602 33.75C2.31935 33.6233 1.84935 33.41 1.53602 33.11C1.22935 32.81 1.07602 32.41 1.07602 31.91C1.07602 31.5033 1.17935 31.1467 1.38602 30.84C1.59935 30.5333 1.89268 30.2967 2.26602 30.13C2.63935 29.9567 3.06935 29.87 3.55602 29.87C4.52935 29.87 5.30602 30.1633 5.88602 30.75L5.64602 31.25C5.33935 30.9633 5.01935 30.7567 4.68602 30.63C4.35268 30.4967 3.97602 30.43 3.55602 30.43C2.99602 30.43 2.54602 30.5633 2.20602 30.83C1.87268 31.0967 1.70602 31.4533 1.70602 31.9C1.70602 32.2533 1.81268 32.5333 2.02602 32.74C2.23935 32.94 2.58268 33.0867 3.05602 33.18L4.07602 33.39C4.74935 33.53 5.24935 33.74 5.57602 34.02C5.90268 34.2933 6.06602 34.67 6.06602 35.15C6.06602 35.53 5.96268 35.8667 5.75602 36.16C5.55602 36.4467 5.26602 36.6733 4.88602 36.84C4.50602 37 4.05602 37.08 3.53602 37.08ZM7.29023 38.8V32.15H7.90023V33.06C8.0469 32.7533 8.2669 32.51 8.56023 32.33C8.86023 32.15 9.2069 32.06 9.60023 32.06C10.0336 32.06 10.4102 32.1633 10.7302 32.37C11.0569 32.5767 11.3069 32.8667 11.4802 33.24C11.6602 33.6133 11.7502 34.0567 11.7502 34.57C11.7502 35.0833 11.6602 35.53 11.4802 35.91C11.3069 36.2833 11.0569 36.5733 10.7302 36.78C10.4102 36.98 10.0336 37.08 9.60023 37.08C9.2069 37.08 8.86023 36.9933 8.56023 36.82C8.2669 36.6467 8.0469 36.4067 7.90023 36.1V38.8H7.29023ZM9.51023 36.57C10.0036 36.57 10.3969 36.3967 10.6902 36.05C10.9836 35.6967 11.1302 35.2033 11.1302 34.57C11.1302 33.9367 10.9836 33.4467 10.6902 33.1C10.3969 32.7533 10.0036 32.58 9.51023 32.58C9.0169 32.58 8.62357 32.7533 8.33023 33.1C8.0369 33.4467 7.89023 33.9367 7.89023 34.57C7.89023 35.2033 8.0369 35.6967 8.33023 36.05C8.62357 36.3967 9.0169 36.57 9.51023 36.57ZM15.1522 37.08C14.4055 37.08 13.8155 36.86 13.3822 36.42C12.9555 35.9733 12.7422 35.3633 12.7422 34.59C12.7422 34.09 12.8389 33.65 13.0322 33.27C13.2255 32.89 13.4922 32.5933 13.8322 32.38C14.1789 32.1667 14.5755 32.06 15.0222 32.06C15.6689 32.06 16.1722 32.27 16.5322 32.69C16.8922 33.11 17.0722 33.6867 17.0722 34.42V34.7H13.3422C13.3622 35.3 13.5255 35.7633 13.8322 36.09C14.1455 36.41 14.5789 36.57 15.1322 36.57C15.4322 36.57 15.7122 36.5233 15.9722 36.43C16.2389 36.3367 16.4989 36.18 16.7522 35.96L16.9922 36.42C16.7789 36.6267 16.5055 36.79 16.1722 36.91C15.8389 37.0233 15.4989 37.08 15.1522 37.08ZM15.0322 32.55C14.5255 32.55 14.1289 32.71 13.8422 33.03C13.5622 33.3433 13.3989 33.75 13.3522 34.25H16.5222C16.5089 33.7167 16.3755 33.3 16.1222 33C15.8689 32.7 15.5055 32.55 15.0322 32.55ZM19.7256 37.08C19.2723 37.08 18.9223 36.9433 18.6756 36.67C18.4356 36.39 18.3156 35.99 18.3156 35.47V29.95H18.9256V35.4C18.9256 36.1667 19.2256 36.55 19.8256 36.55C19.9923 36.55 20.1456 36.53 20.2856 36.49L20.2656 37.02C20.0723 37.06 19.8923 37.08 19.7256 37.08ZM22.5772 37.08C22.1239 37.08 21.7739 36.9433 21.5272 36.67C21.2872 36.39 21.1672 35.99 21.1672 35.47V29.95H21.7772V35.4C21.7772 36.1667 22.0772 36.55 22.6772 36.55C22.8439 36.55 22.9972 36.53 23.1372 36.49L23.1172 37.02C22.9239 37.06 22.7439 37.08 22.5772 37.08ZM26.6485 37V29.95H28.9185C30.0385 29.95 30.9018 30.25 31.5085 30.85C32.1218 31.45 32.4285 32.3233 32.4285 33.47C32.4285 34.6167 32.1218 35.4933 31.5085 36.1C30.9018 36.7 30.0385 37 28.9185 37H26.6485ZM27.2585 36.46H28.8685C30.8018 36.46 31.7685 35.4633 31.7685 33.47C31.7685 31.4833 30.8018 30.49 28.8685 30.49H27.2585V36.46ZM33.8625 37V32.15H34.4625V33.03C34.6025 32.7233 34.8058 32.49 35.0725 32.33C35.3392 32.17 35.6792 32.0767 36.0925 32.05L36.3425 32.03L36.4025 32.56L35.9725 32.61C35.4992 32.65 35.1325 32.8067 34.8725 33.08C34.6125 33.3467 34.4825 33.7067 34.4825 34.16V37H33.8625ZM37.1805 30.87V30.1H38.0005V30.87H37.1805ZM37.2805 37V32.15H37.8905V37H37.2805ZM40.9373 37L38.8573 32.15H39.5373L41.2473 36.33L42.9873 32.15H43.6273L41.5473 37H40.9373ZM46.6366 37.08C45.8899 37.08 45.2999 36.86 44.8666 36.42C44.4399 35.9733 44.2266 35.3633 44.2266 34.59C44.2266 34.09 44.3232 33.65 44.5166 33.27C44.7099 32.89 44.9766 32.5933 45.3166 32.38C45.6632 32.1667 46.0599 32.06 46.5066 32.06C47.1532 32.06 47.6566 32.27 48.0166 32.69C48.3766 33.11 48.5566 33.6867 48.5566 34.42V34.7H44.8266C44.8466 35.3 45.0099 35.7633 45.3166 36.09C45.6299 36.41 46.0632 36.57 46.6166 36.57C46.9166 36.57 47.1966 36.5233 47.4566 36.43C47.7232 36.3367 47.9832 36.18 48.2366 35.96L48.4766 36.42C48.2632 36.6267 47.9899 36.79 47.6566 36.91C47.3232 37.0233 46.9832 37.08 46.6366 37.08ZM46.5166 32.55C46.0099 32.55 45.6132 32.71 45.3266 33.03C45.0466 33.3433 44.8832 33.75 44.8366 34.25H48.0066C47.9932 33.7167 47.8599 33.3 47.6066 33C47.3532 32.7 46.9899 32.55 46.5166 32.55Z" fill="black"/>
<g clip-path="url(#clip0_1864_18647)">
<path d="M23 14L23 23" stroke="black" stroke-width="1.1" stroke-linecap="round"/>
<path d="M23 5L23 14" stroke="black" stroke-width="1.1" stroke-linecap="round"/>
<path d="M23 14H32" stroke="black" stroke-width="1.1" stroke-linecap="round"/>
<path d="M14 14H23" stroke="black" stroke-width="1.1" stroke-linecap="round"/>
<path d="M27 1L27 10" stroke="black" stroke-width="1.1" stroke-linecap="round"/>
<path d="M27 10H36" stroke="black" stroke-width="1.1" stroke-linecap="round"/>
<path d="M23 14L27 10" stroke="black" stroke-width="1.1" stroke-linecap="round"/>
</g>
<defs>
<clipPath id="clip0_1864_18647">
<rect width="24" height="24" fill="white" transform="translate(13)"/>
</clipPath>
</defs>
</svg>
