<svg width="28" height="43" viewBox="0 0 28 43" fill="none" xmlns="http://www.w3.org/2000/svg">
<path d="M3.40516 36.08C2.85849 36.08 2.36516 36.01 1.92516 35.87C1.49182 35.7233 1.11516 35.51 0.795156 35.23L1.03516 34.72C1.38182 34.9933 1.73516 35.1967 2.09516 35.33C2.46182 35.4567 2.89849 35.52 3.40516 35.52C4.03849 35.52 4.51182 35.3967 4.82516 35.15C5.14516 34.9033 5.30516 34.58 5.30516 34.18C5.30516 33.8467 5.18849 33.5867 4.95516 33.4C4.72849 33.2133 4.35182 33.0667 3.82516 32.96L2.81516 32.75C2.18849 32.6233 1.71849 32.41 1.40516 32.11C1.09849 31.81 0.945156 31.41 0.945156 30.91C0.945156 30.5033 1.04849 30.1467 1.25516 29.84C1.46849 29.5333 1.76182 29.2967 2.13516 29.13C2.50849 28.9567 2.93849 28.87 3.42516 28.87C4.39849 28.87 5.17516 29.1633 5.75516 29.75L5.51516 30.25C5.20849 29.9633 4.88849 29.7567 4.55516 29.63C4.22182 29.4967 3.84516 29.43 3.42516 29.43C2.86516 29.43 2.41516 29.5633 2.07516 29.83C1.74182 30.0967 1.57516 30.4533 1.57516 30.9C1.57516 31.2533 1.68182 31.5333 1.89516 31.74C2.10849 31.94 2.45182 32.0867 2.92516 32.18L3.94516 32.39C4.61849 32.53 5.11849 32.74 5.44516 33.02C5.77182 33.2933 5.93516 33.67 5.93516 34.15C5.93516 34.53 5.83182 34.8667 5.62516 35.16C5.42516 35.4467 5.13516 35.6733 4.75516 35.84C4.37516 36 3.92516 36.08 3.40516 36.08ZM7.15938 37.8V31.15H7.76938V32.06C7.91604 31.7533 8.13604 31.51 8.42938 31.33C8.72938 31.15 9.07604 31.06 9.46938 31.06C9.90271 31.06 10.2794 31.1633 10.5994 31.37C10.926 31.5767 11.176 31.8667 11.3494 32.24C11.5294 32.6133 11.6194 33.0567 11.6194 33.57C11.6194 34.0833 11.5294 34.53 11.3494 34.91C11.176 35.2833 10.926 35.5733 10.5994 35.78C10.2794 35.98 9.90271 36.08 9.46938 36.08C9.07604 36.08 8.72938 35.9933 8.42938 35.82C8.13604 35.6467 7.91604 35.4067 7.76938 35.1V37.8H7.15938ZM9.37938 35.57C9.87271 35.57 10.266 35.3967 10.5594 35.05C10.8527 34.6967 10.9994 34.2033 10.9994 33.57C10.9994 32.9367 10.8527 32.4467 10.5594 32.1C10.266 31.7533 9.87271 31.58 9.37938 31.58C8.88604 31.58 8.49271 31.7533 8.19938 32.1C7.90604 32.4467 7.75938 32.9367 7.75938 33.57C7.75938 34.2033 7.90604 34.6967 8.19938 35.05C8.49271 35.3967 8.88604 35.57 9.37938 35.57ZM12.8113 29.87V29.1H13.6313V29.87H12.8113ZM12.9113 36V31.15H13.5213V36H12.9113ZM15.1281 36V31.15H15.7281V32.02C15.8881 31.7 16.1181 31.46 16.4181 31.3C16.7181 31.14 17.0515 31.06 17.4181 31.06C18.5715 31.06 19.1481 31.6867 19.1481 32.94V36H18.5381V32.99C18.5381 32.51 18.4415 32.1567 18.2481 31.93C18.0548 31.7033 17.7481 31.59 17.3281 31.59C16.8481 31.59 16.4615 31.74 16.1681 32.04C15.8815 32.3333 15.7381 32.73 15.7381 33.23V36H15.1281ZM22.2238 36.08C21.8972 36.08 21.6038 36.0167 21.3438 35.89C21.0905 35.7633 20.8872 35.59 20.7338 35.37C20.5872 35.15 20.5138 34.9033 20.5138 34.63C20.5138 34.27 20.6038 33.99 20.7838 33.79C20.9638 33.5833 21.2672 33.4367 21.6938 33.35C22.1205 33.2633 22.7072 33.22 23.4538 33.22H23.7638V32.86C23.7638 32.4133 23.6738 32.09 23.4938 31.89C23.3138 31.6833 23.0272 31.58 22.6338 31.58C22.3405 31.58 22.0572 31.6233 21.7838 31.71C21.5172 31.7967 21.2405 31.9333 20.9538 32.12L20.7138 31.65C20.9672 31.47 21.2672 31.3267 21.6138 31.22C21.9605 31.1133 22.2972 31.06 22.6238 31.06C23.2105 31.06 23.6438 31.21 23.9238 31.51C24.2105 31.81 24.3538 32.27 24.3538 32.89V36H23.7738V35.13C23.6405 35.43 23.4372 35.6633 23.1638 35.83C22.8972 35.9967 22.5838 36.08 22.2238 36.08ZM22.3038 35.59C22.5905 35.59 22.8405 35.5233 23.0538 35.39C23.2738 35.25 23.4472 35.06 23.5738 34.82C23.7005 34.58 23.7638 34.3067 23.7638 34V33.67H23.4638C22.8638 33.67 22.3938 33.6967 22.0538 33.75C21.7205 33.8033 21.4872 33.8967 21.3538 34.03C21.2205 34.1633 21.1538 34.3467 21.1538 34.58C21.1538 34.88 21.2572 35.1233 21.4638 35.31C21.6705 35.4967 21.9505 35.59 22.3038 35.59ZM27.3584 36.08C26.9051 36.08 26.5551 35.9433 26.3084 35.67C26.0684 35.39 25.9484 34.99 25.9484 34.47V28.95H26.5584V34.4C26.5584 35.1667 26.8584 35.55 27.4584 35.55C27.6251 35.55 27.7784 35.53 27.9184 35.49L27.8984 36.02C27.7051 36.06 27.5251 36.08 27.3584 36.08Z" fill="black"/>
<path d="M14 4V20" stroke="black" stroke-width="1.1" stroke-linecap="round" stroke-linejoin="round"/>
<path d="M18 7.55556C18 9.51923 16 10.6667 14 12C12 10.6667 10 9.51923 10 7.55556C10 5.59188 11.7909 4 14 4C16.2091 4 18 5.59188 18 7.55556Z" stroke="black" stroke-width="1.1"/>
<path d="M18 16.4444C18 14.4808 16 13.3333 14 12C12 13.3333 10 14.4808 10 16.4444C10 18.4081 11.7909 20 14 20C16.2091 20 18 18.4081 18 16.4444Z" stroke="black" stroke-width="1.1"/>
</svg>
