<svg width="47" height="43" viewBox="0 0 47 43" fill="none" xmlns="http://www.w3.org/2000/svg">
<path d="M3.48914 36.08C2.94247 36.08 2.44914 36.01 2.00914 35.87C1.57581 35.7233 1.19914 35.51 0.879141 35.23L1.11914 34.72C1.46581 34.9933 1.81914 35.1967 2.17914 35.33C2.54581 35.4567 2.98247 35.52 3.48914 35.52C4.12247 35.52 4.59581 35.3967 4.90914 35.15C5.22914 34.9033 5.38914 34.58 5.38914 34.18C5.38914 33.8467 5.27247 33.5867 5.03914 33.4C4.81247 33.2133 4.43581 33.0667 3.90914 32.96L2.89914 32.75C2.27247 32.6233 1.80247 32.41 1.48914 32.11C1.18247 31.81 1.02914 31.41 1.02914 30.91C1.02914 30.5033 1.13247 30.1467 1.33914 29.84C1.55247 29.5333 1.84581 29.2967 2.21914 29.13C2.59247 28.9567 3.02247 28.87 3.50914 28.87C4.48247 28.87 5.25914 29.1633 5.83914 29.75L5.59914 30.25C5.29247 29.9633 4.97247 29.7567 4.63914 29.63C4.30581 29.4967 3.92914 29.43 3.50914 29.43C2.94914 29.43 2.49914 29.5633 2.15914 29.83C1.82581 30.0967 1.65914 30.4533 1.65914 30.9C1.65914 31.2533 1.76581 31.5333 1.97914 31.74C2.19247 31.94 2.53581 32.0867 3.00914 32.18L4.02914 32.39C4.70247 32.53 5.20247 32.74 5.52914 33.02C5.85581 33.2933 6.01914 33.67 6.01914 34.15C6.01914 34.53 5.91581 34.8667 5.70914 35.16C5.50914 35.4467 5.21914 35.6733 4.83914 35.84C4.45914 36 4.00914 36.08 3.48914 36.08ZM7.24336 37.8V31.15H7.85336V32.06C8.00003 31.7533 8.22003 31.51 8.51336 31.33C8.81336 31.15 9.16003 31.06 9.55336 31.06C9.98669 31.06 10.3634 31.1633 10.6834 31.37C11.01 31.5767 11.26 31.8667 11.4334 32.24C11.6134 32.6133 11.7034 33.0567 11.7034 33.57C11.7034 34.0833 11.6134 34.53 11.4334 34.91C11.26 35.2833 11.01 35.5733 10.6834 35.78C10.3634 35.98 9.98669 36.08 9.55336 36.08C9.16003 36.08 8.81336 35.9933 8.51336 35.82C8.22003 35.6467 8.00003 35.4067 7.85336 35.1V37.8H7.24336ZM9.46336 35.57C9.95669 35.57 10.35 35.3967 10.6434 35.05C10.9367 34.6967 11.0834 34.2033 11.0834 33.57C11.0834 32.9367 10.9367 32.4467 10.6434 32.1C10.35 31.7533 9.95669 31.58 9.46336 31.58C8.97003 31.58 8.57669 31.7533 8.28336 32.1C7.99003 32.4467 7.84336 32.9367 7.84336 33.57C7.84336 34.2033 7.99003 34.6967 8.28336 35.05C8.57669 35.3967 8.97003 35.57 9.46336 35.57ZM14.9253 36.08C14.472 36.08 14.0786 35.98 13.7453 35.78C13.412 35.5733 13.152 35.2833 12.9653 34.91C12.7853 34.53 12.6953 34.0833 12.6953 33.57C12.6953 33.0633 12.7853 32.6233 12.9653 32.25C13.152 31.87 13.412 31.5767 13.7453 31.37C14.0786 31.1633 14.472 31.06 14.9253 31.06C15.3853 31.06 15.782 31.1633 16.1153 31.37C16.4486 31.5767 16.7053 31.87 16.8853 32.25C17.072 32.6233 17.1653 33.0633 17.1653 33.57C17.1653 34.0833 17.072 34.53 16.8853 34.91C16.7053 35.2833 16.4486 35.5733 16.1153 35.78C15.782 35.98 15.3853 36.08 14.9253 36.08ZM14.9253 35.57C15.4186 35.57 15.812 35.3967 16.1053 35.05C16.3986 34.6967 16.5453 34.2033 16.5453 33.57C16.5453 32.9367 16.3986 32.4467 16.1053 32.1C15.812 31.7533 15.4186 31.58 14.9253 31.58C14.432 31.58 14.0386 31.7533 13.7453 32.1C13.4586 32.4467 13.3153 32.9367 13.3153 33.57C13.3153 34.2033 13.4586 34.6967 13.7453 35.05C14.0386 35.3967 14.432 35.57 14.9253 35.57ZM18.4641 36V28.95H19.0741V33.35H19.0941L21.4841 31.15H22.2941L19.7441 33.49L22.5341 36H21.7241L19.0941 33.67H19.0741V36H18.4641ZM25.2811 36.08C24.5344 36.08 23.9444 35.86 23.5111 35.42C23.0844 34.9733 22.8711 34.3633 22.8711 33.59C22.8711 33.09 22.9678 32.65 23.1611 32.27C23.3544 31.89 23.6211 31.5933 23.9611 31.38C24.3078 31.1667 24.7044 31.06 25.1511 31.06C25.7978 31.06 26.3011 31.27 26.6611 31.69C27.0211 32.11 27.2011 32.6867 27.2011 33.42V33.7H23.4711C23.4911 34.3 23.6544 34.7633 23.9611 35.09C24.2744 35.41 24.7078 35.57 25.2611 35.57C25.5611 35.57 25.8411 35.5233 26.1011 35.43C26.3678 35.3367 26.6278 35.18 26.8811 34.96L27.1211 35.42C26.9078 35.6267 26.6344 35.79 26.3011 35.91C25.9678 36.0233 25.6278 36.08 25.2811 36.08ZM25.1611 31.55C24.6544 31.55 24.2578 31.71 23.9711 32.03C23.6911 32.3433 23.5278 32.75 23.4811 33.25H26.6511C26.6378 32.7167 26.5044 32.3 26.2511 32C25.9978 31.7 25.6344 31.55 25.1611 31.55ZM28.492 33.6V33.08H31.212V33.6H28.492ZM34.1612 36.08C33.7078 36.08 33.3578 35.9433 33.1112 35.67C32.8712 35.39 32.7512 34.99 32.7512 34.47V28.95H33.3612V34.4C33.3612 35.1667 33.6612 35.55 34.2612 35.55C34.4278 35.55 34.5812 35.53 34.7212 35.49L34.7012 36.02C34.5078 36.06 34.3278 36.08 34.1612 36.08ZM35.5027 29.87V29.1H36.3227V29.87H35.5027ZM35.6027 36V31.15H36.2127V36H35.6027ZM37.8195 36V28.95H38.4295V33.35H38.4495L40.8395 31.15H41.6495L39.0995 33.49L41.8895 36H41.0795L38.4495 33.67H38.4295V36H37.8195ZM44.6366 36.08C43.8899 36.08 43.2999 35.86 42.8666 35.42C42.4399 34.9733 42.2266 34.3633 42.2266 33.59C42.2266 33.09 42.3232 32.65 42.5166 32.27C42.7099 31.89 42.9766 31.5933 43.3166 31.38C43.6632 31.1667 44.0599 31.06 44.5066 31.06C45.1532 31.06 45.6566 31.27 46.0166 31.69C46.3766 32.11 46.5566 32.6867 46.5566 33.42V33.7H42.8266C42.8466 34.3 43.0099 34.7633 43.3166 35.09C43.6299 35.41 44.0632 35.57 44.6166 35.57C44.9166 35.57 45.1966 35.5233 45.4566 35.43C45.7232 35.3367 45.9832 35.18 46.2366 34.96L46.4766 35.42C46.2632 35.6267 45.9899 35.79 45.6566 35.91C45.3232 36.0233 44.9832 36.08 44.6366 36.08ZM44.5166 31.55C44.0099 31.55 43.6132 31.71 43.3266 32.03C43.0466 32.3433 42.8832 32.75 42.8366 33.25H46.0066C45.9932 32.7167 45.8599 32.3 45.6066 32C45.3532 31.7 44.9899 31.55 44.5166 31.55Z" fill="black"/>
<path d="M27.8232 7.30154C25.0871 14.8191 24.403 16.6985 24.403 16.6985" stroke="black" stroke-width="1.1" stroke-linecap="round" stroke-linejoin="round"/>
<path d="M23.8232 7.30154C21.0871 14.8191 20.403 16.6985 20.403 16.6985" stroke="black" stroke-width="1.1" stroke-linecap="round" stroke-linejoin="round"/>
<path d="M14.5 12L34 12L30 15" stroke="black" stroke-width="1.1" stroke-linecap="round" stroke-linejoin="round"/>
</svg>
