<svg width="46" height="40" viewBox="0 0 46 40" fill="none" xmlns="http://www.w3.org/2000/svg">
<path d="M4.0907 33.08C3.54404 33.08 3.0507 33.01 2.6107 32.87C2.17737 32.7233 1.8007 32.51 1.4807 32.23L1.7207 31.72C2.06737 31.9933 2.4207 32.1967 2.7807 32.33C3.14737 32.4567 3.58404 32.52 4.0907 32.52C4.72404 32.52 5.19737 32.3967 5.5107 32.15C5.8307 31.9033 5.9907 31.58 5.9907 31.18C5.9907 30.8467 5.87404 30.5867 5.6407 30.4C5.41404 30.2133 5.03737 30.0667 4.5107 29.96L3.5007 29.75C2.87404 29.6233 2.40404 29.41 2.0907 29.11C1.78404 28.81 1.6307 28.41 1.6307 27.91C1.6307 27.5033 1.73404 27.1467 1.9407 26.84C2.15404 26.5333 2.44737 26.2967 2.8207 26.13C3.19404 25.9567 3.62404 25.87 4.1107 25.87C5.08404 25.87 5.8607 26.1633 6.4407 26.75L6.2007 27.25C5.89404 26.9633 5.57404 26.7567 5.2407 26.63C4.90737 26.4967 4.5307 26.43 4.1107 26.43C3.5507 26.43 3.1007 26.5633 2.7607 26.83C2.42737 27.0967 2.2607 27.4533 2.2607 27.9C2.2607 28.2533 2.36737 28.5333 2.5807 28.74C2.79404 28.94 3.13737 29.0867 3.6107 29.18L4.6307 29.39C5.30404 29.53 5.80404 29.74 6.1307 30.02C6.45737 30.2933 6.6207 30.67 6.6207 31.15C6.6207 31.53 6.51737 31.8667 6.3107 32.16C6.1107 32.4467 5.8207 32.6733 5.4407 32.84C5.0607 33 4.6107 33.08 4.0907 33.08ZM7.84492 34.8V28.15H8.45492V29.06C8.60159 28.7533 8.82159 28.51 9.11492 28.33C9.41492 28.15 9.76159 28.06 10.1549 28.06C10.5883 28.06 10.9649 28.1633 11.2849 28.37C11.6116 28.5767 11.8616 28.8667 12.0349 29.24C12.2149 29.6133 12.3049 30.0567 12.3049 30.57C12.3049 31.0833 12.2149 31.53 12.0349 31.91C11.8616 32.2833 11.6116 32.5733 11.2849 32.78C10.9649 32.98 10.5883 33.08 10.1549 33.08C9.76159 33.08 9.41492 32.9933 9.11492 32.82C8.82159 32.6467 8.60159 32.4067 8.45492 32.1V34.8H7.84492ZM10.0649 32.57C10.5583 32.57 10.9516 32.3967 11.2449 32.05C11.5383 31.6967 11.6849 31.2033 11.6849 30.57C11.6849 29.9367 11.5383 29.4467 11.2449 29.1C10.9516 28.7533 10.5583 28.58 10.0649 28.58C9.57159 28.58 9.17826 28.7533 8.88492 29.1C8.59159 29.4467 8.44492 29.9367 8.44492 30.57C8.44492 31.2033 8.59159 31.6967 8.88492 32.05C9.17826 32.3967 9.57159 32.57 10.0649 32.57ZM13.5969 33V28.15H14.1969V29.03C14.3369 28.7233 14.5402 28.49 14.8069 28.33C15.0735 28.17 15.4135 28.0767 15.8269 28.05L16.0769 28.03L16.1369 28.56L15.7069 28.61C15.2335 28.65 14.8669 28.8067 14.6069 29.08C14.3469 29.3467 14.2169 29.7067 14.2169 30.16V33H13.5969ZM19.0663 33.08C18.3196 33.08 17.7296 32.86 17.2963 32.42C16.8696 31.9733 16.6563 31.3633 16.6563 30.59C16.6563 30.09 16.7529 29.65 16.9463 29.27C17.1396 28.89 17.4063 28.5933 17.7463 28.38C18.0929 28.1667 18.4896 28.06 18.9363 28.06C19.5829 28.06 20.0863 28.27 20.4463 28.69C20.8063 29.11 20.9863 29.6867 20.9863 30.42V30.7H17.2563C17.2763 31.3 17.4396 31.7633 17.7463 32.09C18.0596 32.41 18.4929 32.57 19.0463 32.57C19.3463 32.57 19.6263 32.5233 19.8863 32.43C20.1529 32.3367 20.4129 32.18 20.6663 31.96L20.9063 32.42C20.6929 32.6267 20.4196 32.79 20.0863 32.91C19.7529 33.0233 19.4129 33.08 19.0663 33.08ZM18.9463 28.55C18.4396 28.55 18.0429 28.71 17.7563 29.03C17.4763 29.3433 17.3129 29.75 17.2663 30.25H20.4363C20.4229 29.7167 20.2896 29.3 20.0363 29C19.7829 28.7 19.4196 28.55 18.9463 28.55ZM23.7297 33.08C23.403 33.08 23.1097 33.0167 22.8497 32.89C22.5964 32.7633 22.393 32.59 22.2397 32.37C22.093 32.15 22.0197 31.9033 22.0197 31.63C22.0197 31.27 22.1097 30.99 22.2897 30.79C22.4697 30.5833 22.773 30.4367 23.1997 30.35C23.6264 30.2633 24.213 30.22 24.9597 30.22H25.2697V29.86C25.2697 29.4133 25.1797 29.09 24.9997 28.89C24.8197 28.6833 24.533 28.58 24.1397 28.58C23.8464 28.58 23.563 28.6233 23.2897 28.71C23.023 28.7967 22.7464 28.9333 22.4597 29.12L22.2197 28.65C22.473 28.47 22.773 28.3267 23.1197 28.22C23.4664 28.1133 23.803 28.06 24.1297 28.06C24.7164 28.06 25.1497 28.21 25.4297 28.51C25.7164 28.81 25.8597 29.27 25.8597 29.89V33H25.2797V32.13C25.1464 32.43 24.943 32.6633 24.6697 32.83C24.403 32.9967 24.0897 33.08 23.7297 33.08ZM23.8097 32.59C24.0964 32.59 24.3464 32.5233 24.5597 32.39C24.7797 32.25 24.953 32.06 25.0797 31.82C25.2064 31.58 25.2697 31.3067 25.2697 31V30.67H24.9697C24.3697 30.67 23.8997 30.6967 23.5597 30.75C23.2264 30.8033 22.993 30.8967 22.8597 31.03C22.7264 31.1633 22.6597 31.3467 22.6597 31.58C22.6597 31.88 22.763 32.1233 22.9697 32.31C23.1764 32.4967 23.4564 32.59 23.8097 32.59ZM29.3043 33.08C28.8643 33.08 28.4843 32.98 28.1643 32.78C27.8443 32.5733 27.5943 32.2833 27.4143 31.91C27.241 31.53 27.1543 31.0833 27.1543 30.57C27.1543 29.8033 27.3476 29.1933 27.7343 28.74C28.121 28.2867 28.6443 28.06 29.3043 28.06C29.691 28.06 30.031 28.15 30.3243 28.33C30.6243 28.5033 30.8476 28.7433 30.9943 29.05V25.95H31.6043V33H31.0043V32.08C30.8576 32.3933 30.6343 32.64 30.3343 32.82C30.041 32.9933 29.6976 33.08 29.3043 33.08ZM29.3843 32.57C29.8776 32.57 30.271 32.3967 30.5643 32.05C30.8576 31.6967 31.0043 31.2033 31.0043 30.57C31.0043 29.9367 30.8576 29.4467 30.5643 29.1C30.271 28.7533 29.8776 28.58 29.3843 28.58C28.891 28.58 28.4976 28.7533 28.2043 29.1C27.9176 29.4467 27.7743 29.9367 27.7743 30.57C27.7743 31.2033 27.9176 31.6967 28.2043 32.05C28.4976 32.3967 28.891 32.57 29.3843 32.57ZM33.1063 26.87V26.1H33.9263V26.87H33.1063ZM33.2063 33V28.15H33.8163V33H33.2063ZM35.423 33V28.15H36.023V29.02C36.183 28.7 36.413 28.46 36.713 28.3C37.013 28.14 37.3464 28.06 37.713 28.06C38.8664 28.06 39.443 28.6867 39.443 29.94V33H38.833V29.99C38.833 29.51 38.7364 29.1567 38.543 28.93C38.3497 28.7033 38.043 28.59 37.623 28.59C37.143 28.59 36.7564 28.74 36.463 29.04C36.1764 29.3333 36.033 29.73 36.033 30.23V33H35.423ZM43.1288 34.88C42.2821 34.88 41.5788 34.6567 41.0188 34.21L41.2488 33.75C41.5554 33.97 41.8521 34.1267 42.1388 34.22C42.4254 34.32 42.7488 34.37 43.1088 34.37C43.5954 34.37 43.9654 34.2367 44.2188 33.97C44.4721 33.7033 44.5988 33.3167 44.5988 32.81V31.87C44.4588 32.19 44.2354 32.44 43.9288 32.62C43.6288 32.8 43.2854 32.89 42.8988 32.89C42.4454 32.89 42.0554 32.79 41.7288 32.59C41.4088 32.3833 41.1588 32.1 40.9788 31.74C40.8054 31.3733 40.7188 30.95 40.7188 30.47C40.7188 29.99 40.8054 29.57 40.9788 29.21C41.1588 28.85 41.4088 28.57 41.7288 28.37C42.0554 28.1633 42.4454 28.06 42.8988 28.06C43.2854 28.06 43.6288 28.15 43.9288 28.33C44.2288 28.51 44.4488 28.7567 44.5888 29.07V28.15H45.1888V32.72C45.1888 34.16 44.5021 34.88 43.1288 34.88ZM42.9688 32.37C43.4688 32.37 43.8654 32.2 44.1588 31.86C44.4521 31.5133 44.5988 31.05 44.5988 30.47C44.5988 29.89 44.4521 29.43 44.1588 29.09C43.8654 28.75 43.4688 28.58 42.9688 28.58C42.4621 28.58 42.0621 28.75 41.7688 29.09C41.4821 29.43 41.3388 29.89 41.3388 30.47C41.3388 31.05 41.4821 31.5133 41.7688 31.86C42.0621 32.2 42.4621 32.37 42.9688 32.37Z" fill="black"/>
<path d="M24 1L24 10" stroke="black" stroke-width="1.1" stroke-linecap="round"/>
<path d="M22 14L26 10" stroke="black" stroke-width="1.1" stroke-linecap="round"/>
<path d="M20 14L24 10" stroke="black" stroke-width="1.1" stroke-linecap="round"/>
</svg>
