<svg width="29" height="43" viewBox="0 0 29 43" fill="none" xmlns="http://www.w3.org/2000/svg">
<path d="M3.64344 36.08C3.09677 36.08 2.60344 36.01 2.16344 35.87C1.7301 35.7233 1.35344 35.51 1.03344 35.23L1.27344 34.72C1.6201 34.9933 1.97344 35.1967 2.33344 35.33C2.7001 35.4567 3.13677 35.52 3.64344 35.52C4.27677 35.52 4.7501 35.3967 5.06344 35.15C5.38344 34.9033 5.54344 34.58 5.54344 34.18C5.54344 33.8467 5.42677 33.5867 5.19344 33.4C4.96677 33.2133 4.5901 33.0667 4.06344 32.96L3.05344 32.75C2.42677 32.6233 1.95677 32.41 1.64344 32.11C1.33677 31.81 1.18344 31.41 1.18344 30.91C1.18344 30.5033 1.28677 30.1467 1.49344 29.84C1.70677 29.5333 2.0001 29.2967 2.37344 29.13C2.74677 28.9567 3.17677 28.87 3.66344 28.87C4.63677 28.87 5.41344 29.1633 5.99344 29.75L5.75344 30.25C5.44677 29.9633 5.12677 29.7567 4.79344 29.63C4.4601 29.4967 4.08344 29.43 3.66344 29.43C3.10344 29.43 2.65344 29.5633 2.31344 29.83C1.9801 30.0967 1.81344 30.4533 1.81344 30.9C1.81344 31.2533 1.9201 31.5333 2.13344 31.74C2.34677 31.94 2.6901 32.0867 3.16344 32.18L4.18344 32.39C4.85677 32.53 5.35677 32.74 5.68344 33.02C6.0101 33.2933 6.17344 33.67 6.17344 34.15C6.17344 34.53 6.0701 34.8667 5.86344 35.16C5.66344 35.4467 5.37344 35.6733 4.99344 35.84C4.61344 36 4.16344 36.08 3.64344 36.08ZM9.22766 36.08C8.68766 36.08 8.28099 35.9333 8.00766 35.64C7.74099 35.3467 7.60766 34.9267 7.60766 34.38V31.64H6.64766V31.15H7.60766V29.65H8.21766V31.15H9.78766V31.64H8.21766V34.3C8.21766 34.7067 8.30099 35.0167 8.46766 35.23C8.63432 35.4433 8.91099 35.55 9.29766 35.55C9.41099 35.55 9.52099 35.5367 9.62766 35.51C9.73432 35.4833 9.82766 35.4533 9.90766 35.42L10.0277 35.9C9.95432 35.9467 9.83766 35.9867 9.67766 36.02C9.51766 36.06 9.36766 36.08 9.22766 36.08ZM12.2473 36.08C11.9206 36.08 11.6273 36.0167 11.3673 35.89C11.1139 35.7633 10.9106 35.59 10.7573 35.37C10.6106 35.15 10.5373 34.9033 10.5373 34.63C10.5373 34.27 10.6273 33.99 10.8073 33.79C10.9873 33.5833 11.2906 33.4367 11.7173 33.35C12.1439 33.2633 12.7306 33.22 13.4773 33.22H13.7873V32.86C13.7873 32.4133 13.6973 32.09 13.5173 31.89C13.3373 31.6833 13.0506 31.58 12.6573 31.58C12.3639 31.58 12.0806 31.6233 11.8073 31.71C11.5406 31.7967 11.2639 31.9333 10.9773 32.12L10.7373 31.65C10.9906 31.47 11.2906 31.3267 11.6373 31.22C11.9839 31.1133 12.3206 31.06 12.6473 31.06C13.2339 31.06 13.6673 31.21 13.9473 31.51C14.2339 31.81 14.3773 32.27 14.3773 32.89V36H13.7973V35.13C13.6639 35.43 13.4606 35.6633 13.1873 35.83C12.9206 35.9967 12.6073 36.08 12.2473 36.08ZM12.3273 35.59C12.6139 35.59 12.8639 35.5233 13.0773 35.39C13.2973 35.25 13.4706 35.06 13.5973 34.82C13.7239 34.58 13.7873 34.3067 13.7873 34V33.67H13.4873C12.8873 33.67 12.4173 33.6967 12.0773 33.75C11.7439 33.8033 11.5106 33.8967 11.3773 34.03C11.2439 34.1633 11.1773 34.3467 11.1773 34.58C11.1773 34.88 11.2806 35.1233 11.4873 35.31C11.6939 35.4967 11.9739 35.59 12.3273 35.59ZM18.2819 36.08C17.8885 36.08 17.5419 35.9933 17.2419 35.82C16.9485 35.64 16.7285 35.3933 16.5819 35.08V36H15.9719V28.95H16.5819V32.05C16.7285 31.7433 16.9485 31.5033 17.2419 31.33C17.5419 31.15 17.8885 31.06 18.2819 31.06C18.9352 31.06 19.4552 31.2867 19.8419 31.74C20.2352 32.1933 20.4319 32.8033 20.4319 33.57C20.4319 34.0833 20.3419 34.53 20.1619 34.91C19.9885 35.2833 19.7385 35.5733 19.4119 35.78C19.0919 35.98 18.7152 36.08 18.2819 36.08ZM18.1919 35.57C18.6852 35.57 19.0785 35.3967 19.3719 35.05C19.6652 34.6967 19.8119 34.2033 19.8119 33.57C19.8119 32.9367 19.6652 32.4467 19.3719 32.1C19.0785 31.7533 18.6852 31.58 18.1919 31.58C17.6985 31.58 17.3052 31.7533 17.0119 32.1C16.7185 32.4467 16.5719 32.9367 16.5719 33.57C16.5719 34.2033 16.7185 34.6967 17.0119 35.05C17.3052 35.3967 17.6985 35.57 18.1919 35.57ZM23.1338 36.08C22.6805 36.08 22.3305 35.9433 22.0838 35.67C21.8438 35.39 21.7238 34.99 21.7238 34.47V28.95H22.3338V34.4C22.3338 35.1667 22.6338 35.55 23.2338 35.55C23.4005 35.55 23.5538 35.53 23.6938 35.49L23.6738 36.02C23.4805 36.06 23.3005 36.08 23.1338 36.08ZM26.6366 36.08C25.8899 36.08 25.2999 35.86 24.8666 35.42C24.4399 34.9733 24.2266 34.3633 24.2266 33.59C24.2266 33.09 24.3232 32.65 24.5166 32.27C24.7099 31.89 24.9766 31.5933 25.3166 31.38C25.6632 31.1667 26.0599 31.06 26.5066 31.06C27.1532 31.06 27.6566 31.27 28.0166 31.69C28.3766 32.11 28.5566 32.6867 28.5566 33.42V33.7H24.8266C24.8466 34.3 25.0099 34.7633 25.3166 35.09C25.6299 35.41 26.0632 35.57 26.6166 35.57C26.9166 35.57 27.1966 35.5233 27.4566 35.43C27.7232 35.3367 27.9832 35.18 28.2366 34.96L28.4766 35.42C28.2632 35.6267 27.9899 35.79 27.6566 35.91C27.3232 36.0233 26.9832 36.08 26.6366 36.08ZM26.5166 31.55C26.0099 31.55 25.6132 31.71 25.3266 32.03C25.0466 32.3433 24.8832 32.75 24.8366 33.25H28.0066C27.9932 32.7167 27.8599 32.3 27.6066 32C27.3532 31.7 26.9899 31.55 26.5166 31.55Z" fill="black"/>
<path d="M14 14L14 23" stroke="black" stroke-width="1.1" stroke-linecap="round"/>
<path d="M14 5L14 14" stroke="black" stroke-width="1.1" stroke-linecap="round"/>
<path d="M18 1L18 10" stroke="black" stroke-width="1.1" stroke-linecap="round"/>
<path d="M18 10H27" stroke="black" stroke-width="1.1" stroke-linecap="round"/>
<path d="M14 14L18 10" stroke="black" stroke-width="1.1" stroke-linecap="round"/>
</svg>
