<svg width="30" height="44" viewBox="0 0 30 44" fill="none" xmlns="http://www.w3.org/2000/svg">
<path d="M3.49109 37.08C2.94443 37.08 2.45109 37.01 2.01109 36.87C1.57776 36.7233 1.20109 36.51 0.881094 36.23L1.12109 35.72C1.46776 35.9933 1.82109 36.1967 2.18109 36.33C2.54776 36.4567 2.98443 36.52 3.49109 36.52C4.12443 36.52 4.59776 36.3967 4.91109 36.15C5.23109 35.9033 5.39109 35.58 5.39109 35.18C5.39109 34.8467 5.27443 34.5867 5.04109 34.4C4.81443 34.2133 4.43776 34.0667 3.91109 33.96L2.90109 33.75C2.27443 33.6233 1.80443 33.41 1.49109 33.11C1.18443 32.81 1.03109 32.41 1.03109 31.91C1.03109 31.5033 1.13443 31.1467 1.34109 30.84C1.55443 30.5333 1.84776 30.2967 2.22109 30.13C2.59443 29.9567 3.02443 29.87 3.51109 29.87C4.48443 29.87 5.26109 30.1633 5.84109 30.75L5.60109 31.25C5.29443 30.9633 4.97443 30.7567 4.64109 30.63C4.30776 30.4967 3.93109 30.43 3.51109 30.43C2.95109 30.43 2.50109 30.5633 2.16109 30.83C1.82776 31.0967 1.66109 31.4533 1.66109 31.9C1.66109 32.2533 1.76776 32.5333 1.98109 32.74C2.19443 32.94 2.53776 33.0867 3.01109 33.18L4.03109 33.39C4.70443 33.53 5.20443 33.74 5.53109 34.02C5.85776 34.2933 6.02109 34.67 6.02109 35.15C6.02109 35.53 5.91776 35.8667 5.71109 36.16C5.51109 36.4467 5.22109 36.6733 4.84109 36.84C4.46109 37 4.01109 37.08 3.49109 37.08ZM9.07531 37.08C8.53531 37.08 8.12865 36.9333 7.85531 36.64C7.58865 36.3467 7.45531 35.9267 7.45531 35.38V32.64H6.49531V32.15H7.45531V30.65H8.06531V32.15H9.63531V32.64H8.06531V35.3C8.06531 35.7067 8.14865 36.0167 8.31531 36.23C8.48198 36.4433 8.75865 36.55 9.14531 36.55C9.25865 36.55 9.36865 36.5367 9.47531 36.51C9.58198 36.4833 9.67531 36.4533 9.75531 36.42L9.87531 36.9C9.80198 36.9467 9.68531 36.9867 9.52531 37.02C9.36531 37.06 9.21531 37.08 9.07531 37.08ZM10.5949 37V32.15H11.1949V33.03C11.3349 32.7233 11.5383 32.49 11.8049 32.33C12.0716 32.17 12.4116 32.0767 12.8249 32.05L13.0749 32.03L13.1349 32.56L12.7049 32.61C12.2316 32.65 11.8649 32.8067 11.6049 33.08C11.3449 33.3467 11.2149 33.7067 11.2149 34.16V37H10.5949ZM15.8843 37.08C15.431 37.08 15.0376 36.98 14.7043 36.78C14.371 36.5733 14.111 36.2833 13.9243 35.91C13.7443 35.53 13.6543 35.0833 13.6543 34.57C13.6543 34.0633 13.7443 33.6233 13.9243 33.25C14.111 32.87 14.371 32.5767 14.7043 32.37C15.0376 32.1633 15.431 32.06 15.8843 32.06C16.3443 32.06 16.741 32.1633 17.0743 32.37C17.4076 32.5767 17.6643 32.87 17.8443 33.25C18.031 33.6233 18.1243 34.0633 18.1243 34.57C18.1243 35.0833 18.031 35.53 17.8443 35.91C17.6643 36.2833 17.4076 36.5733 17.0743 36.78C16.741 36.98 16.3443 37.08 15.8843 37.08ZM15.8843 36.57C16.3776 36.57 16.771 36.3967 17.0643 36.05C17.3576 35.6967 17.5043 35.2033 17.5043 34.57C17.5043 33.9367 17.3576 33.4467 17.0643 33.1C16.771 32.7533 16.3776 32.58 15.8843 32.58C15.391 32.58 14.9976 32.7533 14.7043 33.1C14.4176 33.4467 14.2743 33.9367 14.2743 34.57C14.2743 35.2033 14.4176 35.6967 14.7043 36.05C14.9976 36.3967 15.391 36.57 15.8843 36.57ZM19.423 37V32.15H20.023V33.02C20.183 32.7 20.413 32.46 20.713 32.3C21.013 32.14 21.3464 32.06 21.713 32.06C22.8664 32.06 23.443 32.6867 23.443 33.94V37H22.833V33.99C22.833 33.51 22.7364 33.1567 22.543 32.93C22.3497 32.7033 22.043 32.59 21.623 32.59C21.143 32.59 20.7564 32.74 20.463 33.04C20.1764 33.3333 20.033 33.73 20.033 34.23V37H19.423ZM27.1288 38.88C26.2821 38.88 25.5788 38.6567 25.0188 38.21L25.2488 37.75C25.5554 37.97 25.8521 38.1267 26.1388 38.22C26.4254 38.32 26.7488 38.37 27.1088 38.37C27.5954 38.37 27.9654 38.2367 28.2188 37.97C28.4721 37.7033 28.5988 37.3167 28.5988 36.81V35.87C28.4588 36.19 28.2354 36.44 27.9288 36.62C27.6288 36.8 27.2854 36.89 26.8988 36.89C26.4454 36.89 26.0554 36.79 25.7288 36.59C25.4088 36.3833 25.1588 36.1 24.9788 35.74C24.8054 35.3733 24.7188 34.95 24.7188 34.47C24.7188 33.99 24.8054 33.57 24.9788 33.21C25.1588 32.85 25.4088 32.57 25.7288 32.37C26.0554 32.1633 26.4454 32.06 26.8988 32.06C27.2854 32.06 27.6288 32.15 27.9288 32.33C28.2288 32.51 28.4488 32.7567 28.5888 33.07V32.15H29.1888V36.72C29.1888 38.16 28.5021 38.88 27.1288 38.88ZM26.9688 36.37C27.4688 36.37 27.8654 36.2 28.1588 35.86C28.4521 35.5133 28.5988 35.05 28.5988 34.47C28.5988 33.89 28.4521 33.43 28.1588 33.09C27.8654 32.75 27.4688 32.58 26.9688 32.58C26.4621 32.58 26.0621 32.75 25.7688 33.09C25.4821 33.43 25.3388 33.89 25.3388 34.47C25.3388 35.05 25.4821 35.5133 25.7688 35.86C26.0621 36.2 26.4621 36.37 26.9688 36.37Z" fill="black"/>
<path d="M13 14L13 23" stroke="black" stroke-width="1.1" stroke-linecap="round"/>
<path d="M13 14L17 10" stroke="black" stroke-width="1.1" stroke-linecap="round"/>
</svg>
