<svg width="34" height="42" viewBox="0 0 34 42" fill="none" xmlns="http://www.w3.org/2000/svg">
<path d="M3.14539 35.08C2.59872 35.08 2.10539 35.01 1.66539 34.87C1.23206 34.7233 0.855391 34.51 0.535391 34.23L0.775391 33.72C1.12206 33.9933 1.47539 34.1967 1.83539 34.33C2.20206 34.4567 2.63872 34.52 3.14539 34.52C3.77872 34.52 4.25206 34.3967 4.56539 34.15C4.88539 33.9033 5.04539 33.58 5.04539 33.18C5.04539 32.8467 4.92872 32.5867 4.69539 32.4C4.46872 32.2133 4.09206 32.0667 3.56539 31.96L2.55539 31.75C1.92872 31.6233 1.45872 31.41 1.14539 31.11C0.838724 30.81 0.685391 30.41 0.685391 29.91C0.685391 29.5033 0.788724 29.1467 0.995391 28.84C1.20872 28.5333 1.50206 28.2967 1.87539 28.13C2.24872 27.9567 2.67872 27.87 3.16539 27.87C4.13872 27.87 4.91539 28.1633 5.49539 28.75L5.25539 29.25C4.94872 28.9633 4.62872 28.7567 4.29539 28.63C3.96206 28.4967 3.58539 28.43 3.16539 28.43C2.60539 28.43 2.15539 28.5633 1.81539 28.83C1.48206 29.0967 1.31539 29.4533 1.31539 29.9C1.31539 30.2533 1.42206 30.5333 1.63539 30.74C1.84872 30.94 2.19206 31.0867 2.66539 31.18L3.68539 31.39C4.35872 31.53 4.85872 31.74 5.18539 32.02C5.51206 32.2933 5.67539 32.67 5.67539 33.15C5.67539 33.53 5.57206 33.8667 5.36539 34.16C5.16539 34.4467 4.87539 34.6733 4.49539 34.84C4.11539 35 3.66539 35.08 3.14539 35.08ZM8.60961 35.08C7.45628 35.08 6.87961 34.4533 6.87961 33.2V30.15H7.48961V33.17C7.48961 33.6433 7.58628 33.9933 7.77961 34.22C7.97294 34.4467 8.27628 34.56 8.68961 34.56C9.13628 34.56 9.49961 34.41 9.77961 34.11C10.0663 33.81 10.2096 33.41 10.2096 32.91V30.15H10.8196V35H10.2296V34.14C10.0696 34.4467 9.84628 34.68 9.55961 34.84C9.27961 35 8.96294 35.08 8.60961 35.08ZM14.277 35.08C13.837 35.08 13.457 34.98 13.137 34.78C12.817 34.5733 12.567 34.2833 12.387 33.91C12.2136 33.53 12.127 33.0833 12.127 32.57C12.127 31.8033 12.3203 31.1933 12.707 30.74C13.0936 30.2867 13.617 30.06 14.277 30.06C14.6636 30.06 15.0036 30.15 15.297 30.33C15.597 30.5033 15.8203 30.7433 15.967 31.05V27.95H16.577V35H15.977V34.08C15.8303 34.3933 15.607 34.64 15.307 34.82C15.0136 34.9933 14.6703 35.08 14.277 35.08ZM14.357 34.57C14.8503 34.57 15.2436 34.3967 15.537 34.05C15.8303 33.6967 15.977 33.2033 15.977 32.57C15.977 31.9367 15.8303 31.4467 15.537 31.1C15.2436 30.7533 14.8503 30.58 14.357 30.58C13.8636 30.58 13.4703 30.7533 13.177 31.1C12.8903 31.4467 12.747 31.9367 12.747 32.57C12.747 33.2033 12.8903 33.6967 13.177 34.05C13.4703 34.3967 13.8636 34.57 14.357 34.57ZM20.0289 35.08C19.5889 35.08 19.2089 34.98 18.8889 34.78C18.5689 34.5733 18.3189 34.2833 18.1389 33.91C17.9656 33.53 17.8789 33.0833 17.8789 32.57C17.8789 31.8033 18.0722 31.1933 18.4589 30.74C18.8456 30.2867 19.3689 30.06 20.0289 30.06C20.4156 30.06 20.7556 30.15 21.0489 30.33C21.3489 30.5033 21.5722 30.7433 21.7189 31.05V27.95H22.3289V35H21.7289V34.08C21.5822 34.3933 21.3589 34.64 21.0589 34.82C20.7656 34.9933 20.4222 35.08 20.0289 35.08ZM20.1089 34.57C20.6022 34.57 20.9956 34.3967 21.2889 34.05C21.5822 33.6967 21.7289 33.2033 21.7289 32.57C21.7289 31.9367 21.5822 31.4467 21.2889 31.1C20.9956 30.7533 20.6022 30.58 20.1089 30.58C19.6156 30.58 19.2222 30.7533 18.9289 31.1C18.6422 31.4467 18.4989 31.9367 18.4989 32.57C18.4989 33.2033 18.6422 33.6967 18.9289 34.05C19.2222 34.3967 19.6156 34.57 20.1089 34.57ZM26.0409 35.08C25.2942 35.08 24.7042 34.86 24.2709 34.42C23.8442 33.9733 23.6309 33.3633 23.6309 32.59C23.6309 32.09 23.7275 31.65 23.9209 31.27C24.1142 30.89 24.3809 30.5933 24.7209 30.38C25.0675 30.1667 25.4642 30.06 25.9109 30.06C26.5575 30.06 27.0609 30.27 27.4209 30.69C27.7809 31.11 27.9609 31.6867 27.9609 32.42V32.7H24.2309C24.2509 33.3 24.4142 33.7633 24.7209 34.09C25.0342 34.41 25.4675 34.57 26.0209 34.57C26.3209 34.57 26.6009 34.5233 26.8609 34.43C27.1275 34.3367 27.3875 34.18 27.6409 33.96L27.8809 34.42C27.6675 34.6267 27.3942 34.79 27.0609 34.91C26.7275 35.0233 26.3875 35.08 26.0409 35.08ZM25.9209 30.55C25.4142 30.55 25.0175 30.71 24.7309 31.03C24.4509 31.3433 24.2875 31.75 24.2409 32.25H27.4109C27.3975 31.7167 27.2642 31.3 27.0109 31C26.7575 30.7 26.3942 30.55 25.9209 30.55ZM29.2043 35V30.15H29.8043V31.02C29.9643 30.7 30.1943 30.46 30.4943 30.3C30.7943 30.14 31.1276 30.06 31.4943 30.06C32.6476 30.06 33.2243 30.6867 33.2243 31.94V35H32.6143V31.99C32.6143 31.51 32.5176 31.1567 32.3243 30.93C32.131 30.7033 31.8243 30.59 31.4043 30.59C30.9243 30.59 30.5376 30.74 30.2443 31.04C29.9576 31.3333 29.8143 31.73 29.8143 32.23V35H29.2043Z" fill="black"/>
<path d="M18 17H22" stroke="black" stroke-width="1.1" stroke-linecap="round"/>
<path d="M15 14L19 10" stroke="black" stroke-width="1.1" stroke-linecap="round"/>
</svg>
