<svg width="44" height="41" viewBox="0 0 44 41" fill="none" xmlns="http://www.w3.org/2000/svg">
<path d="M3.37977 34.08C2.8331 34.08 2.33977 34.01 1.89977 33.87C1.46643 33.7233 1.08977 33.51 0.769766 33.23L1.00977 32.72C1.35643 32.9933 1.70977 33.1967 2.06977 33.33C2.43643 33.4567 2.8731 33.52 3.37977 33.52C4.0131 33.52 4.48643 33.3967 4.79977 33.15C5.11977 32.9033 5.27977 32.58 5.27977 32.18C5.27977 31.8467 5.1631 31.5867 4.92977 31.4C4.7031 31.2133 4.32643 31.0667 3.79977 30.96L2.78977 30.75C2.1631 30.6233 1.6931 30.41 1.37977 30.11C1.0731 29.81 0.919766 29.41 0.919766 28.91C0.919766 28.5033 1.0231 28.1467 1.22977 27.84C1.4431 27.5333 1.73643 27.2967 2.10977 27.13C2.4831 26.9567 2.9131 26.87 3.39977 26.87C4.3731 26.87 5.14977 27.1633 5.72977 27.75L5.48977 28.25C5.1831 27.9633 4.8631 27.7567 4.52977 27.63C4.19643 27.4967 3.81977 27.43 3.39977 27.43C2.83977 27.43 2.38977 27.5633 2.04977 27.83C1.71643 28.0967 1.54977 28.4533 1.54977 28.9C1.54977 29.2533 1.65643 29.5333 1.86977 29.74C2.0831 29.94 2.42643 30.0867 2.89977 30.18L3.91977 30.39C4.5931 30.53 5.0931 30.74 5.41977 31.02C5.74643 31.2933 5.90977 31.67 5.90977 32.15C5.90977 32.53 5.80643 32.8667 5.59977 33.16C5.39977 33.4467 5.10977 33.6733 4.72977 33.84C4.34977 34 3.89977 34.08 3.37977 34.08ZM8.84398 34.08C7.69065 34.08 7.11398 33.4533 7.11398 32.2V29.15H7.72398V32.17C7.72398 32.6433 7.82065 32.9933 8.01398 33.22C8.20732 33.4467 8.51065 33.56 8.92398 33.56C9.37065 33.56 9.73398 33.41 10.014 33.11C10.3007 32.81 10.444 32.41 10.444 31.91V29.15H11.054V34H10.464V33.14C10.304 33.4467 10.0807 33.68 9.79398 33.84C9.51398 34 9.19732 34.08 8.84398 34.08ZM14.2413 34.08C13.8813 34.08 13.5347 34.0267 13.2013 33.92C12.8747 33.8133 12.6047 33.66 12.3913 33.46L12.6113 33.01C12.858 33.21 13.1213 33.3567 13.4013 33.45C13.6813 33.5367 13.968 33.58 14.2613 33.58C14.6747 33.58 14.9847 33.5067 15.1913 33.36C15.4047 33.2067 15.5113 32.9967 15.5113 32.73C15.5113 32.5233 15.4413 32.36 15.3013 32.24C15.1613 32.12 14.9413 32.0233 14.6413 31.95L13.7713 31.75C12.9513 31.5633 12.5413 31.14 12.5413 30.48C12.5413 30.0533 12.708 29.71 13.0413 29.45C13.3747 29.19 13.8147 29.06 14.3613 29.06C14.6947 29.06 15.008 29.1167 15.3013 29.23C15.5947 29.3367 15.8347 29.4933 16.0213 29.7L15.7813 30.15C15.588 29.9567 15.368 29.8133 15.1213 29.72C14.8747 29.62 14.618 29.57 14.3513 29.57C13.9647 29.57 13.6647 29.65 13.4513 29.81C13.2447 29.97 13.1413 30.1867 13.1413 30.46C13.1413 30.6667 13.2047 30.8333 13.3313 30.96C13.458 31.0867 13.6647 31.1833 13.9513 31.25L14.8213 31.45C15.2547 31.55 15.578 31.7 15.7913 31.9C16.0047 32.0933 16.1113 32.3567 16.1113 32.69C16.1113 33.1233 15.9413 33.4633 15.6013 33.71C15.2613 33.9567 14.808 34.08 14.2413 34.08ZM19.2179 34.08C18.6779 34.08 18.2712 33.9333 17.9979 33.64C17.7312 33.3467 17.5979 32.9267 17.5979 32.38V29.64H16.6379V29.15H17.5979V27.65H18.2079V29.15H19.7779V29.64H18.2079V32.3C18.2079 32.7067 18.2912 33.0167 18.4579 33.23C18.6246 33.4433 18.9012 33.55 19.2879 33.55C19.4012 33.55 19.5112 33.5367 19.6179 33.51C19.7246 33.4833 19.8179 33.4533 19.8979 33.42L20.0179 33.9C19.9446 33.9467 19.8279 33.9867 19.6679 34.02C19.5079 34.06 19.3579 34.08 19.2179 34.08ZM22.2375 34.08C21.9108 34.08 21.6175 34.0167 21.3575 33.89C21.1042 33.7633 20.9008 33.59 20.7475 33.37C20.6008 33.15 20.5275 32.9033 20.5275 32.63C20.5275 32.27 20.6175 31.99 20.7975 31.79C20.9775 31.5833 21.2808 31.4367 21.7075 31.35C22.1342 31.2633 22.7208 31.22 23.4675 31.22H23.7775V30.86C23.7775 30.4133 23.6875 30.09 23.5075 29.89C23.3275 29.6833 23.0408 29.58 22.6475 29.58C22.3542 29.58 22.0708 29.6233 21.7975 29.71C21.5308 29.7967 21.2542 29.9333 20.9675 30.12L20.7275 29.65C20.9808 29.47 21.2808 29.3267 21.6275 29.22C21.9742 29.1133 22.3108 29.06 22.6375 29.06C23.2242 29.06 23.6575 29.21 23.9375 29.51C24.2242 29.81 24.3675 30.27 24.3675 30.89V34H23.7875V33.13C23.6542 33.43 23.4508 33.6633 23.1775 33.83C22.9108 33.9967 22.5975 34.08 22.2375 34.08ZM22.3175 33.59C22.6042 33.59 22.8542 33.5233 23.0675 33.39C23.2875 33.25 23.4608 33.06 23.5875 32.82C23.7142 32.58 23.7775 32.3067 23.7775 32V31.67H23.4775C22.8775 31.67 22.4075 31.6967 22.0675 31.75C21.7342 31.8033 21.5008 31.8967 21.3675 32.03C21.2342 32.1633 21.1675 32.3467 21.1675 32.58C21.1675 32.88 21.2708 33.1233 21.4775 33.31C21.6842 33.4967 21.9642 33.59 22.3175 33.59ZM25.8621 27.87V27.1H26.6821V27.87H25.8621ZM25.9621 34V29.15H26.5721V34H25.9621ZM28.1789 34V29.15H28.7789V30.02C28.9389 29.7 29.1689 29.46 29.4689 29.3C29.7689 29.14 30.1022 29.06 30.4689 29.06C31.6222 29.06 32.1989 29.6867 32.1989 30.94V34H31.5889V30.99C31.5889 30.51 31.4922 30.1567 31.2989 29.93C31.1056 29.7033 30.7989 29.59 30.3789 29.59C29.8989 29.59 29.5122 29.74 29.2189 30.04C28.9322 30.3333 28.7889 30.73 28.7889 31.23V34H28.1789ZM35.8846 34.08C35.1379 34.08 34.5479 33.86 34.1146 33.42C33.6879 32.9733 33.4746 32.3633 33.4746 31.59C33.4746 31.09 33.5713 30.65 33.7646 30.27C33.9579 29.89 34.2246 29.5933 34.5646 29.38C34.9113 29.1667 35.3079 29.06 35.7546 29.06C36.4013 29.06 36.9046 29.27 37.2646 29.69C37.6246 30.11 37.8046 30.6867 37.8046 31.42V31.7H34.0746C34.0946 32.3 34.2579 32.7633 34.5646 33.09C34.8779 33.41 35.3113 33.57 35.8646 33.57C36.1646 33.57 36.4446 33.5233 36.7046 33.43C36.9713 33.3367 37.2313 33.18 37.4846 32.96L37.7246 33.42C37.5113 33.6267 37.2379 33.79 36.9046 33.91C36.5713 34.0233 36.2313 34.08 35.8846 34.08ZM35.7646 29.55C35.2579 29.55 34.8613 29.71 34.5746 30.03C34.2946 30.3433 34.1313 30.75 34.0846 31.25H37.2546C37.2413 30.7167 37.1079 30.3 36.8546 30C36.6013 29.7 36.2379 29.55 35.7646 29.55ZM40.898 34.08C40.458 34.08 40.078 33.98 39.758 33.78C39.438 33.5733 39.188 33.2833 39.008 32.91C38.8347 32.53 38.748 32.0833 38.748 31.57C38.748 30.8033 38.9414 30.1933 39.328 29.74C39.7147 29.2867 40.238 29.06 40.898 29.06C41.2847 29.06 41.6247 29.15 41.918 29.33C42.218 29.5033 42.4414 29.7433 42.588 30.05V26.95H43.198V34H42.598V33.08C42.4514 33.3933 42.228 33.64 41.928 33.82C41.6347 33.9933 41.2914 34.08 40.898 34.08ZM40.978 33.57C41.4714 33.57 41.8647 33.3967 42.158 33.05C42.4514 32.6967 42.598 32.2033 42.598 31.57C42.598 30.9367 42.4514 30.4467 42.158 30.1C41.8647 29.7533 41.4714 29.58 40.978 29.58C40.4847 29.58 40.0914 29.7533 39.798 30.1C39.5114 30.4467 39.368 30.9367 39.368 31.57C39.368 32.2033 39.5114 32.6967 39.798 33.05C40.0914 33.3967 40.4847 33.57 40.978 33.57Z" fill="black"/>
<path d="M14 17H18" stroke="black" stroke-width="1.1" stroke-linecap="round"/>
<path d="M21 14L25 10" stroke="black" stroke-width="1.1" stroke-linecap="round"/>
</svg>
