<svg width="28" height="46" viewBox="0 0 28 46" fill="none" xmlns="http://www.w3.org/2000/svg">
<path d="M3.16102 39.08C2.61435 39.08 2.12102 39.01 1.68102 38.87C1.24768 38.7233 0.871016 38.51 0.551016 38.23L0.791016 37.72C1.13768 37.9933 1.49102 38.1967 1.85102 38.33C2.21768 38.4567 2.65435 38.52 3.16102 38.52C3.79435 38.52 4.26768 38.3967 4.58102 38.15C4.90102 37.9033 5.06102 37.58 5.06102 37.18C5.06102 36.8467 4.94435 36.5867 4.71102 36.4C4.48435 36.2133 4.10768 36.0667 3.58102 35.96L2.57102 35.75C1.94435 35.6233 1.47435 35.41 1.16102 35.11C0.854349 34.81 0.701016 34.41 0.701016 33.91C0.701016 33.5033 0.804349 33.1467 1.01102 32.84C1.22435 32.5333 1.51768 32.2967 1.89102 32.13C2.26435 31.9567 2.69435 31.87 3.18102 31.87C4.15435 31.87 4.93102 32.1633 5.51102 32.75L5.27102 33.25C4.96435 32.9633 4.64435 32.7567 4.31102 32.63C3.97768 32.4967 3.60102 32.43 3.18102 32.43C2.62102 32.43 2.17102 32.5633 1.83102 32.83C1.49768 33.0967 1.33102 33.4533 1.33102 33.9C1.33102 34.2533 1.43768 34.5333 1.65102 34.74C1.86435 34.94 2.20768 35.0867 2.68102 35.18L3.70102 35.39C4.37435 35.53 4.87435 35.74 5.20102 36.02C5.52768 36.2933 5.69102 36.67 5.69102 37.15C5.69102 37.53 5.58768 37.8667 5.38102 38.16C5.18102 38.4467 4.89102 38.6733 4.51102 38.84C4.13102 39 3.68102 39.08 3.16102 39.08ZM8.13664 39L6.37664 34.15H7.02664L8.45664 38.28L9.94664 34.15H10.5466L12.0066 38.29L13.4666 34.15H14.0966L12.3266 39H11.6966L10.2366 34.94L8.76664 39H8.13664ZM15.1063 32.87V32.1H15.9263V32.87H15.1063ZM15.2063 39V34.15H15.8163V39H15.2063ZM17.423 39V34.15H18.023V35.02C18.183 34.7 18.413 34.46 18.713 34.3C19.013 34.14 19.3464 34.06 19.713 34.06C20.8664 34.06 21.443 34.6867 21.443 35.94V39H20.833V35.99C20.833 35.51 20.7364 35.1567 20.543 34.93C20.3497 34.7033 20.043 34.59 19.623 34.59C19.143 34.59 18.7564 34.74 18.463 35.04C18.1764 35.3333 18.033 35.73 18.033 36.23V39H17.423ZM25.1288 40.88C24.2821 40.88 23.5788 40.6567 23.0188 40.21L23.2488 39.75C23.5554 39.97 23.8521 40.1267 24.1388 40.22C24.4254 40.32 24.7488 40.37 25.1088 40.37C25.5954 40.37 25.9654 40.2367 26.2188 39.97C26.4721 39.7033 26.5988 39.3167 26.5988 38.81V37.87C26.4588 38.19 26.2354 38.44 25.9288 38.62C25.6288 38.8 25.2854 38.89 24.8988 38.89C24.4454 38.89 24.0554 38.79 23.7288 38.59C23.4088 38.3833 23.1588 38.1 22.9788 37.74C22.8054 37.3733 22.7188 36.95 22.7188 36.47C22.7188 35.99 22.8054 35.57 22.9788 35.21C23.1588 34.85 23.4088 34.57 23.7288 34.37C24.0554 34.1633 24.4454 34.06 24.8988 34.06C25.2854 34.06 25.6288 34.15 25.9288 34.33C26.2288 34.51 26.4488 34.7567 26.5888 35.07V34.15H27.1888V38.72C27.1888 40.16 26.5021 40.88 25.1288 40.88ZM24.9688 38.37C25.4688 38.37 25.8654 38.2 26.1588 37.86C26.4521 37.5133 26.5988 37.05 26.5988 36.47C26.5988 35.89 26.4521 35.43 26.1588 35.09C25.8654 34.75 25.4688 34.58 24.9688 34.58C24.4621 34.58 24.0621 34.75 23.7688 35.09C23.4821 35.43 23.3388 35.89 23.3388 36.47C23.3388 37.05 23.4821 37.5133 23.7688 37.86C24.0621 38.2 24.4621 38.37 24.9688 38.37Z" fill="black"/>
<path d="M9 2C9 2 15 7 15 16C15 25 9 30 9 30" stroke="black" stroke-width="1.1" stroke-linecap="round" stroke-linejoin="round"/>
<path d="M18.1213 14L16 16.1213L18.1213 18.2426" stroke="black" stroke-width="1.1" stroke-linecap="round" stroke-linejoin="round"/>
</svg>
