<svg width="54" height="44" viewBox="0 0 54 44" fill="none" xmlns="http://www.w3.org/2000/svg">
<path d="M3.2225 37V30.5H0.5925V29.95H6.4725V30.5H3.8425V37H3.2225ZM8.64828 37.08C7.90161 37.08 7.31161 36.86 6.87828 36.42C6.45161 35.9733 6.23828 35.3633 6.23828 34.59C6.23828 34.09 6.33495 33.65 6.52828 33.27C6.72161 32.89 6.98828 32.5933 7.32828 32.38C7.67495 32.1667 8.07161 32.06 8.51828 32.06C9.16495 32.06 9.66828 32.27 10.0283 32.69C10.3883 33.11 10.5683 33.6867 10.5683 34.42V34.7H6.83828C6.85828 35.3 7.02161 35.7633 7.32828 36.09C7.64161 36.41 8.07495 36.57 8.62828 36.57C8.92828 36.57 9.20828 36.5233 9.46828 36.43C9.73495 36.3367 9.99495 36.18 10.2483 35.96L10.4883 36.42C10.2749 36.6267 10.0016 36.79 9.66828 36.91C9.33495 37.0233 8.99495 37.08 8.64828 37.08ZM8.52828 32.55C8.02161 32.55 7.62495 32.71 7.33828 33.03C7.05828 33.3433 6.89495 33.75 6.84828 34.25H10.0183C10.0049 33.7167 9.87161 33.3 9.61828 33C9.36495 32.7 9.00161 32.55 8.52828 32.55ZM13.6417 37.08C13.1017 37.08 12.6951 36.9333 12.4217 36.64C12.1551 36.3467 12.0217 35.9267 12.0217 35.38V32.64H11.0617V32.15H12.0217V30.65H12.6317V32.15H14.2017V32.64H12.6317V35.3C12.6317 35.7067 12.7151 36.0167 12.8817 36.23C13.0484 36.4433 13.3251 36.55 13.7117 36.55C13.8251 36.55 13.9351 36.5367 14.0417 36.51C14.1484 36.4833 14.2417 36.4533 14.3217 36.42L14.4417 36.9C14.3684 36.9467 14.2517 36.9867 14.0917 37.02C13.9317 37.06 13.7817 37.08 13.6417 37.08ZM15.1613 37V32.15H15.7613V33.03C15.9013 32.7233 16.1047 32.49 16.3713 32.33C16.638 32.17 16.978 32.0767 17.3913 32.05L17.6413 32.03L17.7013 32.56L17.2713 32.61C16.798 32.65 16.4313 32.8067 16.1713 33.08C15.9113 33.3467 15.7813 33.7067 15.7813 34.16V37H15.1613ZM20.0305 37.08C19.7038 37.08 19.4105 37.0167 19.1505 36.89C18.8971 36.7633 18.6938 36.59 18.5405 36.37C18.3938 36.15 18.3205 35.9033 18.3205 35.63C18.3205 35.27 18.4105 34.99 18.5905 34.79C18.7705 34.5833 19.0738 34.4367 19.5005 34.35C19.9271 34.2633 20.5138 34.22 21.2605 34.22H21.5705V33.86C21.5705 33.4133 21.4805 33.09 21.3005 32.89C21.1205 32.6833 20.8338 32.58 20.4405 32.58C20.1471 32.58 19.8638 32.6233 19.5905 32.71C19.3238 32.7967 19.0471 32.9333 18.7605 33.12L18.5205 32.65C18.7738 32.47 19.0738 32.3267 19.4205 32.22C19.7671 32.1133 20.1038 32.06 20.4305 32.06C21.0171 32.06 21.4505 32.21 21.7305 32.51C22.0171 32.81 22.1605 33.27 22.1605 33.89V37H21.5805V36.13C21.4471 36.43 21.2438 36.6633 20.9705 36.83C20.7038 36.9967 20.3905 37.08 20.0305 37.08ZM20.1105 36.59C20.3971 36.59 20.6471 36.5233 20.8605 36.39C21.0805 36.25 21.2538 36.06 21.3805 35.82C21.5071 35.58 21.5705 35.3067 21.5705 35V34.67H21.2705C20.6705 34.67 20.2005 34.6967 19.8605 34.75C19.5271 34.8033 19.2938 34.8967 19.1605 35.03C19.0271 35.1633 18.9605 35.3467 18.9605 35.58C18.9605 35.88 19.0638 36.1233 19.2705 36.31C19.4771 36.4967 19.7571 36.59 20.1105 36.59ZM23.7551 37V29.95H24.3651V32.99C24.5317 32.6833 24.7617 32.4533 25.0551 32.3C25.3551 32.14 25.6851 32.06 26.0451 32.06C27.1984 32.06 27.7751 32.6867 27.7751 33.94V37H27.1651V33.99C27.1651 33.51 27.0684 33.1567 26.8751 32.93C26.6817 32.7033 26.3751 32.59 25.9551 32.59C25.4751 32.59 25.0884 32.74 24.7951 33.04C24.5084 33.3333 24.3651 33.73 24.3651 34.23V37H23.7551ZM31.4608 37.08C30.7141 37.08 30.1241 36.86 29.6908 36.42C29.2641 35.9733 29.0508 35.3633 29.0508 34.59C29.0508 34.09 29.1474 33.65 29.3408 33.27C29.5341 32.89 29.8008 32.5933 30.1408 32.38C30.4874 32.1667 30.8841 32.06 31.3308 32.06C31.9774 32.06 32.4808 32.27 32.8408 32.69C33.2008 33.11 33.3808 33.6867 33.3808 34.42V34.7H29.6508C29.6708 35.3 29.8341 35.7633 30.1408 36.09C30.4541 36.41 30.8874 36.57 31.4408 36.57C31.7408 36.57 32.0208 36.5233 32.2808 36.43C32.5474 36.3367 32.8074 36.18 33.0608 35.96L33.3008 36.42C33.0874 36.6267 32.8141 36.79 32.4808 36.91C32.1474 37.0233 31.8074 37.08 31.4608 37.08ZM31.3408 32.55C30.8341 32.55 30.4374 32.71 30.1508 33.03C29.8708 33.3433 29.7074 33.75 29.6608 34.25H32.8308C32.8174 33.7167 32.6841 33.3 32.4308 33C32.1774 32.7 31.8141 32.55 31.3408 32.55ZM36.4742 37.08C36.0342 37.08 35.6542 36.98 35.3342 36.78C35.0142 36.5733 34.7642 36.2833 34.5842 35.91C34.4109 35.53 34.3242 35.0833 34.3242 34.57C34.3242 33.8033 34.5176 33.1933 34.9042 32.74C35.2909 32.2867 35.8142 32.06 36.4742 32.06C36.8609 32.06 37.2009 32.15 37.4942 32.33C37.7942 32.5033 38.0176 32.7433 38.1642 33.05V29.95H38.7742V37H38.1742V36.08C38.0276 36.3933 37.8042 36.64 37.5042 36.82C37.2109 36.9933 36.8676 37.08 36.4742 37.08ZM36.5542 36.57C37.0476 36.57 37.4409 36.3967 37.7342 36.05C38.0276 35.6967 38.1742 35.2033 38.1742 34.57C38.1742 33.9367 38.0276 33.4467 37.7342 33.1C37.4409 32.7533 37.0476 32.58 36.5542 32.58C36.0609 32.58 35.6676 32.7533 35.3742 33.1C35.0876 33.4467 34.9442 33.9367 34.9442 34.57C34.9442 35.2033 35.0876 35.6967 35.3742 36.05C35.6676 36.3967 36.0609 36.57 36.5542 36.57ZM40.3762 37V32.15H40.9762V33.03C41.1162 32.7233 41.3195 32.49 41.5862 32.33C41.8528 32.17 42.1928 32.0767 42.6062 32.05L42.8562 32.03L42.9162 32.56L42.4862 32.61C42.0128 32.65 41.6462 32.8067 41.3862 33.08C41.1262 33.3467 40.9962 33.7067 40.9962 34.16V37H40.3762ZM45.6655 37.08C45.2122 37.08 44.8189 36.98 44.4855 36.78C44.1522 36.5733 43.8922 36.2833 43.7055 35.91C43.5255 35.53 43.4355 35.0833 43.4355 34.57C43.4355 34.0633 43.5255 33.6233 43.7055 33.25C43.8922 32.87 44.1522 32.5767 44.4855 32.37C44.8189 32.1633 45.2122 32.06 45.6655 32.06C46.1255 32.06 46.5222 32.1633 46.8555 32.37C47.1889 32.5767 47.4455 32.87 47.6255 33.25C47.8122 33.6233 47.9055 34.0633 47.9055 34.57C47.9055 35.0833 47.8122 35.53 47.6255 35.91C47.4455 36.2833 47.1889 36.5733 46.8555 36.78C46.5222 36.98 46.1255 37.08 45.6655 37.08ZM45.6655 36.57C46.1589 36.57 46.5522 36.3967 46.8455 36.05C47.1389 35.6967 47.2855 35.2033 47.2855 34.57C47.2855 33.9367 47.1389 33.4467 46.8455 33.1C46.5522 32.7533 46.1589 32.58 45.6655 32.58C45.1722 32.58 44.7789 32.7533 44.4855 33.1C44.1989 33.4467 44.0555 33.9367 44.0555 34.57C44.0555 35.2033 44.1989 35.6967 44.4855 36.05C44.7789 36.3967 45.1722 36.57 45.6655 36.57ZM49.2043 37V32.15H49.8043V33.02C49.9643 32.7 50.1943 32.46 50.4943 32.3C50.7943 32.14 51.1276 32.06 51.4943 32.06C52.6476 32.06 53.2243 32.6867 53.2243 33.94V37H52.6143V33.99C52.6143 33.51 52.5176 33.1567 52.3243 32.93C52.131 32.7033 51.8243 32.59 51.4043 32.59C50.9243 32.59 50.5376 32.74 50.2443 33.04C49.9576 33.3333 49.8143 33.73 49.8143 34.23V37H49.2043Z" fill="black"/>
<path d="M26.5575 2.84067C26.745 2.48451 27.255 2.4845 27.4425 2.84067L36.6143 20.2671C36.7895 20.6001 36.5481 21 36.1718 21H17.8282C17.4519 21 17.2105 20.6001 17.3857 20.2671L26.5575 2.84067Z" stroke="black" stroke-width="1.1" stroke-linejoin="round"/>
<path d="M27.078 16.6985C27.078 16.6985 27.5092 15.5138 29.1521 11" stroke="black" stroke-width="1.1" stroke-linecap="round" stroke-linejoin="round"/>
<path d="M23.9999 16.6985C23.9999 16.6985 24.4311 15.5138 26.074 11" stroke="black" stroke-width="1.1" stroke-linecap="round" stroke-linejoin="round"/>
</svg>
