<svg width="90" height="40" viewBox="0 0 90 40" fill="none" xmlns="http://www.w3.org/2000/svg">
<path d="M2.81625 33V26.5H0.18625V25.95H6.06625V26.5H3.43625V33H2.81625ZM6.89375 33V25.95H7.50375V28.99C7.67042 28.6833 7.90042 28.4533 8.19375 28.3C8.49375 28.14 8.82375 28.06 9.18375 28.06C10.3371 28.06 10.9138 28.6867 10.9138 29.94V33H10.3038V29.99C10.3038 29.51 10.2071 29.1567 10.0138 28.93C9.82042 28.7033 9.51375 28.59 9.09375 28.59C8.61375 28.59 8.22708 28.74 7.93375 29.04C7.64708 29.3333 7.50375 29.73 7.50375 30.23V33H6.89375ZM14.5995 33.08C13.8528 33.08 13.2628 32.86 12.8295 32.42C12.4028 31.9733 12.1895 31.3633 12.1895 30.59C12.1895 30.09 12.2861 29.65 12.4795 29.27C12.6728 28.89 12.9395 28.5933 13.2795 28.38C13.6261 28.1667 14.0228 28.06 14.4695 28.06C15.1161 28.06 15.6195 28.27 15.9795 28.69C16.3395 29.11 16.5195 29.6867 16.5195 30.42V30.7H12.7895C12.8095 31.3 12.9728 31.7633 13.2795 32.09C13.5928 32.41 14.0261 32.57 14.5795 32.57C14.8795 32.57 15.1595 32.5233 15.4195 32.43C15.6861 32.3367 15.9461 32.18 16.1995 31.96L16.4395 32.42C16.2261 32.6267 15.9528 32.79 15.6195 32.91C15.2861 33.0233 14.9461 33.08 14.5995 33.08ZM14.4795 28.55C13.9728 28.55 13.5761 28.71 13.2895 29.03C13.0095 29.3433 12.8461 29.75 12.7995 30.25H15.9695C15.9561 29.7167 15.8228 29.3 15.5695 29C15.3161 28.7 14.9528 28.55 14.4795 28.55ZM17.7829 33V28.15H18.3829V29C18.6829 28.3733 19.1929 28.06 19.9129 28.06C20.6862 28.06 21.1762 28.3967 21.3829 29.07C21.5229 28.7567 21.7362 28.51 22.0229 28.33C22.3096 28.15 22.6429 28.06 23.0229 28.06C24.0962 28.06 24.6329 28.6867 24.6329 29.94V33H24.0229V29.99C24.0229 29.51 23.9362 29.1567 23.7629 28.93C23.5962 28.7033 23.3129 28.59 22.9129 28.59C22.4862 28.59 22.1462 28.74 21.8929 29.04C21.6396 29.3333 21.5129 29.7333 21.5129 30.24V33H20.9029V29.99C20.9029 29.51 20.8162 29.1567 20.6429 28.93C20.4762 28.7033 20.1962 28.59 19.8029 28.59C19.3696 28.59 19.0262 28.74 18.7729 29.04C18.5196 29.3333 18.3929 29.7333 18.3929 30.24V33H17.7829ZM28.3397 33.08C27.593 33.08 27.003 32.86 26.5697 32.42C26.143 31.9733 25.9297 31.3633 25.9297 30.59C25.9297 30.09 26.0264 29.65 26.2197 29.27C26.413 28.89 26.6797 28.5933 27.0197 28.38C27.3664 28.1667 27.763 28.06 28.2097 28.06C28.8564 28.06 29.3597 28.27 29.7197 28.69C30.0797 29.11 30.2597 29.6867 30.2597 30.42V30.7H26.5297C26.5497 31.3 26.713 31.7633 27.0197 32.09C27.333 32.41 27.7664 32.57 28.3197 32.57C28.6197 32.57 28.8997 32.5233 29.1597 32.43C29.4264 32.3367 29.6864 32.18 29.9397 31.96L30.1797 32.42C29.9664 32.6267 29.693 32.79 29.3597 32.91C29.0264 33.0233 28.6864 33.08 28.3397 33.08ZM28.2197 28.55C27.713 28.55 27.3164 28.71 27.0297 29.03C26.7497 29.3433 26.5864 29.75 26.5397 30.25H29.7097C29.6964 29.7167 29.563 29.3 29.3097 29C29.0564 28.7 28.693 28.55 28.2197 28.55ZM35.5129 33.08C35.1862 33.08 34.8929 33.0167 34.6329 32.89C34.3796 32.7633 34.1762 32.59 34.0229 32.37C33.8762 32.15 33.8029 31.9033 33.8029 31.63C33.8029 31.27 33.8929 30.99 34.0729 30.79C34.2529 30.5833 34.5562 30.4367 34.9829 30.35C35.4096 30.2633 35.9962 30.22 36.7429 30.22H37.0529V29.86C37.0529 29.4133 36.9629 29.09 36.7829 28.89C36.6029 28.6833 36.3162 28.58 35.9229 28.58C35.6296 28.58 35.3462 28.6233 35.0729 28.71C34.8062 28.7967 34.5296 28.9333 34.2429 29.12L34.0029 28.65C34.2562 28.47 34.5562 28.3267 34.9029 28.22C35.2496 28.1133 35.5862 28.06 35.9129 28.06C36.4996 28.06 36.9329 28.21 37.2129 28.51C37.4996 28.81 37.6429 29.27 37.6429 29.89V33H37.0629V32.13C36.9296 32.43 36.7262 32.6633 36.4529 32.83C36.1862 32.9967 35.8729 33.08 35.5129 33.08ZM35.5929 32.59C35.8796 32.59 36.1296 32.5233 36.3429 32.39C36.5629 32.25 36.7362 32.06 36.8629 31.82C36.9896 31.58 37.0529 31.3067 37.0529 31V30.67H36.7529C36.1529 30.67 35.6829 30.6967 35.3429 30.75C35.0096 30.8033 34.7762 30.8967 34.6429 31.03C34.5096 31.1633 34.4429 31.3467 34.4429 31.58C34.4429 31.88 34.5462 32.1233 34.7529 32.31C34.9596 32.4967 35.2396 32.59 35.5929 32.59ZM39.2375 33V28.15H39.8375V29.02C39.9975 28.7 40.2275 28.46 40.5275 28.3C40.8275 28.14 41.1608 28.06 41.5275 28.06C42.6808 28.06 43.2575 28.6867 43.2575 29.94V33H42.6475V29.99C42.6475 29.51 42.5508 29.1567 42.3575 28.93C42.1642 28.7033 41.8575 28.59 41.4375 28.59C40.9575 28.59 40.5708 28.74 40.2775 29.04C39.9908 29.3333 39.8475 29.73 39.8475 30.23V33H39.2375ZM46.6832 33.08C46.2432 33.08 45.8632 32.98 45.5432 32.78C45.2232 32.5733 44.9732 32.2833 44.7932 31.91C44.6199 31.53 44.5332 31.0833 44.5332 30.57C44.5332 29.8033 44.7265 29.1933 45.1132 28.74C45.4999 28.2867 46.0232 28.06 46.6832 28.06C47.0699 28.06 47.4099 28.15 47.7032 28.33C48.0032 28.5033 48.2265 28.7433 48.3732 29.05V25.95H48.9832V33H48.3832V32.08C48.2365 32.3933 48.0132 32.64 47.7132 32.82C47.4199 32.9933 47.0765 33.08 46.6832 33.08ZM46.7632 32.57C47.2565 32.57 47.6499 32.3967 47.9432 32.05C48.2365 31.6967 48.3832 31.2033 48.3832 30.57C48.3832 29.9367 48.2365 29.4467 47.9432 29.1C47.6499 28.7533 47.2565 28.58 46.7632 28.58C46.2699 28.58 45.8765 28.7533 45.5832 29.1C45.2965 29.4467 45.1532 29.9367 45.1532 30.57C45.1532 31.2033 45.2965 31.6967 45.5832 32.05C45.8765 32.3967 46.2699 32.57 46.7632 32.57ZM54.5349 33L52.4549 28.15H53.1349L54.8449 32.33L56.5849 28.15H57.2249L55.1449 33H54.5349ZM59.5852 33.08C59.2585 33.08 58.9652 33.0167 58.7052 32.89C58.4518 32.7633 58.2485 32.59 58.0952 32.37C57.9485 32.15 57.8752 31.9033 57.8752 31.63C57.8752 31.27 57.9652 30.99 58.1452 30.79C58.3252 30.5833 58.6285 30.4367 59.0552 30.35C59.4818 30.2633 60.0685 30.22 60.8152 30.22H61.1252V29.86C61.1252 29.4133 61.0352 29.09 60.8552 28.89C60.6752 28.6833 60.3885 28.58 59.9952 28.58C59.7018 28.58 59.4185 28.6233 59.1452 28.71C58.8785 28.7967 58.6018 28.9333 58.3152 29.12L58.0752 28.65C58.3285 28.47 58.6285 28.3267 58.9752 28.22C59.3218 28.1133 59.6585 28.06 59.9852 28.06C60.5718 28.06 61.0052 28.21 61.2852 28.51C61.5718 28.81 61.7152 29.27 61.7152 29.89V33H61.1352V32.13C61.0018 32.43 60.7985 32.6633 60.5252 32.83C60.2585 32.9967 59.9452 33.08 59.5852 33.08ZM59.6652 32.59C59.9518 32.59 60.2018 32.5233 60.4152 32.39C60.6352 32.25 60.8085 32.06 60.9352 31.82C61.0618 31.58 61.1252 31.3067 61.1252 31V30.67H60.8252C60.2252 30.67 59.7552 30.6967 59.4152 30.75C59.0818 30.8033 58.8485 30.8967 58.7152 31.03C58.5818 31.1633 58.5152 31.3467 58.5152 31.58C58.5152 31.88 58.6185 32.1233 58.8252 32.31C59.0318 32.4967 59.3118 32.59 59.6652 32.59ZM63.3098 33V28.15H63.9098V29.03C64.0498 28.7233 64.2531 28.49 64.5198 28.33C64.7864 28.17 65.1264 28.0767 65.5398 28.05L65.7898 28.03L65.8498 28.56L65.4198 28.61C64.9464 28.65 64.5798 28.8067 64.3198 29.08C64.0598 29.3467 63.9298 29.7067 63.9298 30.16V33H63.3098ZM66.6277 26.87V26.1H67.4477V26.87H66.6277ZM66.7277 33V28.15H67.3377V33H66.7277ZM70.4445 33.08C70.1179 33.08 69.8245 33.0167 69.5645 32.89C69.3112 32.7633 69.1079 32.59 68.9545 32.37C68.8079 32.15 68.7345 31.9033 68.7345 31.63C68.7345 31.27 68.8245 30.99 69.0045 30.79C69.1845 30.5833 69.4879 30.4367 69.9145 30.35C70.3412 30.2633 70.9279 30.22 71.6745 30.22H71.9845V29.86C71.9845 29.4133 71.8945 29.09 71.7145 28.89C71.5345 28.6833 71.2479 28.58 70.8545 28.58C70.5612 28.58 70.2779 28.6233 70.0045 28.71C69.7379 28.7967 69.4612 28.9333 69.1745 29.12L68.9345 28.65C69.1879 28.47 69.4879 28.3267 69.8345 28.22C70.1812 28.1133 70.5179 28.06 70.8445 28.06C71.4312 28.06 71.8645 28.21 72.1445 28.51C72.4312 28.81 72.5745 29.27 72.5745 29.89V33H71.9945V32.13C71.8612 32.43 71.6579 32.6633 71.3845 32.83C71.1179 32.9967 70.8045 33.08 70.4445 33.08ZM70.5245 32.59C70.8112 32.59 71.0612 32.5233 71.2745 32.39C71.4945 32.25 71.6679 32.06 71.7945 31.82C71.9212 31.58 71.9845 31.3067 71.9845 31V30.67H71.6845C71.0845 30.67 70.6145 30.6967 70.2745 30.75C69.9412 30.8033 69.7079 30.8967 69.5745 31.03C69.4412 31.1633 69.3745 31.3467 69.3745 31.58C69.3745 31.88 69.4779 32.1233 69.6845 32.31C69.8912 32.4967 70.1712 32.59 70.5245 32.59ZM75.9991 33.08C75.4591 33.08 75.0525 32.9333 74.7791 32.64C74.5125 32.3467 74.3791 31.9267 74.3791 31.38V28.64H73.4191V28.15H74.3791V26.65H74.9891V28.15H76.5591V28.64H74.9891V31.3C74.9891 31.7067 75.0725 32.0167 75.2391 32.23C75.4058 32.4433 75.6825 32.55 76.0691 32.55C76.1825 32.55 76.2925 32.5367 76.3991 32.51C76.5058 32.4833 76.5991 32.4533 76.6791 32.42L76.7991 32.9C76.7258 32.9467 76.6091 32.9867 76.4491 33.02C76.2891 33.06 76.1391 33.08 75.9991 33.08ZM77.4188 26.87V26.1H78.2388V26.87H77.4188ZM77.5188 33V28.15H78.1288V33H77.5188ZM81.6655 33.08C81.2122 33.08 80.8189 32.98 80.4855 32.78C80.1522 32.5733 79.8922 32.2833 79.7055 31.91C79.5255 31.53 79.4355 31.0833 79.4355 30.57C79.4355 30.0633 79.5255 29.6233 79.7055 29.25C79.8922 28.87 80.1522 28.5767 80.4855 28.37C80.8189 28.1633 81.2122 28.06 81.6655 28.06C82.1255 28.06 82.5222 28.1633 82.8555 28.37C83.1889 28.5767 83.4455 28.87 83.6255 29.25C83.8122 29.6233 83.9055 30.0633 83.9055 30.57C83.9055 31.0833 83.8122 31.53 83.6255 31.91C83.4455 32.2833 83.1889 32.5733 82.8555 32.78C82.5222 32.98 82.1255 33.08 81.6655 33.08ZM81.6655 32.57C82.1589 32.57 82.5522 32.3967 82.8455 32.05C83.1389 31.6967 83.2855 31.2033 83.2855 30.57C83.2855 29.9367 83.1389 29.4467 82.8455 29.1C82.5522 28.7533 82.1589 28.58 81.6655 28.58C81.1722 28.58 80.7789 28.7533 80.4855 29.1C80.1989 29.4467 80.0555 29.9367 80.0555 30.57C80.0555 31.2033 80.1989 31.6967 80.4855 32.05C80.7789 32.3967 81.1722 32.57 81.6655 32.57ZM85.2043 33V28.15H85.8043V29.02C85.9643 28.7 86.1943 28.46 86.4943 28.3C86.7943 28.14 87.1276 28.06 87.4943 28.06C88.6476 28.06 89.2243 28.6867 89.2243 29.94V33H88.6143V29.99C88.6143 29.51 88.5176 29.1567 88.3243 28.93C88.131 28.7033 87.8243 28.59 87.4043 28.59C86.9243 28.59 86.5376 28.74 86.2443 29.04C85.9576 29.3333 85.8143 29.73 85.8143 30.23V33H85.2043Z" fill="black"/>
<path d="M45 1L45 10" stroke="black" stroke-width="1.1" stroke-linecap="round"/>
<path d="M45 13L45 22" stroke="black" stroke-width="1.1" stroke-linecap="round"/>
</svg>
