<svg width="29" height="44" viewBox="0 0 29 44" fill="none" xmlns="http://www.w3.org/2000/svg">
<path d="M3.10531 37V30.5H0.475313V29.95H6.35531V30.5H3.72531V37H3.10531ZM8.35109 37.08C7.89776 37.08 7.50443 36.98 7.17109 36.78C6.83776 36.5733 6.57776 36.2833 6.39109 35.91C6.21109 35.53 6.12109 35.0833 6.12109 34.57C6.12109 34.0633 6.21109 33.6233 6.39109 33.25C6.57776 32.87 6.83776 32.5767 7.17109 32.37C7.50443 32.1633 7.89776 32.06 8.35109 32.06C8.81109 32.06 9.20776 32.1633 9.54109 32.37C9.87443 32.5767 10.1311 32.87 10.3111 33.25C10.4978 33.6233 10.5911 34.0633 10.5911 34.57C10.5911 35.0833 10.4978 35.53 10.3111 35.91C10.1311 36.2833 9.87443 36.5733 9.54109 36.78C9.20776 36.98 8.81109 37.08 8.35109 37.08ZM8.35109 36.57C8.84443 36.57 9.23776 36.3967 9.53109 36.05C9.82443 35.6967 9.97109 35.2033 9.97109 34.57C9.97109 33.9367 9.82443 33.4467 9.53109 33.1C9.23776 32.7533 8.84443 32.58 8.35109 32.58C7.85776 32.58 7.46443 32.7533 7.17109 33.1C6.88443 33.4467 6.74109 33.9367 6.74109 34.57C6.74109 35.2033 6.88443 35.6967 7.17109 36.05C7.46443 36.3967 7.85776 36.57 8.35109 36.57ZM13.9998 37.08C13.2532 37.08 12.6632 36.86 12.2298 36.42C11.8032 35.9733 11.5898 35.3633 11.5898 34.59C11.5898 34.09 11.6865 33.65 11.8798 33.27C12.0732 32.89 12.3398 32.5933 12.6798 32.38C13.0265 32.1667 13.4232 32.06 13.8698 32.06C14.5165 32.06 15.0198 32.27 15.3798 32.69C15.7398 33.11 15.9198 33.6867 15.9198 34.42V34.7H12.1898C12.2098 35.3 12.3732 35.7633 12.6798 36.09C12.9932 36.41 13.4265 36.57 13.9798 36.57C14.2798 36.57 14.5598 36.5233 14.8198 36.43C15.0865 36.3367 15.3465 36.18 15.5998 35.96L15.8398 36.42C15.6265 36.6267 15.3532 36.79 15.0198 36.91C14.6865 37.0233 14.3465 37.08 13.9998 37.08ZM13.8798 32.55C13.3732 32.55 12.9765 32.71 12.6898 33.03C12.4098 33.3433 12.2465 33.75 12.1998 34.25H15.3698C15.3565 33.7167 15.2232 33.3 14.9698 33C14.7165 32.7 14.3532 32.55 13.8798 32.55ZM18.7433 37.08C18.3833 37.08 18.0366 37.0267 17.7033 36.92C17.3766 36.8133 17.1066 36.66 16.8933 36.46L17.1133 36.01C17.3599 36.21 17.6233 36.3567 17.9033 36.45C18.1833 36.5367 18.4699 36.58 18.7633 36.58C19.1766 36.58 19.4866 36.5067 19.6933 36.36C19.9066 36.2067 20.0133 35.9967 20.0133 35.73C20.0133 35.5233 19.9433 35.36 19.8033 35.24C19.6633 35.12 19.4433 35.0233 19.1433 34.95L18.2733 34.75C17.4533 34.5633 17.0433 34.14 17.0433 33.48C17.0433 33.0533 17.2099 32.71 17.5433 32.45C17.8766 32.19 18.3166 32.06 18.8633 32.06C19.1966 32.06 19.5099 32.1167 19.8033 32.23C20.0966 32.3367 20.3366 32.4933 20.5233 32.7L20.2833 33.15C20.0899 32.9567 19.8699 32.8133 19.6233 32.72C19.3766 32.62 19.1199 32.57 18.8533 32.57C18.4666 32.57 18.1666 32.65 17.9533 32.81C17.7466 32.97 17.6433 33.1867 17.6433 33.46C17.6433 33.6667 17.7066 33.8333 17.8333 33.96C17.9599 34.0867 18.1666 34.1833 18.4533 34.25L19.3233 34.45C19.7566 34.55 20.0799 34.7 20.2933 34.9C20.5066 35.0933 20.6133 35.3567 20.6133 35.69C20.6133 36.1233 20.4433 36.4633 20.1033 36.71C19.7633 36.9567 19.3099 37.08 18.7433 37.08ZM24.5684 37V29.95H25.1784V36.45H28.8584V37H24.5684Z" fill="black"/>
<path d="M17 4.5L17 19.5" stroke="black" stroke-width="1.1" stroke-linecap="round" stroke-linejoin="round"/>
<path d="M11 10L17 10" stroke="black" stroke-width="1.1" stroke-linecap="round" stroke-linejoin="round"/>
<path d="M11 6L17 6" stroke="black" stroke-width="1.1" stroke-linecap="round" stroke-linejoin="round"/>
<path d="M11 14L17 14" stroke="black" stroke-width="1.1" stroke-linecap="round" stroke-linejoin="round"/>
<path d="M11 18L17 18" stroke="black" stroke-width="1.1" stroke-linecap="round" stroke-linejoin="round"/>
</svg>
