<svg width="30" height="40" viewBox="0 0 30 40" fill="none" xmlns="http://www.w3.org/2000/svg">
<path d="M2.84555 33V26.5H0.215547V25.95H6.09555V26.5H3.46555V33H2.84555ZM8.09133 33.08C7.63799 33.08 7.24466 32.98 6.91133 32.78C6.57799 32.5733 6.31799 32.2833 6.13133 31.91C5.95133 31.53 5.86133 31.0833 5.86133 30.57C5.86133 30.0633 5.95133 29.6233 6.13133 29.25C6.31799 28.87 6.57799 28.5767 6.91133 28.37C7.24466 28.1633 7.63799 28.06 8.09133 28.06C8.55133 28.06 8.94799 28.1633 9.28133 28.37C9.61466 28.5767 9.87133 28.87 10.0513 29.25C10.238 29.6233 10.3313 30.0633 10.3313 30.57C10.3313 31.0833 10.238 31.53 10.0513 31.91C9.87133 32.2833 9.61466 32.5733 9.28133 32.78C8.94799 32.98 8.55133 33.08 8.09133 33.08ZM8.09133 32.57C8.58466 32.57 8.97799 32.3967 9.27133 32.05C9.56466 31.6967 9.71133 31.2033 9.71133 30.57C9.71133 29.9367 9.56466 29.4467 9.27133 29.1C8.97799 28.7533 8.58466 28.58 8.09133 28.58C7.59799 28.58 7.20466 28.7533 6.91133 29.1C6.62466 29.4467 6.48133 29.9367 6.48133 30.57C6.48133 31.2033 6.62466 31.6967 6.91133 32.05C7.20466 32.3967 7.59799 32.57 8.09133 32.57ZM13.7401 33.08C12.9934 33.08 12.4034 32.86 11.9701 32.42C11.5434 31.9733 11.3301 31.3633 11.3301 30.59C11.3301 30.09 11.4267 29.65 11.6201 29.27C11.8134 28.89 12.0801 28.5933 12.4201 28.38C12.7667 28.1667 13.1634 28.06 13.6101 28.06C14.2567 28.06 14.7601 28.27 15.1201 28.69C15.4801 29.11 15.6601 29.6867 15.6601 30.42V30.7H11.9301C11.9501 31.3 12.1134 31.7633 12.4201 32.09C12.7334 32.41 13.1667 32.57 13.7201 32.57C14.0201 32.57 14.3001 32.5233 14.5601 32.43C14.8267 32.3367 15.0867 32.18 15.3401 31.96L15.5801 32.42C15.3667 32.6267 15.0934 32.79 14.7601 32.91C14.4267 33.0233 14.0867 33.08 13.7401 33.08ZM13.6201 28.55C13.1134 28.55 12.7167 28.71 12.4301 29.03C12.1501 29.3433 11.9867 29.75 11.9401 30.25H15.1101C15.0967 29.7167 14.9634 29.3 14.7101 29C14.4567 28.7 14.0934 28.55 13.6201 28.55ZM18.4835 33.08C18.1235 33.08 17.7768 33.0267 17.4435 32.92C17.1168 32.8133 16.8468 32.66 16.6335 32.46L16.8535 32.01C17.1002 32.21 17.3635 32.3567 17.6435 32.45C17.9235 32.5367 18.2102 32.58 18.5035 32.58C18.9168 32.58 19.2268 32.5067 19.4335 32.36C19.6468 32.2067 19.7535 31.9967 19.7535 31.73C19.7535 31.5233 19.6835 31.36 19.5435 31.24C19.4035 31.12 19.1835 31.0233 18.8835 30.95L18.0135 30.75C17.1935 30.5633 16.7835 30.14 16.7835 29.48C16.7835 29.0533 16.9502 28.71 17.2835 28.45C17.6168 28.19 18.0568 28.06 18.6035 28.06C18.9368 28.06 19.2502 28.1167 19.5435 28.23C19.8368 28.3367 20.0768 28.4933 20.2635 28.7L20.0235 29.15C19.8302 28.9567 19.6102 28.8133 19.3635 28.72C19.1168 28.62 18.8602 28.57 18.5935 28.57C18.2068 28.57 17.9068 28.65 17.6935 28.81C17.4868 28.97 17.3835 29.1867 17.3835 29.46C17.3835 29.6667 17.4468 29.8333 17.5735 29.96C17.7002 30.0867 17.9068 30.1833 18.1935 30.25L19.0635 30.45C19.4968 30.55 19.8202 30.7 20.0335 30.9C20.2468 31.0933 20.3535 31.3567 20.3535 31.69C20.3535 32.1233 20.1835 32.4633 19.8435 32.71C19.5035 32.9567 19.0502 33.08 18.4835 33.08ZM24.3087 33V25.95H26.9687C27.722 25.95 28.2953 26.1233 28.6887 26.47C29.0887 26.8167 29.2887 27.31 29.2887 27.95C29.2887 28.4767 29.1453 28.9033 28.8587 29.23C28.572 29.5567 28.1653 29.7667 27.6387 29.86C27.9253 29.9667 28.1787 30.2267 28.3987 30.64L29.6787 33H29.0087L27.7887 30.74C27.6153 30.4267 27.422 30.2167 27.2087 30.11C26.9953 30.0033 26.7087 29.95 26.3487 29.95H24.9187V33H24.3087ZM24.9187 29.43H26.8887C28.0753 29.43 28.6687 28.9367 28.6687 27.95C28.6687 26.97 28.0753 26.48 26.8887 26.48H24.9187V29.43Z" fill="black"/>
<path d="M12 4.5L12 19.5" stroke="black" stroke-width="1.1" stroke-linecap="round" stroke-linejoin="round"/>
<path d="M18 10L12 10" stroke="black" stroke-width="1.1" stroke-linecap="round" stroke-linejoin="round"/>
<path d="M18 6L12 6" stroke="black" stroke-width="1.1" stroke-linecap="round" stroke-linejoin="round"/>
<path d="M18 14L12 14" stroke="black" stroke-width="1.1" stroke-linecap="round" stroke-linejoin="round"/>
<path d="M18 18L12 18" stroke="black" stroke-width="1.1" stroke-linecap="round" stroke-linejoin="round"/>
</svg>
