<svg width="27" height="44" viewBox="0 0 27 44" fill="none" xmlns="http://www.w3.org/2000/svg">
<path d="M3.30258 37V30.5H0.672578V29.95H6.55258V30.5H3.92258V37H3.30258ZM8.54836 37.08C8.09503 37.08 7.70169 36.98 7.36836 36.78C7.03503 36.5733 6.77503 36.2833 6.58836 35.91C6.40836 35.53 6.31836 35.0833 6.31836 34.57C6.31836 34.0633 6.40836 33.6233 6.58836 33.25C6.77503 32.87 7.03503 32.5767 7.36836 32.37C7.70169 32.1633 8.09503 32.06 8.54836 32.06C9.00836 32.06 9.40503 32.1633 9.73836 32.37C10.0717 32.5767 10.3284 32.87 10.5084 33.25C10.695 33.6233 10.7884 34.0633 10.7884 34.57C10.7884 35.0833 10.695 35.53 10.5084 35.91C10.3284 36.2833 10.0717 36.5733 9.73836 36.78C9.40503 36.98 9.00836 37.08 8.54836 37.08ZM8.54836 36.57C9.04169 36.57 9.43503 36.3967 9.72836 36.05C10.0217 35.6967 10.1684 35.2033 10.1684 34.57C10.1684 33.9367 10.0217 33.4467 9.72836 33.1C9.43503 32.7533 9.04169 32.58 8.54836 32.58C8.05503 32.58 7.66169 32.7533 7.36836 33.1C7.08169 33.4467 6.93836 33.9367 6.93836 34.57C6.93836 35.2033 7.08169 35.6967 7.36836 36.05C7.66169 36.3967 8.05503 36.57 8.54836 36.57ZM13.7971 37.08C12.6438 37.08 12.0671 36.4533 12.0671 35.2V32.15H12.6771V35.17C12.6771 35.6433 12.7738 35.9933 12.9671 36.22C13.1604 36.4467 13.4638 36.56 13.8771 36.56C14.3238 36.56 14.6871 36.41 14.9671 36.11C15.2538 35.81 15.3971 35.41 15.3971 34.91V32.15H16.0071V37H15.4171V36.14C15.2571 36.4467 15.0338 36.68 14.7471 36.84C14.4671 37 14.1504 37.08 13.7971 37.08ZM19.5945 37.08C19.1211 37.08 18.7145 36.9767 18.3745 36.77C18.0345 36.5567 17.7711 36.26 17.5845 35.88C17.4045 35.4933 17.3145 35.0467 17.3145 34.54C17.3145 33.7733 17.5145 33.17 17.9145 32.73C18.3211 32.2833 18.8811 32.06 19.5945 32.06C19.8878 32.06 20.1778 32.1167 20.4645 32.23C20.7511 32.3433 20.9911 32.5 21.1845 32.7L20.9445 33.16C20.7378 32.96 20.5178 32.8167 20.2845 32.73C20.0511 32.6367 19.8278 32.59 19.6145 32.59C19.0745 32.59 18.6578 32.76 18.3645 33.1C18.0778 33.44 17.9345 33.9233 17.9345 34.55C17.9345 35.1767 18.0778 35.67 18.3645 36.03C18.6578 36.3833 19.0745 36.56 19.6145 36.56C19.8278 36.56 20.0511 36.5167 20.2845 36.43C20.5178 36.3367 20.7378 36.19 20.9445 35.99L21.1845 36.45C20.9911 36.6433 20.7478 36.7967 20.4545 36.91C20.1678 37.0233 19.8811 37.08 19.5945 37.08ZM22.2043 37V29.95H22.8143V32.99C22.981 32.6833 23.211 32.4533 23.5043 32.3C23.8043 32.14 24.1343 32.06 24.4943 32.06C25.6476 32.06 26.2243 32.6867 26.2243 33.94V37H25.6143V33.99C25.6143 33.51 25.5176 33.1567 25.3243 32.93C25.131 32.7033 24.8243 32.59 24.4043 32.59C23.9243 32.59 23.5376 32.74 23.2443 33.04C22.9576 33.3333 22.8143 33.73 22.8143 34.23V37H22.2043Z" fill="black"/>
<circle cx="14" cy="7" r="4" stroke="black" stroke-width="1.1"/>
<path d="M5.5 3.5L13.5436 21.4798C13.72 21.8742 14.28 21.8742 14.4564 21.4798L22.5 3.5" stroke="black" stroke-width="1.1" stroke-linecap="round" stroke-linejoin="round"/>
</svg>
