<svg width="48" height="44" viewBox="0 0 48 44" fill="none" xmlns="http://www.w3.org/2000/svg">
<path d="M2.89633 37V30.5H0.266328V29.95H6.14633V30.5H3.51633V37H2.89633ZM6.21211 37V32.15H6.81211V33.03C6.95211 32.7233 7.15544 32.49 7.42211 32.33C7.68878 32.17 8.02878 32.0767 8.44211 32.05L8.69211 32.03L8.75211 32.56L8.32211 32.61C7.84878 32.65 7.48211 32.8067 7.22211 33.08C6.96211 33.3467 6.83211 33.7067 6.83211 34.16V37H6.21211ZM11.0813 37.08C10.7546 37.08 10.4613 37.0167 10.2013 36.89C9.94792 36.7633 9.74458 36.59 9.59125 36.37C9.44458 36.15 9.37125 35.9033 9.37125 35.63C9.37125 35.27 9.46125 34.99 9.64125 34.79C9.82125 34.5833 10.1246 34.4367 10.5513 34.35C10.9779 34.2633 11.5646 34.22 12.3113 34.22H12.6213V33.86C12.6213 33.4133 12.5313 33.09 12.3513 32.89C12.1713 32.6833 11.8846 32.58 11.4913 32.58C11.1979 32.58 10.9146 32.6233 10.6413 32.71C10.3746 32.7967 10.0979 32.9333 9.81125 33.12L9.57125 32.65C9.82458 32.47 10.1246 32.3267 10.4713 32.22C10.8179 32.1133 11.1546 32.06 11.4813 32.06C12.0679 32.06 12.5013 32.21 12.7813 32.51C13.0679 32.81 13.2113 33.27 13.2113 33.89V37H12.6313V36.13C12.4979 36.43 12.2946 36.6633 12.0213 36.83C11.7546 36.9967 11.4413 37.08 11.0813 37.08ZM11.1613 36.59C11.4479 36.59 11.6979 36.5233 11.9113 36.39C12.1313 36.25 12.3046 36.06 12.4313 35.82C12.5579 35.58 12.6213 35.3067 12.6213 35V34.67H12.3213C11.7212 34.67 11.2513 34.6967 10.9113 34.75C10.5779 34.8033 10.3446 34.8967 10.2113 35.03C10.0779 35.1633 10.0113 35.3467 10.0113 35.58C10.0113 35.88 10.1146 36.1233 10.3213 36.31C10.5279 36.4967 10.8079 36.59 11.1613 36.59ZM14.8059 37V32.15H15.4059V33.02C15.5659 32.7 15.7959 32.46 16.0959 32.3C16.3959 32.14 16.7292 32.06 17.0959 32.06C18.2492 32.06 18.8259 32.6867 18.8259 33.94V37H18.2159V33.99C18.2159 33.51 18.1192 33.1567 17.9259 32.93C17.7325 32.7033 17.4259 32.59 17.0059 32.59C16.5259 32.59 16.1392 32.74 15.8459 33.04C15.5592 33.3333 15.4159 33.73 15.4159 34.23V37H14.8059ZM21.9816 37.08C21.6216 37.08 21.2749 37.0267 20.9416 36.92C20.6149 36.8133 20.3449 36.66 20.1316 36.46L20.3516 36.01C20.5982 36.21 20.8616 36.3567 21.1416 36.45C21.4216 36.5367 21.7082 36.58 22.0016 36.58C22.4149 36.58 22.7249 36.5067 22.9316 36.36C23.1449 36.2067 23.2516 35.9967 23.2516 35.73C23.2516 35.5233 23.1816 35.36 23.0416 35.24C22.9016 35.12 22.6816 35.0233 22.3816 34.95L21.5116 34.75C20.6916 34.5633 20.2816 34.14 20.2816 33.48C20.2816 33.0533 20.4482 32.71 20.7816 32.45C21.1149 32.19 21.5549 32.06 22.1016 32.06C22.4349 32.06 22.7482 32.1167 23.0416 32.23C23.3349 32.3367 23.5749 32.4933 23.7616 32.7L23.5216 33.15C23.3282 32.9567 23.1082 32.8133 22.8616 32.72C22.6149 32.62 22.3582 32.57 22.0916 32.57C21.7049 32.57 21.4049 32.65 21.1916 32.81C20.9849 32.97 20.8816 33.1867 20.8816 33.46C20.8816 33.6667 20.9449 33.8333 21.0716 33.96C21.1982 34.0867 21.4049 34.1833 21.6916 34.25L22.5616 34.45C22.9949 34.55 23.3182 34.7 23.5316 34.9C23.7449 35.0933 23.8516 35.3567 23.8516 35.69C23.8516 36.1233 23.6816 36.4633 23.3416 36.71C23.0016 36.9567 22.5482 37.08 21.9816 37.08ZM26.5193 37L24.4393 32.15H25.1193L26.8293 36.33L28.5693 32.15H29.2093L27.1293 37H26.5193ZM32.2186 37.08C31.4719 37.08 30.8819 36.86 30.4486 36.42C30.0219 35.9733 29.8086 35.3633 29.8086 34.59C29.8086 34.09 29.9053 33.65 30.0986 33.27C30.2919 32.89 30.5586 32.5933 30.8986 32.38C31.2453 32.1667 31.6419 32.06 32.0886 32.06C32.7353 32.06 33.2386 32.27 33.5986 32.69C33.9586 33.11 34.1386 33.6867 34.1386 34.42V34.7H30.4086C30.4286 35.3 30.5919 35.7633 30.8986 36.09C31.2119 36.41 31.6453 36.57 32.1986 36.57C32.4986 36.57 32.7786 36.5233 33.0386 36.43C33.3053 36.3367 33.5653 36.18 33.8186 35.96L34.0586 36.42C33.8453 36.6267 33.5719 36.79 33.2386 36.91C32.9053 37.0233 32.5653 37.08 32.2186 37.08ZM32.0986 32.55C31.5919 32.55 31.1953 32.71 30.9086 33.03C30.6286 33.3433 30.4653 33.75 30.4186 34.25H33.5886C33.5753 33.7167 33.4419 33.3 33.1886 33C32.9353 32.7 32.5719 32.55 32.0986 32.55ZM35.382 37V32.15H35.982V33.03C36.122 32.7233 36.3254 32.49 36.592 32.33C36.8587 32.17 37.1987 32.0767 37.612 32.05L37.862 32.03L37.922 32.56L37.492 32.61C37.0187 32.65 36.652 32.8067 36.392 33.08C36.132 33.3467 36.002 33.7067 36.002 34.16V37H35.382ZM40.3312 37.08C39.9712 37.08 39.6245 37.0267 39.2912 36.92C38.9645 36.8133 38.6945 36.66 38.4812 36.46L38.7012 36.01C38.9478 36.21 39.2112 36.3567 39.4912 36.45C39.7712 36.5367 40.0578 36.58 40.3512 36.58C40.7645 36.58 41.0745 36.5067 41.2812 36.36C41.4945 36.2067 41.6012 35.9967 41.6012 35.73C41.6012 35.5233 41.5312 35.36 41.3912 35.24C41.2512 35.12 41.0312 35.0233 40.7312 34.95L39.8612 34.75C39.0412 34.5633 38.6312 34.14 38.6312 33.48C38.6312 33.0533 38.7978 32.71 39.1312 32.45C39.4645 32.19 39.9045 32.06 40.4512 32.06C40.7845 32.06 41.0978 32.1167 41.3912 32.23C41.6845 32.3367 41.9245 32.4933 42.1112 32.7L41.8712 33.15C41.6778 32.9567 41.4578 32.8133 41.2112 32.72C40.9645 32.62 40.7078 32.57 40.4412 32.57C40.0545 32.57 39.7545 32.65 39.5412 32.81C39.3345 32.97 39.2312 33.1867 39.2312 33.46C39.2312 33.6667 39.2945 33.8333 39.4212 33.96C39.5478 34.0867 39.7545 34.1833 40.0412 34.25L40.9112 34.45C41.3445 34.55 41.6678 34.7 41.8812 34.9C42.0945 35.0933 42.2012 35.3567 42.2012 35.69C42.2012 36.1233 42.0312 36.4633 41.6912 36.71C41.3512 36.9567 40.8978 37.08 40.3312 37.08ZM45.6366 37.08C44.8899 37.08 44.2999 36.86 43.8666 36.42C43.4399 35.9733 43.2266 35.3633 43.2266 34.59C43.2266 34.09 43.3232 33.65 43.5166 33.27C43.7099 32.89 43.9766 32.5933 44.3166 32.38C44.6632 32.1667 45.0599 32.06 45.5066 32.06C46.1532 32.06 46.6566 32.27 47.0166 32.69C47.3766 33.11 47.5566 33.6867 47.5566 34.42V34.7H43.8266C43.8466 35.3 44.0099 35.7633 44.3166 36.09C44.6299 36.41 45.0632 36.57 45.6166 36.57C45.9166 36.57 46.1966 36.5233 46.4566 36.43C46.7232 36.3367 46.9832 36.18 47.2366 35.96L47.4766 36.42C47.2632 36.6267 46.9899 36.79 46.6566 36.91C46.3232 37.0233 45.9832 37.08 45.6366 37.08ZM45.5166 32.55C45.0099 32.55 44.6132 32.71 44.3266 33.03C44.0466 33.3433 43.8832 33.75 43.8366 34.25H47.0066C46.9932 33.7167 46.8599 33.3 46.6066 33C46.3532 32.7 45.9899 32.55 45.5166 32.55Z" fill="black"/>
<circle cx="24" cy="12" r="9" stroke="black" stroke-width="1.1"/>
<path d="M32.5384 9.1115L28.9162 8.14093V8.14093C26.9157 7.6049 24.8595 8.79208 24.3234 10.7926L23.9999 12L23.7411 12.9659C23.1693 15.0998 20.976 16.3661 18.8421 15.7943L18.6006 15.7296L15.4614 14.8885" stroke="black" stroke-width="1.1" stroke-linecap="round" stroke-linejoin="round"/>
<path d="M25.5869 13.7746L24.319 11.0557L21.6001 12.3235" stroke="black" stroke-width="1.1" stroke-linecap="round" stroke-linejoin="round"/>
</svg>
