<svg width="27" height="44" viewBox="0 0 27 44" fill="none" xmlns="http://www.w3.org/2000/svg">
<path d="M2.785 37V30.5H0.155V29.95H6.035V30.5H3.405V37H2.785ZM6.10078 37V32.15H6.70078V33.03C6.84078 32.7233 7.04411 32.49 7.31078 32.33C7.57745 32.17 7.91745 32.0767 8.33078 32.05L8.58078 32.03L8.64078 32.56L8.21078 32.61C7.73745 32.65 7.37078 32.8067 7.11078 33.08C6.85078 33.3467 6.72078 33.7067 6.72078 34.16V37H6.10078ZM10.9699 37.08C10.6433 37.08 10.3499 37.0167 10.0899 36.89C9.83659 36.7633 9.63326 36.59 9.47992 36.37C9.33326 36.15 9.25992 35.9033 9.25992 35.63C9.25992 35.27 9.34992 34.99 9.52992 34.79C9.70992 34.5833 10.0133 34.4367 10.4399 34.35C10.8666 34.2633 11.4533 34.22 12.1999 34.22H12.5099V33.86C12.5099 33.4133 12.4199 33.09 12.2399 32.89C12.0599 32.6833 11.7733 32.58 11.3799 32.58C11.0866 32.58 10.8033 32.6233 10.5299 32.71C10.2633 32.7967 9.98659 32.9333 9.69992 33.12L9.45992 32.65C9.71326 32.47 10.0133 32.3267 10.3599 32.22C10.7066 32.1133 11.0433 32.06 11.3699 32.06C11.9566 32.06 12.3899 32.21 12.6699 32.51C12.9566 32.81 13.0999 33.27 13.0999 33.89V37H12.5199V36.13C12.3866 36.43 12.1833 36.6633 11.9099 36.83C11.6433 36.9967 11.3299 37.08 10.9699 37.08ZM11.0499 36.59C11.3366 36.59 11.5866 36.5233 11.7999 36.39C12.0199 36.25 12.1933 36.06 12.3199 35.82C12.4466 35.58 12.5099 35.3067 12.5099 35V34.67H12.2099C11.6099 34.67 11.1399 34.6967 10.7999 34.75C10.4666 34.8033 10.2333 34.8967 10.0999 35.03C9.96659 35.1633 9.89992 35.3467 9.89992 35.58C9.89992 35.88 10.0033 36.1233 10.2099 36.31C10.4166 36.4967 10.6966 36.59 11.0499 36.59ZM16.0857 37L14.0057 32.15H14.6857L16.3957 36.33L18.1357 32.15H18.7757L16.6957 37H16.0857ZM21.785 37.08C21.0383 37.08 20.4483 36.86 20.015 36.42C19.5883 35.9733 19.375 35.3633 19.375 34.59C19.375 34.09 19.4717 33.65 19.665 33.27C19.8583 32.89 20.125 32.5933 20.465 32.38C20.8117 32.1667 21.2083 32.06 21.655 32.06C22.3017 32.06 22.805 32.27 23.165 32.69C23.525 33.11 23.705 33.6867 23.705 34.42V34.7H19.975C19.995 35.3 20.1583 35.7633 20.465 36.09C20.7783 36.41 21.2117 36.57 21.765 36.57C22.065 36.57 22.345 36.5233 22.605 36.43C22.8717 36.3367 23.1317 36.18 23.385 35.96L23.625 36.42C23.4117 36.6267 23.1383 36.79 22.805 36.91C22.4717 37.0233 22.1317 37.08 21.785 37.08ZM21.665 32.55C21.1583 32.55 20.7617 32.71 20.475 33.03C20.195 33.3433 20.0317 33.75 19.985 34.25H23.155C23.1417 33.7167 23.0083 33.3 22.755 33C22.5017 32.7 22.1383 32.55 21.665 32.55ZM26.3584 37.08C25.9051 37.08 25.5551 36.9433 25.3084 36.67C25.0684 36.39 24.9484 35.99 24.9484 35.47V29.95H25.5584V35.4C25.5584 36.1667 25.8584 36.55 26.4584 36.55C26.6251 36.55 26.7784 36.53 26.9184 36.49L26.8984 37.02C26.7051 37.06 26.5251 37.08 26.3584 37.08Z" fill="black"/>
<path d="M14 5L14 18" stroke="black" stroke-width="1.1" stroke-linecap="round" stroke-linejoin="round"/>
<path d="M18 3L10 7" stroke="black" stroke-width="1.1" stroke-linecap="round" stroke-linejoin="round"/>
<path d="M18 16L10 20" stroke="black" stroke-width="1.1" stroke-linecap="round" stroke-linejoin="round"/>
</svg>
