<svg width="28" height="41" viewBox="0 0 28 41" fill="none" xmlns="http://www.w3.org/2000/svg">
<path d="M14 1V17M14 1L12.5 2.5M14 1L15.5 2.5" stroke="black" stroke-width="1.1" stroke-linecap="round" stroke-linejoin="round"/>
<path d="M18 7.55556C18 9.51923 16 10.6667 14 12C12 10.6667 10 9.51923 10 7.55556C10 5.59188 11.7909 4 14 4C16.2091 4 18 5.59188 18 7.55556Z" stroke="black" stroke-width="1.1"/>
<path d="M18 16.4444C18 14.4808 16 13.3333 14 12C12 13.3333 10 14.4808 10 16.4444C10 18.4081 11.7909 20 14 20C16.2091 20 18 18.4081 18 16.4444Z" stroke="black" stroke-width="1.1"/>
<path d="M4.18836 34.08C3.28836 34.08 2.60503 33.84 2.13836 33.36C1.67169 32.8733 1.43836 32.17 1.43836 31.25V26.95H2.04836V31.2C2.04836 32.7467 2.76169 33.52 4.18836 33.52C5.61503 33.52 6.32836 32.7467 6.32836 31.2V26.95H6.93836V31.25C6.93836 32.17 6.70503 32.8733 6.23836 33.36C5.77169 33.84 5.08836 34.08 4.18836 34.08ZM8.60469 35.8V29.15H9.21469V30.06C9.36135 29.7533 9.58135 29.51 9.87469 29.33C10.1747 29.15 10.5214 29.06 10.9147 29.06C11.348 29.06 11.7247 29.1633 12.0447 29.37C12.3714 29.5767 12.6214 29.8667 12.7947 30.24C12.9747 30.6133 13.0647 31.0567 13.0647 31.57C13.0647 32.0833 12.9747 32.53 12.7947 32.91C12.6214 33.2833 12.3714 33.5733 12.0447 33.78C11.7247 33.98 11.348 34.08 10.9147 34.08C10.5214 34.08 10.1747 33.9933 9.87469 33.82C9.58135 33.6467 9.36135 33.4067 9.21469 33.1V35.8H8.60469ZM10.8247 33.57C11.318 33.57 11.7114 33.3967 12.0047 33.05C12.298 32.6967 12.4447 32.2033 12.4447 31.57C12.4447 30.9367 12.298 30.4467 12.0047 30.1C11.7114 29.7533 11.318 29.58 10.8247 29.58C10.3314 29.58 9.93802 29.7533 9.64469 30.1C9.35135 30.4467 9.20469 30.9367 9.20469 31.57C9.20469 32.2033 9.35135 32.6967 9.64469 33.05C9.93802 33.3967 10.3314 33.57 10.8247 33.57ZM14.3566 35.8V29.15H14.9666V30.06C15.1133 29.7533 15.3333 29.51 15.6266 29.33C15.9266 29.15 16.2733 29.06 16.6666 29.06C17.1 29.06 17.4766 29.1633 17.7966 29.37C18.1233 29.5767 18.3733 29.8667 18.5466 30.24C18.7266 30.6133 18.8166 31.0567 18.8166 31.57C18.8166 32.0833 18.7266 32.53 18.5466 32.91C18.3733 33.2833 18.1233 33.5733 17.7966 33.78C17.4766 33.98 17.1 34.08 16.6666 34.08C16.2733 34.08 15.9266 33.9933 15.6266 33.82C15.3333 33.6467 15.1133 33.4067 14.9666 33.1V35.8H14.3566ZM16.5766 33.57C17.07 33.57 17.4633 33.3967 17.7566 33.05C18.05 32.6967 18.1966 32.2033 18.1966 31.57C18.1966 30.9367 18.05 30.4467 17.7566 30.1C17.4633 29.7533 17.07 29.58 16.5766 29.58C16.0833 29.58 15.69 29.7533 15.3966 30.1C15.1033 30.4467 14.9566 30.9367 14.9566 31.57C14.9566 32.2033 15.1033 32.6967 15.3966 33.05C15.69 33.3967 16.0833 33.57 16.5766 33.57ZM22.2186 34.08C21.4719 34.08 20.8819 33.86 20.4486 33.42C20.0219 32.9733 19.8086 32.3633 19.8086 31.59C19.8086 31.09 19.9053 30.65 20.0986 30.27C20.2919 29.89 20.5586 29.5933 20.8986 29.38C21.2453 29.1667 21.6419 29.06 22.0886 29.06C22.7353 29.06 23.2386 29.27 23.5986 29.69C23.9586 30.11 24.1386 30.6867 24.1386 31.42V31.7H20.4086C20.4286 32.3 20.5919 32.7633 20.8986 33.09C21.2119 33.41 21.6453 33.57 22.1986 33.57C22.4986 33.57 22.7786 33.5233 23.0386 33.43C23.3053 33.3367 23.5653 33.18 23.8186 32.96L24.0586 33.42C23.8453 33.6267 23.5719 33.79 23.2386 33.91C22.9053 34.0233 22.5653 34.08 22.2186 34.08ZM22.0986 29.55C21.5919 29.55 21.1953 29.71 20.9086 30.03C20.6286 30.3433 20.4653 30.75 20.4186 31.25H23.5886C23.5753 30.7167 23.4419 30.3 23.1886 30C22.9353 29.7 22.5719 29.55 22.0986 29.55ZM25.382 34V29.15H25.982V30.03C26.122 29.7233 26.3254 29.49 26.592 29.33C26.8587 29.17 27.1987 29.0767 27.612 29.05L27.862 29.03L27.922 29.56L27.492 29.61C27.0187 29.65 26.652 29.8067 26.392 30.08C26.132 30.3467 26.002 30.7067 26.002 31.16V34H25.382Z" fill="black"/>
</svg>
