<svg width="58" height="44" viewBox="0 0 58 44" fill="none" xmlns="http://www.w3.org/2000/svg">
<path d="M3.91492 37.08C3.01492 37.08 2.33159 36.84 1.86492 36.36C1.39826 35.8733 1.16492 35.17 1.16492 34.25V29.95H1.77492V34.2C1.77492 35.7467 2.48826 36.52 3.91492 36.52C5.34159 36.52 6.05492 35.7467 6.05492 34.2V29.95H6.66492V34.25C6.66492 35.17 6.43159 35.8733 5.96492 36.36C5.49826 36.84 4.81492 37.08 3.91492 37.08ZM8.33125 38.8V32.15H8.94125V33.06C9.08792 32.7533 9.30792 32.51 9.60125 32.33C9.90125 32.15 10.2479 32.06 10.6413 32.06C11.0746 32.06 11.4513 32.1633 11.7713 32.37C12.0979 32.5767 12.3479 32.8667 12.5213 33.24C12.7013 33.6133 12.7913 34.0567 12.7913 34.57C12.7913 35.0833 12.7013 35.53 12.5213 35.91C12.3479 36.2833 12.0979 36.5733 11.7713 36.78C11.4513 36.98 11.0746 37.08 10.6413 37.08C10.2479 37.08 9.90125 36.9933 9.60125 36.82C9.30792 36.6467 9.08792 36.4067 8.94125 36.1V38.8H8.33125ZM10.5513 36.57C11.0446 36.57 11.4379 36.3967 11.7313 36.05C12.0246 35.6967 12.1713 35.2033 12.1713 34.57C12.1713 33.9367 12.0246 33.4467 11.7313 33.1C11.4379 32.7533 11.0446 32.58 10.5513 32.58C10.0579 32.58 9.66458 32.7533 9.37125 33.1C9.07792 33.4467 8.93125 33.9367 8.93125 34.57C8.93125 35.2033 9.07792 35.6967 9.37125 36.05C9.66458 36.3967 10.0579 36.57 10.5513 36.57ZM14.0832 38.8V32.15H14.6932V33.06C14.8399 32.7533 15.0599 32.51 15.3532 32.33C15.6532 32.15 15.9999 32.06 16.3932 32.06C16.8265 32.06 17.2032 32.1633 17.5232 32.37C17.8499 32.5767 18.0999 32.8667 18.2732 33.24C18.4532 33.6133 18.5432 34.0567 18.5432 34.57C18.5432 35.0833 18.4532 35.53 18.2732 35.91C18.0999 36.2833 17.8499 36.5733 17.5232 36.78C17.2032 36.98 16.8265 37.08 16.3932 37.08C15.9999 37.08 15.6532 36.9933 15.3532 36.82C15.0599 36.6467 14.8399 36.4067 14.6932 36.1V38.8H14.0832ZM16.3032 36.57C16.7965 36.57 17.1899 36.3967 17.4832 36.05C17.7765 35.6967 17.9232 35.2033 17.9232 34.57C17.9232 33.9367 17.7765 33.4467 17.4832 33.1C17.1899 32.7533 16.7965 32.58 16.3032 32.58C15.8099 32.58 15.4165 32.7533 15.1232 33.1C14.8299 33.4467 14.6832 33.9367 14.6832 34.57C14.6832 35.2033 14.8299 35.6967 15.1232 36.05C15.4165 36.3967 15.8099 36.57 16.3032 36.57ZM21.9452 37.08C21.1985 37.08 20.6085 36.86 20.1752 36.42C19.7485 35.9733 19.5352 35.3633 19.5352 34.59C19.5352 34.09 19.6318 33.65 19.8252 33.27C20.0185 32.89 20.2852 32.5933 20.6252 32.38C20.9718 32.1667 21.3685 32.06 21.8152 32.06C22.4618 32.06 22.9652 32.27 23.3252 32.69C23.6852 33.11 23.8652 33.6867 23.8652 34.42V34.7H20.1352C20.1552 35.3 20.3185 35.7633 20.6252 36.09C20.9385 36.41 21.3718 36.57 21.9252 36.57C22.2252 36.57 22.5052 36.5233 22.7652 36.43C23.0318 36.3367 23.2918 36.18 23.5452 35.96L23.7852 36.42C23.5718 36.6267 23.2985 36.79 22.9652 36.91C22.6318 37.0233 22.2918 37.08 21.9452 37.08ZM21.8252 32.55C21.3185 32.55 20.9218 32.71 20.6352 33.03C20.3552 33.3433 20.1918 33.75 20.1452 34.25H23.3152C23.3018 33.7167 23.1685 33.3 22.9152 33C22.6618 32.7 22.2985 32.55 21.8252 32.55ZM25.1086 37V32.15H25.7086V33.03C25.8486 32.7233 26.0519 32.49 26.3186 32.33C26.5853 32.17 26.9253 32.0767 27.3386 32.05L27.5886 32.03L27.6486 32.56L27.2186 32.61C26.7453 32.65 26.3786 32.8067 26.1186 33.08C25.8586 33.3467 25.7286 33.7067 25.7286 34.16V37H25.1086ZM27.9391 37.59L27.4391 37.44L29.9891 29.52L30.4991 29.67L27.9391 37.59ZM31.2247 37V29.95H31.8347V36.45H35.5147V37H31.2247ZM38.3374 37.08C37.8841 37.08 37.4908 36.98 37.1574 36.78C36.8241 36.5733 36.5641 36.2833 36.3774 35.91C36.1974 35.53 36.1074 35.0833 36.1074 34.57C36.1074 34.0633 36.1974 33.6233 36.3774 33.25C36.5641 32.87 36.8241 32.5767 37.1574 32.37C37.4908 32.1633 37.8841 32.06 38.3374 32.06C38.7974 32.06 39.1941 32.1633 39.5274 32.37C39.8608 32.5767 40.1174 32.87 40.2974 33.25C40.4841 33.6233 40.5774 34.0633 40.5774 34.57C40.5774 35.0833 40.4841 35.53 40.2974 35.91C40.1174 36.2833 39.8608 36.5733 39.5274 36.78C39.1941 36.98 38.7974 37.08 38.3374 37.08ZM38.3374 36.57C38.8308 36.57 39.2241 36.3967 39.5174 36.05C39.8108 35.6967 39.9574 35.2033 39.9574 34.57C39.9574 33.9367 39.8108 33.4467 39.5174 33.1C39.2241 32.7533 38.8308 32.58 38.3374 32.58C37.8441 32.58 37.4508 32.7533 37.1574 33.1C36.8708 33.4467 36.7274 33.9367 36.7274 34.57C36.7274 35.2033 36.8708 35.6967 37.1574 36.05C37.4508 36.3967 37.8441 36.57 38.3374 36.57ZM43.0976 37L41.3376 32.15H41.9876L43.4176 36.28L44.9076 32.15H45.5076L46.9676 36.29L48.4276 32.15H49.0576L47.2876 37H46.6576L45.1976 32.94L43.7276 37H43.0976ZM52.2186 37.08C51.4719 37.08 50.8819 36.86 50.4486 36.42C50.0219 35.9733 49.8086 35.3633 49.8086 34.59C49.8086 34.09 49.9053 33.65 50.0986 33.27C50.2919 32.89 50.5586 32.5933 50.8986 32.38C51.2453 32.1667 51.6419 32.06 52.0886 32.06C52.7353 32.06 53.2386 32.27 53.5986 32.69C53.9586 33.11 54.1386 33.6867 54.1386 34.42V34.7H50.4086C50.4286 35.3 50.5919 35.7633 50.8986 36.09C51.2119 36.41 51.6453 36.57 52.1986 36.57C52.4986 36.57 52.7786 36.5233 53.0386 36.43C53.3053 36.3367 53.5653 36.18 53.8186 35.96L54.0586 36.42C53.8453 36.6267 53.5719 36.79 53.2386 36.91C52.9053 37.0233 52.5653 37.08 52.2186 37.08ZM52.0986 32.55C51.5919 32.55 51.1953 32.71 50.9086 33.03C50.6286 33.3433 50.4653 33.75 50.4186 34.25H53.5886C53.5753 33.7167 53.4419 33.3 53.1886 33C52.9353 32.7 52.5719 32.55 52.0986 32.55ZM55.382 37V32.15H55.982V33.03C56.122 32.7233 56.3254 32.49 56.592 32.33C56.8587 32.17 57.1987 32.0767 57.612 32.05L57.862 32.03L57.922 32.56L57.492 32.61C57.0187 32.65 56.652 32.8067 56.392 33.08C56.132 33.3467 56.002 33.7067 56.002 34.16V37H55.382Z" fill="black"/>
<path d="M33 7.55556C33 9.51923 31 10.6667 29 12C27 10.6667 25 9.51923 25 7.55556C25 5.59188 26.7909 4 29 4C31.2091 4 33 5.59188 33 7.55556Z" stroke="black" stroke-width="1.1"/>
<path d="M33 16.4444C33 14.4808 31 13.3333 29 12C27 13.3333 25 14.4808 25 16.4444C25 18.4081 26.7909 20 29 20C31.2091 20 33 18.4081 33 16.4444Z" stroke="black" stroke-width="1.1"/>
<path d="M35 12L23 12" stroke="black" stroke-width="1.1" stroke-linecap="round" stroke-linejoin="round"/>
</svg>
