<svg width="34" height="44" viewBox="0 0 34 44" fill="none" xmlns="http://www.w3.org/2000/svg">
<path d="M3.74039 37L0.690391 29.95H1.35039L4.05039 36.23L6.75039 29.95H7.39039L4.33039 37H3.74039ZM9.77133 37.08C9.02466 37.08 8.43466 36.86 8.00133 36.42C7.57466 35.9733 7.36133 35.3633 7.36133 34.59C7.36133 34.09 7.45799 33.65 7.65133 33.27C7.84466 32.89 8.11133 32.5933 8.45133 32.38C8.79799 32.1667 9.19466 32.06 9.64133 32.06C10.288 32.06 10.7913 32.27 11.1513 32.69C11.5113 33.11 11.6913 33.6867 11.6913 34.42V34.7H7.96133C7.98133 35.3 8.14466 35.7633 8.45133 36.09C8.76466 36.41 9.19799 36.57 9.75133 36.57C10.0513 36.57 10.3313 36.5233 10.5913 36.43C10.858 36.3367 11.118 36.18 11.3713 35.96L11.6113 36.42C11.398 36.6267 11.1247 36.79 10.7913 36.91C10.458 37.0233 10.118 37.08 9.77133 37.08ZM9.65133 32.55C9.14466 32.55 8.74799 32.71 8.46133 33.03C8.18133 33.3433 8.01799 33.75 7.97133 34.25H11.1413C11.128 33.7167 10.9947 33.3 10.7413 33C10.488 32.7 10.1247 32.55 9.65133 32.55ZM12.9348 37V32.15H13.5348V33.03C13.6748 32.7233 13.8781 32.49 14.1448 32.33C14.4114 32.17 14.7514 32.0767 15.1648 32.05L15.4148 32.03L15.4748 32.56L15.0448 32.61C14.5714 32.65 14.2048 32.8067 13.9448 33.08C13.6848 33.3467 13.5548 33.7067 13.5548 34.16V37H12.9348ZM18.4464 37.08C17.9064 37.08 17.4997 36.9333 17.2264 36.64C16.9597 36.3467 16.8264 35.9267 16.8264 35.38V32.64H15.8664V32.15H16.8264V30.65H17.4364V32.15H19.0064V32.64H17.4364V35.3C17.4364 35.7067 17.5197 36.0167 17.6864 36.23C17.8531 36.4433 18.1297 36.55 18.5164 36.55C18.6297 36.55 18.7397 36.5367 18.8464 36.51C18.9531 36.4833 19.0464 36.4533 19.1264 36.42L19.2464 36.9C19.1731 36.9467 19.0564 36.9867 18.8964 37.02C18.7364 37.06 18.5864 37.08 18.4464 37.08ZM19.866 30.87V30.1H20.686V30.87H19.866ZM19.966 37V32.15H20.576V37H19.966ZM24.1628 37.08C23.6895 37.08 23.2828 36.9767 22.9428 36.77C22.6028 36.5567 22.3395 36.26 22.1528 35.88C21.9728 35.4933 21.8828 35.0467 21.8828 34.54C21.8828 33.7733 22.0828 33.17 22.4828 32.73C22.8895 32.2833 23.4495 32.06 24.1628 32.06C24.4561 32.06 24.7461 32.1167 25.0328 32.23C25.3195 32.3433 25.5595 32.5 25.7528 32.7L25.5128 33.16C25.3061 32.96 25.0861 32.8167 24.8528 32.73C24.6195 32.6367 24.3961 32.59 24.1828 32.59C23.6428 32.59 23.2261 32.76 22.9328 33.1C22.6461 33.44 22.5028 33.9233 22.5028 34.55C22.5028 35.1767 22.6461 35.67 22.9328 36.03C23.2261 36.3833 23.6428 36.56 24.1828 36.56C24.3961 36.56 24.6195 36.5167 24.8528 36.43C25.0861 36.3367 25.3061 36.19 25.5128 35.99L25.7528 36.45C25.5595 36.6433 25.3161 36.7967 25.0228 36.91C24.7361 37.0233 24.4495 37.08 24.1628 37.08ZM28.2238 37.08C27.8972 37.08 27.6038 37.0167 27.3438 36.89C27.0905 36.7633 26.8872 36.59 26.7338 36.37C26.5872 36.15 26.5138 35.9033 26.5138 35.63C26.5138 35.27 26.6038 34.99 26.7838 34.79C26.9638 34.5833 27.2672 34.4367 27.6938 34.35C28.1205 34.2633 28.7072 34.22 29.4538 34.22H29.7638V33.86C29.7638 33.4133 29.6738 33.09 29.4938 32.89C29.3138 32.6833 29.0272 32.58 28.6338 32.58C28.3405 32.58 28.0572 32.6233 27.7838 32.71C27.5172 32.7967 27.2405 32.9333 26.9538 33.12L26.7138 32.65C26.9672 32.47 27.2672 32.3267 27.6138 32.22C27.9605 32.1133 28.2972 32.06 28.6238 32.06C29.2105 32.06 29.6438 32.21 29.9238 32.51C30.2105 32.81 30.3538 33.27 30.3538 33.89V37H29.7738V36.13C29.6405 36.43 29.4372 36.6633 29.1638 36.83C28.8972 36.9967 28.5838 37.08 28.2238 37.08ZM28.3038 36.59C28.5905 36.59 28.8405 36.5233 29.0538 36.39C29.2738 36.25 29.4472 36.06 29.5738 35.82C29.7005 35.58 29.7638 35.3067 29.7638 35V34.67H29.4638C28.8638 34.67 28.3938 34.6967 28.0538 34.75C27.7205 34.8033 27.4872 34.8967 27.3538 35.03C27.2205 35.1633 27.1538 35.3467 27.1538 35.58C27.1538 35.88 27.2572 36.1233 27.4638 36.31C27.6705 36.4967 27.9505 36.59 28.3038 36.59ZM33.3584 37.08C32.9051 37.08 32.5551 36.9433 32.3084 36.67C32.0684 36.39 31.9484 35.99 31.9484 35.47V29.95H32.5584V35.4C32.5584 36.1667 32.8584 36.55 33.4584 36.55C33.6251 36.55 33.7784 36.53 33.9184 36.49L33.8984 37.02C33.7051 37.06 33.5251 37.08 33.3584 37.08Z" fill="black"/>
<path d="M16.6259 14L14.4279 9.065H15.3869L17.0179 12.852L18.6489 9.065H19.5729L17.3749 14H16.6259Z" fill="black"/>
<path d="M12 19.9167V4.08335C12 3.85324 12.1865 3.66669 12.4167 3.66669H21.5833C21.8135 3.66669 22 3.85323 22 4.08335V19.9167C22 20.1468 21.8135 20.3334 21.5833 20.3334H12.4167C12.1865 20.3334 12 20.1468 12 19.9167Z" stroke="black" stroke-width="0.916667" stroke-linecap="round" stroke-linejoin="round"/>
</svg>
