<svg width="41" height="47" viewBox="0 0 41 47" fill="none" xmlns="http://www.w3.org/2000/svg">
<path d="M3.17203 40L0.122031 32.95H0.782031L3.48203 39.23L6.18203 32.95H6.82203L3.76203 40H3.17203ZM7.55938 33.87V33.1H8.37938V33.87H7.55938ZM7.65938 40V35.15H8.26938V40H7.65938ZM12.1862 40.08C11.7928 40.08 11.4462 39.9933 11.1462 39.82C10.8528 39.64 10.6328 39.3933 10.4862 39.08V40H9.87617V32.95H10.4862V36.05C10.6328 35.7433 10.8528 35.5033 11.1462 35.33C11.4462 35.15 11.7928 35.06 12.1862 35.06C12.8395 35.06 13.3595 35.2867 13.7462 35.74C14.1395 36.1933 14.3362 36.8033 14.3362 37.57C14.3362 38.0833 14.2462 38.53 14.0662 38.91C13.8928 39.2833 13.6428 39.5733 13.3162 39.78C12.9962 39.98 12.6195 40.08 12.1862 40.08ZM12.0962 39.57C12.5895 39.57 12.9828 39.3967 13.2762 39.05C13.5695 38.6967 13.7162 38.2033 13.7162 37.57C13.7162 36.9367 13.5695 36.4467 13.2762 36.1C12.9828 35.7533 12.5895 35.58 12.0962 35.58C11.6028 35.58 11.2095 35.7533 10.9162 36.1C10.6228 36.4467 10.4762 36.9367 10.4762 37.57C10.4762 38.2033 10.6228 38.6967 10.9162 39.05C11.2095 39.3967 11.6028 39.57 12.0962 39.57ZM15.6281 40V35.15H16.2281V36.03C16.3681 35.7233 16.5715 35.49 16.8381 35.33C17.1048 35.17 17.4448 35.0767 17.8581 35.05L18.1081 35.03L18.1681 35.56L17.7381 35.61C17.2648 35.65 16.8981 35.8067 16.6381 36.08C16.3781 36.3467 16.2481 36.7067 16.2481 37.16V40H15.6281ZM20.4973 40.08C20.1706 40.08 19.8773 40.0167 19.6173 39.89C19.3639 39.7633 19.1606 39.59 19.0073 39.37C18.8606 39.15 18.7873 38.9033 18.7873 38.63C18.7873 38.27 18.8773 37.99 19.0573 37.79C19.2373 37.5833 19.5406 37.4367 19.9673 37.35C20.3939 37.2633 20.9806 37.22 21.7273 37.22H22.0373V36.86C22.0373 36.4133 21.9473 36.09 21.7673 35.89C21.5873 35.6833 21.3006 35.58 20.9073 35.58C20.6139 35.58 20.3306 35.6233 20.0573 35.71C19.7906 35.7967 19.5139 35.9333 19.2273 36.12L18.9873 35.65C19.2406 35.47 19.5406 35.3267 19.8873 35.22C20.2339 35.1133 20.5706 35.06 20.8973 35.06C21.4839 35.06 21.9173 35.21 22.1973 35.51C22.4839 35.81 22.6273 36.27 22.6273 36.89V40H22.0473V39.13C21.9139 39.43 21.7106 39.6633 21.4373 39.83C21.1706 39.9967 20.8573 40.08 20.4973 40.08ZM20.5773 39.59C20.8639 39.59 21.1139 39.5233 21.3273 39.39C21.5473 39.25 21.7206 39.06 21.8473 38.82C21.9739 38.58 22.0373 38.3067 22.0373 38V37.67H21.7373C21.1373 37.67 20.6673 37.6967 20.3273 37.75C19.9939 37.8033 19.7606 37.8967 19.6273 38.03C19.4939 38.1633 19.4273 38.3467 19.4273 38.58C19.4273 38.88 19.5306 39.1233 19.7373 39.31C19.9439 39.4967 20.2239 39.59 20.5773 39.59ZM26.0519 40.08C25.5119 40.08 25.1052 39.9333 24.8319 39.64C24.5652 39.3467 24.4319 38.9267 24.4319 38.38V35.64H23.4719V35.15H24.4319V33.65H25.0419V35.15H26.6119V35.64H25.0419V38.3C25.0419 38.7067 25.1252 39.0167 25.2919 39.23C25.4585 39.4433 25.7352 39.55 26.1219 39.55C26.2352 39.55 26.3452 39.5367 26.4519 39.51C26.5585 39.4833 26.6519 39.4533 26.7319 39.42L26.8519 39.9C26.7785 39.9467 26.6619 39.9867 26.5019 40.02C26.3419 40.06 26.1919 40.08 26.0519 40.08ZM29.4527 40.08C28.9993 40.08 28.606 39.98 28.2727 39.78C27.9393 39.5733 27.6793 39.2833 27.4927 38.91C27.3127 38.53 27.2227 38.0833 27.2227 37.57C27.2227 37.0633 27.3127 36.6233 27.4927 36.25C27.6793 35.87 27.9393 35.5767 28.2727 35.37C28.606 35.1633 28.9993 35.06 29.4527 35.06C29.9127 35.06 30.3093 35.1633 30.6427 35.37C30.976 35.5767 31.2327 35.87 31.4127 36.25C31.5993 36.6233 31.6927 37.0633 31.6927 37.57C31.6927 38.0833 31.5993 38.53 31.4127 38.91C31.2327 39.2833 30.976 39.5733 30.6427 39.78C30.3093 39.98 29.9127 40.08 29.4527 40.08ZM29.4527 39.57C29.946 39.57 30.3393 39.3967 30.6327 39.05C30.926 38.6967 31.0727 38.2033 31.0727 37.57C31.0727 36.9367 30.926 36.4467 30.6327 36.1C30.3393 35.7533 29.946 35.58 29.4527 35.58C28.9593 35.58 28.566 35.7533 28.2727 36.1C27.986 36.4467 27.8427 36.9367 27.8427 37.57C27.8427 38.2033 27.986 38.6967 28.2727 39.05C28.566 39.3967 28.9593 39.57 29.4527 39.57ZM32.9914 40V35.15H33.5914V36.03C33.7314 35.7233 33.9347 35.49 34.2014 35.33C34.4681 35.17 34.8081 35.0767 35.2214 35.05L35.4714 35.03L35.5314 35.56L35.1014 35.61C34.6281 35.65 34.2614 35.8067 34.0014 36.08C33.7414 36.3467 33.6114 36.7067 33.6114 37.16V40H32.9914ZM37.3321 41.8L38.1321 39.98L36.0721 35.15H36.7521L38.4621 39.33L40.1921 35.15H40.8521L37.9921 41.8H37.3321Z" fill="black"/>
<path d="M19 29.75L23 27.25L19 24.75L23 22.25L19 19.75L23 17.25L19 14.75L23 12.25L19 9.25L23 7.25L19 4.75L21 3.5L22 2.875L23 2.25" stroke="black" stroke-width="1.1" stroke-linecap="round" stroke-linejoin="round"/>
</svg>
