<svg width="53" height="40" viewBox="0 0 53 40" fill="none" xmlns="http://www.w3.org/2000/svg">
<path d="M3.25797 33L0.207969 25.95H0.867969L3.56797 32.23L6.26797 25.95H6.90797L3.84797 33H3.25797ZM7.64531 26.87V26.1H8.46531V26.87H7.64531ZM7.74531 33V28.15H8.35531V33H7.74531ZM11.5421 33.08C11.1821 33.08 10.8354 33.0267 10.5021 32.92C10.1754 32.8133 9.90544 32.66 9.69211 32.46L9.91211 32.01C10.1588 32.21 10.4221 32.3567 10.7021 32.45C10.9821 32.5367 11.2688 32.58 11.5621 32.58C11.9754 32.58 12.2854 32.5067 12.4921 32.36C12.7054 32.2067 12.8121 31.9967 12.8121 31.73C12.8121 31.5233 12.7421 31.36 12.6021 31.24C12.4621 31.12 12.2421 31.0233 11.9421 30.95L11.0721 30.75C10.2521 30.5633 9.84211 30.14 9.84211 29.48C9.84211 29.0533 10.0088 28.71 10.3421 28.45C10.6754 28.19 11.1154 28.06 11.6621 28.06C11.9954 28.06 12.3088 28.1167 12.6021 28.23C12.8954 28.3367 13.1354 28.4933 13.3221 28.7L13.0821 29.15C12.8888 28.9567 12.6688 28.8133 12.4221 28.72C12.1754 28.62 11.9188 28.57 11.6521 28.57C11.2654 28.57 10.9654 28.65 10.7521 28.81C10.5454 28.97 10.4421 29.1867 10.4421 29.46C10.4421 29.6667 10.5054 29.8333 10.6321 29.96C10.7588 30.0867 10.9654 30.1833 11.2521 30.25L12.1221 30.45C12.5554 30.55 12.8788 30.7 13.0921 30.9C13.3054 31.0933 13.4121 31.3567 13.4121 31.69C13.4121 32.1233 13.2421 32.4633 12.9021 32.71C12.5621 32.9567 12.1088 33.08 11.5421 33.08ZM14.6375 26.87V26.1H15.4575V26.87H14.6375ZM14.7375 33V28.15H15.3475V33H14.7375ZM18.8843 33.08C18.431 33.08 18.0376 32.98 17.7043 32.78C17.371 32.5733 17.111 32.2833 16.9243 31.91C16.7443 31.53 16.6543 31.0833 16.6543 30.57C16.6543 30.0633 16.7443 29.6233 16.9243 29.25C17.111 28.87 17.371 28.5767 17.7043 28.37C18.0376 28.1633 18.431 28.06 18.8843 28.06C19.3443 28.06 19.741 28.1633 20.0743 28.37C20.4076 28.5767 20.6643 28.87 20.8443 29.25C21.031 29.6233 21.1243 30.0633 21.1243 30.57C21.1243 31.0833 21.031 31.53 20.8443 31.91C20.6643 32.2833 20.4076 32.5733 20.0743 32.78C19.741 32.98 19.3443 33.08 18.8843 33.08ZM18.8843 32.57C19.3776 32.57 19.771 32.3967 20.0643 32.05C20.3576 31.6967 20.5043 31.2033 20.5043 30.57C20.5043 29.9367 20.3576 29.4467 20.0643 29.1C19.771 28.7533 19.3776 28.58 18.8843 28.58C18.391 28.58 17.9976 28.7533 17.7043 29.1C17.4176 29.4467 17.2743 29.9367 17.2743 30.57C17.2743 31.2033 17.4176 31.6967 17.7043 32.05C17.9976 32.3967 18.391 32.57 18.8843 32.57ZM22.423 33V28.15H23.023V29.02C23.183 28.7 23.413 28.46 23.713 28.3C24.013 28.14 24.3464 28.06 24.713 28.06C25.8664 28.06 26.443 28.6867 26.443 29.94V33H25.833V29.99C25.833 29.51 25.7364 29.1567 25.543 28.93C25.3497 28.7033 25.043 28.59 24.623 28.59C24.143 28.59 23.7564 28.74 23.463 29.04C23.1764 29.3333 23.033 29.73 23.033 30.23V33H22.423ZM30.6485 33V25.95H32.9185C34.0385 25.95 34.9018 26.25 35.5085 26.85C36.1218 27.45 36.4285 28.3233 36.4285 29.47C36.4285 30.6167 36.1218 31.4933 35.5085 32.1C34.9018 32.7 34.0385 33 32.9185 33H30.6485ZM31.2585 32.46H32.8685C34.8018 32.46 35.7685 31.4633 35.7685 29.47C35.7685 27.4833 34.8018 26.49 32.8685 26.49H31.2585V32.46ZM37.8625 33V28.15H38.4625V29.03C38.6025 28.7233 38.8058 28.49 39.0725 28.33C39.3392 28.17 39.6792 28.0767 40.0925 28.05L40.3425 28.03L40.4025 28.56L39.9725 28.61C39.4992 28.65 39.1325 28.8067 38.8725 29.08C38.6125 29.3467 38.4825 29.7067 38.4825 30.16V33H37.8625ZM41.1805 26.87V26.1H42.0005V26.87H41.1805ZM41.2805 33V28.15H41.8905V33H41.2805ZM44.9373 33L42.8573 28.15H43.5373L45.2473 32.33L46.9873 28.15H47.6273L45.5473 33H44.9373ZM50.6366 33.08C49.8899 33.08 49.2999 32.86 48.8666 32.42C48.4399 31.9733 48.2266 31.3633 48.2266 30.59C48.2266 30.09 48.3232 29.65 48.5166 29.27C48.7099 28.89 48.9766 28.5933 49.3166 28.38C49.6632 28.1667 50.0599 28.06 50.5066 28.06C51.1532 28.06 51.6566 28.27 52.0166 28.69C52.3766 29.11 52.5566 29.6867 52.5566 30.42V30.7H48.8266C48.8466 31.3 49.0099 31.7633 49.3166 32.09C49.6299 32.41 50.0632 32.57 50.6166 32.57C50.9166 32.57 51.1966 32.5233 51.4566 32.43C51.7232 32.3367 51.9832 32.18 52.2366 31.96L52.4766 32.42C52.2632 32.6267 51.9899 32.79 51.6566 32.91C51.3232 33.0233 50.9832 33.08 50.6366 33.08ZM50.5166 28.55C50.0099 28.55 49.6132 28.71 49.3266 29.03C49.0466 29.3433 48.8832 29.75 48.8366 30.25H52.0066C51.9932 29.7167 51.8599 29.3 51.6066 29C51.3532 28.7 50.9899 28.55 50.5166 28.55Z" fill="black"/>
<path d="M25 14H34" stroke="black" stroke-width="1.1" stroke-linecap="round"/>
<path d="M16 14H25" stroke="black" stroke-width="1.1" stroke-linecap="round"/>
<path d="M29 1L29 10" stroke="black" stroke-width="1.1" stroke-linecap="round"/>
<path d="M29 10H38" stroke="black" stroke-width="1.1" stroke-linecap="round"/>
<path d="M18 17H22" stroke="black" stroke-width="1.1" stroke-linecap="round"/>
<path d="M28 17H32" stroke="black" stroke-width="1.1" stroke-linecap="round"/>
<path d="M25 14L29 10" stroke="black" stroke-width="1.1" stroke-linecap="round"/>
</svg>
