<svg width="37" height="41" viewBox="0 0 37 41" fill="none" xmlns="http://www.w3.org/2000/svg">
<path d="M3.8107 34L0.760703 26.95H1.4207L4.1207 33.23L6.8207 26.95H7.4607L4.4007 34H3.8107ZM9.66164 34.08C9.20831 34.08 8.81497 33.98 8.48164 33.78C8.14831 33.5733 7.88831 33.2833 7.70164 32.91C7.52164 32.53 7.43164 32.0833 7.43164 31.57C7.43164 31.0633 7.52164 30.6233 7.70164 30.25C7.88831 29.87 8.14831 29.5767 8.48164 29.37C8.81497 29.1633 9.20831 29.06 9.66164 29.06C10.1216 29.06 10.5183 29.1633 10.8516 29.37C11.185 29.5767 11.4416 29.87 11.6216 30.25C11.8083 30.6233 11.9016 31.0633 11.9016 31.57C11.9016 32.0833 11.8083 32.53 11.6216 32.91C11.4416 33.2833 11.185 33.5733 10.8516 33.78C10.5183 33.98 10.1216 34.08 9.66164 34.08ZM9.66164 33.57C10.155 33.57 10.5483 33.3967 10.8416 33.05C11.135 32.6967 11.2816 32.2033 11.2816 31.57C11.2816 30.9367 11.135 30.4467 10.8416 30.1C10.5483 29.7533 10.155 29.58 9.66164 29.58C9.16831 29.58 8.77497 29.7533 8.48164 30.1C8.19497 30.4467 8.05164 30.9367 8.05164 31.57C8.05164 32.2033 8.19497 32.6967 8.48164 33.05C8.77497 33.3967 9.16831 33.57 9.66164 33.57ZM15.1804 34.08C14.7071 34.08 14.3004 33.9767 13.9604 33.77C13.6204 33.5567 13.3571 33.26 13.1704 32.88C12.9904 32.4933 12.9004 32.0467 12.9004 31.54C12.9004 30.7733 13.1004 30.17 13.5004 29.73C13.9071 29.2833 14.4671 29.06 15.1804 29.06C15.4737 29.06 15.7637 29.1167 16.0504 29.23C16.3371 29.3433 16.5771 29.5 16.7704 29.7L16.5304 30.16C16.3237 29.96 16.1037 29.8167 15.8704 29.73C15.6371 29.6367 15.4137 29.59 15.2004 29.59C14.6604 29.59 14.2437 29.76 13.9504 30.1C13.6637 30.44 13.5204 30.9233 13.5204 31.55C13.5204 32.1767 13.6637 32.67 13.9504 33.03C14.2437 33.3833 14.6604 33.56 15.2004 33.56C15.4137 33.56 15.6371 33.5167 15.8704 33.43C16.1037 33.3367 16.3237 33.19 16.5304 32.99L16.7704 33.45C16.5771 33.6433 16.3337 33.7967 16.0404 33.91C15.7537 34.0233 15.4671 34.08 15.1804 34.08ZM19.2414 34.08C18.9147 34.08 18.6214 34.0167 18.3614 33.89C18.1081 33.7633 17.9047 33.59 17.7514 33.37C17.6047 33.15 17.5314 32.9033 17.5314 32.63C17.5314 32.27 17.6214 31.99 17.8014 31.79C17.9814 31.5833 18.2847 31.4367 18.7114 31.35C19.1381 31.2633 19.7247 31.22 20.4714 31.22H20.7814V30.86C20.7814 30.4133 20.6914 30.09 20.5114 29.89C20.3314 29.6833 20.0447 29.58 19.6514 29.58C19.3581 29.58 19.0747 29.6233 18.8014 29.71C18.5347 29.7967 18.2581 29.9333 17.9714 30.12L17.7314 29.65C17.9847 29.47 18.2847 29.3267 18.6314 29.22C18.9781 29.1133 19.3147 29.06 19.6414 29.06C20.2281 29.06 20.6614 29.21 20.9414 29.51C21.2281 29.81 21.3714 30.27 21.3714 30.89V34H20.7914V33.13C20.6581 33.43 20.4547 33.6633 20.1814 33.83C19.9147 33.9967 19.6014 34.08 19.2414 34.08ZM19.3214 33.59C19.6081 33.59 19.8581 33.5233 20.0714 33.39C20.2914 33.25 20.4647 33.06 20.5914 32.82C20.7181 32.58 20.7814 32.3067 20.7814 32V31.67H20.4814C19.8814 31.67 19.4114 31.6967 19.0714 31.75C18.7381 31.8033 18.5047 31.8967 18.3714 32.03C18.2381 32.1633 18.1714 32.3467 18.1714 32.58C18.1714 32.88 18.2747 33.1233 18.4814 33.31C18.6881 33.4967 18.9681 33.59 19.3214 33.59ZM24.376 34.08C23.9227 34.08 23.5727 33.9433 23.326 33.67C23.086 33.39 22.966 32.99 22.966 32.47V26.95H23.576V32.4C23.576 33.1667 23.876 33.55 24.476 33.55C24.6427 33.55 24.796 33.53 24.936 33.49L24.916 34.02C24.7227 34.06 24.5427 34.08 24.376 34.08ZM25.7176 27.87V27.1H26.5376V27.87H25.7176ZM25.8176 34V29.15H26.4276V34H25.8176ZM27.8044 34V33.58L30.7044 29.64H27.8044V29.15H31.3944V29.57L28.5044 33.51H31.5044V34H27.8044ZM34.6366 34.08C33.8899 34.08 33.2999 33.86 32.8666 33.42C32.4399 32.9733 32.2266 32.3633 32.2266 31.59C32.2266 31.09 32.3232 30.65 32.5166 30.27C32.7099 29.89 32.9766 29.5933 33.3166 29.38C33.6632 29.1667 34.0599 29.06 34.5066 29.06C35.1532 29.06 35.6566 29.27 36.0166 29.69C36.3766 30.11 36.5566 30.6867 36.5566 31.42V31.7H32.8266C32.8466 32.3 33.0099 32.7633 33.3166 33.09C33.6299 33.41 34.0632 33.57 34.6166 33.57C34.9166 33.57 35.1966 33.5233 35.4566 33.43C35.7232 33.3367 35.9832 33.18 36.2366 32.96L36.4766 33.42C36.2632 33.6267 35.9899 33.79 35.6566 33.91C35.3232 34.0233 34.9832 34.08 34.6366 34.08ZM34.5166 29.55C34.0099 29.55 33.6132 29.71 33.3266 30.03C33.0466 30.3433 32.8832 30.75 32.8366 31.25H36.0066C35.9932 30.7167 35.8599 30.3 35.6066 30C35.3532 29.7 34.9899 29.55 34.5166 29.55Z" fill="black"/>
<path d="M15 6C16.0909 4.4 17.9091 4 19 4C20.0909 4 21.8427 4.46331 23 6" stroke="black" stroke-width="1.1" stroke-linecap="round"/>
<path d="M17 8C17.5304 7.35971 18.2499 7 19 7C19.7501 7 20.4696 7.35971 21 8" stroke="black" stroke-width="1.1" stroke-linecap="round"/>
<path d="M10.5 3.5L18.5436 21.4798C18.72 21.8742 19.28 21.8742 19.4564 21.4798L27.5 3.5" stroke="black" stroke-width="1.1" stroke-linecap="round" stroke-linejoin="round"/>
</svg>
