<svg width="27" height="45" viewBox="0 0 27 45" fill="none" xmlns="http://www.w3.org/2000/svg">
<path d="M2.87203 38L0.422031 30.95H1.06203L3.17203 37.09L5.30203 30.95H5.82203L7.95203 37.13L10.082 30.95H10.702L8.25203 38H7.67203L5.56203 31.88L3.43203 38H2.87203ZM12.7824 38.08C12.4558 38.08 12.1624 38.0167 11.9024 37.89C11.6491 37.7633 11.4458 37.59 11.2924 37.37C11.1458 37.15 11.0724 36.9033 11.0724 36.63C11.0724 36.27 11.1624 35.99 11.3424 35.79C11.5224 35.5833 11.8258 35.4367 12.2524 35.35C12.6791 35.2633 13.2658 35.22 14.0124 35.22H14.3224V34.86C14.3224 34.4133 14.2324 34.09 14.0524 33.89C13.8724 33.6833 13.5858 33.58 13.1924 33.58C12.8991 33.58 12.6158 33.6233 12.3424 33.71C12.0758 33.7967 11.7991 33.9333 11.5124 34.12L11.2724 33.65C11.5258 33.47 11.8258 33.3267 12.1724 33.22C12.5191 33.1133 12.8558 33.06 13.1824 33.06C13.7691 33.06 14.2024 33.21 14.4824 33.51C14.7691 33.81 14.9124 34.27 14.9124 34.89V38H14.3324V37.13C14.1991 37.43 13.9958 37.6633 13.7224 37.83C13.4558 37.9967 13.1424 38.08 12.7824 38.08ZM12.8624 37.59C13.1491 37.59 13.3991 37.5233 13.6124 37.39C13.8324 37.25 14.0058 37.06 14.1324 36.82C14.2591 36.58 14.3224 36.3067 14.3224 36V35.67H14.0224C13.4224 35.67 12.9524 35.6967 12.6124 35.75C12.2791 35.8033 12.0458 35.8967 11.9124 36.03C11.7791 36.1633 11.7124 36.3467 11.7124 36.58C11.7124 36.88 11.8158 37.1233 12.0224 37.31C12.2291 37.4967 12.5091 37.59 12.8624 37.59ZM16.407 31.87V31.1H17.227V31.87H16.407ZM16.507 38V33.15H17.117V38H16.507ZM20.3038 38.08C19.9438 38.08 19.5972 38.0267 19.2638 37.92C18.9372 37.8133 18.6672 37.66 18.4538 37.46L18.6738 37.01C18.9205 37.21 19.1838 37.3567 19.4638 37.45C19.7438 37.5367 20.0305 37.58 20.3238 37.58C20.7372 37.58 21.0472 37.5067 21.2538 37.36C21.4672 37.2067 21.5738 36.9967 21.5738 36.73C21.5738 36.5233 21.5038 36.36 21.3638 36.24C21.2238 36.12 21.0038 36.0233 20.7038 35.95L19.8338 35.75C19.0138 35.5633 18.6038 35.14 18.6038 34.48C18.6038 34.0533 18.7705 33.71 19.1038 33.45C19.4372 33.19 19.8772 33.06 20.4238 33.06C20.7572 33.06 21.0705 33.1167 21.3638 33.23C21.6572 33.3367 21.8972 33.4933 22.0838 33.7L21.8438 34.15C21.6505 33.9567 21.4305 33.8133 21.1838 33.72C20.9372 33.62 20.6805 33.57 20.4138 33.57C20.0272 33.57 19.7272 33.65 19.5138 33.81C19.3072 33.97 19.2038 34.1867 19.2038 34.46C19.2038 34.6667 19.2672 34.8333 19.3938 34.96C19.5205 35.0867 19.7272 35.1833 20.0138 35.25L20.8838 35.45C21.3172 35.55 21.6405 35.7 21.8538 35.9C22.0672 36.0933 22.1738 36.3567 22.1738 36.69C22.1738 37.1233 22.0038 37.4633 21.6638 37.71C21.3238 37.9567 20.8705 38.08 20.3038 38.08ZM25.2804 38.08C24.7404 38.08 24.3337 37.9333 24.0604 37.64C23.7937 37.3467 23.6604 36.9267 23.6604 36.38V33.64H22.7004V33.15H23.6604V31.65H24.2704V33.15H25.8404V33.64H24.2704V36.3C24.2704 36.7067 24.3537 37.0167 24.5204 37.23C24.6871 37.4433 24.9637 37.55 25.3504 37.55C25.4637 37.55 25.5737 37.5367 25.6804 37.51C25.7871 37.4833 25.8804 37.4533 25.9604 37.42L26.0804 37.9C26.0071 37.9467 25.8904 37.9867 25.7304 38.02C25.5704 38.06 25.4204 38.08 25.2804 38.08Z" fill="black"/>
<path d="M15.5 14.5L10.5 9.5" stroke="black" stroke-width="1.1" stroke-linecap="round" stroke-linejoin="round"/>
<path d="M10.5 14.5L15.5 9.5" stroke="black" stroke-width="1.1" stroke-linecap="round" stroke-linejoin="round"/>
<rect x="4" y="3" width="18" height="18" rx="0.5" stroke="black" stroke-width="1.1"/>
</svg>
