<svg width="25" height="44" viewBox="0 0 25 44" fill="none" xmlns="http://www.w3.org/2000/svg">
<path d="M3.46969 37L1.01969 29.95H1.65969L3.76969 36.09L5.89969 29.95H6.41969L8.54969 36.13L10.6797 29.95H11.2997L8.84969 37H8.26969L6.15969 30.88L4.02969 37H3.46969ZM13.3801 37.08C13.0534 37.08 12.7601 37.0167 12.5001 36.89C12.2467 36.7633 12.0434 36.59 11.8901 36.37C11.7434 36.15 11.6701 35.9033 11.6701 35.63C11.6701 35.27 11.7601 34.99 11.9401 34.79C12.1201 34.5833 12.4234 34.4367 12.8501 34.35C13.2767 34.2633 13.8634 34.22 14.6101 34.22H14.9201V33.86C14.9201 33.4133 14.8301 33.09 14.6501 32.89C14.4701 32.6833 14.1834 32.58 13.7901 32.58C13.4967 32.58 13.2134 32.6233 12.9401 32.71C12.6734 32.7967 12.3967 32.9333 12.1101 33.12L11.8701 32.65C12.1234 32.47 12.4234 32.3267 12.7701 32.22C13.1167 32.1133 13.4534 32.06 13.7801 32.06C14.3667 32.06 14.8001 32.21 15.0801 32.51C15.3667 32.81 15.5101 33.27 15.5101 33.89V37H14.9301V36.13C14.7967 36.43 14.5934 36.6633 14.3201 36.83C14.0534 36.9967 13.7401 37.08 13.3801 37.08ZM13.4601 36.59C13.7467 36.59 13.9967 36.5233 14.2101 36.39C14.4301 36.25 14.6034 36.06 14.7301 35.82C14.8567 35.58 14.9201 35.3067 14.9201 35V34.67H14.6201C14.0201 34.67 13.5501 34.6967 13.2101 34.75C12.8767 34.8033 12.6434 34.8967 12.5101 35.03C12.3767 35.1633 12.3101 35.3467 12.3101 35.58C12.3101 35.88 12.4134 36.1233 12.6201 36.31C12.8267 36.4967 13.1067 36.59 13.4601 36.59ZM18.5147 37.08C18.0614 37.08 17.7114 36.9433 17.4647 36.67C17.2247 36.39 17.1047 35.99 17.1047 35.47V29.95H17.7147V35.4C17.7147 36.1667 18.0147 36.55 18.6147 36.55C18.7814 36.55 18.9347 36.53 19.0747 36.49L19.0547 37.02C18.8614 37.06 18.6814 37.08 18.5147 37.08ZM19.9563 37V29.95H20.5663V34.35H20.5863L22.9763 32.15H23.7863L21.2363 34.49L24.0263 37H23.2163L20.5863 34.67H20.5663V37H19.9563Z" fill="black"/>
<path d="M12 2L12 22" stroke="black" stroke-width="1.1" stroke-linecap="round" stroke-linejoin="round"/>
<path d="M3 4L5 4" stroke="black" stroke-width="1.1" stroke-linecap="round" stroke-linejoin="round"/>
<path d="M3 20L5 20" stroke="black" stroke-width="1.1" stroke-linecap="round" stroke-linejoin="round"/>
<path d="M6 2L8 2" stroke="black" stroke-width="1.1" stroke-linecap="round" stroke-linejoin="round"/>
<path d="M16 2L18 2" stroke="black" stroke-width="1.1" stroke-linecap="round" stroke-linejoin="round"/>
<path d="M8 20L10 20" stroke="black" stroke-width="1.1" stroke-linecap="round" stroke-linejoin="round"/>
<path d="M14 20L16 20" stroke="black" stroke-width="1.1" stroke-linecap="round" stroke-linejoin="round"/>
<path d="M8 4L10 4" stroke="black" stroke-width="1.1" stroke-linecap="round" stroke-linejoin="round"/>
<path d="M14 4L16 4" stroke="black" stroke-width="1.1" stroke-linecap="round" stroke-linejoin="round"/>
<path d="M6 22L8 22" stroke="black" stroke-width="1.1" stroke-linecap="round" stroke-linejoin="round"/>
<path d="M11 2L13 2" stroke="black" stroke-width="1.1" stroke-linecap="round" stroke-linejoin="round"/>
<path d="M11 22L13 22" stroke="black" stroke-width="1.1" stroke-linecap="round" stroke-linejoin="round"/>
<path d="M19 4L21 4" stroke="black" stroke-width="1.1" stroke-linecap="round" stroke-linejoin="round"/>
<path d="M16 22L18 22" stroke="black" stroke-width="1.1" stroke-linecap="round" stroke-linejoin="round"/>
<path d="M19 20L21 20" stroke="black" stroke-width="1.1" stroke-linecap="round" stroke-linejoin="round"/>
</svg>
