<svg width="24" height="44" viewBox="0 0 24 44" fill="none" xmlns="http://www.w3.org/2000/svg">
<path d="M3.46188 37L1.01188 29.95H1.65188L3.76188 36.09L5.89188 29.95H6.41188L8.54188 36.13L10.6719 29.95H11.2919L8.84188 37H8.26188L6.15188 30.88L4.02188 37H3.46188ZM13.3723 37.08C13.0456 37.08 12.7523 37.0167 12.4923 36.89C12.2389 36.7633 12.0356 36.59 11.8823 36.37C11.7356 36.15 11.6623 35.9033 11.6623 35.63C11.6623 35.27 11.7523 34.99 11.9323 34.79C12.1123 34.5833 12.4156 34.4367 12.8423 34.35C13.2689 34.2633 13.8556 34.22 14.6023 34.22H14.9123V33.86C14.9123 33.4133 14.8223 33.09 14.6423 32.89C14.4623 32.6833 14.1756 32.58 13.7823 32.58C13.4889 32.58 13.2056 32.6233 12.9323 32.71C12.6656 32.7967 12.3889 32.9333 12.1023 33.12L11.8623 32.65C12.1156 32.47 12.4156 32.3267 12.7623 32.22C13.1089 32.1133 13.4456 32.06 13.7723 32.06C14.3589 32.06 14.7923 32.21 15.0723 32.51C15.3589 32.81 15.5023 33.27 15.5023 33.89V37H14.9223V36.13C14.7889 36.43 14.5856 36.6633 14.3123 36.83C14.0456 36.9967 13.7323 37.08 13.3723 37.08ZM13.4523 36.59C13.7389 36.59 13.9889 36.5233 14.2023 36.39C14.4223 36.25 14.5956 36.06 14.7223 35.82C14.8489 35.58 14.9123 35.3067 14.9123 35V34.67H14.6123C14.0123 34.67 13.5423 34.6967 13.2023 34.75C12.8689 34.8033 12.6356 34.8967 12.5023 35.03C12.3689 35.1633 12.3023 35.3467 12.3023 35.58C12.3023 35.88 12.4056 36.1233 12.6123 36.31C12.8189 36.4967 13.0989 36.59 13.4523 36.59ZM18.5069 37.08C18.0535 37.08 17.7035 36.9433 17.4569 36.67C17.2169 36.39 17.0969 35.99 17.0969 35.47V29.95H17.7069V35.4C17.7069 36.1667 18.0069 36.55 18.6069 36.55C18.7735 36.55 18.9269 36.53 19.0669 36.49L19.0469 37.02C18.8535 37.06 18.6735 37.08 18.5069 37.08ZM21.3584 37.08C20.9051 37.08 20.5551 36.9433 20.3084 36.67C20.0684 36.39 19.9484 35.99 19.9484 35.47V29.95H20.5584V35.4C20.5584 36.1667 20.8584 36.55 21.4584 36.55C21.6251 36.55 21.7784 36.53 21.9184 36.49L21.8984 37.02C21.7051 37.06 21.5251 37.08 21.3584 37.08Z" fill="black"/>
<rect x="6" y="3" width="12" height="18" rx="0.5" stroke="black" stroke-width="1.1" stroke-linejoin="round"/>
<path d="M12.328 14.6985C12.328 14.6985 12.7592 13.5138 14.4021 9" stroke="black" stroke-width="1.1" stroke-linecap="round" stroke-linejoin="round"/>
<path d="M9.24991 14.6985C9.24991 14.6985 9.68109 13.5138 11.324 9" stroke="black" stroke-width="1.1" stroke-linecap="round" stroke-linejoin="round"/>
</svg>
