<svg width="60" height="52" viewBox="0 0 60 52" fill="none" xmlns="http://www.w3.org/2000/svg">
<path d="M3.55172 45L1.10172 37.95H1.74172L3.85172 44.09L5.98172 37.95H6.50172L8.63172 44.13L10.7617 37.95H11.3817L8.93172 45H8.35172L6.24172 38.88L4.11172 45H3.55172ZM14.0623 45.08C13.3157 45.08 12.7257 44.86 12.2923 44.42C11.8657 43.9733 11.6523 43.3633 11.6523 42.59C11.6523 42.09 11.749 41.65 11.9423 41.27C12.1357 40.89 12.4023 40.5933 12.7423 40.38C13.089 40.1667 13.4857 40.06 13.9323 40.06C14.579 40.06 15.0823 40.27 15.4423 40.69C15.8023 41.11 15.9823 41.6867 15.9823 42.42V42.7H12.2523C12.2723 43.3 12.4357 43.7633 12.7423 44.09C13.0557 44.41 13.489 44.57 14.0423 44.57C14.3423 44.57 14.6223 44.5233 14.8823 44.43C15.149 44.3367 15.409 44.18 15.6623 43.96L15.9023 44.42C15.689 44.6267 15.4157 44.79 15.0823 44.91C14.749 45.0233 14.409 45.08 14.0623 45.08ZM13.9423 40.55C13.4357 40.55 13.039 40.71 12.7523 41.03C12.4723 41.3433 12.309 41.75 12.2623 42.25H15.4323C15.419 41.7167 15.2857 41.3 15.0323 41C14.779 40.7 14.4157 40.55 13.9423 40.55ZM17.1258 38.87V38.1H17.9458V38.87H17.1258ZM17.2258 45V40.15H17.8358V45H17.2258ZM21.5526 46.88C20.7059 46.88 20.0026 46.6567 19.4426 46.21L19.6726 45.75C19.9792 45.97 20.2759 46.1267 20.5626 46.22C20.8492 46.32 21.1726 46.37 21.5326 46.37C22.0192 46.37 22.3892 46.2367 22.6426 45.97C22.8959 45.7033 23.0226 45.3167 23.0226 44.81V43.87C22.8826 44.19 22.6592 44.44 22.3526 44.62C22.0526 44.8 21.7092 44.89 21.3226 44.89C20.8692 44.89 20.4792 44.79 20.1526 44.59C19.8326 44.3833 19.5826 44.1 19.4026 43.74C19.2292 43.3733 19.1426 42.95 19.1426 42.47C19.1426 41.99 19.2292 41.57 19.4026 41.21C19.5826 40.85 19.8326 40.57 20.1526 40.37C20.4792 40.1633 20.8692 40.06 21.3226 40.06C21.7092 40.06 22.0526 40.15 22.3526 40.33C22.6526 40.51 22.8726 40.7567 23.0126 41.07V40.15H23.6126V44.72C23.6126 46.16 22.9259 46.88 21.5526 46.88ZM21.3926 44.37C21.8926 44.37 22.2892 44.2 22.5826 43.86C22.8759 43.5133 23.0226 43.05 23.0226 42.47C23.0226 41.89 22.8759 41.43 22.5826 41.09C22.2892 40.75 21.8926 40.58 21.3926 40.58C20.8859 40.58 20.4859 40.75 20.1926 41.09C19.9059 41.43 19.7626 41.89 19.7626 42.47C19.7626 43.05 19.9059 43.5133 20.1926 43.86C20.4859 44.2 20.8859 44.37 21.3926 44.37ZM25.2238 45V37.95H25.8338V40.99C26.0005 40.6833 26.2305 40.4533 26.5238 40.3C26.8238 40.14 27.1538 40.06 27.5138 40.06C28.6672 40.06 29.2438 40.6867 29.2438 41.94V45H28.6338V41.99C28.6338 41.51 28.5372 41.1567 28.3438 40.93C28.1505 40.7033 27.8438 40.59 27.4238 40.59C26.9438 40.59 26.5572 40.74 26.2638 41.04C25.9772 41.3333 25.8338 41.73 25.8338 42.23V45H25.2238ZM32.6495 45.08C32.1095 45.08 31.7029 44.9333 31.4295 44.64C31.1629 44.3467 31.0295 43.9267 31.0295 43.38V40.64H30.0695V40.15H31.0295V38.65H31.6395V40.15H33.2095V40.64H31.6395V43.3C31.6395 43.7067 31.7229 44.0167 31.8895 44.23C32.0562 44.4433 32.3329 44.55 32.7195 44.55C32.8329 44.55 32.9429 44.5367 33.0495 44.51C33.1562 44.4833 33.2495 44.4533 33.3295 44.42L33.4495 44.9C33.3762 44.9467 33.2595 44.9867 33.0995 45.02C32.9395 45.06 32.7895 45.08 32.6495 45.08ZM33.9822 42.6V42.08H36.7022V42.6H33.9822ZM39.8214 45.08C39.4614 45.08 39.1147 45.0267 38.7814 44.92C38.4547 44.8133 38.1847 44.66 37.9714 44.46L38.1914 44.01C38.4381 44.21 38.7014 44.3567 38.9814 44.45C39.2614 44.5367 39.5481 44.58 39.8414 44.58C40.2547 44.58 40.5647 44.5067 40.7714 44.36C40.9847 44.2067 41.0914 43.9967 41.0914 43.73C41.0914 43.5233 41.0214 43.36 40.8814 43.24C40.7414 43.12 40.5214 43.0233 40.2214 42.95L39.3514 42.75C38.5314 42.5633 38.1214 42.14 38.1214 41.48C38.1214 41.0533 38.2881 40.71 38.6214 40.45C38.9547 40.19 39.3947 40.06 39.9414 40.06C40.2747 40.06 40.5881 40.1167 40.8814 40.23C41.1747 40.3367 41.4147 40.4933 41.6014 40.7L41.3614 41.15C41.1681 40.9567 40.9481 40.8133 40.7014 40.72C40.4547 40.62 40.1981 40.57 39.9314 40.57C39.5447 40.57 39.2447 40.65 39.0314 40.81C38.8247 40.97 38.7214 41.1867 38.7214 41.46C38.7214 41.6667 38.7847 41.8333 38.9114 41.96C39.0381 42.0867 39.2447 42.1833 39.5314 42.25L40.4014 42.45C40.8347 42.55 41.1581 42.7 41.3714 42.9C41.5847 43.0933 41.6914 43.3567 41.6914 43.69C41.6914 44.1233 41.5214 44.4633 41.1814 44.71C40.8414 44.9567 40.3881 45.08 39.8214 45.08ZM45.1268 45.08C44.3801 45.08 43.7901 44.86 43.3568 44.42C42.9301 43.9733 42.7168 43.3633 42.7168 42.59C42.7168 42.09 42.8135 41.65 43.0068 41.27C43.2001 40.89 43.4668 40.5933 43.8068 40.38C44.1535 40.1667 44.5501 40.06 44.9968 40.06C45.6435 40.06 46.1468 40.27 46.5068 40.69C46.8668 41.11 47.0468 41.6867 47.0468 42.42V42.7H43.3168C43.3368 43.3 43.5001 43.7633 43.8068 44.09C44.1201 44.41 44.5535 44.57 45.1068 44.57C45.4068 44.57 45.6868 44.5233 45.9468 44.43C46.2135 44.3367 46.4735 44.18 46.7268 43.96L46.9668 44.42C46.7535 44.6267 46.4801 44.79 46.1468 44.91C45.8135 45.0233 45.4735 45.08 45.1268 45.08ZM45.0068 40.55C44.5001 40.55 44.1035 40.71 43.8168 41.03C43.5368 41.3433 43.3735 41.75 43.3268 42.25H46.4968C46.4835 41.7167 46.3501 41.3 46.0968 41C45.8435 40.7 45.4801 40.55 45.0068 40.55ZM48.2902 45V40.15H48.8902V41.02C49.0502 40.7 49.2802 40.46 49.5802 40.3C49.8802 40.14 50.2136 40.06 50.5802 40.06C51.7336 40.06 52.3102 40.6867 52.3102 41.94V45H51.7002V41.99C51.7002 41.51 51.6036 41.1567 51.4102 40.93C51.2169 40.7033 50.9102 40.59 50.4902 40.59C50.0102 40.59 49.6236 40.74 49.3302 41.04C49.0436 41.3333 48.9002 41.73 48.9002 42.23V45H48.2902ZM55.4659 45.08C55.1059 45.08 54.7593 45.0267 54.4259 44.92C54.0993 44.8133 53.8293 44.66 53.6159 44.46L53.8359 44.01C54.0826 44.21 54.3459 44.3567 54.6259 44.45C54.9059 44.5367 55.1926 44.58 55.4859 44.58C55.8993 44.58 56.2093 44.5067 56.4159 44.36C56.6293 44.2067 56.7359 43.9967 56.7359 43.73C56.7359 43.5233 56.6659 43.36 56.5259 43.24C56.3859 43.12 56.1659 43.0233 55.8659 42.95L54.9959 42.75C54.1759 42.5633 53.7659 42.14 53.7659 41.48C53.7659 41.0533 53.9326 40.71 54.2659 40.45C54.5993 40.19 55.0393 40.06 55.5859 40.06C55.9193 40.06 56.2326 40.1167 56.5259 40.23C56.8193 40.3367 57.0593 40.4933 57.2459 40.7L57.0059 41.15C56.8126 40.9567 56.5926 40.8133 56.3459 40.72C56.0993 40.62 55.8426 40.57 55.5759 40.57C55.1893 40.57 54.8893 40.65 54.6759 40.81C54.4693 40.97 54.3659 41.1867 54.3659 41.46C54.3659 41.6667 54.4293 41.8333 54.5559 41.96C54.6826 42.0867 54.8893 42.1833 55.1759 42.25L56.0459 42.45C56.4793 42.55 56.8026 42.7 57.0159 42.9C57.2293 43.0933 57.3359 43.3567 57.3359 43.69C57.3359 44.1233 57.1659 44.4633 56.8259 44.71C56.4859 44.9567 56.0326 45.08 55.4659 45.08ZM58.4825 45V44.14H59.3325V45H58.4825Z" fill="black"/>
<path d="M34 11.5556C34 13.5192 32 14.6667 30 16C28 14.6667 26 13.5192 26 11.5556C26 9.59188 27.7909 8 30 8C32.2091 8 34 9.59188 34 11.5556Z" stroke="black" stroke-width="1.1"/>
<path d="M34 20.4444C34 18.4808 32 17.3333 30 16C28 17.3333 26 18.4808 26 20.4444C26 22.4081 27.7909 24 30 24C32.2091 24 34 22.4081 34 20.4444Z" stroke="black" stroke-width="1.1"/>
<path d="M28.25 29.75L30.8374 27.9019C31.2721 27.5913 31.252 26.9387 30.7989 26.6556L28.7676 25.386C28.2976 25.0922 28.2976 24.4078 28.7676 24.114L30.7324 22.886C31.2024 22.5922 31.2024 21.9078 30.7324 21.614L28.7676 20.386C28.2976 20.0922 28.2976 19.4078 28.7676 19.114L30.7324 17.886C31.2024 17.5922 31.2024 16.9078 30.7324 16.614L28.7676 15.386C28.2976 15.0922 28.2976 14.4078 28.7676 14.114L30.616 12.9588C31.1127 12.6483 31.0778 11.9139 30.5539 11.6519L28.8354 10.7927C28.3367 10.5434 28.2748 9.85641 28.7208 9.52188L30.875 7.90628C31.2964 7.59019 31.2692 6.9495 30.8225 6.67028L28.7011 5.34441C28.248 5.06125 28.2279 4.40865 28.6626 4.09812L31.25 2.25" stroke="black" stroke-width="1.1" stroke-linecap="round" stroke-linejoin="round"/>
</svg>
