<svg width="34" height="44" viewBox="0 0 34 44" fill="none" xmlns="http://www.w3.org/2000/svg">
<path d="M3.55758 37L1.10758 29.95H1.74758L3.85758 36.09L5.98758 29.95H6.50758L8.63758 36.13L10.7676 29.95H11.3876L8.93758 37H8.35758L6.24758 30.88L4.11758 37H3.55758ZM11.968 37V32.15H12.568V33.03C12.708 32.7233 12.9113 32.49 13.178 32.33C13.4446 32.17 13.7846 32.0767 14.198 32.05L14.448 32.03L14.508 32.56L14.078 32.61C13.6046 32.65 13.238 32.8067 12.978 33.08C12.718 33.3467 12.588 33.7067 12.588 34.16V37H11.968ZM15.2859 30.87V30.1H16.1059V30.87H15.2859ZM15.3859 37V32.15H15.9959V37H15.3859ZM19.1827 37.08C18.8227 37.08 18.4761 37.0267 18.1427 36.92C17.8161 36.8133 17.5461 36.66 17.3327 36.46L17.5527 36.01C17.7994 36.21 18.0627 36.3567 18.3427 36.45C18.6227 36.5367 18.9094 36.58 19.2027 36.58C19.6161 36.58 19.9261 36.5067 20.1327 36.36C20.3461 36.2067 20.4527 35.9967 20.4527 35.73C20.4527 35.5233 20.3827 35.36 20.2427 35.24C20.1027 35.12 19.8827 35.0233 19.5827 34.95L18.7127 34.75C17.8927 34.5633 17.4827 34.14 17.4827 33.48C17.4827 33.0533 17.6494 32.71 17.9827 32.45C18.3161 32.19 18.7561 32.06 19.3027 32.06C19.6361 32.06 19.9494 32.1167 20.2427 32.23C20.5361 32.3367 20.7761 32.4933 20.9627 32.7L20.7227 33.15C20.5294 32.9567 20.3094 32.8133 20.0627 32.72C19.8161 32.62 19.5594 32.57 19.2927 32.57C18.9061 32.57 18.6061 32.65 18.3927 32.81C18.1861 32.97 18.0827 33.1867 18.0827 33.46C18.0827 33.6667 18.1461 33.8333 18.2727 33.96C18.3994 34.0867 18.6061 34.1833 18.8927 34.25L19.7627 34.45C20.1961 34.55 20.5194 34.7 20.7327 34.9C20.9461 35.0933 21.0527 35.3567 21.0527 35.69C21.0527 36.1233 20.8827 36.4633 20.5427 36.71C20.2027 36.9567 19.7494 37.08 19.1827 37.08ZM24.1593 37.08C23.6193 37.08 23.2126 36.9333 22.9393 36.64C22.6726 36.3467 22.5393 35.9267 22.5393 35.38V32.64H21.5793V32.15H22.5393V30.65H23.1493V32.15H24.7193V32.64H23.1493V35.3C23.1493 35.7067 23.2326 36.0167 23.3993 36.23C23.566 36.4433 23.8426 36.55 24.2293 36.55C24.3426 36.55 24.4526 36.5367 24.5593 36.51C24.666 36.4833 24.7593 36.4533 24.8393 36.42L24.9593 36.9C24.886 36.9467 24.7693 36.9867 24.6093 37.02C24.4493 37.06 24.2993 37.08 24.1593 37.08ZM28.3087 37V29.95H30.9687C31.722 29.95 32.2953 30.1233 32.6887 30.47C33.0887 30.8167 33.2887 31.31 33.2887 31.95C33.2887 32.4767 33.1453 32.9033 32.8587 33.23C32.572 33.5567 32.1653 33.7667 31.6387 33.86C31.9253 33.9667 32.1787 34.2267 32.3987 34.64L33.6787 37H33.0087L31.7887 34.74C31.6153 34.4267 31.422 34.2167 31.2087 34.11C30.9953 34.0033 30.7087 33.95 30.3487 33.95H28.9187V37H28.3087ZM28.9187 33.43H30.8887C32.0753 33.43 32.6687 32.9367 32.6687 31.95C32.6687 30.97 32.0753 30.48 30.8887 30.48H28.9187V33.43Z" fill="black"/>
<path d="M15 2L15 17" stroke="black" stroke-width="1.1" stroke-linecap="round" stroke-linejoin="round"/>
<path d="M20 7L15 2" stroke="black" stroke-width="1.1" stroke-linecap="round" stroke-linejoin="round"/>
<path d="M20 14.5L15 9.5" stroke="black" stroke-width="1.1" stroke-linecap="round" stroke-linejoin="round"/>
<path d="M20 22L15 17" stroke="black" stroke-width="1.1" stroke-linecap="round" stroke-linejoin="round"/>
</svg>
