<svg width="32" height="44" viewBox="0 0 32 44" fill="none" xmlns="http://www.w3.org/2000/svg">
<path d="M2.81734 37L0.367344 29.95H1.00734L3.11734 36.09L5.24734 29.95H5.76734L7.89734 36.13L10.0273 29.95H10.6473L8.19734 37H7.61734L5.50734 30.88L3.37734 37H2.81734ZM11.2277 37V32.15H11.8277V33.03C11.9677 32.7233 12.1711 32.49 12.4377 32.33C12.7044 32.17 13.0444 32.0767 13.4577 32.05L13.7077 32.03L13.7677 32.56L13.3377 32.61C12.8644 32.65 12.4977 32.8067 12.2377 33.08C11.9777 33.3467 11.8477 33.7067 11.8477 34.16V37H11.2277ZM14.5457 30.87V30.1H15.3657V30.87H14.5457ZM14.6457 37V32.15H15.2557V37H14.6457ZM18.4425 37.08C18.0825 37.08 17.7358 37.0267 17.4025 36.92C17.0758 36.8133 16.8058 36.66 16.5925 36.46L16.8125 36.01C17.0592 36.21 17.3225 36.3567 17.6025 36.45C17.8825 36.5367 18.1692 36.58 18.4625 36.58C18.8758 36.58 19.1858 36.5067 19.3925 36.36C19.6058 36.2067 19.7125 35.9967 19.7125 35.73C19.7125 35.5233 19.6425 35.36 19.5025 35.24C19.3625 35.12 19.1425 35.0233 18.8425 34.95L17.9725 34.75C17.1525 34.5633 16.7425 34.14 16.7425 33.48C16.7425 33.0533 16.9092 32.71 17.2425 32.45C17.5758 32.19 18.0158 32.06 18.5625 32.06C18.8958 32.06 19.2092 32.1167 19.5025 32.23C19.7958 32.3367 20.0358 32.4933 20.2225 32.7L19.9825 33.15C19.7892 32.9567 19.5692 32.8133 19.3225 32.72C19.0758 32.62 18.8192 32.57 18.5525 32.57C18.1658 32.57 17.8658 32.65 17.6525 32.81C17.4458 32.97 17.3425 33.1867 17.3425 33.46C17.3425 33.6667 17.4058 33.8333 17.5325 33.96C17.6592 34.0867 17.8658 34.1833 18.1525 34.25L19.0225 34.45C19.4558 34.55 19.7792 34.7 19.9925 34.9C20.2058 35.0933 20.3125 35.3567 20.3125 35.69C20.3125 36.1233 20.1425 36.4633 19.8025 36.71C19.4625 36.9567 19.0092 37.08 18.4425 37.08ZM23.4191 37.08C22.8791 37.08 22.4724 36.9333 22.1991 36.64C21.9324 36.3467 21.7991 35.9267 21.7991 35.38V32.64H20.8391V32.15H21.7991V30.65H22.4091V32.15H23.9791V32.64H22.4091V35.3C22.4091 35.7067 22.4924 36.0167 22.6591 36.23C22.8257 36.4433 23.1024 36.55 23.4891 36.55C23.6024 36.55 23.7124 36.5367 23.8191 36.51C23.9257 36.4833 24.0191 36.4533 24.0991 36.42L24.2191 36.9C24.1457 36.9467 24.0291 36.9867 23.8691 37.02C23.7091 37.06 23.5591 37.08 23.4191 37.08ZM27.5684 37V29.95H28.1784V36.45H31.8584V37H27.5684Z" fill="black"/>
<path d="M18 2L18 17" stroke="black" stroke-width="1.1" stroke-linecap="round" stroke-linejoin="round"/>
<path d="M13 7L18 2" stroke="black" stroke-width="1.1" stroke-linecap="round" stroke-linejoin="round"/>
<path d="M13 14.5L18 9.5" stroke="black" stroke-width="1.1" stroke-linecap="round" stroke-linejoin="round"/>
<path d="M13 22L18 17" stroke="black" stroke-width="1.1" stroke-linecap="round" stroke-linejoin="round"/>
</svg>
